<?xml version="1.0" encoding="UTF-8"?>
<svg width="32px" height="32px" viewBox="0 0 32 32" version="1.1" xmlns="http://www.w3.org/2000/svg" xmlns:xlink="http://www.w3.org/1999/xlink">
    <title>Icon/Decorative/32px/Add</title>
    <g id="Icon/Decorative/32px/Add" stroke="none" stroke-width="1" fill="none" fill-rule="evenodd">
        <path d="M8.11187316,15.8698386 C8.11187316,15.2422497 8.6263472,14.7342685 9.26195778,14.7342685 L14.9653514,14.7342685 L14.9653514,9.00998197 C14.9653514,8.38239303 15.4798254,7.87441186 16.115436,7.87441186 C16.7510466,7.87441186 17.2655206,8.38239303 17.2655206,9.00998197 L17.2655206,14.7342685 L22.9689142,14.7342685 C23.6045248,14.7342685 24.1189988,15.2422497 24.1189988,15.8698386 C24.1189988,16.4974276 23.6045248,17.0054087 22.9689142,17.0054087 L17.2655206,17.0054087 L17.2655206,22.7296953 C17.2655206,23.3572842 16.7510466,23.8666725 16.115436,23.8666725 C15.4798254,23.8666725 14.9653514,23.3572842 14.9653514,22.7296953 L14.9653514,17.0054087 L9.26195778,17.0054087 C8.6263472,17.0054087 8.11187316,16.4974276 8.11187316,15.8698386 L8.11187316,15.8698386 Z M2.30016923,29.7288598 L29.6984056,29.7288598 L29.6984056,2.27254738 L2.30016923,2.27254738 L2.30016923,29.7288598 Z M30.8499154,0 L1.15008462,0 C0.514474036,0 0,0.507981179 0,1.13557012 L0,30.8644299 C0,31.4920188 0.514474036,32 1.15008462,32 L30.8499154,32 C31.4841008,32 32,31.4920188 32,30.8644299 L32,1.13557012 C32,0.507981179 31.4841008,0 30.8499154,0 L30.8499154,0 Z" id="Add" fill="#394762"></path>
    </g>
</svg>