<svg width="32" height="32" viewBox="0 0 32 32" fill="none" xmlns="http://www.w3.org/2000/svg">
<path d="M9.08533 5.68802C7.70108 6.45669 6.56011 7.59812 5.79199 8.98269" stroke="#394762" stroke-width="2" stroke-linecap="round" stroke-linejoin="round"/>
<path d="M7.96667 2C6.546 2.40392 5.25213 3.16421 4.20786 4.2087C3.1636 5.2532 2.4036 6.54724 2 7.968" stroke="#394762" stroke-width="2" stroke-linecap="round" stroke-linejoin="round"/>
<path d="M6 24H26" stroke="#394762" stroke-width="2" stroke-linecap="round" stroke-linejoin="round"/>
<path d="M26 24C26 24 24 22.2587 24 16C24 11 20.584 6.57599 16 6.57599C11.416 6.57599 8 11 8 16C8 22.292 6 24 6 24" stroke="#394762" stroke-width="2" stroke-linecap="round" stroke-linejoin="round"/>
<path d="M18 28C18 28.5304 17.7893 29.0391 17.4142 29.4142C17.0391 29.7893 16.5304 30 16 30C15.4696 30 14.9609 29.7893 14.5858 29.4142C14.2107 29.0391 14 28.5304 14 28" stroke="#394762" stroke-width="2" stroke-linecap="round" stroke-linejoin="round"/>
<path d="M16 6.576V4" stroke="#394762" stroke-width="2" stroke-linecap="round" stroke-linejoin="round"/>
<path d="M22.9147 5.68802C23.6023 6.07192 24.2339 6.54837 24.792 7.10402C25.3486 7.66176 25.8251 8.29401 26.208 8.98269" stroke="#394762" stroke-width="2" stroke-linecap="round" stroke-linejoin="round"/>
<path d="M24.0333 2C25.454 2.40392 26.7479 3.16421 27.7921 4.2087C28.8364 5.2532 29.5964 6.54724 30 7.968" stroke="#394762" stroke-width="2" stroke-linecap="round" stroke-linejoin="round"/>
</svg>
