<svg width="32" height="32" viewBox="0 0 32 32" fill="none" xmlns="http://www.w3.org/2000/svg">
<path d="M3.00001 5.23069V15.3827C3.00004 18.5915 3.97244 21.7251 5.78903 24.3702C7.60561 27.0154 10.1811 29.0479 13.176 30.2L14.564 30.7334C15.4883 31.0889 16.5117 31.0889 17.436 30.7334L18.824 30.2C21.8189 29.0479 24.3944 27.0154 26.211 24.3702C28.0276 21.7251 29 18.5915 29 15.3827V5.23069C29.0026 4.84867 28.8947 4.47404 28.6894 4.15187C28.4841 3.8297 28.19 3.57371 27.8427 3.41469C24.1091 1.78508 20.0735 0.962237 16 1.00002C11.9265 0.962237 7.8909 1.78508 4.15735 3.41469C3.80999 3.57371 3.51596 3.8297 3.31064 4.15187C3.10533 4.47404 2.99746 4.84867 3.00001 5.23069V5.23069Z" stroke="#394762" stroke-width="1.7" stroke-linecap="round" stroke-linejoin="round"/>
<path d="M22.9333 15C22.7417 16.3278 22.1725 17.5725 21.2936 18.5861C20.4147 19.5996 19.263 20.3392 17.9757 20.7169C16.6884 21.0946 15.3197 21.0944 14.0325 20.7163C12.7454 20.3383 11.5939 19.5983 10.7153 18.5845C9.83669 17.5707 9.26789 16.3258 9.07663 14.998C8.88538 13.6701 9.07971 12.3153 9.63651 11.0947C10.1933 9.87417 11.0891 8.83933 12.2173 8.11339C13.3454 7.38745 14.6585 7.00098 16 7" stroke="#394762" stroke-width="1.7" stroke-linecap="round" stroke-linejoin="round"/>
<path d="M23 8.74939L16.6187 15.1307C16.4545 15.2945 16.232 15.3865 16 15.3865C15.7681 15.3865 15.5456 15.2945 15.3813 15.1307L13.3813 13.1241" stroke="#394762" stroke-width="1.7" stroke-linecap="round" stroke-linejoin="round"/>
</svg>
