<?xml version="1.0" encoding="UTF-8"?>
<svg width="32px" height="32px" viewBox="0 0 32 32" version="1.1" xmlns="http://www.w3.org/2000/svg" xmlns:xlink="http://www.w3.org/1999/xlink">
    <title>Icon/Decorative/32px/Authenticate</title>
    <defs>
        <filter id="filter-1">
            <feColorMatrix in="SourceGraphic" type="matrix" values="0 0 0 0 0.223529 0 0 0 0 0.278431 0 0 0 0 0.384314 0 0 0 1.000000 0"></feColorMatrix>
        </filter>
    </defs>
    <g id="Icon/Decorative/32px/Authenticate" stroke="none" stroke-width="1" fill="none" fill-rule="evenodd" stroke-linecap="round" stroke-linejoin="round">
        <g filter="url(#filter-1)" id="Authenticate">
            <g transform="translate(3.000000, 1.000000)">
                <path d="M0.0283647138,4.29185606 L0.0283647138,14.3861742 C0.0283647138,20.917511 4.05073061,26.774356 10.1465909,29.1193182 L11.5267045,29.6496212 C12.4457767,30.0031342 13.4633142,30.0031342 14.3823864,29.6496212 L15.7625,29.1193182 C21.8583603,26.774356 25.8807262,20.917511 25.8807262,14.3861742 L25.8807262,4.29185606 C25.8858719,3.51594652 25.4354352,2.80915537 24.7299242,2.48617424 C21.017588,0.865819001 17.0049256,0.0476551178 12.9545455,0.0852272727 C8.90416528,0.0476551178 4.89150288,0.865819001 1.17916667,2.48617424 C0.473655688,2.80915537 0.0232190375,3.51594652 0.0283647138,4.29185606 Z" id="Path" stroke="#394762" stroke-width="1.98863636"></path>
                <path d="M19.8484848,14.0056818 C19.3178948,17.6817105 15.9944584,20.2934902 12.2971956,19.9399924 C8.59993286,19.5864946 5.8316117,16.3922779 6.00720201,12.6823074 C6.18279231,8.97233698 9.24042304,6.05385848 12.9545455,6.05113636" id="Path" stroke="#394762" stroke-width="1.98863636"></path>
                <path d="M19.9147727,7.7905303 L13.569697,14.1356061 C13.2297148,14.4747567 12.6793761,14.4747567 12.3393939,14.1356061 L10.3507576,12.1403409" id="Path" stroke="#394762" stroke-width="1.98863636"></path>
            </g>
        </g>
    </g>
</svg>