<?xml version="1.0" encoding="UTF-8"?>
<svg width="32px" height="32px" viewBox="0 0 32 32" version="1.1" xmlns="http://www.w3.org/2000/svg" xmlns:xlink="http://www.w3.org/1999/xlink">
    <title>Icon/Decorative/32px/Auto</title>
    <defs>
        <filter id="filter-1">
            <feColorMatrix in="SourceGraphic" type="matrix" values="0 0 0 0 0.223529 0 0 0 0 0.278431 0 0 0 0 0.384314 0 0 0 1.000000 0"></feColorMatrix>
        </filter>
    </defs>
    <g id="Icon/Decorative/32px/Auto" stroke="none" stroke-width="1" fill="none" fill-rule="evenodd" stroke-linecap="round" stroke-linejoin="round">
        <g filter="url(#filter-1)" id="Auto">
            <g transform="translate(1.000000, 4.000000)">
                <path d="M27.9261364,20.1028409 C29.0244299,20.1028409 29.9147727,19.2124981 29.9147727,18.1142045 L29.9147727,13.1439394 C29.9143721,12.5079719 29.6616675,11.8981432 29.2121212,11.4482955 L25.9375,8.17234848 L4.0625,8.17234848 L0.787878788,11.4469697 C0.338007991,11.8971425 0.0852272727,12.5075124 0.0852272727,13.1439394 L0.0852272727,18.1155303 C0.0852272727,19.2138238 0.9755701,20.1041667 2.07386364,20.1041667 L27.9261364,20.1028409 Z" id="Path" stroke="#394762" stroke-width="1.98863636"></path>
                <path d="M4.0625,8.17234848 L6.3467803,2.08049242 C6.76709462,0.96043786 7.837769,0.218307863 9.03409091,0.21780303 L20.9659091,0.21780303 C22.162231,0.218307863 23.2329054,0.96043786 23.6532197,2.08049242 L25.9375,8.17897727 L4.0625,8.17234848 Z" id="Path" stroke="#394762" stroke-width="1.98863636"></path>
                <polyline id="Path" stroke="#394762" stroke-width="1.98863636" points="4.0625 8.17234848 2.07386364 6.18371212 0.0852272727 6.18371212"></polyline>
                <polyline id="Path" stroke="#394762" stroke-width="1.98863636" points="25.9375 8.17234848 27.9261364 6.18371212 29.9147727 6.18371212"></polyline>
                <path d="M2.07386364,20.1028409 L2.07386364,22.0914773 C2.07386364,23.1897708 2.96420646,24.0801136 4.0625,24.0801136 C5.16079354,24.0801136 6.05113636,23.1897708 6.05113636,22.0914773 L6.05113636,20.1028409 L2.07386364,20.1028409 Z" id="Path" stroke="#394762" stroke-width="1.98863636"></path>
                <path d="M27.9261364,20.1028409 L27.9261364,22.0914773 C27.9261364,23.1897708 27.0357935,24.0801136 25.9375,24.0801136 C24.8392065,24.0801136 23.9488636,23.1897708 23.9488636,22.0914773 L23.9488636,20.1028409 L27.9261364,20.1028409 Z" id="Path" stroke="#394762" stroke-width="1.98863636"></path>
                <path d="M12.5142045,16.1255682 L10.9789773,13.6742424 C10.7862315,13.3679691 10.7748399,12.9812304 10.9492242,12.664143 C11.1236085,12.3470556 11.4563079,12.1495521 11.8181818,12.1482955 L18.1818182,12.1482955 C18.5431185,12.1490113 18.8756778,12.3453995 19.0507669,12.6614409 C19.2258561,12.9774824 19.2159947,13.3635741 19.025,13.6702652 L17.4897727,16.1255682" id="Path" stroke="#394762" stroke-width="1.98863636"></path>
                <path d="M29.6960227,12.1482955 L25.5583333,12.1482955 C25.2137611,12.1488196 24.8939545,12.3274683 24.7128381,12.6206016 C24.5317216,12.9137349 24.5150454,13.2796769 24.66875,13.5880682 L24.838447,13.9274621 C25.5113825,15.2728864 26.8858229,16.1235106 28.3901515,16.1255682 L29.9147727,16.1255682" id="Path" stroke="#394762" stroke-width="1.98863636"></path>
                <path d="M0.303977273,12.1482955 L4.44166667,12.1482955 C4.7862389,12.1488196 5.10604549,12.3274683 5.28716192,12.6206016 C5.46827836,12.9137349 5.48495457,13.2796769 5.33125,13.5880682 L5.16155303,13.9274621 C4.48861748,15.2728864 3.11417709,16.1235106 1.60984848,16.1255682 L0.0852272727,16.1255682" id="Path" stroke="#394762" stroke-width="1.98863636"></path>
            </g>
        </g>
    </g>
</svg>