<svg width="32" height="32" viewBox="0 0 32 32" fill="none" xmlns="http://www.w3.org/2000/svg">
<path d="M13.3333 29C13.5027 29.5769 13.8544 30.0835 14.3357 30.4438C14.817 30.8041 15.4021 30.9989 16.0033 30.9989C16.6046 30.9989 17.1897 30.8041 17.671 30.4438C18.1523 30.0835 18.504 29.5769 18.6733 29" stroke="#394762" stroke-width="1.7" stroke-linecap="round" stroke-linejoin="round"/>
<path d="M16 4V1" stroke="#394762" stroke-width="1.7" stroke-linecap="round" stroke-linejoin="round"/>
<path d="M16 4C18.6522 4 21.1957 5.05357 23.0711 6.92893C24.9464 8.8043 26 11.3478 26 14C26 23.3947 28 25 28 25H4C4 25 6 22.4453 6 14C6 11.3478 7.05357 8.8043 8.92893 6.92893C10.8043 5.05357 13.3478 4 16 4V4Z" stroke="#394762" stroke-width="1.7" stroke-linecap="round" stroke-linejoin="round"/>
</svg>
