<svg width="32" height="32" viewBox="0 0 32 32" fill="none" xmlns="http://www.w3.org/2000/svg">
<path d="M17.3333 30.5413C20.6836 27.7048 24.7859 25.9029 29.1413 25.3546C29.6546 25.287 30.1257 25.0351 30.467 24.6458C30.8082 24.2564 30.9962 23.7563 30.996 23.2386V3.15331C30.9964 2.84561 30.9309 2.5414 30.8037 2.26121C30.6765 1.98103 30.4907 1.7314 30.2587 1.52918C30.0268 1.32696 29.7542 1.17686 29.4593 1.08901C29.1644 1.00117 28.8541 0.977629 28.5493 1.01998C24.4116 1.66076 20.5307 3.43004 17.3333 6.13331C16.9514 6.42826 16.4825 6.58825 16 6.58825C15.5175 6.58825 15.0486 6.42826 14.6667 6.13331C11.4678 3.43034 7.5855 1.66195 3.44667 1.02265C3.14212 0.980327 2.83203 1.0038 2.53733 1.09149C2.24262 1.17918 1.97014 1.32904 1.73826 1.53097C1.50639 1.7329 1.32051 1.9822 1.19315 2.26206C1.0658 2.54192 0.999933 2.84584 1 3.15331V23.2386C0.999771 23.7563 1.1878 24.2564 1.52903 24.6458C1.87026 25.0351 2.34141 25.287 2.85467 25.3546C7.21149 25.9021 11.3153 27.7041 14.6667 30.5413C15.0483 30.8369 15.5173 30.9973 16 30.9973C16.4827 30.9973 16.9517 30.8369 17.3333 30.5413V30.5413Z" stroke="#394762" stroke-width="1.7" stroke-linecap="round" stroke-linejoin="round"/>
<path d="M16 6.58398V30.9987" stroke="#394762" stroke-width="1.7" stroke-linecap="round" stroke-linejoin="round"/>
</svg>
