<?xml version="1.0" encoding="UTF-8"?>
<svg width="32px" height="32px" viewBox="0 0 32 32" version="1.1" xmlns="http://www.w3.org/2000/svg" xmlns:xlink="http://www.w3.org/1999/xlink">
    <title>Icon/Decorative/32px/Book</title>
    <g id="Icon/Decorative/32px/Book" stroke="none" stroke-width="1" fill="none" fill-rule="evenodd">
        <path d="M30.011264,23.237889 C30.011264,23.8004731 29.5858786,24.2811275 29.0266155,24.3543181 C24.5946179,24.9114402 20.44765,26.705155 16.9959822,29.5311843 L16.9959822,7.42982163 C17.3393136,7.31621241 17.6707687,7.14470619 17.973073,6.91093337 C21.0339045,4.32632365 24.74577,2.63529412 28.6940807,2.02464457 C28.746984,2.01699779 28.8128432,2.02136738 28.8560295,2.0137206 C29.1669711,2.0137206 29.4595585,2.1349766 29.6776495,2.35345586 C29.8935812,2.56975034 30.011264,2.85595818 30.011264,3.16073676 L30.011264,23.237889 Z M2.97769781,24.3554104 C2.41303648,24.2811275 1.98765108,23.8004731 1.98872868,23.237889 L1.98872868,3.16073676 C1.98872868,3.10611694 1.99196971,3.05258952 1.99844766,3.00452408 C2.07834238,2.42992361 2.57822421,2.0137206 3.13640759,2.0137206 C3.18823119,2.0137206 3.24005479,2.01809019 3.2918784,2.02464457 C7.2553043,2.63638652 10.9682495,4.32632365 14.0647097,6.93933568 C14.3551378,7.16218453 14.673637,7.32822877 15.0083311,7.43746841 L15.0083311,29.5311843 C11.5555836,26.705155 7.40645648,24.9114402 2.97769781,24.3554104 L2.97769781,24.3554104 Z M31.0768868,0.924601458 C30.4841543,0.330337852 29.6960037,0.0026189513 28.8625074,0.00152655496 C28.7156739,-0.00502782305 28.5677607,0.0102657256 28.4079713,0.0332060487 C24.0871784,0.701752606 20.0384595,2.54681002 16.7325456,5.33897505 C16.5230918,5.5017421 16.2726111,5.58039464 16.0253693,5.58804141 C16.0178117,5.58804141 16.0102541,5.58367183 16.0016168,5.58367183 C15.9940592,5.58367183 15.9875813,5.58804141 15.9800237,5.58804141 C15.7349412,5.58585662 15.4963367,5.51375846 15.3041575,5.36628496 C11.9636945,2.54571762 7.91389592,0.702845002 3.57690821,0.034298445 C1.8624107,-0.206028749 0.269914595,1.0021616 0.0291507762,2.72814781 C0.00971692541,2.87125173 0,3.01544804 0,3.16073676 L0,23.2367966 C0,24.8076625 1.16927002,26.145848 2.72721706,26.3512186 C6.90765431,26.8755688 10.8160176,28.590631 14.06363,31.3369154 C14.629371,31.773874 15.3063168,31.9934456 15.9843423,31.9967228 C15.9908202,31.9978152 15.9962185,32 16.0016168,32 C16.0080948,32 16.0134931,31.9978152 16.019971,31.9967228 C16.6969168,31.9934456 17.3738626,31.773874 17.9396036,31.3369154 C17.9514799,31.3270839 17.9622764,31.3183447 17.9741527,31.3096055 C21.187216,28.590631 25.0944997,26.8766612 29.2781759,26.3501262 C30.8307247,26.145848 32,24.8076625 32,23.237889 L32,3.16182915 C32.0010743,2.31631439 31.6739379,1.52214225 31.0768868,0.924601458 L31.0768868,0.924601458 Z" id="Book" fill="#394762"></path>
    </g>
</svg>