<svg width="32" height="32" viewBox="0 0 32 32" fill="none" xmlns="http://www.w3.org/2000/svg">
<path d="M25.0013 19C30 5 21.4493 1.00133 16 1C10.5493 1 2 5 6.99867 19" stroke="#394762" stroke-width="1.7" stroke-linecap="round" stroke-linejoin="round"/>
<path d="M29.0013 31L30.092 23.5827C30.1757 23.0141 30.1359 22.4343 29.9754 21.8825C29.8149 21.3307 29.5373 20.82 29.1617 20.3852C28.786 19.9503 28.3211 19.6015 27.7985 19.3625C27.2759 19.1234 26.708 18.9998 26.1333 19H5.86667C5.29209 19.0006 4.72436 19.1247 4.20195 19.3639C3.67954 19.6031 3.21467 19.9518 2.83885 20.3864C2.46303 20.821 2.18505 21.3314 2.02375 21.8829C1.86246 22.4343 1.82162 23.014 1.904 23.5827L2.996 31" stroke="#394762" stroke-width="1.7" stroke-linecap="round" stroke-linejoin="round"/>
<path d="M18.0013 11C18.0013 11.5304 18.212 12.0391 18.5871 12.4142C18.9622 12.7893 19.4709 13 20.0013 13C20.5318 13 21.0405 12.7893 21.4155 12.4142C21.7906 12.0391 22.0013 11.5304 22.0013 11C22.0013 10.4696 21.7906 9.96086 21.4155 9.58579C21.0405 9.21071 20.5318 9 20.0013 9C19.4709 9 18.9622 9.21071 18.5871 9.58579C18.212 9.96086 18.0013 10.4696 18.0013 11V11Z" stroke="#394762" stroke-width="1.7" stroke-linecap="round" stroke-linejoin="round"/>
<path d="M10.0013 11C10.0013 11.2626 10.0531 11.5227 10.1536 11.7654C10.2541 12.008 10.4014 12.2285 10.5871 12.4142C10.7728 12.5999 10.9933 12.7472 11.236 12.8478C11.4786 12.9483 11.7387 13 12.0013 13C12.264 13 12.5241 12.9483 12.7667 12.8478C13.0094 12.7472 13.2298 12.5999 13.4155 12.4142C13.6013 12.2285 13.7486 12.008 13.8491 11.7654C13.9496 11.5227 14.0013 11.2626 14.0013 11C14.0013 10.7374 13.9496 10.4773 13.8491 10.2346C13.7486 9.99198 13.6013 9.7715 13.4155 9.58579C13.2298 9.40007 13.0094 9.25275 12.7667 9.15224C12.5241 9.05173 12.264 9 12.0013 9C11.7387 9 11.4786 9.05173 11.236 9.15224C10.9933 9.25275 10.7728 9.40007 10.5871 9.58579C10.4014 9.7715 10.2541 9.99198 10.1536 10.2346C10.0531 10.4773 10.0013 10.7374 10.0013 11V11Z" stroke="#394762" stroke-width="1.7" stroke-linecap="round" stroke-linejoin="round"/>
<path d="M21.0013 25H25.0013" stroke="#394762" stroke-width="1.7" stroke-linecap="round" stroke-linejoin="round"/>
<path d="M21.0013 29H25.0013" stroke="#394762" stroke-width="1.7" stroke-linecap="round" stroke-linejoin="round"/>
<path d="M26.5 12H31.0013" stroke="#394762" stroke-width="1.7" stroke-linecap="round" stroke-linejoin="round"/>
<path d="M5.48934 12H1.00134" stroke="#394762" stroke-width="1.7" stroke-linecap="round" stroke-linejoin="round"/>
<path d="M7.00134 25H17.0013V31H7.00134V25Z" stroke="#394762" stroke-width="1.7" stroke-linecap="round" stroke-linejoin="round"/>
</svg>
