<?xml version="1.0" encoding="UTF-8"?>
<svg width="32px" height="32px" viewBox="0 0 32 32" version="1.1" xmlns="http://www.w3.org/2000/svg" xmlns:xlink="http://www.w3.org/1999/xlink">
    <title>Icon/Decorative/32px/Bot</title>
    <defs>
        <filter id="filter-1">
            <feColorMatrix in="SourceGraphic" type="matrix" values="0 0 0 0 0.223529 0 0 0 0 0.278431 0 0 0 0 0.384314 0 0 0 1.000000 0"></feColorMatrix>
        </filter>
    </defs>
    <g id="Icon/Decorative/32px/Bot" stroke="none" stroke-width="1" fill="none" fill-rule="evenodd" stroke-linecap="round" stroke-linejoin="round">
        <g filter="url(#filter-1)" id="Bot">
            <g transform="translate(1.000000, 1.000000)">
                <path d="M23.9501894,17.9829545 C28.9204545,4.0625 20.4183712,0.0865530303 15,0.0852272727 L15,0.0852272727 C9.58030303,0.0852272727 1.07954545,4.0625 6.04981061,17.9829545" id="Path" stroke="#394762" stroke-width="1.98863636"></path>
                <path d="M27.9274621,29.9147727 L29.0119318,22.5395833 C29.1803497,21.395729 28.8426839,20.2352033 28.0868779,19.3602606 C27.331072,18.4853179 26.2319441,17.9825696 25.0757576,17.9829543 L4.92424242,17.9829543 C3.76826381,17.9840855 2.66973506,18.4870989 1.91362773,19.361507 C1.1575204,20.2359151 0.818346171,21.3955481 0.984090909,22.5395833 L2.06988636,29.9147727" id="Path" stroke="#394762" stroke-width="1.98863636"></path>
                <path d="M16.9899621,10.0284091 C16.9899621,11.1267026 17.8803049,12.0170455 18.9785985,12.0170455 C20.076892,12.0170455 20.9672348,11.1267026 20.9672348,10.0284091 C20.9672348,8.93011555 20.076892,8.03977273 18.9785985,8.03977273 C17.8803049,8.03977273 16.9899621,8.93011555 16.9899621,10.0284091 L16.9899621,10.0284091 Z" id="Path" stroke="#394762" stroke-width="1.98863636"></path>
                <path d="M9.03541667,10.0284091 C9.03541667,10.7388804 9.41444859,11.3953831 10.0297348,11.7506188 C10.6450211,12.1058544 11.403085,12.1058544 12.0183712,11.7506188 C12.6336575,11.3953831 13.0126894,10.7388804 13.0126894,10.0284091 C13.0126894,9.31793773 12.6336575,8.6614351 12.0183712,8.30619941 C11.403085,7.95096372 10.6450211,7.95096372 10.0297348,8.30619941 C9.41444858,8.6614351 9.03541667,9.31793773 9.03541667,10.0284091 L9.03541667,10.0284091 Z" id="Path" stroke="#394762" stroke-width="1.98863636"></path>
                <line x1="19.9729167" y1="23.9488636" x2="23.9501894" y2="23.9488636" id="Path" stroke="#394762" stroke-width="1.98863636"></line>
                <line x1="19.9729167" y1="27.9261364" x2="23.9501894" y2="27.9261364" id="Path" stroke="#394762" stroke-width="1.98863636"></line>
                <line x1="25.4403409" y1="11.0227273" x2="29.9160985" y2="11.0227273" id="Path" stroke="#394762" stroke-width="1.98863636"></line>
                <line x1="4.54905303" y1="11.0227273" x2="0.0865530303" y2="11.0227273" id="Path" stroke="#394762" stroke-width="1.98863636"></line>
                <polygon id="Path" stroke="#394762" stroke-width="1.98863636" points="6.05246212 23.9488636 15.9956439 23.9488636 15.9956439 29.9147727 6.05246212 29.9147727"></polygon>
            </g>
        </g>
    </g>
</svg>