<?xml version="1.0" encoding="UTF-8"?>
<svg width="32px" height="32px" viewBox="0 0 32 32" version="1.1" xmlns="http://www.w3.org/2000/svg" xmlns:xlink="http://www.w3.org/1999/xlink">
    <title>Icon/Decorative/32px/Brain</title>
    <defs>
        <filter id="filter-1">
            <feColorMatrix in="SourceGraphic" type="matrix" values="0 0 0 0 0.223529 0 0 0 0 0.278431 0 0 0 0 0.384314 0 0 0 1.000000 0"></feColorMatrix>
        </filter>
    </defs>
    <g id="Icon/Decorative/32px/Brain" stroke="none" stroke-width="1" fill="none" fill-rule="evenodd" stroke-linecap="round" stroke-linejoin="round">
        <g filter="url(#filter-1)" id="Brain">
            <g transform="translate(1.000000, 1.000000)">
                <path d="M11.0227273,22.1140152 C11.0227273,19.7085378 9.07309092,17.7583078 6.66761364,17.7575758 C6.59734848,17.7575758 6.53503788,17.7748106 6.46344697,17.7787879" id="Path" stroke="#394762" stroke-width="1.98863636"></path>
                <path d="M6.46344697,12.3763258 C6.53238636,12.3763258 6.59602273,12.3975379 6.66761364,12.3975379 C9.07309092,12.3968058 11.0227273,10.4465759 11.0227273,8.04109848" id="Path" stroke="#394762" stroke-width="1.98863636"></path>
                <line x1="15" y1="7.0467803" x2="15" y2="22.9558712" id="Path" stroke="#394762" stroke-width="1.98863636"></line>
                <path d="M18.9772727,22.1140152 C18.9772727,19.7085378 20.9269091,17.7583078 23.3323864,17.7575758 C23.4026515,17.7575758 23.4649621,17.7748106 23.536553,17.7787879" id="Path" stroke="#394762" stroke-width="1.98863636"></path>
                <path d="M23.536553,12.3763258 C23.4676136,12.3763258 23.4039773,12.3975379 23.3323864,12.3975379 C20.9269091,12.3968058 18.9772727,10.4465759 18.9772727,8.04109848" id="Path" stroke="#394762" stroke-width="1.98863636"></path>
                <path d="M29.9147732,15 C29.9144116,13.2208643 28.7325337,11.6583816 27.0206439,11.1738636 C27.8601121,10.3593866 28.1455491,9.12915936 27.7504891,8.02824741 C27.3554291,6.92733546 26.3529149,6.15928688 25.1871212,6.06439394 C25.0254114,5.88235699 24.8424797,5.72034448 24.6422348,5.58181818 C25.4662517,3.5992959 24.5681161,1.32061343 22.6130281,0.433466741 C20.65794,-0.453679953 18.3516374,0.370946808 17.4022727,2.29659091 C16.8404354,1.53238293 15.948512,1.08108668 15,1.08108668 C14.051488,1.08108668 13.1595646,1.53238293 12.5977273,2.29659091 C11.6600869,0.347658535 9.33694901,-0.494819216 7.36801282,0.400053451 C5.39907662,1.29492612 4.50608665,3.59911956 5.35776515,5.58712121 C5.15752033,5.72564751 4.97458862,5.88766002 4.81287879,6.06969697 C3.64883962,6.16593587 2.6483126,6.93327429 2.25353382,8.03254624 C1.85875503,9.13181819 2.14250137,10.3603745 2.97935606,11.1751894 C1.26743206,11.6599635 0.0857372935,13.2227501 0.0857372935,15.0019886 C0.0857372935,16.7812272 1.26743206,18.3440138 2.97935606,18.8287879 C2.13901465,19.6431508 1.85301218,20.8739362 2.24816627,21.9753961 C2.64332036,23.076856 3.6464992,23.8451413 4.81287879,23.9395833 C4.97458862,24.1216203 5.15752033,24.2836328 5.35776515,24.4221591 C4.53940131,26.4035494 5.43862085,28.6770336 7.39092054,29.5625576 C9.34322023,30.4480815 11.6460754,29.6269941 12.5977273,27.7060606 C13.1595646,28.4702686 14.051488,28.9215648 15,28.9215648 C15.948512,28.9215648 16.8404354,28.4702686 17.4022727,27.7060606 C18.3539246,29.6269941 20.6567798,30.4480815 22.6090795,29.5625576 C24.5613791,28.6770336 25.4605987,26.4035494 24.6422348,24.4221591 C24.8424797,24.2836328 25.0254114,24.1216203 25.1871212,23.9395833 C26.3535008,23.8451413 27.3566796,23.076856 27.7518337,21.9753961 C28.1469878,20.8739362 27.8609853,19.6431508 27.0206439,18.8287879 C28.73348,18.3440023 29.9155981,16.780119 29.9147732,15 Z" id="Path" stroke="#394762" stroke-width="1.98863636"></path>
            </g>
        </g>
    </g>
</svg>