<svg width="32" height="32" viewBox="0 0 32 32" fill="none" xmlns="http://www.w3.org/2000/svg">
<path d="M11.9999 23.1546C11.9999 21.9929 11.5385 20.8787 10.7172 20.0571C9.89578 19.2354 8.78172 18.7737 7.61995 18.7733C7.54928 18.7733 7.48661 18.7906 7.41461 18.7946" stroke="#394762" stroke-width="1.7" stroke-linecap="round" stroke-linejoin="round"/>
<path d="M7.41461 13.3613C7.48395 13.3613 7.54795 13.3827 7.61995 13.3827C8.78172 13.3823 9.89578 12.9206 10.7172 12.0989C11.5385 11.2773 11.9999 10.1631 11.9999 9.00134" stroke="#394762" stroke-width="1.7" stroke-linecap="round" stroke-linejoin="round"/>
<path d="M16 8.00134V24.0013" stroke="#394762" stroke-width="1.7" stroke-linecap="round" stroke-linejoin="round"/>
<path d="M20 23.1546C20 21.9929 20.4614 20.8787 21.2828 20.0571C22.1042 19.2354 23.2182 18.7737 24.38 18.7733C24.4507 18.7733 24.5133 18.7906 24.5853 18.7946" stroke="#394762" stroke-width="1.7" stroke-linecap="round" stroke-linejoin="round"/>
<path d="M24.5853 13.3613C24.516 13.3613 24.452 13.3827 24.38 13.3827C23.2182 13.3823 22.1042 12.9206 21.2828 12.0989C20.4614 11.2773 20 10.1631 20 9.00134" stroke="#394762" stroke-width="1.7" stroke-linecap="round" stroke-linejoin="round"/>
<path d="M31 16C30.9998 15.1292 30.7155 14.2822 30.1901 13.5877C29.6648 12.8932 28.9272 12.3891 28.0893 12.152C28.5027 11.7509 28.7917 11.2392 28.9219 10.6782C29.0521 10.1172 29.0179 9.53048 28.8233 8.98838C28.6288 8.44628 28.2822 7.9717 27.825 7.62143C27.3678 7.27116 26.8194 7.06003 26.2453 7.0133C26.0827 6.83023 25.8987 6.66729 25.6973 6.52797C26.096 5.56886 26.1059 4.49229 25.725 3.52597C25.3442 2.55966 24.6024 1.77939 23.6565 1.3502C22.7107 0.921012 21.635 0.876566 20.6569 1.22626C19.6789 1.57596 18.8753 2.29237 18.416 3.22397C18.1374 2.845 17.7735 2.53689 17.3538 2.32453C16.9341 2.11217 16.4703 2.00152 16 2.00152C15.5296 2.00152 15.0658 2.11217 14.6461 2.32453C14.2264 2.53689 13.8626 2.845 13.584 3.22397C13.1306 2.28162 12.3262 1.55428 11.3431 1.19776C10.36 0.841247 9.2764 0.883904 8.32438 1.3166C7.37235 1.74929 6.62763 2.53761 6.24974 3.51268C5.87184 4.48776 5.89084 5.57206 6.30264 6.5333C6.10125 6.67262 5.91728 6.83556 5.75464 7.01864C5.18142 7.06603 4.63394 7.27735 4.17754 7.62738C3.72113 7.97742 3.37508 8.45138 3.18067 8.9927C2.98627 9.53403 2.95172 10.1199 3.08116 10.6803C3.21059 11.2407 3.49854 11.7521 3.91064 12.1533C3.07274 12.3906 2.33516 12.8948 1.80993 13.5894C1.28469 14.2841 1.00049 15.1311 1.00049 16.002C1.00049 16.8728 1.28469 17.7199 1.80993 18.4145C2.33516 19.1091 3.07274 19.6134 3.91064 19.8506C3.49685 20.2516 3.20742 20.7634 3.077 21.3247C2.94658 21.8859 2.9807 22.4729 3.17527 23.0152C3.36985 23.5576 3.71663 24.0324 4.1741 24.3827C4.63156 24.7331 5.18031 24.9441 5.75464 24.9906C5.91728 25.1737 6.10125 25.3367 6.30264 25.476C5.90669 26.4346 5.8986 27.5096 6.28009 28.4742C6.66158 29.4387 7.40282 30.2173 8.34742 30.6457C9.29201 31.0742 10.3661 31.119 11.3431 30.7706C12.3201 30.4223 13.1235 29.7081 13.584 28.7786C13.8626 29.1576 14.2264 29.4657 14.6461 29.6781C15.0658 29.8904 15.5296 30.0011 16 30.0011C16.4703 30.0011 16.9341 29.8904 17.3538 29.6781C17.7735 29.4657 18.1374 29.1576 18.416 28.7786C18.8764 29.7081 19.6799 30.4223 20.6569 30.7706C21.6338 31.119 22.7079 31.0742 23.6525 30.6457C24.5971 30.2173 25.3384 29.4387 25.7199 28.4742C26.1013 27.5096 26.0933 26.4346 25.6973 25.476C25.8987 25.3367 26.0827 25.1737 26.2453 24.9906C26.8196 24.9441 27.3684 24.7331 27.8259 24.3827C28.2833 24.0324 28.6301 23.5576 28.8247 23.0152C29.0193 22.4729 29.0534 21.8859 28.923 21.3247C28.7925 20.7634 28.5031 20.2516 28.0893 19.8506C28.9276 19.6134 29.6656 19.1089 30.1909 18.4138C30.7163 17.7188 31.0004 16.8712 31 16Z" stroke="#394762" stroke-width="1.7" stroke-linecap="round" stroke-linejoin="round"/>
</svg>
