<?xml version="1.0" encoding="UTF-8"?>
<svg width="32px" height="32px" viewBox="0 0 32 32" version="1.1" xmlns="http://www.w3.org/2000/svg" xmlns:xlink="http://www.w3.org/1999/xlink">
    <title>Icon/Decorative/32px/Building</title>
    <defs>
        <filter id="filter-1">
            <feColorMatrix in="SourceGraphic" type="matrix" values="0 0 0 0 0.223529 0 0 0 0 0.278431 0 0 0 0 0.384314 0 0 0 1.000000 0"></feColorMatrix>
        </filter>
    </defs>
    <g id="Icon/Decorative/32px/Building" stroke="none" stroke-width="1" fill="none" fill-rule="evenodd" stroke-linecap="round" stroke-linejoin="round">
        <g filter="url(#filter-1)" id="Building">
            <g transform="translate(1.000000, 1.000000)">
                <path d="M2.69565217,6.06521739 L15.5,6.06521739 C15.872,6.06521739 16.173913,6.36713043 16.173913,6.73913043 L16.173913,30.326087 L16.173913,30.326087 L2.02173913,30.326087 L2.02173913,30.326087 L2.02173913,6.73913043 C2.02173913,6.36713043 2.32365217,6.06521739 2.69565217,6.06521739 Z" id="Path" stroke="#394762" stroke-width="1.34782609"></path>
                <path d="M6.73913043,2.02173913 L11.4565217,2.02173913 C11.8285217,2.02173913 12.1304348,2.32365217 12.1304348,2.69565217 L12.1304348,6.06521739 L12.1304348,6.06521739 L6.06521739,6.06521739 L6.06521739,6.06521739 L6.06521739,2.69565217 C6.06521739,2.32365217 6.36713043,2.02173913 6.73913043,2.02173913 Z" id="Path" stroke="#394762" stroke-width="1.34782609"></path>
                <line x1="6.06521739" y1="10.1086957" x2="12.1304348" y2="10.1086957" id="Path" stroke="#394762" stroke-width="1.34782609"></line>
                <line x1="6.06521739" y1="14.1521739" x2="12.1304348" y2="14.1521739" id="Path" stroke="#394762" stroke-width="1.34782609"></line>
                <line x1="6.06521739" y1="18.1956522" x2="12.1304348" y2="18.1956522" id="Path" stroke="#394762" stroke-width="1.34782609"></line>
                <line x1="6.06521739" y1="22.2391304" x2="12.1304348" y2="22.2391304" id="Path" stroke="#394762" stroke-width="1.34782609"></line>
                <line x1="6.06521739" y1="26.2826087" x2="12.1304348" y2="26.2826087" id="Path" stroke="#394762" stroke-width="1.34782609"></line>
                <line x1="10.1086957" y1="0" x2="10.1086957" y2="2.02173913" id="Path" stroke="#394762" stroke-width="1.34782609"></line>
                <path d="M20.2173913,30.326087 L28.3043478,30.326087 L28.3043478,13.1413043 C28.3043478,12.5833043 27.8514783,12.1304348 27.2934783,12.1304348 L21.2282609,12.1304348 C20.6702609,12.1304348 20.2173913,12.5833043 20.2173913,13.1413043 L20.2173913,30.326087" id="Path" stroke="#394762" stroke-width="1.34782609"></path>
                <line x1="26.2826087" y1="10.1086957" x2="26.2826087" y2="12.1304348" id="Path" stroke="#394762" stroke-width="1.34782609"></line>
                <line x1="0" y1="30.326087" x2="30.326087" y2="30.326087" id="Path" stroke="#394762" stroke-width="1.34782609"></line>
            </g>
        </g>
    </g>
</svg>