<svg width="32" height="32" viewBox="0 0 32 32" fill="none" xmlns="http://www.w3.org/2000/svg">
<path d="M29 13L28.2825 8L23 8.83767" stroke="#394762" stroke-width="1.7" stroke-linecap="round" stroke-linejoin="round"/>
<path d="M28 8L23.4841 14.4598C23.1545 14.9376 22.5086 15.0533 22.0402 14.7171C22.0376 14.7157 22.0362 14.7144 22.0336 14.713L19.5381 12.8983C19.071 12.5593 18.4225 12.6696 18.0888 13.146L14 19" stroke="#394762" stroke-width="1.7" stroke-linecap="round" stroke-linejoin="round"/>
<path d="M21 20V27C21 29.2093 19.2093 31 17 31H7C4.79067 31 3 29.2093 3 27V5C3 2.79067 4.79067 1 7 1H17C19.2093 1 21 2.79067 21 5" stroke="#394762" stroke-width="1.7" stroke-linecap="round" stroke-linejoin="round"/>
<path d="M3 24.5H21" stroke="#394762" stroke-width="1.7" stroke-linecap="round" stroke-linejoin="round"/>
</svg>
