<svg width="32" height="32" viewBox="0 0 32 32" fill="none" xmlns="http://www.w3.org/2000/svg">
<path d="M29 24.332C29.5304 24.332 30.0391 24.1213 30.4142 23.7463C30.7893 23.3712 31 22.8625 31 22.332V17.3334C30.9996 16.6938 30.7454 16.0805 30.2933 15.628L27 12.3334H5L1.70667 15.6267C1.25423 16.0795 1.00005 16.6933 1 17.3334V22.3334C1 22.8638 1.21071 23.3725 1.58579 23.7476C1.96086 24.1227 2.46957 24.3334 3 24.3334L29 24.332Z" stroke="#394762" stroke-width="1.7" stroke-linecap="round" stroke-linejoin="round"/>
<path d="M5 12.3334L7.29733 6.20671C7.50377 5.65659 7.87309 5.18253 8.356 4.84781C8.83891 4.51309 9.41243 4.33362 10 4.33337H22C22.5876 4.33362 23.1611 4.51309 23.644 4.84781C24.1269 5.18253 24.4962 5.65659 24.7027 6.20671L27 12.34L5 12.3334Z" stroke="#394762" stroke-width="1.7" stroke-linecap="round" stroke-linejoin="round"/>
<path d="M5 12.3334L3 10.3334H1" stroke="#394762" stroke-width="1.7" stroke-linecap="round" stroke-linejoin="round"/>
<path d="M27 12.3334L29 10.3334H31" stroke="#394762" stroke-width="1.7" stroke-linecap="round" stroke-linejoin="round"/>
<path d="M3 24.332V26.332C3 26.8625 3.21071 27.3712 3.58579 27.7462C3.96086 28.1213 4.46957 28.332 5 28.332C5.53043 28.332 6.03914 28.1213 6.41421 27.7462C6.78929 27.3712 7 26.8625 7 26.332V24.332H3Z" stroke="#394762" stroke-width="1.7" stroke-linecap="round" stroke-linejoin="round"/>
<path d="M29 24.332V26.332C29 26.8625 28.7893 27.3712 28.4142 27.7462C28.0391 28.1213 27.5304 28.332 27 28.332C26.4696 28.332 25.9609 28.1213 25.5858 27.7462C25.2107 27.3712 25 26.8625 25 26.332V24.332H29Z" stroke="#394762" stroke-width="1.7" stroke-linecap="round" stroke-linejoin="round"/>
<path d="M13.5 20.332L11.956 17.8667C11.8608 17.7154 11.8079 17.5415 11.8026 17.3628C11.7973 17.1842 11.84 17.0074 11.9261 16.8508C12.0122 16.6942 12.1387 16.5635 12.2923 16.4723C12.446 16.3811 12.6213 16.3327 12.8 16.332H19.2C19.3784 16.3324 19.5535 16.3804 19.7072 16.4711C19.8608 16.5619 19.9875 16.692 20.0739 16.8481C20.1604 17.0042 20.2036 17.1806 20.199 17.3589C20.1945 17.5373 20.1423 17.7112 20.048 17.8627L18.504 20.332" stroke="#394762" stroke-width="1.7" stroke-linecap="round" stroke-linejoin="round"/>
<path d="M30.78 16.332H26.6187C26.4482 16.3323 26.2807 16.3761 26.1319 16.4592C25.9831 16.5423 25.8579 16.662 25.7684 16.807C25.6788 16.952 25.6277 17.1175 25.6199 17.2878C25.6121 17.458 25.648 17.6275 25.724 17.78L25.8947 18.1214C26.2265 18.7848 26.7363 19.3429 27.3671 19.7333C27.9979 20.1237 28.7249 20.331 29.4667 20.332H31" stroke="#394762" stroke-width="1.7" stroke-linecap="round" stroke-linejoin="round"/>
<path d="M1.22 16.332H5.38133C5.55178 16.3323 5.71934 16.3761 5.86814 16.4592C6.01695 16.5423 6.14207 16.662 6.23166 16.807C6.32125 16.952 6.37235 17.1175 6.38011 17.2878C6.38786 17.458 6.35203 17.6275 6.276 17.78L6.10533 18.1214C5.77349 18.7848 5.26368 19.3429 4.63289 19.7333C4.00209 20.1237 3.27516 20.331 2.53333 20.332H1" stroke="#394762" stroke-width="1.7" stroke-linecap="round" stroke-linejoin="round"/>
</svg>
