<svg width="32" height="32" viewBox="0 0 32 32" fill="none" xmlns="http://www.w3.org/2000/svg">
<path d="M3 19C3 20.0609 3.42143 21.0783 4.17157 21.8284C4.92172 22.5786 5.93913 23 7 23C8.06087 23 9.07828 22.5786 9.82843 21.8284C10.5786 21.0783 11 20.0609 11 19C11 17.9391 10.5786 16.9217 9.82843 16.1716C9.07828 15.4214 8.06087 15 7 15C5.93913 15 4.92172 15.4214 4.17157 16.1716C3.42143 16.9217 3 17.9391 3 19V19Z" stroke="#394762" stroke-width="1.7" stroke-linecap="round" stroke-linejoin="round"/>
<path d="M1 31C1 29.4087 1.63214 27.8826 2.75736 26.7574C3.88258 25.6321 5.4087 25 7 25C8.5913 25 10.1174 25.6321 11.2426 26.7574C12.3679 27.8826 13 29.4087 13 31" stroke="#394762" stroke-width="1.7" stroke-linecap="round" stroke-linejoin="round"/>
<path d="M28.4653 17C28.7712 17.5314 28.9508 18.126 28.9903 18.7379C29.0298 19.3497 28.9282 19.9625 28.6931 20.5288C28.4581 21.0951 28.096 21.5998 27.6349 22.0039C27.1737 22.408 26.6259 22.7007 26.0336 22.8593C25.4413 23.018 24.8205 23.0383 24.2191 22.9189C23.6177 22.7994 23.0519 22.5432 22.5652 22.1702C22.0786 21.7972 21.6842 21.3173 21.4126 20.7676C21.141 20.2179 20.9993 19.6131 20.9987 19" stroke="#394762" stroke-width="1.7" stroke-linecap="round" stroke-linejoin="round"/>
<path d="M19 31C19 29.4087 19.6321 27.8826 20.7574 26.7574C21.8826 25.6321 23.4087 25 25 25C26.5913 25 28.1174 25.6321 29.2426 26.7574C30.3679 27.8826 31 29.4087 31 31" stroke="#394762" stroke-width="1.7" stroke-linecap="round" stroke-linejoin="round"/>
<path d="M11 13H15V19L21 13H27V1H11V13Z" stroke="#394762" stroke-width="1.7" stroke-linecap="round" stroke-linejoin="round"/>
<path d="M15 5H23" stroke="#394762" stroke-width="1.7" stroke-linecap="round" stroke-linejoin="round"/>
<path d="M15 9H23" stroke="#394762" stroke-width="1.7" stroke-linecap="round" stroke-linejoin="round"/>
</svg>
