<?xml version="1.0" encoding="UTF-8"?>
<svg width="32px" height="32px" viewBox="0 0 32 32" version="1.1" xmlns="http://www.w3.org/2000/svg" xmlns:xlink="http://www.w3.org/1999/xlink">
    <title>Icon/Decorative/32px/Chatbot</title>
    <defs>
        <filter id="filter-1">
            <feColorMatrix in="SourceGraphic" type="matrix" values="0 0 0 0 0.223529 0 0 0 0 0.278431 0 0 0 0 0.384314 0 0 0 1.000000 0"></feColorMatrix>
        </filter>
    </defs>
    <g id="Icon/Decorative/32px/Chatbot" stroke="none" stroke-width="1" fill="none" fill-rule="evenodd" stroke-linecap="round" stroke-linejoin="round">
        <g filter="url(#filter-1)" id="Chatbot">
            <g transform="translate(1.000000, 1.000000)">
                <path d="M10.0961538,23.2211538 L6.05769231,26.25 L6.05769231,20.1923077 L2.01923077,20.1923077 C0.904615385,20.1923077 0,19.2876923 0,18.1730769 L0,2.01923077 C0,0.904615385 0.904615385,0 2.01923077,0 L24.2307692,0 C25.3453846,0 26.25,0.904615385 26.25,2.01923077 L26.25,8.07692308" id="Path" stroke="#394762" stroke-width="2"></path>
                <path d="M7.5,13.125 C8.67974726,13.997905 9.94180246,14.6298883 11.25,15" id="Path" stroke="#394762" stroke-width="2"></path>
                <line x1="7.96875" y1="5.625" x2="7.96875" y2="7.5" id="Path" stroke="#394762" stroke-width="2"></line>
                <line x1="18.28125" y1="5.625" x2="18.28125" y2="7.5" id="Path" stroke="#394762" stroke-width="2"></line>
                <polygon id="Path" stroke="#394762" stroke-width="2" points="30 24.0625 26.015625 24.0625 26.015625 30 20.0390625 24.0625 14.0625 24.0625 14.0625 12.1875 30 12.1875"></polygon>
                <path d="M18.28125,17.9296875 C18.0871875,17.9296875 17.9296875,18.0871875 17.9296875,18.28125 C17.9296875,18.4753125 18.0871875,18.6328125 18.28125,18.6328125 C18.4753125,18.6328125 18.6328125,18.4753125 18.6328125,18.28125 C18.6328125,18.0871875 18.4753125,17.9296875 18.28125,17.9296875" id="Path" stroke="#394762" stroke-width="2"></path>
                <path d="M22.03125,17.9296875 C21.8371875,17.9296875 21.6796875,18.0871875 21.6796875,18.28125 C21.6796875,18.4753125 21.8371875,18.6328125 22.03125,18.6328125 C22.2253125,18.6328125 22.3828125,18.4753125 22.3828125,18.28125 C22.3828125,18.0871875 22.2253125,17.9296875 22.03125,17.9296875" id="Path" stroke="#394762" stroke-width="2"></path>
                <path d="M25.78125,17.9296875 C25.5871875,17.9296875 25.4296875,18.0871875 25.4296875,18.28125 C25.4296875,18.4753125 25.5871875,18.6328125 25.78125,18.6328125 C25.9753125,18.6328125 26.1328125,18.4753125 26.1328125,18.28125 C26.1328125,18.0871875 25.9753125,17.9296875 25.78125,17.9296875" id="Path" stroke="#394762" stroke-width="2"></path>
            </g>
        </g>
    </g>
</svg>