<?xml version="1.0" encoding="UTF-8"?>
<svg width="32px" height="32px" viewBox="0 0 32 32" version="1.1" xmlns="http://www.w3.org/2000/svg" xmlns:xlink="http://www.w3.org/1999/xlink">
    <title>Icon/Decorative/32px/Chat</title>
    <defs>
        <filter id="filter-1">
            <feColorMatrix in="SourceGraphic" type="matrix" values="0 0 0 0 0.223529 0 0 0 0 0.278431 0 0 0 0 0.384314 0 0 0 1.000000 0"></feColorMatrix>
        </filter>
    </defs>
    <g id="Icon/Decorative/32px/Chat" stroke="none" stroke-width="1" fill="none" fill-rule="evenodd" stroke-linecap="round" stroke-linejoin="round">
        <g filter="url(#filter-1)" id="Chat">
            <g transform="translate(1.000000, 1.000000)">
                <path d="M2.07386364,17.9829545 C2.07386364,20.1795416 3.85454929,21.9602273 6.05113636,21.9602273 C8.24772344,21.9602273 10.0284091,20.1795416 10.0284091,17.9829545 C10.0284091,15.7863675 8.24772344,14.0056818 6.05113636,14.0056818 C3.85454929,14.0056818 2.07386364,15.7863675 2.07386364,17.9829545 Z" id="Path" stroke="#394762" stroke-width="1.98863636"></path>
                <path d="M0.0852272727,29.9147727 C0.0852272727,26.6198922 2.75625579,23.9488637 6.05113636,23.9488637 C9.34601694,23.9488637 12.0170455,26.6198922 12.0170455,29.9147727" id="Path" stroke="#394762" stroke-width="1.98863636"></path>
                <path d="M27.3945076,15.9943182 C28.228084,17.4424098 28.0676996,19.2571054 26.9930611,20.5365472 C25.9184227,21.8159889 24.1586882,22.2873464 22.5884012,21.7163668 C21.0181142,21.1453872 19.9721255,19.6538272 19.9702652,17.9829545" id="Path" stroke="#394762" stroke-width="1.98863636"></path>
                <path d="M17.9829545,29.9147727 C17.9829545,26.6198922 20.6539831,23.9488638 23.9488636,23.9488638 C27.2437442,23.9488638 29.9147727,26.6198922 29.9147727,29.9147727" id="Path" stroke="#394762" stroke-width="1.98863636"></path>
                <polygon id="Path" stroke="#394762" stroke-width="1.98863636" points="10.0284091 12.0170455 14.0056818 12.0170455 14.0056818 17.9829545 19.9715909 12.0170455 25.9375 12.0170455 25.9375 0.0852272727 10.0284091 0.0852272727"></polygon>
                <line x1="14.0056818" y1="4.0625" x2="21.9602273" y2="4.0625" id="Path" stroke="#394762" stroke-width="1.98863636"></line>
                <line x1="14.0056818" y1="8.03977273" x2="21.9602273" y2="8.03977273" id="Path" stroke="#394762" stroke-width="1.98863636"></line>
            </g>
        </g>
    </g>
</svg>