<svg width="32" height="32" viewBox="0 0 32 32" fill="none" xmlns="http://www.w3.org/2000/svg">
<g clip-path="url(#clip0)">
<path d="M12.5667 26.1L9.99999 28.6666V23.3333H1.99999C1.64637 23.3333 1.30723 23.1928 1.05718 22.9428C0.807132 22.6927 0.666656 22.3536 0.666656 22V1.99996C0.666656 1.64634 0.807132 1.3072 1.05718 1.05715C1.30723 0.807102 1.64637 0.666626 1.99999 0.666626H26C26.3536 0.666626 26.6927 0.807102 26.9428 1.05715C27.1928 1.3072 27.3333 1.64634 27.3333 1.99996V11.3333" stroke="#394762" stroke-width="1.7" stroke-linecap="round" stroke-linejoin="round"/>
<path d="M15.3333 24.6667C15.3333 25.0203 15.4738 25.3594 15.7238 25.6095C15.9739 25.8595 16.313 26 16.6666 26H22L27.3333 31.3333V26H30C30.3536 26 30.6927 25.8595 30.9428 25.6095C31.1928 25.3594 31.3333 25.0203 31.3333 24.6667V15.3333C31.3333 14.9797 31.1928 14.6406 30.9428 14.3905C30.6927 14.1405 30.3536 14 30 14H16.6666C16.313 14 15.9739 14.1405 15.7238 14.3905C15.4738 14.6406 15.3333 14.9797 15.3333 15.3333V24.6667Z" stroke="#394762" stroke-width="1.7" stroke-linecap="round" stroke-linejoin="round"/>
<path d="M19.3333 19.6666C19.3993 19.6666 19.4637 19.6862 19.5185 19.7228C19.5733 19.7594 19.6161 19.8115 19.6413 19.8724C19.6665 19.9333 19.6731 20.0003 19.6603 20.065C19.6474 20.1297 19.6157 20.189 19.569 20.2357C19.5224 20.2823 19.463 20.314 19.3984 20.3269C19.3337 20.3397 19.2667 20.3331 19.2058 20.3079C19.1449 20.2827 19.0928 20.24 19.0562 20.1851C19.0195 20.1303 19 20.0659 19 20C19 19.9116 19.0351 19.8268 19.0976 19.7643C19.1601 19.7017 19.2449 19.6666 19.3333 19.6666Z" stroke="#394762" stroke-width="1.7" stroke-linecap="round" stroke-linejoin="round"/>
<path d="M23.3333 19.6666C23.3993 19.6666 23.4637 19.6862 23.5185 19.7228C23.5733 19.7594 23.6161 19.8115 23.6413 19.8724C23.6665 19.9333 23.6731 20.0003 23.6603 20.065C23.6474 20.1297 23.6157 20.189 23.569 20.2357C23.5224 20.2823 23.463 20.314 23.3984 20.3269C23.3337 20.3397 23.2667 20.3331 23.2058 20.3079C23.1449 20.2827 23.0928 20.24 23.0562 20.1851C23.0196 20.1303 23 20.0659 23 20C23 19.9116 23.0351 19.8268 23.0976 19.7643C23.1601 19.7017 23.2449 19.6666 23.3333 19.6666Z" stroke="#394762" stroke-width="1.7" stroke-linecap="round" stroke-linejoin="round"/>
<path d="M27.3333 19.6666C27.3993 19.6666 27.4637 19.6862 27.5185 19.7228C27.5733 19.7594 27.6161 19.8115 27.6413 19.8724C27.6665 19.9333 27.6731 20.0003 27.6603 20.065C27.6474 20.1297 27.6157 20.189 27.569 20.2357C27.5224 20.2823 27.463 20.314 27.3984 20.3269C27.3337 20.3397 27.2667 20.3331 27.2058 20.3079C27.1449 20.2827 27.0928 20.24 27.0562 20.1851C27.0196 20.1303 27 20.0659 27 20C27 19.9116 27.0351 19.8268 27.0976 19.7643C27.1601 19.7017 27.2449 19.6666 27.3333 19.6666Z" stroke="#394762" stroke-width="1.7" stroke-linecap="round" stroke-linejoin="round"/>
<path d="M10 6V8.66667" stroke="#394762" stroke-width="1.7" stroke-linecap="round" stroke-linejoin="round"/>
<path d="M18 6V8.66667" stroke="#394762" stroke-width="1.7" stroke-linecap="round" stroke-linejoin="round"/>
<path d="M12.6307 18C11.0056 17.7195 9.50746 16.942 8.34265 15.7747" stroke="#394762" stroke-width="1.7" stroke-linecap="round" stroke-linejoin="round"/>
</g>
<defs>
<clipPath id="clip0">
<rect width="32" height="32" fill="white"/>
</clipPath>
</defs>
</svg>
