<svg width="32" height="32" viewBox="0 0 32 32" fill="none" xmlns="http://www.w3.org/2000/svg">
<path d="M30.9987 23C30.9987 27.4183 27.4169 31 22.9987 31C18.5804 31 14.9987 27.4183 14.9987 23C14.9987 18.5817 18.5804 15 22.9987 15" stroke="#394762" stroke-width="1.7" stroke-linecap="round" stroke-linejoin="round"/>
<path d="M30.9987 17L23.7053 24.292C23.5178 24.4797 23.2633 24.5851 22.998 24.5851C22.7327 24.5851 22.4782 24.4797 22.2907 24.292L20 22" stroke="#394762" stroke-width="1.7" stroke-linecap="round" stroke-linejoin="round"/>
<path d="M10.964 26.5333L5 31V25H3C1.89543 25 1 24.1046 1 23V3C1 1.89543 1.89543 1 3 1H29C30.1046 1 31 1.89543 31 3V13" stroke="#394762" stroke-width="1.7" stroke-linecap="round" stroke-linejoin="round"/>
</svg>
