<?xml version="1.0" encoding="UTF-8"?>
<svg width="32px" height="32px" viewBox="0 0 32 32" version="1.1" xmlns="http://www.w3.org/2000/svg" xmlns:xlink="http://www.w3.org/1999/xlink">
    <title>Icon/Decorative/32px/Click</title>
    <defs>
        <filter id="filter-1">
            <feColorMatrix in="SourceGraphic" type="matrix" values="0 0 0 0 0.223529 0 0 0 0 0.278431 0 0 0 0 0.384314 0 0 0 1.000000 0"></feColorMatrix>
        </filter>
    </defs>
    <g id="Icon/Decorative/32px/Click" stroke="none" stroke-width="1" fill="none" fill-rule="evenodd" stroke-linecap="round" stroke-linejoin="round">
        <g filter="url(#filter-1)" id="Click">
            <g transform="translate(4.000000, 1.000000)">
                <path d="M11.144,29.9973333 L6.09066667,25.8733333 C5.424,25.34 5.12933333,24.4666667 5.33733333,23.6386667 L5.33733333,23.6386667 C5.62933333,22.468 6.816,21.7573333 7.98533333,22.0493333 C8.14,22.088 8.28933333,22.1426667 8.432,22.2146667 L9.99733333,23 L9.99733333,14 C9.99733333,12.896 10.8933333,12 11.9973333,12 L11.9973333,12 C13.1013333,12 13.9973333,12.896 13.9973333,14 L13.9973333,20 L16.6546667,20.444 C18.584,20.7653333 19.9973333,22.4333333 19.9973333,24.3893333 L19.9973333,30" id="Path" stroke="#394762" stroke-width="2"></path>
                <path d="M22.168,18.3146667 C25.6626667,12.6906667 23.936,5.3 18.312,1.80533333 C12.688,-1.68933333 5.29733333,0.0373333333 1.80266667,5.66133333 C0.621333333,7.564 -0.004,9.75866667 -0.00266879441,11.9973333 C-0.00133333333,14.4973333 0.786666667,16.9333333 2.25066667,18.96" id="Path" stroke="#394762" stroke-width="2"></path>
                <path d="M17.7306667,15.9973333 C19.9493333,12.8306667 19.18,8.46533333 16.0133333,6.248 C12.8466667,4.03066667 8.48266667,4.79866667 6.264,7.96533333 C4.57466667,10.376 4.57466667,13.5866667 6.264,15.9973333" id="Path" stroke="#394762" stroke-width="2"></path>
            </g>
        </g>
    </g>
</svg>