<svg width="32" height="32" viewBox="0 0 32 32" fill="none" xmlns="http://www.w3.org/2000/svg">
<path d="M14.144 30.9973L9.09064 26.8733C8.76412 26.6122 8.51952 26.2628 8.38596 25.8666C8.2524 25.4704 8.23552 25.0442 8.33731 24.6387V24.6387C8.41663 24.3215 8.56615 24.0261 8.77485 23.7744C8.98355 23.5228 9.2461 23.3211 9.54312 23.1845C9.84014 23.0478 10.1641 22.9795 10.491 22.9848C10.8179 22.99 11.1395 23.0686 11.432 23.2147L12.9973 24V15C12.9973 14.4696 13.208 13.9609 13.5831 13.5858C13.9582 13.2107 14.4669 13 14.9973 13V13C15.5277 13 16.0364 13.2107 16.4115 13.5858C16.7866 13.9609 16.9973 14.4696 16.9973 15V21L19.6546 21.444C20.5886 21.5996 21.4371 22.0815 22.0492 22.8039C22.6613 23.5263 22.9972 24.4425 22.9973 25.3893V31" stroke="#394762" stroke-width="1.7" stroke-linecap="round" stroke-linejoin="round"/>
<path d="M25.168 19.3147C26.1472 17.7386 26.7473 15.9566 26.9208 14.1092C27.0943 12.2617 26.8366 10.3992 26.168 8.66832C25.4993 6.93741 24.438 5.38534 23.0675 4.13433C21.6971 2.88332 20.055 1.96751 18.2704 1.45902C16.4859 0.950533 14.6077 0.863244 12.7837 1.20403C10.9597 1.54481 9.23965 2.30437 7.75909 3.42288C6.27853 4.5414 5.07783 5.98834 4.25153 7.64977C3.42523 9.31121 2.99589 11.1418 2.99732 12.9973C2.99815 15.4974 3.78658 17.9336 5.25065 19.96" stroke="#394762" stroke-width="1.7" stroke-linecap="round" stroke-linejoin="round"/>
<path d="M20.7307 16.9974C21.4654 15.9485 21.8983 14.718 21.9823 13.4401C22.0662 12.1622 21.7979 10.8857 21.2067 9.74965C20.6154 8.61361 19.7238 7.66154 18.629 6.99711C17.5342 6.33267 16.278 5.98132 14.9973 5.98132C13.7166 5.98132 12.4605 6.33267 11.3656 6.99711C10.2708 7.66154 9.3792 8.61361 8.78795 9.74965C8.19669 10.8857 7.92843 12.1622 8.01237 13.4401C8.0963 14.718 8.52922 15.9485 9.26398 16.9974" stroke="#394762" stroke-width="1.7" stroke-linecap="round" stroke-linejoin="round"/>
</svg>
