<svg width="32" height="32" viewBox="0 0 32 32" fill="none" xmlns="http://www.w3.org/2000/svg">
<path d="M11 31V17" stroke="#394762" stroke-width="1.7" stroke-linecap="round" stroke-linejoin="round"/>
<path d="M26.092 20.8C27.0156 20.5687 27.8771 20.1373 28.6155 19.5363C29.354 18.9354 29.9515 18.1795 30.3656 17.3222C30.7798 16.4649 31.0006 15.5271 31.0124 14.5751C31.0241 13.623 30.8266 12.68 30.4338 11.8127C30.0409 10.9455 29.4623 10.1751 28.7389 9.55605C28.0155 8.93703 27.165 8.48448 26.2474 8.23041C25.3298 7.97634 24.3676 7.92695 23.4288 8.08573C22.4901 8.24452 21.5976 8.6076 20.8147 9.1493C20.5274 7.60277 19.8794 6.14581 18.9232 4.8968C17.967 3.64779 16.7297 2.64195 15.3118 1.96102C13.8938 1.28008 12.3352 0.94325 10.7626 0.977889C9.19 1.01253 7.64775 1.41766 6.26115 2.16037C4.87455 2.90308 3.68271 3.96242 2.78247 5.25233C1.88223 6.54223 1.29898 8.02631 1.0801 9.58399C0.861227 11.1417 1.0129 12.729 1.5228 14.2171C2.0327 15.7051 2.88644 17.0519 4.01466 18.148" stroke="#394762" stroke-width="1.7" stroke-linecap="round" stroke-linejoin="round"/>
<path d="M15 21L11 17L7 21" stroke="#394762" stroke-width="1.7" stroke-linecap="round" stroke-linejoin="round"/>
<path d="M21 17V31" stroke="#394762" stroke-width="1.7" stroke-linecap="round" stroke-linejoin="round"/>
<path d="M17 27L21 31L25 27" stroke="#394762" stroke-width="1.7" stroke-linecap="round" stroke-linejoin="round"/>
</svg>
