<?xml version="1.0" encoding="UTF-8"?>
<svg width="32px" height="32px" viewBox="0 0 32 32" version="1.1" xmlns="http://www.w3.org/2000/svg" xmlns:xlink="http://www.w3.org/1999/xlink">
    <title>Icon/Decorative/32px/Cloud</title>
    <defs>
        <filter id="filter-1">
            <feColorMatrix in="SourceGraphic" type="matrix" values="0 0 0 0 0.223529 0 0 0 0 0.278431 0 0 0 0 0.384314 0 0 0 1.000000 0"></feColorMatrix>
        </filter>
    </defs>
    <g id="Icon/Decorative/32px/Cloud" stroke="none" stroke-width="1" fill="none" fill-rule="evenodd">
        <g filter="url(#filter-1)" id="Cloud">
            <g transform="translate(1.000000, 0.000000)">
                <path d="M23.3172211,25.6734316 L21.1850105,27.8418526 L21.1850105,16.6208 C21.1850105,16.0717474 20.7395368,15.6262737 20.1904842,15.6262737 C19.6414316,15.6262737 19.1959579,16.0717474 19.1959579,16.6208 L19.1959579,27.8418526 L17.0637474,25.6734316 C16.6789053,25.2810105 16.0490105,25.2759579 15.6574316,25.6616421 C15.2658526,26.0464842 15.2608,26.6763789 15.6456421,27.0679579 L19.4814316,30.9677474 C19.4822737,30.9685895 19.4839579,30.9685895 19.4848,30.9702737 C19.5765895,31.0620632 19.6843789,31.1361684 19.8056421,31.1875368 C19.9260632,31.2372211 20.0565895,31.2650105 20.1904842,31.2650105 C20.3243789,31.2650105 20.4549053,31.2372211 20.5761684,31.1875368 C20.6965895,31.1361684 20.8052211,31.0620632 20.8961684,30.9702737 C20.8970105,30.9685895 20.8986947,30.9685895 20.8995368,30.9677474 L24.7353263,27.0679579 C25.1201684,26.6763789 25.1151158,26.0464842 24.7235368,25.6616421 C24.3319579,25.2759579 23.7020632,25.2810105 23.3172211,25.6734316 M15.1454316,19.8241684 L11.3104842,15.9235368 C11.3096421,15.9226947 11.3079579,15.9226947 11.3071158,15.9210105 C11.2153263,15.8292211 11.1075368,15.7551158 10.9862737,15.7037474 C10.8658526,15.6540632 10.7353263,15.6262737 10.6014316,15.6262737 C10.4675368,15.6262737 10.3370105,15.6540632 10.2165895,15.7037474 C10.0953263,15.7551158 9.98669474,15.8292211 9.89574737,15.9210105 C9.89490526,15.9226947 9.89322105,15.9226947 9.89237895,15.9235368 L6.05658947,19.8241684 C5.67090526,20.2157474 5.6768,20.8456421 6.06837895,21.2304842 C6.45995789,21.6161684 7.08985263,21.6111158 7.47469474,21.2186947 L9.60690526,19.0502737 L9.60690526,30.2704842 C9.60690526,30.8195368 10.0523789,31.2650105 10.6014316,31.2650105 C11.1504842,31.2650105 11.5959579,30.8195368 11.5959579,30.2704842 L11.5959579,19.0502737 L13.7281684,21.2186947 C13.9226947,21.4165895 14.1795368,21.5159579 14.4372211,21.5159579 C14.6881684,21.5159579 14.9408,21.4208 15.1344842,21.2304842 C15.5260632,20.8456421 15.5311158,20.2157474 15.1454316,19.8241684 M25.3189053,21.2902737 C25.2363789,21.3104842 25.1538526,21.3205895 25.0721684,21.3205895 C24.6292211,21.3205895 24.2241684,21.0216421 24.1096421,20.5711158 C23.9740632,20.0397474 24.2957474,19.4982737 24.8279579,19.3626947 C27.6346947,18.6477474 29.3450105,15.7382737 28.6401684,12.8768 C28.2949053,11.4772211 27.4334316,10.3033263 26.2123789,9.57237895 C25.0224842,8.85827368 23.6279579,8.65364211 22.2906947,8.99469474 C21.6784842,9.15048421 21.1050105,9.41406316 20.5845895,9.78037895 C20.3066947,9.97574737 19.9496421,10.0144842 19.6363789,9.88732632 C19.3222737,9.75932632 19.0957474,9.47974737 19.0351158,9.14543158 C18.6098526,6.81953684 17.3155368,4.81111579 15.3888,3.48816842 C13.5092211,2.19722105 11.2456421,1.71722105 9.01827368,2.13911579 C4.35469474,3.01995789 1.26669474,7.60016842 2.13490526,12.3496421 C2.46248421,14.1433263 3.31553684,15.7618526 4.60143158,17.0325895 C4.99216842,17.4182737 4.99637895,18.0481684 4.61069474,18.4389053 C4.22501053,18.8296421 3.59511579,18.8346947 3.20437895,18.4473263 C1.62627368,16.8885895 0.579536842,14.9037474 0.178694737,12.7066947 C-0.885726316,6.88522105 2.91469474,1.26837895 8.64943158,0.184589474 C11.4014316,-0.337515789 14.1946947,0.255326316 16.5146947,1.84858947 C18.5045895,3.21532632 19.9454316,5.17574737 20.6629053,7.46037895 C21.0292211,7.29869474 21.4090105,7.16648421 21.7997474,7.06711579 C23.6565895,6.59385263 25.5875368,6.87848421 27.2355368,7.86627368 C28.9138526,8.87258947 30.0986947,10.4826947 30.5711158,12.4010105 C31.5361684,16.3193263 29.1799579,20.3066947 25.3189053,21.2902737" id="Fill-1" fill="#394762"></path>
            </g>
        </g>
    </g>
</svg>