<svg fill="none" height="24" viewBox="0 0 24 24" width="24" xmlns="http://www.w3.org/2000/svg"><g clip-rule="evenodd" fill="#394762" fill-rule="evenodd"><path d="m16.8749 5.96513c.364-.36399.9541-.36399 1.3181 0l5.534 5.53397c.364.364.364.9541 0 1.3181l-5.534 5.534c-.364.364-.9541.364-1.3181 0s-.364-.9541 0-1.3181l4.8749-4.8749-4.8749-4.87497c-.364-.36399-.364-.95412 0-1.3181z"/><path d="m7.12507 5.96513c.36398.36398.36398.95411 0 1.3181l-4.87493 4.87497 4.87493 4.8749c.36398.364.36398.9541 0 1.3181s-.95412.364-1.3181 0l-5.533982-5.534c-.363984-.364-.363984-.9541 0-1.3181l5.533982-5.53397c.36398-.36399.95412-.36399 1.3181 0z"/><path d="m13.5856 5.02239c.5025.11167.8193.60954.7077 1.11204l-2.767 12.45147c-.1117.5025-.6096.8193-1.112.7076-.50254-.1116-.81937-.6095-.7077-1.112l2.767-12.45145c.1117-.50249.6095-.81932 1.112-.70766z"/></g></svg>
