<?xml version="1.0" encoding="UTF-8"?>
<svg width="32px" height="32px" viewBox="0 0 32 32" version="1.1" xmlns="http://www.w3.org/2000/svg" xmlns:xlink="http://www.w3.org/1999/xlink">
    <title>Icon/Decorative/32px/Connection</title>
    <defs>
        <filter id="filter-1">
            <feColorMatrix in="SourceGraphic" type="matrix" values="0 0 0 0 0.223529 0 0 0 0 0.278431 0 0 0 0 0.384314 0 0 0 1.000000 0"></feColorMatrix>
        </filter>
    </defs>
    <g id="Icon/Decorative/32px/Connection" stroke="none" stroke-width="1" fill="none" fill-rule="evenodd">
        <g filter="url(#filter-1)" id="Connection">
            <g>
                <path d="M8.19034483,21.4280828 C7.88910345,19.5113931 7.73351724,17.571531 7.75337931,15.6217379 L1.99448276,15.6217379 C2,17.647669 2.45462069,19.6272552 3.30427586,21.4280828 L8.19034483,21.4280828 Z M2.88496552,10.7091862 C2.51531034,11.6724966 2.27475862,12.6534621 2.13131034,13.635531 L7.80524138,13.635531 C7.90124138,11.5842207 8.15393103,9.63222069 8.53462069,7.83028966 L4.41655172,7.83028966 C3.80413793,8.71746207 3.28110345,9.67635862 2.88496552,10.7091862 L2.88496552,10.7091862 Z M6.09048276,5.84297931 L9.02565517,5.84297931 C9.30041379,4.8873931 9.616,4.00022069 9.97131034,3.18587586 C8.50924138,3.84573793 7.20717241,4.75166897 6.09048276,5.84297931 L6.09048276,5.84297931 Z M12.6681379,2.28766897 C12.0612414,3.2553931 11.5315862,4.45594483 11.097931,5.84297931 L19.9862069,5.84297931 C19.5746207,4.61594483 19.0306207,3.43525517 18.3806897,2.2976 C16.4893793,1.88491034 14.5506207,1.87387586 12.6681379,2.28766897 L12.6681379,2.28766897 Z M21.0697931,3.1913931 C21.4582069,4.05318621 21.7748966,4.94035862 22.0485517,5.84297931 L24.9693793,5.84297931 C23.8449655,4.74394483 22.5285517,3.84794483 21.0697931,3.1913931 L21.0697931,3.1913931 Z M11.6783448,22.4211862 C11.6783448,22.9696 11.2336552,23.4153931 10.6852414,23.4153931 L10.5914483,23.4153931 C10.7569655,24.131531 10.9357241,24.8454621 11.1486897,25.5505655 C11.3064828,26.0758069 11.0096552,26.6297379 10.4844138,26.787531 C10.3884138,26.8173241 10.2924138,26.8305655 10.1964138,26.8305655 C9.77048276,26.8305655 9.37655172,26.5547034 9.24634483,26.1243586 C8.976,25.2294621 8.74758621,24.3257379 8.55006897,23.4153931 L4.43972414,23.4153931 C5.93268966,25.5638069 8.05572414,27.3028414 10.6686897,28.3124966 C11.1795862,28.5111172 11.4333793,29.0860138 11.2358621,29.5969103 C11.0846897,29.9919448 10.7084138,30.2324966 10.310069,30.2324966 C10.1908966,30.2324966 10.0695172,30.211531 9.95144828,30.1662897 C6.33434483,28.7671172 3.54703448,26.1442207 1.84993103,22.9530483 C1.80248276,22.8802207 1.76275862,22.8073931 1.73517241,22.7246345 C-0.216827586,18.9056 -0.620689655,14.3097379 1.03006897,9.99856552 C2.52413793,6.09787586 5.44275862,3.01815172 9.24744828,1.32766897 C10.0761379,0.959117241 10.928,0.681048276 11.7908966,0.463668966 C11.8151724,0.458151724 11.8372414,0.44822069 11.8626207,0.443806897 C14.2813793,-0.152055172 16.7895172,-0.147641379 19.2193103,0.452634483 C19.2546207,0.459255172 19.2877241,0.465875862 19.321931,0.476910345 C19.9255172,0.629186207 20.5246897,0.807944828 21.1150345,1.03635862 C25.36,2.67718621 28.6648276,6.08904828 30.1831724,10.3969103 C30.3652414,10.9144276 30.0926897,11.4804966 29.5751724,11.6625655 C29.0598621,11.8457379 28.4904828,11.5731862 28.3084138,11.0567724 C27.9001379,9.89484138 27.3263448,8.81897931 26.6411034,7.83028966 L22.5561379,7.83028966 C22.6775172,8.42725517 22.7944828,9.02422069 22.8673103,9.63442759 C22.9324138,10.179531 22.5428966,10.6738759 21.9988966,10.7378759 C21.9591724,10.7433931 21.9183448,10.7456 21.8797241,10.7456 C21.3842759,10.7456 20.9550345,10.3737379 20.8954483,9.86946207 C20.8126897,9.1798069 20.6946207,8.50008276 20.5434483,7.83028966 L10.5605517,7.83028966 C10.16,9.60794483 9.89517241,11.5787034 9.79144828,13.635531 L13.5928276,13.635531 C14.1423448,13.635531 14.585931,14.0802207 14.585931,14.6286345 C14.585931,15.1770483 14.1423448,15.6217379 13.5928276,15.6217379 L9.73958621,15.6217379 C9.71862069,17.5770483 9.88855172,19.5147034 10.2074483,21.4280828 L10.6852414,21.4280828 C11.2336552,21.4280828 11.6783448,21.8727724 11.6783448,22.4211862 L11.6783448,22.4211862 Z M30.0761379,14.6087724 C29.5277241,14.6087724 29.0830345,15.0545655 29.0830345,15.6029793 L29.0830345,17.5329103 C28.0987586,15.9439448 26.598069,14.7003586 24.7873103,14.0780138 C22.7205517,13.3696 20.5015172,13.5053241 18.5362759,14.467531 C16.5644138,15.4341517 15.0868966,17.1158069 14.3762759,19.2002207 C14.1997241,19.7199448 14.4777931,20.2838069 14.9964138,20.4603586 C15.5172414,20.6391172 16.08,20.3599448 16.2576552,19.8413241 C16.7961379,18.2589793 17.9150345,16.9844966 19.4102069,16.2529103 C20.8954483,15.5213241 22.576,15.4176 24.1417931,15.9571862 C25.8411034,16.5409103 27.1795862,17.8451862 27.856,19.4793931 L25.2275862,19.4793931 C24.6791724,19.4793931 24.2355862,19.9251862 24.2355862,20.4736 C24.2355862,21.0220138 24.6791724,21.4667034 25.2275862,21.4667034 L30.0761379,21.4667034 C30.6245517,21.4667034 31.0692414,21.0220138 31.0692414,20.4736 L31.0692414,15.6029793 C31.0692414,15.0545655 30.6245517,14.6087724 30.0761379,14.6087724 L30.0761379,14.6087724 Z M30.2626207,25.6410483 C29.552,27.7265655 28.0744828,29.4071172 26.1015172,30.3737379 C24.966069,30.9309793 23.7434483,31.2112552 22.5142069,31.2112552 C21.6204138,31.2112552 20.7222069,31.0622897 19.8526897,30.7643586 C18.0408276,30.1409103 16.5401379,28.8984276 15.5558621,27.3083586 L15.5558621,29.2393931 C15.5558621,29.7878069 15.1111724,30.2324966 14.5627586,30.2324966 C14.0143448,30.2324966 13.5707586,29.7878069 13.5707586,29.2393931 L13.5707586,24.3687724 C13.5707586,23.8203586 14.0143448,23.375669 14.5627586,23.375669 L19.4102069,23.375669 C19.9597241,23.375669 20.4033103,23.8203586 20.4033103,24.3687724 C20.4033103,24.9171862 19.9597241,25.3618759 19.4102069,25.3618759 L16.7828966,25.3618759 C17.4593103,26.9982897 18.7988966,28.3014621 20.4982069,28.8851862 C22.0617931,29.4247724 23.7412414,29.3177379 25.2275862,28.5905655 C26.7227586,27.8578759 27.8438621,26.5833931 28.3823448,25.0010483 C28.5588966,24.483531 29.1238621,24.2043586 29.6424828,24.3820138 C30.1622069,24.5585655 30.4391724,25.1224276 30.2626207,25.6410483 L30.2626207,25.6410483 Z" id="Fill-1" fill="#394762"></path>
            </g>
        </g>
    </g>
</svg>