<svg width="32" height="32" viewBox="0 0 32 32" fill="none" xmlns="http://www.w3.org/2000/svg">
<path d="M20 25H15V30" stroke="#394762" stroke-width="1.7" stroke-linecap="round" stroke-linejoin="round"/>
<path d="M30.2227 25.9773C29.6931 27.525 28.6675 28.8546 27.3051 29.7599C25.9427 30.6652 24.3196 31.0955 22.6876 30.9841C21.0556 30.8727 19.506 30.2259 18.2793 29.1439C17.0525 28.0619 16.2171 26.6053 15.9027 25" stroke="#394762" stroke-width="1.7" stroke-linecap="round" stroke-linejoin="round"/>
<path d="M26 21H31V16" stroke="#394762" stroke-width="1.7" stroke-linecap="round" stroke-linejoin="round"/>
<path d="M15.7773 20.0227C16.3069 18.475 17.3325 17.1454 18.6949 16.2401C20.0573 15.3349 21.6804 14.9045 23.3124 15.0159C24.9444 15.1273 26.4939 15.7742 27.7207 16.8561C28.9475 17.9381 29.7829 19.3948 30.0973 21" stroke="#394762" stroke-width="1.7" stroke-linecap="round" stroke-linejoin="round"/>
<path d="M10.4973 26.5081C9.46445 23.1024 8.95948 19.5586 9 16.0001C9 9.82272 10.3573 4.41605 12.3853 1.43872" stroke="#394762" stroke-width="1.7" stroke-linecap="round" stroke-linejoin="round"/>
<path d="M1.03333 15H14" stroke="#394762" stroke-width="1.7" stroke-linecap="round" stroke-linejoin="round"/>
<path d="M3.99866 7H28" stroke="#394762" stroke-width="1.7" stroke-linecap="round" stroke-linejoin="round"/>
<path d="M2.73066 23H11" stroke="#394762" stroke-width="1.7" stroke-linecap="round" stroke-linejoin="round"/>
<path d="M19.6147 1.43872C21.1857 4.05107 22.1854 6.96665 22.548 9.99339" stroke="#394762" stroke-width="1.7" stroke-linecap="round" stroke-linejoin="round"/>
<path d="M10.6133 30C8.26447 29.0963 6.1807 27.6162 4.55386 25.696C2.92701 23.7758 1.80937 21.4771 1.30382 19.0117C0.798266 16.5463 0.921054 13.9933 1.66088 11.5878C2.4007 9.18227 3.73378 7.00152 5.5374 5.24629C7.34102 3.49106 9.55722 2.21776 11.982 1.54362C14.4067 0.869474 16.9621 0.816145 19.4129 1.38854C21.8636 1.96094 24.131 3.14067 26.0063 4.81912C27.8816 6.49758 29.3045 8.62082 30.144 10.9934" stroke="#394762" stroke-width="1.7" stroke-linecap="round" stroke-linejoin="round"/>
</svg>
