<svg width="32" height="32" viewBox="0 0 32 32" fill="none" xmlns="http://www.w3.org/2000/svg">
<path d="M3.13336 22.5C3.13336 22.9596 3.22389 23.4148 3.39978 23.8394C3.57567 24.264 3.83348 24.6499 4.15849 24.9749C4.48349 25.2999 4.86933 25.5577 5.29397 25.7336C5.71861 25.9095 6.17374 26 6.63336 26C7.09299 26 7.54811 25.9095 7.97275 25.7336C8.39739 25.5577 8.78323 25.2999 9.10824 24.9749C9.43324 24.6499 9.69105 24.264 9.86694 23.8394C10.0428 23.4148 10.1334 22.9596 10.1334 22.5C10.1334 22.0404 10.0428 21.5852 9.86694 21.1606C9.69105 20.736 9.43324 20.3501 9.10824 20.0251C8.78323 19.7001 8.39739 19.4423 7.97275 19.2664C7.54811 19.0905 7.09299 19 6.63336 19C6.17374 19 5.71861 19.0905 5.29397 19.2664C4.86933 19.4423 4.48349 19.7001 4.15849 20.0251C3.83348 20.3501 3.57567 20.736 3.39978 21.1606C3.22389 21.5852 3.13336 22.0404 3.13336 22.5V22.5Z" stroke="#394762" stroke-width="1.7" stroke-linecap="round" stroke-linejoin="round"/>
<path d="M12.2667 31C11.859 29.831 11.0978 28.8179 10.0886 28.101C9.07929 27.3841 7.87198 26.9989 6.63401 26.9989C5.39603 26.9989 4.18873 27.3841 3.17946 28.101C2.1702 28.8179 1.40898 29.831 1.00134 31H12.2667Z" stroke="#394762" stroke-width="1.7" stroke-linecap="round" stroke-linejoin="round"/>
<path d="M21.868 22.5C21.868 23.4283 22.2367 24.3185 22.8931 24.9749C23.5495 25.6313 24.4397 26 25.368 26C26.2962 26 27.1865 25.6313 27.8429 24.9749C28.4992 24.3185 28.868 23.4283 28.868 22.5C28.868 21.5717 28.4992 20.6815 27.8429 20.0251C27.1865 19.3687 26.2962 19 25.368 19C24.4397 19 23.5495 19.3687 22.8931 20.0251C22.2367 20.6815 21.868 21.5717 21.868 22.5Z" stroke="#394762" stroke-width="1.7" stroke-linecap="round" stroke-linejoin="round"/>
<path d="M31 31C30.5924 29.831 29.8312 28.8179 28.8219 28.101C27.8126 27.3841 26.6053 26.9989 25.3673 26.9989C24.1294 26.9989 22.9221 27.3841 21.9128 28.101C20.9035 28.8179 20.1423 29.831 19.7347 31H31Z" stroke="#394762" stroke-width="1.7" stroke-linecap="round" stroke-linejoin="round"/>
<path d="M7 10C7 12.3869 7.94821 14.6761 9.63604 16.364C11.3239 18.0518 13.6131 19 16 19C18.3869 19 20.6761 18.0518 22.364 16.364C24.0518 14.6761 25 12.3869 25 10C25 7.61305 24.0518 5.32387 22.364 3.63604C20.6761 1.94821 18.3869 1 16 1C13.6131 1 11.3239 1.94821 9.63604 3.63604C7.94821 5.32387 7 7.61305 7 10V10Z" stroke="#394762" stroke-width="1.7" stroke-linecap="round" stroke-linejoin="round"/>
<path d="M7.51202 13H24.488" stroke="#394762" stroke-width="1.7" stroke-linecap="round" stroke-linejoin="round"/>
<path d="M7.51202 7H24.488" stroke="#394762" stroke-width="1.7" stroke-linecap="round" stroke-linejoin="round"/>
<path d="M14.0587 1.21069C12.4437 7.03882 12.6813 13.225 14.7387 18.912" stroke="#394762" stroke-width="1.7" stroke-linecap="round" stroke-linejoin="round"/>
<path d="M17.9413 1.21069C18.6464 3.747 19.0025 6.36755 19 9.00003C19.0056 12.3799 18.4189 15.7346 17.2667 18.912" stroke="#394762" stroke-width="1.7" stroke-linecap="round" stroke-linejoin="round"/>
</svg>
