<?xml version="1.0" encoding="UTF-8"?>
<svg width="32px" height="32px" viewBox="0 0 32 32" version="1.1" xmlns="http://www.w3.org/2000/svg" xmlns:xlink="http://www.w3.org/1999/xlink">
    <title>Icon/Decorative/32px/Consult</title>
    <defs>
        <filter id="filter-1">
            <feColorMatrix in="SourceGraphic" type="matrix" values="0 0 0 0 0.223529 0 0 0 0 0.278431 0 0 0 0 0.384314 0 0 0 1.000000 0"></feColorMatrix>
        </filter>
    </defs>
    <g id="Icon/Decorative/32px/Consult" stroke="none" stroke-width="1" fill="none" fill-rule="evenodd">
        <g filter="url(#filter-1)" id="Consult">
            <g transform="translate(1.000000, 0.000000)">
                <path d="M2.26845405,29.5211243 C2.84964324,28.6830703 3.6876973,28.0439351 4.68488649,27.6997189 C6.80985946,26.9645838 9.10521081,27.7715027 10.3238054,29.5211243 L2.26845405,29.5211243 Z M6.29612973,19.7879351 C7.68077838,19.7879351 8.80683243,20.9001514 8.80683243,22.2666378 C8.80683243,23.6331243 7.68077838,24.7453405 6.29612973,24.7453405 C4.91234595,24.7453405 3.78542703,23.6331243 3.78542703,22.2666378 C3.78542703,20.9001514 4.91234595,19.7879351 6.29612973,19.7879351 L6.29612973,19.7879351 Z M8.22131892,25.9950703 C9.58953514,25.2953946 10.5365622,23.8951784 10.5365622,22.2666378 C10.5365622,19.9462054 8.63472432,18.0582054 6.29612973,18.0582054 C3.9584,18.0582054 2.0556973,19.9462054 2.0556973,22.2666378 C2.0556973,23.8943135 3.00185946,25.2928 4.36748108,25.9924757 C4.28531892,26.0175568 4.20229189,26.0357189 4.12012973,26.0642595 C2.20185946,26.7276108 0.718616216,28.1978811 0.0492108108,30.0988541 C-0.0441945946,30.3635027 -0.00268108108,30.6566919 0.159048649,30.8858811 C0.321643243,31.1150703 0.584562162,31.2508541 0.864778378,31.2508541 L11.7292108,31.2508541 C12.009427,31.2508541 12.2723459,31.1150703 12.4349405,30.8858811 C12.5966703,30.6566919 12.6381838,30.3635027 12.5447784,30.0988541 C11.8234811,28.0499892 10.1707243,26.585773 8.22131892,25.9950703 L8.22131892,25.9950703 Z" id="Fill-1" fill="#394762"></path>
                <path d="M20.3352216,29.5211243 C20.9155459,28.6830703 21.7536,28.0439351 22.7516541,27.6997189 C24.8757622,26.9628541 27.1719784,27.7715027 28.390573,29.5211243 L20.3352216,29.5211243 Z M24.364627,19.7879351 C25.7484108,19.7879351 26.8753297,20.9001514 26.8753297,22.2666378 C26.8753297,23.6331243 25.7484108,24.7453405 24.364627,24.7453405 C22.9799784,24.7453405 21.8539243,23.6331243 21.8539243,22.2666378 C21.8539243,20.9001514 22.9799784,19.7879351 24.364627,19.7879351 L24.364627,19.7879351 Z M30.6115459,30.0988541 C29.8902486,28.0499892 28.2383568,26.585773 26.2906811,25.9942054 C27.6580324,25.2945297 28.6050595,23.8951784 28.6050595,22.2666378 C28.6050595,19.9462054 26.7023568,18.0582054 24.364627,18.0582054 C22.0260324,18.0582054 20.1241946,19.9462054 20.1241946,22.2666378 C20.1241946,23.8934486 21.0694919,25.2919351 22.4351135,25.9924757 C22.3520865,26.0166919 22.2690595,26.0357189 22.1868973,26.0642595 C20.268627,26.7276108 18.7845189,28.1978811 18.1159784,30.0988541 C18.022573,30.3635027 18.0640865,30.6566919 18.2258162,30.8858811 C18.3884108,31.1150703 18.6513297,31.2508541 18.9315459,31.2508541 L29.7959784,31.2508541 C30.0761946,31.2508541 30.3399784,31.1150703 30.5017081,30.8858811 C30.6634378,30.6566919 30.7049514,30.3635027 30.6115459,30.0988541 L30.6115459,30.0988541 Z" id="Fill-3" fill="#394762"></path>
                <path d="M14.7600432,18.0295784 C14.3120432,16.7227676 13.9660973,15.3969297 13.7256649,14.0563892 L16.9498811,14.0563892 C16.7103135,15.4021189 16.361773,16.7270919 15.9146378,18.0287135 C15.7209081,18.0434162 15.5271784,18.0581189 15.3299892,18.0581189 C15.1379892,18.0581189 14.9494486,18.0434162 14.7600432,18.0295784 M8.48890811,14.0563892 L11.9751784,14.0563892 C12.1784216,15.2628757 12.4586378,16.4589838 12.8192865,17.6412541 C10.9667459,17.0168216 9.42382703,15.728173 8.48890811,14.0563892 M12.2623135,3.21617297 C12.0132324,4.3379027 11.8298811,5.46482162 11.7174486,6.5952 L8.48977297,6.5952 C9.32869189,5.09465946 10.6571243,3.89682162 12.2623135,3.21617297 M16.4975568,2.6912 C16.8296649,3.97379459 17.0631784,5.27887568 17.199827,6.5952 L13.4515027,6.5952 C13.5898811,5.28665946 13.8311784,3.98330811 14.1650162,2.69033514 C14.5455568,2.63325405 14.9330162,2.59433514 15.3299892,2.59433514 C15.727827,2.59433514 16.1152865,2.63325405 16.4975568,2.6912 M22.1702054,6.5952 L18.9373405,6.5952 C18.8266378,5.46136216 18.6536649,4.33444324 18.4063135,3.22136216 C20.0071784,3.90201081 21.3321514,5.09725405 22.1702054,6.5952 M19.0523676,8.32492973 L22.8690162,8.32492973 C23.0428541,8.96492973 23.1440432,9.63347027 23.1440432,10.326227 C23.1440432,11.0189838 23.0428541,11.6875243 22.8690162,12.3266595 L18.9321514,12.3266595 C19.0324757,11.3476324 19.0895568,10.3625514 19.087827,9.37141622 C19.087827,9.02201081 19.0653405,8.67433514 19.0523676,8.32492973 M13.3157189,8.32492973 L17.3226378,8.32492973 C17.3364757,8.67433514 17.3581339,9.02287568 17.3581339,9.37228108 C17.359827,10.3634162 17.3001514,11.3484973 17.1929081,12.3266595 L13.4644757,12.3266595 C13.3157189,10.998227 13.2629622,9.66114595 13.3157189,8.32492973 M7.51507027,10.326227 C7.51507027,9.63347027 7.61625946,8.96492973 7.7900973,8.32492973 L11.5859892,8.32492973 C11.535827,9.66114595 11.5903135,10.9973622 11.7304216,12.3266595 L7.7900973,12.3266595 C7.61625946,11.6875243 7.51507027,11.0189838 7.51507027,10.326227 M17.8614486,17.6334703 C18.2195027,16.4581189 18.4997189,15.2637405 18.7003676,14.0563892 L22.1702054,14.0563892 C21.2396108,15.7212541 19.7044757,17.0064432 17.8614486,17.6334703 M16.8166919,19.6615784 C20.2700973,19.1219027 23.1077189,16.7461189 24.2830703,13.5720649 C24.3029622,13.5331459 24.3150703,13.4924973 24.3280432,13.4501189 C24.6757189,12.470227 24.873773,11.4220108 24.873773,10.326227 C24.873773,9.22957838 24.6757189,8.18136216 24.3280432,7.20147027 C24.3150703,7.15995676 24.3029622,7.11930811 24.2830703,7.08038919 C23.1656649,4.06114595 20.5468541,1.75714595 17.3209081,1.07476757 C17.3165838,1.07476757 17.3122595,1.07303784 17.3079351,1.07217297 C16.6696649,0.938118919 16.0080432,0.864605405 15.3299892,0.864605405 C14.6519351,0.864605405 13.9911784,0.937254054 13.3529081,1.07217297 C13.3425297,1.07303784 13.3338811,1.07736216 13.3235027,1.07909189 C10.1044757,1.76492973 7.49258378,4.06547027 6.37690811,7.08038919 C6.35701622,7.11930811 6.34490811,7.15995676 6.33107027,7.20233514 C5.98425946,8.18136216 5.78534054,9.23044324 5.78534054,10.326227 C5.78534054,11.4220108 5.98425946,12.470227 6.33107027,13.4501189 C6.34490811,13.4924973 6.35701622,13.5331459 6.37604324,13.5720649 C7.55225946,16.7487135 10.3933405,19.1253622 13.8502054,19.6624432 C13.9340973,19.6892541 14.0223135,19.7048216 14.1131243,19.7048216 C14.1148541,19.7048216 14.1174486,19.7039568 14.1191784,19.7039568 C14.5170162,19.7532541 14.9191784,19.7878486 15.3299892,19.7878486 C15.7416649,19.7878486 16.1446919,19.7532541 16.5433946,19.7030919 C16.5451243,19.7030919 16.5485838,19.7048216 16.5511784,19.7048216 C16.6428541,19.7048216 16.7319351,19.6892541 16.8166919,19.6615784" id="Fill-6" fill="#394762"></path>
            </g>
        </g>
    </g>
</svg>