<?xml version="1.0" encoding="UTF-8"?>
<svg width="32px" height="32px" viewBox="0 0 32 32" version="1.1" xmlns="http://www.w3.org/2000/svg" xmlns:xlink="http://www.w3.org/1999/xlink">
    <title>Icon/Decorative/32px/ContactCenter</title>
    <defs>
        <filter id="filter-1">
            <feColorMatrix in="SourceGraphic" type="matrix" values="0 0 0 0 0.223529 0 0 0 0 0.278431 0 0 0 0 0.384314 0 0 0 1.000000 0"></feColorMatrix>
        </filter>
    </defs>
    <g id="Icon/Decorative/32px/ContactCenter" stroke="none" stroke-width="1" fill="none" fill-rule="evenodd" stroke-linecap="round" stroke-linejoin="round">
        <g filter="url(#filter-1)" id="Contact-Center">
            <g transform="translate(1.000000, 1.000000)">
                <path d="M5,23 L4,23 C1.79066667,23 0,21.2093333 0,19 L0,15 C0,12.7906667 1.79066667,11 4,11 L5,11 C5.552,11 6,11.448 6,12 L6,22 C6,22.552 5.552,23 5,23 Z" id="Path" stroke="#394762" stroke-width="2"></path>
                <path d="M26,23 L25,23 C24.448,23 24,22.552 24,22 L24,12 C24,11.448 24.448,11 25,11 L26,11 C28.2093333,11 30,12.7906667 30,15 L30,19 C30,21.2093333 28.2093333,23 26,23 Z" id="Path" stroke="#394762" stroke-width="2"></path>
                <path d="M4,11 C4,4.92533333 8.92533333,0 15,0 L15,0 C21.0746667,0 26,4.92533333 26,11" id="Path" stroke="#394762" stroke-width="2"></path>
                <path d="M19,28 L22,28 C24.2093333,28 26,26.2093333 26,24 L26,24 L26,23" id="Path" stroke="#394762" stroke-width="2"></path>
                <path d="M17,30 L15,30 C13.896,30 13,29.104 13,28 L13,28 C13,26.896 13.896,26 15,26 L17,26 C18.104,26 19,26.896 19,28 L19,28 C19,29.104 18.104,30 17,30 Z" id="Path" stroke="#394762" stroke-width="2"></path>
                <path d="M11,19.5893333 C13.2666667,21.6546667 16.7333333,21.6546667 19,19.5893333" id="Path" stroke="#394762" stroke-width="2"></path>
                <line x1="11" y1="12.3133333" x2="11" y2="14.0626667" id="Path" stroke="#394762" stroke-width="2"></line>
                <line x1="19" y1="12.3133333" x2="19" y2="14.0626667" id="Path" stroke="#394762" stroke-width="2"></line>
            </g>
        </g>
    </g>
</svg>