<svg width="32" height="32" viewBox="0 0 32 32" fill="none" xmlns="http://www.w3.org/2000/svg">
<path fill-rule="evenodd" clip-rule="evenodd" d="M17.2855 13.5419L23.1645 10.9944V3.35162L17.2855 5.38969L11.4064 3.35162V10.9944L17.2855 13.5419Z" stroke="#394762" stroke-width="1.7" stroke-linecap="round" stroke-linejoin="round"/>
<path d="M23.1645 3.35161L17.2855 1L11.4064 3.35161" stroke="#394762" stroke-width="1.7" stroke-linecap="round" stroke-linejoin="round"/>
<path d="M17.2855 4.91937V13.542" stroke="#394762" stroke-width="1.7" stroke-linecap="round" stroke-linejoin="round"/>
<path fill-rule="evenodd" clip-rule="evenodd" d="M24.7322 24.5162L29.4354 21.9686V16.364L24.7322 18.402L20.0289 16.364V21.9686L24.7322 24.5162Z" stroke="#394762" stroke-width="1.7" stroke-linecap="round" stroke-linejoin="round"/>
<path d="M29.4354 16.364L24.7322 14.3259L20.0289 16.364" stroke="#394762" stroke-width="1.7" stroke-linecap="round" stroke-linejoin="round"/>
<path d="M24.3403 18.2452V24.5161" stroke="#394762" stroke-width="1.7" stroke-linecap="round" stroke-linejoin="round"/>
<path fill-rule="evenodd" clip-rule="evenodd" d="M9.83859 30.7872L17.6773 27.8085V18.3759L9.83859 20.8582L1.99988 18.3759V27.8085L9.83859 30.7872Z" stroke="#394762" stroke-width="1.7" stroke-linecap="round" stroke-linejoin="round"/>
<path d="M17.6773 18.3759L9.83859 15.8937L1.99988 18.3759" stroke="#394762" stroke-width="1.7" stroke-linecap="round" stroke-linejoin="round"/>
<path d="M9.83862 20.8584V30.7874" stroke="#394762" stroke-width="1.7" stroke-linecap="round" stroke-linejoin="round"/>
</svg>
