<svg width="32" height="32" viewBox="0 0 32 32" fill="none" xmlns="http://www.w3.org/2000/svg">
<path fill-rule="evenodd" clip-rule="evenodd" d="M12.25 25.375C13.8038 25.375 15.0625 26.6337 15.0625 28.1875C15.0625 29.7413 13.8038 31 12.25 31C10.6962 31 9.4375 29.7413 9.4375 28.1875C9.4375 26.6337 10.6962 25.375 12.25 25.375Z" stroke="#394762" stroke-width="1.7" stroke-linecap="round" stroke-linejoin="round"/>
<path d="M1 27.7188H9.4375" stroke="#394762" stroke-width="1.7" stroke-linecap="round" stroke-linejoin="round"/>
<path d="M14.8158 28.1875H17.7763C18.8658 28.1875 19.75 27.2981 19.75 26.2022V23.2243C19.75 21.0312 17.9829 19.2537 15.8026 19.2537H11.8553L8.99868 13.5069C8.33026 12.1622 6.96316 11.3125 5.46842 11.3125H1" stroke="#394762" stroke-width="1.7" stroke-linecap="round" stroke-linejoin="round"/>
<path d="M1 19.2812H12.25" stroke="#394762" stroke-width="1.7" stroke-linecap="round" stroke-linejoin="round"/>
<path d="M14.8724 14.9559C13.9369 13.4473 13.3603 11.742 13.1875 9.97164C13.1875 5.01664 17.1749 1 22.0938 1C27.0126 1 31 5.01664 31 9.97164C31 13.4154 26.6973 19.2955 24.0729 22.5625" stroke="#394762" stroke-width="1.7" stroke-linecap="round" stroke-linejoin="round"/>
<path fill-rule="evenodd" clip-rule="evenodd" d="M21.625 6.625C23.1788 6.625 24.4375 7.88375 24.4375 9.4375C24.4375 10.9913 23.1788 12.25 21.625 12.25C20.0712 12.25 18.8125 10.9913 18.8125 9.4375C18.8125 7.88375 20.0712 6.625 21.625 6.625Z" stroke="#394762" stroke-width="1.7" stroke-linecap="round" stroke-linejoin="round"/>
</svg>
