<?xml version="1.0" encoding="UTF-8"?>
<svg width="32px" height="32px" viewBox="0 0 32 32" version="1.1" xmlns="http://www.w3.org/2000/svg" xmlns:xlink="http://www.w3.org/1999/xlink">
    <title>Icon/Decorative/32px/Dispatch</title>
    <defs>
        <filter id="filter-1">
            <feColorMatrix in="SourceGraphic" type="matrix" values="0 0 0 0 0.223529 0 0 0 0 0.278431 0 0 0 0 0.384314 0 0 0 1.000000 0"></feColorMatrix>
        </filter>
    </defs>
    <g id="Icon/Decorative/32px/Dispatch" stroke="none" stroke-width="1" fill="none" fill-rule="evenodd" stroke-linecap="round" stroke-linejoin="round">
        <g filter="url(#filter-1)" id="Dispatch">
            <g transform="translate(1.000000, 1.000000)">
                <path d="M11.25,24.375 C12.80375,24.375 14.0625,25.63375 14.0625,27.1875 C14.0625,28.74125 12.80375,30 11.25,30 C9.69625,30 8.4375,28.74125 8.4375,27.1875 C8.4375,25.63375 9.69625,24.375 11.25,24.375 Z" id="Path" stroke="#394762" stroke-width="2"></path>
                <line x1="0" y1="26.71875" x2="8.4375" y2="26.71875" id="Path" stroke="#394762" stroke-width="2"></line>
                <path d="M13.8157895,27.1875 L16.7763158,27.1875 C17.8657895,27.1875 18.75,26.2980882 18.75,25.2022059 L18.75,22.2242647 C18.75,20.0311765 16.9828947,18.2536765 14.8026316,18.2536765 L10.8552632,18.2536765 L7.99868421,12.5069118 C7.33026316,11.1622059 5.96315789,10.3125 4.46842105,10.3125 L0,10.3125" id="Path" stroke="#394762" stroke-width="2"></path>
                <line x1="0" y1="18.28125" x2="11.25" y2="18.28125" id="Path" stroke="#394762" stroke-width="2"></line>
                <path d="M13.8724306,13.9558805 C12.9369444,12.4473163 12.3603472,10.7420406 12.1875,8.97163749 C12.1875,4.01663533 16.1748611,0 21.09375,0 C26.0126389,0 30,4.01663533 30,8.97163749 C30,12.4154172 25.6972917,18.2954948 23.0729167,21.5625" id="Path" stroke="#394762" stroke-width="2"></path>
                <path d="M20.625,5.625 C22.17875,5.625 23.4375,6.88375 23.4375,8.4375 C23.4375,9.99125 22.17875,11.25 20.625,11.25 C19.07125,11.25 17.8125,9.99125 17.8125,8.4375 C17.8125,6.88375 19.07125,5.625 20.625,5.625 Z" id="Path" stroke="#394762" stroke-width="2"></path>
            </g>
        </g>
    </g>
</svg>