<svg fill="none" height="32" viewBox="0 0 32 32" width="32" xmlns="http://www.w3.org/2000/svg"><g clip-rule="evenodd" fill-rule="evenodd" stroke="#394762" stroke-width="1.7"><path d="m28.662 8.82883c0-.43828-.0567-.86213-.1526-1.26947l1.5593-.90028-1.5665-2.71631-1.6913.90234c-.6166-.58369-1.5448-1.02403-2.3285-1.27359v-1.79747h-3.1361v1.7985c-.7837.24853-1.4509.68887-2.0666 1.27256l-1.4943-.90234-1.5355 2.71631 1.5758.90028c-.098.40734-.1454.83119-.1454 1.26947s.0598.86006.1557 1.26847l-1.5562.9013 1.5685 2.7153 1.4283-.9014c.6188.5837 1.286 1.0261 2.0697 1.2736v1.7975h3.1361v-1.7975c.7837-.2475 1.7129-.6899 2.3285-1.2736l1.6263.9014 1.5995-2.7153-1.5438-.9013c.0959-.40738.1691-.83019.1691-1.26847zm-3.4289 0c0 1.13747-.9219 2.05837-2.0583 2.05837-1.1365 0-2.0574-.9209-2.0574-2.05837 0-1.13644.9209-2.05838 2.0574-2.05838 1.1364 0 2.0583.92194 2.0583 2.05838z"/><path d="m9.88504 13.7963c.99206-.9921.99206-2.6009 0-3.594l-2.69569-2.69564c-.99309-.99309-2.60288-.99309-3.59494 0l-1.47881 1.47778c-1.282875 1.28286-1.481906 3.28456-.48159 4.79736 4.29618 6.4948 10.02689 12.2245 16.52169 16.5206 1.5097.9983 3.5165.7993 4.7963-.4816l1.4788-1.4777c.9921-.9921.9921-2.6019 0-3.595l-2.6957-2.6957c-.9931-.9931-2.6018-.9931-3.5949 0l-.8982.8983c-2.9566-2.4224-5.8328-5.2996-8.25518-8.2562z"/></g></svg>