<?xml version="1.0" encoding="UTF-8"?>
<svg width="32px" height="32px" viewBox="0 0 32 32" version="1.1" xmlns="http://www.w3.org/2000/svg" xmlns:xlink="http://www.w3.org/1999/xlink">
    <title>Icon/Decorative/32px/Engagement</title>
    <defs>
        <filter id="filter-1">
            <feColorMatrix in="SourceGraphic" type="matrix" values="0 0 0 0 0.223529 0 0 0 0 0.278431 0 0 0 0 0.384314 0 0 0 1.000000 0"></feColorMatrix>
        </filter>
    </defs>
    <g id="Icon/Decorative/32px/Engagement" stroke="none" stroke-width="1" fill="none" fill-rule="evenodd">
        <g filter="url(#filter-1)" id="Engagement">
            <g transform="translate(1.000000, 1.000000)">
                <path d="M27.6620438,7.8288375 C27.6620438,7.39055625 27.605325,6.9667125 27.5094188,6.55936875 L29.0686688,5.6590875 L27.5022,2.942775 L25.81095,3.84511875 C25.1942625,3.26143125 24.2661375,2.8210875 23.4823875,2.571525 L23.4823875,0.77405625 L20.3463562,0.77405625 L20.3463562,2.57255625 C19.5626063,2.8210875 18.8953875,3.26143125 18.2797312,3.84511875 L16.78545,2.942775 L15.2499188,5.6590875 L16.8256688,6.55936875 C16.7277,6.9667125 16.6802625,7.39055625 16.6802625,7.8288375 C16.6802625,8.26711875 16.740075,8.6889 16.8359812,9.097275 L15.279825,9.9985875 L16.8483562,12.7138687 L18.2766375,11.8125562 C18.8953875,12.3962437 19.5626063,12.83865 20.3463562,13.08615 L20.3463562,14.8836188 L23.4823875,14.8836188 L23.4823875,13.08615 C24.2661375,12.83865 25.1952938,12.3962437 25.81095,11.8125562 L27.4372312,12.7138687 L29.0367,9.9985875 L27.4929187,9.097275 C27.588825,8.68993125 27.6620438,8.26711875 27.6620438,7.8288375 Z M24.2331375,7.8288375 C24.2331375,8.96630625 23.3112,9.8872125 22.1747625,9.8872125 C21.038325,9.8872125 20.1174188,8.96630625 20.1174188,7.8288375 C20.1174188,6.6924 21.038325,5.7704625 22.1747625,5.7704625 C23.3112,5.7704625 24.2331375,6.6924 24.2331375,7.8288375 Z" id="Stroke-1" stroke="#394762" stroke-width="1.546875"></path>
                <path d="M8.88504375,12.7962656 C9.87710625,11.8042031 9.87710625,10.1954531 8.88504375,9.20235938 L6.18935625,6.50667188 C5.1962625,5.51357812 3.58648125,5.51357812 2.59441875,6.50667188 L1.11560625,7.98445312 C-0.16726875,9.26732813 -0.3663,11.2689844 0.6340125,12.7818281 C4.9302,19.2766406 10.6608563,25.0062656 17.1556688,29.3024531 C18.6654188,30.3007031 20.6722313,30.1016719 21.9520125,28.8208594 L23.430825,27.3430781 C24.4228875,26.3510156 24.4228875,24.7412344 23.430825,23.7481406 L20.7351375,21.0524531 C19.7420438,20.0593594 18.1332937,20.0593594 17.1402,21.0524531 L16.2419813,21.9506719 C13.2853875,19.5282656 10.4092312,16.6510781 7.986825,13.6944844 L8.88504375,12.7962656 Z" id="Stroke-3" stroke="#394762" stroke-width="2.0625"></path>
            </g>
        </g>
    </g>
</svg>