<svg width="32" height="32" viewBox="0 0 32 32" fill="none" xmlns="http://www.w3.org/2000/svg">
<path d="M4.99866 12C4.99865 9.9139 5.59183 7.87081 6.709 6.10908C7.82618 4.34734 9.42128 2.9396 11.3082 2.05008C13.1952 1.16056 15.2961 0.825946 17.3661 1.08527C19.436 1.34459 21.3895 2.18715 22.9987 3.51466" stroke="#394762" stroke-width="1.7" stroke-linecap="round" stroke-linejoin="round"/>
<path d="M26.2493 8C26.7463 9.27495 27.0005 10.6316 26.9987 12V20C26.9987 22.9172 25.8399 25.7148 23.7773 27.7777C21.7147 29.8406 18.9172 30.9996 16 31C15.3292 31 14.6598 30.9393 14 30.8187" stroke="#394762" stroke-width="1.7" stroke-linecap="round" stroke-linejoin="round"/>
<path d="M9.00132 28.4867C7.74899 27.4555 6.74074 26.1596 6.04911 24.6921C5.35747 23.2247 4.99963 21.6222 5.00132 20V17" stroke="#394762" stroke-width="1.7" stroke-linecap="round" stroke-linejoin="round"/>
<path d="M20.9987 20V12C20.9987 11.0714 20.7401 10.1612 20.2519 9.37135C19.7637 8.58147 19.0653 7.94313 18.2347 7.52787C17.4042 7.1126 16.4744 6.93682 15.5496 7.02021C14.6248 7.1036 13.7415 7.44287 12.9987 8" stroke="#394762" stroke-width="1.7" stroke-linecap="round" stroke-linejoin="round"/>
<path d="M10.9987 12V20C10.9993 20.8301 11.2065 21.6471 11.6016 22.3772C11.9966 23.1073 12.5671 23.7277 13.2616 24.1824C13.9561 24.6371 14.7529 24.9119 15.5801 24.982C16.4072 25.0521 17.2388 24.9153 18 24.584" stroke="#394762" stroke-width="1.7" stroke-linecap="round" stroke-linejoin="round"/>
<path d="M15.9987 13V19" stroke="#394762" stroke-width="1.7" stroke-linecap="round" stroke-linejoin="round"/>
</svg>
