<svg width="32" height="32" viewBox="0 0 32 32" fill="none" xmlns="http://www.w3.org/2000/svg">
<path d="M1 22.5C1 23.4283 1.36875 24.3185 2.02513 24.9749C2.6815 25.6313 3.57174 26 4.5 26C5.42826 26 6.3185 25.6313 6.97487 24.9749C7.63125 24.3185 8 23.4283 8 22.5C8 21.5717 7.63125 20.6815 6.97487 20.0251C6.3185 19.3687 5.42826 19 4.5 19C3.57174 19 2.6815 19.3687 2.02513 20.0251C1.36875 20.6815 1 21.5717 1 22.5V22.5Z" stroke="#394762" stroke-width="1.7" stroke-linecap="round" stroke-linejoin="round"/>
<path d="M24 22.5C24 22.9596 24.0905 23.4148 24.2664 23.8394C24.4423 24.264 24.7001 24.6499 25.0251 24.9749C25.3501 25.2999 25.736 25.5577 26.1606 25.7336C26.5852 25.9095 27.0404 26 27.5 26C27.9596 26 28.4148 25.9095 28.8394 25.7336C29.264 25.5577 29.6499 25.2999 29.9749 24.9749C30.2999 24.6499 30.5577 24.264 30.7336 23.8394C30.9095 23.4148 31 22.9596 31 22.5C31 22.0404 30.9095 21.5852 30.7336 21.1606C30.5577 20.736 30.2999 20.3501 29.9749 20.0251C29.6499 19.7001 29.264 19.4423 28.8394 19.2664C28.4148 19.0905 27.9596 19 27.5 19C27.0404 19 26.5852 19.0905 26.1606 19.2664C25.736 19.4423 25.3501 19.7001 25.0251 20.0251C24.7001 20.3501 24.4423 20.736 24.2664 21.1606C24.0905 21.5852 24 22.0404 24 22.5Z" stroke="#394762" stroke-width="1.7" stroke-linecap="round" stroke-linejoin="round"/>
<path d="M12.5 22.5C12.5 23.4283 12.8687 24.3185 13.5251 24.9749C14.1815 25.6313 15.0717 26 16 26C16.9283 26 17.8185 25.6313 18.4749 24.9749C19.1313 24.3185 19.5 23.4283 19.5 22.5C19.5 21.5717 19.1313 20.6815 18.4749 20.0251C17.8185 19.3687 16.9283 19 16 19C15.0717 19 14.1815 19.3687 13.5251 20.0251C12.8687 20.6815 12.5 21.5717 12.5 22.5V22.5Z" stroke="#394762" stroke-width="1.7" stroke-linecap="round" stroke-linejoin="round"/>
<path d="M10.2507 31C9.92697 30.1212 9.4057 29.3285 8.72708 28.6831C8.04846 28.0378 7.23064 27.5569 6.33672 27.2777C5.4428 26.9985 4.49668 26.9284 3.57138 27.0728C2.64607 27.2172 1.76632 27.5723 1 28.1107" stroke="#394762" stroke-width="1.7" stroke-linecap="round" stroke-linejoin="round"/>
<path d="M21.7507 31C22.0742 30.1212 22.5953 29.3286 23.2738 28.6832C23.9523 28.0378 24.77 27.5569 25.6639 27.2777C26.5577 26.9985 27.5037 26.9284 28.4289 27.0728C29.3541 27.2172 30.2338 27.5723 31 28.1107" stroke="#394762" stroke-width="1.7" stroke-linecap="round" stroke-linejoin="round"/>
<path d="M21.7507 31C21.3152 29.8258 20.5308 28.813 19.5027 28.0978C18.4747 27.3826 17.2524 26.9992 16 26.9992C14.7476 26.9992 13.5253 27.3826 12.4973 28.0978C11.4692 28.813 10.6848 29.8258 10.2493 31" stroke="#394762" stroke-width="1.7" stroke-linecap="round" stroke-linejoin="round"/>
<path d="M19 15C19 15 20 10 24 9" stroke="#394762" stroke-width="1.7" stroke-linecap="round" stroke-linejoin="round"/>
<path d="M27 8H31" stroke="#394762" stroke-width="1.7" stroke-linecap="round" stroke-linejoin="round"/>
<path d="M29 6V10" stroke="#394762" stroke-width="1.7" stroke-linecap="round" stroke-linejoin="round"/>
<path d="M13 15C13 15 12 10 8 9" stroke="#394762" stroke-width="1.7" stroke-linecap="round" stroke-linejoin="round"/>
<path d="M5 8H1" stroke="#394762" stroke-width="1.7" stroke-linecap="round" stroke-linejoin="round"/>
<path d="M3 6V10" stroke="#394762" stroke-width="1.7" stroke-linecap="round" stroke-linejoin="round"/>
<path d="M14 3H18" stroke="#394762" stroke-width="1.7" stroke-linecap="round" stroke-linejoin="round"/>
<path d="M16 1V5" stroke="#394762" stroke-width="1.7" stroke-linecap="round" stroke-linejoin="round"/>
<path d="M16 15V9" stroke="#394762" stroke-width="1.7" stroke-linecap="round" stroke-linejoin="round"/>
</svg>
