<?xml version="1.0" encoding="UTF-8"?>
<svg width="32px" height="32px" viewBox="0 0 32 32" version="1.1" xmlns="http://www.w3.org/2000/svg" xmlns:xlink="http://www.w3.org/1999/xlink">
    <title>Icon/Decorative/32px/Fireworks</title>
    <defs>
        <filter id="filter-1">
            <feColorMatrix in="SourceGraphic" type="matrix" values="0 0 0 0 0.223529 0 0 0 0 0.278431 0 0 0 0 0.384314 0 0 0 1.000000 0"></feColorMatrix>
        </filter>
    </defs>
    <g id="Icon/Decorative/32px/Fireworks" stroke="none" stroke-width="1" fill="none" fill-rule="evenodd" stroke-linecap="round" stroke-linejoin="round">
        <g filter="url(#filter-1)" id="Fireworks">
            <g transform="translate(1.000000, 1.000000)">
                <path d="M3.75,17.9347826 C5.64130435,17.9347826 7.17391304,19.4673913 7.17391304,21.3586957 C7.17391304,23.25 5.64130435,24.7826087 3.75,24.7826087 C1.85869565,24.7826087 0.326086957,23.25 0.326086957,21.3586957 C0.326086957,19.4673913 1.85869565,17.9347826 3.75,17.9347826 Z" id="Path" stroke="#394762" stroke-width="1.30434783"></path>
                <path d="M26.25,17.9347826 C28.1413043,17.9347826 29.673913,19.4673913 29.673913,21.3586957 C29.673913,23.25 28.1413043,24.7826087 26.25,24.7826087 C24.3586957,24.7826087 22.826087,23.25 22.826087,21.3586957 C22.826087,19.4673913 24.3586957,17.9347826 26.25,17.9347826 Z" id="Path" stroke="#394762" stroke-width="1.30434783"></path>
                <path d="M15,17.9347826 C16.8913043,17.9347826 18.423913,19.4673913 18.423913,21.3586957 C18.423913,23.25 16.8913043,24.7826087 15,24.7826087 C13.1086957,24.7826087 11.576087,23.25 11.576087,21.3586957 C11.576087,19.4673913 13.1086957,17.9347826 15,17.9347826 Z" id="Path" stroke="#394762" stroke-width="1.30434783"></path>
                <path d="M9.37565217,29.673913 C8.23434783,26.5747826 4.79608696,24.9873913 1.69695652,26.1286957 C1.21043478,26.3073913 0.75,26.5486957 0.326086957,26.8473913" id="Path" stroke="#394762" stroke-width="1.30434783"></path>
                <path d="M20.6256522,29.673913 C21.7669565,26.5747826 25.203913,24.9873913 28.3017391,26.1286957 C28.7882609,26.3073913 29.2486957,26.5486957 29.673913,26.8473913" id="Path" stroke="#394762" stroke-width="1.30434783"></path>
                <path d="M20.6256522,29.673913 C19.473913,26.5669565 16.0213043,24.9821739 12.9143478,26.133913 C11.2747826,26.7417391 9.98217391,28.0343478 9.37434783,29.673913" id="Path" stroke="#394762" stroke-width="1.30434783"></path>
                <path d="M17.9347826,14.0217391 C17.9347826,14.0217391 18.9130435,9.13043478 22.826087,8.15217391" id="Path" stroke="#394762" stroke-width="1.30434783"></path>
                <line x1="25.7608696" y1="7.17391304" x2="29.673913" y2="7.17391304" id="Path" stroke="#394762" stroke-width="1.30434783"></line>
                <line x1="27.7173913" y1="5.2173913" x2="27.7173913" y2="9.13043478" id="Path" stroke="#394762" stroke-width="1.30434783"></line>
                <path d="M12.0652174,14.0217391 C12.0652174,14.0217391 11.0869565,9.13043478 7.17391304,8.15217391" id="Path" stroke="#394762" stroke-width="1.30434783"></path>
                <line x1="4.23913043" y1="7.17391304" x2="0.326086957" y2="7.17391304" id="Path" stroke="#394762" stroke-width="1.30434783"></line>
                <line x1="2.2826087" y1="5.2173913" x2="2.2826087" y2="9.13043478" id="Path" stroke="#394762" stroke-width="1.30434783"></line>
                <line x1="13.0434783" y1="2.2826087" x2="16.9565217" y2="2.2826087" id="Path" stroke="#394762" stroke-width="1.30434783"></line>
                <line x1="15" y1="0.326086957" x2="15" y2="4.23913043" id="Path" stroke="#394762" stroke-width="1.30434783"></line>
                <line x1="15" y1="14.0217391" x2="15" y2="8.15217391" id="Path" stroke="#394762" stroke-width="1.30434783"></line>
            </g>
        </g>
    </g>
</svg>