<?xml version="1.0" encoding="UTF-8"?>
<svg width="32px" height="32px" viewBox="0 0 32 32" version="1.1" xmlns="http://www.w3.org/2000/svg" xmlns:xlink="http://www.w3.org/1999/xlink">
    <title>Icon/Decorative/32px/Funnel</title>
    <g id="Icon/Decorative/32px/Funnel" stroke="none" stroke-width="1" fill="none" fill-rule="evenodd">
        <path d="M29.806572,5.05263158 C29.814592,5.02857143 29.7985519,5.00451128 29.7985519,4.98045113 L29.7985519,0.802005013 C29.814592,0.376942356 29.4777499,0.0160401003 29.0446672,0 C29.0366472,0 29.0286271,0 29.0206071,0 L3.78150933,0 C3.35644667,0 3.00356447,0.352882206 3.01158452,0.777944862 C3.01158452,0.785964912 3.01158452,0.793984962 3.01158452,0.802005013 L3.01158452,4.98045113 C3.01158452,5.00451128 2.99554442,5.02857143 3.00356447,5.05263158 C3.00356447,5.06065163 2.99554442,5.07669173 3.00356447,5.08471178 C3.00356447,5.10075188 3.00356447,5.11679198 3.00356447,5.12481203 C3.00356447,5.14085213 3.00356447,5.14887218 3.01158452,5.16491228 C3.01960457,5.18095238 3.01960457,5.18897243 3.01960457,5.19699248 C3.01960457,5.20501253 3.02762462,5.22105263 3.02762462,5.23709273 C3.02762462,5.24511278 3.03564467,5.26115288 3.03564467,5.26917293 C3.04366472,5.28521303 3.04366472,5.29323308 3.05168477,5.30927318 C3.05970482,5.31729323 3.05970482,5.33333333 3.06772487,5.34135338 C3.07574492,5.34937343 3.07574492,5.36541353 3.08376497,5.37343358 C3.09178502,5.38145363 3.09980507,5.39749373 3.09980507,5.40551378 C3.09980507,5.41353383 3.11584517,5.42957393 3.11584517,5.43759398 C3.12386522,5.44561404 3.13188527,5.46165414 3.13990532,5.46967419 C3.14792537,5.47769424 3.15594542,5.48571429 3.15594542,5.49373434 C3.15594542,5.49373434 3.17198552,5.49373434 3.18000557,5.50175439 L12.7960457,16.8100251 L12.7960457,30.4761905 C12.7880256,30.7809524 12.9564467,31.0616541 13.2371484,31.197995 C13.3414091,31.2461153 13.4536898,31.2781955 13.5739905,31.2781955 C13.7584517,31.2781955 13.9348928,31.2140351 14.0712336,31.1017544 L19.733389,26.5062657 C19.9178502,26.3538847 20.0221108,26.1213033 20.0140908,25.8807018 L20.0140908,16.8100251 L29.6221108,5.50175439 C29.6221108,5.50175439 29.6301309,5.50175439 29.6381509,5.49373434 C29.646171,5.48571429 29.654191,5.47769424 29.6622111,5.46967419 C29.6702311,5.46165414 29.6782512,5.44561404 29.6862712,5.43759398 C29.6942913,5.42957393 29.7023113,5.41353383 29.7103314,5.40551378 C29.7183514,5.39749373 29.7263715,5.38145363 29.7263715,5.37343358 C29.7343915,5.36541353 29.7424116,5.34937343 29.7424116,5.34135338 C29.7504316,5.33333333 29.7504316,5.31729323 29.7584517,5.30927318 C29.7664717,5.29323308 29.7664717,5.28521303 29.7744918,5.26917293 C29.7825118,5.26115288 29.7825118,5.24511278 29.7825118,5.23709273 C29.7905319,5.22105263 29.7905319,5.21303258 29.7905319,5.19699248 C29.7905319,5.18095238 29.7985519,5.17293233 29.7985519,5.16491228 C29.7985519,5.15689223 29.806572,5.14085213 29.806572,5.12481203 C29.806572,5.10877193 29.814592,5.09273183 29.814592,5.08471178 C29.814592,5.07669173 29.7985519,5.06065163 29.806572,5.05263158 Z M18.6186021,15.9919799 C18.4902813,16.1363409 18.4181008,16.320802 18.4100808,16.5132832 L18.4100808,25.4957393 L14.4000557,28.7919799 L14.4000557,16.5132832 C14.3920356,16.320802 14.3198552,16.1363409 14.1915344,15.9919799 L5.51384016,5.77443609 L27.2962963,5.77443609 L18.6186021,15.9919799 Z M28.1945419,4.17042607 L4.61559454,4.17042607 L4.61559454,1.60401003 L28.1945419,1.60401003 L28.1945419,4.17042607 Z" id="Funnel" fill="#394762"></path>
    </g>
</svg>