<svg fill="none" height="32" viewBox="0 0 32 32" width="32" xmlns="http://www.w3.org/2000/svg" xmlns:xlink="http://www.w3.org/1999/xlink"><clipPath id="a"><path d="m0 0h32v32h-32z"/></clipPath><g clip-path="url(#a)"><path d="m29.0667 2.80002c.1485-.19809.239-.43364.2612-.68026.0223-.24661-.0246-.49455-.1353-.71602-.1108-.22148-.281-.407741-.4916-.537921-.2107-.130179-.4534-.199132-.701-.199132h-24.02534c-.24762 0-.49034.068953-.70097.199132-.21064.13018-.38086.316441-.4916.537921-.11074.22147-.15761.46941-.13537.71602.02223.24662.1127.48217.26127.68026l10.41071 13.98798v13.212c0 .2476.0689.4904.1991.701s.3164.3809.5379.4916.4694.1576.716.1354c.2467-.0223.4822-.1127.6803-.2613l2.6667-2c.1656-.1242.3-.2853.3925-.4704.0926-.1851.1408-.3893.1408-.5963v-11.2133z" stroke="#394762" stroke-linecap="round" stroke-linejoin="round" stroke-width="1.7"/></g></svg>