<?xml version="1.0" encoding="UTF-8"?>
<svg width="32px" height="32px" viewBox="0 0 32 32" version="1.1" xmlns="http://www.w3.org/2000/svg" xmlns:xlink="http://www.w3.org/1999/xlink">
    <title>Icon/Decorative/32px/GlobalSecurity</title>
    <defs>
        <filter id="filter-1">
            <feColorMatrix in="SourceGraphic" type="matrix" values="0 0 0 0 0.223529 0 0 0 0 0.278431 0 0 0 0 0.384314 0 0 0 1.000000 0"></feColorMatrix>
        </filter>
    </defs>
    <g id="Icon/Decorative/32px/GlobalSecurity" stroke="none" stroke-width="1" fill="none" fill-rule="evenodd">
        <g filter="url(#filter-1)" id="Global-Security">
            <g transform="translate(2.000000, 0.000000)">
                <path d="M15.6210581,21.1602581 C16.7389935,19.2784516 17.3841548,17.3894194 17.5410581,15.4993548 L20.5583484,15.4993548 C20.184671,18.208 18.2171871,20.416 15.6210581,21.1602581 L15.6210581,21.1602581 Z M6.84067097,15.4993548 L9.85796129,15.4993548 C10.0148645,17.3894194 10.6589935,19.2784516 11.776929,21.1602581 C9.1808,20.416 7.21331613,18.208 6.84067097,15.4993548 L6.84067097,15.4993548 Z M11.7779613,7.97935484 C10.6589935,9.86219355 10.0148645,11.7501935 9.85796129,13.6402581 L6.84067097,13.6402581 C7.21331613,10.9316129 9.18183226,8.7236129 11.7779613,7.97935484 L11.7779613,7.97935484 Z M15.6716387,15.4993548 C15.4992516,17.2397419 14.8386065,18.9821935 13.6989935,20.740129 C12.5593806,18.9821935 11.8987355,17.2397419 11.7273806,15.4993548 L15.6716387,15.4993548 Z M11.7273806,13.6402581 C11.8997677,11.899871 12.5593806,10.1574194 13.6989935,8.40051613 C14.8386065,10.1574194 15.4992516,11.899871 15.6716387,13.6402581 L11.7273806,13.6402581 Z M20.5583484,13.6402581 L17.5410581,13.6402581 C17.3831226,11.7501935 16.7389935,9.86219355 15.6210581,7.97935484 C18.2171871,8.7236129 20.184671,10.9316129 20.5583484,13.6402581 L20.5583484,13.6402581 Z M13.6989935,5.84670968 C8.85357419,5.84670968 4.91138065,9.76 4.91138065,14.5692903 C4.91138065,19.3796129 8.85254194,23.291871 13.6979613,23.2929032 L13.6989935,23.2929032 L13.6989935,23.2929032 L13.7000258,23.2929032 L13.7000258,23.2929032 C18.5454452,23.291871 22.4866065,19.3796129 22.4866065,14.5692903 C22.4866065,9.76 18.5454452,5.84670968 13.6989935,5.84670968 L13.6989935,5.84670968 Z M25.5400564,14.9429677 C25.5400564,20.9135484 21.7640258,26.3659355 16.1423484,28.5109677 L14.7787355,29.0301935 C14.0829935,29.2965161 13.3160258,29.2965161 12.6192516,29.0301935 L11.2556387,28.5109677 C5.63499355,26.3659355 1.8579307,20.9135484 1.8579307,14.9429677 L1.8579307,5.05290323 L1.8579307,5.04567742 C1.85486452,4.65341935 2.08712258,4.29212903 2.43499355,4.13522581 C5.92815484,2.624 9.62363871,1.85806452 13.4419613,1.85806452 C13.5307355,1.85806452 13.6195097,1.85909677 13.7072516,1.86012903 C17.6040258,1.80129032 21.3893161,2.58993548 24.9485419,4.128 C25.3108645,4.29212903 25.5431226,4.65341935 25.5400564,5.05290323 L25.5400564,14.9429677 Z M25.7020903,2.42890323 C21.9735742,0.816516129 18.0293161,0 13.9890581,0 C13.8951226,0 13.8011871,0.00103225806 13.7072516,0.00103225806 C9.54621935,0.00825806452 5.51112258,0.779354839 1.68144516,2.43612903 C0.653316129,2.90270968 -0.00732903226,3.93187097 -0.000161906342,5.056 L-0.000161906342,14.9429677 C-0.000161906342,21.6784516 4.25692903,27.8286452 10.5939613,30.2472258 L11.9575742,30.7664516 C12.5191226,30.9811613 13.1085419,31.0874839 13.6989935,31.0874839 C14.2894452,31.0874839 14.8788645,30.9811613 15.4404129,30.7664516 L16.8040258,30.2472258 C23.1410581,27.8286452 27.398167,21.6784516 27.398167,14.9429677 L27.398167,5.05909677 C27.4063484,3.93393548 26.7467355,2.90374194 25.7020903,2.42890323 L25.7020903,2.42890323 Z" id="Fill-1" fill="#394762"></path>
            </g>
        </g>
    </g>
</svg>