<?xml version="1.0" encoding="UTF-8"?>
<svg width="32px" height="32px" viewBox="0 0 32 32" version="1.1" xmlns="http://www.w3.org/2000/svg" xmlns:xlink="http://www.w3.org/1999/xlink">
    <title>Icon/Decorative/32px/GlobalSIM</title>
    <defs>
        <filter id="filter-1">
            <feColorMatrix in="SourceGraphic" type="matrix" values="0 0 0 0 0.223529 0 0 0 0 0.278431 0 0 0 0 0.384314 0 0 0 1.000000 0"></feColorMatrix>
        </filter>
    </defs>
    <g id="Icon/Decorative/32px/GlobalSIM" stroke="none" stroke-width="1" fill="none" fill-rule="evenodd">
        <g filter="url(#filter-1)" id="Global-SIM">
            <g transform="translate(1.000000, 0.000000)">
                <path d="M20.3778065,27.0507355 L24.9548387,27.0507355 L24.9548387,20.2956387 L20.3778065,20.2956387 L20.3778065,27.0507355 Z M25.1654194,18.4365419 L20.1661935,18.4365419 C19.2588387,18.4365419 18.5197419,19.1756387 18.5197419,20.0840258 L18.5197419,27.2623484 C18.5197419,28.1707355 19.2588387,28.9098323 20.1661935,28.9098323 L25.1654194,28.9098323 C26.0738065,28.9098323 26.811871,28.1707355 26.811871,27.2623484 L26.811871,20.0840258 C26.811871,19.1756387 26.0738065,18.4365419 25.1654194,18.4365419 L25.1654194,18.4365419 Z M28.5687742,29.0564129 C28.5687742,29.5333161 28.1806452,29.9214452 27.7037419,29.9214452 L18.372129,29.9214452 C17.8952258,29.9214452 17.5060645,29.5333161 17.5060645,29.0564129 L17.5060645,15.4182194 C17.5060645,14.9423484 17.8952258,14.5542194 18.372129,14.5542194 L26.4516129,14.5531871 C26.5424516,14.5552516 26.628129,14.5903484 26.6952258,14.6481548 L28.4996129,16.5227355 C28.5409032,16.5629935 28.5677419,16.6187355 28.5687742,16.6383484 L28.5687742,29.0564129 Z M30.4258065,16.6011871 C30.404129,16.0571871 30.1739355,15.5503484 29.8085161,15.2045419 L28.0134194,13.3392516 L27.9824516,13.3072516 C27.584,12.9315097 27.0637419,12.7147355 26.4836129,12.6951226 L18.372129,12.6951226 C16.8701935,12.6951226 15.648,13.9162839 15.648,15.4182194 L15.648,29.0564129 C15.648,30.5583484 16.8701935,31.7805419 18.372129,31.7805419 L27.7037419,31.7805419 C29.2056774,31.7805419 30.4268387,30.5583484 30.4268387,29.0564129 L30.4258065,16.6011871 Z M7.71922581,20.0448 L2.80877419,20.0448 C2.13780645,18.3477677 1.81883871,16.4835097 1.86632258,14.6140903 L7.31045161,14.6140903 C7.29187097,16.4380903 7.43741935,18.2517677 7.71922581,20.0448 L7.71922581,20.0448 Z M4.18787097,7.32531613 L8.04129032,7.32531613 C7.68516129,9.00996129 7.44877419,10.8370581 7.35896774,12.7549935 L2.03664516,12.7549935 C2.18529032,11.8208 2.41858065,10.8989935 2.75612903,10.0174452 C3.12670968,9.05021935 3.616,8.15525161 4.18787097,7.32531613 L4.18787097,7.32531613 Z M9.38529032,2.98054194 C9.05290323,3.74234839 8.75767742,4.57228387 8.50064516,5.46621935 L5.75380645,5.46621935 C6.79948387,4.44531613 8.01651613,3.59783226 9.38529032,2.98054194 L9.38529032,2.98054194 Z M17.2572903,2.15163871 C17.8147097,3.15602581 18.2709677,4.29976774 18.6322581,5.46621935 L10.4392258,5.46621935 C10.8459355,4.16970323 11.3414194,3.04660645 11.908129,2.14028387 C13.6701935,1.75421935 15.4869677,1.76454194 17.2572903,2.15163871 L17.2572903,2.15163871 Z M23.4157419,5.46621935 L20.5749677,5.46621935 C20.3210323,4.58260645 20.0299355,3.73925161 19.7047742,2.9568 C21.0941935,3.57305806 22.3473548,4.42260645 23.4157419,5.46621935 L23.4157419,5.46621935 Z M12.7741935,14.6140903 C13.2872258,14.6140903 13.7032258,14.1980903 13.7032258,13.6850581 C13.7032258,13.1720258 13.2872258,12.7549935 12.7741935,12.7549935 L9.21703226,12.7549935 C9.31406452,10.8318968 9.56077419,8.98828387 9.93754839,7.32531613 L19.1329032,7.32531613 C19.3496774,8.27086452 19.5096774,9.18234839 19.6046452,9.97615484 C19.6614194,10.448929 20.0619355,10.7957677 20.5264516,10.7957677 C20.5625806,10.7957677 20.5997419,10.7937032 20.6369032,10.7885419 C21.1468387,10.7276387 21.5101935,10.2651871 21.4492903,9.75628387 C21.3522581,8.9408 21.2149677,8.12531613 21.0446452,7.32531613 L24.9806452,7.32531613 C25.6206452,8.25021935 26.1574194,9.25667097 26.5403871,10.3415742 C26.7096774,10.8267355 27.2433548,11.080671 27.7243871,10.9093161 C28.2085161,10.7389935 28.4624516,10.2094452 28.292129,9.72531613 C26.8727742,5.69434839 23.7811613,2.50363871 19.8100645,0.968670968 C19.2588387,0.756025806 18.6972903,0.5888 18.1336774,0.446348387 C18.1006452,0.436025806 18.0686452,0.429832258 18.0345806,0.42363871 C15.7625806,-0.138941935 13.4162581,-0.141006452 11.1545806,0.415380645 C11.1308387,0.419509677 11.1091613,0.4288 11.0854194,0.434993548 C10.2792258,0.637316129 9.48335484,0.898477419 8.70812903,1.24221935 C5.14890323,2.82363871 2.41858065,5.70363871 1.02193548,9.35163871 C-0.611096774,13.616929 -0.267354839,18.6584774 1.91896774,22.5108645 C3.424,25.1617032 6.49806452,28.5444129 12.5925161,29.6055742 C12.6461935,29.6138323 12.699871,29.6189935 12.7525161,29.6189935 C13.1953548,29.6189935 13.5886452,29.3010581 13.6670968,28.848929 C13.7548387,28.3441548 13.4162581,27.8620903 12.9114839,27.7743484 C8.79174194,27.0579613 5.63612903,25.0233806 3.73574194,21.9038968 L8.05574194,21.9038968 C8.24051613,22.7555097 8.45522581,23.600929 8.70812903,24.4391226 C8.82890323,24.840671 9.19741935,25.0997677 9.59690323,25.0997677 C9.68567742,25.0997677 9.77651613,25.0873806 9.86529032,25.0595097 C10.3566452,24.9118968 10.6353548,24.3937032 10.4856774,23.9023484 C10.2864516,23.2427355 10.1192258,22.5738323 9.9643871,21.9038968 L12.7514839,21.9038968 C13.2645161,21.9038968 13.6805161,21.4868645 13.6805161,20.9738323 C13.6805161,20.4608 13.2645161,20.0448 12.7514839,20.0448 L9.60516129,20.0448 C9.30787097,18.2538323 9.14890323,16.4422194 9.16851613,14.6140903 L12.7741935,14.6140903 Z" id="Fill-1" fill="#394762"></path>
            </g>
        </g>
    </g>
</svg>