<svg width="32" height="32" viewBox="0 0 32 32" fill="none" xmlns="http://www.w3.org/2000/svg">
<path d="M2.99998 5.23069V15.3827C3.00001 18.5915 3.97241 21.7251 5.78899 24.3702C7.60558 27.0154 10.1811 29.0479 13.176 30.2L14.564 30.7334C15.4883 31.0889 16.5117 31.0889 17.436 30.7334L18.824 30.2C21.8189 29.0479 24.3944 27.0154 26.211 24.3702C28.0276 21.7251 29 18.5915 29 15.3827V5.23069C29.0025 4.84867 28.8947 4.47404 28.6894 4.15187C28.484 3.8297 28.19 3.57371 27.8426 3.41469C24.1091 1.78508 20.0735 0.962237 16 1.00002C11.9265 0.962237 7.89087 1.78508 4.15732 3.41469C3.80995 3.57371 3.51593 3.8297 3.31061 4.15187C3.1053 4.47404 2.99743 4.84867 2.99998 5.23069V5.23069Z" stroke="#394762" stroke-width="1.7" stroke-linecap="round" stroke-linejoin="round"/>
<path d="M8 15C8 17.1217 8.84286 19.1566 10.3431 20.6569C11.8434 22.1571 13.8783 23 16 23C18.1217 23 20.1566 22.1571 21.6569 20.6569C23.1571 19.1566 24 17.1217 24 15C24 12.8783 23.1571 10.8434 21.6569 9.34315C20.1566 7.84286 18.1217 7 16 7C13.8783 7 11.8434 7.84286 10.3431 9.34315C8.84286 10.8434 8 12.8783 8 15V15Z" stroke="#394762" stroke-width="1.7" stroke-linecap="round" stroke-linejoin="round"/>
<path d="M16 7C20 12.3333 20 17.6667 16 23" stroke="#394762" stroke-width="1.7" stroke-linecap="round" stroke-linejoin="round"/>
<path d="M16 7C12 12.3333 12 17.6667 16 23" stroke="#394762" stroke-width="1.7" stroke-linecap="round" stroke-linejoin="round"/>
<path d="M8 15H24" stroke="#394762" stroke-width="1.7" stroke-linecap="round" stroke-linejoin="round"/>
</svg>
