<svg width="32" height="32" viewBox="0 0 32 32" fill="none" xmlns="http://www.w3.org/2000/svg">
<path d="M12.3853 30.5613C10.356 27.5853 9 22.1773 9 16C9 9.82266 10.356 4.41466 12.3853 1.43866" stroke="#394762" stroke-width="1.7" stroke-linecap="round" stroke-linejoin="round"/>
<path d="M19.6147 30.5613C21.644 27.5853 23 22.1773 23 16C23 9.82266 21.644 4.41466 19.6147 1.43866" stroke="#394762" stroke-width="1.7" stroke-linecap="round" stroke-linejoin="round"/>
<path d="M1.03333 15H31" stroke="#394762" stroke-width="1.7" stroke-linecap="round" stroke-linejoin="round"/>
<path d="M3.99866 7H28" stroke="#394762" stroke-width="1.7" stroke-linecap="round" stroke-linejoin="round"/>
<path d="M2.73067 23H29.2667" stroke="#394762" stroke-width="1.7" stroke-linecap="round" stroke-linejoin="round"/>
<path d="M31 16C31.0049 19.2389 29.9567 22.3916 28.0133 24.9827L31 31L23 29.2667C20.101 30.7965 16.7808 31.3347 13.547 30.799C10.3132 30.2633 7.34386 28.6832 5.09307 26.3003C2.84228 23.9173 1.43392 20.8628 1.08337 17.6037C0.732815 14.3446 1.45936 11.0605 3.1519 8.25337C4.84445 5.44629 7.40982 3.27083 10.4557 2.05967C13.5016 0.848505 16.8604 0.668309 20.0184 1.54663C23.1764 2.42496 25.9598 4.31346 27.9429 6.92334C29.9261 9.53322 30.9998 12.7208 31 15.9987V16Z" stroke="#394762" stroke-width="1.7" stroke-linecap="round" stroke-linejoin="round"/>
</svg>
