<svg width="32" height="32" viewBox="0 0 32 32" fill="none" xmlns="http://www.w3.org/2000/svg">
<path d="M27.0533 19.12L20.1733 20.4347" stroke="#394762" stroke-width="1.7" stroke-linecap="round" stroke-linejoin="round"/>
<path d="M19.2213 11.304L14.5973 12.832C14.2395 12.9498 13.8509 12.9319 13.5054 12.7816C13.16 12.6314 12.8818 12.3594 12.724 12.0173C12.5538 11.6522 12.5323 11.2353 12.6639 10.8546C12.7956 10.474 13.07 10.1594 13.4293 9.97733L17.908 7.72533C18.2897 7.53282 18.7069 7.4207 19.1337 7.39593C19.5605 7.37116 19.9879 7.43426 20.3893 7.58133L27.02 10.0067" stroke="#394762" stroke-width="1.7" stroke-linecap="round" stroke-linejoin="round"/>
<path d="M4.91333 19.1307H8.17333L12.856 24.3787C13.0945 24.655 13.4117 24.8518 13.7653 24.9427C14.1188 25.0335 14.4916 25.0141 14.8338 24.887C15.176 24.7599 15.4711 24.5312 15.6795 24.2315C15.888 23.9319 15.9998 23.5757 16 23.2107V22.3907L16.2333 22.484C16.5683 22.618 16.931 22.6679 17.2897 22.6292C17.6484 22.5906 17.9921 22.4647 18.2909 22.2625C18.5897 22.0603 18.8343 21.788 19.0035 21.4693C19.1727 21.1507 19.2612 20.7954 19.2613 20.4347H19.9133C20.2766 20.4344 20.6326 20.3331 20.9416 20.142C21.2505 19.9509 21.5002 19.6776 21.6627 19.3527C21.8252 19.0278 21.894 18.664 21.8615 18.3022C21.829 17.9404 21.6964 17.5948 21.4787 17.304L17.2933 11.9413" stroke="#394762" stroke-width="1.7" stroke-linecap="round" stroke-linejoin="round"/>
<path d="M14.1107 9.63331L13.6333 9.23997C13.1523 8.88578 12.5707 8.6947 11.9733 8.69464C11.6174 8.69451 11.2648 8.76287 10.9347 8.89597L5 11.2693" stroke="#394762" stroke-width="1.7" stroke-linecap="round" stroke-linejoin="round"/>
<path d="M1 9.00001H3.66667C4.00524 8.9859 4.33562 9.10649 4.58551 9.33538C4.83539 9.56428 4.98443 9.88283 5 10.2213V18.7773C4.98442 19.116 4.83543 19.4347 4.58559 19.6638C4.33575 19.8929 4.00537 20.0138 3.66667 20H1" stroke="#394762" stroke-width="1.7" stroke-linecap="round" stroke-linejoin="round"/>
<path d="M31 20H28.3333C27.9946 20.0138 27.6643 19.8929 27.4144 19.6638C27.1646 19.4347 27.0156 19.116 27 18.7773V10.2213C27.0156 9.88283 27.1646 9.56428 27.4145 9.33538C27.6644 9.10649 27.9948 8.9859 28.3333 9.00001H31" stroke="#394762" stroke-width="1.7" stroke-linecap="round" stroke-linejoin="round"/>
<path d="M16 22.3907L14.696 21.0867" stroke="#394762" stroke-width="1.7" stroke-linecap="round" stroke-linejoin="round"/>
<path d="M19.2614 20.4347L17.304 18.4774" stroke="#394762" stroke-width="1.7" stroke-linecap="round" stroke-linejoin="round"/>
</svg>
