<?xml version="1.0" encoding="UTF-8"?>
<svg width="32px" height="32px" viewBox="0 0 32 32" version="1.1" xmlns="http://www.w3.org/2000/svg" xmlns:xlink="http://www.w3.org/1999/xlink">
    <title>Icon/Decorative/32px/Handshake</title>
    <defs>
        <filter id="filter-1">
            <feColorMatrix in="SourceGraphic" type="matrix" values="0 0 0 0 0.223529 0 0 0 0 0.278431 0 0 0 0 0.384314 0 0 0 1.000000 0"></feColorMatrix>
        </filter>
    </defs>
    <g id="Icon/Decorative/32px/Handshake" stroke="none" stroke-width="1" fill="none" fill-rule="evenodd" stroke-linecap="round" stroke-linejoin="round">
        <g filter="url(#filter-1)" id="Handshake">
            <g transform="translate(1.000000, 7.000000)">
                <line x1="25.7701271" y1="11.6449341" x2="18.9694094" y2="12.9447459" id="Stroke-1" stroke="#394762" stroke-width="1.97650588"></line>
                <path d="M18.0289094,3.91909059 L13.4586035,5.42971412 C12.7260035,5.67080824 11.9293447,5.32489059 11.6067212,4.62373765 C11.2573094,3.87366706 11.5647918,2.98150235 12.3032153,2.60763176 L16.7314271,0.381878824 C17.4931447,-0.00247411765 18.3818153,-0.0548858824 19.1831329,0.239784706 L25.7369329,2.63674941" id="Stroke-2" stroke="#394762" stroke-width="1.97650588"></path>
                <path d="M3.88646824,11.6550671 L7.10920941,11.6550671 L11.7365859,16.8426671 C12.3748447,17.5822553 13.4917976,17.6649494 14.2313859,17.0266906 C14.6203976,16.6900906 14.8440212,16.2020788 14.8451859,15.6884435 L14.8451859,14.8778082 L15.0746329,14.96982 C16.1939153,15.4170671 17.4646094,14.8731494 17.9130212,13.7538671 C18.0155153,13.4964671 18.0690918,13.2215965 18.0690918,12.9443965 L18.7120094,12.9443965 C19.7812094,12.9432318 20.6477506,12.0766906 20.6465871,11.0086553 C20.6465871,10.5905259 20.5103153,10.1840435 20.2610682,9.84977294 L16.1228682,4.54919647" id="Stroke-4" stroke="#394762" stroke-width="1.97650588"></path>
                <path d="M12.9776965,2.26753765 L12.5059906,1.87969059 C12.0307906,1.52911412 11.4542612,1.34043176 10.86492,1.34043176 C10.5131788,1.34043176 10.1637671,1.40682 9.83764941,1.53959647 L3.97219059,3.88531412" id="Stroke-6" stroke="#394762" stroke-width="1.97650588"></path>
                <path d="M0.0181305882,1.64139176 L2.65386,1.64139176 C3.35035412,1.61227412 3.93969529,2.15153294 3.97230706,2.84919176 L3.97230706,11.3061212 C3.93969529,12.0026153 3.35035412,12.5430388 2.65386,12.5139212 L0.0181305882,12.5139212" id="Stroke-8" stroke="#394762" stroke-width="1.97650588"></path>
                <path d="M29.6714259,12.5143871 L27.0356965,12.5143871 C26.3392024,12.54234 25.7498612,12.0030812 25.7172494,11.3054224 L25.7172494,2.84849294 C25.7498612,2.15199882 26.3392024,1.61274 27.0356965,1.64185765 L29.6714259,1.64185765" id="Stroke-10" stroke="#394762" stroke-width="1.97650588"></path>
                <line x1="14.8453024" y1="14.8779247" x2="13.5559729" y2="13.5885953" id="Stroke-12" stroke="#394762" stroke-width="1.97650588"></line>
                <line x1="18.0687424" y1="12.9443965" x2="16.1341659" y2="11.00982" id="Stroke-14" stroke="#394762" stroke-width="1.97650588"></line>
            </g>
        </g>
    </g>
</svg>