<?xml version="1.0" encoding="UTF-8"?>
<svg width="32px" height="32px" viewBox="0 0 32 32" version="1.1" xmlns="http://www.w3.org/2000/svg" xmlns:xlink="http://www.w3.org/1999/xlink">
    <title>Icon/Decorative/32px/Headphone</title>
    <defs>
        <filter id="filter-1">
            <feColorMatrix in="SourceGraphic" type="matrix" values="0 0 0 0 0.223529 0 0 0 0 0.278431 0 0 0 0 0.384314 0 0 0 1.000000 0"></feColorMatrix>
        </filter>
    </defs>
    <g id="Icon/Decorative/32px/Headphone" stroke="none" stroke-width="1" fill="none" fill-rule="evenodd">
        <g filter="url(#filter-1)" id="Headphone">
            <g transform="translate(1.000000, 5.000000)">
                <path d="M3.0839325,18.4352025 C1.6525575,18.4352025 8.25e-05,17.9212275 8.25e-05,15.5526525 C8.25e-05,13.2954525 1.6525575,12.7814775 3.0839325,12.7814775" id="Stroke-1" stroke="#394762" stroke-width="1.65"></path>
                <path d="M7.1952375,22.0328625 L5.1838875,22.0328625 C3.5982375,22.0328625 3.0842625,21.0049125 3.0842625,19.4407125 L3.0842625,11.6642625 C3.0842625,10.2114375 3.7079625,8.6703375 5.1401625,8.6703375 L7.1952375,8.6703375 L7.1952375,22.0328625 Z" id="Stroke-3" stroke="#394762" stroke-width="1.65"></path>
                <path d="M26.7261225,17.921145 C28.1566725,17.921145 29.8091475,17.40717 29.8091475,15.35127 C29.8091475,13.29537 28.1566725,12.78222 26.7261225,12.78222" id="Stroke-5" stroke="#394762" stroke-width="1.65"></path>
                <path d="M22.6139925,22.0328625 L24.6253425,22.0328625 C26.2118175,22.0328625 26.7257925,21.0049125 26.7257925,19.4407125 L26.7257925,11.6642625 C26.7257925,10.2114375 25.6978425,8.6703375 24.1559175,8.6703375 L22.6139925,8.6703375 L22.6139925,22.0328625 Z" id="Stroke-7" stroke="#394762" stroke-width="1.65"></path>
                <path d="M5.8320075,8.67009 C5.8320075,3.65904 9.8934825,0.000165 14.9045325,0.000165 C19.9147575,0.000165 23.9770575,3.65904 23.9770575,8.67009" id="Stroke-9" stroke="#394762" stroke-width="1.65"></path>
            </g>
        </g>
    </g>
</svg>