<?xml version="1.0" encoding="UTF-8"?>
<svg width="32px" height="32px" viewBox="0 0 32 32" version="1.1" xmlns="http://www.w3.org/2000/svg" xmlns:xlink="http://www.w3.org/1999/xlink">
    <title>Icon/Decorative/32px/Healthcare</title>
    <defs>
        <filter id="filter-1">
            <feColorMatrix in="SourceGraphic" type="matrix" values="0 0 0 0 0.223529 0 0 0 0 0.278431 0 0 0 0 0.384314 0 0 0 1.000000 0"></feColorMatrix>
        </filter>
    </defs>
    <g id="Icon/Decorative/32px/Healthcare" stroke="none" stroke-width="1" fill="none" fill-rule="evenodd" stroke-linecap="round" stroke-linejoin="round">
        <g filter="url(#filter-1)" id="Healthcare">
            <g transform="translate(1.000000, 1.000000)">
                <path d="M23.9488636,7.04545455 C23.9488636,6.49630778 23.5036922,6.05113636 22.9545455,6.05113636 L17.9829545,6.05113636 L17.9829545,1.07954545 C17.9829545,0.530398686 17.5377831,0.0852272727 16.9886364,0.0852272727 L13.0113636,0.0852272727 C12.4622169,0.0852272727 12.0170455,0.530398686 12.0170455,1.07954545 L12.0170455,6.05113636 L7.04545455,6.05113636 C6.49630778,6.05113636 6.05113636,6.49630778 6.05113636,7.04545455 L6.05113636,11.0227273 C6.05113636,11.571874 6.49630778,12.0170455 7.04545455,12.0170455 L12.0170455,12.0170455 L12.0170455,16.9886364 C12.0170455,17.5377831 12.4622169,17.9829545 13.0113636,17.9829545 L16.9886364,17.9829545 C17.5377831,17.9829545 17.9829545,17.5377831 17.9829545,16.9886364 L17.9829545,12.0170455 L22.9545455,12.0170455 C23.5036922,12.0170455 23.9488636,11.571874 23.9488636,11.0227273 L23.9488636,7.04545455 Z" id="Path" stroke="#394762" stroke-width="1.98863636"></path>
                <path d="M4.0625,29.9147727 L1.39242424,26.7581439 C0.546236706,25.7003398 0.0852272727,24.3860548 0.0852272727,23.0314394 L0.0852272727,16.175947 C0.0852272727,15.0776534 0.9755701,14.1873106 2.07386364,14.1873106 L2.07386364,14.1873106 C3.17215717,14.1873106 4.0625,15.0776534 4.0625,16.175947 L4.0625,21.1475379" id="Path" stroke="#394762" stroke-width="1.98863636"></path>
                <path d="M10.0284097,29.9147727 L10.0284097,25.9375 C10.028936,24.7577744 9.67968684,23.6043756 9.02481061,22.6231061 L7.51079545,20.3560606 C7.24863713,19.9218405 6.82019438,19.6138261 6.32508627,19.5036351 C5.82997815,19.3934441 5.31134366,19.4906776 4.88977273,19.7727273 L4.88977273,19.7727273 C4.11451102,20.2921685 3.84547062,21.3064622 4.26136364,22.1418561 L6.05378788,25.1248106" id="Path" stroke="#394762" stroke-width="1.98863636"></path>
                <path d="M25.9375,29.9147727 L28.6075758,26.7581439 C29.4537633,25.7003398 29.9147727,24.3860548 29.9147727,23.0314394 L29.9147727,16.175947 C29.9147727,15.0776534 29.0244299,14.1873106 27.9261364,14.1873106 L27.9261364,14.1873106 C26.8278428,14.1873106 25.9375,15.0776534 25.9375,16.175947 L25.9375,21.1475379" id="Path" stroke="#394762" stroke-width="1.98863636"></path>
                <path d="M19.9715903,29.9147727 L19.9715903,25.9375 C19.971064,24.7577744 20.3203132,23.6043756 20.9751894,22.6231061 L22.4892045,20.3534091 C22.7504792,19.9183171 23.1785217,19.6091906 23.6737006,19.497982 C24.1688794,19.3867734 24.6879985,19.4831838 25.1102273,19.7647727 L25.1102273,19.7647727 C25.8892762,20.2838507 26.1598302,21.3018387 25.7412879,22.1392045 L23.9488636,25.1221591" id="Path" stroke="#394762" stroke-width="1.98863636"></path>
            </g>
        </g>
    </g>
</svg>