<svg width="32" height="32" viewBox="0 0 32 32" fill="none" xmlns="http://www.w3.org/2000/svg">
<path d="M25 8C25 7.73478 24.8946 7.48043 24.7071 7.29289C24.5196 7.10536 24.2652 7 24 7H19V2C19 1.73478 18.8946 1.48043 18.7071 1.29289C18.5196 1.10536 18.2652 1 18 1H14C13.7348 1 13.4804 1.10536 13.2929 1.29289C13.1054 1.48043 13 1.73478 13 2V7H8C7.73478 7 7.48043 7.10536 7.29289 7.29289C7.10536 7.48043 7 7.73478 7 8V12C7 12.2652 7.10536 12.5196 7.29289 12.7071C7.48043 12.8946 7.73478 13 8 13H13V18C13 18.2652 13.1054 18.5196 13.2929 18.7071C13.4804 18.8946 13.7348 19 14 19H18C18.2652 19 18.5196 18.8946 18.7071 18.7071C18.8946 18.5196 19 18.2652 19 18V13H24C24.2652 13 24.5196 12.8946 24.7071 12.7071C24.8946 12.5196 25 12.2652 25 12V8Z" stroke="#394762" stroke-width="1.7" stroke-linecap="round" stroke-linejoin="round"/>
<path d="M5 31L2.31467 27.8253C1.46364 26.7615 1 25.4397 1 24.0773V17.1827C1 16.6522 1.21071 16.1435 1.58579 15.7685C1.96086 15.3934 2.46957 15.1827 3 15.1827V15.1827C3.53043 15.1827 4.03914 15.3934 4.41421 15.7685C4.78929 16.1435 5 16.6522 5 17.1827V22.1827" stroke="#394762" stroke-width="1.7" stroke-linecap="round" stroke-linejoin="round"/>
<path d="M11 31V27C11.0005 25.8135 10.6493 24.6536 9.99066 23.6667L8.46799 21.3867C8.33752 21.1706 8.16457 20.9832 7.95961 20.8358C7.75464 20.6885 7.52192 20.5842 7.27551 20.5294C7.0291 20.4745 6.77413 20.4703 6.52602 20.5168C6.2779 20.5633 6.0418 20.6596 5.83199 20.8V20.8C5.4551 21.0525 5.18307 21.4337 5.06676 21.8722C4.95045 22.3107 4.99781 22.7766 5.19999 23.1827L7.00266 26.1827" stroke="#394762" stroke-width="1.7" stroke-linecap="round" stroke-linejoin="round"/>
<path d="M27 31L29.6853 27.8253C30.5364 26.7615 31 25.4397 31 24.0773V17.1827C31 16.6522 30.7893 16.1435 30.4142 15.7685C30.0391 15.3934 29.5304 15.1827 29 15.1827C28.4696 15.1827 27.9609 15.3934 27.5858 15.7685C27.2107 16.1435 27 16.6522 27 17.1827V22.1827" stroke="#394762" stroke-width="1.7" stroke-linecap="round" stroke-linejoin="round"/>
<path d="M21 31V27C20.9995 25.8135 21.3507 24.6536 22.0093 23.6667L23.532 21.384C23.662 21.1675 23.8347 20.9796 24.0394 20.8317C24.2442 20.6838 24.4768 20.579 24.7233 20.5237C24.9697 20.4684 25.2248 20.4636 25.4731 20.5097C25.7215 20.5558 25.9579 20.6519 26.168 20.792V20.792C26.5467 21.0443 26.8201 21.4262 26.937 21.866C27.0539 22.3057 27.0061 22.773 26.8027 23.18L25 26.18" stroke="#394762" stroke-width="1.7" stroke-linecap="round" stroke-linejoin="round"/>
</svg>
