<?xml version="1.0" encoding="UTF-8"?>
<svg width="32px" height="32px" viewBox="0 0 32 32" version="1.1" xmlns="http://www.w3.org/2000/svg" xmlns:xlink="http://www.w3.org/1999/xlink">
    <title>Icon/Decorative/32px/Hospitality</title>
    <defs>
        <filter id="filter-1">
            <feColorMatrix in="SourceGraphic" type="matrix" values="0 0 0 0 0.223529 0 0 0 0 0.278431 0 0 0 0 0.384314 0 0 0 1.000000 0"></feColorMatrix>
        </filter>
    </defs>
    <g id="Icon/Decorative/32px/Hospitality" stroke="none" stroke-width="1" fill="none" fill-rule="evenodd" stroke-linecap="round" stroke-linejoin="round">
        <g filter="url(#filter-1)" id="Hospitality">
            <g transform="translate(1.000000, 1.000000)">
                <path d="M17.5549242,18.5823864 C17.0341772,14.448052 13.5021003,11.3574848 9.33522727,11.3901515 C5.05549906,11.3566454 1.46622441,14.6127962 1.08402146,18.8755556" id="Path" stroke="#394762" stroke-width="2.05492424"></path>
                <path d="M13.9588068,4.71164773 C13.9588068,7.26518017 11.8887597,9.3352272 9.33522727,9.3352272 C6.78169483,9.3352272 4.71164773,7.26518017 4.71164773,4.71164773 L4.71164773,1.1155303 C4.71164773,0.548078642 5.17165819,0.0880681818 5.73910985,0.0880681818 L12.9313447,0.0880681818 C13.4987964,0.0880681818 13.9588068,0.548078642 13.9588068,1.1155303 L13.9588068,4.71164773 Z" id="Path" stroke="#394762" stroke-width="2.05492424"></path>
                <path d="M30.9119318,30.9119318 L0.0880681818,30.9119318 L0.0880681818,20.6373106 C0.0880681818,19.5024073 1.0080891,18.5823864 2.14299242,18.5823864 L28.8570076,18.5823864 C29.9919109,18.5823864 30.9119318,19.5024073 30.9119318,20.6373106 L30.9119318,30.9119318 Z" id="Path" stroke="#394762" stroke-width="2.05492424"></path>
                <path d="M4.71986742,4.96234848 C6.20424432,4.44924653 7.76468671,4.19079391 9.33522727,4.19791667 C10.9082308,4.19079631 12.4710755,4.45018964 13.9574369,4.96508838" id="Path" stroke="#394762" stroke-width="2.05492424"></path>
                <path d="M19.6098485,18.5823864 C19.658792,16.747002 20.6831836,15.077148 22.2971449,14.2018423 C23.9111061,13.3265365 25.8694379,13.3787586 27.4344555,14.3388372 C28.9994732,15.2989158 29.9334133,17.0209919 29.8844697,18.8563763" id="Path" stroke="#394762" stroke-width="2.05492424"></path>
                <line x1="24.7471591" y1="13.4450758" x2="24.7471591" y2="10.3626894" id="Path" stroke="#394762" stroke-width="2.05492424"></line>
                <line x1="22.6922348" y1="10.3626894" x2="26.8020833" y2="10.3626894" id="Path" stroke="#394762" stroke-width="2.05492424"></line>
            </g>
        </g>
    </g>
</svg>