<svg width="32" height="32" viewBox="0 0 32 32" fill="none" xmlns="http://www.w3.org/2000/svg">
<g clip-path="url(#clip0)">
<path d="M12.6653 13.9987C12.6653 14.6991 12.8033 15.3926 13.0713 16.0397C13.3393 16.6867 13.7322 17.2747 14.2274 17.7699C14.7227 18.2652 15.3106 18.658 15.9577 18.926C16.6047 19.1941 17.2983 19.332 17.9986 19.332C18.699 19.332 19.3926 19.1941 20.0396 18.926C20.6867 18.658 21.2746 18.2652 21.7699 17.7699C22.2651 17.2747 22.658 16.6867 22.926 16.0397C23.194 15.3926 23.332 14.6991 23.332 13.9987C23.332 13.2983 23.194 12.6048 22.926 11.9577C22.658 11.3106 22.2651 10.7227 21.7699 10.2274C21.2746 9.7322 20.6867 9.33934 20.0396 9.07132C19.3926 8.80329 18.699 8.66534 17.9986 8.66534C17.2983 8.66534 16.6047 8.80329 15.9577 9.07132C15.3106 9.33934 14.7227 9.7322 14.2274 10.2274C13.7322 10.7227 13.3393 11.3106 13.0713 11.9577C12.8033 12.6048 12.6653 13.2983 12.6653 13.9987Z" stroke="#394762" stroke-width="1.7" stroke-linecap="round" stroke-linejoin="round"/>
<path d="M0.666656 7.33203C0.666656 7.59468 0.718388 7.85475 0.818897 8.0974C0.919407 8.34005 1.06673 8.56053 1.25244 8.74624C1.43816 8.93196 1.65864 9.07928 1.90129 9.17979C2.14394 9.2803 2.40401 9.33203 2.66666 9.33203C2.9293 9.33203 3.18937 9.2803 3.43202 9.17979C3.67467 9.07928 3.89515 8.93196 4.08087 8.74624C4.26659 8.56053 4.41391 8.34005 4.51442 8.0974C4.61492 7.85475 4.66666 7.59468 4.66666 7.33203C4.66666 7.06939 4.61492 6.80932 4.51442 6.56666C4.41391 6.32401 4.26659 6.10353 4.08087 5.91782C3.89515 5.7321 3.67467 5.58478 3.43202 5.48427C3.18937 5.38376 2.9293 5.33203 2.66666 5.33203C2.40401 5.33203 2.14394 5.38376 1.90129 5.48427C1.65864 5.58478 1.43816 5.7321 1.25244 5.91782C1.06673 6.10353 0.919407 6.32401 0.818897 6.56666C0.718388 6.80932 0.666656 7.06939 0.666656 7.33203V7.33203Z" stroke="#394762" stroke-width="1.7" stroke-linecap="round" stroke-linejoin="round"/>
<path d="M27.3333 2.66534C27.3333 3.19578 27.544 3.70449 27.9191 4.07956C28.2942 4.45463 28.8029 4.66534 29.3333 4.66534C29.8638 4.66534 30.3725 4.45463 30.7475 4.07956C31.1226 3.70449 31.3333 3.19578 31.3333 2.66534C31.3333 2.13491 31.1226 1.6262 30.7475 1.25113C30.3725 0.876058 29.8638 0.665344 29.3333 0.665344C28.8029 0.665344 28.2942 0.876058 27.9191 1.25113C27.544 1.6262 27.3333 2.13491 27.3333 2.66534V2.66534Z" stroke="#394762" stroke-width="1.7" stroke-linecap="round" stroke-linejoin="round"/>
<path d="M0.666656 29.332C0.666656 29.5947 0.718388 29.8547 0.818897 30.0974C0.919407 30.34 1.06673 30.5605 1.25244 30.7462C1.43816 30.932 1.65864 31.0793 1.90129 31.1798C2.14394 31.2803 2.40401 31.332 2.66666 31.332C2.9293 31.332 3.18937 31.2803 3.43202 31.1798C3.67467 31.0793 3.89515 30.932 4.08087 30.7462C4.26659 30.5605 4.41391 30.34 4.51442 30.0974C4.61492 29.8547 4.66666 29.5947 4.66666 29.332C4.66666 29.0694 4.61492 28.8093 4.51442 28.5667C4.41391 28.324 4.26659 28.1035 4.08087 27.9178C3.89515 27.7321 3.67467 27.5848 3.43202 27.4843C3.18937 27.3838 2.9293 27.332 2.66666 27.332C2.40401 27.332 2.14394 27.3838 1.90129 27.4843C1.65864 27.5848 1.43816 27.7321 1.25244 27.9178C1.06673 28.1035 0.919407 28.324 0.818897 28.5667C0.718388 28.8093 0.666656 29.0694 0.666656 29.332V29.332Z" stroke="#394762" stroke-width="1.7" stroke-linecap="round" stroke-linejoin="round"/>
<path d="M15.9987 29.332C15.9987 29.5947 16.0504 29.8547 16.1509 30.0974C16.2514 30.34 16.3987 30.5605 16.5844 30.7462C16.7702 30.932 16.9906 31.0793 17.2333 31.1798C17.4759 31.2803 17.736 31.332 17.9987 31.332C18.2613 31.332 18.5214 31.2803 18.764 31.1798C19.0067 31.0793 19.2272 30.932 19.4129 30.7462C19.5986 30.5605 19.7459 30.34 19.8464 30.0974C19.9469 29.8547 19.9987 29.5947 19.9987 29.332C19.9987 29.0694 19.9469 28.8093 19.8464 28.5667C19.7459 28.324 19.5986 28.1035 19.4129 27.9178C19.2272 27.7321 19.0067 27.5848 18.764 27.4843C18.5214 27.3838 18.2613 27.332 17.9987 27.332C17.736 27.332 17.4759 27.3838 17.2333 27.4843C16.9906 27.5848 16.7702 27.7321 16.5844 27.9178C16.3987 28.1035 16.2514 28.324 16.1509 28.5667C16.0504 28.8093 15.9987 29.0694 15.9987 29.332V29.332Z" stroke="#394762" stroke-width="1.7" stroke-linecap="round" stroke-linejoin="round"/>
<path d="M4.07999 27.9173L14.24 17.7827" stroke="#394762" stroke-width="1.7" stroke-linecap="round" stroke-linejoin="round"/>
<path d="M21.7773 10.2347L27.9173 4.08002" stroke="#394762" stroke-width="1.7" stroke-linecap="round" stroke-linejoin="round"/>
<path d="M4.46664 8.19867L13.096 11.8987" stroke="#394762" stroke-width="1.7" stroke-linecap="round" stroke-linejoin="round"/>
<path d="M27.416 18.704L22.592 16.7107" stroke="#394762" stroke-width="1.7" stroke-linecap="round" stroke-linejoin="round"/>
<path d="M17.9987 27.332V19.332" stroke="#394762" stroke-width="1.7" stroke-linecap="round" stroke-linejoin="round"/>
<path d="M27.3333 19.332C27.3333 19.8625 27.544 20.3712 27.9191 20.7462C28.2942 21.1213 28.8029 21.332 29.3333 21.332C29.8638 21.332 30.3725 21.1213 30.7475 20.7462C31.1226 20.3712 31.3333 19.8625 31.3333 19.332C31.3333 18.8016 31.1226 18.2929 30.7475 17.9178C30.3725 17.5427 29.8638 17.332 29.3333 17.332C28.8029 17.332 28.2942 17.5427 27.9191 17.9178C27.544 18.2929 27.3333 18.8016 27.3333 19.332V19.332Z" stroke="#394762" stroke-width="1.7" stroke-linecap="round" stroke-linejoin="round"/>
</g>
<defs>
<clipPath id="clip0">
<rect width="32" height="32" fill="white"/>
</clipPath>
</defs>
</svg>
