<?xml version="1.0" encoding="UTF-8"?>
<svg width="32px" height="32px" viewBox="0 0 32 32" version="1.1" xmlns="http://www.w3.org/2000/svg" xmlns:xlink="http://www.w3.org/1999/xlink">
    <title>Icon/Decorative/32px/Integration</title>
    <defs>
        <filter id="filter-1">
            <feColorMatrix in="SourceGraphic" type="matrix" values="0 0 0 0 0.223529 0 0 0 0 0.278431 0 0 0 0 0.384314 0 0 0 1.000000 0"></feColorMatrix>
        </filter>
    </defs>
    <g id="Icon/Decorative/32px/Integration" stroke="none" stroke-width="1" fill="none" fill-rule="evenodd" stroke-linecap="round" stroke-linejoin="round">
        <g filter="url(#filter-1)" id="Integration">
            <g transform="translate(1.000000, 1.000000)">
                <path d="M11.87375,13.1237499 C11.87375,14.910078 12.8267446,16.5607131 14.37375,17.4538771 C15.9207554,18.3470411 17.8267446,18.3470411 19.37375,17.4538771 C20.9207554,16.5607131 21.87375,14.910078 21.87375,13.1237499 C21.87375,11.337422 20.9207554,9.68678689 19.37375,8.79362289 C17.8267446,7.9004589 15.9207554,7.9004589 14.37375,8.79362289 C12.8267446,9.68678689 11.87375,11.337422 11.87375,13.1237499 L11.87375,13.1237499 Z" id="Path" stroke="#394762" stroke-width="1.875"></path>
                <path d="M0.625,6.87375 C0.625,7.54362299 0.982372969,8.16261116 1.56249999,8.49754766 C2.14262701,8.83248415 2.85737299,8.83248415 3.43750001,8.49754766 C4.01762703,8.16261116 4.375,7.54362299 4.375,6.87375 C4.375,6.20387701 4.01762703,5.58488884 3.43750001,5.24995234 C2.85737299,4.91501585 2.14262701,4.91501585 1.56249999,5.24995234 C0.982372969,5.58488884 0.625,6.20387701 0.625,6.87375 L0.625,6.87375 Z" id="Path" stroke="#394762" stroke-width="1.875"></path>
                <path d="M25.625,2.49875 C25.625,3.53428391 26.4644661,4.37375 27.5,4.37375 C28.5355339,4.37375 29.375,3.53428391 29.375,2.49875 C29.375,1.46321609 28.5355339,0.62375 27.5,0.62375 C26.4644661,0.62375 25.625,1.46321609 25.625,2.49875 Z" id="Path" stroke="#394762" stroke-width="1.875"></path>
                <path d="M0.625,27.49875 C0.625,28.168623 0.982372969,28.7876112 1.56249999,29.1225477 C2.14262701,29.4574842 2.85737299,29.4574842 3.43750001,29.1225477 C4.01762703,28.7876112 4.375,28.168623 4.375,27.49875 C4.375,26.828877 4.01762703,26.2098888 3.43750001,25.8749523 C2.85737299,25.5400158 2.14262701,25.5400158 1.56249999,25.8749523 C0.982372969,26.2098888 0.625,26.828877 0.625,27.49875 Z" id="Path" stroke="#394762" stroke-width="1.875"></path>
                <path d="M14.99875,27.49875 C14.99875,28.168623 15.356123,28.7876112 15.93625,29.1225477 C16.516377,29.4574842 17.231123,29.4574842 17.81125,29.1225477 C18.391377,28.7876112 18.74875,28.168623 18.74875,27.49875 C18.74875,26.828877 18.391377,26.2098888 17.81125,25.8749523 C17.231123,25.5400158 16.516377,25.5400158 15.93625,25.8749523 C15.356123,26.2098888 14.99875,26.828877 14.99875,27.49875 L14.99875,27.49875 Z" id="Path" stroke="#394762" stroke-width="1.875"></path>
                <line x1="3.825" y1="26.1725" x2="13.35" y2="16.67125" id="Path" stroke="#394762" stroke-width="1.875"></line>
                <line x1="20.41625" y1="9.595" x2="26.1725" y2="3.825" id="Path" stroke="#394762" stroke-width="1.875"></line>
                <line x1="4.1875" y1="7.68625" x2="12.2775" y2="11.155" id="Path" stroke="#394762" stroke-width="1.875"></line>
                <line x1="25.7025" y1="17.535" x2="21.18" y2="15.66625" id="Path" stroke="#394762" stroke-width="1.875"></line>
                <line x1="16.87375" y1="25.62375" x2="16.87375" y2="18.12375" id="Path" stroke="#394762" stroke-width="1.875"></line>
                <path d="M25.625,18.12375 C25.625,19.1592839 26.4644661,19.99875 27.5,19.99875 C28.5355339,19.99875 29.375,19.1592839 29.375,18.12375 C29.375,17.0882161 28.5355339,16.24875 27.5,16.24875 C26.4644661,16.24875 25.625,17.0882161 25.625,18.12375 Z" id="Path" stroke="#394762" stroke-width="1.875"></path>
            </g>
        </g>
    </g>
</svg>