<?xml version="1.0" encoding="UTF-8"?>
<svg width="32px" height="32px" viewBox="0 0 32 32" version="1.1" xmlns="http://www.w3.org/2000/svg" xmlns:xlink="http://www.w3.org/1999/xlink">
    <title>Icon/Decorative/32px/IVR</title>
    <defs>
        <filter id="filter-1">
            <feColorMatrix in="SourceGraphic" type="matrix" values="0 0 0 0 0.223529 0 0 0 0 0.278431 0 0 0 0 0.384314 0 0 0 1.000000 0"></feColorMatrix>
        </filter>
    </defs>
    <g id="Icon/Decorative/32px/IVR" stroke="none" stroke-width="1" fill="none" fill-rule="evenodd" stroke-linecap="round" stroke-linejoin="round">
        <g filter="url(#filter-1)" id="IVR">
            <g transform="translate(1.000000, 1.000000)">
                <line x1="11.71875" y1="0" x2="11.71875" y2="14.0625" id="Path" stroke="#394762" stroke-width="1.95652174"></line>
                <line x1="15.46875" y1="0" x2="15.46875" y2="12.1875" id="Path" stroke="#394762" stroke-width="1.95652174"></line>
                <line x1="27.65625" y1="0" x2="27.65625" y2="10.3125" id="Path" stroke="#394762" stroke-width="1.95652174"></line>
                <line x1="23.90625" y1="6.5625" x2="23.90625" y2="10.3125" id="Path" stroke="#394762" stroke-width="1.95652174"></line>
                <line x1="7.96875" y1="4.6875" x2="7.96875" y2="14.0625" id="Path" stroke="#394762" stroke-width="1.95652174"></line>
                <line x1="20.15625" y1="4.6875" x2="20.15625" y2="10.3125" id="Path" stroke="#394762" stroke-width="1.95652174"></line>
                <path d="M22.03125,14.0625 C26.4326563,14.0625 30,17.6298437 30,22.03125 C30,26.4326563 26.4326563,30 22.03125,30 C17.6298437,30 14.0625,26.4326563 14.0625,22.03125 C14.0625,17.6298437 17.6298437,14.0625 22.03125,14.0625 Z" id="Path" stroke="#394762" stroke-width="1.95652174"></path>
                <path d="M25.3125,19.6875 L21.3768967,24.9084673 C21.0395592,25.3559018 20.4014632,25.4448496 19.9516799,25.1092738 C19.9137464,25.0809722 19.8771676,25.0499752 19.8446532,25.0162829 L17.8125,22.9947416" id="Path" stroke="#394762" stroke-width="1.95652174"></path>
                <line x1="0.46875" y1="6.5625" x2="0.46875" y2="12.1875" id="Path" stroke="#394762" stroke-width="1.95652174"></line>
                <line x1="4.21875" y1="0" x2="4.21875" y2="17.8125" id="Path" stroke="#394762" stroke-width="1.95652174"></line>
            </g>
        </g>
    </g>
</svg>