<?xml version="1.0" encoding="UTF-8"?>
<svg width="32px" height="32px" viewBox="0 0 32 32" version="1.1" xmlns="http://www.w3.org/2000/svg" xmlns:xlink="http://www.w3.org/1999/xlink">
    <title>Icon/Decorative/32px/Megaphone</title>
    <defs>
        <filter id="filter-1">
            <feColorMatrix in="SourceGraphic" type="matrix" values="0 0 0 0 0.223529 0 0 0 0 0.278431 0 0 0 0 0.384314 0 0 0 1.000000 0"></feColorMatrix>
        </filter>
    </defs>
    <g id="Icon/Decorative/32px/Megaphone" stroke="none" stroke-width="1" fill="none" fill-rule="evenodd" stroke-linecap="round" stroke-linejoin="round">
        <g filter="url(#filter-1)" id="Megaphone">
            <g transform="translate(1.000000, 1.000000)">
                <path d="M3.176,16.0666667 L3.77333333,14.5 L2.37866667,10.8413333 C2.17237327,10.2976565 2.37204325,9.68367134 2.85866667,9.36533333 L6.136,7.22533333 L7.15866667,3.44666667 C7.31089431,2.88521361 7.83366833,2.50561973 8.41466667,2.53466667 L12.324,2.73333333 L15.372,0.273333333 C15.8252791,-0.0921581028 16.4720543,-0.0921581028 16.9253333,0.273333333 L19.9733333,2.73333333 L23.8826667,2.53866667 C24.463665,2.50961973 24.986439,2.88921361 25.1386667,3.45066667 L26.1613333,7.22933333 L29.4386667,9.36933333 C29.9257144,9.68734663 30.1254942,10.3016695 29.9186667,10.8453333 L28.5253333,14.504 L29.9186667,18.1613333 C30.1256783,18.7053895 29.9259251,19.3201856 29.4386667,19.6386667 L26.1613333,21.772 L25.1333333,25.552 C24.9820683,26.114289 24.45887,26.4947464 23.8773333,26.4653333 L19.968,26.2706667 L16.92,28.7253333" id="Path" stroke="#394762" stroke-width="2"></path>
                <line x1="0" y1="25.3586667" x2="2.208" y2="28.8373333" id="Path" stroke="#394762" stroke-width="2"></line>
                <line x1="12.2106667" y1="9.86266667" x2="20.6026667" y2="23.084" id="Path" stroke="#394762" stroke-width="2"></line>
                <polygon id="Path" stroke="#394762" stroke-width="2" points="20.1613333 22.388 1.76666667 28.1426667 0.441333333 26.0546667 12.652 10.5586667"></polygon>
                <path d="M5.74133333,26.8986667 L6.90933333,28.6933333 C7.29966027,29.3332403 7.93664291,29.7838174 8.67000929,29.9387682 C9.40337566,30.093719 10.1681816,29.9393215 10.784,29.512 C12.0771637,28.5813725 12.4203909,26.8038413 11.5666667,25.4586667 L11.3493333,25.144" id="Path" stroke="#394762" stroke-width="2"></path>
            </g>
        </g>
    </g>
</svg>