<?xml version="1.0" encoding="UTF-8"?>
<svg width="32px" height="32px" viewBox="0 0 32 32" version="1.1" xmlns="http://www.w3.org/2000/svg" xmlns:xlink="http://www.w3.org/1999/xlink">
    <title>Icon/Decorative/32px/MessageBubble</title>
    <g id="Icon/Decorative/32px/MessageBubble" stroke="none" stroke-width="1" fill="none" fill-rule="evenodd">
        <path d="M21.9976587,22.0215703 C21.4428874,22.0215703 20.9925436,22.4672089 20.9925436,23.0151076 C20.9925436,23.5640827 21.4428874,24.0097213 21.9976587,24.0097213 L25.9963638,24.0097213 C26.5511351,24.0097213 27.0003912,23.5640827 27.0003912,23.0151076 C27.0003912,22.4672089 26.5511351,22.0215703 25.9963638,22.0215703 L21.9976587,22.0215703 Z M21.9976587,18.0269692 C21.4428874,18.0269692 20.9925436,18.4715314 20.9925436,19.0205065 C20.9925436,19.5694815 21.4428874,20.0140437 21.9976587,20.0140437 L25.9963638,20.0140437 C26.5511351,20.0140437 27.0003912,19.5694815 27.0003912,19.0205065 C27.0003912,18.4715314 26.5511351,18.0269692 25.9963638,18.0269692 L21.9976587,18.0269692 Z M28.1752011,16.791237 C27.0221469,15.6491535 25.494894,15.0205232 23.8730035,15.0205232 C23.8621257,15.0205232 23.8490722,15.0194468 23.8392821,15.0205232 C23.3726215,15.0205232 22.9113998,15.0721914 22.4621438,15.1755279 C19.1563591,15.9344053 17.0863004,19.2411729 17.8466635,22.5479405 C18.2165111,24.1593439 19.1944316,25.5263996 20.5987647,26.3972248 C21.9835175,27.2562093 23.6217247,27.528544 25.2077182,27.163637 C25.2827755,27.1464143 25.3589206,27.1378029 25.4350657,27.1378029 C25.6210773,27.1378029 25.8049133,27.1894712 25.9659057,27.288502 L28.7310603,28.9914012 L28.2154493,26.0290885 C28.1643233,25.7330725 28.2502584,25.430598 28.4504112,25.2045494 C29.4500875,24.0764594 29.9972444,22.6232901 29.9907176,21.1152232 C29.9831031,19.4779857 29.3380454,17.9419318 28.1752011,16.791237 Z M31.0904703,30.8363881 C31.1568253,31.2228235 30.9893061,31.6114117 30.6607944,31.8299254 C30.4910997,31.9429496 30.2963858,32 30.0994963,32 C29.9167481,32 29.7318243,31.9494082 29.5697441,31.849301 L25.2436152,29.1851571 C23.262755,29.5328413 21.2514369,29.1474823 19.5316456,28.0818248 C17.6715298,26.9279007 16.3770633,25.1184357 15.8875591,22.988197 C14.882444,18.6179247 17.6291061,14.2444231 22.0085366,13.2390452 C22.6187851,13.0991104 23.2551405,13.0259137 23.8740913,13.0323722 C26.0322607,13.0323722 28.0631591,13.8665991 29.595851,15.3854302 C31.1361574,16.9096434 31.9889824,18.9419277 31.9999308,21.1055354 C32.0074747,22.9376052 31.398314,24.7072426 30.2735423,26.13996 L31.0904703,30.8363881 Z M9.00186742,14.0312916 C8.44709605,14.0312916 7.99784002,14.4769302 7.99784002,15.0248289 C7.99784002,15.573804 8.44709605,16.0194426 9.00186742,16.0194426 L13.0005724,16.0194426 C13.554256,16.0194426 14.0045998,15.573804 14.0045998,15.0248289 C14.0045998,14.4769302 13.554256,14.0312916 13.0005724,14.0312916 L9.00186742,14.0312916 Z M9.00186742,8.03885168 C8.44709605,8.03885168 7.99784002,8.48341387 7.99784002,9.03238896 C7.99784002,9.58136406 8.44709605,10.0259262 9.00186742,10.0259262 L18.99863,10.0259262 C19.5534013,10.0259262 20.0026574,9.58136406 20.0026574,9.03238896 C20.0026574,8.48341387 19.5534013,8.03885168 18.99863,8.03885168 L9.00186742,8.03885168 Z M12.8428433,26.1162787 C11.2807812,25.8697781 9.80030308,25.3541721 8.43186703,24.5802248 L1.43957217,27.9063681 C1.30033544,27.9720298 1.15239641,28.0043224 1.00445737,28.0043224 C0.745564066,28.0043224 0.488846334,27.9052916 0.297395821,27.7158414 C-0.00500896576,27.4198254 -0.085505204,26.9666519 0.0961552255,26.586675 L3.43131018,19.5888571 C3.05928702,18.9343927 2.74382879,18.2476356 2.49037442,17.541503 C0.0482925974,10.7395939 3.6053561,3.21863505 10.4181661,0.777310507 C13.7043706,-0.400294895 17.257083,-0.235602366 20.4214554,1.24232471 C23.615198,2.73532168 26.0289974,5.38224279 27.2190364,8.69654538 C27.4039601,9.21322782 27.1309256,9.78157851 26.6077001,9.96564663 C26.0844745,10.1475619 25.5112108,9.87845647 25.3251992,9.36177402 C24.3168206,6.54908397 22.2696055,4.30474461 19.5631914,3.03994904 C16.8861476,1.79022338 13.8816799,1.64921213 11.1023841,2.64597868 C5.32405956,4.71701414 2.31088956,11.1001952 4.38421159,16.8773507 C4.65071941,17.6222346 4.99989903,18.3412843 5.41978482,19.0140479 C5.59926967,19.3003761 5.61993763,19.6566717 5.47417417,19.9612991 L3.12020309,24.9009985 L8.048966,22.5565519 C8.36007309,22.4080057 8.72774509,22.4284577 9.01927201,22.610373 C10.2887194,23.401543 11.6810868,23.9203783 13.1583016,24.151809 C13.7065462,24.2389991 14.0796571,24.7481466 13.9926342,25.2906632 C13.9056112,25.8321033 13.3954391,26.2045453 12.8428433,26.1162787 Z" id="Message-Bubble" fill="#394762"></path>
    </g>
</svg>