<svg width="32" height="32" viewBox="0 0 32 32" fill="none" xmlns="http://www.w3.org/2000/svg">
<path d="M26.276 8.996C25.7013 7.39335 24.7957 5.92959 23.6182 4.6999C22.4406 3.4702 21.0174 2.50209 19.4412 1.85852C17.8649 1.21495 16.1709 0.910325 14.4691 0.964445C12.7674 1.01856 11.0961 1.43022 9.56395 2.17265C8.03176 2.91508 6.67298 3.97166 5.57595 5.27369C4.47891 6.57573 3.66818 8.09407 3.19647 9.73C2.72475 11.3659 2.60261 13.0828 2.83799 14.7691C3.07337 16.4553 3.661 18.0731 4.56267 19.5173L1 27L8.48267 23.4373C9.86031 24.2959 11.3965 24.8686 13 25.1213" stroke="#394762" stroke-width="1.7" stroke-linecap="round" stroke-linejoin="round"/>
<path d="M9 9H19" stroke="#394762" stroke-width="1.7" stroke-linecap="round" stroke-linejoin="round"/>
<path d="M9 15H13" stroke="#394762" stroke-width="1.7" stroke-linecap="round" stroke-linejoin="round"/>
<path d="M23.8427 14C25.2178 13.9937 26.5654 14.3855 27.7228 15.128C28.8802 15.8705 29.7981 16.9321 30.3656 18.1847C30.9331 19.4373 31.126 20.8273 30.9211 22.1871C30.7162 23.5469 30.1221 24.8183 29.2107 25.848L30.1054 31L25.4387 28.1227C24.457 28.348 23.4389 28.3635 22.4508 28.1681C21.4628 27.9727 20.5272 27.5708 19.7052 26.9888C18.8833 26.4067 18.1935 25.6576 17.6811 24.7905C17.1687 23.9234 16.8452 22.9579 16.7319 21.9571C16.6185 20.9564 16.7178 19.9429 17.0232 18.9832C17.3286 18.0234 17.8333 17.139 18.5042 16.3878C19.1751 15.6366 19.9971 15.0356 20.9164 14.6241C21.8357 14.2127 22.8315 14 23.8387 14H23.8427Z" stroke="#394762" stroke-width="1.7" stroke-linecap="round" stroke-linejoin="round"/>
<path d="M26 19H22" stroke="#394762" stroke-width="1.7" stroke-linecap="round" stroke-linejoin="round"/>
<path d="M26 23H22" stroke="#394762" stroke-width="1.7" stroke-linecap="round" stroke-linejoin="round"/>
</svg>
