<svg width="32" height="32" viewBox="0 0 32 32" fill="none" xmlns="http://www.w3.org/2000/svg">
<path d="M23 27C22.9011 27 22.8044 27.0293 22.7222 27.0843C22.64 27.1392 22.5759 27.2173 22.5381 27.3087C22.5002 27.4 22.4903 27.5006 22.5096 27.5975C22.5289 27.6945 22.5765 27.7836 22.6464 27.8536C22.7164 27.9235 22.8055 27.9711 22.9025 27.9904C22.9994 28.0097 23.1 27.9998 23.1913 27.9619C23.2827 27.9241 23.3608 27.86 23.4157 27.7778C23.4707 27.6956 23.5 27.5989 23.5 27.5C23.5002 27.4343 23.4874 27.3692 23.4623 27.3085C23.4372 27.2477 23.4004 27.1925 23.3539 27.1461C23.3075 27.0996 23.2523 27.0628 23.1915 27.0377C23.1308 27.0126 23.0657 26.9998 23 27" stroke="#394762" stroke-width="1.7" stroke-linecap="round" stroke-linejoin="round"/>
<path d="M23 24V20" stroke="#394762" stroke-width="1.7" stroke-linecap="round" stroke-linejoin="round"/>
<path d="M30.7494 27.576C30.9299 27.9367 31.0152 28.3375 30.9971 28.7405C30.9791 29.1434 30.8583 29.535 30.6463 29.8781C30.4342 30.2212 30.138 30.5044 29.7857 30.7008C29.4334 30.8971 29.0367 31.0001 28.6334 31H17.3654C16.962 31.0001 16.5653 30.8971 16.213 30.7008C15.8607 30.5044 15.5645 30.2212 15.3524 29.8781C15.1404 29.535 15.0196 29.1434 15.0016 28.7405C14.9835 28.3375 15.0688 27.9367 15.2494 27.576L20.884 16.3066C21.0805 15.9139 21.3825 15.5836 21.7561 15.3528C22.1297 15.122 22.5602 14.9997 22.9994 14.9997C23.4385 14.9997 23.869 15.122 24.2426 15.3528C24.6162 15.5836 24.9182 15.9139 25.1147 16.3066L30.7494 27.576Z" stroke="#394762" stroke-width="1.7" stroke-linecap="round" stroke-linejoin="round"/>
<path d="M4.5 6.5C4.5 7.95869 5.07946 9.35764 6.11091 10.3891C7.14236 11.4205 8.54131 12 10 12C11.4587 12 12.8576 11.4205 13.8891 10.3891C14.9205 9.35764 15.5 7.95869 15.5 6.5C15.5 5.04131 14.9205 3.64236 13.8891 2.61091C12.8576 1.57946 11.4587 1 10 1C8.54131 1 7.14236 1.57946 6.11091 2.61091C5.07946 3.64236 4.5 5.04131 4.5 6.5V6.5Z" stroke="#394762" stroke-width="1.7" stroke-linecap="round" stroke-linejoin="round"/>
<path d="M16.28 16.5667C15.0146 15.3279 13.4116 14.4905 11.6721 14.1593C9.93255 13.8281 8.13396 14.018 6.50194 14.7052C4.86991 15.3923 3.47714 16.5461 2.49834 18.0217C1.51954 19.4974 0.998297 21.2292 1 23" stroke="#394762" stroke-width="1.7" stroke-linecap="round" stroke-linejoin="round"/>
</svg>
