<?xml version="1.0" encoding="UTF-8"?>
<svg width="32px" height="32px" viewBox="0 0 32 32" version="1.1" xmlns="http://www.w3.org/2000/svg" xmlns:xlink="http://www.w3.org/1999/xlink">
    <title>Icon/Decorative/32px/Omnichannel</title>
    <g id="Icon/Decorative/32px/Omnichannel" stroke="none" stroke-width="1" fill="none" fill-rule="evenodd">
        <path d="M24,5.99946484 C24,6.69838382 24.2996656,7.39837311 24.7994649,7.99882265 C25.4983278,8.79835171 26.203612,9.79803061 26.6017391,10.9989297 L27.300602,10.9989297 C27.7019398,9.99925078 29.2002676,7.99882265 29.2002676,7.99882265 C29.7000669,7.39837311 30.0008027,6.69838382 30.0008027,5.99946484 C30.0008027,4.29872632 28.7015385,2.99828749 27.0009365,2.99828749 C25.2992642,2.99828749 24,4.29872632 24,5.99946484 L24,5.99946484 Z M23.3011371,9.29819116 C22.5016722,8.40019266 22.0008027,7.19822327 22.0008027,5.99946484 C22.0008027,3.19843733 24.201204,1 27.0009365,1 C29.7985284,1 32,3.19843733 32,5.99946484 C32,7.19822327 31.5002007,8.40019266 30.7028763,9.29819116 C29.9002007,10.3984801 28.9990635,11.4987691 28.9990635,13.0004281 L24.9995987,13.0004281 C24.9995987,11.4987691 24.201204,10.3984801 23.3011371,9.29819116 L23.3011371,9.29819116 Z M24.9995987,16.9991437 L28.9990635,16.9991437 L28.9990635,14.9997859 L24.9995987,14.9997859 L24.9995987,16.9991437 Z M6.00187291,13.0004281 L18.0013378,13.0004281 L18.0013378,11.0010703 L6.00187291,11.0010703 L6.00187291,13.0004281 Z M30.0008027,29.0017125 L1.99919732,29.0017125 L1.99919732,6.99914374 L16.9995987,6.99914374 L16.9995987,4.99978594 L0,4.99978594 L0,31 L32,31 L32,22.9993578 L30.0008027,22.9993578 L30.0008027,29.0017125 Z M6.00187291,18.9995719 L20.0005351,18.9995719 L20.0005351,17.0002141 L6.00187291,17.0002141 L6.00187291,18.9995719 Z M6.00187291,24.9993578 L26.0013378,24.9993578 L26.0013378,22.9993578 L6.00187291,22.9993578 L6.00187291,24.9993578 Z" id="Omnichannel" fill="#394762"></path>
    </g>
</svg>