<?xml version="1.0" encoding="UTF-8"?>
<svg width="32px" height="32px" viewBox="0 0 32 32" version="1.1" xmlns="http://www.w3.org/2000/svg" xmlns:xlink="http://www.w3.org/1999/xlink">
    <title>Icon/Decorative/32px/Password</title>
    <defs>
        <filter id="filter-1">
            <feColorMatrix in="SourceGraphic" type="matrix" values="0 0 0 0 0.223529 0 0 0 0 0.278431 0 0 0 0 0.384314 0 0 0 1.000000 0"></feColorMatrix>
        </filter>
    </defs>
    <g id="Icon/Decorative/32px/Password" stroke="none" stroke-width="1" fill="none" fill-rule="evenodd" stroke-linecap="round" stroke-linejoin="round">
        <g filter="url(#filter-1)" id="Password">
            <g transform="translate(1.000000, 1.000000)">
                <path d="M11,16 L2,16 C0.8954305,16 0,15.1045695 0,14 L0,2 C0,0.8954305 0.8954305,0 2,0 L26,0 C27.1045695,0 28,0.8954305 28,2 L28,10" id="Path" stroke="#394762" stroke-width="2"></path>
                <path d="M30,22 C30,26.418278 26.418278,30 22,30 C17.581722,30 14,26.418278 14,22 C14,17.581722 17.581722,14 22,14" id="Path" stroke="#394762" stroke-width="2"></path>
                <path d="M30,15.9986667 L22.7066667,23.292 C22.5193396,23.479594 22.2651093,23.5850057 22,23.5850057 C21.7348907,23.5850057 21.4806604,23.479594 21.2933333,23.292 L19,21" id="Path" stroke="#394762" stroke-width="2"></path>
                <path d="M6,7.5 C6.27614237,7.5 6.5,7.72385763 6.5,8 C6.5,8.27614237 6.27614237,8.5 6,8.5 C5.72385763,8.5 5.5,8.27614237 5.5,8 C5.49964467,7.86728314 5.55220897,7.73989962 5.6460543,7.6460543 C5.73989962,7.55220897 5.86728314,7.49964467 6,7.5" id="Path" stroke="#394762" stroke-width="2"></path>
                <path d="M14,7.5 C14.2761424,7.5 14.5,7.72385763 14.5,8 C14.5,8.27614237 14.2761424,8.5 14,8.5 C13.7238576,8.5 13.5,8.27614237 13.5,8 C13.4996447,7.86728314 13.552209,7.73989962 13.6460543,7.6460543 C13.7398996,7.55220897 13.8672831,7.49964467 14,7.5" id="Path" stroke="#394762" stroke-width="2"></path>
                <path d="M22,7.5 C22.2761424,7.5 22.5,7.72385763 22.5,8 C22.5,8.27614237 22.2761424,8.5 22,8.5 C21.7238576,8.5 21.5,8.27614237 21.5,8 C21.4996447,7.86728314 21.552209,7.73989962 21.6460543,7.6460543 C21.7398996,7.55220897 21.8672831,7.49964467 22,7.5" id="Path" stroke="#394762" stroke-width="2"></path>
            </g>
        </g>
    </g>
</svg>