<svg width="32" height="32" viewBox="0 0 32 32" fill="none" xmlns="http://www.w3.org/2000/svg">
<path d="M12 17H3C2.46957 17 1.96086 16.7893 1.58579 16.4142C1.21071 16.0391 1 15.5304 1 15V3C1 2.46957 1.21071 1.96086 1.58579 1.58579C1.96086 1.21071 2.46957 1 3 1H27C27.5304 1 28.0391 1.21071 28.4142 1.58579C28.7893 1.96086 29 2.46957 29 3V11" stroke="#394762" stroke-width="1.7" stroke-linecap="round" stroke-linejoin="round"/>
<path d="M31 23C31 24.5823 30.5308 26.129 29.6518 27.4446C28.7727 28.7602 27.5233 29.7855 26.0615 30.391C24.5997 30.9965 22.9911 31.155 21.4393 30.8463C19.8874 30.5376 18.462 29.7757 17.3431 28.6569C16.2243 27.538 15.4624 26.1126 15.1537 24.5607C14.845 23.0089 15.0035 21.4003 15.609 19.9385C16.2145 18.4767 17.2398 17.2273 18.5554 16.3482C19.871 15.4692 21.4178 15 23 15" stroke="#394762" stroke-width="1.7" stroke-linecap="round" stroke-linejoin="round"/>
<path d="M31 16.9987L23.7067 24.292C23.6139 24.3849 23.5038 24.4586 23.3825 24.5088C23.2612 24.5591 23.1313 24.585 23 24.585C22.8687 24.585 22.7388 24.5591 22.6175 24.5088C22.4962 24.4586 22.3861 24.3849 22.2933 24.292L20 22" stroke="#394762" stroke-width="1.7" stroke-linecap="round" stroke-linejoin="round"/>
<path d="M7 8.5C7.09889 8.5 7.19556 8.52933 7.27779 8.58427C7.36001 8.63921 7.4241 8.7173 7.46194 8.80866C7.49979 8.90002 7.50969 9.00056 7.49039 9.09755C7.4711 9.19454 7.42348 9.28363 7.35355 9.35355C7.28363 9.42348 7.19454 9.4711 7.09755 9.49039C7.00056 9.50969 6.90002 9.49979 6.80866 9.46194C6.7173 9.4241 6.63921 9.36001 6.58427 9.27779C6.52933 9.19556 6.5 9.09889 6.5 9C6.49983 8.93429 6.51264 8.86919 6.5377 8.80845C6.56277 8.74771 6.59959 8.69252 6.64606 8.64606C6.69252 8.59959 6.74771 8.56277 6.80845 8.5377C6.86919 8.51264 6.93429 8.49983 7 8.5" stroke="#394762" stroke-width="1.7" stroke-linecap="round" stroke-linejoin="round"/>
<path d="M15 8.5C15.0989 8.5 15.1956 8.52933 15.2778 8.58427C15.36 8.63921 15.4241 8.7173 15.4619 8.80866C15.4998 8.90002 15.5097 9.00056 15.4904 9.09755C15.4711 9.19454 15.4235 9.28363 15.3536 9.35355C15.2836 9.42348 15.1945 9.4711 15.0975 9.49039C15.0006 9.50969 14.9 9.49979 14.8087 9.46194C14.7173 9.4241 14.6392 9.36001 14.5843 9.27779C14.5293 9.19556 14.5 9.09889 14.5 9C14.4998 8.93429 14.5126 8.86919 14.5377 8.80845C14.5628 8.74771 14.5996 8.69252 14.6461 8.64606C14.6925 8.59959 14.7477 8.56277 14.8085 8.5377C14.8692 8.51264 14.9343 8.49983 15 8.5" stroke="#394762" stroke-width="1.7" stroke-linecap="round" stroke-linejoin="round"/>
<path d="M23 8.5C23.0989 8.5 23.1956 8.52933 23.2778 8.58427C23.36 8.63921 23.4241 8.7173 23.4619 8.80866C23.4998 8.90002 23.5097 9.00056 23.4904 9.09755C23.4711 9.19454 23.4235 9.28363 23.3536 9.35355C23.2836 9.42348 23.1945 9.4711 23.0975 9.49039C23.0006 9.50969 22.9 9.49979 22.8087 9.46194C22.7173 9.4241 22.6392 9.36001 22.5843 9.27779C22.5293 9.19556 22.5 9.09889 22.5 9C22.4998 8.93429 22.5126 8.86919 22.5377 8.80845C22.5628 8.74771 22.5996 8.69252 22.6461 8.64606C22.6925 8.59959 22.7477 8.56277 22.8085 8.5377C22.8692 8.51264 22.9343 8.49983 23 8.5" stroke="#394762" stroke-width="1.7" stroke-linecap="round" stroke-linejoin="round"/>
</svg>
