<svg width="32" height="32" viewBox="0 0 32 32" fill="none" xmlns="http://www.w3.org/2000/svg">
<path d="M28 31H7C6.20435 31 5.44129 30.6839 4.87868 30.1213C4.31607 29.5587 4 28.7956 4 28" stroke="#394762" stroke-width="1.7" stroke-linecap="round" stroke-linejoin="round"/>
<path d="M8 1C6.93913 1 5.92172 1.42143 5.17157 2.17157C4.42143 2.92172 4 3.93913 4 5V28C4 27.2044 4.31607 26.4413 4.87868 25.8787C5.44129 25.3161 6.20435 25 7 25H27C27.2652 25 27.5196 24.8946 27.7071 24.7071C27.8946 24.5196 28 24.2652 28 24V2C28 1.73478 27.8946 1.48043 27.7071 1.29289C27.5196 1.10536 27.2652 1 27 1H8Z" stroke="#394762" stroke-width="1.7" stroke-linecap="round" stroke-linejoin="round"/>
<path d="M26 31V25" stroke="#394762" stroke-width="1.7" stroke-linecap="round" stroke-linejoin="round"/>
<path d="M15.664 18.2413L18.8787 15.0667C19.2537 14.6917 19.7623 14.4811 20.2927 14.4811C20.823 14.4811 21.3316 14.6917 21.7067 15.0667L22.4147 15.7747C22.7896 16.1497 23.0002 16.6583 23.0002 17.1887C23.0002 17.719 22.7896 18.2276 22.4147 18.6027L21.8013 19.216C21.5578 19.4616 21.2547 19.6399 20.9217 19.7333C20.5887 19.8268 20.2371 19.8323 19.9013 19.7493L18.7387 19.4587C16.5151 18.9035 14.4843 17.7542 12.8637 16.1336C11.2431 14.513 10.0938 12.4823 9.53865 10.2587L9.25332 9.09867C9.16974 8.76365 9.17433 8.4127 9.26662 8.07998C9.35891 7.74726 9.53577 7.4441 9.77999 7.20001L10.3933 6.58667C10.7684 6.21173 11.277 6.0011 11.8073 6.0011C12.3376 6.0011 12.8463 6.21173 13.2213 6.58667L13.9293 7.29334C14.3043 7.66839 14.5149 8.17701 14.5149 8.70734C14.5149 9.23767 14.3043 9.74628 13.9293 10.1213L10.748 13.3213" stroke="#394762" stroke-width="1.7" stroke-linecap="round" stroke-linejoin="round"/>
</svg>
