<svg width="32" height="32" viewBox="0 0 32 32" fill="none" xmlns="http://www.w3.org/2000/svg">
<path d="M27.232 27.428L28.144 26.516C28.3911 26.2689 28.5691 25.9613 28.6604 25.624C28.7516 25.2867 28.7528 24.9313 28.664 24.5933L25.42 12.2667L29.7093 7.97733C30.4135 7.30463 30.8584 6.40548 30.9659 5.43759C31.0734 4.46969 30.8367 3.49484 30.2973 2.684C29.9606 2.20884 29.5243 1.81293 29.0187 1.52392C28.5131 1.23492 27.9505 1.05979 27.3703 1.01077C26.79 0.961762 26.206 1.04005 25.6591 1.24016C25.1122 1.44027 24.6156 1.75738 24.204 2.16933L19.764 6.61066L7.44 3.368C7.10183 3.2789 6.74621 3.28002 6.40861 3.37127C6.07101 3.46251 5.76324 3.64068 5.516 3.888L4.604 4.8C4.38906 5.01492 4.22594 5.276 4.12703 5.56342C4.02812 5.85083 3.99602 6.157 4.03316 6.45868C4.07031 6.76035 4.17573 7.0496 4.34141 7.30443C4.50709 7.55926 4.72868 7.77297 4.98933 7.92933L13.4 12.976L7 20.2293L5 20.2587C4.69458 20.2064 4.38119 20.2258 4.08455 20.3153C3.78791 20.4049 3.51614 20.5621 3.29067 20.7747L1.29333 22.604C1.17767 22.7194 1.0921 22.8615 1.04413 23.0177C0.996158 23.1739 0.987246 23.3395 1.01818 23.4999C1.04911 23.6604 1.11894 23.8108 1.22154 23.9379C1.32414 24.0651 1.45639 24.1652 1.60667 24.2293L5.46667 26.4067L8 30.4C8.06458 30.5501 8.16491 30.682 8.29221 30.7844C8.41952 30.8868 8.56994 30.9565 8.73036 30.9874C8.89078 31.0183 9.05633 31.0095 9.21256 30.9617C9.36879 30.9139 9.51096 30.8287 9.62667 30.7133L11.372 29.0493C11.6146 28.8207 11.7962 28.535 11.9003 28.2184C12.0044 27.9017 12.0276 27.564 11.968 27.236L12 25.2293L19.056 18.632L24.1027 27.0427C24.259 27.3033 24.4727 27.5249 24.7276 27.6906C24.9824 27.8563 25.2716 27.9617 25.5733 27.9988C25.875 28.036 26.1812 28.0039 26.4686 27.905C26.756 27.8061 27.0171 27.6429 27.232 27.428Z" stroke="#394762" stroke-width="1.7" stroke-linecap="round" stroke-linejoin="round"/>
</svg>
