<svg width="32" height="32" viewBox="0 0 32 32" fill="none" xmlns="http://www.w3.org/2000/svg">
<path d="M11 26.3334H7C6.46957 26.3334 5.96086 26.1227 5.58579 25.7476C5.21071 25.3725 5 24.8638 5 24.3334V14.3334" stroke="#394762" stroke-width="1.7" stroke-linecap="round" stroke-linejoin="round"/>
<path d="M1 12.3334L12.708 2.42669C13.0691 2.12108 13.5269 1.95337 14 1.95337C14.4731 1.95337 14.9309 2.12108 15.292 2.42669L27 12.3334" stroke="#394762" stroke-width="1.7" stroke-linecap="round" stroke-linejoin="round"/>
<path d="M21 2.33337H25V6.33337" stroke="#394762" stroke-width="1.7" stroke-linecap="round" stroke-linejoin="round"/>
<path d="M23 30.3334L16.1813 23.2201C15.5826 22.6215 15.1874 21.8497 15.0517 21.0141C14.9161 20.1784 15.0468 19.3213 15.4253 18.5641V18.5641C15.7113 17.9924 16.129 17.4968 16.6441 17.1182C17.1591 16.7396 17.7568 16.4887 18.3878 16.3864C19.0188 16.2841 19.6651 16.3331 20.2734 16.5295C20.8817 16.7259 21.4347 17.064 21.8867 17.5161L23 18.6294L24.1133 17.5161C24.5654 17.064 25.1183 16.7259 25.7266 16.5295C26.3349 16.3331 26.9812 16.2841 27.6122 16.3864C28.2432 16.4887 28.8409 16.7396 29.3559 17.1182C29.871 17.4968 30.2887 17.9924 30.5747 18.5641V18.5641C30.9532 19.3213 31.084 20.1784 30.9483 21.0141C30.8126 21.8497 30.4174 22.6215 29.8187 23.2201L23 30.3334Z" stroke="#394762" stroke-width="1.7" stroke-linecap="round" stroke-linejoin="round"/>
</svg>
