<svg width="32" height="32" viewBox="0 0 32 32" fill="none" xmlns="http://www.w3.org/2000/svg">
<path d="M7 18.9973V24.9973H1" stroke="#394762" stroke-width="1.7" stroke-linecap="round" stroke-linejoin="round"/>
<path d="M25 12.9973V6.99731H31" stroke="#394762" stroke-width="1.7" stroke-linecap="round" stroke-linejoin="round"/>
<path d="M25.376 6.99335C27.4449 9.14878 28.7084 11.9509 28.954 14.9285C29.1996 17.9061 28.4124 20.8774 26.7246 23.3427C25.0368 25.808 22.5515 27.6169 19.6868 28.4651C16.822 29.3133 13.7526 29.1491 10.9947 28" stroke="#394762" stroke-width="1.7" stroke-linecap="round" stroke-linejoin="round"/>
<path d="M6.62268 25.0013C4.55825 22.8448 3.29869 20.0436 3.0555 17.0682C2.81231 14.0927 3.60031 11.1242 5.28716 8.6611C6.97402 6.19798 9.45701 4.39027 12.3192 3.54151C15.1814 2.69275 18.2484 2.85465 21.0053 4" stroke="#394762" stroke-width="1.7" stroke-linecap="round" stroke-linejoin="round"/>
</svg>
