<svg width="32" height="32" viewBox="0 0 32 32" fill="none" xmlns="http://www.w3.org/2000/svg">
<path d="M8 25.5H21.228C21.7004 25.5001 22.1576 25.3329 22.5186 25.0281C22.8796 24.7232 23.1209 24.3005 23.2 23.8347L26.716 3.16803C26.7953 2.70249 27.0369 2.28005 27.3978 1.97549C27.7587 1.67094 28.2158 1.50393 28.688 1.50403H30" stroke="#394762" stroke-width="1.7" stroke-linecap="round" stroke-linejoin="round"/>
<path d="M10.5 28.5C10.5989 28.5 10.6956 28.5293 10.7778 28.5843C10.86 28.6392 10.9241 28.7173 10.9619 28.8087C10.9998 28.9 11.0097 29.0006 10.9904 29.0975C10.9711 29.1945 10.9235 29.2836 10.8536 29.3536C10.7836 29.4235 10.6945 29.4711 10.5975 29.4904C10.5006 29.5097 10.4 29.4998 10.3087 29.4619C10.2173 29.4241 10.1392 29.36 10.0843 29.2778C10.0293 29.1956 10 29.0989 10 29C10 28.8674 10.0527 28.7402 10.1464 28.6464C10.2402 28.5527 10.3674 28.5 10.5 28.5Z" stroke="#394762" stroke-width="1.7" stroke-linecap="round" stroke-linejoin="round"/>
<path d="M20.5 28.5C20.5989 28.5 20.6956 28.5293 20.7778 28.5843C20.86 28.6392 20.9241 28.7173 20.9619 28.8087C20.9998 28.9 21.0097 29.0006 20.9904 29.0975C20.9711 29.1945 20.9235 29.2836 20.8536 29.3536C20.7836 29.4235 20.6945 29.4711 20.5975 29.4904C20.5006 29.5097 20.4 29.4998 20.3087 29.4619C20.2173 29.4241 20.1392 29.36 20.0843 29.2778C20.0293 29.1956 20 29.0989 20 29C20 28.8674 20.0527 28.7402 20.1464 28.6464C20.2402 28.5527 20.3674 28.5 20.5 28.5" stroke="#394762" stroke-width="1.7" stroke-linecap="round" stroke-linejoin="round"/>
<path d="M23.9373 19.5H7.84267C6.95078 19.4999 6.08451 19.2017 5.3815 18.6529C4.6785 18.104 4.17911 17.3359 3.96267 16.4707L2.02934 8.73736C1.99245 8.58988 1.98967 8.43592 2.02121 8.28721C2.05276 8.13849 2.11779 7.99892 2.21138 7.87911C2.30496 7.7593 2.42463 7.66241 2.56128 7.5958C2.69794 7.52918 2.84798 7.49461 3.00001 7.49469H25.9787" stroke="#394762" stroke-width="1.7" stroke-linecap="round" stroke-linejoin="round"/>
</svg>
