<?xml version="1.0" encoding="UTF-8"?>
<svg width="32px" height="32px" viewBox="0 0 32 32" version="1.1" xmlns="http://www.w3.org/2000/svg" xmlns:xlink="http://www.w3.org/1999/xlink">
    <title>Icon/Decorative/32px/Retail</title>
    <defs>
        <filter id="filter-1">
            <feColorMatrix in="SourceGraphic" type="matrix" values="0 0 0 0 0.223529 0 0 0 0 0.278431 0 0 0 0 0.384314 0 0 0 1.000000 0"></feColorMatrix>
        </filter>
    </defs>
    <g id="Icon/Decorative/32px/Retail" stroke="none" stroke-width="1" fill="none" fill-rule="evenodd" stroke-linecap="round" stroke-linejoin="round">
        <g filter="url(#filter-1)" id="Retail">
            <g transform="translate(1.000000, 1.000000)">
                <path d="M6.53225806,25.5393145 L20.5336694,25.5393145 C21.5662087,25.5393145 22.4481895,24.7945939 22.6209677,23.7766129 L26.3425403,1.9016129 C26.5159313,0.8841929 27.3977496,0.140322532 28.4298387,0.140322532 L29.8185484,0.140322532" id="Path" stroke="#394762" stroke-width="2.11693548"></path>
                <path d="M9.17842742,28.7147177 C9.47071522,28.7147177 9.70766129,28.9516638 9.70766129,29.2439516 C9.70766129,29.5362394 9.47071522,29.7731855 9.17842742,29.7731855 C8.88613962,29.7731855 8.64919355,29.5362394 8.64919355,29.2439516 C8.64919355,28.9516638 8.88613962,28.7147177 9.17842742,28.7147177" id="Path" stroke="#394762" stroke-width="2.11693548"></path>
                <path d="M19.7631048,28.7147177 C20.0553926,28.7147177 20.2923387,28.9516638 20.2923387,29.2439516 C20.2923387,29.5362394 20.0553926,29.7731855 19.7631048,29.7731855 C19.470817,29.7731855 19.233871,29.5362394 19.233871,29.2439516 C19.233871,28.9516638 19.470817,28.7147177 19.7631048,28.7147177" id="Path" stroke="#394762" stroke-width="2.11693548"></path>
                <path d="M23.4014113,19.1885081 L6.36572581,19.1885081 C4.42332583,19.1882949 2.73022669,17.8663976 2.25887097,15.9820565 L0.2125,7.79657258 C0.133374062,7.48025064 0.20445661,7.14511412 0.405177162,6.88814769 C0.605897714,6.63118127 0.913851189,6.48106839 1.23991935,6.48124984 L25.5620968,6.48124984" id="Path" stroke="#394762" stroke-width="2.11693548"></path>
            </g>
        </g>
    </g>
</svg>