<svg width="16" height="16" viewBox="0 0 16 16" fill="none" xmlns="http://www.w3.org/2000/svg">
<path d="M1.12623 15.5H0.5V14.8738L4 11.3738L4.62623 12L1.12623 15.5ZM4.5 6C4.5 2.94281 6.94281 0.5 10 0.5C13.0572 0.5 15.5 2.94281 15.5 6C15.5 9.05719 13.0572 11.5 10 11.5C6.94281 11.5 4.5 9.05719 4.5 6ZM4.83333 6C4.83333 8.80948 7.19052 11.1667 10 11.1667C12.8095 11.1667 15.1667 8.80948 15.1667 6C15.1667 3.19052 12.8095 0.833333 10 0.833333C7.19052 0.833333 4.83333 3.19052 4.83333 6Z" stroke="#394762"/>
</svg>
