<?xml version="1.0" encoding="UTF-8"?>
<svg width="16px" height="16px" viewBox="0 0 16 16" version="1.1" xmlns="http://www.w3.org/2000/svg" xmlns:xlink="http://www.w3.org/1999/xlink">
    <title>Icon/Action/16px/Search</title>
    <g id="Icon/Action/16px/Search" stroke="none" stroke-width="1" fill="none" fill-rule="evenodd">
        <path d="M6.06181771e-13,14.6666667 L6.06181771e-13,16 L1.33333333,16 L5.33333333,12 L4,10.6666667 L6.06181771e-13,14.6666667 Z M10,0 C6.66666667,0 4,2.66666667 4,6 C4,9.33333333 6.66666667,12 10,12 C13.3333333,12 16,9.33333333 16,6 C16,2.66666667 13.3333333,0 10,0 Z M10,10.6666667 C7.46666667,10.6666667 5.33333333,8.53333333 5.33333333,6 C5.33333333,3.46666667 7.46666667,1.33333333 10,1.33333333 C12.5333333,1.33333333 14.6666667,3.46666667 14.6666667,6 C14.6666667,8.53333333 12.5333333,10.6666667 10,10.6666667 Z" id="Search" fill="#394762"></path>
    </g>
</svg>