<svg width="32" height="32" viewBox="0 0 32 32" fill="none" xmlns="http://www.w3.org/2000/svg">
<path fill-rule="evenodd" clip-rule="evenodd" d="M31 13.2493C31.0013 22.0333 24.6613 29.536 16 31C7.33867 29.536 0.998667 22.0333 1 13.2493V3C1 1.896 1.896 1 3 1H29C30.104 1 31 1.896 31 3V13.2493Z" stroke="#394762" stroke-width="1.7" stroke-linecap="round" stroke-linejoin="round"/>
<path fill-rule="evenodd" clip-rule="evenodd" d="M16 6.625C18.5889 6.625 20.6875 8.72361 20.6875 11.3125C20.6875 13.9014 18.5889 16 16 16C13.4111 16 11.3125 13.9014 11.3125 11.3125C11.3125 8.72361 13.4111 6.625 16 6.625Z" stroke="#394762" stroke-width="1.7" stroke-linecap="round" stroke-linejoin="round"/>
<path d="M22.5625 22.5625C20.606 18.3613 15.8719 16.6709 11.9889 18.7878C10.4826 19.6097 9.25834 20.9329 8.5 22.5625" stroke="#394762" stroke-width="1.7" stroke-linecap="round" stroke-linejoin="round"/>
</svg>
