<svg fill="none" height="32" viewBox="0 0 32 32" width="32" xmlns="http://www.w3.org/2000/svg" xmlns:xlink="http://www.w3.org/1999/xlink"><clipPath id="a"><path d="m0 0h32v32h-32z"/></clipPath><g clip-path="url(#a)" stroke="#394762" stroke-linecap="round" stroke-linejoin="round" stroke-width="1.7"><path d="m27.3334 30c0 .3536-.1405.6928-.3906.9428-.25.2501-.5892.3906-.9428.3906h-19.99998c-.35362 0-.69276-.1405-.94281-.3906-.25005-.25-.39052-.5892-.39052-.9428v-27.99998c0-.35362.14047-.69276.39052-.94281.25005-.250047.58919-.390523.94281-.390523h14.03598c.1971-.000096.3918.0435.57.127652.1782.084151.3355.206761.4607.359011l5.9627 7.256c.1968.23769.3043.53672.304.84534z"/><path d="m8.66669 15.3334h14.66671v12h-14.66671z"/><path d="m12.6667 27.3334v-12"/><path d="m19.3334 27.3334v-12"/><path d="m19.3334 19.3334h4"/><path d="m8.66669 19.3334h4.00001"/><path d="m19.3334 23.3334h4"/><path d="m8.66669 23.3334h4.00001"/><path d="m8.66669.666687v5.333333"/><path d="m12.6667.666687v5.333333"/><path d="m16.6667.666687v5.333333"/></g></svg>