<?xml version="1.0" encoding="UTF-8"?>
<svg width="32px" height="32px" viewBox="0 0 32 32" version="1.1" xmlns="http://www.w3.org/2000/svg" xmlns:xlink="http://www.w3.org/1999/xlink">
    <title>Icon/Decorative/32px/Smartphone</title>
    <defs>
        <filter id="filter-1">
            <feColorMatrix in="SourceGraphic" type="matrix" values="0 0 0 0 0.223529 0 0 0 0 0.278431 0 0 0 0 0.384314 0 0 0 1.000000 0"></feColorMatrix>
        </filter>
    </defs>
    <g id="Icon/Decorative/32px/Smartphone" stroke="none" stroke-width="1" fill="none" fill-rule="evenodd" stroke-linecap="round" stroke-linejoin="round">
        <g filter="url(#filter-1)" id="Smartphone">
            <g transform="translate(1.000000, 1.000000)">
                <path d="M9.6566077,18.9975442 L11.8849532,17.3259521 C12.3444864,16.9812907 12.9256272,16.8409761 13.4918001,16.9379839 C14.057973,17.0349918 14.5592539,17.360768 14.8778356,17.8387513 L14.8778356,17.8387513 C15.3454316,18.5405233 15.3454316,19.4545651 14.8778356,20.1563371 L12.6867846,23.4422477 C12.013498,24.4515356 11.0497696,25.2327361 9.92299688,25.6825806 L6.65706556,26.9892196 L6.65706556,29.9860978" id="Path" stroke="#394762" stroke-width="1.99791883"></path>
                <path d="M10.6555671,12.0048283 C3.85198751,14.9204579 0.665972945,14.7459729 0.665972945,29.9860978" id="Path" stroke="#394762" stroke-width="1.99791883"></path>
                <path d="M10.6555671,18.2476587 L10.6555671,4.01315297 C10.6555671,1.80631276 12.4445646,0.0173152966 14.6514048,0.0173152966 L24.640999,0.0173152966 C26.8478392,0.0173152966 28.6368366,1.80631276 28.6368366,4.01315297 L28.6368366,25.9902601 C28.6368366,28.1971004 26.8478392,29.9860978 24.640999,29.9860978 L14.6514048,29.9860978 C12.4445646,29.9860978 10.6555671,28.1971004 10.6555671,25.9902601 L10.6555671,25.3242872" id="Path" stroke="#394762" stroke-width="1.99791883"></path>
                <line x1="12.2725494" y1="23.9923413" x2="28.6368366" y2="23.9923413" id="Path" stroke="#394762" stroke-width="1.99791883"></line>
                <line x1="20.6451613" y1="8.00899063" x2="20.6451613" y2="13.0037877" id="Path" stroke="#394762" stroke-width="1.99791883"></line>
                <path d="M18.6472425,6.0110718 C18.6472425,7.1144919 19.5417412,8.00899063 20.6451613,8.00899063 C21.7485814,8.00899063 22.6430801,7.1144919 22.6430801,6.0110718 C22.6430801,4.9076517 21.7485814,4.01315297 20.6451613,4.01315297 C19.5417412,4.01315297 18.6472425,4.9076517 18.6472425,6.0110718 L18.6472425,6.0110718 Z" id="Path" stroke="#394762" stroke-width="1.99791883"></path>
                <path d="M18.6472425,15.0017066 C18.6472425,16.1051267 19.5417412,16.9996254 20.6451613,16.9996254 C21.7485814,16.9996254 22.6430801,16.1051267 22.6430801,15.0017066 C22.6430801,13.8982865 21.7485814,13.0037877 20.6451613,13.0037877 C19.5417412,13.0037877 18.6472425,13.8982865 18.6472425,15.0017066 L18.6472425,15.0017066 Z" id="Path" stroke="#394762" stroke-width="1.99791883"></path>
            </g>
        </g>
    </g>
</svg>