<svg width="32" height="32" viewBox="0 0 32 32" fill="none" xmlns="http://www.w3.org/2000/svg">
<path d="M10.6667 20.0174L12.8973 18.344C13.1249 18.1733 13.385 18.0508 13.6616 17.984C13.9381 17.9173 14.2254 17.9076 14.5059 17.9556C14.7863 18.0037 15.054 18.1084 15.2925 18.2635C15.5311 18.4185 15.7355 18.6206 15.8933 18.8574V18.8574C16.1222 19.2009 16.2444 19.6045 16.2444 20.0174C16.2444 20.4302 16.1222 20.8338 15.8933 21.1774L13.7 24.4667C13.026 25.477 12.0613 26.259 10.9333 26.7094L7.664 28.0174V31.0174" stroke="#394762" stroke-width="1.7" stroke-linecap="round" stroke-linejoin="round"/>
<path d="M11.6667 13.0173C4.85602 15.936 1.66669 15.7613 1.66669 31.0173" stroke="#394762" stroke-width="1.7" stroke-linecap="round" stroke-linejoin="round"/>
<path d="M11.6667 19.2667V5.01733C11.6667 3.95647 12.0881 2.93905 12.8383 2.18891C13.5884 1.43876 14.6058 1.01733 15.6667 1.01733H25.6667C26.7276 1.01733 27.745 1.43876 28.4951 2.18891C29.2453 2.93905 29.6667 3.95647 29.6667 5.01733V27.0173C29.6667 28.0782 29.2453 29.0956 28.4951 29.8458C27.745 30.5959 26.7276 31.0173 25.6667 31.0173H15.6667C14.6058 31.0173 13.5884 30.5959 12.8383 29.8458C12.0881 29.0956 11.6667 28.0782 11.6667 27.0173V26.3507" stroke="#394762" stroke-width="1.7" stroke-linecap="round" stroke-linejoin="round"/>
<path d="M13.2853 25.0173H29.6667" stroke="#394762" stroke-width="1.7" stroke-linecap="round" stroke-linejoin="round"/>
<path d="M21.6667 9.01733V14.0173" stroke="#394762" stroke-width="1.7" stroke-linecap="round" stroke-linejoin="round"/>
<path d="M19.6667 7.01733C19.6667 7.54777 19.8774 8.05648 20.2525 8.43155C20.6275 8.80662 21.1363 9.01733 21.6667 9.01733C22.1971 9.01733 22.7058 8.80662 23.0809 8.43155C23.456 8.05648 23.6667 7.54777 23.6667 7.01733C23.6667 6.4869 23.456 5.97819 23.0809 5.60312C22.7058 5.22805 22.1971 5.01733 21.6667 5.01733C21.1363 5.01733 20.6275 5.22805 20.2525 5.60312C19.8774 5.97819 19.6667 6.4869 19.6667 7.01733V7.01733Z" stroke="#394762" stroke-width="1.7" stroke-linecap="round" stroke-linejoin="round"/>
<path d="M19.6667 16.0173C19.6667 16.5478 19.8774 17.0565 20.2525 17.4315C20.6275 17.8066 21.1363 18.0173 21.6667 18.0173C22.1971 18.0173 22.7058 17.8066 23.0809 17.4315C23.456 17.0565 23.6667 16.5478 23.6667 16.0173C23.6667 15.4869 23.456 14.9782 23.0809 14.6031C22.7058 14.228 22.1971 14.0173 21.6667 14.0173C21.1363 14.0173 20.6275 14.228 20.2525 14.6031C19.8774 14.9782 19.6667 15.4869 19.6667 16.0173V16.0173Z" stroke="#394762" stroke-width="1.7" stroke-linecap="round" stroke-linejoin="round"/>
</svg>
