<svg width="32" height="32" viewBox="0 0 32 32" fill="none" xmlns="http://www.w3.org/2000/svg">
<path d="M13.5 27H2.5" stroke="#394762" stroke-width="1.7" stroke-linecap="round" stroke-linejoin="round"/>
<path d="M2.5 17H7.5C7.95365 16.9484 8.37165 16.7292 8.672 16.3853L14.072 11.0667L19.1773 12.088C19.3481 12.1218 19.5102 12.19 19.6537 12.2884C19.7973 12.3867 19.9194 12.5133 20.0126 12.6603C20.1057 12.8074 20.168 12.9718 20.1956 13.1436C20.2233 13.3155 20.2157 13.4912 20.1733 13.66L20.0667 14.084C20.0049 14.3323 19.8703 14.5564 19.6803 14.7277C19.4902 14.899 19.2533 15.0096 19 15.0453L16.4987 15.408C16.3482 15.423 16.2024 15.4683 16.0698 15.5411C15.9373 15.6139 15.8209 15.7128 15.7275 15.8317C15.6341 15.9506 15.5657 16.0871 15.5264 16.2331C15.487 16.3791 15.4776 16.5316 15.4987 16.6813V20.0906C15.415 20.4792 15.2095 20.831 14.912 21.0946L12.1427 23.2853" stroke="#394762" stroke-width="1.7" stroke-linecap="round" stroke-linejoin="round"/>
<path d="M29.5 24.6667C29.5061 25.0138 29.3741 25.3492 29.1332 25.5992C28.8922 25.8492 28.5618 25.9933 28.2147 26H26.2854C25.352 26 24.764 25.932 24.3574 24.6667C23.744 21.5838 23.3148 18.4672 23.072 15.3333C23.072 14.6667 23.7147 14 25 14H28.2147C28.5618 14.0067 28.8922 14.1508 29.1332 14.4008C29.3741 14.6508 29.5061 14.9862 29.5 15.3333V24.6667Z" stroke="#394762" stroke-width="1.7" stroke-linecap="round" stroke-linejoin="round"/>
<path d="M27.5 26V29C27.5 29.5304 27.2893 30.0391 26.9142 30.4142C26.5391 30.7893 26.0304 31 25.5 31H15.5C14.9696 31 14.4609 30.7893 14.0858 30.4142C13.7107 30.0391 13.5 29.5304 13.5 29V27" stroke="#394762" stroke-width="1.7" stroke-linecap="round" stroke-linejoin="round"/>
<path d="M13.5 11.6333V8C13.5 7.46957 13.7107 6.96086 14.0858 6.58579C14.4609 6.21071 14.9696 6 15.5 6H25.5C26.0304 6 26.5391 6.21071 26.9142 6.58579C27.2893 6.96086 27.5 7.46957 27.5 8V14" stroke="#394762" stroke-width="1.7" stroke-linecap="round" stroke-linejoin="round"/>
<path d="M8.04267 1C6.58855 1.77927 5.39788 2.97185 4.62096 4.42722C3.84403 5.88259 3.51567 7.53551 3.67733 9.17733" stroke="#394762" stroke-width="1.7" stroke-linecap="round" stroke-linejoin="round"/>
<path d="M10.1413 3.73334C9.13393 4.27277 8.30908 5.09879 7.77106 6.10695C7.23304 7.11511 7.00601 8.26016 7.11867 9.39734" stroke="#394762" stroke-width="1.7" stroke-linecap="round" stroke-linejoin="round"/>
</svg>
