<svg width="32" height="32" viewBox="0 0 32 32" fill="none" xmlns="http://www.w3.org/2000/svg">
<path d="M17 1.00002C14.5051 0.996427 12.0546 1.66058 9.90297 2.92355C7.75132 4.18652 5.97686 6.00229 4.76373 8.18244C3.5506 10.3626 2.94302 12.8277 3.00402 15.3218C3.06503 17.816 3.7924 20.2485 5.11067 22.3667L1 31L9.632 26.888C11.4729 28.033 13.5546 28.7349 15.7129 28.9383C17.8713 29.1416 20.0475 28.841 22.0698 28.0599C24.0922 27.2789 25.9056 26.0389 27.367 24.4376C28.8285 22.8363 29.898 20.9175 30.4915 18.8324C31.085 16.7472 31.186 14.5527 30.7868 12.4219C30.3876 10.291 29.4989 8.28197 28.1909 6.55309C26.8829 4.82421 25.1912 3.42272 23.2492 2.45908C21.3072 1.49543 19.1679 0.99596 17 1.00002V1.00002Z" stroke="#394762" stroke-width="1.7" stroke-linecap="round" stroke-linejoin="round"/>
<path d="M13.848 12.6667C13.6026 12.1668 13.222 11.7456 12.7494 11.451C12.2767 11.1565 11.7309 11.0004 11.174 11.0004C10.6171 11.0004 10.0713 11.1565 9.59864 11.451C9.12598 11.7456 8.74537 12.1668 8.5 12.6667" stroke="#394762" stroke-width="1.7" stroke-linecap="round" stroke-linejoin="round"/>
<path d="M25.84 12.6667C25.5946 12.1668 25.214 11.7456 24.7414 11.451C24.2687 11.1565 23.7229 11.0004 23.166 11.0004C22.6091 11.0004 22.0633 11.1565 21.5906 11.451C21.118 11.7456 20.7374 12.1668 20.492 12.6667" stroke="#394762" stroke-width="1.7" stroke-linecap="round" stroke-linejoin="round"/>
<path d="M12.008 20C13.4192 21.2868 15.2602 22.0001 17.17 22.0001C19.0798 22.0001 20.9208 21.2868 22.332 20" stroke="#394762" stroke-width="1.7" stroke-linecap="round" stroke-linejoin="round"/>
</svg>
