<svg width="32" height="32" viewBox="0 0 32 32" fill="none" xmlns="http://www.w3.org/2000/svg">
<path d="M30 2.08936L27.1227 2.40936C24.8659 2.6602 22.7616 3.67165 21.156 5.27736L8.08002 18.3534L13.7334 24.0094L26.812 10.9334C28.4182 9.32815 29.4298 7.22369 29.68 4.96669L30 2.08936Z" stroke="#394762" stroke-width="1.7" stroke-linecap="round" stroke-linejoin="round"/>
<path d="M8.08001 18.3533L3.25068 16.7427C3.08895 16.689 2.94366 16.5948 2.82863 16.469C2.7136 16.3433 2.63265 16.1902 2.59349 16.0244C2.55434 15.8585 2.55827 15.6854 2.60492 15.5215C2.65157 15.3576 2.73939 15.2084 2.86001 15.088L3.16935 14.7787C4.21981 13.728 5.54211 12.9906 6.98806 12.6492C8.43402 12.3077 9.94649 12.3756 11.356 12.8453L13.0293 13.4027L8.08001 18.3533Z" stroke="#394762" stroke-width="1.7" stroke-linecap="round" stroke-linejoin="round"/>
<path d="M8.08001 18.3533L3.25068 16.7427C3.08895 16.689 2.94366 16.5948 2.82863 16.469C2.7136 16.3433 2.63265 16.1902 2.59349 16.0244C2.55434 15.8585 2.55827 15.6854 2.60492 15.5215C2.65157 15.3576 2.73939 15.2084 2.86001 15.088L3.16935 14.7787C4.21981 13.728 5.54211 12.9906 6.98806 12.6492C8.43402 12.3077 9.94649 12.3756 11.356 12.8453L13.0293 13.4027L8.08001 18.3533Z" stroke="#394762" stroke-width="1.7" stroke-linecap="round" stroke-linejoin="round"/>
<path d="M13.7333 24.0094L15.344 28.8387C15.3977 29.0004 15.4919 29.1457 15.6176 29.2608C15.7434 29.3758 15.8964 29.4567 16.0623 29.4959C16.2281 29.5351 16.4013 29.5311 16.5652 29.4845C16.7291 29.4378 16.8783 29.35 16.9987 29.2294L17.3093 28.92C18.3598 27.8694 19.0969 26.5471 19.4381 25.1011C19.7794 23.6552 19.7112 22.1428 19.2413 20.7334L18.6867 19.0667L13.7333 24.0094Z" stroke="#394762" stroke-width="1.7" stroke-linecap="round" stroke-linejoin="round"/>
<path d="M13.7333 24.0094L15.344 28.8387C15.3977 29.0004 15.4919 29.1457 15.6176 29.2608C15.7434 29.3758 15.8964 29.4567 16.0623 29.4959C16.2281 29.5351 16.4013 29.5311 16.5652 29.4845C16.7291 29.4378 16.8783 29.35 16.9987 29.2294L17.3093 28.92C18.3598 27.8694 19.0969 26.5471 19.4381 25.1011C19.7794 23.6552 19.7112 22.1428 19.2413 20.7334L18.6867 19.0667L13.7333 24.0094Z" stroke="#394762" stroke-width="1.7" stroke-linecap="round" stroke-linejoin="round"/>
<path d="M10.372 24.7174C10.3725 25.1114 10.2952 25.5017 10.1444 25.8657C9.9936 26.2298 9.77235 26.5604 9.49336 26.8387C8.3227 28.0094 2.4267 29.6667 2.4267 29.6667C2.4267 29.6667 4.08403 23.7667 5.2547 22.6C5.76896 22.0845 6.45342 21.774 7.18003 21.7267" stroke="#394762" stroke-width="1.7" stroke-linecap="round" stroke-linejoin="round"/>
</svg>
