<?xml version="1.0" encoding="UTF-8"?>
<svg width="32px" height="32px" viewBox="0 0 32 32" version="1.1" xmlns="http://www.w3.org/2000/svg" xmlns:xlink="http://www.w3.org/1999/xlink">
    <title>Icon/Decorative/32px/Spaceship</title>
    <defs>
        <filter id="filter-1">
            <feColorMatrix in="SourceGraphic" type="matrix" values="0 0 0 0 0.223529 0 0 0 0 0.278431 0 0 0 0 0.384314 0 0 0 1.000000 0"></feColorMatrix>
        </filter>
    </defs>
    <g id="Icon/Decorative/32px/Spaceship" stroke="none" stroke-width="1" fill="none" fill-rule="evenodd" stroke-linecap="round" stroke-linejoin="round">
        <g filter="url(#filter-1)" id="Spaceship">
            <g transform="translate(1.000000, 1.000000)">
                <path d="M29.8155738,0.0346311475 L26.720082,0.378893443 C24.2921444,0.648752297 22.0283417,1.73689522 20.3010246,3.46434426 L6.23360656,17.5317623 L12.3155738,23.6165984 L26.3858607,9.54918033 C28.1138775,7.82226582 29.2021217,5.55825241 29.4713115,3.13012295 L29.8155738,0.0346311475 Z" id="Path" stroke="#394762" stroke-width="2.15163934"></path>
                <path d="M6.23360656,17.5317623 L1.03811475,15.7989754 C0.68434578,15.6814861 0.416758695,15.3890183 0.331103108,15.0262245 C0.245447522,14.6634307 0.353966021,14.2821643 0.617827869,14.0188525 L0.950614754,13.6860656 C3.25555964,11.3806818 6.66521488,10.5754701 9.7579918,11.6061475 L11.5581967,12.2057377 L6.23360656,17.5317623 Z" id="Path" stroke="#394762" stroke-width="2.15163934"></path>
                <path d="M6.23360656,17.5317623 L1.03811475,15.7989754 C0.68434578,15.6814861 0.416758695,15.3890183 0.331103108,15.0262245 C0.245447522,14.6634307 0.353966021,14.2821643 0.617827869,14.0188525 L0.950614754,13.6860656 C3.25555964,11.3806818 6.66521488,10.5754701 9.7579918,11.6061475 L11.5581967,12.2057377 L6.23360656,17.5317623 Z" id="Path" stroke="#394762" stroke-width="2.15163934"></path>
                <path d="M12.3155738,23.6165984 L14.0483607,28.8120902 C14.1658499,29.1658591 14.4583178,29.4334462 14.8211116,29.5191018 C15.1839054,29.6047574 15.5651717,29.4962389 15.8284836,29.232377 L16.1627049,28.8995902 C18.4675825,26.5943365 19.2722293,23.1847218 18.2411885,20.0922131 L17.6444672,18.2991803 L12.3155738,23.6165984 Z" id="Path" stroke="#394762" stroke-width="2.15163934"></path>
                <path d="M12.3155738,23.6165984 L14.0483607,28.8120902 C14.1658499,29.1658591 14.4583178,29.4334462 14.8211116,29.5191018 C15.1839054,29.6047574 15.5651717,29.4962389 15.8284836,29.232377 L16.1627049,28.8995902 C18.4675825,26.5943365 19.2722293,23.1847218 18.2411885,20.0922131 L17.6444672,18.2991803 L12.3155738,23.6165984 Z" id="Path" stroke="#394762" stroke-width="2.15163934"></path>
                <path d="M8.69938798,24.3782787 C8.70049976,25.2344767 8.36030093,26.0558065 7.75409836,26.6604508 C6.49467213,27.919877 0.151639344,29.7028689 0.151639344,29.7028689 C0.151639344,29.7028689 1.93463115,23.3555328 3.19405738,22.1004098 C3.74730791,21.5458228 4.48366737,21.2118093 5.26536885,21.1608607" id="Path" stroke="#394762" stroke-width="2.15163934"></path>
            </g>
        </g>
    </g>
</svg>