<?xml version="1.0" encoding="UTF-8"?>
<svg width="32px" height="32px" viewBox="0 0 32 32" version="1.1" xmlns="http://www.w3.org/2000/svg" xmlns:xlink="http://www.w3.org/1999/xlink">
    <title>Icon/Decorative/32px/Team</title>
    <defs>
        <filter id="filter-1">
            <feColorMatrix in="SourceGraphic" type="matrix" values="0 0 0 0 0.223529 0 0 0 0 0.278431 0 0 0 0 0.384314 0 0 0 1.000000 0"></feColorMatrix>
        </filter>
    </defs>
    <g id="Icon/Decorative/32px/Team" stroke="none" stroke-width="1" fill="none" fill-rule="evenodd" stroke-linecap="round" stroke-linejoin="round">
        <g filter="url(#filter-1)" id="Team">
            <g transform="translate(1.000000, 1.000000)">
                <path d="M1.49866667,22.5 C1.49866667,24.4329966 3.06567004,26 4.99866667,26 C6.93166329,26 8.49866667,24.4329966 8.49866667,22.5 C8.49866667,20.5670034 6.93166329,19 4.99866667,19 C3.06567004,19 1.49866667,20.5670034 1.49866667,22.5 L1.49866667,22.5 Z" id="Path" stroke="#394762" stroke-width="2"></path>
                <path d="M9.99866667,30 C9.01383479,28.1534402 7.0914344,27 4.99866667,27 C2.90589893,27 0.983498542,28.1534402 -0.00133333333,30" id="Path" stroke="#394762" stroke-width="2"></path>
                <path d="M21.4986667,22.4999999 C21.4986667,23.7504296 22.1657629,24.9058742 23.2486666,25.531089 C24.3315704,26.1563038 25.6657629,26.1563038 26.7486667,25.531089 C27.8315705,24.9058742 28.4986667,23.7504296 28.4986667,22.4999999 C28.4986667,21.2495704 27.8315705,20.0941258 26.7486667,19.468911 C25.6657629,18.8436962 24.3315704,18.8436962 23.2486666,19.468911 C22.1657629,20.0941258 21.4986667,21.2495704 21.4986667,22.4999999 L21.4986667,22.4999999 Z" id="Path" stroke="#394762" stroke-width="2"></path>
                <path d="M29.9986667,30 C29.0138348,28.1534402 27.0914344,27 24.9986667,27 C22.9058989,27 20.9834985,28.1534402 19.9986667,30" id="Path" stroke="#394762" stroke-width="2"></path>
                <path d="M11.4986667,3.49999993 C11.4986667,4.75042958 12.1657629,5.90587418 13.2486666,6.53108897 C14.3315704,7.15630377 15.6657629,7.15630377 16.7486667,6.53108897 C17.8315705,5.90587418 18.4986667,4.75042958 18.4986667,3.49999993 C18.4986667,2.24957042 17.8315705,1.09412582 16.7486667,0.468911025 C15.6657629,-0.156303773 14.3315704,-0.156303773 13.2486666,0.468911025 C12.1657629,1.09412582 11.4986667,2.24957042 11.4986667,3.49999993 L11.4986667,3.49999993 Z" id="Path" stroke="#394762" stroke-width="2"></path>
                <path d="M19.3306667,10 C18.2492058,8.73022418 16.6652327,7.99867558 14.9973333,7.99867558 C13.329434,7.99867558 11.7454609,8.73022418 10.664,10" id="Path" stroke="#394762" stroke-width="2"></path>
                <path d="M11.0666667,25.276 C13.6202888,26.2495773 16.4443212,26.2410254 18.992,25.252" id="Path" stroke="#394762" stroke-width="2"></path>
                <path d="M7.464,7 C5.25144269,9.07223179 3.99636177,11.9685724 3.99733277,15 C3.99733277,15.3373333 4.01733333,15.6666667 4.048,16" id="Path" stroke="#394762" stroke-width="2"></path>
                <path d="M25.948,16 C25.9773333,15.6693333 25.9986679,15.3333333 25.9986679,15 C26.0001185,11.9684729 24.7449583,9.07194939 22.532,7" id="Path" stroke="#394762" stroke-width="2"></path>
            </g>
        </g>
    </g>
</svg>