<svg width="32" height="32" viewBox="0 0 32 32" fill="none" xmlns="http://www.w3.org/2000/svg">
<path d="M24 15.052V27.3574C23.9996 28.3236 23.6156 29.2501 22.9322 29.9332C22.2489 30.6163 21.3222 31 20.356 31H11.644C11.1655 31.0002 10.6917 30.9061 10.2496 30.7231C9.8075 30.5401 9.40578 30.2719 9.06738 29.9336C8.72899 29.5953 8.46055 29.1937 8.27741 28.7517C8.09426 28.3096 8 27.8358 8 27.3574V12.0387" stroke="#394762" stroke-width="1.7" stroke-linecap="round" stroke-linejoin="round"/>
<path d="M8.00134 25H24.0013" stroke="#394762" stroke-width="1.7" stroke-linecap="round" stroke-linejoin="round"/>
<path d="M15.9267 14.0747C16.2193 14.3685 16.5671 14.6016 16.9502 14.7604C17.3333 14.9192 17.744 15.0007 18.1587 15H20V19L24.052 15H26.8413C27.6788 15 28.4821 14.6674 29.0744 14.0753C29.6667 13.4832 29.9996 12.6802 30 11.8427V7.15867C30 6.32117 29.6674 5.51795 29.0753 4.92562C28.4832 4.3333 27.6802 4.00035 26.8427 4H22" stroke="#394762" stroke-width="1.7" stroke-linecap="round" stroke-linejoin="round"/>
<path d="M20.5013 9C20.4025 9 20.3058 9.02932 20.2236 9.08427C20.1413 9.13921 20.0772 9.2173 20.0394 9.30866C20.0016 9.40002 19.9917 9.50055 20.011 9.59754C20.0302 9.69454 20.0779 9.78363 20.1478 9.85355C20.2177 9.92348 20.3068 9.9711 20.4038 9.99039C20.5008 10.0097 20.6013 9.99978 20.6927 9.96194C20.784 9.9241 20.8621 9.86001 20.9171 9.77778C20.972 9.69556 21.0013 9.59889 21.0013 9.5C21.0013 9.36739 20.9487 9.24022 20.8549 9.14645C20.7611 9.05268 20.634 9 20.5013 9" stroke="#394762" stroke-width="1.7" stroke-linecap="round" stroke-linejoin="round"/>
<path d="M25.5013 9C25.4025 9 25.3058 9.02932 25.2236 9.08427C25.1413 9.13921 25.0772 9.2173 25.0394 9.30866C25.0016 9.40002 24.9917 9.50055 25.011 9.59754C25.0302 9.69454 25.0779 9.78363 25.1478 9.85355C25.2177 9.92348 25.3068 9.9711 25.4038 9.99039C25.5008 10.0097 25.6013 9.99978 25.6927 9.96194C25.784 9.9241 25.8621 9.86001 25.9171 9.77778C25.972 9.69556 26.0013 9.59889 26.0013 9.5C26.0013 9.36739 25.9487 9.24022 25.8549 9.14645C25.7611 9.05268 25.634 9 25.5013 9Z" stroke="#394762" stroke-width="1.7" stroke-linecap="round" stroke-linejoin="round"/>
<path d="M5.15867 1H13.8427C14.6804 1 15.4838 1.33279 16.0762 1.92515C16.6685 2.51752 17.0013 3.32094 17.0013 4.15867V7.84267C17.001 8.68017 16.668 9.48324 16.0757 10.0753C15.4834 10.6674 14.6802 11 13.8427 11H11.0013V15L6.948 11H5.15867C4.74393 11.0002 4.33322 10.9186 3.95 10.76C3.56678 10.6015 3.21856 10.3689 2.92523 10.0757C2.63191 9.78251 2.39922 9.43439 2.24047 9.05123C2.08171 8.66808 2 8.25741 2 7.84267V4.15867C2 3.32094 2.33279 2.51752 2.92515 1.92515C3.51752 1.33279 4.32094 1 5.15867 1V1Z" stroke="#394762" stroke-width="1.7" stroke-linecap="round" stroke-linejoin="round"/>
<path d="M12.168 6C12.2669 6 12.3636 6.02932 12.4458 6.08427C12.528 6.13921 12.5921 6.2173 12.6299 6.30866C12.6678 6.40002 12.6777 6.50055 12.6584 6.59754C12.6391 6.69454 12.5915 6.78363 12.5216 6.85355C12.4516 6.92348 12.3625 6.9711 12.2655 6.99039C12.1686 7.00969 12.068 6.99978 11.9767 6.96194C11.8853 6.9241 11.8072 6.86001 11.7523 6.77778C11.6973 6.69556 11.668 6.59889 11.668 6.5C11.668 6.36739 11.7207 6.24022 11.8144 6.14645C11.9082 6.05268 12.0354 6 12.168 6" stroke="#394762" stroke-width="1.7" stroke-linecap="round" stroke-linejoin="round"/>
<path d="M6.83466 6C6.93355 6 7.03022 6.02932 7.11244 6.08427C7.19467 6.13921 7.25875 6.2173 7.2966 6.30866C7.33444 6.40002 7.34434 6.50055 7.32505 6.59754C7.30576 6.69454 7.25814 6.78363 7.18821 6.85355C7.11828 6.92348 7.02919 6.9711 6.9322 6.99039C6.83521 7.00969 6.73468 6.99978 6.64331 6.96194C6.55195 6.9241 6.47386 6.86001 6.41892 6.77778C6.36398 6.69556 6.33466 6.59889 6.33466 6.5C6.33466 6.36739 6.38733 6.24022 6.4811 6.14645C6.57487 6.05268 6.70205 6 6.83466 6Z" stroke="#394762" stroke-width="1.7" stroke-linecap="round" stroke-linejoin="round"/>
</svg>
