<?xml version="1.0" encoding="UTF-8"?>
<svg width="32px" height="32px" viewBox="0 0 32 32" version="1.1" xmlns="http://www.w3.org/2000/svg" xmlns:xlink="http://www.w3.org/1999/xlink">
    <title>Icon/Decorative/32px/TextMessage</title>
    <g id="Icon/Decorative/32px/TextMessage" stroke="none" stroke-width="1" fill="none" fill-rule="evenodd">
        <path d="M6.77886782,7.84688642 C5.99734854,7.84688642 5.36099695,7.21575374 5.36099695,6.43912629 C5.36099695,5.73426316 5.88896991,5.15326718 6.57205356,5.05299376 C6.58100225,5.05004455 6.58796235,5.04709533 6.59591674,5.04414611 C6.62276283,5.04021382 6.65060321,5.04414611 6.67645499,5.04217996 C6.71125547,5.04021382 6.74406735,5.03234924 6.77886782,5.03234924 C6.79875381,5.03234924 6.8166512,5.0372646 6.83653719,5.03824767 C6.85542887,5.04021382 6.87332626,5.04119689 6.89321225,5.04316304 C7.62103937,5.1021474 8.1967387,5.70182176 8.1967387,6.43912629 C8.1967387,7.21575374 7.56138141,7.84688642 6.77886782,7.84688642 L6.77886782,7.84688642 Z M10.7272305,6.43912629 C10.7272305,5.69494025 11.3148615,5.08936745 12.0536259,5.04119689 C12.0566088,5.04119689 12.0595917,5.04119689 12.0625746,5.04119689 C12.090415,5.03923075 12.117261,5.03234924 12.1451014,5.03234924 C12.9266207,5.03234924 13.5629723,5.66348192 13.5629723,6.43912629 C13.5629723,7.21575374 12.9266207,7.84688642 12.1451014,7.84688642 C11.3625878,7.84688642 10.7272305,7.21575374 10.7272305,6.43912629 L10.7272305,6.43912629 Z M25.559194,10.8659027 C24.7776747,10.8659027 24.1413231,10.2347701 24.1413231,9.45912568 C24.1413231,8.68249823 24.7776747,8.05136555 25.559194,8.05136555 C26.3407132,8.05136555 26.9770648,8.68249823 26.9770648,9.45912568 C26.9770648,10.2347701 26.3407132,10.8659027 25.559194,10.8659027 L25.559194,10.8659027 Z M19.1111627,9.45912568 C19.1111627,8.68249823 19.74652,8.05136555 20.5290335,8.05136555 C21.3105528,8.05136555 21.9469044,8.68249823 21.9469044,9.45912568 C21.9469044,10.2347701 21.3105528,10.8659027 20.5290335,10.8659027 C19.74652,10.8659027 19.1111627,10.2347701 19.1111627,9.45912568 L19.1111627,9.45912568 Z M20.3828715,30.1921293 L11.6181228,30.1921293 L11.6171285,30.1921293 C10.100822,30.1921293 8.86689646,28.9524746 8.86590216,27.4296949 L8.86590216,25.9619674 L23.1340978,25.9619674 L23.1340978,27.4296949 C23.1331035,28.9524746 21.899178,30.1921293 20.3828715,30.1921293 L20.3828715,30.1921293 Z M5.09253613,10.0637154 L5.09054753,10.0637154 C4.48899642,10.0637154 3.92324009,9.82876102 3.49668567,9.40210746 C3.06714835,8.97250468 2.8305051,8.40035636 2.8295108,7.79085128 L2.8295108,4.08270099 C2.8295108,2.82928328 3.84469044,1.8088538 5.09253613,1.8088538 L13.8294445,1.8088538 C15.0782845,1.8088538 16.0934641,2.82928328 16.0934641,4.08270099 L16.0934641,7.78986821 C16.0924698,9.04328592 15.0772902,10.0637154 13.8294445,10.0637154 L10.9708339,10.0637154 C10.4657298,10.0637154 10.0560785,10.4687414 10.0560785,10.9681423 L10.0560785,12.8123867 L7.53950683,10.328162 C7.36749304,10.1590735 7.13482699,10.0637154 6.89321225,10.0637154 L5.09253613,10.0637154 Z M26.9094525,3.01901631 L22.0363914,3.01901631 C21.5312873,3.01901631 21.121636,3.42404227 21.121636,3.92344321 C21.121636,4.42382722 21.5312873,4.82787011 22.0363914,4.82787011 L26.9084582,4.82787011 C28.1563039,4.82885318 29.1704892,5.84829959 29.1704892,7.10270038 L29.1704892,11.815551 C29.1704892,13.0689687 28.1553096,14.0893982 26.9074639,14.0893982 L24.1015511,14.0893982 C23.8589421,14.0893982 23.626276,14.1847562 23.4552565,14.3538447 L20.9396792,16.8380695 L20.9396792,14.9938251 C20.9396792,14.4944241 20.5300278,14.0893982 20.0249238,14.0893982 L18.1715498,14.0893982 L18.1685669,14.0893982 C17.5759645,14.0893982 16.9962879,13.8485454 16.5786822,13.4287733 C16.2247117,13.0719179 15.6450351,13.0679856 15.2850988,13.4179595 C14.9251624,13.7679334 14.9201909,14.3410648 15.2741615,14.6969371 C16.0348005,15.4607846 17.0887578,15.898252 18.1675726,15.898252 L18.1715498,15.898252 L19.1101684,15.898252 L19.1101684,19.0195078 C19.1101684,19.3852109 19.3328914,19.7145403 19.6739361,19.8551197 C19.7872862,19.9013241 19.9066021,19.9239347 20.0249238,19.9239347 C20.2625613,19.9239347 20.4962217,19.8315259 20.6712183,19.6594882 L23.1340978,17.2273663 L23.1340978,24.1531136 L8.86590216,24.1531136 L8.86590216,14.1936039 L10.3245393,15.6338054 C10.499536,15.8068262 10.7341906,15.898252 10.9708339,15.898252 C11.0891555,15.898252 11.2084714,15.8756413 11.3218216,15.8294369 C11.6628662,15.6898406 11.8855893,15.3595281 11.8855893,14.9938251 L11.8855893,11.8725692 L13.8294445,11.8725692 C16.0855097,11.8725692 17.9219806,10.0411047 17.9229749,7.79085128 L17.9229749,4.08270099 C17.9229749,1.83146447 16.086504,0 13.8294445,0 L5.09253613,0 C2.8364709,0 1,1.83146447 1,4.08270099 L1,7.79281742 C1,8.88107892 1.42556012,9.90445762 2.19614212,10.6742036 C2.96871271,11.4468987 3.99681824,11.8725692 5.09054753,11.8725692 L5.09253613,11.8725692 L6.5143842,11.8725692 L7.03639136,12.3886824 L7.03639136,27.4316611 C7.03738566,29.9512765 9.09260241,32 11.6171285,32 L11.6181228,32 L20.3828715,32 C22.9073976,32 24.9626143,29.9502934 24.9636086,27.4296949 L24.9636086,25.064422 C24.9636086,25.0624558 24.9655972,25.0604897 24.9655972,25.0575405 C24.9655972,25.0545913 24.9636086,25.0526251 24.9636086,25.050659 L24.9636086,15.898252 L26.9074639,15.898252 C29.1635291,15.898252 30.9990057,14.0667875 31,11.8165341 L31,7.10270038 C31,4.85146386 29.1645234,3.01999939 26.9094525,3.01901631 L26.9094525,3.01901631 Z" id="Text-Message" fill="#394762"></path>
    </g>
</svg>