<?xml version="1.0" encoding="UTF-8"?>
<svg width="32px" height="32px" viewBox="0 0 32 32" version="1.1" xmlns="http://www.w3.org/2000/svg" xmlns:xlink="http://www.w3.org/1999/xlink">
    <title>Icon/Decorative/32px/Travel</title>
    <defs>
        <filter id="filter-1">
            <feColorMatrix in="SourceGraphic" type="matrix" values="0 0 0 0 0.223529 0 0 0 0 0.278431 0 0 0 0 0.384314 0 0 0 1.000000 0"></feColorMatrix>
        </filter>
    </defs>
    <g id="Icon/Decorative/32px/Travel" stroke="none" stroke-width="1" fill="none" fill-rule="evenodd" stroke-linecap="round" stroke-linejoin="round">
        <g filter="url(#filter-1)" id="Travel">
            <g transform="translate(1.000000, 1.000000)">
                <path d="M26.1681818,26.3630682 L27.075,25.45625 C27.5749659,24.9562417 27.7718274,24.2283589 27.5920455,23.5445076 L24.3664773,11.2878788 L28.6314394,7.02291667 C30.0766469,5.64229652 30.3230861,3.42378503 29.2160985,1.75965909 C28.5384789,0.803340535 27.473551,0.194589349 26.3056544,0.0959442479 C25.1377577,-0.00270085299 23.9858104,0.418804419 23.1573864,1.24791667 L18.7426136,5.66401515 L6.48863636,2.43977273 C5.80437366,2.25948337 5.07585085,2.45638143 4.57556818,2.95681818 L3.66875,3.86363636 C3.23569583,4.29666483 3.02631241,4.90507113 3.10115715,5.51289334 C3.1760019,6.12071554 3.52672605,6.66015248 4.05189394,6.97518939 L12.4147727,11.9931818 L6.05113636,19.205303 L4.0625,19.2344697 C3.44682265,19.1290747 2.81740076,19.3190796 2.36287879,19.7475379 L0.376893939,21.5664773 C0.143373573,21.7995307 0.0408513248,22.1333475 0.103303257,22.4573003 C0.16575519,22.7812531 0.385025263,23.0530346 0.68844697,23.1825758 L4.52651515,25.3475379 L7.04545455,29.3181818 C7.1758442,29.6211362 7.44780046,29.839858 7.77166929,29.9022426 C8.09553811,29.9646272 8.42928237,29.8625772 8.66287879,29.6297348 L10.3982955,27.9751894 C10.8883886,27.5132947 11.1114127,26.8347426 10.9909091,26.1721591 L11.0227273,24.1768939 L18.0386364,17.6170455 L23.0566288,25.9799242 C23.3716657,26.5050921 23.9111026,26.8558163 24.5189248,26.930661 C25.126747,27.0055058 25.7351534,26.7961224 26.1681818,26.3630682 Z" id="Path" stroke="#394762" stroke-width="1.98863636"></path>
            </g>
        </g>
    </g>
</svg>