<?xml version="1.0" encoding="UTF-8"?>
<svg width="32px" height="32px" viewBox="0 0 32 32" version="1.1" xmlns="http://www.w3.org/2000/svg" xmlns:xlink="http://www.w3.org/1999/xlink">
    <title>Icon/Decorative/32px/UserHeart</title>
    <defs>
        <filter id="filter-1">
            <feColorMatrix in="SourceGraphic" type="matrix" values="0 0 0 0 0.223529 0 0 0 0 0.278431 0 0 0 0 0.384314 0 0 0 1.000000 0"></feColorMatrix>
        </filter>
    </defs>
    <g id="Icon/Decorative/32px/UserHeart" stroke="none" stroke-width="1" fill="none" fill-rule="evenodd">
        <g filter="url(#filter-1)" id="User-Heart">
            <g transform="translate(1.000000, 1.000000)">
                <line x1="15.4845" y1="18.414" x2="15.4845" y2="15.066" id="Stroke-1" stroke="#394762" stroke-width="1.674"></line>
                <path d="M9.35120644,14.8043192 L9.35120644,18.1832593 L2.60787265,20.6847348 C1.04412575,21.2437354 -0.000103903448,22.7253985 -0.000103903448,24.3857756 L-0.000103903448,28.0540869 L14.0268616,28.0540869" id="Stroke-2" stroke="#394762" stroke-width="1.674"></path>
                <path d="M18.9805105,7.86060757 C18.9805105,12.2016936 16.0483552,15.7209034 12.4304371,15.7209034 C8.81303853,15.7209034 5.87984419,12.2016936 5.87984419,7.86060757 C5.87984419,3.52004102 8.81303853,0.000311710345 12.4304371,0.000311710345 C16.0483552,0.000311710345 18.9805105,3.52004102 18.9805105,7.86060757 Z" id="Stroke-4" stroke="#394762" stroke-width="1.674"></path>
                <path d="M18.9450274,7.16476618 C18.7247521,7.19126156 18.5481163,7.16268811 18.3257629,7.20580804 C16.0949558,7.6354488 14.6616078,6.82707997 13.433469,4.67731763 C12.6967936,6.08988501 10.3927346,7.20580804 8.5001333,7.20580804 C7.56967792,7.20580804 6.76598474,7.0146257 5.96436964,6.59433625" id="Stroke-6" stroke="#394762" stroke-width="1.674"></path>
                <path d="M24.2365703,30.1321039 C24.2365703,30.1321039 30.132052,26.8570672 30.132052,21.6125407 C30.132052,17.6860294 25.5462733,17.6860294 24.2365703,21.6166968 C22.9268673,17.6860294 18.3410886,17.6860294 18.3410886,21.9310047 C18.3410886,26.8570672 24.2365703,30.1321039 24.2365703,30.1321039 Z" id="Stroke-8" stroke="#394762" stroke-width="1.674" stroke-linejoin="round"></path>
            </g>
        </g>
    </g>
</svg>