<svg width="32" height="32" viewBox="0 0 32 32" fill="none" xmlns="http://www.w3.org/2000/svg">
<path d="M1 23C1.00101 21.5121 1.37072 20.0477 2.07608 18.7376C2.78143 17.4276 3.80044 16.3127 5.04199 15.4928C6.28354 14.6728 7.70893 14.1733 9.19073 14.0389C10.6725 13.9046 12.1645 14.1395 13.5333 14.7227" stroke="#394762" stroke-width="1.7" stroke-linecap="round" stroke-linejoin="round"/>
<path d="M5.26 3.70801C6.11185 4.5912 7.13297 5.29363 8.26237 5.77334C9.39177 6.25305 10.6063 6.5002 11.8333 6.50001C13.0768 6.50085 14.3072 6.24767 15.4493 5.75601" stroke="#394762" stroke-width="1.7" stroke-linecap="round" stroke-linejoin="round"/>
<path d="M4.5 6.5C4.5 7.95869 5.07946 9.35764 6.11091 10.3891C7.14236 11.4205 8.54131 12 10 12C11.4587 12 12.8576 11.4205 13.8891 10.3891C14.9205 9.35764 15.5 7.95869 15.5 6.5C15.5 5.04131 14.9205 3.64236 13.8891 2.61091C12.8576 1.57946 11.4587 1 10 1C8.54131 1 7.14236 1.57946 6.11091 2.61091C5.07946 3.64236 4.5 5.04131 4.5 6.5V6.5Z" stroke="#394762" stroke-width="1.7" stroke-linecap="round" stroke-linejoin="round"/>
<path d="M23 31L16.1813 23.8867C15.5826 23.2881 15.1874 22.5164 15.0517 21.6807C14.9161 20.8451 15.0468 19.9879 15.4253 19.2307V19.2307C15.7112 18.6589 16.1288 18.1632 16.6438 17.7844C17.1588 17.4057 17.7564 17.1547 18.3874 17.0523C19.0184 16.9498 19.6648 16.9987 20.2731 17.195C20.8815 17.3913 21.4346 17.7294 21.8867 18.1814L23 19.2947L24.1133 18.1814C24.5653 17.7294 25.1182 17.3913 25.7265 17.195C26.3348 16.9987 26.9811 16.9498 27.612 17.0522C28.2429 17.1547 28.8404 17.4057 29.3553 17.7844C29.8702 18.1632 30.2876 18.6589 30.5733 19.2307V19.2307C30.9517 19.9879 31.0824 20.8449 30.9469 21.6804C30.8115 22.5159 30.4168 23.2878 29.8187 23.8867L23 31Z" stroke="#394762" stroke-width="1.7" stroke-linecap="round" stroke-linejoin="round"/>
</svg>
