<svg width="32" height="32" viewBox="0 0 32 32" fill="none" xmlns="http://www.w3.org/2000/svg">
<path fill-rule="evenodd" clip-rule="evenodd" d="M16 7C17.9333 7 19.5 8.56667 19.5 10.5C19.5 12.4333 17.9333 14 16 14C14.0667 14 12.5 12.4333 12.5 10.5C12.5 8.56667 14.0667 7 16 7Z" stroke="#394762" stroke-width="1.7" stroke-linecap="round" stroke-linejoin="round"/>
<path fill-rule="evenodd" clip-rule="evenodd" d="M21 23V20C21 17.2387 18.7613 15 16 15C13.2387 15 11 17.2387 11 20V23H13L14 31H18L19 23H21Z" stroke="#394762" stroke-width="1.7" stroke-linecap="round" stroke-linejoin="round"/>
<path d="M24 9.99066C26.1613 12.8747 26.608 16.696 25.168 20" stroke="#394762" stroke-width="1.7" stroke-linecap="round" stroke-linejoin="round"/>
<path d="M7.99999 9.99066C5.83866 12.8747 5.39199 16.696 6.83199 20" stroke="#394762" stroke-width="1.7" stroke-linecap="round" stroke-linejoin="round"/>
<path d="M4 25C-0.970666 18.372 0.372001 8.97067 7 4C13.628 -0.970666 23.0293 0.372001 28 7C32 12.3333 32 19.6667 28 25" stroke="#394762" stroke-width="1.7" stroke-linecap="round" stroke-linejoin="round"/>
</svg>
