<svg width="32" height="32" viewBox="0 0 32 32" fill="none" xmlns="http://www.w3.org/2000/svg">
<path d="M23 27C22.9011 27 22.8044 27.0293 22.7222 27.0843C22.64 27.1392 22.5759 27.2173 22.5381 27.3087C22.5002 27.4 22.4903 27.5006 22.5096 27.5975C22.5289 27.6945 22.5765 27.7836 22.6464 27.8536C22.7164 27.9235 22.8055 27.9711 22.9025 27.9904C22.9994 28.0097 23.1 27.9998 23.1913 27.9619C23.2827 27.9241 23.3608 27.86 23.4157 27.7778C23.4707 27.6956 23.5 27.5989 23.5 27.5C23.5002 27.4343 23.4874 27.3692 23.4623 27.3085C23.4372 27.2477 23.4004 27.1925 23.3539 27.1461C23.3075 27.0996 23.2523 27.0628 23.1915 27.0377C23.1308 27.0126 23.0657 26.9998 23 27V27Z" stroke="#394762" stroke-width="1.7" stroke-linecap="round" stroke-linejoin="round"/>
<path d="M23 24V20" stroke="#394762" stroke-width="1.7" stroke-linecap="round" stroke-linejoin="round"/>
<path d="M30.7494 27.576C30.9299 27.9367 31.0152 28.3375 30.9971 28.7405C30.9791 29.1434 30.8583 29.535 30.6463 29.8781C30.4342 30.2212 30.138 30.5044 29.7857 30.7008C29.4334 30.8971 29.0367 31.0001 28.6334 31H17.3654C16.962 31.0001 16.5653 30.8971 16.213 30.7008C15.8607 30.5044 15.5645 30.2212 15.3524 29.8781C15.1404 29.535 15.0196 29.1434 15.0016 28.7405C14.9835 28.3375 15.0688 27.9367 15.2494 27.576L20.884 16.3066C21.0805 15.9139 21.3825 15.5836 21.7561 15.3528C22.1297 15.122 22.5602 14.9997 22.9994 14.9997C23.4385 14.9997 23.869 15.122 24.2426 15.3528C24.6162 15.5836 24.9182 15.9139 25.1147 16.3066L30.7494 27.576Z" stroke="#394762" stroke-width="1.7" stroke-linecap="round" stroke-linejoin="round"/>
<path d="M15.4667 15.2C14.7127 14.1996 13.7353 13.3893 12.6125 12.8337C11.4898 12.2781 10.2527 11.9926 9 12C7.04067 11.9846 5.14384 12.6889 3.66925 13.9791C2.19466 15.2694 1.24486 17.056 1 19" stroke="#394762" stroke-width="1.7" stroke-linecap="round" stroke-linejoin="round"/>
<path d="M4.5 5.5C4.5 6.69347 4.97411 7.83807 5.81802 8.68198C6.66193 9.52589 7.80653 10 9 10C10.1935 10 11.3381 9.52589 12.182 8.68198C13.0259 7.83807 13.5 6.69347 13.5 5.5C13.5 4.30653 13.0259 3.16193 12.182 2.31802C11.3381 1.47411 10.1935 1 9 1C7.80653 1 6.66193 1.47411 5.81802 2.31802C4.97411 3.16193 4.5 4.30653 4.5 5.5V5.5Z" stroke="#394762" stroke-width="1.7" stroke-linecap="round" stroke-linejoin="round"/>
<path d="M18.5 4.5C18.5 5.42826 18.8687 6.3185 19.5251 6.97487C20.1815 7.63125 21.0717 8 22 8C22.9283 8 23.8185 7.63125 24.4749 6.97487C25.1313 6.3185 25.5 5.42826 25.5 4.5C25.5 3.57174 25.1313 2.6815 24.4749 2.02513C23.8185 1.36875 22.9283 1 22 1C21.0717 1 20.1815 1.36875 19.5251 2.02513C18.8687 2.6815 18.5 3.57174 18.5 4.5V4.5Z" stroke="#394762" stroke-width="1.7" stroke-linecap="round" stroke-linejoin="round"/>
<path d="M27.2 12C26.7227 11.1737 26.0551 10.4732 25.2528 9.95667C24.4504 9.44008 23.5365 9.12232 22.5867 9.02976C21.637 8.9372 20.6788 9.0725 19.7918 9.42444C18.9049 9.77638 18.1146 10.3348 17.4867 11.0534" stroke="#394762" stroke-width="1.7" stroke-linecap="round" stroke-linejoin="round"/>
</svg>
