<?xml version="1.0" encoding="UTF-8"?>
<svg width="32px" height="32px" viewBox="0 0 32 32" version="1.1" xmlns="http://www.w3.org/2000/svg" xmlns:xlink="http://www.w3.org/1999/xlink">
    <title>Icon/Decorative/32px/Warning</title>
    <defs>
        <filter id="filter-1">
            <feColorMatrix in="SourceGraphic" type="matrix" values="0 0 0 0 0.223529 0 0 0 0 0.278431 0 0 0 0 0.384314 0 0 0 1.000000 0"></feColorMatrix>
        </filter>
    </defs>
    <g id="Icon/Decorative/32px/Warning" stroke="none" stroke-width="1" fill="none" fill-rule="evenodd" stroke-linecap="round" stroke-linejoin="round">
        <g filter="url(#filter-1)" id="Warning">
            <g transform="translate(1.000000, 1.000000)">
                <path d="M22,26 C21.7238576,26 21.5,26.2238576 21.5,26.5 C21.5,26.7761424 21.7238576,27 22,27 C22.2761424,27 22.5,26.7761424 22.5,26.5 C22.5003553,26.3672831 22.447791,26.2398996 22.3539457,26.1460543 C22.2601004,26.052209 22.1327169,25.9996447 22,26 L22,26" id="Path" stroke="#394762" stroke-width="2"></path>
                <line x1="22" y1="23" x2="22" y2="19" id="Path" stroke="#394762" stroke-width="2"></line>
                <path d="M29.7493333,26.576 C30.1163845,27.3093588 30.0773787,28.1805123 29.6462556,28.878133 C29.2151325,29.5757537 28.4534197,30.000281 27.6333333,30.0000001 L16.3653333,30.0000001 C15.545247,30.000281 14.7835341,29.5757537 14.3524111,28.878133 C13.921288,28.1805123 13.8822822,27.3093588 14.2493333,26.576 L19.884,15.3066667 C20.2847818,14.5056428 21.1036408,13.9997126 21.9993333,13.9997126 C22.8950259,13.9997126 23.7138849,14.5056428 24.1146667,15.3066667 L29.7493333,26.576 Z" id="Path" stroke="#394762" stroke-width="2"></path>
                <path d="M14.4666667,14.2 C12.9377554,12.1715511 10.5400692,10.9850672 8,11 C3.9444996,10.9682064 0.506828505,13.9761686 9.99200722e-15,18" id="Path" stroke="#394762" stroke-width="2"></path>
                <path d="M3.5,4.5 C3.5,6.98528137 5.51471863,9 8,9 C10.4852814,9 12.5,6.98528137 12.5,4.5 C12.5,2.01471863 10.4852814,-4.24660307e-14 8,-4.24660307e-14 C5.51471863,-4.24660307e-14 3.5,2.01471863 3.5,4.5 Z" id="Path" stroke="#394762" stroke-width="2"></path>
                <path d="M17.5,3.5 C17.5,5.43299662 19.0670034,7 21,7 C22.9329966,7 24.5,5.43299662 24.5,3.5 C24.5,1.56700338 22.9329966,1.41553436e-14 21,1.41553436e-14 C19.0670034,1.41553436e-14 17.5,1.56700338 17.5,3.5 L17.5,3.5 Z" id="Path" stroke="#394762" stroke-width="2"></path>
                <path d="M26.2,11 C25.2315078,9.32359632 23.5136101,8.21753459 21.5866856,8.0297355 C19.6597611,7.84193641 17.7606253,8.59548011 16.4866667,10.0533333" id="Path" stroke="#394762" stroke-width="2"></path>
            </g>
        </g>
    </g>
</svg>