<svg width="32" height="32" viewBox="0 0 32 32" fill="none" xmlns="http://www.w3.org/2000/svg">
<path d="M16 20C16.0657 19.9998 16.1308 20.0126 16.1915 20.0377C16.2523 20.0628 16.3075 20.0996 16.3539 20.1461C16.4004 20.1925 16.4372 20.2477 16.4623 20.3085C16.4874 20.3692 16.5002 20.4343 16.5 20.5" stroke="#394762" stroke-width="1.7" stroke-linecap="round" stroke-linejoin="round"/>
<path d="M15.504 20.5053C15.5033 20.4396 15.5156 20.3743 15.5401 20.3133C15.5647 20.2523 15.6011 20.1967 15.6471 20.1497C15.6932 20.1028 15.7481 20.0654 15.8086 20.0397C15.8692 20.014 15.9342 20.0005 16 20" stroke="#394762" stroke-width="1.7" stroke-linecap="round" stroke-linejoin="round"/>
<path d="M16 21.0053C15.8674 21.0053 15.7402 20.9526 15.6464 20.8589C15.5527 20.7651 15.5 20.6379 15.5 20.5053" stroke="#394762" stroke-width="1.7" stroke-linecap="round" stroke-linejoin="round"/>
<path d="M16.504 20.5053C16.5042 20.571 16.4914 20.6361 16.4663 20.6969C16.4413 20.7576 16.4044 20.8128 16.358 20.8593C16.3115 20.9057 16.2563 20.9425 16.1956 20.9676C16.1348 20.9927 16.0697 21.0055 16.004 21.0053" stroke="#394762" stroke-width="1.7" stroke-linecap="round" stroke-linejoin="round"/>
<path d="M11.6253 16.312C12.9271 15.4604 14.449 15.0068 16.0046 15.0068C17.5603 15.0068 19.0821 15.4604 20.384 16.312" stroke="#394762" stroke-width="1.7" stroke-linecap="round" stroke-linejoin="round"/>
<path d="M22.8146 13.1519C20.8132 11.7682 18.4378 11.027 16.0046 11.027C13.5715 11.027 11.196 11.7682 9.19464 13.1519" stroke="#394762" stroke-width="1.7" stroke-linecap="round" stroke-linejoin="round"/>
<path d="M28 13.0053C28 23.5386 18.7573 29.4466 16.4947 30.7386C16.3438 30.8248 16.1731 30.8701 15.9993 30.8701C15.8256 30.8701 15.6549 30.8248 15.504 30.7386C13.2413 29.4453 4 23.536 4 13.0053C4 9.82271 5.26428 6.77046 7.51472 4.52003C9.76516 2.26959 12.8174 1.00531 16 1.00531C19.1826 1.00531 22.2348 2.26959 24.4853 4.52003C26.7357 6.77046 28 9.82271 28 13.0053Z" stroke="#394762" stroke-width="1.7" stroke-linecap="round" stroke-linejoin="round"/>
</svg>
