<?xml version="1.0" encoding="UTF-8"?>
<svg width="32px" height="32px" viewBox="0 0 32 32" version="1.1" xmlns="http://www.w3.org/2000/svg" xmlns:xlink="http://www.w3.org/1999/xlink">
    <title>Icon/Decorative/32px/Wifi</title>
    <defs>
        <filter id="filter-1">
            <feColorMatrix in="SourceGraphic" type="matrix" values="0 0 0 0 0.223529 0 0 0 0 0.278431 0 0 0 0 0.384314 0 0 0 1.000000 0"></feColorMatrix>
        </filter>
    </defs>
    <g id="Icon/Decorative/32px/Wifi" stroke="none" stroke-width="1" fill="none" fill-rule="evenodd">
        <g filter="url(#filter-1)" id="Wifi">
            <g transform="translate(3.000000, 0.000000)">
                <path d="M24.0060444,13.0259556 C24.0060444,6.97084444 19.0798222,2.04462222 13.0247111,2.04462222 C6.97048889,2.04462222 2.04426667,6.97084444 2.04426667,13.0259556 C2.04426667,22.8330667 10.4576,28.4028444 13.0362667,29.8766222 C15.5918222,28.4037333 24.0060444,22.8348444 24.0060444,13.0259556 M26.0504889,13.0259556 C26.0504889,23.9361778 16.8478222,30.0410667 14.0264889,31.6517333 C13.7171556,31.8277333 13.3704889,31.9166222 13.0247111,31.9166222 C12.6771556,31.9166222 12.3313778,31.8277333 12.0220444,31.6508444 C9.2016,30.0401778 -0.000177777778,23.9335111 -0.000177777778,13.0259556 C-0.000177777778,5.84373333 5.84248889,0.000177777778 13.0247111,0.000177777778 C20.2078222,0.000177777778 26.0504889,5.84373333 26.0504889,13.0259556 M20.4229333,12.3317333 C16.0007111,9.27484444 10.0584889,9.27484444 5.63626667,12.3317333 C5.17226667,12.6526222 5.05582222,13.2899556 5.37671111,13.7539556 C5.69848889,14.2179556 6.33671111,14.3352889 6.79893333,14.0135111 C10.5260444,11.4366222 15.5322667,11.4348444 19.2602667,14.0135111 C19.4371556,14.1361778 19.6398222,14.1948444 19.8407111,14.1948444 C20.1651556,14.1948444 20.4842667,14.0410667 20.6824889,13.7539556 C21.0033778,13.2899556 20.8869333,12.6526222 20.4229333,12.3317333 M17.9696,15.4775111 C14.9696,13.5157333 11.0913778,13.5157333 8.0896,15.4775111 C7.6176,15.7859556 7.48515556,16.4197333 7.7936,16.8935111 C8.10293333,17.3646222 8.7376,17.4979556 9.20871111,17.1895111 C11.5304889,15.6695111 14.5296,15.6712889 16.8504889,17.1895111 C17.0229333,17.3024 17.2176,17.3557475 17.4096,17.3557475 C17.7429333,17.3557475 18.0691556,17.1921778 18.2656,16.8935111 C18.5749333,16.4197333 18.4424889,15.7859556 17.9696,15.4775111 M14.5447111,20.4935111 C14.5447111,20.5041778 14.5509482,20.5130667 14.5509482,20.5246222 C14.5527111,20.9326222 14.3944889,21.3148444 14.1073778,21.6028444 C13.8202667,21.8917333 13.4380444,22.0499556 13.0318222,22.0499556 C13.0300444,22.0499556 13.0291556,22.0490667 13.0282667,22.0490667 C13.0273778,22.0490667 13.0264889,22.0499556 13.0247111,22.0499556 C12.1856,22.0499556 11.5029333,21.3672889 11.5029333,20.5272889 C11.5029333,20.5130667 11.5109333,20.4997333 11.5118222,20.4855111 C11.5207111,20.0979556 11.6691556,19.7344 11.9420444,19.4561778 C12.2264889,19.1664 12.6069333,19.0046222 13.0140444,19.0001778 C13.0158222,19.0001778 13.0176,19.0010667 13.0184889,19.0010667 C13.0202667,19.0010667 13.0211556,19.0001778 13.0220444,19.0001778 L13.0264889,19.0001778 C13.8558222,19.0001778 14.5296,19.6677333 14.5447111,20.4935111" id="Fill-1" fill="#394762"></path>
            </g>
        </g>
    </g>
</svg>