<?xml version="1.0" encoding="UTF-8"?>
<svg width="32px" height="32px" viewBox="0 0 32 32" version="1.1" xmlns="http://www.w3.org/2000/svg" xmlns:xlink="http://www.w3.org/1999/xlink">
    <title>Icon/Decorative/32px/Wireless</title>
    <defs>
        <filter id="filter-1">
            <feColorMatrix in="SourceGraphic" type="matrix" values="0 0 0 0 0.223529 0 0 0 0 0.278431 0 0 0 0 0.384314 0 0 0 1.000000 0"></feColorMatrix>
        </filter>
    </defs>
    <g id="Icon/Decorative/32px/Wireless" stroke="none" stroke-width="1" fill="none" fill-rule="evenodd" stroke-linecap="round" stroke-linejoin="round">
        <g filter="url(#filter-1)" id="Wireless">
            <g transform="translate(2.000000, 1.000000)">
                <line x1="11.5" y1="26" x2="0.5" y2="26" id="Path" stroke="#394762" stroke-width="2"></line>
                <path d="M0.5,16 L5.5,16 C5.95364717,15.9484284 6.37165099,15.7292023 6.672,15.3853333 L12.072,10.0666667 L17.1773333,11.088 C17.5223832,11.1563234 17.8242954,11.3632112 18.0125535,11.6603414 C18.2008116,11.9574717 18.2589297,12.3188244 18.1733333,12.66 L18.0666667,13.084 C17.9402711,13.5918924 17.518254,13.9722353 17,14.0453333 L14.4986667,14.408 C14.1946601,14.4384094 13.9161779,14.5914059 13.7274743,14.8316884 C13.5387708,15.0719709 13.456147,15.3787829 13.4986667,15.6813333 L13.4986667,19.0906667 C13.4149982,19.4792612 13.2094665,19.8310007 12.912,20.0946667 L10.1426667,22.2853333" id="Path" stroke="#394762" stroke-width="2"></path>
                <path d="M27.5,23.6666667 C27.5126364,24.3895484 26.9375258,24.986136 26.2146667,25 L24.2853333,25 C23.352,25 22.764,24.932 22.3573333,23.6666667 C21.7439602,20.5838346 21.3147557,17.4672047 21.072,14.3333333 C21.072,13.6666667 21.7146667,13 23,13 L26.2146667,13 C26.9375258,13.013864 27.5126364,13.6104516 27.5,14.3333333 L27.5,23.6666667 Z" id="Path" stroke="#394762" stroke-width="2"></path>
                <path d="M25.5,25 L25.5,28 C25.5,29.1045695 24.6045695,30 23.5,30 L13.5,30 C12.3954305,30 11.5,29.1045695 11.5,28 L11.5,26" id="Path" stroke="#394762" stroke-width="2"></path>
                <path d="M11.5,10.6333333 L11.5,7 C11.5,5.8954305 12.3954305,5 13.5,5 L23.5,5 C24.6045695,5 25.5,5.8954305 25.5,7 L25.5,13" id="Path" stroke="#394762" stroke-width="2"></path>
                <path d="M6.04266667,0 C3.06912793,1.59353125 1.34675558,4.81995447 1.67733333,8.17733333" id="Path" stroke="#394762" stroke-width="2"></path>
                <path d="M8.14133333,2.73333333 C6.08120472,3.83647314 4.888278,6.07182943 5.11866667,8.39733333" id="Path" stroke="#394762" stroke-width="2"></path>
            </g>
        </g>
    </g>
</svg>