<svg fill="none" height="30" viewBox="0 0 177 30" width="177" xmlns="http://www.w3.org/2000/svg"><path d="m155.923 9.02347c3.25-3.42852 7.862-2.46783 9.166.43892.305-.03349.397-.31552.566-.49885 1.849-1.97426 4.121-2.53305 6.67-1.84734 2.029.54468 2.946 2.11529 3.249 4.0807.11.7843.163 1.5755.158 2.3674.018 2.9667 0 5.9333.02 8.8983 0 .5764-.162.7474-.739.7615-3.328.0758-3.758-.3279-3.758-3.6683 0-2.0271.023-4.0543-.01-6.0797-.016-.9254.042-1.939-1.058-2.3973-.92-.3825-2.188.0159-2.997.9519-.927 1.0576-1.302 2.3462-1.311 3.737-.014 2.2316-.023 4.4632.009 6.6984 0 .5764-.157.7791-.739.758-.998-.037-1.999-.0459-2.997 0-.648.0335-.779-.2292-.774-.8162.025-2.7604.013-5.5209.009-8.2848 0-.3808-.017-.7633-.051-1.1423-.072-.8302-.326-1.5741-1.181-1.9002-.911-.3526-1.749-.1058-2.45.5288-1.162 1.0453-1.636 2.4326-1.685 3.9362-.074 2.2598-.071 4.5214-.05 6.7812 0 .6699-.141.9519-.87.9026-.966-.0653-1.939-.0335-2.907 0-.457.0105-.608-.1446-.608-.6064.014-4.9357.014-9.8713 0-14.807 0-.45479.128-.64165.597-.60463.409.03349.822 0 1.234 0 1.491.03349 1.959.36137 2.507 1.8121z" fill="#03aeee"/><g fill="#20407a"><path d="m104.826 21.7628c-3.671 2.3479-8.6265.8355-10.2464-3.143-1.1176-2.7428-1.1035-5.4944.2079-8.1791.9184-1.88435 2.452-3.05658 4.4915-3.49373 2.195-.47242 4.261-.17627 6.062 1.28857.827-.99595 2.708-1.53005 3.908-1.13696.386.12692.256.41952.257.6522.013 1.90905 0 3.81812 0 5.72712v8.1086c0 4.2306-2.311 6.9628-6.492 7.6644-2.508.4213-4.8984.0088-7.2094-1.0136-.5394-.238-.7262-.4883-.4265-1.0577.245-.4636.3825-.9835.5923-1.4665.4689-1.0771.9747-1.3397 2.0906-.9713 1.2223.4268 2.521.589 3.811.4759 2.032-.1992 3.185-1.5635 2.954-3.4549zm-6.2997-7.051c-.024.8824.1852 1.7556.6064 2.5313.2944.5276.737.9572 1.2733 1.2358.536.2785 1.142.3937 1.743.3313 1.41-.164 2.221-.8497 2.616-2.2228.289-1.0048.273-2.0272.132-3.0478-.24-1.7381-1.276-2.6441-3.104-2.7322-1.514-.0776-2.6444.7826-3.0781 2.3409-.1352.5117-.1987 1.0397-.1886 1.5688z"/><path d="m12.9015 11.4049c2.9402 2.0624 3.8516 4.4668 2.8204 7.43-.8691 2.4854-2.8293 3.6312-5.2742 4.0966-1.88962.3525-3.8057.1251-5.70945.1762-1.14402.0282-2.29155-.0158-3.43381.0159-.468885.0141-.585236-.1428-.583473-.594.012339-6.3988.000014-12.79751.014116-19.19624 0-1.32382.951867-2.2651 2.280967-2.27921 1.96722-.01939 3.93266 0 5.89987 0 .82338.00563 1.63988.15044 2.41498.42834 1.9901.70509 3.395 1.9919 3.7775 4.13009.3861 2.16817-.1533 4.07368-1.909 5.52792-.097.0688-.178.1534-.2979.2644zm-7.86007 5.4381h-.05818c0 .6169.02115 1.2339 0 1.8491-.01939.4442.11459.6363.58877.6258 1.14578-.0247 2.29155.0264 3.43557-.0194 1.60761-.0617 2.61411-1.1617 2.64411-2.8098.037-1.7628-.9378-2.9456-2.58416-3.0637-.90605-.0652-1.81914-.0458-2.72871-.0299-.7474.0123-1.23393.3966-1.28681 1.1651-.05288.7686-.01059 1.5213-.01059 2.2828zm0-9.03933h-.05112c0 .52882.0141 1.05765 0 1.58647-.01234.35254.07579.54468.48122.52882 1.08232-.02292 2.1682.03171 3.24875-.03704 1.27446-.08108 2.11532-1.12109 2.15052-2.55243.0406-1.38728-.7051-2.37088-1.99012-2.57712-.87079-.14102-1.75219-.0899-2.6265-.0423-.7051.03878-1.14222.46183-1.19863 1.16516-.0617.64164-.02117 1.28681-.02117 1.92844z"/><path d="m68.5758 7.1479c-1.285 1.91257-2.4519 3.6612-3.633 5.401-.4442.654-1.2233 1.2569-1.2885 1.939-.0582.6029.6927 1.2639 1.033 1.9285 1.0417 2.0359 2.2333 3.9855 3.4179 5.9386.1445.2398.3772.4478.3631.8461-1.4648-.0264-2.9191.0864-4.3733-.0793-.9237-.104-1.4314-.7315-1.8333-1.4772-.7632-1.4102-1.516-2.8415-2.2722-4.264-.0729-.1596-.1559-.3145-.2485-.4636-.3067-.4319-.7827-.4142-1.1987-.3208s-.1939.4971-.1974.7544c-.0176 1.7011-.03 3.4056 0 5.1119.0106.5588-.1199.7845-.7209.7598-1.1123-.0423-2.2299-.03-3.3492 0-.4813.0123-.6611-.1181-.6593-.6381.0164-6.9558.0164-13.91211 0-20.86904 0-.57289.1992-.70511.7051-.66985.6434.03702 1.2921.00001 1.939.01235 1.3485.03173 1.9795.62928 2.0571 1.99188.0388.67336.0088 1.35025.0088 2.02538 0 2.14172-.0105 4.28522.0124 6.42698 0 .3402-.2539.8813.2062.9959.5835.141 1.2339.1181 1.6394-.5288.8196-1.285 1.7063-2.5313 2.4678-3.84807.4371-.75445.9413-1.04706 1.8191-.98889 1.2974.07756 2.5842.01586 4.1054.01586z"/><path d="m81.6024 8.94592c1.6693-1.72925 3.5572-2.32506 5.7289-2.09943 2.8997.30143 4.7065 1.96368 4.8352 4.86161.1621 3.7018.0687 7.4035.1005 11.1052 0 .3367-.1429.4002-.4178.3949-.7051-.0141-1.4102.0229-2.1153-.0405-1.4578-.1323-2.0959-.825-2.1065-2.2916-.0194-2.3497 0-4.6995-.0106-7.0509 0-.9396.0565-1.9849-.9412-2.4855-.9978-.5006-2.0836-.2503-3.0179.3314-1.4754.9166-1.9143 2.3815-1.9284 4.0102-.0194 2.2334-.03 4.4668.0106 6.6984.0106.6575-.1658.8814-.8338.8391-1.0577-.0564-2.1153-.0317-3.173 0-.4688.0106-.6751-.0952-.6715-.6276.0176-4.9356.0176-9.8713 0-14.80694 0-.51824.1762-.67513.6592-.63811.379.03173.7633 0 1.1458 0 1.2551-.00176 2.3762.21331 2.7358 1.79977z"/><path d="m43.6684 6.86059c4.9356 0 8.3853 3.41971 8.38 8.32541 0 4.8017-3.5131 8.2567-8.3853 8.262-4.8722.0052-8.3977-3.4903-8.3906-8.3572 0-4.8158 3.4902-8.23021 8.3959-8.23021zm-3.841 8.25671c0 2.0148.8814 3.5254 2.4132 4.1247 2.8062 1.0894 5.4504-1.0241 5.2988-4.2517-.0846-1.7927-.7281-3.2875-2.5155-3.9838-2.7005-1.05054-5.1895.9396-5.1965 4.1108z"/><path d="m25.7659 6.86059c4.8792 0 8.3624 3.45141 8.3677 8.27071.0052 4.8194-3.5467 8.3237-8.4471 8.3131-4.844-.0106-8.3695-3.5113-8.3659-8.3025.0035-4.8616 3.4973-8.29542 8.4453-8.28131zm-3.8939 8.30251c0 1.315.3631 2.4837 1.3537 3.4056 1.5865 1.4666 4.2606 1.2039 5.5227-.5394 1.137-1.5724 1.144-4.1372.0141-5.7254-.4663-.6502-1.129-1.1336-1.8905-1.3791-.7615-.2456-1.5817-.2405-2.3401.0148-1.6516.5217-2.6564 2.1205-2.6564 4.2235z"/></g><path d="m141.587 6.86235c4.888 0 8.403 3.44265 8.413 8.23725.011 4.8246-3.555 8.3554-8.428 8.3448-4.905-.0123-8.404-3.4937-8.395-8.3571.007-4.807 3.504-8.22672 8.41-8.22495zm3.844 8.28485c0-.2062.014-.4125 0-.617-.176-1.9866-1.572-3.5501-3.36-3.751-1.877-.2098-3.465.8073-4.084 2.6282-.409 1.1753-.388 2.4577.06 3.6189.68 1.8191 2.366 2.7569 4.275 2.4079s3.121-1.9954 3.109-4.2852z" fill="#03aeee"/><path d="m126.08 6.8606c1.526 0 2.979.29086 4.29 1.09643 1.342.8232 2.137 3.14997 1.587 4.51617-.108.2679-.304.2309-.497.2326-.617 0-1.234-.0105-1.851 0-.767.0194-1.329-.319-1.578-1.0259-.238-.6786-.767-.8426-1.356-.9342-3.023-.4777-5.401 2.1646-4.798 5.3199.48 2.5066 2.889 4.0173 5.447 3.4144 1.207-.277 2.312-.8878 3.189-1.7627.307-.3032.478-.3367.705.0775.428.7674.883 1.5201 1.364 2.2581.244.372.177.6328-.125.9131-2.644 2.4079-5.725 3.1535-9.141 2.2122-3.194-.8813-5.236-3.0213-5.805-6.2964-1.044-6.055 3.27-10.0829 8.569-10.0212z" fill="#03aeee"/><path d="m69.8501 15.1842c0-2.4325.0176-4.8651-.0123-7.29593-.0088-.56936.1357-.79852.7262-.74916.728.06169 1.4666.01056 2.1911.10046.9765.11987 1.5071.68041 1.6676 1.64639.0511.31824.0758.64016.074.96247 0 4.16357-.0124 8.32717.0193 12.48897 0 .6945-.1762.9237-.8813.8814-.9658-.0547-1.9339-.0547-2.8997 0-.6434.0335-.862-.1375-.8514-.8197.0423-2.4044.0176-4.8087.0176-7.2131z" fill="#20407a"/><path d="m71.9743.338454c.3529-.010798.7044.04881 1.034.175349.3296.126538.6307.317478.8857.561657.255.24418.4588.53671.5996.86052.1407.3238.2155.67239.22 1.02543.0015.71163-.2767 1.39537-.7746 1.90382-.4979.50846-1.1756.80091-1.8871.81432-.3507.00509-.699-.05895-1.0249-.18845-.326-.1295-.6233-.32192-.8749-.56631-.2515-.24438-.4525-.53592-.5914-.85797-.1389-.32206-.213-.66834-.2181-1.01904s.0589-.69896.1884-1.02491c.1295-.32596.3219-.62323.5663-.87481.2444-.251584.536-.452568.858-.59148.3221-.138912.6683-.213033 1.019-.218126z" fill="#20407a"/><path d="m113.989 23.3826c-.359.0118-.716-.0483-1.052-.1768-.335-.1285-.642-.3227-.901-.5713s-.466-.5466-.608-.8763c-.142-.3298-.217-.6846-.221-1.0438-.003-.3591.066-.7153.202-1.0475.137-.3322.338-.6337.593-.8869.255-.2531.558-.4528.891-.5872s.689-.2008 1.049-.1953c1.457-.0106 2.727 1.2339 2.728 2.6723-.005.7124-.288 1.3945-.789 1.9012s-1.18.7979-1.892.8116z" fill="#03aeee"/></svg>