<svg fill="none" height="40" viewBox="0 0 209 40" width="209" xmlns="http://www.w3.org/2000/svg" xmlns:xlink="http://www.w3.org/1999/xlink"><clipPath id="a"><path d="m0 0h208.029v40h-208.029z"/></clipPath><g clip-path="url(#a)" fill="#0caa41"><path d="m22.5628 8.76148h-4.8115c-.1262 0-.2472.05014-.3365.13939-.0892.08925-.1394.2103-.1394.33652v2.56041c-1.2135-1.9798-3.7739-3.59789-7.1386-3.59789-5.43959 0-10.1129963 4.09279-10.1129963 11.42179s4.4497363 11.279 10.2890963 11.279c3.1458 0 5.6205-1.2992 7.0577-3.3694v1.3944c0 3.1457-1.5276 5.6633-6.4247 5.6633-2.29273.0385-4.51085-.8146-6.18682-2.3796-.05271-.0422-.11337-.0734-.17838-.0918-.06501-.0183-.13304-.0235-.20006-.015-.06703.0084-.13167.0302-.19011.0641-.05843.0339-.10946.0792-.15007.1332l-2.15586 3.6406c-.27126.4759-.22368.7187-.04283.8995 2.24628 1.9322 5.16835 3.1458 9.38963 3.1458 9.2136 0 11.8977-5.1256 11.8977-10.7841v-19.96431c-.0145-.13719-.0816-.26344-.1872-.35219s-.2415-.1331-.3791-.12372zm-10.8745 16.81382c-3.27901 0-5.75373-2.3367-5.75373-5.887s2.46996-5.8917 5.75373-5.8917c3.2837 0 5.7109 2.251 5.7109 5.8917s-2.4319 5.887-5.7109 5.887zm21.9774-25.080326v29.706126c0 .1262-.0502.2473-.1394.3365-.0893.0893-.2103.1394-.3365.1394h-4.8543c-.1243-.0058-.242-.0578-.3301-.1458-.088-.088-.14-.2057-.1458-.3301v-29.706126c.0058-.124352.0578-.242062.1458-.330087.0881-.0880256.2058-.1400271.3301-.1458201h4.8543c.1254.0012539.2452.0519491.3334.1410631.0882.089115.1377.209446.1377.334844zm14.2867 7.790606c-4.583 0-8.0428 1.52766-9.6181 4.58302-.0558.108-.0681.2332-.0345.35.0337.1168.1107.2163.2154.2782l3.5074 2.5175c.0525.0364.1117.0618.1742.0748s.127.0133.1896.0008c.0626-.0124.122-.0373.1748-.0732s.0978-.082.1324-.1356c.9899-1.7514 3.1458-2.3367 5.235-2.3367 2.608 0 3.8073.8994 3.8073 2.1986v.3617c0 .5378-.3141.8091-1.1232.8995l-6.0249.5378c-4.0453.4045-7.0102 2.8554-7.0102 6.8768s3.0554 6.8341 7.4147 6.8341c3.417 0 5.6204-1.6657 6.7436-3.4171v2.47c0 .1262.0501.2473.1394.3365.0892.0893.2103.1394.3365.1394h4.8066c.1263 0 .2473-.0501.3366-.1394.0892-.0892.1394-.2103.1394-.3365v-13.0922c.0761-6.1107-3.1601-8.92802-9.542-8.92802zm3.8073 13.57282c0 2.4272-1.9798 4.4926-5.0351 4.4926-2.0226 0-3.0982-.8995-3.0982-2.3367 0-1.2136.9518-2.1559 2.6937-2.4271l5.4396-.6758zm28.8542 2.2035c0 4.9875-3.6407 7.1386-9.4848 7.1386-4.0452 0-7.5051-1.0803-9.4848-3.3313-.0652-.0918-.1002-.2016-.1002-.3141 0-.1126.035-.2224.1002-.3141l2.7888-3.5931c.0411-.0546.0936-.0996.1537-.1321s.1265-.0516.1947-.0561.1365.0057.2004.0299c.0639.0243.1218.062.1698.1107 1.4848 1.4848 3.7311 2.4271 6.5628 2.4271 1.6181 0 2.922-.4474 2.922-1.6609 0-1.2136-1.1707-1.4277-4.8542-2.2511-3.2362-.671-7.2814-2.1558-7.2814-6.9197 0-4.4497 3.5074-6.96723 9.2564-6.96723 3.7787 0 6.4723 1.12314 8.4045 2.92203.0834.0906.1336.2068.1422.3296.0087.1228-.0247.2449-.0946.3462l-2.6508 3.417c-.0383.0507-.0863.0932-.1412.125s-.1157.0523-.1786.0603c-.063.0079-.127.0032-.1881-.0139s-.1182-.0462-.1679-.0857c-1.304-1.166-3.4598-1.9036-5.5729-1.9036-1.7989 0-2.7888.5853-2.7888 1.5276 0 1.0803 1.1708 1.3469 5.078 2.2035 3.7929.8661 7.0291 2.3034 7.0291 6.8911zm22.2441 0c0 4.9875-3.6409 7.1386-9.4802 7.1386-4.0452 0-7.5051-1.0803-9.4849-3.3313-.0651-.0918-.1001-.2016-.1001-.3141 0-.1126.035-.2224.1001-.3141l2.7888-3.5931c.0412-.0546.0936-.0996.1538-.1321.0601-.0325.1265-.0516.1947-.0561s.1365.0057.2004.0299c.0639.0243.1218.062.1698.1107 1.48 1.4848 3.7263 2.4271 6.558 2.4271 1.618 0 2.922-.4474 2.922-1.6609 0-1.2136-1.1659-1.4277-4.8542-2.2511-3.2362-.671-7.2814-2.1558-7.2814-6.9197 0-4.4497 3.5074-6.96723 9.2612-6.96723 3.7739 0 6.472 1.12314 8.404 2.92203.084.0907.134.2073.142.3303.007.1231-.027.245-.099.3455l-2.6505 3.417c-.0383.0507-.0863.0932-.1412.125s-.1157.0523-.1786.0603c-.063.0079-.1269.0032-.1881-.0139-.0611-.0171-.1182-.0462-.1679-.0857-1.2992-1.166-3.4598-1.9036-5.5729-1.9036-1.7941 0-2.784.5853-2.784 1.5276 0 1.0803 1.166 1.3469 5.0779 2.2035 3.7882.8661 7.0243 2.3034 7.0243 6.8911zm25.751-24.0475896h-4.807c-.126 0-.247.0501397-.336.1393896-.089.08925-.139.210299-.139.336518v11.421782c-.826-1.1821-1.931-2.14147-3.217-2.79252-1.286-.65104-2.714-.9735-4.155-.9386-5.345 0-9.885 4.13562-9.885 11.55022 0 7.4147 4.54 11.5075 9.994 11.5075 1.421.0447 2.83-.2646 4.101-.9001 1.271-.6356 2.364-1.5774 3.181-2.7406v2.5794c0 .1262.05.2473.139.3365.089.0893.21.1394.337.1394h4.806c.126 0 .247-.0501.337-.1394.089-.0892.139-.2103.139-.3365v-29.725156c-.006-.122876-.06-.238598-.149-.322891-.09-.0842922-.209-.13060665-.332-.12922286zm-10.874 25.6180896c-3.279 0-5.754-2.3367-5.754-5.887 0-3.5502 2.475-5.887 5.754-5.887s5.791 2.2321 5.791 5.8727c0 3.6407-2.541 5.887-5.777 5.887zm26.741-17.39441c-6.739 0-11.774 4.63061-11.774 11.50741 0 6.8769 5.035 11.5075 11.774 11.5075s11.774-4.6306 11.774-11.5075c0-6.8768-5.016-11.52169-11.76-11.52169zm0 17.30401c-1.156-.0029-2.285-.3482-3.244-.9925s-1.706-1.5586-2.146-2.6273-.553-2.2438-.325-3.3767c.228-1.133.786-2.173 1.605-2.9885s1.861-1.3699 2.995-1.5932 2.309-.1053 3.376.3389c1.066.4442 1.978 1.1947 2.618 2.1567s.981 2.0923.979 3.2479c-.047 3.5313-2.565 5.8204-5.844 5.8204zm26.741-17.30401c-6.743 0-11.774 4.63061-11.774 11.50741 0 6.8769 5.031 11.5075 11.774 11.5075 6.744 0 11.798-4.6449 11.798-11.5218 0-6.8768-4.997-11.50739-11.784-11.50739zm0 17.30401c-1.156-.0029-2.284-.3482-3.244-.9925-.959-.6443-1.706-1.5586-2.146-2.6273s-.553-2.2438-.325-3.3767c.228-1.133.787-2.173 1.605-2.9885.819-.8155 1.861-1.3699 2.995-1.5932s2.309-.1053 3.376.3389 1.978 1.1947 2.618 2.1567c.641.962.981 2.0923.98 3.2479 0 3.5313-2.518 5.8204-5.845 5.8204zm30.787-16.26654c-.009-.11384-.047-.22353-.11-.31853-.064-.09501-.15-.17214-.252-.224-.781-.32602-1.626-.46457-2.47-.40452-3.055 0-5.797 1.52766-6.967 4.04519v-3.11241c0-.12622-.05-.24727-.14-.33652-.089-.08925-.21-.13939-.336-.13939h-4.583c-.126 0-.248.05014-.337.13939s-.139.2103-.139.33652v20.93991c0 .1262.05.2473.139.3365.089.0893.211.1394.337.1394h4.806c.127 0 .248-.0501.337-.1394.089-.0892.139-.2103.139-.3365v-9.4372c.015-4.2261 2.96-6.2915 6.768-6.2915.75-.0111 1.496.1114 2.203.3617.074.025.152.0315.229.0191s.15-.0435.212-.0905c.062-.0469.111-.1083.144-.1789.033-.0705.047-.148.043-.2256z"/><path d="m204.535 7.54786c-.002-.1608.019-.32111.062-.47591.04-.14672.099-.28753.176-.4188.076-.12974.167-.24963.272-.35693.108-.10377.228-.19479.357-.27126.129-.07798.268-.13726.414-.17609.31-.09341.641-.09341.951 0 .148.03796.289.09728.419.17609.129.07647.249.16749.357.27126.105.1073.196.22719.271.35693.077.13127.136.27208.176.4188.044.1548.065.31511.062.47591.002.16077-.018.32101-.062.4759-.041.14491-.1.28404-.176.41405-.148.26255-.365.47972-.628.62819-.13.07881-.271.13813-.419.17609-.311.08689-.64.08689-.951 0-.146-.03883-.285-.09812-.414-.17609-.263-.14847-.48-.36564-.629-.62819-.076-.13001-.135-.26914-.176-.41405-.043-.15483-.064-.31512-.062-.4759zm.238 0c0 .13809.018.27561.053.40928.033.13029.084.25525.152.3712.066.11113.145.21483.233.30935.091.09212.193.17211.305.23795.113.0661.235.11729.361.15229.132.0347.268.05229.405.05235.203.00202.404-.03852.59-.11898.363-.15683.652-.44859.804-.8138.081-.18946.122-.39367.119-.59964 0-.13805-.018-.2755-.052-.40928-.037-.12892-.088-.25339-.152-.37121-.066-.11286-.146-.21682-.238-.30934-.091-.09392-.193-.17553-.305-.24271-.112-.06803-.234-.11933-.362-.15229-.329-.09468-.681-.0711-.994.06663-.276.12249-.51.32291-.673.57658s-.248.54952-.246.85114zm1.162.21892v.84711h-.372v-2.13682h.69c.214-.01499.428.03833.61.15229.066.05084.12.11742.154.19381.035.07639.051.16022.045.24402.005.13966-.041.27626-.128.38549-.1.11195-.234.1887-.381.21891.026.015.048.03433.067.05711l.057.08567.547.79952h-.357c-.023.00077-.045-.00456-.065-.01544-.02-.01087-.037-.0269-.049-.04643l-.476-.72338c-.014-.01942-.031-.03565-.052-.04759-.032-.00654-.064-.00654-.095 0zm0-.27603h.28c.074.01067.15.01067.224 0 .053-.01408.103-.03832.148-.07139.036-.03237.064-.07325.08-.11897.008-.05365.008-.10817 0-.16181.011-.05025.011-.10205 0-.15229-.012-.04291-.037-.08109-.071-.10946-.04-.03249-.087-.05528-.138-.06663-.068-.00871-.137-.00871-.205 0h-.318z"/></g></svg>