<svg fill="none" height="34" viewBox="0 0 197 34" width="197" xmlns="http://www.w3.org/2000/svg" xmlns:xlink="http://www.w3.org/1999/xlink"><clipPath id="a"><path d="m0 0h196.305v34h-196.305z"/></clipPath><g clip-path="url(#a)"><path d="m42.4293 33.6818-.8334-.1251-.6566-.1768-.4767-.1799-.4604-.2317-.4329-.2887-.4055-.3475-.248-.2684-.2368-.3018-.3192-.5123-.2713-.5915-.2216-.6738-.1606-.7673-.1037-.8639-.0345-.9635v-1.1282l-.002-.4035v-.809l-.0041-.4014v-.4035l-.0041-.4015-.004-.4004-.0051-.4005-.0041-.3973-.0061-.3944-.0061-.3953-.0081-.3934-.0081-.3892-.0082-.3903-.0081-.3872-.0142-.3812-.0082-.3811-.0101-.3791-.0143-.376-.0142-.373-.0142-.369-.0163-.3648-.0162-.3619-.0173-.3597-.0163-.3568-.0203-.3486-.0193-.3476-.0203-.3435-.0234-.3395-.0193-.3353-.0265-.3283-.0243-.3263-.0244-.3181-.0244-.3181-.0295-.3069-.0295-.307-.0274-.2988-.0305-.2957-.0325-.2877-.0336-.2845-.0325-.2775-.0325-.2703-.0386-.2684-.0356-.2601-.0376-.2511-.0386-.249-.0417-.24086-.0376-.23478-.0447-.22664-.0407-.22156-.0467-.21547-.0448-.20733-.0457-.20226-.0478-.19615-.0477-.18497-.0488-.1799-.0529-.17481-.0518-.16566-.0539-.15754-.0528-.15245-.0559-.1433-.0559-.13518-.0579-.13009-.058-.12196-.063-.11383-.06-.10468-.062-.0996-.064-.09148-.063-.08232-.0671-.07521-.0691-.06606-.065-.05793-.0691-.05285-.0722-.04371-.0722-.03658-.0731-.02745-.0732-.01931-.0773-.01321-.0762-.00305h4.8256l.0793.00305.0742.01321.0752.01931.0752.02745.0691.03658.0732.04371.0681.05285.0681.05793.0691.06606.0661.07521.063.08232.065.09148.061.0996.062.10468.0579.11383.061.12196.0569.13009.057.13518.0559.1433.0538.15245.0519.15754.0528.16566.0508.17481.0488.1799.0508.18497.0468.19615.0477.20226.0448.20733.0416.21547.0458.22156.0416.22664.0407.23478.0386.24086.0417.249.0356.2511.0355.2601.0356.2684.0356.2703.0325.2775.0335.2845.0305.2877.0315.2957.0275.2988.0305.307.0274.3069.0254.3181.0254.3181.0254.3263.0224.3283.0213.3353.0254.3395.0194.3435.0213.3476.0163.3486.0183.3568.0182.3597.0163.3619.0132.3648.0163.369.0122.373.0132.376.0122.3791.0122.3811.0081.3812.0112.3872.0112.3903.004.3892.0061.3934.0082.3953.005.3944.0061.3973.0041.4005.0041.4004.003.4015.0021.4035v.4014l.0061.4055v1.2004l.0304.7104.0732.4949.0864.3344.0834.2185.0985.1911.1098.1667.0793.0955.0904.0884.0925.0783.0996.0691.1616.0854.1718.066.1839.0498.2684.0387.3618.0203.5071-.0203.2206-.0183v4.2961l-.4645.0579-1.0671.0559z" fill="#222020"/><path d="m20.4468 29.3207h-.125l-.1027-.0021-.1036-.0091-.1047-.0112-.1037-.0163-.1026-.0193-.1027-.0213-.1047-.0285-.1067-.0305-.1036-.0366-.1047-.0355-.1067-.0417-.1037-.0437-.1057-.0498-.1057-.0528-.1047-.0559-.1047-.06-.1077-.064-.1037-.0661-.1067-.0722-.1098-.0742-.1046-.0782-.1078-.0823-.1057-.0864-.1067-.0885-.1087-.0924-.1078-.0976-.1067-.0996-.1087-.1027-.1078-.1077-.1067-.1108-.1087-.1158-.1108-.1169-.1077-.121-.1078-.125-.1067-.129-.1128-.1312-.1067-.1351-.1098-.1372-.1097-.1423-.1088-.1433-.1108-.1484-.1097-.1535-.1098-.1545-.1108-.1544-.1098-.1627-.1097-.1636-.1128-.1667-.1118-.1707-.1118-.1708-.1098-.1778-.1128-.1769-.1098-.1829-.1118-.184-.1118-.186-.1118-.191-.1128-.1931-.1128-.1942-.1128-.1971-.1118-.2003-.1118-.2022-.1108-.2043-.1159-.2083-.1128-.2104-.1128-.2094-.1148-.2165-.1108-.2144-.1159-.2196-.1128-.2205-.1148-.2246-.1118-.2236-.1159-.2267-.1148-.2266-.1118-.2297-.1169-.2327-.1159-.2338-.1138-.2327-.1138-.2379-.1169-.2388-.1159-.2368-.1148-.2409-.1159-.2439-.1169-.2429-.1158-.2439-.1139-.245-.1179-.2459-.1158-.247-.1149-.248-.1158-.249-.12-.249-.1179-.2521-.1148-.249-.1159-.251-.1189-.252-.11687-.2511-.11688-.2551-.11992-.251-.11485-.2521-.12095-.2541-.11484-.252-.12095-.2511-.11484-.2551-.11993-.252-.12095-.251-.11484-.2521-.11993-.248-.12095-.252-.11789-.249-.1179-.2511-.11993-.249-.12094-.2459-.11892-.247-.12094-.246-.11891-.2459-.12095-.24293-.11993-.24087-.12094-.24291-.11891-.23782-.11993-.23884-.11993-.23681-.12095-.23478-.12196-.23274-.12094-.23274-.12095-.22868-.11993-.22766-.12196-.22665-.12196-.22359-.12094-.22157-.12298-.22156-.11993-.21445-.12196-.21648-.12196-.21241-.12501-.21039-.11891-.20733-.124-.2053-.12298-.19819-.12297-.1992-.12298-.19616-.12298-.19412-.12094-.19107-.12501-.18803-.124-.18192-.12196-.18294-.12501-.17685-.12094-.17379-.12502-.17176-.12399-.16567-.12399-.16363-.12501-.16058-.12298-.15652-.12501-.15042-.124-.1494-.12297-.14635-.12603-.14128-.12603-.13517-.12602-.13314-.124-.13009-.12399-.124-.12603-.11891-.12704-.11586-.12399-.11282-.12501-.10875-.12603-.101631-.12501-.096552-.12705-.09452-.12602-.091471-.12603-.082324-.12602-.080291-.129081-.07521-.122977-.07216-.129076-.063014-.12501-.06098-.127043-.055899-.12806-.05285-.126026-.0426865-.126027-.04167007h.0132125l2.2125775.04167007 2.06521.0426865 1.83755.05285 1.59973.055899 1.39544.06098 1.22568.063014 1.0865.07216.9726.07521.8761.080291.7999.082324.7318.091471.6728.09452.624.096552.5844.101631.5417.10875.5092.11282.4777.11586.4523.11891.4258.124.4045.13009.3822.13314.3669.13517.3496.14128.3323.14635.3171.1494.3029.15042.2937.15652.2775.16058.2683.16363.2602.16567.247.17176.2378.17379.2327.17685.2185.18294.2165.18192.2053.18803.2023.19107.1931.19412.187.19616.1789.1992.1778.19819.1687.2053.1637.20733.1616.21039.1524.21241.1494.21648.1464.21445.1433.22156.1362.22157.1331.22359.1301.22665.1271.22766.125.22868.1189.23274.1169.23274.1148.23478.1118.23681.1067.23884.1088.23782.1026.24291.1047.24087.0986.24293.1006.2459.0945.246.0945.247.0915.2459.0915.249.0884.2511.0905.249.0813.252.0853.248.0824.2521.0803.251.0813.252.0792.2551.0773.2511.0762.252.0742.2541.0701.2521.0762.251.0702.2551.0701.2511.0691.252.0691.251.0671.249.0661.2521.0111.0356.0539.2134.0651.249.062.248.063.247.061.2459.062.245.0599.2439.061.2429.0569.2439.059.2409.0579.2368.0528.2388.059.2379.0539.2327.0548.2338.0519.2327.0549.2297.0538.2266.0488.2267.0529.2236.0498.2246.0508.2205.0498.2196.0498.2144.0498.2165.0467.2094.0478.2104.0478.2083.0477.2043.0458.2022.0467.2003.0427.1971.0468.1942.0437.1931.0426.191.0448.186.0416.184.0437.1829.0407.1769.0437.1778.0427.1708.0417.1707.0406.1667.0396.1636.0387.1627.0426.1544.0397.1545.0376.1535.0396.1484.0397.1433.0376.1423.0376.1372.0376.1351.0356.1312.0386.129.0366.125.0365.121.0397.1169.0335.1158.0346.1108.0356.1077.0355.1027.0356.0996.0356.0976.0335.0924.0346.0885.0345.0864.0336.0823.0335.0782.0335.0742.0326.0722.0325.0661.0325.064.0325.06.0326.0559.0325.0528.0315.0498.0325.0437.0305.0417.0325.0355.0336.0366.0254.0265.003.004.0325.0285.0285.0213.0295.0193.0335.0163.0275.0112.0304.0091.0295.0021z" fill="#cf202e"/><path d="m47.1238 6.05142h4.8296v4.37438h-4.8296zm0 7.73948h4.8673v19.7415h-4.8673zm5.7881 0h5.1366l4.0623 12.2297c.3842 1.1616.6515 2.9778.6921 2.9778h.0742c.0397 0 .309-1.8162.6911-2.9778l4.0644-12.2297h5.1366l-7.0148 19.7404h-5.7505zm28.8743-.4645c5.6346 0 8.6644 4.1426 8.6644 9.3656 0 .5804-.1159 1.8975-.1159 1.8975h-13.493c.3059 3.4444 2.9504 5.2251 5.8643 5.2251 3.1415 0 5.6336-2.1679 5.6336-2.1679l1.8782 3.5237s-2.987 2.8254-7.8563 2.8254c-6.4792 0-10.5029-4.7219-10.5029-10.3362 0-6.0747 4.1009-10.3332 9.9276-10.3332zm3.7554 7.895c-.0742-2.6679-1.7227-4.101-3.8702-4.101-2.4911 0-4.2179 1.5479-4.6762 4.101zm7.2648 8.0525s2.1455 2.3609 5.7485 2.3609c2.0711 0 3.8731-1.0448 3.8731-3.0968 0-4.2584-10.3879-3.2136-10.3879-9.5597 0-3.484 3.106-5.3805 6.592-5.3805 4.0629 0 5.9409 2.1292 5.9409 2.1292l-1.187 2.0134s-1.647-1.7806-4.8311-1.7806c-1.9524 0-3.8327.8517-3.8327 3.0195 0 4.2951 10.3888 3.1334 10.3888 9.5598 0 3.174-2.722 5.4577-6.5927 5.4577-4.6772 0-7.1317-2.8254-7.1317-2.8254zm16.0796-12.7734h-2.531v-2.2065h2.569v-5.61025h2.568v5.61125h4.832v2.2065h-4.832v9.6756c0 4.5684 2.875 5.1488 4.334 5.1488.535 0 .877-.0773.877-.0773v2.3579s-.421.0803-1.108.0803c-2.225 0-6.71-.7358-6.71-7.2394v-9.9469zm9.929-2.4383h2.571v3.4455c0 .8517-.079 1.5478-.079 1.5478h.079c.918-2.9423 3.064-5.1874 6.094-5.1874.347.0036.693.0424 1.032.1159v2.5937s-.457-.0772-.954-.0772c-2.723 0-4.755 2.1678-5.6 5.0298-.383 1.239-.535 2.5551-.535 3.793v8.208h-2.608zm19.359-.4644c5.327 0 8.049 4.1426 8.049 8.9814 0 .4614-.076 1.3518-.076 1.3518h-14.797c.115 4.9943 3.489 7.7038 7.474 7.7038 3.527 0 5.866-2.3609 5.866-2.3609l1.188 2.0123s-2.798 2.7096-7.129 2.7096c-5.751 0-10.083-4.1812-10.083-10.1817.001-6.3837 4.295-10.2163 9.508-10.2163zm5.406 8.1673c-.156-4.0643-2.606-5.9608-5.484-5.9608-3.22 0-6.017 2.052-6.63 5.9608zm15.861-.2724h1.073v-.501c0-3.7544-2.031-5.0319-4.793-5.0319-3.18 0-5.444 1.8578-5.444 1.8578l-1.224-2.0123s2.53-2.2065 6.863-2.2065c4.636 0 7.203 2.5937 7.203 7.4711v12.4645h-2.49v-2.1303c0-.9675.075-1.6261.075-1.6261h-.075s-1.61 4.2188-6.439 4.2188c-3.22 0-6.557-1.8995-6.557-5.7677-.001-6.5788 8.471-6.7364 11.808-6.7364zm-4.831 10.258c3.68 0 5.904-3.8723 5.904-7.2394v-.8517h-1.115c-3.025 0-9.082.1158-9.082 4.414 0 1.8162 1.416 3.6771 4.293 3.6771zm12.6-17.6885h2.565v2.9027c0 .8517-.076 1.5479-.076 1.5479h.076c.92-2.6323 3.987-4.916 6.98-4.916 3.564 0 5.401 1.6647 5.976 4.8774h.079c1.034-2.6323 3.831-4.8774 7.091-4.8774 4.677 0 6.404 2.7492 6.404 7.5463v12.3882h-2.609v-11.7265c0-3.1741-.653-5.8074-4.177-5.8074-2.952 0-5.368 2.6333-6.096 5.4943-.269.8517-.343 1.7807-.343 2.8255v9.2141h-2.607v-11.7265c0-2.9454-.423-5.8074-4.064-5.8074-3.143 0-5.518 2.7482-6.326 5.7301-.19.8121-.266 1.7004-.266 2.5907v9.2142h-2.606v-19.4702z" fill="#222020"/></g></svg>