<svg fill="none" height="40" viewBox="0 0 97 40" width="97" xmlns="http://www.w3.org/2000/svg"><g fill="#635bff"><g clip-rule="evenodd" fill-rule="evenodd"><path d="m96.1282 20.6676c0-6.8358-3.3111-12.22961-9.6395-12.22961-6.3551 0-10.2002 5.39381-10.2002 12.17621 0 8.0374 4.5393 12.0962 11.0547 12.0962 3.1776 0 5.5808-.721 7.3965-1.7357v-5.3404c-1.8157.9078-3.8985 1.4686-6.542 1.4686-2.5902 0-4.8866-.9079-5.1803-4.0588h13.0574c0-.3471.0534-1.7356.0534-2.3765zm-13.1909-2.5367c0-3.0173 1.8425-4.2723 3.5247-4.2723 1.6288 0 3.3645 1.255 3.3645 4.2723z"/><path d="m65.9813 8.43799c-2.6169 0-4.2991 1.2283-5.2337 2.08281l-.3471-1.65558h-5.8745v31.13488l6.6756-1.4152.0267-7.5568c.9612.6943 2.3765 1.6823 4.7263 1.6823 4.7797 0 9.1321-3.8452 9.1321-12.3098-.0267-7.7437-4.4325-11.96261-9.1054-11.96261zm-1.6022 18.39791c-1.5754 0-2.51-.5608-3.1508-1.2551l-.0267-9.9065c.6942-.7744 1.6555-1.3084 3.1775-1.3084 2.4299 0 4.1122 2.7236 4.1122 6.2216 0 3.5781-1.6556 6.2484-4.1122 6.2484z"/><path d="m45.3405 6.86248 6.7022-1.44192v-5.42056l-6.7022 1.41522z"/></g><path d="m52.0427 8.89185h-6.7022v23.36445h6.7022z"/><path clip-rule="evenodd" d="m38.1576 10.8678-.4273-1.97595h-5.7677v23.36445h6.6756v-15.8344c1.5755-2.0561 4.2457-1.6822 5.0735-1.3885v-6.14155c-.8545-.32042-3.9787-.90787-5.5541 1.97595z" fill-rule="evenodd"/><path clip-rule="evenodd" d="m24.8063 3.09753-6.5153 1.38852-.0267 21.38855c0 3.9519 2.9639 6.8625 6.9159 6.8625 2.1896 0 3.7917-.4006 4.6729-.8812v-5.4206c-.8545.3471-5.0735 1.5755-5.0735-2.3765v-9.4793h5.0735v-5.68757h-5.0735z" fill-rule="evenodd"/><path clip-rule="evenodd" d="m6.75568 15.6743c0-1.0414.85447-1.4419 2.26969-1.4419 2.02933 0 4.59283.6141 6.62213 1.7089v-6.27501c-2.2163-.88117-4.4058-1.2283-6.62213-1.2283-5.42056 0-9.02537 2.83041-9.02537 7.55671 0 7.3699 10.1469 6.195 10.1469 9.3725 0 1.2283-1.06813 1.6289-2.56345 1.6289-2.21629 0-5.04673-.9079-7.289725-2.1362v6.3551c2.483315 1.0681 4.993325 1.5221 7.289725 1.5221 5.55405 0 9.37245-2.7504 9.37245-7.5301-.0267-7.9573-10.20022-6.542-10.20022-9.5327z" fill-rule="evenodd"/></g></svg>