<svg width="105" height="32" viewBox="0 0 105 32" fill="none" xmlns="http://www.w3.org/2000/svg">
<g clip-path="url(#clip0)">
<path d="M7.6288 10.752L7.62624 4.08447H0V24.1024L3.81312 27.9155L14.2976 27.9168V20.288H7.6288V18.3808H14.2976V10.752H7.6288Z" fill="#9146FF"/>
<path d="M35.264 10.752V20.288H33.3568V10.752H25.7408V20.288H23.8336V10.752H16.2048V24.1024L20.0179 27.9155L42.8928 27.9168V10.752H35.264Z" fill="#9146FF"/>
<path d="M44.8 10.752H52.4288V27.9155H44.8025L44.8 10.752Z" fill="#9146FF"/>
<path d="M44.8025 4.08447H52.4288V8.85761H44.8L44.8025 4.08447Z" fill="#9146FF"/>
<path d="M74.3552 10.752L70.5408 14.5702V24.1024L74.3539 27.9155L85.7984 27.9168V20.288H78.1696V18.3808H85.7984V10.752H74.3552Z" fill="#9146FF"/>
<path d="M101.043 10.7521H95.3344V4.08325H87.7056V27.9169H95.3216V18.3809H97.2288V27.9169L104.858 27.9156V14.5703L101.043 10.7521Z" fill="#9146FF"/>
<path d="M61.9648 10.7521L61.961 4.08453L54.336 4.08325V24.1025L58.1478 27.9156H68.6336V20.2893L61.9648 20.2881V18.3809H68.6336V10.7521H61.9648Z" fill="#9146FF"/>
</g>
<defs>
<clipPath id="clip0">
<rect width="104.858" height="32" fill="white"/>
</clipPath>
</defs>
</svg>
