<svg fill="none" height="32" viewBox="0 0 105 32" width="105" xmlns="http://www.w3.org/2000/svg" xmlns:xlink="http://www.w3.org/1999/xlink"><clipPath id="a"><path d="m0 0h104.858v32h-104.858z"/></clipPath><g clip-path="url(#a)" fill="#9146ff"><path d="m7.6288 10.752-.00256-6.66753h-7.62624v20.01793l3.81312 3.8131 10.48448.0013v-7.6288h-6.6688v-1.9072h6.6688v-7.6288z"/><path d="m35.264 10.752v9.536h-1.9072v-9.536h-7.616v9.536h-1.9072v-9.536h-7.6288v13.3504l3.8131 3.8131 22.8749.0013v-17.1648z"/><path d="m44.8 10.752h7.6288v17.1635h-7.6263z"/><path d="m44.8025 4.08447h7.6263v4.77314h-7.6288z"/><path d="m74.3552 10.752-3.8144 3.8182v9.5322l3.8131 3.8131 11.4445.0013v-7.6288h-7.6288v-1.9072h7.6288v-7.6288z"/><path d="m101.043 10.7521h-5.7086v-6.66885h-7.6288v23.83365h7.616v-9.536h1.9072v9.536l7.6292-.0013v-13.3453z"/><path d="m61.9648 10.7521-.0038-6.66757-7.625-.00128v20.01925l3.8118 3.8131h10.4858v-7.6263l-6.6688-.0012v-1.9072h6.6688v-7.6288z"/></g></svg>