<svg fill="none" height="22" viewBox="0 0 125 22" width="125" xmlns="http://www.w3.org/2000/svg" xmlns:xlink="http://www.w3.org/1999/xlink"><clipPath id="a"><path d="m0 0h125v22h-125z"/></clipPath><g clip-path="url(#a)"><path clip-rule="evenodd" d="m26.87 21.937h5.5699v-21.776996h-5.5699zm36.84.006 5.56-.012v-21.759003h-5.56zm-63.7300195-21.791999h5.5899695l5.45005 12.554999h.38l5.5399-12.558997 5.7101-.007995-9.52 21.799992-3.54003.012zm36.7700195.018005 5.5699.006989 5.4301 12.534005h.41l5.49-12.540994 5.71.006989-9.47 21.761005-3.56.011zm39.72-.018005h3.92c.5.7.93 1.330989 1.37 1.899989h.38c5.56-4.223 14.08-1.577004 14.08 5.585l-.01 14.30501h-5.42l-.05-13.42299c-.27-4.463-6.9-5.10001-8.19-.56101-.3675 1.43898-.5059 2.9269-.41 4.409l.01 9.586-5.7101-.011zm37-.1619873c6.35 0 11.53 4.9439663 11.53 10.9829863-.069 2.9914-1.322 5.8333-3.483 7.9023-2.162 2.0691-5.055 3.1964-8.047 3.1347v-4.57c1.662-.0209 3.25-.696 4.418-1.8791 1.168-1.183 1.824-2.7787 1.824-4.4414 0-1.66266-.656-3.25839-1.824-4.44144s-2.756-1.85814-4.418-1.87906zm0 22.0199863c-2.992.0617-5.885-1.0656-8.047-3.1347-2.161-2.069-3.414-4.9109-3.483-7.9023 0-6.03902 5.18-10.9829863 11.53-10.9829863v4.8109763c-1.663.02091-3.25.69604-4.418 1.87909s-1.823 2.77877-1.823 4.44142c0 1.6627.655 3.2584 1.823 4.4414 1.168 1.1831 2.755 1.8582 4.418 1.8791v4.57z" fill="#a61a30" fill-rule="evenodd"/></g></svg>