<svg width="183" height="40" viewBox="0 0 183 40" fill="none" xmlns="http://www.w3.org/2000/svg">
<g clip-path="url(#clip0)">
<path d="M137.601 10.3084C137.602 10.0342 137.658 9.76284 137.766 9.51077C137.874 9.2587 138.031 9.03111 138.23 8.84172C138.428 8.65233 138.663 8.50506 138.919 8.40879C139.176 8.31253 139.45 8.26926 139.724 8.2816C140.117 8.30271 140.496 8.43865 140.812 8.67261C141.129 8.90657 141.37 9.22828 141.506 9.59794C141.642 9.9676 141.667 10.369 141.577 10.7525C141.487 11.1359 141.287 11.4846 141.001 11.7555C140.715 12.0263 140.356 12.2074 139.968 12.2763C139.58 12.3452 139.181 12.2989 138.819 12.1431C138.457 11.9874 138.149 11.729 137.933 11.4C137.716 11.0709 137.601 10.6856 137.601 10.2918V10.3084Z" fill="#32393C"/>
<path d="M141.26 14.6651C141.305 14.6651 141.347 14.6826 141.378 14.7138C141.409 14.7449 141.427 14.7872 141.427 14.8312V27.8974C141.427 27.9414 141.409 27.9837 141.378 28.0148C141.347 28.046 141.305 28.0635 141.26 28.0635H138.245C138.201 28.0635 138.159 28.046 138.128 28.0148C138.097 27.9837 138.079 27.9414 138.079 27.8974V14.8312C138.079 14.7872 138.097 14.7449 138.128 14.7138C138.159 14.6826 138.201 14.6651 138.245 14.6651H141.26Z" fill="#32393C"/>
<path d="M30.6262 24.824L41.0301 11.6042C41.039 11.5915 41.0443 11.5766 41.0455 11.5611C41.0468 11.5457 41.0439 11.5301 41.0371 11.5162C41.0303 11.5022 41.0199 11.4903 41.007 11.4817C40.9941 11.4731 40.9791 11.468 40.9636 11.4672H30.9169C30.8951 11.4672 30.8735 11.4629 30.8533 11.4545C30.8332 11.4462 30.8148 11.4339 30.7994 11.4185C30.784 11.4031 30.7718 11.3848 30.7634 11.3646C30.7551 11.3444 30.7508 11.3228 30.7508 11.301V8.46435C30.7508 8.44253 30.7551 8.42093 30.7634 8.40077C30.7718 8.38062 30.784 8.3623 30.7994 8.34688C30.8148 8.33145 30.8332 8.31921 30.8533 8.31086C30.8735 8.30252 30.8951 8.29822 30.9169 8.29822H45.7814C45.8032 8.29822 45.8248 8.30252 45.845 8.31086C45.8651 8.31921 45.8834 8.33145 45.8989 8.34688C45.9143 8.3623 45.9265 8.38062 45.9349 8.40077C45.9432 8.42093 45.9475 8.44253 45.9475 8.46435V11.409C45.9469 11.4558 45.9309 11.5011 45.9018 11.5378L35.3983 24.7493C35.3892 24.7613 35.3836 24.7756 35.382 24.7906C35.3805 24.8056 35.383 24.8208 35.3894 24.8345C35.3958 24.8481 35.4058 24.8598 35.4184 24.8682C35.4309 24.8766 35.4455 24.8814 35.4606 24.8822H45.7814C45.8255 24.8822 45.8677 24.8997 45.8989 24.9308C45.93 24.962 45.9475 25.0042 45.9475 25.0483V27.8974C45.9475 27.9192 45.9432 27.9408 45.9349 27.961C45.9265 27.9812 45.9143 27.9995 45.8989 28.0149C45.8834 28.0303 45.8651 28.0426 45.845 28.0509C45.8248 28.0593 45.8032 28.0636 45.7814 28.0636H30.7508C30.7289 28.0636 30.7073 28.0593 30.6872 28.0509C30.667 28.0426 30.6487 28.0303 30.6333 28.0149C30.6179 27.9995 30.6056 27.9812 30.5973 27.961C30.5889 27.9408 30.5846 27.9192 30.5846 27.8974V24.9528C30.5837 24.9064 30.5983 24.8611 30.6262 24.824Z" fill="#32393C"/>
<path d="M70.3687 8.46435C70.3687 8.44253 70.373 8.42093 70.3813 8.40077C70.3897 8.38062 70.4019 8.3623 70.4173 8.34688C70.4327 8.33145 70.4511 8.31921 70.4712 8.31086C70.4914 8.30252 70.513 8.29822 70.5348 8.29822H76.7148C82.4006 8.29822 84.606 10.3748 84.606 13.9674C84.606 17.643 81.9313 19.1839 80.1662 19.3999C80.1563 19.4013 80.1468 19.4052 80.1387 19.411C80.1306 19.4169 80.124 19.4247 80.1195 19.4336C80.115 19.4426 80.1128 19.4525 80.113 19.4626C80.1131 19.4726 80.1157 19.4824 80.1205 19.4912L85.1626 27.8767C85.1735 27.8956 85.1792 27.9171 85.1792 27.939C85.1792 27.9609 85.1735 27.9824 85.1625 28.0013C85.1516 28.0202 85.1358 28.036 85.1169 28.0469C85.0979 28.0578 85.0764 28.0636 85.0546 28.0636H81.1547C81.1174 28.0632 81.0809 28.0531 81.0488 28.0341C81.0167 28.0152 80.9902 27.9881 80.9719 27.9556L76.4906 19.7529C76.4784 19.7342 76.4618 19.7187 76.4422 19.7078C76.4227 19.697 76.4008 19.691 76.3784 19.6906H73.9695C73.9475 19.6906 73.9264 19.6993 73.9108 19.7149C73.8952 19.7305 73.8865 19.7516 73.8865 19.7737V27.8974C73.8865 27.9192 73.8822 27.9408 73.8738 27.961C73.8655 27.9812 73.8532 27.9995 73.8378 28.0149C73.8224 28.0303 73.8041 28.0426 73.7839 28.0509C73.7637 28.0593 73.7421 28.0636 73.7203 28.0636H70.5348C70.513 28.0636 70.4914 28.0593 70.4712 28.0509C70.4511 28.0426 70.4327 28.0303 70.4173 28.0149C70.4019 27.9995 70.3897 27.9812 70.3813 27.961C70.373 27.9408 70.3687 27.9192 70.3687 27.8974V8.46435ZM76.8519 16.6753C79.4227 16.6753 81.1297 16.0856 81.1297 13.9383C81.1297 12.1192 79.9045 11.3135 76.9266 11.3135H73.9695C73.9586 11.3135 73.9478 11.3156 73.9377 11.3198C73.9277 11.324 73.9185 11.3301 73.9108 11.3378C73.9031 11.3455 73.897 11.3547 73.8928 11.3648C73.8886 11.3748 73.8865 11.3856 73.8865 11.3965V16.5881C73.8865 16.6101 73.8952 16.6313 73.9108 16.6469C73.9264 16.6624 73.9475 16.6712 73.9695 16.6712L76.8519 16.6753Z" fill="#32393C"/>
<path d="M110.024 18.565C110.009 18.5806 109.991 18.593 109.971 18.6014C109.951 18.6099 109.929 18.6143 109.908 18.6143C109.886 18.6143 109.864 18.6099 109.845 18.6014C109.825 18.593 109.806 18.5806 109.791 18.565C109.1 17.8369 108.157 17.4002 107.154 17.344C105.671 17.344 103.416 18.3325 103.416 21.3643C103.416 24.4585 105.854 25.3847 107.25 25.3847C108.219 25.3531 109.142 24.9571 109.833 24.2758C109.848 24.2582 109.867 24.2441 109.888 24.2344C109.909 24.2247 109.932 24.2197 109.955 24.2197C109.979 24.2197 110.002 24.2247 110.023 24.2344C110.044 24.2441 110.063 24.2582 110.078 24.2758L112.071 26.4188C112.087 26.4343 112.1 26.4527 112.108 26.473C112.117 26.4934 112.121 26.5152 112.121 26.5372C112.121 26.5592 112.117 26.581 112.108 26.6014C112.1 26.6217 112.087 26.6401 112.071 26.6556C110.775 27.8074 109.096 28.4339 107.362 28.4124C103.977 28.4124 100.077 26.2029 100.077 21.3768C100.077 16.6836 103.715 14.3412 107.362 14.3412C109.13 14.3346 110.831 15.0203 112.101 16.2517C112.117 16.2676 112.13 16.2866 112.139 16.3076C112.148 16.3287 112.153 16.3513 112.153 16.3742C112.153 16.3971 112.148 16.4197 112.139 16.4407C112.13 16.4618 112.117 16.4808 112.101 16.4967L110.024 18.565Z" fill="#32393C"/>
<path d="M88.6138 22.5356C88.6018 22.5354 88.5899 22.5379 88.5789 22.5428C88.5679 22.5478 88.5581 22.555 88.5502 22.5641C88.5423 22.5732 88.5365 22.5839 88.5331 22.5955C88.5298 22.607 88.529 22.6192 88.5308 22.6311C88.7052 24.1553 90.3707 25.7211 92.1192 25.7211C93.9425 25.7211 94.8063 24.9611 95.6204 24.0224C95.6478 23.9908 95.6861 23.9707 95.7276 23.9661C95.7692 23.9614 95.811 23.9727 95.8447 23.9975L97.9836 25.6131C98.0193 25.6424 98.042 25.6846 98.0467 25.7305C98.0513 25.7764 98.0376 25.8223 98.0085 25.8582C97.3356 26.6744 96.4862 27.3273 95.5243 27.7676C94.5624 28.2079 93.5132 28.4241 92.4556 28.4C88.5931 28.4 85.1666 25.7751 85.1666 21.3644C85.1666 17.1405 88.3522 14.3287 92.2479 14.3287C95.8986 14.3287 98.7353 17.3814 98.7353 21.6135V22.3694C98.7353 22.4135 98.7178 22.4558 98.6867 22.4869C98.6555 22.5181 98.6132 22.5356 98.5692 22.5356H88.6138ZM95.2964 20.0436C95.3184 20.0436 95.3396 20.0349 95.3552 20.0193C95.3707 20.0037 95.3795 19.9826 95.3795 19.9606C95.3397 19.117 94.9733 18.3221 94.3579 17.7438C93.7424 17.1656 92.9262 16.8494 92.0818 16.8622C91.2124 16.8184 90.3594 17.1104 89.6993 17.6778C89.0391 18.2452 88.6223 19.0446 88.5349 19.9107C88.5331 19.9226 88.5339 19.9348 88.5373 19.9463C88.5406 19.9579 88.5465 19.9686 88.5544 19.9777C88.5623 19.9868 88.572 19.994 88.583 19.999C88.594 20.0039 88.606 20.0064 88.618 20.0062L95.2964 20.0436Z" fill="#32393C"/>
<path d="M157.35 22.5356C157.338 22.5354 157.326 22.5379 157.315 22.5428C157.304 22.5478 157.295 22.555 157.287 22.5641C157.279 22.5732 157.273 22.5839 157.27 22.5955C157.266 22.607 157.265 22.6192 157.267 22.6311C157.442 24.1553 159.107 25.7211 160.856 25.7211C162.679 25.7211 163.543 24.9611 164.357 24.0224C164.384 23.9908 164.422 23.9707 164.464 23.9661C164.506 23.9614 164.547 23.9727 164.581 23.9975L166.72 25.6131C166.756 25.6424 166.778 25.6846 166.783 25.7305C166.788 25.7764 166.774 25.8223 166.745 25.8582C166.072 26.6744 165.223 27.3273 164.261 27.7676C163.299 28.2079 162.25 28.4241 161.192 28.4C157.33 28.4 153.903 25.7751 153.903 21.3644C153.903 17.1405 157.089 14.3287 160.984 14.3287C164.635 14.3287 167.472 17.3814 167.472 21.6135V22.3694C167.472 22.4135 167.454 22.4558 167.423 22.4869C167.392 22.5181 167.35 22.5356 167.306 22.5356H157.35ZM164.033 20.0436C164.055 20.0436 164.076 20.0349 164.092 20.0193C164.107 20.0037 164.116 19.9826 164.116 19.9606C164.081 19.1148 163.718 18.3158 163.104 17.7334C162.49 17.151 161.673 16.831 160.827 16.8415C159.953 16.7958 159.095 17.0896 158.432 17.6616C157.77 18.2335 157.354 19.0394 157.271 19.9107C157.27 19.9226 157.27 19.9348 157.274 19.9463C157.277 19.9579 157.283 19.9686 157.291 19.9777C157.299 19.9868 157.308 19.994 157.319 19.999C157.33 20.0039 157.342 20.0064 157.354 20.0062L164.033 20.0436Z" fill="#32393C"/>
<path d="M113.953 14.6651H116.586C116.624 14.6645 116.662 14.6775 116.691 14.7019C116.721 14.7262 116.741 14.7603 116.748 14.798L117.138 16.7875H117.192C118.605 14.0255 121.948 14.4409 122.226 14.4949C122.305 14.4949 122.359 14.5821 122.359 14.7482V17.3357C122.359 17.3586 122.354 17.3813 122.345 17.4023C122.336 17.4233 122.323 17.4422 122.306 17.4578C122.289 17.4734 122.27 17.4854 122.248 17.4929C122.226 17.5005 122.203 17.5035 122.18 17.5018C121.792 17.4217 121.397 17.3772 121.001 17.3689C118.837 17.3689 117.296 19.3085 117.138 21.9583V27.8974C117.138 27.9192 117.134 27.9408 117.126 27.961C117.117 27.9811 117.105 27.9995 117.09 28.0149C117.074 28.0303 117.056 28.0425 117.036 28.0509C117.016 28.0592 116.994 28.0635 116.972 28.0635H113.953C113.931 28.0635 113.909 28.0592 113.889 28.0509C113.869 28.0425 113.851 28.0303 113.835 28.0149C113.82 27.9995 113.808 27.9811 113.799 27.961C113.791 27.9408 113.787 27.9192 113.787 27.8974V14.8313C113.787 14.7872 113.804 14.745 113.835 14.7138C113.867 14.6826 113.909 14.6651 113.953 14.6651Z" fill="#32393C"/>
<path d="M169.374 14.6651H172.007C172.045 14.6653 172.082 14.6786 172.112 14.7028C172.141 14.727 172.161 14.7607 172.169 14.798L172.559 16.7875H172.613C174.026 14.0255 177.365 14.4409 177.643 14.4949C177.722 14.4949 177.78 14.5821 177.78 14.7482V17.3357C177.78 17.3586 177.775 17.3813 177.766 17.4023C177.757 17.4233 177.744 17.4422 177.727 17.4578C177.71 17.4734 177.691 17.4854 177.669 17.4929C177.647 17.5005 177.624 17.5035 177.601 17.5018C177.213 17.4217 176.818 17.3772 176.422 17.3689C174.254 17.3689 172.717 19.3085 172.559 21.9583V27.8974C172.559 27.9192 172.555 27.9408 172.547 27.961C172.538 27.9811 172.526 27.9995 172.511 28.0149C172.495 28.0303 172.477 28.0425 172.457 28.0509C172.437 28.0592 172.415 28.0635 172.393 28.0635H169.374C169.352 28.0635 169.33 28.0592 169.31 28.0509C169.29 28.0425 169.272 28.0303 169.256 28.0149C169.241 27.9995 169.229 27.9811 169.22 27.961C169.212 27.9408 169.208 27.9192 169.208 27.8974V14.8313C169.208 14.7872 169.225 14.745 169.256 14.7138C169.288 14.6826 169.33 14.6651 169.374 14.6651Z" fill="#32393C"/>
<path d="M143.167 17.344V14.8521C143.167 14.8302 143.171 14.8086 143.18 14.7885C143.188 14.7683 143.2 14.75 143.216 14.7346C143.231 14.7192 143.249 14.7069 143.269 14.6986C143.29 14.6902 143.311 14.6859 143.333 14.6859H145.846C145.868 14.6859 145.889 14.6772 145.904 14.6616C145.92 14.646 145.929 14.6249 145.929 14.6029V12.1441C145.929 12.1105 145.939 12.0776 145.958 12.0501C145.978 12.0225 146.005 12.0017 146.037 11.9905L149.056 10.8649C149.082 10.8565 149.108 10.8541 149.135 10.8579C149.161 10.8618 149.186 10.8718 149.208 10.8872C149.23 10.9025 149.248 10.9228 149.261 10.9464C149.273 10.9699 149.28 10.9961 149.28 11.0228V14.5821C149.28 14.6041 149.289 14.6253 149.305 14.6408C149.32 14.6564 149.342 14.6652 149.364 14.6652H152.798C152.842 14.6652 152.885 14.6827 152.916 14.7138C152.947 14.745 152.964 14.7872 152.964 14.8313V17.3232C152.964 17.3673 152.947 17.4096 152.916 17.4407C152.885 17.4719 152.842 17.4894 152.798 17.4894H149.364C149.342 17.4894 149.32 17.4981 149.305 17.5137C149.289 17.5293 149.28 17.5504 149.28 17.5724V23.3538C149.28 24.5167 149.476 25.5301 151.149 25.5301C151.718 25.5385 152.283 25.4341 152.811 25.2227C152.83 25.2141 152.85 25.2105 152.871 25.2123C152.892 25.2141 152.912 25.2211 152.929 25.2328C152.946 25.2445 152.96 25.2605 152.969 25.2791C152.978 25.2977 152.982 25.3183 152.981 25.339V27.8019C152.982 27.8415 152.971 27.8804 152.949 27.9137C152.928 27.947 152.897 27.9731 152.861 27.9888C152.048 28.273 151.192 28.4135 150.331 28.4041C148.711 28.4041 147.611 28.0511 147.009 27.4364C146.406 26.8217 145.958 25.9537 145.958 23.657V17.5932C145.958 17.5712 145.949 17.5501 145.934 17.5345C145.918 17.5189 145.897 17.5101 145.875 17.5101H143.362C143.338 17.5144 143.313 17.5133 143.29 17.5069C143.266 17.5005 143.244 17.489 143.225 17.4731C143.207 17.4572 143.192 17.4374 143.182 17.4151C143.172 17.3928 143.167 17.3685 143.167 17.344Z" fill="#32393C"/>
<path d="M129.677 25.5093C128.34 25.5093 127.214 24.6786 127.185 23.1917V14.8229C127.185 14.8008 127.181 14.7788 127.172 14.7584C127.164 14.7379 127.151 14.7194 127.135 14.704C127.119 14.6885 127.1 14.6763 127.08 14.6682C127.059 14.6601 127.037 14.6562 127.015 14.6568H123.996C123.974 14.6562 123.952 14.6601 123.931 14.6683C123.911 14.6764 123.892 14.6886 123.877 14.7042C123.861 14.7197 123.849 14.7383 123.841 14.7587C123.833 14.7791 123.829 14.801 123.829 14.8229V22.7889C123.829 26.0533 126.267 28.3958 129.644 28.3958H129.727C133.104 28.3958 135.542 26.0533 135.542 22.7889V14.8229C135.542 14.801 135.538 14.7791 135.53 14.7587C135.522 14.7383 135.51 14.7197 135.494 14.7042C135.479 14.6886 135.46 14.6764 135.44 14.6683C135.419 14.6601 135.397 14.6562 135.375 14.6568H132.352C132.33 14.6562 132.308 14.6601 132.288 14.6683C132.267 14.6764 132.249 14.6886 132.233 14.7042C132.218 14.7197 132.205 14.7383 132.197 14.7587C132.189 14.7791 132.185 14.801 132.186 14.8229V23.1917C132.148 24.6744 131.023 25.5093 129.694 25.5093H129.677Z" fill="#32393C"/>
<path d="M57.5101 26.4397C57.5081 26.4263 57.5108 26.4126 57.5179 26.401C57.5249 26.3894 57.5358 26.3807 57.5486 26.3762C57.5614 26.3718 57.5753 26.372 57.588 26.3767C57.6007 26.3815 57.6113 26.3905 57.618 26.4023C58.4778 27.532 60.2263 28.4042 62.1451 28.4042C65.3929 28.4042 68.62 25.879 68.62 21.3685C68.62 16.6048 65.3763 14.3329 62.0039 14.3329C61.1137 14.3084 60.2311 14.5036 59.4343 14.9013C58.6374 15.299 57.9509 15.8869 57.4353 16.6131C57.431 16.6239 57.4235 16.6331 57.4139 16.6396C57.4043 16.6461 57.3929 16.6496 57.3813 16.6496C57.3697 16.6496 57.3583 16.6461 57.3487 16.6396C57.3391 16.6331 57.3316 16.6239 57.3273 16.6131L56.9535 14.8147C56.9458 14.7777 56.9254 14.7446 56.8958 14.7211C56.8662 14.6976 56.8293 14.6852 56.7915 14.686H54.3245C54.3025 14.6854 54.2807 14.6893 54.2603 14.6974C54.2399 14.7056 54.2213 14.7178 54.2058 14.7333C54.1902 14.7489 54.178 14.7674 54.1699 14.7878C54.1617 14.8083 54.1578 14.8301 54.1584 14.8521V34.2852C54.1584 34.3292 54.1759 34.3715 54.207 34.4026C54.2382 34.4338 54.2805 34.4513 54.3245 34.4513H57.3439C57.388 34.4513 57.4302 34.4338 57.4614 34.4026C57.4926 34.3715 57.5101 34.3292 57.5101 34.2852V26.4397ZM61.7505 25.3889C59.5618 25.3889 57.8132 23.8979 57.8132 21.3685C57.8132 18.8392 59.5535 17.3482 61.7505 17.3482C63.0505 17.3482 65.3722 18.2245 65.3722 21.3685C65.3722 24.5126 62.9467 25.3889 61.7505 25.3889Z" fill="#32393C"/>
<path d="M47.6877 10.3084C47.688 10.0342 47.7438 9.76284 47.8518 9.51077C47.9598 9.2587 48.1177 9.03111 48.316 8.84172C48.5143 8.65233 48.749 8.50506 49.0057 8.40879C49.2625 8.31253 49.5361 8.26926 49.8101 8.2816C50.2033 8.30271 50.5818 8.43865 50.8986 8.67261C51.2155 8.90657 51.4568 9.22828 51.5927 9.59794C51.7286 9.9676 51.7531 10.369 51.6633 10.7525C51.5735 11.1359 51.3732 11.4846 51.0873 11.7555C50.8013 12.0263 50.4422 12.2074 50.0545 12.2763C49.6667 12.3452 49.2672 12.2989 48.9055 12.1431C48.5437 11.9874 48.2356 11.729 48.0192 11.4C47.8027 11.0709 47.6875 10.6856 47.6877 10.2918V10.3084Z" fill="#32393C"/>
<path d="M51.3467 14.6651C51.3907 14.6651 51.433 14.6826 51.4642 14.7138C51.4953 14.7449 51.5128 14.7872 51.5128 14.8312V27.8974C51.5128 27.9414 51.4953 27.9837 51.4642 28.0148C51.433 28.046 51.3907 28.0635 51.3467 28.0635H48.3314C48.2874 28.0635 48.2451 28.046 48.2139 28.0148C48.1828 27.9837 48.1653 27.9414 48.1653 27.8974V14.8312C48.1653 14.7872 48.1828 14.7449 48.2139 14.7138C48.2451 14.6826 48.2874 14.6651 48.3314 14.6651H51.3467Z" fill="#32393C"/>
<path fill-rule="evenodd" clip-rule="evenodd" d="M21.9704 11.0144C21.6957 10.9467 21.4073 10.9597 21.1397 11.0518L20.0267 11.4298V0.980167C20.0267 0.72021 19.9234 0.470901 19.7396 0.287084C19.5558 0.103267 19.3065 0 19.0465 0H4.26922C4.00926 0 3.75995 0.103267 3.57614 0.287084C3.39232 0.470901 3.28905 0.72021 3.28905 0.980167V11.4298L2.17183 11.0518C1.90431 10.9597 1.61589 10.9467 1.34118 11.0144C0.92585 11.1141 -0.000327709 11.5211 -0.000327709 13.1409V21.6924C-0.00444806 21.7519 -0.00444806 21.8116 -0.000327709 21.871C0.0361053 22.3088 0.235601 22.7169 0.558653 23.0146C0.881705 23.3123 1.30476 23.4778 1.74404 23.4783H5.48197C6.2756 24.3013 7.35872 24.7825 8.50139 24.8198C8.51396 25.4246 8.70095 26.0129 9.03988 26.5139C9.3788 27.0149 9.85523 27.4074 10.4119 27.6441V30.082C10.4109 30.1037 10.4018 30.1243 10.3864 30.1396C10.3711 30.155 10.3505 30.1641 10.3288 30.1651C5.11233 30.3728 1.76896 32.0299 0.813713 32.574C0.575832 32.736 0.38516 32.9582 0.26113 33.218C0.1371 33.4777 0.0841436 33.7657 0.107658 34.0525V35.9672C0.121699 36.2925 0.26257 36.5995 0.500105 36.8223C0.737641 37.0451 1.05296 37.166 1.37855 37.1592C1.67395 37.1426 1.95382 37.0215 2.16808 36.8175C2.38233 36.6134 2.517 36.3398 2.54797 36.0456C2.57894 35.7513 2.5042 35.4557 2.33712 35.2115C2.17005 34.9674 1.92153 34.7906 1.63606 34.7129C1.61846 34.7099 1.6025 34.7008 1.59108 34.687C1.57965 34.6733 1.57351 34.656 1.57376 34.6381V33.9487C1.57614 33.8624 1.60169 33.7783 1.64772 33.7052C1.69375 33.6321 1.75858 33.5728 1.83541 33.5334C3.25167 32.7526 6.86085 32.358 9.58954 32.2209C9.93011 32.2209 10.2582 32.2209 10.4202 32.2209C10.4397 32.222 10.4581 32.2301 10.4719 32.244C10.4858 32.2578 10.4939 32.2762 10.495 32.2957C10.6362 34.5052 10.8521 36.37 10.9103 37.5371H10.8064C10.3288 37.5371 9.9218 38.0812 9.9218 38.7831C9.9218 39.485 10.3371 40.0291 10.8064 40.0291H12.4677C12.9412 40.0291 13.3524 39.4808 13.3524 38.7831C13.3524 38.0853 12.9371 37.5371 12.4677 37.5371H12.3639C12.3639 37.5371 12.6588 34.5052 12.8 32.2999C12.8009 32.2799 12.809 32.261 12.8227 32.2465C12.8364 32.232 12.8549 32.2229 12.8748 32.2209C13.016 32.2209 13.3441 32.2209 13.7054 32.2209C16.4341 32.358 20.0433 32.7526 21.4595 33.5334C21.5364 33.5728 21.6012 33.6321 21.6472 33.7052C21.6933 33.7783 21.7188 33.8624 21.7212 33.9487V34.6381C21.7215 34.656 21.7153 34.6733 21.7039 34.687C21.6924 34.7008 21.6765 34.7099 21.6589 34.7129C21.4321 34.7658 21.2246 34.8812 21.06 35.046C20.8955 35.2108 20.7804 35.4184 20.7279 35.6454C20.6753 35.8723 20.6875 36.1094 20.7629 36.3297C20.8383 36.5501 20.9739 36.7449 21.1545 36.8921C21.335 37.0393 21.5531 37.1329 21.7842 37.1623C22.0152 37.1918 22.2499 37.1559 22.4616 37.0587C22.6732 36.9615 22.8534 36.807 22.9817 36.6126C23.11 36.4182 23.1812 36.1917 23.1873 35.9589V34.0442C23.2108 33.7574 23.1579 33.4694 23.0338 33.2097C22.9098 32.9499 22.7191 32.7277 22.4812 32.5657C21.5218 32.0216 18.1785 30.3644 12.9661 30.1568C12.9444 30.1558 12.9239 30.1467 12.9085 30.1313C12.8932 30.116 12.8841 30.0954 12.8831 30.0737V27.6358C13.4397 27.399 13.9162 27.0066 14.2551 26.5056C14.594 26.0046 14.781 25.4163 14.7936 24.8115C15.9362 24.7742 17.0194 24.293 17.813 23.47H21.5509C21.9902 23.4695 22.4132 23.304 22.7363 23.0063C23.0594 22.7086 23.2589 22.3005 23.2953 21.8627C23.2994 21.8033 23.2994 21.7436 23.2953 21.6841V13.1409C23.3119 11.5211 22.3774 11.1141 21.9704 11.0144ZM3.28074 20.0519L1.55714 21.3602C1.54789 21.3671 1.53688 21.3714 1.52536 21.3724C1.51384 21.3734 1.50225 21.3712 1.4919 21.3661C1.48155 21.3609 1.47285 21.3529 1.46677 21.3431C1.46069 21.3333 1.45747 21.3219 1.45747 21.3103V13.1409C1.45747 12.8294 1.50315 12.3809 1.6859 12.439L3.19353 12.9498C3.21874 12.9584 3.24066 12.9746 3.25628 12.9962C3.2719 13.0178 3.28045 13.0437 3.28074 13.0703V20.0519ZM21.7378 21.3602L20.0308 20.0519V13.0703C20.0305 13.0435 20.0388 13.0173 20.0545 12.9956C20.0702 12.9739 20.0925 12.9579 20.118 12.9498L21.6174 12.4348C21.8126 12.3809 21.8458 12.8252 21.8458 13.1367V21.3103C21.8458 21.3219 21.8426 21.3333 21.8365 21.3431C21.8304 21.3529 21.8217 21.3609 21.8114 21.3661C21.801 21.3712 21.7894 21.3734 21.7779 21.3724C21.7664 21.3714 21.7554 21.3671 21.7461 21.3602H21.7378Z" fill="#B8D637"/>
<path d="M178.046 12.7339C178.044 12.4664 178.099 12.2017 178.208 11.9572C178.304 11.7193 178.445 11.5022 178.623 11.3176C178.807 11.1408 179.023 11 179.259 10.9023C179.506 10.7981 179.771 10.7444 180.04 10.7444C180.308 10.7444 180.573 10.7981 180.82 10.9023C181.056 11.001 181.271 11.1417 181.456 11.3176C181.634 11.5022 181.775 11.7193 181.871 11.9572C181.978 12.2029 182.033 12.468 182.033 12.7359C182.033 13.0039 181.978 13.269 181.871 13.5147C181.775 13.7526 181.634 13.9697 181.456 14.1543C181.27 14.3289 181.055 14.4695 180.82 14.5696C180.573 14.6738 180.308 14.7275 180.04 14.7275C179.771 14.7275 179.506 14.6738 179.259 14.5696C179.024 14.4705 178.808 14.3298 178.623 14.1543C178.445 13.9697 178.304 13.7526 178.208 13.5147C178.099 13.2689 178.044 13.0027 178.046 12.7339ZM178.403 12.7339C178.402 12.9516 178.445 13.1673 178.528 13.3685C178.611 13.5696 178.734 13.752 178.889 13.9051C179.039 14.0556 179.217 14.1755 179.412 14.2581C179.616 14.3438 179.835 14.3879 180.056 14.3879C180.277 14.3879 180.496 14.3438 180.7 14.2581C180.895 14.1744 181.073 14.0547 181.223 13.9051C181.531 13.594 181.704 13.1738 181.704 12.7359C181.704 12.2981 181.531 11.8779 181.223 11.5668C181.073 11.4172 180.895 11.2975 180.7 11.2138C180.496 11.1281 180.277 11.084 180.056 11.084C179.835 11.084 179.616 11.1281 179.412 11.2138C179.217 11.2964 179.039 11.4163 178.889 11.5668C178.735 11.7194 178.612 11.9012 178.529 12.1015C178.445 12.3019 178.403 12.5168 178.403 12.7339Z" fill="#32393C"/>
<path d="M179.263 11.6042H179.981C180.638 11.6042 180.891 11.8451 180.891 12.2605C180.891 12.4012 180.842 12.5375 180.751 12.6454C180.661 12.7533 180.535 12.8258 180.397 12.8502C180.397 12.8502 180.397 12.8502 180.397 12.8502L180.978 13.8138V13.8429H180.534L180.01 12.8918H179.732V13.8304V13.8512H179.362V13.8304L179.263 11.6042ZM180.01 12.5512C180.309 12.5512 180.505 12.4847 180.505 12.2355C180.505 11.9863 180.363 11.9324 180.019 11.9324H179.678V12.5346L180.01 12.5512Z" fill="#32393C"/>
</g>
<defs>
<clipPath id="clip0">
<rect width="182.066" height="40" fill="white"/>
</clipPath>
</defs>
</svg>
