<svg fill="none" height="32" viewBox="0 0 32 32" width="32" xmlns="http://www.w3.org/2000/svg"><g stroke="#394762" stroke-linecap="round" stroke-linejoin="round" stroke-width="1.7"><path d="m14.1919 23.82c2.1187-2.5333.1333-5.784 2.0173-7.9747.3113-.3786.6952-.6912 1.129-.9194s.9088-.3674 1.3972-.4094c.4883-.0421.9802.0139 1.4466.1647.4664.1507.898.3931 1.2694.713s.6752.7108.8934 1.1497.3465.917.3774 1.4062c.0308.4892-.0364.9796-.1978 1.4425-.1613.4628-.4136.8887-.7418 1.2527-.9036 1.1162-2.0702 1.9905-3.395 2.5446-1.3249.5541-2.7666.7706-4.1957.6301z"/><path d="m22.1599 16.3694 8.3093-11.00405c.2219-.30192.3789-.64646.4612-1.01198.0824-.36552.0882-.74412.0172-1.112-.071-.36789-.2173-.71712-.4297-1.02576-.2125-.30863-.4864-.57-.8047-.76768s-.674-.3274-1.0448-.38102-.7487-.02997-1.11.06946c-.3612.09943-.698.27249-.9892.5083-.2911.23582-.5304.52931-.7027.86202l-6.0386 12.16001"/><path d="m18 6.96533h-13c-1.06087 0-2.07828.42143-2.82843 1.17158-.75014.75014-1.17157 1.76756-1.17157 2.82839v16c0 1.0609.42143 2.0783 1.17157 2.8285.75015.7501 1.76756 1.1715 2.82843 1.1715h16c1.0609 0 2.0783-.4214 2.8284-1.1715.7502-.7502 1.1716-1.7676 1.1716-2.8285v-2"/></g></svg>