<svg fill="none" height="32" viewBox="0 0 32 32" width="32" xmlns="http://www.w3.org/2000/svg"><g stroke="#394762" stroke-linecap="round" stroke-linejoin="round" stroke-width="1.7"><path d="m3 29c-.53043 0-1.03914-.2107-1.41421-.5858-.37508-.3751-.58579-.8838-.58579-1.4142v-21.84667c.00176-.57056.22919-1.11724.63264-1.52069s.95013-.63088 1.52069-.63264h25.70397c.5678.00176 1.1117.22807 1.5132.62951.4014.40145.6277.94543.6295 1.51316v21.70403c-.0018.5705-.2292 1.1172-.6326 1.5207-.4035.4034-.9502.6308-1.5207.6326z"/><path d="m31 9h-30"/><path d="m17 19h6"/><path d="m9 15 4 4-4 4"/></g></svg>