<svg fill="none" height="32" viewBox="0 0 32 32" width="32" xmlns="http://www.w3.org/2000/svg"><g stroke="#394762" stroke-linecap="round" stroke-linejoin="round" stroke-width="1.7"><path d="m26 17.1733v-14.1733c0-.53043-.2107-1.03914-.5858-1.41421-.3751-.37508-.8838-.58579-1.4142-.58579h-16c-.53043 0-1.03914.21071-1.41421.58579-.37508.37507-.58579.88378-.58579 1.41421v14.1733"/><path d="m28.3787 15.2866c.1472-.1167.3244-.1896.5112-.2103s.3756.0116.5448.0933c.1693.0817.3121.2095.412.3686.1.1591.1531.3432.1533.5311v12.9333c0 .5305-.2107 1.0392-.5858 1.4143-.3751.375-.8838.5857-1.4142.5857h-24c-.53043 0-1.03914-.2107-1.41421-.5857-.37508-.3751-.58579-.8838-.58579-1.4143v-12.9333c.00017-.1879.05328-.372.15326-.5311s.24277-.2869.41201-.3686.35808-.114.54486-.0933.36395.0936.5112.2103l9.90797 7.8587c.7047.5534 1.5747.8543 2.4707.8543s1.766-.3009 2.4707-.8543z"/><path d="m18 16.6587c-1.2007.4245-2.5054.4559-3.7252.0897s-2.2914-1.111-3.0598-2.1267-1.1936-2.2495-1.2142-3.5229c-.0206-1.27342.3646-2.52035 1.0997-3.56033.7351-1.03999 1.7821-1.81907 2.9895-2.2245 1.2073-.40543 2.5123-.41617 3.7261-.03067 1.2139.3855 2.2736 1.14724 3.0257 2.17498.7522 1.02774 1.1578 2.26816 1.1582 3.54172"/><path d="m14 11c0 .5304.2107 1.0391.5858 1.4142s.8838.5858 1.4142.5858 1.0391-.2107 1.4142-.5858.5858-.8838.5858-1.4142-.2107-1.03914-.5858-1.41421c-.3751-.37508-.8838-.58579-1.4142-.58579s-1.0391.21071-1.4142.58579c-.3751.37507-.5858.88381-.5858 1.41421z"/><path d="m18 11c0 .5304.2107 1.0391.5858 1.4142s.8838.5858 1.4142.5858 1.0391-.2107 1.4142-.5858.5858-.8838.5858-1.4142"/></g></svg>