<svg fill="none" height="32" viewBox="0 0 32 32" width="32" xmlns="http://www.w3.org/2000/svg"><g stroke="#394762" stroke-linecap="round" stroke-linejoin="round" stroke-width="1.7"><path d="m6.40933 17.3893-5.40933 6.6106 5 1 2 6 5.2587-8.3439"/><path d="m25.5905 17.3893 5.4094 6.6106-5 1-2 6-5.2587-8.3439"/><path d="m27.0001 12c-.0012 2.3956-.7847 4.7252-2.2315 6.6346-1.4467 1.9094-3.4775 3.294-5.7835 3.9433-2.3059.6492-4.7608.5275-6.9912-.3465-2.23049-.8741-4.11443-2.4527-5.36529-4.4958-1.25087-2.0431-1.80022-4.4388-1.5645-6.8228.23573-2.38396 1.24363-4.62571 2.8704-6.38425 1.62678-1.75855 3.78339-2.93766 6.14179-3.35798 2.3585-.420321 4.7896-.05886 6.9238 1.02942"/><path d="m24 7-7.2933 7.2933c-.0928.0929-.2029.1666-.3242.2169s-.2512.0761-.3825.0761-.2612-.0258-.3825-.0761-.2314-.124-.3242-.2169l-2.2933-2.2933"/></g></svg>