<svg fill="none" height="32" viewBox="0 0 32 32" width="32" xmlns="http://www.w3.org/2000/svg"><g stroke="#394762" stroke-linecap="round" stroke-linejoin="round" stroke-width="1.7"><path d="m30.1693 19.8267-10.1693 10.1733-5 1 1-5 10.1747-10.1733c.2616-.2622.5725-.4702.9146-.6121.3422-.1419.7089-.215 1.0794-.215.3704 0 .7372.0731 1.0793.215.3422.1419.653.3499.9147.6121l.012.0106c.5282.5298.8243 1.2477.8233 1.9958s-.2991 1.4652-.8287 1.9936z"/><path d="m10.9946 27h-7.99997c-.53043 0-1.03914-.2107-1.41421-.5858-.37508-.3751-.585791-.8838-.585791-1.4142v-22c0-.53043.210711-1.03914.585791-1.41421.37507-.37508.88378-.58579 1.41421-.58579h19.99997c.5305 0 1.0392.21071 1.4142.58579.3751.37507.5858.88378.5858 1.41421v9"/><path d="m10.9946 7h8"/><path d="m6.99463 13h11.99997"/><path d="m6.99463 19h9.99997"/></g></svg>