<svg width="32" height="32" viewBox="0 0 32 32" fill="none" xmlns="http://www.w3.org/2000/svg">
<path d="M1 29H31" stroke="#394762" stroke-width="1.7" stroke-linecap="round" stroke-linejoin="round"/>
<path d="M8 15H4C3.73478 15 3.48043 15.1054 3.29289 15.2929C3.10536 15.4804 3 15.7348 3 16V29H9V16C9 15.7348 8.89464 15.4804 8.70711 15.2929C8.51957 15.1054 8.26522 15 8 15Z" stroke="#394762" stroke-width="1.7" stroke-linecap="round" stroke-linejoin="round"/>
<path d="M18 3H14C13.7348 3 13.4804 3.10536 13.2929 3.29289C13.1054 3.48043 13 3.73478 13 4V29H19V4C19 3.73478 18.8946 3.48043 18.7071 3.29289C18.5196 3.10536 18.2652 3 18 3Z" stroke="#394762" stroke-width="1.7" stroke-linecap="round" stroke-linejoin="round"/>
<path d="M28 9H24C23.7348 9 23.4804 9.10536 23.2929 9.29289C23.1054 9.48043 23 9.73478 23 10V29H29V10C29 9.73478 28.8946 9.48043 28.7071 9.29289C28.5196 9.10536 28.2652 9 28 9Z" stroke="#394762" stroke-width="1.7" stroke-linecap="round" stroke-linejoin="round"/>
</svg>
