<svg fill="none" height="24" viewBox="0 0 193 24" width="193" xmlns="http://www.w3.org/2000/svg" xmlns:xlink="http://www.w3.org/1999/xlink"><clipPath id="a"><path d="m0 0h192.928v24h-192.928z"/></clipPath><g clip-path="url(#a)" fill="#0732a2"><path d="m55.3621.282124h-4.6151c-.0752-.002598-.1501.009863-.2204.036651s-.1346.067362-.189.119337c-.0544.051974-.0978.114297-.1278.183308-.0299.069011-.0458.143314-.0466.218541v11.795639c0 1.9135-.7849 2.919-2.5557 2.919s-2.5556-1.0184-2.5556-2.919v-11.795639c.0044-.075828-.0075-.151733-.035-.222545s-.0699-.134866-.1244-.187804c-.0544-.052938-.1197-.093514-.1912-.118965-.0716-.025451-.1478-.03518-.2235-.028523h-4.6216c-.0749-.002158-.1495.010629-.2195.037615-.0699.026986-.1337.06763-.1878.11956-.054.05193-.0972.114107-.1269.182898-.0298.068791-.0455.142819-.0464.217764v12.972939c0 4.0054 2.919 7.226 8.2768 7.226 5.4259 0 8.387-3.2206 8.387-7.226v-12.972939c-.0042-.149983-.067-.292346-.1749-.396609-.1079-.104262-.2523-.162135-.4024-.161228z"/><path d="m88.8065 8.5427-3.3405-1.16107c-.973-.35028-1.1028-.90163-1.1028-1.21947 0-.52216.493-1.04432 1.4822-1.04432 1.4956.0177 2.9431.53099 4.1157 1.45946.0486.0404.1049.07065.1654.08896s.124.02432.1869.01767.1238-.02582.1792-.05639c.0553-.03057.104-.07191.1431-.12159l2.5946-3.27243c.0808-.10351.1191-.23397.1071-.36475-.0121-.13079-.0736-.25205-.172-.33904-2.1924-1.858375-4.907-2.5070249-7.4205-2.5070249-4.8227 0-7.693 2.9902749-7.693 6.2432449 0 2.55243 1.4789 4.90705 4.6476 5.97725l2.9578 1.0184c1.453.493 1.6865.8725 1.6865 1.4822 0 .5513-.5838 1.187-1.7449 1.187-1.6216 0-3.5675-.973-4.8648-2.0594-.0463-.04-.1003-.07-.1586-.0882-.0583-.0183-.1197-.0244-.1805-.018-.0608.0063-.1196.0251-.1728.0551-.0533.03-.0998.0705-.1368.1192l-2.6627 3.4929c-.0786.1062-.1154.2376-.1035.3691.012.1316.0719.2542.1684.3444 1.9232 1.6671 4.7805 2.8995 8.3805 2.8995 4.5405 0 7.8097-2.614 7.8097-6.5611.0065-2.7178-1.6767-4.83889-4.8713-5.9416z"/><path d="m72.2303 13.0443c2.4616-1.2194 3.7362-3.13294 3.7362-5.97403 0-3.59675-2.8962-6.788104-7.7838-6.788104h-8.854c-.1451.014571-.2795.082893-.3767.191527s-.1503.249717-.1487.3955v19.242207c0 .1393.0553.2729.1538.3715.0986.0985.2322.1539.3716.1539h4.7773c.1393 0 .2729-.0554.3715-.1539.0985-.0986.1539-.2322.1539-.3715v-6.2271h1.8843l3.3762 6.2919c.0825.1336.196.2453.331.3255s.2874.1265.4441.1351h5.4714c.2919 0 .4086-.2044.2627-.4541zm-4.5827-4.0897h-3.0162v-3.53514h3.0162c1.68 0 2.3481.75243 2.3481 1.76757 0 1.01513-.6681 1.76757-2.3481 1.76757z"/><path d="m14.5167.282171h-13.868066c-.082529-.004365-.165094.007915-.24278.036109-.077685.028195-.148906.071728-.209424.12801-.060518.056281-.109096.12416-.1428444.199599-.0337483.07544-.05197714.156899-.05360163.239527v19.157884c-.00217752.0774.01125323.1545.03949263.2266.0282393.0722.0707094.1379.1248804.1933.054171.0553.118934.0993.190432.1291s.148269.0449.225737.0445h4.670264c.14503-.0169.27867-.0869.37511-.1965s.14883-.2511.14706-.397v-6.1849h5.92544c.1461-.0043.2868-.0565.4004-.1485.1137-.092.194-.2187.2287-.3607l.8952-4.24541c.019-.06365.0222-.13095.0096-.19615-.0127-.0652-.0409-.12638-.0823-.17831-.0414-.05192-.0948-.09307-.1556-.11991-.0607-.02685-.1271-.03861-.1933-.03427h-7.02814v-3.09082h7.78374c.1492-.00118.2939-.0518.4112-.14394.1174-.09214.2009-.22059.2375-.36525l.8367-4.005401c.0241-.080871.0287-.166284.0134-.249269-.0152-.082984-.0498-.161188-.1011-.228228-.0512-.067041-.1176-.121017-.1936-.157525-.0761-.036509-.1597-.054514-.2441-.052546z"/><path d="m191.426 5.48435c.146-.00434.287-.05649.4-.14847.114-.09198.194-.2187.229-.36072l.85-4.00865c.071-.347027 0-.684326-.5-.684326h-13.946c-.079-.001305-.159.013383-.232.043196-.074.029813-.142.074148-.198.130382-.057.056235-.101.123229-.132.197027-.03.073798-.045.152903-.044.23264v19.157871c-.002.0771.011.154.039.2259s.07.1375.124.1928.118.0993.189.1293c.072.0301.148.0455.225.0455h12.685c.145-.0042.286-.0559.399-.1472.114-.0913.194-.2173.23-.3588l.849-4.0119c.075-.347-.016-.6843-.499-.6843h-8.432v-2.3319h5.88c.146-.005.287-.0578.4-.1504.114-.0925.194-.2196.229-.362l.895-4.24865c.019-.0635.022-.13069.01-.19579-.013-.0651-.041-.12614-.083-.17786-.041-.05172-.095-.09256-.155-.119-.061-.02644-.128-.03768-.194-.03276h-6.973v-2.33189z"/><path d="m149.912.749192c-.045-.131906-.129-.247103-.24-.330456-.112-.083352-.246-.13096-.386-.13657h-6.343c-.14.00561-.274.053218-.386.13657-.111.083353-.195.19855-.24.330456l-5.838 19.391308c-.022.0556-.03.1156-.023.1749s.028.116.062.165c.034.0491.08.089.133.1163.053.0272.112.041.172.0401h5.215c.14-.013.274-.0673.384-.1562.109-.089.19-.2084.232-.3433l.827-2.9189h5.235l.898 2.9189c.045.1346.128.2532.239.3414.111.0881.246.1419.387.1548h5.189c.06.001.119-.0128.172-.0401.053-.0272.099-.0672.132-.1162.034-.0491.056-.1057.063-.165s-.001-.1194-.023-.1749zm-3.827 11.078908h-1.881l1.881-6.22377 1.888 6.22377z"/><path d="m134.851.282124h-4.615c-.076-.002598-.15.009863-.221.036651-.07.026788-.134.067362-.189.119337-.054.051974-.098.114297-.128.183308-.029.069011-.045.143314-.046.218541v11.795639c0 1.9135-.785 2.919-2.556 2.919s-2.555-1.0184-2.555-2.919v-11.795639c.004-.075828-.008-.151733-.035-.222545-.028-.070812-.07-.134866-.125-.187804-.054-.052938-.12-.093514-.191-.118965-.072-.025451-.148-.03518-.224-.028523h-4.621c-.075-.002158-.15.010629-.22.037615s-.133.06763-.187.11956-.098.114107-.127.182898c-.03.068791-.046.142819-.047.217764v12.972939c0 4.0054 2.919 7.226 8.274 7.226 5.429 0 8.39-3.2206 8.39-7.226v-12.972939c-.004-.149983-.067-.292346-.175-.396609-.108-.104262-.252-.162135-.402-.161228z"/><path d="m171.272 13.0443c2.462-1.2194 3.74-3.13294 3.74-5.97403 0-3.59675-2.9-6.788104-7.784-6.788104h-8.857c-.145.014571-.28.082893-.377.191527s-.15.249717-.149.3955v19.242207c0 .1393.056.2729.154.3715.099.0985.232.1539.372.1539h4.777c.139 0 .273-.0554.372-.1539.098-.0986.153-.2322.153-.3715v-6.2271h1.888l3.373 6.2919c.082.1336.196.2453.331.3255s.287.1265.444.1351h5.471c.292 0 .409-.2044.263-.4541zm-4.579-4.0897h-3.02v-3.53514h3.02c1.68 0 2.345.75243 2.345 1.76757 0 1.01513-.665 1.76757-2.345 1.76757z"/><path d="m116.351 18.1168c-1.044.3989-2.183.4845-3.275.2464.204-.1816.405-.3664.596-.5643 2.741-2.9189 3.516-7.2616 2.177-10.97187-1.398-3.84649-5.07-6.460543-9.192-6.8043266-4.122-.3437834-8.3121 1.6897266-10.3067 5.2962166-2.0854 3.76865-1.6962 8.75678 1.1449 12.04218 2.4518 2.8508 6.3048 4.0411 9.9148 3.5384l.159.1524c1.997 1.8876 5.247 2.9351 8.02 2.9351l1.142-5.5654c.009-.0491.005-.0999-.012-.1468-.018-.0469-.047-.0883-.086-.1196s-.086-.0514-.136-.0582c-.049-.0068-.1.0001-.146.0198zm-10.592-2.4519c-2.66 0-4.46-2.3092-4.46-5.1503 0-2.84109 1.804-5.15352 4.46-5.15352s4.456 2.30595 4.456 5.15352c0 2.8476-1.8 5.1503-4.456 5.1503z"/><path d="m27.1686.0226984c-4.1286-.3243244-8.3124 1.6897316-10.307 5.2962216-2.0854 3.76864-1.693 8.75678 1.1449 12.04218 4.0411 4.7157 11.8832 4.9038 16.1708.4346 1.3277-1.4552 2.2322-3.2457 2.6158-5.1778.3835-1.9322.2315-3.93241-.4396-5.78439-1.3913-3.85297-5.0627-6.467028-9.1849-6.8108116zm-.8983 15.6292016c-2.6563 0-4.4563-2.3092-4.4563-5.1503 0-2.84106 1.8033-5.1535 4.4563-5.1535 2.6529 0 4.4594 2.30595 4.4594 5.1535 0 2.8476-1.8032 5.1633-4.4594 5.1633z"/></g></svg>