<svg fill="none" height="30" viewBox="0 0 128 30" width="128" xmlns="http://www.w3.org/2000/svg" xmlns:xlink="http://www.w3.org/1999/xlink"><clipPath id="a"><path d="m0 0h127.5v30h-127.5z"/></clipPath><g clip-path="url(#a)"><path d="m9.39319 15.0086c0-3.0943 2.51781-5.6036 5.62611-5.6036 3.1071 0 5.626 2.5082 5.626 5.6036 0 3.0964-2.5178 5.6046-5.625 5.6046-3.1082 0-5.62711-2.5093-5.62711-5.6036" fill="#00aa13"/><path d="m15.0182.0664434c-8.2843 0-15.0000115 6.6899966-15.0000115 14.9432566 0 6.195 3.7553615 11.4835 9.2078615 13.785.38342.1611.79785.2351 1.21335.2167s.8217-.1288 1.1894-.3232c.3676-.1945.6876-.4681.9367-.8012.2491-.333.4211-.7172.5038-1.1248.1274-.6354.0304-1.2954-.2744-1.8673s-.7986-1.0203-1.3971-1.2688v-.0011c-3.37926-1.4111-5.75461-4.7357-5.75461-8.6153 0-5.15897 4.19678-9.34076 9.37611-9.34076 5.1792 0 9.3771 4.18179 9.3771 9.34076 0 3.8785-2.3754 7.2042-5.7557 8.6142v.0022c-.5986.2487-1.0924.6974-1.397 1.2696-.3047.5722-.4013 1.2324-.2735 1.8679s.4722 1.2069.9744 1.6168 1.1311.6328 1.7793.6307c.3727-.0023.7416-.0761 1.0864-.2175 5.4525-2.3014 9.209-7.5911 9.209-13.785 0-8.2543-6.7168-14.9442995-15.0011-14.9442995" fill="#00aa13"/><path d="m73.5439 13.3511c0-2.7032-1.861-4.71325-4.7625-4.71325-2.9035 0-4.7635 2.01105-4.7635 4.71425 0 2.7011 1.861 4.7143 4.7635 4.7143 2.9015 0 4.7625-2.0121 4.7625-4.7143zm-14.1953.001c0-4.96496 3.9428-8.7996 9.4328-8.7996 5.52 0 9.4318 3.83464 9.4318 8.7996 0 4.965-3.9118 8.7986-9.4318 8.7986-5.4889 0-9.4328-3.8336-9.4328-8.7986zm17.2618 12.3943h2.5232c1.3564 0 1.83-.5035 1.83-1.6971v-19.49145h4.6682v19.55355c0 4.1175-1.6714 5.8768-6.1189 5.8768h-2.9036v-4.2428zm-24.7457-11.4857c0 2.0572-2.0958 3.7007-4.7625 3.7007-3.015 0-4.889-1.771-4.889-4.7121 0-2.7193 2.0004-4.58573 5.0797-4.58573 2.445 0 4.5718 1.70783 4.5718 3.63643zm.1907-9.71356v1.965h-.0643c-1.2064-1.26429-3.2057-1.96072-5.5864-1.96072-5.1118 0-8.8897 3.795-8.8897 8.69678 0 5.0925 3.8732 8.8243 9.0482 8.8243 2.3165 0 4.2536-.7286 5.429-2.025h.0642v1.695c0 2.2768-1.9692 3.9525-4.5728 3.9525-2.625 0-4.1529-.7371-5.4793-2.0004l-3.0396 2.9143c2.0367 2.1536 5.1075 3.3782 8.6142 3.3782 5.3347 0 8.984-3.5646 8.984-8.3078v-17.13216zm45.5068 3.77571c2.4908 0 4.2268 1.28893 4.4478 3.23785h-8.9596c.2528-1.94892 1.9885-3.23785 4.5118-3.23785zm.4821 10.05645c-2.7986 0-4.9982-1.8022-5.0561-3.5507h13.5648v-1.319c0-4.9971-3.471-8.9571-9.0862-8.9571-5.2993 0-9.0846 3.70928-9.0846 8.8318 0 5.2789 3.9932 8.7664 9.8625 8.7664 3.5953 0 6.1743-1.7175 7.5203-3.3621l-3.164-2.2093c-1.407 1.3082-2.6838 1.8-4.5556 1.8zm11.2587-18.3578767h4.506l.025 11.5392767h.061l7.545-7.04785h6.041l-7.82 7.37255 7.789 10.2514h-5.394l-5.348-7.4089h-.062l-2.837 2.6775v4.7442h-4.506z" fill="#000"/></g></svg>