<svg fill="none" height="30" viewBox="0 0 264 30" width="264" xmlns="http://www.w3.org/2000/svg" xmlns:xlink="http://www.w3.org/1999/xlink"><clipPath id="a"><path d="m0 0h263.69v30h-263.69z"/></clipPath><g clip-path="url(#a)"><path d="m0-.00003052h4.20436v8.22214052c.74481-.66137 1.58761-1.20334 2.49839-1.60662.80212-.34944 1.66707-.53165 2.542-.53553.78755-.01705 1.57015.12841 2.29895.42735.7288.29895 1.3882.74494 1.9369 1.31011.9806 1.00323 1.4717 2.47738 1.4734 4.42248v11.147h-4.1729v-7.3982c0-1.9548-.0929-3.2787-.2787-3.9717-.1341-.6099-.4706-1.1565-.95474-1.5509-.48269-.3526-1.06986-.53266-1.6672-.51135-.8196-.01402-1.61239.29195-2.21003.85295-.6505.6293-1.09636 1.44-1.27948 2.3264-.12278.5056-.18497 1.6639-.18659 3.4749v6.7852h-4.20436z" fill="#f47524"/><path d="m28.963 6.51617h4.2359v16.87563h-4.2359v-1.7835c-.7187.7118-1.5613 1.2867-2.4863 1.6963-.8579.3513-1.7773.5276-2.7043.5185-2.1793 0-4.0638-.8449-5.6535-2.5347s-2.3853-3.79-2.3869-6.3005c0-2.6074.7698-4.7431 2.3094-6.4071.6994-.7959 1.5626-1.43122 2.5304-1.86244.9679-.43122 2.0175-.64818 3.077-.63596.9792-.00563 1.9492.18984 2.8498.57431.926.40801 1.7632.99335 2.4644 1.72297zm-4.4515 3.48713c-.6112-.01569-1.2186.1-1.7813.3391s-1.0675.5961-1.4804 1.047c-.866.9256-1.2989 2.1122-1.2989 3.5597s.4402 2.6471 1.3207 3.5986c.41.4544.9126.8156 1.474 1.0593s1.1685.3642 1.7804.3534c.6187.0167 1.2338-.0985 1.8046-.3379.5707-.2394 1.0839-.5975 1.5056-1.0506.8756-.9257 1.3134-2.1373 1.3134-3.6349 0-1.4685-.4378-2.6575-1.3134-3.567-.4273-.4483-.9442-.8016-1.517-1.0371-.5728-.2354-1.1887-.34775-1.8077-.3296z" fill="#f47524"/><path d="m39.1406 6.51618v1.86108c.7097-.7273 1.552-1.31212 2.4815-1.72294.9023-.38426 1.8738-.57971 2.8546-.57431 1.0605-.01214 2.1112.20478 3.0802.63596s1.8335 1.06645 2.5345 1.86241c1.5412 1.66562 2.3118 3.80132 2.3118 6.40712 0 2.5137-.7965 4.6139-2.3894 6.3005s-3.4798 2.5299-5.6607 2.5299c-.9301.0084-1.8526-.1679-2.7141-.5186-.9294-.408-1.7762-.9829-2.4984-1.6963v7.958h-4.2043v-23.0501zm4.4516 3.48712c-.618-.01746-1.2328.095-1.8047.33-.5718.235-1.088.5873-1.5152 1.0343-.8772.9095-1.3166 2.0985-1.3183 3.567 0 1.5008.4395 2.7124 1.3183 3.6349.4238.4529.9388.8109 1.5111 1.0502.5722.2393 1.1887.3546 1.8088.3383.6137.0113 1.2228-.109 1.7862-.3526.5635-.2437 1.0682-.6052 1.4803-1.0601.8853-.9403 1.3272-2.1398 1.3256-3.5986-.0017-1.4588-.4362-2.6454-1.3038-3.5598-.4177-.4518-.9272-.8091-1.4944-1.0477-.5672-.2387-1.1788-.3532-1.7939-.3359z" fill="#f47524"/><path d="m57.572 6.51618v1.86108c.7093-.72785 1.5517-1.31275 2.4815-1.72294.9023-.38446 1.8738-.57991 2.8545-.57431 1.0606-.01214 2.1113.20478 3.0803.63596s1.8335 1.06645 2.5344 1.86241c1.5412 1.66562 2.311 3.80132 2.3094 6.40712 0 2.5137-.7956 4.6139-2.3869 6.3005s-3.479 2.5299-5.6632 2.5299c-.9301.0084-1.8526-.1679-2.714-.5186-.9287-.4081-1.7747-.983-2.496-1.6963v7.958h-4.2043v-23.0501zm4.4515 3.48712c-.618-.01762-1.2328.0947-1.8047.3298-.5718.235-1.088.5874-1.5151 1.0345-.8788.9095-1.3183 2.0985-1.3183 3.567 0 1.5008.4395 2.7124 1.3183 3.6349.4236.4532.9386.8113 1.5109 1.0506.5723.2394 1.1888.3545 1.8089.3379.6134.0111 1.2221-.1093 1.7851-.3529.563-.2437 1.0673-.6051 1.4791-1.0598.8853-.9403 1.3271-2.1398 1.3255-3.5986s-.4354-2.6454-1.3013-3.5598c-.4179-.4516-.9275-.8086-1.4946-1.0473-.5671-.2386-1.1787-.35329-1.7938-.3363z" fill="#f47524"/><path d="m70.2432 6.51633h4.3255l4.3837 10.58727 4.8465-10.58727h4.3376l-10.5678 23.05007h-4.3619l3.4701-7.4346z" fill="#f47524"/><g fill="#6fbe46"><path d="m102.378 6.51619h4.219v14.45481c0 2.8546-.574 4.9547-1.721 6.3005-1.541 1.819-3.862 2.7294-6.9639 2.731-1.4164.0363-2.8283-.1736-4.1729-.6204-1.0774-.3829-2.0536-1.0061-2.8545-1.8223-.7919-.8293-1.3815-1.8303-1.723-2.9249h4.6696c.4331.4881.9824.859 1.597 1.0784.7429.2572 1.5257.3803 2.3117.3635 1.139 0 2.0541-.1753 2.746-.5259.619-.2873 1.129-.7666 1.454-1.3667.284-.5573.426-1.5186.426-2.8837-.662.6891-1.459 1.235-2.341 1.6042-.8862.3372-1.8288.5017-2.7769.4847-1.0754.019-2.1428-.1894-3.1321-.6116s-1.8782-1.0487-2.6086-1.8383c-1.5605-1.6349-2.3408-3.7036-2.3408-6.206 0-2.6785.8271-4.82958 2.4814-6.45316.7003-.70956 1.5367-1.27042 2.459-1.64893.9224-.3785 1.9116-.56686 2.9085-.55381.944-.00512 1.8796.17689 2.7528.53553.9647.4261 1.8447 1.02292 2.5977 1.76172zm-4.3884 3.52101c-.6138-.0189-1.2249.0905-1.7941.3212-.5691.2308-1.0838.5778-1.5112 1.0189-.4311.4474-.7683.9765-.9918 1.5563-.2234.5797-.3287 1.1983-.3095 1.8193 0 1.4055.4443 2.5581 1.3328 3.458.4358.4433.9583.7921 1.5349 1.0243.5767.2323 1.1951.343 1.8165.3254.6036.0189 1.2045-.0886 1.7641-.3156.5597-.2271 1.0657-.5686 1.4857-1.0026.853-.8805 1.279-2.034 1.279-3.4605s-.429-2.5686-1.289-3.4265c-.431-.4379-.949-.7813-1.5199-1.0082-.5712-.227-1.1833-.3326-1.7975-.31z"/><path d="m107.663 6.51632h3.635v2.1252c.337-.76865.88-1.42941 1.568-1.90953.631-.42802 1.377-.65523 2.14-.65184.6.01287 1.189.16201 1.723.43617l-1.319 3.63488c-.375-.21403-.794-.34153-1.226-.37318-.646 0-1.197.40388-1.652 1.21168-.456.8077-.68 2.3893-.674 4.7447l.015.8239v6.8239h-4.21z"/><path d="m128.666 6.51617h4.235v16.87563h-4.235v-1.7835c-.719.7118-1.562 1.2867-2.487 1.6963-.858.3513-1.777.5276-2.704.5185-2.179 0-4.065-.8449-5.656-2.5347s-2.386-3.79-2.384-6.3005c0-2.6074.769-4.7431 2.309-6.4071.699-.7959 1.563-1.43122 2.53-1.86244.968-.43122 2.018-.64818 3.077-.63596.98-.00563 1.949.18984 2.85.57431.926.40801 1.763.99335 2.465 1.72297zm-4.452 3.48713c-.611-.01569-1.219.1-1.781.3391-.563.2391-1.068.5961-1.481 1.047-.866.9256-1.299 2.1122-1.299 3.5597s.441 2.6471 1.321 3.5986c.41.4544.913.8156 1.474 1.0593s1.169.3642 1.781.3534c.618.0167 1.233-.0985 1.804-.3379s1.084-.5975 1.506-1.0506c.874-.9257 1.311-2.1373 1.313-3.6349 0-1.4685-.438-2.6575-1.313-3.567-.428-.4483-.944-.8016-1.517-1.0371-.573-.2354-1.189-.34775-1.808-.3296z"/><path d="m145.289 8.874-2.622 2.6196c-1.066-1.055-2.035-1.58243-2.908-1.58243-.395-.02241-.787.08386-1.117.30293-.123.0832-.225.1953-.295.3267s-.107.278-.107.4269c-.001.2322.086.4562.242.6276.378.3258.805.59 1.265.7828l1.551.7754c1.633.8077 2.755 1.6301 3.366 2.4669.707 1.0167 1.023 2.2548.89 3.4861-.134 1.2313-.708 2.3728-1.617 3.2142-1.103 1.0032-2.58 1.5049-4.43 1.5049-2.46 0-4.424-.9613-5.893-2.8837l2.605-2.8401c.489.5729 1.081 1.0495 1.745 1.4055.541.3191 1.151.5021 1.778.5331.482.0241.958-.1179 1.348-.4022.153-.1036.279-.2419.368-.4037.09-.1617.139-.3422.146-.5269 0-.6462-.616-1.2827-1.847-1.9095l-1.427-.7125c-2.731-1.3731-4.096-3.0945-4.096-5.1639-.005-.648.13-1.28948.397-1.88018.266-.5907.658-1.11661 1.147-1.54149 1.031-.94507 2.347-1.41841 3.947-1.42003 1.081-.00511 2.147.24531 3.113.73089.965.48557 1.802 1.19251 2.442 2.06311z"/><path d="m156.945 8.87402-2.622 2.61958c-1.064-1.0549-2.034-1.58242-2.908-1.58242-.395-.0224-.787.08387-1.117.30292-.11.0734-.203.1703-.272.2838s-.112.2407-.125.3726c-.014.132.001.2653.045.3906.043.1253.114.2394.207.3342.169.1907.59.4516 1.262.7828l1.551.7754c1.637.8078 2.759 1.6301 3.366 2.4669.707 1.0167 1.023 2.2548.89 3.4861-.134 1.2313-.708 2.3728-1.617 3.2142-1.105.9968-2.581 1.4952-4.43 1.4952-2.462 0-4.427-.9613-5.895-2.8837l2.609-2.8304c.49.5729 1.081 1.0496 1.745 1.4055.54.3195 1.15.5025 1.776.5331.483.0237.959-.1183 1.35-.4022.153-.1037.279-.2421.368-.4038.089-.1618.138-.3423.143-.5268 0-.6462-.615-1.2827-1.846-1.9095l-1.427-.7124c-2.729-1.3732-4.094-3.0945-4.096-5.164-.004-.6479.131-1.28924.397-1.87987.267-.59063.658-1.11659 1.147-1.54178 1.031-.94507 2.346-1.41841 3.947-1.42003 1.081-.0057 2.148.24449 3.113.73012.965.48562 1.802 1.19285 2.442 2.06388z"/><path d="m157.747-.00003052h4.197v8.22214052c.746-.66072 1.588-1.20262 2.499-1.60662.803-.34944 1.668-.53164 2.544-.53553.787-.01701 1.57.12849 2.298.42744s1.387.74491 1.936 1.31002c.983 1.00323 1.475 2.47738 1.473 4.42248v11.147h-4.173v-7.3982c0-1.9548-.093-3.2787-.279-3.9717-.134-.6093-.469-1.1556-.952-1.5509-.483-.3514-1.07-.53134-1.667-.51135-.821-.01466-1.614.29135-2.213.85295-.65.6293-1.096 1.44-1.279 2.3264-.123.5056-.185 1.6639-.187 3.4749v6.7852h-4.197z"/><path d="m182.241 6.07991c1.577-.0037 3.127.40836 4.493 1.19465 1.357.76575 2.486 1.87932 3.269 3.22614.784 1.3467 1.195 2.878 1.19 4.4362.007 1.5684-.403 3.1106-1.188 4.4685-.761 1.3573-1.879 2.4809-3.232 3.2496-1.375.7824-2.933 1.1863-4.515 1.1705-1.154.0178-2.3-.2022-3.366-.6462-1.066-.4439-2.029-1.1025-2.83-1.9346-.843-.8563-1.504-1.8735-1.945-2.991s-.652-2.3124-.621-3.5133.303-2.3833.801-3.4765c.498-1.0933 1.211-2.07507 2.097-2.88674 1.583-1.48601 3.676-2.30822 5.847-2.29725zm.071 3.98629c-.614-.0151-1.224.0995-1.79.3363s-1.076.5904-1.496 1.0377c-.874.916-1.312 2.0872-1.314 3.5137 0 1.4685.433 2.6575 1.299 3.567.42.4469.93.7996 1.497 1.0348.566.2352 1.176.3475 1.789.3295.618.0161 1.232-.0985 1.802-.3361.571-.2376 1.085-.5929 1.508-1.0427.879-.9209 1.319-2.105 1.321-3.5525.001-1.4475-.431-2.6236-1.299-3.5283-.426-.4476-.942-.8001-1.513-1.0344-.572-.2343-1.187-.345-1.804-.325z"/><path d="m196.505 6.51618v1.86108c.71-.7273 1.552-1.31212 2.481-1.72294.903-.38426 1.874-.57971 2.855-.57431 1.06-.01214 2.111.20478 3.08.63596s1.834 1.06645 2.535 1.86241c1.541 1.66562 2.311 3.80132 2.311 6.40712 0 2.5137-.796 4.6139-2.389 6.3005s-3.48 2.5299-5.661 2.5299c-.93.0084-1.852-.1679-2.714-.5186-.93-.4074-1.776-.9824-2.498-1.6963v7.958h-4.205v-23.0501zm4.454 3.48712c-.618-.01746-1.233.095-1.805.33s-1.088.5873-1.515 1.0343c-.877.9095-1.317 2.0985-1.318 3.567 0 1.5008.439 2.7124 1.318 3.6349.425.4494.941.8037 1.513 1.0397.573.236 1.188.3482 1.807.3294.613.0113 1.222-.109 1.785-.3527s1.067-.6051 1.479-1.06c.884-.9402 1.326-2.1398 1.328-3.5986.001-1.4588-.433-2.6454-1.304-3.5597-.419-.4484-.93-.802-1.497-1.0373s-1.178-.34676-1.791-.327z"/><path d="m215.094 6.51618v1.86108c.709-.7273 1.552-1.31212 2.481-1.72294.902-.38426 1.874-.57971 2.855-.57431 1.06-.01214 2.111.20478 3.08.63596s1.833 1.06645 2.534 1.86241c1.542 1.66562 2.312 3.80132 2.312 6.40712 0 2.5137-.796 4.6139-2.389 6.3005s-3.48 2.5299-5.661 2.5299c-.93.0084-1.853-.1679-2.714-.5186-.93-.4074-1.777-.9824-2.498-1.6963v7.958h-4.2v-23.0501zm4.451 3.48712c-.618-.01746-1.233.095-1.804.33-.572.235-1.089.5873-1.516 1.0343-.877.9095-1.316 2.0985-1.318 3.567 0 1.5008.439 2.7124 1.318 3.6349.424.4529.939.8109 1.511 1.0502.573.2393 1.189.3546 1.809.3383.614.0112 1.222-.109 1.785-.3527s1.068-.6052 1.479-1.06c.884-.9403 1.327-2.1398 1.328-3.5986.002-1.4588-.433-2.6454-1.303-3.5598-.418-.4518-.928-.8091-1.495-1.0477-.567-.2387-1.179-.3532-1.794-.3359z"/><path d="m246.228 16.1776h-13.604c.15 1.1174.712 2.1386 1.575 2.8643.853.7076 1.941 1.0614 3.264 1.0614.756.0109 1.508-.1304 2.209-.4155.701-.2852 1.337-.7084 1.872-1.2444l3.567 1.6744c-.809 1.1923-1.911 2.1569-3.199 2.8014-1.385.6345-2.897.9444-4.42.9062-2.646 0-4.802-.8352-6.468-2.5056-1.665-1.6705-2.498-3.7617-2.498-6.2738 0-2.5735.83-4.7117 2.491-6.41443 1.661-1.70275 3.741-2.55329 6.242-2.55167 2.658 0 4.819.85054 6.485 2.55167 1.665 1.70113 2.497 3.94833 2.496 6.74153zm-4.234-3.3344c-.273-.9314-.857-1.7412-1.655-2.2948-.837-.59308-1.841-.90301-2.867-.88452-1.117-.02025-2.21.32899-3.109.99352-.559.412-1.076 1.1389-1.553 2.181z"/><path d="m246.375 6.51632h3.635v2.1252c.336-.76848.878-1.42926 1.566-1.90953.632-.42807 1.378-.65526 2.142-.65184.599.01265 1.188.16181 1.72.43617l-1.318 3.63488c-.376-.21448-.795-.34202-1.226-.37318-.649 0-1.212.40468-1.65 1.21168-.439.8069-.676 2.3869-.676 4.7447l.017.8239v6.8239h-4.205z"/></g><path d="m258.313 17.6414c.349-.0508.701-.0751 1.054-.0727.521 0 .884.0776 1.134.2739.106.0879.191.1994.247.3255.056.1262.082.2636.075.4014-.002.1897-.063.3739-.174.5281-.11.1542-.265.2709-.444.3346v.017c.125.064.232.1568.313.2706.082.1137.135.2453.155.3837.109.395.218.853.286.9887h-.812c-.106-.2641-.187-.5375-.242-.8167-.092-.4386-.242-.5573-.567-.5622h-.242v1.3789h-.786zm.785 1.5073h.31c.398 0 .63-.1987.63-.504 0-.3054-.218-.4847-.581-.4847-.12-.0032-.241.0057-.359.0267z" fill="#4a4a4c"/><path d="m259.636 23.3892c-.803.0005-1.587-.237-2.255-.6824-.667-.4455-1.187-1.0789-1.495-1.82-.307-.7412-.388-1.557-.232-2.344.157-.7871.543-1.5101 1.11-2.0776.567-.5676 1.29-.9542 2.077-1.1109s1.603-.0765 2.344.2304c.741.307 1.375.8269 1.821 1.4941.446.6671.684 1.4515.684 2.2539-.002 1.075-.429 2.1057-1.189 2.8661s-1.79 1.1885-2.865 1.1904zm0-7.2916c-.64 0-1.266.1898-1.798.5452-.532.3555-.946.8608-1.191 1.4519s-.309 1.2416-.184 1.8691c.125.6276.433 1.204.885 1.6564.453.4524 1.029.7606 1.656.8854.628.1248 1.278.0607 1.87-.1841.591-.2449 1.096-.6595 1.451-1.1915.356-.532.546-1.1575.546-1.7973-.002-.8576-.343-1.6797-.949-2.2861-.607-.6064-1.429-.9477-2.286-.949z" fill="#4a4a4c"/></g></svg>