<svg fill="none" height="40" viewBox="0 0 109 40" width="109" xmlns="http://www.w3.org/2000/svg" xmlns:xlink="http://www.w3.org/1999/xlink"><clipPath id="a"><path d="m0 0h108.463v40h-108.463z"/></clipPath><g clip-path="url(#a)"><g fill="#485661"><path d="m11.4026 17.7983h-7.61984v-7.7729h-3.78276v19.5145h3.78276v-8.1405h7.61984v8.1405h3.7828v-19.5145h-3.7828z"/><path d="m40.8724 14.3358c-1.6961 0-3.0033.5721-4.0602 1.8292v-6.48577h-3.3108v9.85667c0 3.3151.0286 3.7184.5006 5.1485.4619 1.4235 1.3613 2.6649 2.57 3.5472 1.2088.8824 2.6652 1.3607 4.1617 1.3668 4.1717 0 7.3982-3.3422 7.3982-7.6284 0-4.2047-3.2551-7.6342-7.2595-7.6342zm-.1945 12.0019c-2.2253 0-4.0888-1.9722-4.0888-4.372 0-2.4313 1.8363-4.372 4.0888-4.372 2.1696 0 4.033 2.0022 4.033 4.3434 0 2.3998-1.8363 4.4006-4.033 4.4006z"/><path d="m71.4863 14.4275c-1.4964.006-2.9527.4843-4.1612 1.3667-1.2086.8824-2.1077 2.1239-2.5691 3.5473-.4734 1.4302-.5006 1.8292-.5006 5.1486v9.8523h3.3094v-6.4857c1.0569 1.2571 2.364 1.8277 4.0602 1.8277 4.0044 0 7.2595-3.4324 7.2595-7.6284 0-4.2862-3.2265-7.6285-7.3982-7.6285zm-.0558 12.0005c-2.2525 0-4.0888-1.9436-4.0888-4.372 0-2.3998 1.8592-4.372 4.0888-4.372 2.1967 0 4.033 2.0022 4.033 4.4006 0 2.3426-1.8635 4.3434-4.033 4.3434z"/><path d="m56.7371 17.7297-1.6862-.5721c-.8967-.3175-1.4673-1.0125-1.4673-1.8806 0-1.1585.9782-1.9694 2.4742-1.9694 1.1441 0 1.8491.3476 2.8831 1.3615l.3805.3762 2.4741-2.5743c-1.9307-2.2883-3.0991-2.86031-5.8464-2.86031-3.5626 0-6.1497 2.45991-6.1497 5.84651 0 2.6343 1.4959 4.5765 4.2976 5.5289l1.4402.4777c2.0937.7237 2.6644 1.2728 2.6644 2.4313 0 1.3314-1.087 2.2282-2.6644 2.2282-1.496 0-2.5843-.6365-3.6455-2.1453l-2.4742 2.6916c1.9851 2.5185 3.2894 3.1835 6.2012 3.1835 3.6712 0 6.3642-2.5471 6.3642-6.0496.0043-3.0061-1.5732-4.8296-5.2458-6.0738z"/><path d="m107.186 26.4321c-2.225 0-2.922-.5863-2.922-2.5185v-5.5919h3.311v-3.2207h-3.311v-4.1617l-3.309 1.7276v11.2467c0 4.1575 1.586 5.9438 5.257 5.9438.443 0 .666-.0286 1.363-.0587l.888-3.5139c-.419.0965-.847.1459-1.277.1473z"/><path d="m27.3632 23.3845c.0002.4017-.0788.7996-.2325 1.1709-.1537.3712-.379.7085-.6631.9926s-.6214.5094-.9926.6631c-.3713.1537-.7691.2327-1.1709.2325h-.1631c-.8113 0-1.5894-.3223-2.1631-.896s-.896-1.3518-.896-2.1631v-8.581h-3.4438v8.6668c0 1.6226.6446 3.1788 1.792 4.3262s2.7036 1.792 4.3262 1.792h.8181c1.6226 0 3.1788-.6446 4.3262-1.792s1.792-2.7036 1.792-4.3262v-8.6668h-3.3294z"/></g><path d="m90.9536 13.1002v-4.24467c.7957-.22048 1.4869-.71709 1.9498-1.40085.4629-.68377.6673-1.51002.5764-2.33073s-.471-1.58224-1.0723-2.14817-1.3844-.89928-2.2091-.94033-1.6371.21289-2.2916.71632-1.1084 1.22346-1.2803 2.03109c-.1719.80762-.0507 1.65008.342 2.37643.3928.72636 1.0313 1.28915 1.8012 1.58755v4.35336c-1.1709.1381-2.3037.5029-3.3351 1.0741l-11.8875-8.93849c.3433-.84542.3711-1.78614.0783-2.65034-.2929-.8642-.8868-1.594229-1.6734-2.056758-.7866-.4625279-1.7133-.6266938-2.6109-.4625159-.8975.1641779-1.7061.6457439-2.278 1.3567539s-.869 1.60401-.837 2.51592c.032.91192.391 1.78189 1.0113 2.45105.6204.66915 1.4608 1.09283 2.3677 1.19366.9068.10083 1.8197-.12791 2.5719-.64446l11.4198 8.58098c-1.0225.9584-1.8104 2.1395-2.3026 3.4516-.4922 1.3122-.6754 2.7202-.5354 4.1146s.5994 2.7379 1.3426 3.926c.7432 1.1882 1.7501 2.1891 2.9427 2.9251l-2.8302 4.505c-.1064-.0124-.2133-.0191-.3204-.02-.6309-.002-1.2439.2094-1.7395.6-.4955.3905-.8444.9371-.9899 1.551-.1456.6139-.0792 1.259.1883 1.8304s.7204 1.0355 1.2851 1.3169c.5646.2815 1.2079.3636 1.8252.2332s1.1723-.4658 1.5748-.9516c.4026-.4858.629-1.0935.6424-1.7243.0135-.6308-.1868-1.2475-.5682-1.7501l2.9261-4.6566c1.2135.3948 2.4961.5313 3.7655.4006s2.4974-.5256 3.605-1.1594c1.1076-.6337 2.0703-1.4923 2.8261-2.5204.7559-1.0281 1.2882-2.2031 1.5627-3.4493.2746-1.2462.2852-2.5361.0313-3.7866-.2538-1.2506-.7667-2.4342-1.5054-3.4747-.7388-1.0405-1.6872-1.9148-2.7842-2.5668-1.0969-.652-2.3182-1.0671-3.5852-1.2188zm-.9611 14.4446c-1.0571 0-2.0904-.3135-2.9693-.9007-.8789-.5873-1.5639-1.422-1.9684-2.3985-.4045-.9766-.5103-2.0512-.3041-3.088.2062-1.0367.7152-1.989 1.4627-2.7364.7474-.7475 1.6997-1.2565 2.7364-1.4627 1.0368-.2062 2.1114-.1004 3.0879.3041.9766.4046 1.8113 1.0896 2.3986 1.9685.5872.8789.9007 1.9122.9007 2.9692-.0008 1.417-.5642 2.7756-1.5664 3.7773-1.0022 1.0016-2.3612 1.5643-3.7781 1.5643z" fill="#ee6e23"/></g></svg>