<svg fill="none" height="41" viewBox="0 0 103 41" width="103" xmlns="http://www.w3.org/2000/svg" xmlns:xlink="http://www.w3.org/1999/xlink"><clipPath id="a"><path d="m0 0h102.5v41h-102.5z"/></clipPath><g clip-path="url(#a)"><path d="m0 0v2.80512h19.9515v-2.80512zm22.7782 0v2.80512h28.4318s-2.9042-2.80512-6.7506-2.80512zm34.0092 0v2.80512h17.2008l-1.021-2.80512zm29.5328 0-1.021 2.80512h17.0448v-2.80512zm-86.3202 5.45528v2.80511h19.9515v-2.80511zm22.7782.00397v2.80114h31.731s-.3706-2.15894-1.017-2.80114zm34.0092 0v2.80114h19.0866l-.9449-2.80114zm27.4908 0-.9449 2.80114h19.0107v-2.80114zm-78.54461 5.45135v2.809h8.64041v-2.809zm22.77821 0v2.809h8.6404v-2.809zm17.0446 0v2.809h8.6405s.5485-1.4834.5485-2.809zm16.9646 0v2.809h15.3189l-1.021-2.809zm19.8754 0-1.025 2.809h15.395v-2.809zm-76.66281 5.4592v2.8051h8.64041v-2.8051zm22.77821 0v2.8051h22.0695s1.8462-1.4393 2.4344-2.8051zm34.0092 0v2.8051h8.6404v-1.5615l.5486 1.5615h15.8274l.5886-1.5615v1.5615h8.6404v-2.8051h-16.2198l-.8609 2.376-.8648-2.376zm-56.78741 5.4553v2.8051h8.64041v-2.8051zm22.77821 0v2.8051h24.5039c-.5883-1.3613-2.4344-2.8051-2.4344-2.8051zm34.0092 0v2.8051h8.6404v-2.8051zm10.21 0 1.045 2.8051h11.8676l.9929-2.8051zm15.395 0v2.8051h8.6404v-2.8051zm-82.39241 5.4553v2.8051h8.64041v-2.8051zm22.77821 0v2.8051h8.6404v-2.8051zm17.0446 0v2.8051h9.189c0-1.3238-.5485-2.8051-.5485-2.8051zm16.9646 0v2.8051h8.6404v-2.8051zm12.1719 0 1.013 2.8051h7.9557l1.021-2.8051zm13.4331 0v2.8051h8.6404v-2.8051zm-87.969848 5.4552v2.8091h19.951448v-2.8091zm22.622048 0v2.8091h30.714c.6464-.6432 1.017-2.8091 1.017-2.8091zm34.1654 0v2.8091h14.2178v-2.8091zm19.7152 0 1.041 2.8091h4.048l.9769-2.8091zm11.4672 0v2.8091h14.374v-2.8091zm-87.969848 5.4593v2.8051h19.951448v-2.8051zm22.622048 0v2.8011h21.6812c3.8464 0 6.7506-2.8011 6.7506-2.8011zm34.1654 0v2.8051h14.2178v-2.8051zm21.6891 0 1.001 2.7972.1722.0039 1.017-2.8011zm9.4933 0v2.8051h14.374v-2.8051z" fill="#1f70c1"/></g></svg>