<svg fill="none" height="34" viewBox="0 0 121 34" width="121" xmlns="http://www.w3.org/2000/svg" xmlns:xlink="http://www.w3.org/1999/xlink"><clipPath id="a"><path d="m0 0h120.872v34h-120.872z"/></clipPath><g clip-path="url(#a)" fill="#e84678"><path d="m.128021 10.7849h7.470919l-.58694 22.3456h-6.720074z"/><path d="m18.8537.0951843-.1561 10.9020157c1.8638-.6099 3.5866-.9153 5.1684-.9163 2.0267-.0082 4.0025.6341 5.6368 1.8326 3.0398 2.1781 4.5591 5.3968 4.5581 9.6563 0 3.916-1.3154 6.9943-3.9462 9.2348-2.3019 1.9773-5.106 2.9659-8.4122 2.9659-2.7545-.0029-5.463-.7066-7.8705-2.0449-.7526-.4118-1.464-.8948-2.1245-1.4424.2986-1.127.4396-2.5288.423-4.2053l-.2779-20.77056c-.0128-1.3537-.1387-2.70396-.3762-4.03673zm-.3122 17.1709157.0468 9.5392c1.0048.6392 2.17.9808 3.3608.985 1.9263 0 3.4353-.7591 4.5269-2.2775.7347-1.0177 1.1026-2.2707 1.1036-3.7588 0-1.8326-.564-3.2266-1.6921-4.1819-1.027-.8756-2.3393-1.3443-3.6886-1.3175-1.2843.0185-2.542.3685-3.6512 1.0162z"/><path d="m48.1286 9.87014c2.1832-.00315 4.3207.62516 6.155 1.80916 3.6985 2.3499 5.5467 5.7414 5.5446 10.1746.0003 1.8125-.4276 3.5995-1.2488 5.2153-1.0941 2.2392-2.8689 4.0746-5.0701 5.2433-1.8099.9827-3.8395 1.4903-5.899 1.4752-3.6808 0-6.6467-1.3237-8.8977-3.9712-1.8211-2.1448-2.7312-4.6897-2.7301-7.6348 0-3.5383 1.2841-6.538 3.8525-8.9991 2.3186-2.2094 5.0831-3.3135 8.2936-3.31246zm-.0235 6.15496c-1.7691 0-3.1865.7129-4.2521 2.1386-.8773 1.2113-1.3159 2.4934-1.3159 3.8463-.0151 1.4795.5208 2.9117 1.5032 4.018 1.0178 1.1749 2.2317 1.7618 3.6418 1.7608 1.152-.0022 2.2665-.4095 3.1485-1.1505 1.5808-1.2488 2.3717-2.8696 2.3728-4.8625 0-1.8482-.6499-3.3759-1.9497-4.583-.8461-.7774-1.8956-1.1666-3.1486-1.1677z"/><path d="m76.2764 12.3131-.025 5.4822-5.5446-.0468-.1405 5.3074-.0234 1.0349c0 1.0646.1644 1.8399.4932 2.3259.5474.7836 1.2603 1.1754 2.1386 1.1754.6733 0 1.5423-.2508 2.6069-.7524l1.717 4.4411c-2.0199 1.4871-4.0325 2.2306-6.0379 2.2306-2.0053 0-3.736-.6655-5.1919-1.9965-1.4257-1.3195-2.1297-2.8961-2.112-4.7298l.0234-9.1615-3.0064-.0936.0171-5.3542h3.0783l.0234-3.28905c.0292-1.75455-.026-3.01584-.1654-3.78384l6.7435.07024c0 .34498-.0235.90225-.0703 1.6687-.0156.26693-.0328.86167-.0484 1.78578l-.0936 3.59027z"/><path d="m93.2397 12.3131-.0234 5.4822-5.5447-.0468-.1405 5.3074-.0234 1.0349c0 1.0646.1644 1.8399.4933 2.3259.5463.7836 1.2587 1.1754 2.137 1.1754.6723 0 1.5417-.2508 2.6084-.7524l1.7171 4.4411c-2.021 1.4871-4.0336 2.2306-6.0379 2.2306-2.022 0-3.7532-.6655-5.1934-1.9965-1.4403-1.331-2.1454-2.9055-2.1152-4.7236l.0234-9.1614-3.0064-.0937.0218-5.3604h3.0783l.0234-3.28905c.0312-1.75455-.0239-3.01584-.1655-3.78384l6.7435.07024c0 .34498-.0234.90225-.0702 1.6687-.0156.26641-.0312.86167-.0469 1.78578l-.0936 3.59027z"/><path d="m96.7816 11.8432c3.2264-1.1738 6.2094-1.7613 8.9504-1.7623 2.741-.0011 5.031.6233 6.869 1.8731 1.503 1.0334 2.349 2.5689 2.536 4.6065.033.3201.048.6415.047.9632l.047 7.4006c.031 3.1803.548 5.6779 1.552 7.4928l-6.134 1.5751-.869-2.3041c-1.581 1.3799-3.515 2.0694-5.804 2.0683-2.757 0-4.9336-1.026-6.531-3.0782-1.2363-1.5974-1.8545-3.3359-1.8545-5.2153 0-2.3186.8846-4.222 2.6537-5.7101 1.6131-1.3623 3.5868-2.0434 5.9208-2.0434 1.519 0 3.149.3757 4.888 1.1271-.298-2.4123-1.755-3.6184-4.371-3.6184-2.145.0196-4.264.4758-6.227 1.3409zm8.6934 10.1964c-.475-.0125-.947.0801-1.381.2712-.435.1911-.822.4759-1.134.834-.624.6879-.937 1.4314-.937 2.2307 0 .9262.384 1.7644 1.152 2.5147.308.3051.674.5452 1.076.7061s.833.2393 1.266.2305c.498.0089.992-.0916 1.446-.2944.455-.2029.86-.5031 1.186-.8794.518-.5624.798-1.3038.78-2.0684 0-1.0489-.336-1.9028-1.01-2.5615-.319-.3191-.7-.5705-1.119-.7395-.419-.1689-.867-.2519-1.319-.244z"/><path d="m7.60672 8.30292h-.44176c-5.50562 0-7.16496-3.07047-7.16496-3.07047v-5.23245s1.8529 1.77329 7.05257 1.77329h.55415z"/><path d="m120.173 11.6809c-.333.3353-.758.5639-1.222.6567-.463.0927-.944.0454-1.38-.1359-.437-.1813-.809-.4884-1.071-.8823-.261-.3938-.399-.8565-.396-1.3291 0-.39218.098-.77811.283-1.12362.186-.34552.454-.63995.78-.85723.327-.21728.702-.3507 1.092-.38845.391-.03775.784.02134 1.146.17203s.682.38833.93.69189.418.66366.494 1.04842.056.78226-.059 1.15746c-.114.3751-.319.7162-.597.9932zm-3.141-3.14388c-.193.18887-.346.41516-.448.66503-.103.24988-.154.51809-.15.78825-.004.2713.046.5408.148.7922.102.2513.255.4794.447.6705.191.1915.417.3435.667.4472.249.1037.516.1571.786.1571.271 0 .538-.0534.787-.1571.25-.1037.476-.2557.667-.4472.383-.3885.598-.9123.598-1.45801s-.215-1.06947-.598-1.45797c-.19-.19143-.417-.34335-.666-.44703-.249-.10367-.516-.15704-.786-.15704s-.537.05337-.786.15704c-.249.10368-.475.2556-.666.44703zm1.405.13268c.242-.01256.485.01972.715.09522.13.05218.24.14492.313.26444s.106.25945.093.39899c.007.10111-.013.20229-.058.29312-.045.09082-.113.168-.198.22357-.116.06816-.244.11176-.378.12796.089.0081.175.0351.253.0793.077.0441.145.1044.197.1767.088.1175.137.2592.142.4059v.192.1936c0 .0467.008.0931.023.1373l.016.0328h-.433v-.0265s0-.0188 0-.0297l-.009-.0843v-.206c0-.3029-.083-.5027-.247-.5995-.162-.0683-.339-.0971-.515-.0842h-.363v1.0302h-.461v-2.6209zm.498.41367c-.175-.07733-.367-.11106-.559-.09835h-.395v.94909h.419c.149.00693.298-.01263.44-.05776.083-.03035.153-.08687.201-.16098.047-.0741.07-.16173.063-.24956.01-.07312 0-.14767-.03-.21524s-.078-.12548-.139-.1672z"/></g></svg>