<svg fill="none" height="46" viewBox="0 0 199 46" width="199" xmlns="http://www.w3.org/2000/svg" xmlns:xlink="http://www.w3.org/1999/xlink"><clipPath id="a"><path d="m0 0h198.618v46h-198.618z"/></clipPath><g clip-path="url(#a)"><g fill="#040707"><path d="m42.6473 11.2099h4.0598v23.9613h-4.0598z"/><path d="m52.1412 15.5955c1.3163 0 2.3834-1.0671 2.3834-2.3835 0-1.3163-1.0671-2.3834-2.3834-2.3834s-2.3834 1.0671-2.3834 2.3834c0 1.3164 1.0671 2.3835 2.3834 2.3835z"/><path d="m50.0916 18.527h4.0994v16.6443h-4.0994zm14.8487-.421c-4.6398 0-8.4056 3.2652-8.4056 8.4452s3.2653 8.3658 8.4453 8.3658c2.0497 0 4.2266 1.0487 4.2266 3.3448 0 2.296-1.8432 3.5989-4.2266 3.5989s-4.3458-1.4221-4.3458-3.5989h-4.0995c0 4.4728 3.599 7.4442 8.4453 7.4442 4.8065 0 8.3181-2.8442 8.3181-7.4442 0-2.1292-.6673-4.1393-3.4321-5.5216 2.7171-1.2553 3.5116-4.1392 3.5116-6.2287.0079-5.1403-3.7976-8.4055-8.4373-8.4055zm.0397 13.4266c-2.3834 0-4.3458-2.0498-4.3458-4.9734 0-2.884 1.9624-5.0211 4.3458-5.0211s4.306 2.1768 4.306 5.0211c0 2.8839-1.9623 4.9734-4.306 4.9734zm20.2829-13.4266c-1.8829 0-3.6784.5879-5.1879 2.4708v-9.4066h-4.0995v23.9613h4.0995v-8.4532c0-2.4708 1.6763-4.5126 4.0995-4.5126 2.1768 0 3.7658 1.295 3.7658 4.3061v8.6518h4.0994v-8.9458c.0318-4.894-2.0576-8.0718-6.7768-8.0718zm16.7631 14.221c-.5 0-.921-.1668-1.168-.5005-.246-.3337-.373-.8342-.373-1.5889v-8.199h3.305l.373-3.5513h-3.638v-4.5603l-4.1395.4608v4.1392h-3.1382v3.5513h3.1382v8.2784c0 1.7161.4211 3.0111 1.2156 3.885.7944.8739 2.01 1.3347 3.5509 1.3347.707 0 1.383-.0874 2.09-.2939.707-.2066 1.335-.5005 1.883-.8819l-1.422-2.6376c-.549.3972-1.129.564-1.677.564zm16.851-6.1095c-1.676-1.0487-3.639-1.1678-5.561-1.295-1.128-.0874-2.844-.3336-2.844-1.7955 0-1.0487 1.088-1.6286 3.05-1.6286 1.589 0 2.972.3734 4.139 1.4618l2.297-2.6774c-1.923-1.6763-3.885-2.1768-6.523-2.1768-3.051 0-7.063 1.3347-7.063 5.1879 0 1.5889.834 3.0507 2.217 3.8849 1.549.9614 3.551 1.0885 5.267 1.295 1.168.1272 3.09.4211 2.757 2.0498-.207 1.1281-1.589 1.4618-2.55 1.5015-1.049.0398-2.09-.0397-3.139-.2939-1.088-.294-1.962-.7945-2.923-1.4221l-2.09 2.6376c.127.0874.254.2066.254.2066 2.678 2.2166 6.396 2.9237 9.788 2.1769 2.551-.588 4.727-2.4232 4.727-5.188.08-1.5412-.421-3.0825-1.803-3.9247zm13.506-8.1115c-1.883 0-4.099.7944-5.394 2.6376l-.127-2.2563h-3.973v23.9613l4.1-.4608v-8.7868c1.167 1.7955 3.718 2.3834 5.474 2.3834 5.307 0 8.405-3.9724 8.405-8.779.008-4.8939-3.384-8.6994-8.485-8.6994zm-.334 13.9271c-2.804 0-4.679-2.5503-4.679-5.1403 0-2.5899 1.756-5.3547 4.679-5.3547 2.972 0 4.68 2.8045 4.68 5.3547.048 2.59-1.875 5.1403-4.68 5.1403zm14.174-3.7261c.461 1.9624 2.256 3.6784 5.188 3.6784 1.501 0 3.511-.7547 4.473-1.716l2.637 2.5899c-1.756 1.7955-4.639 2.6774-7.15 2.6774-5.188 0-8.946-3.4321-8.946-8.7392 0-5.0211 3.885-8.6995 8.652-8.6995 5.021 0 9.2 3.4321 8.779 10.2011zm9.661-3.1302c-.461-1.9624-2.424-3.6784-4.807-3.6784-2.217 0-4.266 1.5015-4.854 3.6784zm9.327 3.1302c.461 1.9624 2.256 3.6784 5.188 3.6784 1.501 0 3.511-.7547 4.473-1.716l2.637 2.5899c-1.756 1.7955-4.64 2.6774-7.15 2.6774-5.188 0-8.946-3.4321-8.946-8.7392 0-5.0211 3.885-8.6995 8.652-8.6995 5.021 0 9.2 3.4321 8.779 10.2011zm9.7-3.1302c-.461-1.9624-2.423-3.6784-4.806-3.6784-2.217 0-4.267 1.5015-4.855 3.6784zm13.84 10.4076c1.883 0 4.099-.7945 5.394-2.6377l.128 2.2166h3.972v-23.9534h-4.1v9.2795c-1.167-1.7955-3.765-2.3437-5.521-2.3437-5.307 0-8.366 3.9326-8.366 8.7789s3.392 8.6598 8.493 8.6598zm.294-13.9192c2.804 0 4.679 2.5503 4.679 5.1402 0 2.59-1.755 5.3548-4.679 5.3548-2.971 0-4.68-2.8045-4.68-5.3548-.007-2.5899 1.875-5.1402 4.68-5.1402z"/></g><path d="m15.4287.381317 2.0894 3.638683c.4211.75475.4211 1.67634 0 2.42315l-12.45731 21.61765 5.89501 10.201c.9216 1.5889 2.6376 2.59 4.4729 2.59 1.8352 0 3.5513-1.0011 4.4728-2.59l5.895-10.201-1.5492-2.7569-6.6895 11.5835c-.421.7547-1.2552 1.2155-2.0894 1.2155-.8819 0-1.6764-.4608-2.0895-1.2155l-5.14022-8.8266 11.58342-20.06843 2.0895 3.63873c.421.7547.421 1.6763 0 2.4231l-8.0719 14.0066 1.589 2.7568 8.7789-15.2221 5.7679 9.9945c.8818 1.5492.8818 3.4321 0 4.9734l-5.8553 10.1613c-.8819 1.5492-3.6784 5.021-8.6995 5.021s-7.77788-3.4718-8.69946-5.021l-5.839382-10.1534c-.88186529-1.5492-.88186529-3.4321 0-4.9813z" fill="#ed5153"/></g></svg>