<svg fill="none" height="34" viewBox="0 0 200 34" width="200" xmlns="http://www.w3.org/2000/svg" xmlns:xlink="http://www.w3.org/1999/xlink"><clipPath id="a"><path d="m0 0h200v33.3827h-200z"/></clipPath><g clip-path="url(#a)" fill="#8ed500"><path d="m81.3468 9.78518h-6.1579c-.0952-.00079-.1891.02216-.2733.06676-.0841.0446-.1559.10946-.2087.18866l-4.5792 6.8087-4.5793-6.8087c-.053-.07905-.1247-.14379-.2088-.18837-.0842-.04458-.178-.06762-.2732-.06705h-6.0928c-.1047-.00063-.2075.02727-.2975.0807s-.1637.13036-.2133.22252c-.0496.0922-.0731.1961-.068.3007.0051.1045.0385.2057.0968.2926l7.334 10.8794-7.4859 10.4021c-.0623.0857-.0997.1869-.108.2925s.0128.2114.061.3058c.0482.0943.1215.1735.2119.2287s.1944.0843.3003.084h6.2109c.0915.0003.1818-.0215.2632-.0634.0813-.042.1514-.1029.2043-.1776l4.6974-6.5941 4.6973 6.5941c.0531.0746.1232.1354.2046.1773.0813.0419.1715.0638.263.0637h6.1699c.106.0003.2099-.0288.3003-.084s.1637-.1344.2119-.2287c.0482-.0944.0693-.2002.061-.3058s-.0457-.2068-.108-.2925l-7.4859-10.4021 7.3292-10.8794c.058-.0866.0915-.1873.0967-.2914.0053-.1041-.0178-.2077-.0668-.2997-.049-.09207-.122-.16908-.2113-.22286s-.1915-.08231-.2958-.08256z"/><path d="m95.3014 23.547v-8.2209h5.0616c.152 0 .298-.0604.406-.1679s.169-.2534.17-.4057v-4.3913c0-.1528-.061-.2993-.169-.4073-.108-.10803-.255-.16872-.407-.16872h-5.0616v-5.84457c-.0006-.15235-.0616-.29824-.1695-.40575-.108-.1075-.2541-.16786-.4065-.16786h-5.2468c-.1528 0-.2993.06069-.4073.16872-.1081.10802-.1687.25454-.1687.40731 0 6.50737.535 5.84215-4.2009 5.84215-.0981-.00031-.1953.0187-.2861.05596-.0908.03725-.1733.09202-.2429.16116-.0696.0692-.1249.1514-.1628.2419-.0378.0905-.0574.1876-.0578.2857v4.0515c0 .098.0194.195.057.2855.0375.0905.0926.1727.162.2419s.1518.124.2425.1613c.0906.0373.1877.0563.2857.056h4.2057v9.467c0 5.6325 3.9646 8.3583 8.9174 8.3583 1.2165.0264 2.4316-.1024 3.6156-.3832.124-.0319.234-.1041.313-.2053.079-.1011.122-.2255.123-.3538v-4.3817c-.001-.0878-.022-.1742-.061-.2527-.039-.0786-.096-.1472-.166-.2006-.069-.0534-.15-.0903-.236-.1078s-.175-.0151-.26.0068c-.621.1391-1.256.2054-1.8921.1976-2.7524 0-3.9575-1.1086-3.9575-3.9237z"/><path d="m121.507 12.3712c-1.027-1.4774-3.5-3.0946-6.717-3.0946-6.204 0-10.961 5.4951-10.961 12.0507 0 6.5555 4.757 12.0506 10.961 12.0506 3.217 0 5.69-1.6172 6.717-3.0946v1.8389c0 .0982.019.1953.057.286.037.0906.092.173.162.2424.069.0693.152.1244.242.1619.091.0376.188.0569.286.0569h5.061c.153 0 .3-.0607.408-.1687.108-.1081.168-.2546.168-.4073v-31.717379c0-.15277-.06-.299284-.168-.407309-.108-.1080248-.255-.168712-.408-.168712h-5.234c-.076-.00000067-.151.0149145-.221.0438918-.069.0289773-.133.0714432-.186.1249642-.053.05352-.095.11704-.124.186912s-.043.144723-.043.220253zm-5.365 15.2393c-3.497 0-5.876-2.6801-5.876-6.2808 0-3.6008 2.379-6.2808 5.876-6.2808s5.876 2.6776 5.876 6.2808c0 3.6031-2.374 6.2808-5.876 6.2808z"/><path d="m197.857 9.50788c-2.612 0-4.991 1.70882-5.784 3.97192v-3.1187c0-.1528-.061-.2993-.169-.40734-.108-.10803-.254-.16871-.407-.16871h-5.24c-.152 0-.299.06068-.407.16871-.108.10804-.169.25454-.169.40734v21.9322c0 .1527.061.2993.169.4073s.255.1687.407.1687h5.24c.153 0 .299-.0607.407-.1687s.169-.2546.169-.4073v-10.46c0-3.7863 2.005-6.1434 5.037-6.1434.733.0002 1.463.0991 2.169.294.085.023.175.026.261.0089.087-.0171.168-.0539.238-.1075s.126-.1226.165-.2016c.039-.0791.059-.166.059-.2541v-5.1963c0-.1334-.047-.26263-.132-.36578-.084-.10316-.202-.17398-.333-.20057-.552-.1135-1.116-.16684-1.68-.15907z"/><path d="m143.335 9.27661c-6.765 0-12.267 5.30229-12.267 12.05069 0 6.7483 5.502 12.0506 12.267 12.0506 6.766 0 12.266-5.3023 12.266-12.0506 0-6.7484-5.503-12.05069-12.266-12.05069zm0 18.19409c-3.359 0-5.83-2.5861-5.83-6.141 0-3.555 2.471-6.141 5.83-6.141 3.36 0 5.785 2.586 5.785 6.141 0 3.5549-2.427 6.141-5.785 6.141z"/><path d="m170.257 9.27661c-6.763 0-12.268 5.30229-12.268 12.05069 0 6.7483 5.505 12.0506 12.268 12.0506 6.762 0 12.267-5.3023 12.267-12.0506 0-6.7484-5.519-12.05069-12.267-12.05069zm0 18.19409c-3.36 0-5.831-2.5861-5.831-6.141 0-3.555 2.456-6.141 5.831-6.141 3.374 0 5.784 2.586 5.784 6.141 0 3.5549-2.439 6.141-5.784 6.141z"/><path d="m19.5075 8.99939c-4.2948 0-7.9534 1.97151-10.00686 4.98901-.17112.241-.46275.7881-.85319.7905-1.87749.0144-1.99318-2.3017-2.05343-4.3672-.00678-.1479-.07005-.2876-.17677-.3903-.10672-.10268-.24875-.16052-.39684-.1616l-5.437261-.03615c-.076778-.00001-.152793.01527-.223607.04494s-.13501.07314-.188851.12788c-.05384.05473-.0962473.11963-.1247427.19093-.0284955.0713-.04250891.1476-.04122926.2243.12050696 5.0444 1.04841096 8.4716 7.16291096 9.8358.16292.0378.30807.1301.41148.2615.10341.1315.1589.2943.15731.4615v11.3276c0 .0755.01493.1501.04394.2197.02901.0697.07151.1328.12506.1859.05355.0532.11709.0951.18695.1235.06986.0285.14466.0428.22007.0421h5.28546c.1527 0 .2992-.0607.4073-.1687.108-.108.1687-.2545.1687-.4073v-11.6964c0-2.6005 1.8437-5.5433 5.3408-5.5433 3.3284 0 5.3385 2.95 5.3385 5.5433v11.7012c0 .1528.0607.2993.1687.4073.108.1081.2545.1688.4073.1688h5.2806c.1524-.0007.2983-.0617.4058-.1696.1075-.108.1678-.2541.1678-.4065v-12.5688c-.0024-6.0109-5.1312-10.72991-11.7759-10.72991z"/><path d="m46.2336 9.27661c-7.0906 0-12.2675 5.21789-12.2675 12.05069 0 7.2954 5.4107 11.9229 12.3591 12.0506 5.4566.1013 9.0886-3.0223 9.9515-4.1165.0457-.0606.0788-.1297.0974-.2032.0185-.0736.0222-.1502.0108-.2252-.0115-.075-.0378-.1469-.0775-.2116s-.0919-.1208-.1536-.165l-3.6273-2.8343c-.3953-.3928-.7013-.1807-.9375.0121-.5809.47-1.6871 1.8269-5.2156 1.9715-3.0777.1253-5.8325-1.7088-6.2037-4.8034h16.9144c.1461-.0009.2865-.0571.3929-.1572.1064-.1002.1709-.2369.1807-.3827.0482-.6821.0482-1.1858.0482-1.6292-.0024-7.4763-5.3626-11.35659-11.4723-11.35659zm-5.8325 9.23559c.6074-2.8174 3.2658-4.0177 5.6446-4.0177s4.7118 1.2943 5.2709 4.0177z"/></g></svg>