<svg fill="none" height="30" viewBox="0 0 143 30" width="143" xmlns="http://www.w3.org/2000/svg" xmlns:xlink="http://www.w3.org/1999/xlink"><clipPath id="a"><path d="m0 0h142.713v30h-142.713z"/></clipPath><g clip-path="url(#a)" fill="#f94d1e"><path d="m13.6722 28.8271c-2.5745.0217-5.13683-.355-7.59617-1.1167-2.24519-.6868-4.32255-1.8341-6.0994675-3.3688l4.7622775-5.6725c1.36445 1.071 2.91321 1.8836 4.56991 2.3976 1.54205.4717 3.14495.7152 4.75755.7225.601.0406 1.2028-.064 1.7548-.3049.1574-.0761.2904-.1945.3841-.3421.0937-.1475.1443-.3183.1461-.4931v-.0751c0-.3847-.2628-.7085-.7789-.9384-.9381-.3746-1.9155-.6421-2.9136-.7976-1.4968-.305-2.92778-.6615-4.28374-1.0697-1.25772-.3586-2.46174-.8841-3.57992-1.5624-.99261-.6-1.83384-1.4204-2.45855-2.3976-.64542-1.0666-.97111-2.2961-.93838-3.5424v-.075c-.0103-1.22088.24422-2.42944.74601-3.54243.4981-1.10357 1.2391-2.08034 2.16766-2.85737 1.04586-.86164 2.25114-1.50892 3.54707-1.90491 1.57247-.48293 3.21145-.71412 4.85615-.68502 2.299-.03245 4.5897.28394 6.7938.93838 1.9002.58428 3.6767 1.51308 5.2409 2.74007l-4.3447 6.01968c-1.2147-.892-2.573-1.56963-4.0163-2.00342-1.2902-.40213-2.6321-.61393-3.9834-.62871-.5068-.03578-1.0135.0698-1.4639.30498-.143.07808-.2622.1935-.3448.33396s-.1256.3007-.1244.46366v.04223c0 .36127.2346.6616.7226.9384.9033.377 1.8483.6447 2.8151.7976 1.5846.2634 3.1515.6238 4.6919 1.0791 1.2736.3768 2.4858.9362 3.5987 1.661.9513.6141 1.7465 1.4414 2.3225 2.4163.573 1.0485.8564 2.2307.8211 3.4251v.0797c.0201 1.3-.2677 2.5862-.8399 3.7536-.5521 1.1147-1.3551 2.0863-2.3459 2.8386-1.1121.8191-2.3653 1.4266-3.6972 1.7923-1.5875.437-3.2285.6486-4.8749.6287z"/><path d="m32.7916 9.20548h-7.8448v-7.53519h24.609v7.53519h-7.8496v19.12422h-8.9146z"/><path d="m63.5706 14.3571c.8896.0513 1.7715-.191 2.5101-.6897.297-.2181.5358-.506.6953-.8382.1596-.3322.235-.6985.2196-1.0667v-.0751c.0256-.3722-.0452-.7447-.2054-1.0816-.1603-.337-.4046-.62695-.7095-.84204-.7423-.45283-1.6043-.67037-2.4726-.62402h-3.8849v5.21736zm-12.762-12.6681h13.0294c1.993-.05728 3.9815.21865 5.8836.81639 1.388.45641 2.6562 1.21794 3.7113 2.22866.7913.77831 1.4141 1.71096 1.8299 2.74006.4274 1.14411.6344 2.35882.6099 3.57989v.0798c.06 1.7551-.4323 3.4848-1.4076 4.9453-.9807 1.3845-2.3073 2.4878-3.8473 3.1998l6.2074 9.0648h-10.1721l-5.0297-7.615h-1.9002v7.615h-8.9146v-26.66877z"/><path d="m128.361 16.858 5.809 11.4717h8.544l-14.353-28.3297-14.348 28.3297h8.544z"/><path d="m88.4236 16.858 5.8085 11.4717h8.5389l-14.3474-28.3297-14.3432 28.3297h8.5393z"/><path d="m108.397 13.1373-5.809-11.46701h-8.5436l14.3526 28.32971 14.343-28.32971h-8.534z"/></g></svg>