<svg width="40" height="40" viewBox="0 0 40 40" fill="none" xmlns="http://www.w3.org/2000/svg">
<path d="M20 0C8.98462 0 0 8.98462 0 20C0 31.0154 8.98462 40 20 40C31.0154 40 40 31.0154 40 20C40 8.98462 31.0154 0 20 0ZM20 34.7077C11.8769 34.7077 5.29231 28.1231 5.29231 20C5.29231 11.8769 11.8769 5.29231 20 5.29231C28.1231 5.29231 34.7077 11.8769 34.7077 20C34.7077 28.1231 28.1231 34.7077 20 34.7077Z" fill="white"/>
<path d="M24.9849 19.2C27.296 19.2 29.1695 17.3265 29.1695 15.0154C29.1695 12.7043 27.296 10.8308 24.9849 10.8308C22.6738 10.8308 20.8003 12.7043 20.8003 15.0154C20.8003 17.3265 22.6738 19.2 24.9849 19.2Z" fill="white"/>
<path d="M24.9849 29.1693C27.296 29.1693 29.1695 27.2958 29.1695 24.9847C29.1695 22.6736 27.296 20.8 24.9849 20.8C22.6738 20.8 20.8003 22.6736 20.8003 24.9847C20.8003 27.2958 22.6738 29.1693 24.9849 29.1693Z" fill="white"/>
<path d="M15.0152 29.1693C17.3263 29.1693 19.1998 27.2958 19.1998 24.9847C19.1998 22.6736 17.3263 20.8 15.0152 20.8C12.7041 20.8 10.8306 22.6736 10.8306 24.9847C10.8306 27.2958 12.7041 29.1693 15.0152 29.1693Z" fill="white"/>
<path d="M15.0152 19.2C17.3263 19.2 19.1998 17.3265 19.1998 15.0154C19.1998 12.7043 17.3263 10.8308 15.0152 10.8308C12.7041 10.8308 10.8306 12.7043 10.8306 15.0154C10.8306 17.3265 12.7041 19.2 15.0152 19.2Z" fill="white"/>
</svg>
