<svg width="112" height="52" viewBox="0 0 112 52" fill="none" xmlns="http://www.w3.org/2000/svg">
<path d="M3 19L109 19" stroke="#CCE4FF" stroke-width="6" stroke-linecap="round" stroke-linejoin="round"/>
<path d="M11 3H100" stroke="#99CDFF" stroke-width="6" stroke-linecap="round" stroke-linejoin="round"/>
<path d="M48.734 47L48.58 46.02H44.52V36.85H43.47V47H48.734ZM51.9484 37.06C51.9484 36.654 51.6124 36.318 51.1924 36.318C50.7724 36.318 50.4224 36.654 50.4224 37.06C50.4224 37.466 50.7724 37.816 51.1924 37.816C51.6124 37.816 51.9484 37.466 51.9484 37.06ZM51.7104 47V39.58H50.6744V47H51.7104ZM60.5346 47V41.694C60.5346 40.28 59.7646 39.426 58.2246 39.426C57.1746 39.426 56.3066 39.958 55.4526 40.672L55.2706 39.58H54.4726V47H55.5086V41.638C56.3626 40.84 57.2026 40.364 58.0286 40.364C59.0226 40.364 59.4846 40.938 59.4846 41.89V47H60.5346ZM69.1472 46.902L65.2692 42.884L68.8952 39.58H67.5372L64.1492 42.772V35.744L63.1132 35.926V47H64.1492V43.066L67.9992 47.112L69.1472 46.902Z" fill="#0263E0"/>
<path d="M42 48.4H69.4692V49.1H42V48.4Z" fill="#0263E0"/>
</svg>
