<svg xmlns="http://www.w3.org/2000/svg" width="91" height="30" fill="none" viewBox="0 0 91 30"><path fill="#0263E0" d="M0 4C0 1.79086 1.79086 0 4 0H86.7143C88.9234 0 90.7143 1.79086 90.7143 4V25.8095C90.7143 28.0187 88.9234 29.8095 86.7143 29.8095H4C1.79086 29.8095 0 28.0187 0 25.8095V4Z"/><path fill="#fff" d="M16.2535 18.9048L17.0855 16.7654H20.1659L21.0375 18.9741L22.0181 18.7661L19.1358 11.6941H18.1453L15.2234 18.9048H16.2535ZM19.8192 15.8838H17.4223L18.6207 12.8629L19.8192 15.8838ZM27.7011 15.0617C27.7011 14.0812 27.1266 13.5067 26.0965 13.5067C25.4824 13.5067 24.8584 13.7741 24.2245 14.3189V10.9017L23.2439 11.0503V18.9048H24.2245V15.24C24.799 14.6655 25.3438 14.3783 25.8489 14.3783C26.4333 14.3783 26.7205 14.6854 26.7205 15.2995V18.9048H27.7011V15.0617ZM34.1401 16.2701C34.1401 15.4183 33.9024 14.7448 33.4369 14.2495C32.9614 13.7543 32.3474 13.5067 31.5946 13.5067C30.8517 13.5067 30.2475 13.7543 29.782 14.2495C29.3165 14.7448 29.0788 15.4183 29.0788 16.2701C29.0788 17.1219 29.3165 17.7955 29.782 18.2808C30.2475 18.7661 30.8517 19.0137 31.5946 19.0137C32.3374 19.0137 32.9515 18.7661 33.427 18.2709C33.9024 17.7855 34.1401 17.112 34.1401 16.2701ZM33.1496 16.2701C33.1496 17.429 32.5851 18.2015 31.5946 18.2015C30.6437 18.2015 30.0693 17.3894 30.0693 16.2701C30.0693 15.1113 30.614 14.3189 31.5946 14.3189C32.5554 14.3189 33.1496 15.1311 33.1496 16.2701ZM38.8493 13.6156L37.3735 17.7459L35.858 13.5364L34.8676 13.6949L36.8881 18.9246L36.7396 19.2911C36.5118 19.8457 36.2245 20.0735 35.7491 20.0735C35.6203 20.0735 35.452 20.0438 35.2241 19.9943L35.3727 20.8758C35.5411 20.9055 35.6798 20.9254 35.7887 20.9254C36.6504 20.9254 37.1952 20.5787 37.6013 19.4694L39.8695 13.6156H38.8493ZM40.6759 17.5974L40.1014 20.2518L40.6362 20.3806L41.8149 17.5974H40.6759ZM52.0398 13.6156L50.8413 17.5577L49.5933 13.6156H48.7712L47.5331 17.5577L46.295 13.5364L45.3343 13.6949L47.1171 18.9246H47.9293L49.1674 14.9132L50.4154 18.9246H51.2474L53.0204 13.6156H52.0398ZM58.844 16.2701C58.844 15.4183 58.6063 14.7448 58.1407 14.2495C57.6653 13.7543 57.0512 13.5067 56.2985 13.5067C55.5556 13.5067 54.9514 13.7543 54.4859 14.2495C54.0204 14.7448 53.7827 15.4183 53.7827 16.2701C53.7827 17.1219 54.0204 17.7955 54.4859 18.2808C54.9514 18.7661 55.5556 19.0137 56.2985 19.0137C57.0413 19.0137 57.6554 18.7661 58.1308 18.2709C58.6063 17.7855 58.844 17.112 58.844 16.2701ZM57.8535 16.2701C57.8535 17.429 57.2889 18.2015 56.2985 18.2015C55.3476 18.2015 54.7731 17.3894 54.7731 16.2701C54.7731 15.1113 55.3179 14.3189 56.2985 14.3189C57.2592 14.3189 57.8535 15.1311 57.8535 16.2701ZM63.1238 13.5067C62.3314 13.5364 61.6876 13.9326 61.1923 14.6953L61.024 13.6156H60.2514V18.9048H61.232V15.765C61.6182 15.0419 62.4106 14.4774 63.2822 14.4377L63.1238 13.5067ZM65.4898 10.9017L64.5092 11.0503V18.9048H65.4898V10.9017ZM70.8687 17.221C70.3635 17.845 69.8386 18.152 69.2938 18.152C68.5014 18.152 67.9666 17.5082 67.9666 16.3692C67.9666 15.0915 68.5906 14.3684 69.5018 14.3684C69.9971 14.3684 70.4527 14.4675 70.8687 14.6655V17.221ZM71.8393 10.9017L70.8687 11.0503V13.784C70.4626 13.6255 69.9971 13.5463 69.4721 13.5463C68.759 13.5463 68.1647 13.7939 67.6892 14.2892C67.2138 14.7844 66.9761 15.4876 66.9761 16.4088C66.9761 17.2507 67.1841 17.8945 67.5902 18.3402C67.9963 18.7859 68.5212 19.0137 69.1551 19.0137C69.8386 19.0137 70.4329 18.7265 70.938 18.1421L71.0668 18.9048H71.8393V10.9017ZM73.6501 11.7238L73.9076 16.7654L74.5118 16.6267L74.7792 11.7238H73.6501ZM74.7396 17.6568H73.6798V18.9048H74.7396V17.6568Z"/><path fill="#EBF4FF" d="M4 1H86.7143V-1H4V1ZM89.7143 4V25.8095H91.7143V4H89.7143ZM86.7143 28.8095H4V30.8095H86.7143V28.8095ZM1 25.8095V4H-1V25.8095H1ZM4 28.8095C2.34314 28.8095 1 27.4664 1 25.8095H-1C-1 28.5709 1.23857 30.8095 4 30.8095V28.8095ZM89.7143 25.8095C89.7143 27.4664 88.3711 28.8095 86.7143 28.8095V30.8095C89.4757 30.8095 91.7143 28.5709 91.7143 25.8095H89.7143ZM86.7143 1C88.3711 1 89.7143 2.34314 89.7143 4H91.7143C91.7143 1.23858 89.4757 -1 86.7143 -1V1ZM4 -1C1.23858 -1 -1 1.23858 -1 4H1C1 2.34315 2.34315 1 4 1V-1Z"/></svg>