<svg width="178" height="53" viewBox="0 0 178 53" fill="none" xmlns="http://www.w3.org/2000/svg">
<path d="M3 30L175 30" stroke="#A2F6C3" stroke-width="6" stroke-linecap="round" stroke-linejoin="round"/>
<path d="M3 50H131" stroke="#7BEAA5" stroke-width="6" stroke-linecap="round" stroke-linejoin="round"/>
<path d="M3 10L97 10" stroke="#D1FAE0" stroke-width="6" stroke-linecap="round" stroke-linejoin="round"/>
<path d="M108 3C108 1.89543 108.895 1 110 1H155.866C156.971 1 157.866 1.89543 157.866 3V16.9665C157.866 18.0711 156.971 18.9665 155.866 18.9665H110C108.895 18.9665 108 18.0711 108 16.9665V3Z" fill="#F4F4F6"/>
<path d="M119.645 13.2031C119.458 13.3277 119.23 13.4246 118.96 13.4938C118.697 13.563 118.434 13.5976 118.171 13.5976C117.596 13.5976 117.146 13.4488 116.821 13.1511C116.495 12.8466 116.333 12.4486 116.333 11.9571V8.69694H115.077V8.01168H116.333V6.77613L117.205 6.6723V8.01168H119.105L118.991 8.69694H117.205V11.9467C117.205 12.2582 117.288 12.4901 117.454 12.6424C117.62 12.7947 117.887 12.8708 118.254 12.8708C118.627 12.8708 118.977 12.7843 119.302 12.6112L119.645 13.2031ZM124.344 13.4834L123.628 9.47565L122.86 13.4834H121.655L120.669 8.01168H121.551L122.257 12.9435L123.129 8.70732H124.157L124.978 12.9435L125.684 8.01168H126.525L125.58 13.4834H124.344ZM129.822 5.45751C130.016 5.45751 130.172 5.51635 130.29 5.63402C130.407 5.74477 130.466 5.89013 130.466 6.0701C130.466 6.25007 130.407 6.39889 130.29 6.51656C130.172 6.62731 130.016 6.68268 129.822 6.68268C129.635 6.68268 129.483 6.62731 129.365 6.51656C129.255 6.39889 129.199 6.25007 129.199 6.0701C129.199 5.89013 129.255 5.74477 129.365 5.63402C129.483 5.51635 129.635 5.45751 129.822 5.45751ZM130.518 12.7878H132.055V13.4834H127.964V12.7878H129.646V8.70732H128.016V8.01168H130.518V12.7878ZM136.11 12.1336C136.11 12.6251 136.411 12.8708 137.014 12.8708C137.297 12.8708 137.602 12.8085 137.927 12.6839L138.156 13.3173C137.81 13.5042 137.377 13.5976 136.858 13.5976C136.366 13.5976 135.972 13.4626 135.674 13.1927C135.383 12.9227 135.238 12.5559 135.238 12.0921V6.50617H133.556V5.81053H136.11V12.1336ZM142.274 5.45751C142.467 5.45751 142.623 5.51635 142.741 5.63402C142.858 5.74477 142.917 5.89013 142.917 6.0701C142.917 6.25007 142.858 6.39889 142.741 6.51656C142.623 6.62731 142.467 6.68268 142.274 6.68268C142.087 6.68268 141.934 6.62731 141.817 6.51656C141.706 6.39889 141.651 6.25007 141.651 6.0701C141.651 5.89013 141.706 5.74477 141.817 5.63402C141.934 5.51635 142.087 5.45751 142.274 5.45751ZM142.969 12.7878H144.506V13.4834H140.415V12.7878H142.097V8.70732H140.467V8.01168H142.969V12.7878ZM148.51 7.89747C149.264 7.89747 149.842 8.15357 150.243 8.66579C150.652 9.17109 150.856 9.86327 150.856 10.7423C150.856 11.6007 150.648 12.2928 150.233 12.8189C149.825 13.338 149.247 13.5976 148.499 13.5976C147.745 13.5976 147.163 13.345 146.755 12.8397C146.346 12.3274 146.142 11.6318 146.142 10.7527C146.142 9.8875 146.346 9.19531 146.755 8.67617C147.17 8.15703 147.755 7.89747 148.51 7.89747ZM148.51 8.61388C148.032 8.61388 147.675 8.79038 147.44 9.1434C147.205 9.49641 147.087 10.0329 147.087 10.7527C147.087 11.4726 147.201 12.009 147.43 12.3621C147.665 12.7082 148.022 12.8812 148.499 12.8812C148.977 12.8812 149.33 12.7082 149.558 12.3621C149.794 12.009 149.911 11.4691 149.911 10.7423C149.911 10.0225 149.794 9.48949 149.558 9.1434C149.33 8.79038 148.98 8.61388 148.51 8.61388Z" fill="#121C2D"/>
<path d="M110 2H155.866V0H110V2ZM156.866 3V16.9665H158.866V3H156.866ZM155.866 17.9665H110V19.9665H155.866V17.9665ZM109 16.9665V3H107V16.9665H109ZM110 17.9665C109.448 17.9665 109 17.5188 109 16.9665H107C107 18.6234 108.343 19.9665 110 19.9665V17.9665ZM156.866 16.9665C156.866 17.5188 156.418 17.9665 155.866 17.9665V19.9665C157.523 19.9665 158.866 18.6234 158.866 16.9665H156.866ZM155.866 2C156.418 2 156.866 2.44772 156.866 3H158.866C158.866 1.34315 157.523 0 155.866 0V2ZM110 0C108.343 0 107 1.34315 107 3H109C109 2.44772 109.448 2 110 2V0Z" fill="#E1E3EA"/>
</svg>
