<svg width="136" height="77" viewBox="0 0 136 77" fill="none" xmlns="http://www.w3.org/2000/svg">
<rect x="0.5" y="0.5" width="135" height="76" rx="3.5" fill="white" stroke="#E1E3EA"/>
<path d="M0 4C0 1.79086 1.79086 0 4 0H132C134.209 0 136 1.79086 136 4V12H0V4Z" fill="#001489"/>
<circle cx="10" cy="6" r="2" fill="#EB5656"/>
<circle cx="18" cy="6" r="2" fill="#FAD100"/>
<circle cx="26" cy="6" r="2" fill="#36D576"/>
<rect x="22" y="12" width="4" height="65" fill="#FEECEC"/>
<rect x="30" y="12" width="4" height="65" fill="#FEECEC"/>
<rect x="38" y="12" width="4" height="65" fill="#FEECEC"/>
<rect x="46" y="12" width="4" height="65" fill="#FEECEC"/>
<rect x="54" y="12" width="4" height="65" fill="#FEECEC"/>
<rect x="62" y="12" width="4" height="65" fill="#FEECEC"/>
<rect x="70" y="12" width="4" height="65" fill="#FEECEC"/>
<rect x="78" y="12" width="4" height="65" fill="#FEECEC"/>
<rect x="86" y="12" width="4" height="65" fill="#FEECEC"/>
<rect x="94" y="12" width="4" height="65" fill="#FEECEC"/>
<rect x="102" y="12" width="4" height="65" fill="#FEECEC"/>
<rect x="110" y="12" width="4" height="65" fill="#FEECEC"/>
</svg>
