<svg xmlns="http://www.w3.org/2000/svg" width="136" height="77" fill="none" viewBox="0 0 136 77"><rect width="135" height="76" x=".5" y=".5" fill="#fff" stroke="#E1E3EA" rx="3.5"/><path fill="#001489" d="M0 4C0 1.79086 1.79086 0 4 0H132C134.209 0 136 1.79086 136 4V12H0V4Z"/><circle cx="10" cy="6" r="2" fill="#EB5656"/><circle cx="18" cy="6" r="2" fill="#FAD100"/><circle cx="26" cy="6" r="2" fill="#36D576"/><rect width="4" height="65" x="22" y="12" fill="#FEECEC"/><rect width="4" height="65" x="30" y="12" fill="#FEECEC"/><rect width="4" height="65" x="38" y="12" fill="#FEECEC"/><rect width="4" height="65" x="46" y="12" fill="#FEECEC"/><rect width="4" height="65" x="54" y="12" fill="#FEECEC"/><rect width="4" height="65" x="62" y="12" fill="#FEECEC"/><rect width="4" height="65" x="70" y="12" fill="#FEECEC"/><rect width="4" height="65" x="78" y="12" fill="#FEECEC"/><rect width="4" height="65" x="86" y="12" fill="#FEECEC"/><rect width="4" height="65" x="94" y="12" fill="#FEECEC"/><rect width="4" height="65" x="102" y="12" fill="#FEECEC"/><rect width="4" height="65" x="110" y="12" fill="#FEECEC"/></svg>