<svg width="132" height="24" viewBox="0 0 132 24" fill="none" xmlns="http://www.w3.org/2000/svg">
<path fill-rule="evenodd" clip-rule="evenodd" d="M21.4963 6.62165C21.4963 6.29294 21.4538 5.97506 21.3818 5.66955L22.5513 4.99434L21.3764 2.95711L20.108 3.63386C19.6455 3.1961 18.9494 2.86584 18.3616 2.67867V1.33057H16.0095V2.67944C15.4217 2.86584 14.9213 3.1961 14.4596 3.63386L13.3389 2.95711L12.1872 4.99434L13.369 5.66955C13.2956 5.97506 13.26 6.29294 13.26 6.62165C13.26 6.95036 13.3048 7.2667 13.3768 7.57298L12.2097 8.24896L13.386 10.2854L14.4573 9.60944C14.9213 10.0472 15.4217 10.379 16.0095 10.5646V11.9127H18.3616V10.5646C18.9494 10.379 19.6463 10.0472 20.108 9.60944L21.3277 10.2854L22.5273 8.24896L21.3695 7.57298C21.4414 7.26747 21.4963 6.95036 21.4963 6.62165ZM18.9246 6.62165C18.9246 7.47475 18.2332 8.16543 17.3809 8.16543C16.5285 8.16543 15.8378 7.47475 15.8378 6.62165C15.8378 5.76932 16.5285 5.07787 17.3809 5.07787C18.2332 5.07787 18.9246 5.76932 18.9246 6.62165Z" stroke="#36D576" stroke-width="1.25"/>
<path fill-rule="evenodd" clip-rule="evenodd" d="M7.41356 10.3472C8.15761 9.60318 8.15761 8.39661 7.41356 7.65179L5.3918 5.63003C4.64698 4.88521 3.43964 4.88521 2.6956 5.63003L1.58649 6.73836C0.62433 7.70052 0.475057 9.20176 1.22529 10.3364C4.44743 15.2075 8.74542 19.5047 13.6165 22.7269C14.7488 23.4756 16.254 23.3263 17.2138 22.3657L18.3229 21.2573C19.0669 20.5133 19.0669 19.3059 18.3229 18.5611L16.3011 16.5394C15.5563 15.7945 14.3498 15.7945 13.6049 16.5394L12.9313 17.213C10.7138 15.3962 8.55671 13.2383 6.7399 11.0209L7.41356 10.3472Z" stroke="#36D576" stroke-width="1.25"/>
<path d="M53.9998 7.49283C55.6208 9.65583 55.9558 12.5218 54.8758 14.9998M41.9999 7.49283C40.3789 9.65583 40.0438 12.5218 41.1238 14.9998M38.9998 18.7498C35.2718 13.7788 36.2788 6.72785 41.2498 2.99985C46.2208 -0.728152 53.2718 0.278848 56.9998 5.24985C59.9998 9.24985 59.9998 14.7498 56.9998 18.7498M47.9998 5.24985C49.4498 5.24985 50.6248 6.42485 50.6248 7.87485C50.6248 9.32485 49.4498 10.4998 47.9998 10.4998C46.5498 10.4998 45.3748 9.32485 45.3748 7.87485C45.3748 6.42485 46.5498 5.24985 47.9998 5.24985ZM51.7498 17.2498V14.9998C51.7498 12.9288 50.0708 11.2498 47.9998 11.2498C45.9288 11.2498 44.2498 12.9288 44.2498 14.9998V17.2498H45.7498L46.4998 23.2498H49.4998L50.2498 17.2498H51.7498Z" stroke="#008CFF" stroke-width="1.25" stroke-linecap="round" stroke-linejoin="round"/>
<g clip-path="url(#clip0)">
<path d="M92.5 17C92.5 15.8065 92.0259 14.6619 91.182 13.818C90.3381 12.9741 89.1935 12.5 88 12.5C86.8065 12.5 85.6619 12.9741 84.818 13.818C83.9741 14.6619 83.5 15.8065 83.5 17M82.032 12.984C81.3459 12.6368 80.5822 12.4711 79.8139 12.5029C79.0456 12.5347 78.2982 12.7629 77.6431 13.1657C76.9881 13.5684 76.4471 14.1323 76.0719 14.8036C75.6968 15.4748 75.4998 16.231 75.5 17M95.5 2C95.5 1.73478 95.3946 1.48043 95.2071 1.29289C95.0196 1.10536 94.7652 1 94.5 1H73.5C73.2348 1 72.9804 1.10536 72.7929 1.29289C72.6054 1.48043 72.5 1.73478 72.5 2V18C72.5 18.2652 72.6054 18.5196 72.7929 18.7071C72.9804 18.8946 73.2348 19 73.5 19H88V23L92 19H94.5C94.7652 19 95.0196 18.8946 95.2071 18.7071C95.3946 18.5196 95.5 18.2652 95.5 18V2ZM90.75 8.75001C90.75 9.47936 90.4603 10.1788 89.9446 10.6946C89.4289 11.2103 88.7294 11.5 88 11.5C87.2707 11.5 86.5712 11.2103 86.0555 10.6946C85.5398 10.1788 85.25 9.47936 85.25 8.75001C85.25 8.02066 85.5398 7.32119 86.0555 6.80547C86.5712 6.28974 87.2707 6.00001 88 6.00001C88.7294 6.00001 89.4289 6.28974 89.9446 6.80547C90.4603 7.32119 90.75 8.02066 90.75 8.75001ZM82.75 8.75001C82.75 9.47936 82.4603 10.1788 81.9445 10.6946C81.4288 11.2103 80.7293 11.5 80 11.5C79.2707 11.5 78.5712 11.2103 78.0555 10.6946C77.5397 10.1788 77.25 9.47936 77.25 8.75001C77.25 8.02066 77.5397 7.32119 78.0555 6.80547C78.5712 6.28974 79.2707 6.00001 80 6.00001C80.7293 6.00001 81.4288 6.28974 81.9445 6.80547C82.4603 7.32119 82.75 8.02066 82.75 8.75001Z" stroke="#8C5BD8" stroke-width="1.28" stroke-linecap="round" stroke-linejoin="round"/>
</g>
<path d="M125.25 14.452C125.25 12.96 127.912 12.099 130.729 12.004C130.861 11.9977 130.991 12.0376 131.096 12.117C131.143 12.1518 131.181 12.1969 131.208 12.249C131.235 12.301 131.249 12.3585 131.25 12.417V18.969C131.238 19.0858 131.181 19.1934 131.092 19.2696C131.003 19.3457 130.887 19.3845 130.77 19.378C128.808 19.3437 126.882 19.9096 125.25 21C123.619 19.9072 121.693 19.3388 119.73 19.371C119.613 19.3773 119.498 19.3384 119.408 19.2623C119.319 19.1862 119.262 19.0787 119.25 18.962V12.413C119.251 12.3545 119.265 12.297 119.292 12.245C119.319 12.1929 119.357 12.1478 119.404 12.113C119.509 12.0336 119.639 11.9937 119.771 12C122.588 12.1 125.25 12.96 125.25 14.452ZM125.25 14.452L125.25 21.003M126.75 9.108V4.018C126.752 3.75063 126.647 3.49349 126.46 3.30275C126.273 3.11201 126.017 3.00317 125.75 3H109.75C109.482 3.00343 109.227 3.11277 109.039 3.3041C108.852 3.49543 108.748 3.75319 108.75 4.021V16.236C108.749 16.5032 108.853 16.7601 109.04 16.9506C109.228 17.1411 109.483 17.2498 109.75 17.253H116.25L116.25 21.003H112.663M111.75 6.75299L114.75 9.00299L111.75 11.253M117.75 9.00299H121.5" stroke="#1F304C" stroke-width="1.25" stroke-linecap="round" stroke-linejoin="round"/>
<defs>
<clipPath id="clip0">
<rect width="24" height="24" fill="white" transform="translate(72)"/>
</clipPath>
</defs>
</svg>
