<svg xmlns="http://www.w3.org/2000/svg" width="114" height="72" fill="none" viewBox="0 0 114 72"><path fill="#8C5BD8" d="M20.5183 47.252C18.3343 49.228 15.8383 50.424 13.2383 50.424C10.8463 50.424 9.39028 49.124 9.39028 47.096C9.39028 44.392 11.5223 41.948 20.5183 40.96V47.252ZM27.2783 55V35.708C27.2783 29.052 23.6383 26.348 16.1503 26.348C11.5223 26.348 8.03828 27.284 4.60628 28.636L5.43828 34.044C8.61028 32.744 11.8863 31.808 15.3183 31.808C18.5943 31.808 20.5183 32.952 20.5183 36.02V36.904C8.45428 38.048 2.63028 40.96 2.63028 47.772C2.63028 52.66 6.01028 55.572 11.0543 55.572C15.4223 55.572 18.4903 53.7 20.9343 51.36L21.5583 55H27.2783ZM48.2188 55V18.028H42.1348L32.6188 22.24L33.3468 27.648L41.3028 24.788V55H48.2188ZM70.2579 55V18.028H64.1739L54.6579 22.24L55.3859 27.648L63.3419 24.788V55H70.2579ZM104.517 26.92H97.601L90.789 46.68L83.717 26.504L76.645 27.44L87.357 55.104L86.785 56.404C85.641 59.004 83.977 59.992 81.637 59.992C80.441 59.992 79.453 59.784 78.517 59.524L79.453 65.296C80.077 65.452 80.805 65.608 82.209 65.608C87.305 65.608 90.633 63.632 93.077 56.924L104.517 26.92Z"/><path fill="#D61F1F" d="M114 49.3714C114 48.0443 112.967 47 111.695 47C110.667 47 109.798 47.7172 109.5 48.6862C109.202 47.7173 108.332 47.025 107.305 47.025C106.032 47.025 105 48.0394 105 49.3671C105 50.037 105.264 50.5103 105.688 51.0168L109.502 55L113.312 51.0168C113.736 50.5103 114 50.0408 114 49.3714Z"/></svg>