<svg fill="none" height="42" viewBox="0 0 132 42" width="132" xmlns="http://www.w3.org/2000/svg" xmlns:xlink="http://www.w3.org/1999/xlink"><clipPath id="a"><path d="m0 0h131.886v42h-131.886z"/></clipPath><g clip-path="url(#a)" clip-rule="evenodd" fill="#1f304c" fill-rule="evenodd"><path d="m63.303 10.9758h-2.2628l1.149-3.70793 1.1209 3.70793zm-7.0493 3.8137h3.574l.4652-1.4592h3.6657l.4652 1.4592h3.5741l-3.9336-10.52464h-3.7855z"/><path d="m71.9527 8.19136c.2356-.4323.5931-.78577 1.028-1.0164.435-.23063.9282-.32824 1.4182-.28068.399-.00003.7957.05937 1.1772.17623.3298.08449.6362.24252.8963.46227.26.21975.4669.49553.6052.80663.2256-.50755.9235-1.44513 2.6858-1.44513.7781-.02059 1.5345.25679 2.1148.77543.2674.30523.4682.66285.5896 1.05005.1214.38719.1607.79545.1154 1.19869v4.87115h-3.0171v-4.0393c0-.4935-.0001-1.32531-1.0716-1.32531-.1627-.01215-.3261.01305-.4777.07366-.1515.06062-.2872.15507-.3967.27612s-.1898.26553-.235.42233c-.0451.1569-.0539.3219-.0255.4827v4.1309h-3.0735v-4.145c.0005-.1491-.0137-.2978-.0423-.4441-.0531-.22855-.1858-.43069-.3744-.57021-.1886-.13951-.4208-.20727-.6548-.19114-.307-.00838-.6053.10284-.8318.31017-.1059.11673-.1867.25388-.2376.40298-.051.1491-.0708.307-.0585.4641v4.2296h-3.0735v-7.75429h2.9395v1.09969z"/><path d="m86.9889 9.86203c.0107-.30376.1371-.59192.3533-.80553.2163-.21361.506-.33649.8098-.34349.2361-.00648.4673.06844.6547.2122s.3196.3476.3745.57732c.0218.11881.0359.23888.0423.3595zm2.6646 2.07247c-.1004.2936-.2906.5482-.5436.7278s-.556.2752-.8662.2733c-.1704.0067-.3403-.0217-.4992-.0836s-.3033-.1558-.4243-.276c-.1318-.1467-.2327-.3184-.2969-.5049s-.0903-.3839-.0767-.5807h5.3927c0-1.1772-.0423-2.46018-1.1772-3.57397-.8458-.77067-1.9579-1.18266-3.1017-1.14905-2.5025 0-4.2296 1.62135-4.2296 4.14502-.0283.5629.0617 1.1255.2642 1.6515.2026.526.5131 1.0036.9117 1.4022.3985.3985.8762.7091 1.4022.9116.526.2026 1.0886.2926 1.6515.2643.8089.0423 1.6144-.1313 2.3341-.5029s1.3277-.9279 1.7616-1.6119l-2.5308-1.0574z"/><path d="m96.421 7.74019c.3413-.32149.75-.56295 1.1962-.70683.4463-.14388.919-.18657 1.3839-.12499v2.59415c-.2115 0-.4159 0-.6274 0-1.8047 0-1.8329 1.17728-1.847 1.68478v3.6375h-3.0523v-7.75431h2.9536v.70493z"/><path d="m99.9879 4.27191h3.0521v2.04431h-3.0732v-2.04431zm0 2.81974h3.0521v7.75425h-3.0732v-7.75425z"/><path d="m112.338 12.717c-.172.4239-.426.8096-.747 1.135-.423.4158-.928.74-1.482.9522-.555.2123-1.147.308-1.74.2814-2.551 0-4.116-1.7271-4.116-4.2296-.035-1.09914.359-2.16867 1.099-2.98187.427-.39731.929-.70596 1.475-.90804.547-.20208 1.129-.2936 1.712-.26921.582-.02395 1.164.07054 1.709.27773s1.043.52277 1.463.9277c.241.2374.448.508.613.80364l-2.34 1.32525c-.039-.31924-.192-.61388-.43-.83003s-.546-.33939-.867-.34719c-.938 0-1.41.92346-1.41 2.11482 0 .6133.12 1.7764 1.325 1.7764.339-.0348.657-.181.905-.4156.247-.2346.41-.5446.463-.8815l2.34 1.283z"/><path d="m118.14 11.2014c.018.3103-.033.6208-.148.9094-.137.2576-.34.4746-.587.6293-.248.1547-.531.2415-.823.2518-.09.0139-.181.0091-.269-.0139-.088-.0231-.17-.064-.242-.1202-.071-.0562-.13-.1265-.173-.2065s-.07-.168-.077-.2585c.014-.1694.083-.3296.196-.4566.114-.127.265-.2141.431-.2484.268-.0916.536-.148.79-.2115.253-.0634.613-.1973.909-.296zm-2.03-1.87511c.105-.53575.296-.70493 1.001-.70493.881 0 1.029.35951 1.043.88116-.537.15606-1.087.26688-1.642.33132-1.354.17626-2.193.29606-2.891 1.01516-.215.2173-.385.4763-.497.761-.113.2848-.167.5894-.158.8955 0 1.3112.853 2.4885 2.819 2.4885.914.039 1.815-.2345 2.552-.7755v.5992h3.024c-.106-.1324-.184-.285-.231-.4485-.046-.1635-.058-.3346-.036-.5031v-4.22964c0-.92346 0-2.81974-3.666-2.81974-.951-.03902-1.899.13938-2.77.52165-.395.19037-.732.4805-.979.84158-.248.36109-.396.78059-.431 1.21684l2.876-.07756z"/><path d="m125.485 8.09969c.272-.41369.651-.7457 1.097-.96053.446-.21482.941-.30435 1.434-.25899.382-.02914.766.01821 1.129.13925.363.12105.698.31337.986.56568.277.31669.489.68556.622 1.08501s.185.82143.153 1.24127v4.87112h-3.073v-4.2296c.032-.149.028-.3035-.011-.4507-.039-.14731-.113-.28322-.214-.39665-.102-.11344-.229-.20118-.372-.25607-.142-.05489-.295-.07537-.446-.05974-.164-.01329-.329.01177-.481.0732-.153.06144-.289.15755-.397.2807-.109.12316-.188.26996-.23.42876-.042.1589-.047.3253-.013.4862v4.1168h-3.074v-7.75426h2.905v1.02922z"/><path d="m61.0896 19.7663c.578 0 1.6213 0 1.6213 1.2337 0 1.2336-1.0574 1.2195-1.6072 1.2195h-1.4099v-2.4602h1.3746zm-4.709 8.3323h3.3414v-3.7079h.9869l2.0443 3.7079h3.6939l-2.566-4.2296c.5098-.1539.9743-.4298 1.3535-.8036.2667-.2822.4749-.6143.6128-.9772.138-.3629.2028-.7495.1908-1.1376.0286-.629-.1287-1.2526-.4521-1.7929-.3234-.5402-.7987-.9734-1.3666-1.2454-.8383-.2626-1.717-.3724-2.5942-.3242h-5.2447v10.5387z"/><path d="m69.5419 23.1642c.0107-.3038.1371-.592.3533-.8056.2163-.2136.506-.3365.8098-.3435.2361-.0064.4673.0685.6547.2122.1874.1438.3196.3476.3745.5774.0218.1188.0359.2389.0423.3595zm2.6717 2.0725c-.1005.2935-.2906.5481-.5436.7277s-.556.2752-.8663.2733c-.1704.0067-.3403-.0217-.4992-.0836-.1589-.0618-.3033-.1558-.4243-.2759-.1317-.1468-.2327-.3185-.2969-.505-.0641-.1864-.0902-.3839-.0767-.5806h5.3928c0-1.1773-.0423-2.4603-1.1773-3.5741-.8458-.7706-1.9579-1.1826-3.1017-1.149-2.5025 0-4.2296 1.6214-4.2296 4.145-.0283.5629.0617 1.1255.2643 1.6515.2025.526.5131 1.0037.9116 1.4022.3986.3986.8763.7091 1.4022.9117.526.2025 1.0886.2925 1.6515.2642.8088.0416 1.6141-.1323 2.3337-.5039.7195-.3715 1.3276-.9274 1.762-1.6109l-2.5307-1.0574z"/><path d="m79.0726 25.7442c-.335-.4328-.4891-.9786-.43-1.5226-.0036-.3056.0271-.6107.0916-.9094.0399-.2649.1721-.5071.3734-.6838.2012-.1768.4585-.2766.7263-.282.2521.0109.4937.1044.6873.2662.1937.1618.3287.3829.3842.6291.0917.3133.1321.6395.1198.9657.0559.5396-.0869 1.081-.4018 1.5227-.2032.2124-.4816.3364-.7754.3454-.1446.0018-.288-.026-.4213-.0818-.1334-.0557-.2539-.1383-.3541-.2425zm1.8751-4.8288c-.2549-.2594-.5622-.4614-.9013-.5927-.3392-.1313-.7024-.1888-1.0655-.1686-1.6848 0-3.3696 1.2054-3.3696 3.9053 0 2.432 1.2689 4.2296 3.4754 4.2296.396.0075.7901-.057 1.1631-.1903.3132-.1057.5879-.302.7895-.564v.564h2.9678v-10.5247h-3.0735v3.3414z"/><path d="m99.5157 25.3847c-.2608.548-.6083 1.0502-1.0292 1.4874-1.1055 1.0307-2.5706 1.5874-4.0816 1.5509-3.7573 0-5.4562-2.8197-5.4562-5.5267 0-2.8197 1.8892-5.71 5.4562-5.71.7831-.0162 1.5614.1259 2.2882.4179.7268.2919 1.3871.7276 1.9414 1.281.3561.3655.6534.7841.8812 1.2407l-2.8198 1.4099c-.1312-.4839-.413-.9134-.8046-1.2265-.3916-.313-.8727-.4933-1.3736-.5147-.2606-.0041-.5195.0436-.7616.1404-.242.0968-.4624.2408-.6483.4235-.5653.6545-.8491 1.5058-.7895 2.3686 0 1.565.5781 3.0383 2.2206 3.0383.4931-.016.9673-.1938 1.3495-.5059.3821-.3121.6511-.7412.7653-1.2212l2.8197 1.3746z"/><path d="m103.195 21.0493c.342-.3214.75-.5629 1.197-.7068.446-.1439.919-.1866 1.383-.125v2.5942c-.211 0-.416 0-.627 0-1.805 0-1.833 1.1772-1.847 1.6848v3.6374h-3.081v-7.7543h2.954v.705z"/><path d="m110.794 22.2125c1.41-.0423 1.41 1.5085 1.41 1.9668 0 1.1631-.345 2.0724-1.41 2.0724-1.254 0-1.409-1.297-1.409-2.0443 0-.867.253-1.9667 1.409-1.9949zm.092-2.1642c-2.82 0-4.561 1.713-4.561 4.2296 0 2.0725 1.283 4.0957 4.399 4.0957 2.918 0 4.603-1.713 4.603-4.145.021-1.1478-.412-2.2575-1.205-3.0876-.9-.7665-2.055-1.1665-3.236-1.1209z"/><path d="m117.548 25.279c.326.3445.723.6139 1.163.7895.386.1643.8.2506 1.22.2537.169.0323.344.0013.492-.0871.149-.0883.259-.2278.311-.3922-.046-.164-.15-.3058-.292-.3991-.143-.0933-.314-.1318-.483-.1085-.543-.0867-1.08-.2068-1.607-.3595-.705-.2115-2.115-.6274-2.115-2.2628.004-.3307.075-.6572.209-.9599.133-.3028.325-.5757.566-.8025.766-.6284 1.739-.9477 2.728-.8952.587.0044 1.171.0753 1.742.2115.709.1429 1.374.4548 1.938.9093l-1.657 1.5086c-.577-.4223-1.266-.6672-1.98-.705-.12 0-.656.0001-.656.4019 0 .2819.204.3313 1.234.578.711.1077 1.407.3018 2.072.5781.369.1879.678.476.892.8313.213.3553.322.7634.314 1.1777 0 1.5227-1.269 2.8621-3.666 2.8621-1.522.0148-2.995-.5382-4.131-1.5509l1.713-1.565z"/><path d="m125.81 25.279c.325.3445.722.6139 1.163.7895.386.1643.8.2506 1.219.2537.17.0323.345.0013.493-.0871.148-.0883.259-.2278.311-.3922-.046-.164-.15-.3058-.293-.3991-.142-.0933-.314-.1318-.482-.1085-.543-.0866-1.08-.2067-1.608-.3595-.705-.2115-2.114-.6274-2.114-2.2628.004-.3307.075-.6572.208-.9599.133-.3028.326-.5757.567-.8025.766-.6284 1.739-.9477 2.728-.8952.587.0044 1.171.0753 1.741.2115.71.1423 1.375.4543 1.939.9093l-1.657 1.5086c-.578-.4223-1.266-.6672-1.981-.705-.119 0-.655.0001-.655.4019 0 .2819.211.3313 1.24.578.712.1077 1.408.3018 2.073.5781.369.1879.678.476.891.8313.214.3553.322.7634.314 1.1777 0 1.5227-1.268 2.8621-3.665 2.8621-1.522.0148-2.995-.5382-4.131-1.5509l1.713-1.565z"/><path d="m14 14h-14v14h14v14h14v-14h14v-14h-14v-14h-14z"/></g></svg>