<svg fill="none" height="30" viewBox="0 0 186 30" width="186" xmlns="http://www.w3.org/2000/svg"><g fill="#1f304c"><path d="m132.13 0c-5.001 0-9.168 4.074-9.168 9.075 0 4.9988 4.815 11.2028 9.168 17.1285 4.26-5.8335 9.166-12.1298 9.166-17.13 0-4.99875-4.074-9.0735-9.166-9.0735zm-.093 13.425c-1.203-.002-2.356-.4805-3.206-1.3307-.851-.8502-1.329-2.0027-1.332-3.2053.002-1.20281.481-2.35579 1.331-3.20631.851-.85051 2.004-1.32921 3.207-1.33119 2.497.093 4.537 2.03775 4.537 4.5375-.002 1.2028-.481 2.3558-1.331 3.2063-.851.8505-2.004 1.3292-3.206 1.3312z" opacity=".5"/><path d="m6.29625 12.963c-2.22225 0-3.61125.3705-5.0925 1.0185l.92625 2.871c1.203-.4635 2.2215-.741 3.6105-.741 1.8525 0 2.778.8325 2.778 2.4075v.1845c-.92625-.3705-1.94475-.555-3.24-.555-3.15 0-5.2785 1.3875-5.2785 4.26 0 2.5912 2.037 3.9802 4.4445 3.9802 1.8525 0 3.0555-.648 3.981-1.6665v1.4813h3.705v-7.5923c0-1.7595-.3713-3.1485-1.3898-4.167-.92245-.9285-2.40745-1.485-4.44145-1.485zm2.22225 8.61c0 1.2975-1.20375 2.223-2.9625 2.4075-1.20375 0-2.03775-.555-2.03775-1.5728v-.093c0-1.2037 1.02-1.8525 2.595-1.8525.927 0 1.76025.186 2.4075.4635v.651zm13.7962-8.7953c-1.9447 0-3.1477.9263-4.074 2.13v-1.8525h-3.7005v16.9448h3.7035v-5.5553c.834 1.0185 2.13 1.944 4.0748 1.944 3.0555 0 5.925-2.4075 5.925-6.759v-.093c0-4.3545-2.8695-6.762-5.925-6.762zm-.9262 10.4625c-1.6665 0-3.1478-1.4812-3.1478-3.6105v-.0922c0-2.13 1.392-3.6113 3.15-3.6113 1.7603 0 3.24 1.4813 3.24 3.7035 0 2.2223-1.4797 3.6113-3.24 3.6113zm14.259-10.2772c-2.22 0-3.6097.3705-5.0925 1.0185l.927 2.8702c1.2037-.465 2.2222-.7425 3.6112-.7425 1.8525 0 2.7803.8325 2.7803 2.4075v.1838c-.9263-.3705-1.9448-.555-3.24-.555-3.15 0-5.2785 1.3875-5.2785 4.26 0 2.5912 2.0362 3.9802 4.5375 3.9802 1.8502 0 3.054-.648 3.9802-1.6665v1.482h3.6113v-7.59c0-1.7602-.3705-3.15-1.389-4.1677-.9263-.9285-2.4075-1.485-4.4445-1.485zm2.2237 8.61c0 1.2975-1.2037 2.223-2.9625 2.4075-1.2045 0-2.0377-.555-2.0377-1.5728v-.093c0-1.2037 1.0185-1.8525 2.5927-1.8525.9263 0 1.7595.186 2.4075.4635v.651zm13.8878-8.703v3.8895h-.1853c-2.4997 0-3.981 1.4812-3.981 4.6297v4.8113h-3.7027v-13.1475h3.7027v2.685c.7403-1.8525 1.944-2.9625 4.1663-2.871zm30.648 4.7227v8.5185h-3.7035v-7.3147c0-1.7595-.7403-2.685-2.13-2.685-1.3875 0-2.2215.9255-2.2215 2.685v7.3147h-3.705v-7.3147c0-1.7595-.7395-2.685-2.1285-2.685s-2.2223.9255-2.2223 2.685v7.3147h-3.7035v-13.056h3.5175v1.8525c.834-1.1115 1.9455-2.13 3.8895-2.13 1.6665 0 2.9625.741 3.7035 2.037 1.1145-1.389 2.5035-2.037 4.26-2.037 2.7803 0 4.4475 1.6665 4.4475 4.815zm8.334-4.7227c-3.7965 0-6.4815 3.0562-6.4815 6.852 0 3.9825 2.9625 6.7597 6.8512 6.7597 2.4075 0 4.17-.93 5.3738-2.4075l-2.13-1.8525c-1.0185 1.0163-1.944 1.3875-3.1478 1.3875-1.6665 0-2.8702-.927-3.24-2.5935h9.0735c.0923-.3705.0923-.741.0923-1.0185 0-3.705-2.0378-7.1302-6.39-7.1302zm-2.871 5.7412c.3705-1.6665 1.2975-2.778 2.8702-2.778 1.5728 0 2.5928 1.1145 2.778 2.781h-5.6475zm23.149-.9262v8.5185h-3.705v-7.3148c0-1.7587-.833-2.685-2.222-2.685s-2.314.9263-2.314 2.685v7.3148h-3.703v-13.1475h3.703v1.851c.832-1.11 1.944-2.13 3.796-2.13 2.775 0 4.442 1.8525 4.442 4.908zm-51.1128 5.0925.927 2.685c-.738.4635-1.9425.9262-3.24.9262-2.3122 0-4.0725-1.389-4.0725-4.4445v-12.77922h3.705v3.88952h3.0555v3.1477h-3.0562v5.7405c0 .8325.3697 1.296 1.203 1.296.6487-.093 1.2045-.2775 1.482-.4635zm59.6308 0 .926 2.685c-.741.4635-1.944.9262-3.24.9262-2.223 0-4.075-1.389-4.075-4.4445v-12.77922h3.703v3.88952h3.057v3.1477h-3.058v5.7405c0 .8325.37 1.296 1.204 1.296.648-.093 1.203-.2775 1.482-.4635zm65.463 2.685c-.741.4635-1.945.9262-3.24.9262-2.223 0-4.075-1.389-4.075-4.4445v-12.77922h3.704v3.88952h3.055v3.1477h-3.055v5.7405c0 .8325.37 1.296 1.204 1.296.648-.093 1.203-.2775 1.481-.4635l.926 2.685zm-30.926-16.29602h3.703v16.94472h-3.703zm6.388 0h3.89v3.33372h-3.89zm.093 4.72202h3.704v12.2227h-3.704v-12.2212zm16.11 8.241v.093c0 2.8702-2.221 4.26-4.998 4.26-2.04-.0938-4.077-.6495-5.835-2.0378l1.575-2.4075c1.387 1.0185 2.868 1.575 4.164 1.575 1.111 0 1.575-.3712 1.575-1.02v-.0922c0-.8325-1.298-1.11-2.685-1.4813-1.853-.555-3.89-1.389-3.89-3.9825v-.0915c0-2.685 2.129-4.167 4.815-4.167 1.665 0 3.425.555 4.907 1.4813l-1.39 2.5927c-1.298-.7425-2.593-1.2075-3.518-1.2075-.927 0-1.389.3713-1.389.927v.0915c0 .7403 1.203 1.11 2.685 1.575 1.852.6465 3.981 1.4798 3.981 3.8873zm-27.22-4.722c-2.871 4.1662-10.464 6.4815-17.315 8.796 4.26-5.8335 9.166-12.1298 9.166-17.13002 0-2.118-.737-4.065-1.967-5.6115 2.602-.78525 5.527-.4065 7.893 1.26 4.074 2.87025 5.092 8.61152 2.222 12.68552z"/></g></svg>