<svg fill="none" height="36" viewBox="0 0 176 36" width="176" xmlns="http://www.w3.org/2000/svg"><path clip-rule="evenodd" d="m169.668 14.1971c-.526-.0327-1.045.1346-1.453.4683-.408.3338-.675.8093-.747 1.3314h4.299c-.05-.5127-.297-.986-.688-1.3213s-.897-.5066-1.411-.4784zm-123.1754-3.0993-1.8996 5.2989h3.8992zm23.6952 3.3993c-.3317.0018-.6596.0718-.9632.2057-.3035.1339-.5763.3288-.8013.5726-.2251.2438-.3976.5313-.5068.8446s-.1529.6457-.1282.9765c-.0324.3325.0058.6681.1121.9848.1064.3167.2785.6073.5051.8527.2266.2455.5025.4403.8097.5716s.6386.1962.9726.1904c.3292-.0102.653-.0859.9526-.2227.2996-.1367.569-.3318.7924-.5738.2233-.242.3963-.5261.5087-.8356.1123-.3096.162-.6384.1459-.9674.0246-.3308-.019-.6632-.1282-.9765s-.2817-.6008-.5068-.8446c-.225-.2438-.4978-.4387-.8014-.5726-.3035-.1339-.6314-.2039-.9632-.2057zm66.6862 0c-.331.0018-.659.0718-.963.2057-.303.1339-.576.3288-.801.5726s-.398.5313-.507.8446-.153.6457-.128.9765c-.033.3325.006.6681.112.9848s.278.6073.505.8527c.227.2455.502.4403.81.5716.307.1313.638.1962.972.1904.33-.0102.653-.0859.953-.2227.3-.1367.569-.3318.792-.5738.224-.242.397-.5261.509-.8356.112-.3096.162-.6384.146-.9674.016-.3289-.034-.6577-.146-.9673s-.285-.5936-.509-.8356c-.223-.242-.492-.4371-.792-.5738-.3-.1368-.623-.2125-.953-.2227zm-26.794-.1c-.345.0033-.685.0769-1 .2163-.315.1395-.598.3417-.832.5945s-.414.5506-.529.8754-.162.6696-.139 1.0132c-.014.3418.039.6831.157 1.0042s.298.6156.53.8666c.233.251.513.4535.824.5957s.647.2214.989.233c.419.0188.837-.0619 1.22-.2357.382-.1738.718-.4356.979-.7641v-3.3993c-.267-.3215-.604-.5783-.985-.7514s-.796-.258-1.214-.2484zm-95.9808-7.29854-6.99857 9.59804c0 .0265-.01054.052-.02929.0707-.01875.0188-.04418.0293-.07069.0293 0 .0265-.01054.0519-.02929.0707-.01875.0187-.04418.0293-.07069.0293v.1c0 .0999 0 .0999-.09998.1999v.2 3.8992c.00511.1646.04296.3265.11134.4763s.16591.2845.28691.3961c.121.1117.26303.1982.41781.2544s.3192.081.48367.0729h13.99718c.3274-.0013.6424-.1252.883-.3473s.3892-.5262.4167-.8524v-3.8992-.2c0-.1 0-.1-.1-.1999v-.1c0-.0265-.0105-.052-.0292-.0707-.0188-.0188-.0442-.0293-.0707-.0293 0-.0131-.0026-.0261-.0076-.0383-.0051-.0121-.0124-.0231-.0217-.0324s-.0203-.0166-.0325-.0217c-.0121-.005-.0251-.0076-.0382-.0076l-6.9986-9.59804c-.111-.1629-.2601-.29621-.4343-.38835-.1743-.09213-.3684-.14029-.5655-.14029s-.3912.04816-.5655.14029c-.1742.09214-.3233.22545-.4343.38835zm49.39 4.29914v3.4993c-1.369-.0369-2.6976.4658-3.6993 1.3997v6.2987h-3.5992v-10.9978h3.5992v1.1998c.489-.4727 1.0693-.8406 1.7054-1.0813.636-.2406 1.3145-.349 1.9939-.3184zm-15.1969-4.89902 6.3987 15.99672h-3.9992l-.9998-2.6994h-6.3987l-.9998 2.6994h-3.9992l6.3987-15.99672zm73.5847 0v5.79882c.809-.6941 1.834-1.0832 2.9-1.0998 2.699 0 4.499 1.8996 4.499 4.999v6.1988h-3.499v-5.6989c0-1.5997-.8-2.2995-2-2.2995-.376.0418-.738.1612-1.065.3505s-.611.4444-.835.7493v6.8986h-3.599v-15.9968h3.599zm-24.0948 4.79902c2.6998 0 4.4988 1.8996 4.4988 4.999v6.1987h-3.5989v-5.6988c0-1.5997-.7999-2.2995-1.9996-2.2995-.3755.0418-.7383.1612-1.0653.3505s-.6111.4444-.8343.7492v6.8986h-3.5993v-10.8978h3.5993v.6999c.8698-.6402 1.9193-.99 2.9993-.9998zm59.9878 0c2.6 0 4.399 1.8996 4.399 4.999v6.1987h-3.599v-5.6988c0-1.5997-.8-2.2995-1.9-2.2995-.322-.0063-.641.0738-.922.232s-.515.3888-.677.6678v6.9986h-3.6v-5.6989c0-1.5997-.799-2.2995-1.899-2.2995-.316.0272-.622.1216-.897.2768-.276.1552-.516.3676-.703.623v6.9986h-3.599v-10.6979h3.599v.5999c.709-.6503 1.638-1.0076 2.6-.9998.627-.0174 1.251.1087 1.823.3686.571.2598 1.076.6467 1.476 1.1311 1.069-.9552 2.467-1.4572 3.899-1.3997zm11.898.1c.729-.0281 1.457.0949 2.137.3613s1.297.6705 1.813 1.1868c.517.5163.921 1.1338 1.187 1.8137.267.6798.39 1.4074.362 2.1371.016.4356-.017.8717-.1 1.2997h-7.599c.122.5355.43 1.0103.87 1.3399.439.3295.981.4924 1.53.4597.314.0286.631-.0312.913-.1724.283-.1413.52-.3586.686-.6274h3.6c-.5 2.2995-2.6 3.6993-5.199 3.6993-.765.0438-1.53-.0728-2.247-.3423-.716-.2695-1.369-.6861-1.915-1.2228s-.974-1.1818-1.256-1.8937-.412-1.475-.381-2.2401c-.074-.7627.019-1.5322.271-2.2557.253-.7234.659-1.3835 1.191-1.9347.532-.5513 1.178-.9805 1.892-1.2582.714-.2776 1.48-.3971 2.245-.3502zm-53.889-4.89902v15.99672h-3.6v-.5998c-.867.5453-1.875.8235-2.899.7998-.722-.0258-1.432-.1937-2.09-.4941-.657-.3005-1.249-.7276-1.741-1.2568-.492-.5293-.875-1.1504-1.127-1.8279-.252-.6774-.368-1.3978-.341-2.12-.027-.7223.089-1.4427.341-2.1201s.635-1.2986 1.127-1.8278c.492-.5293 1.084-.9564 1.741-1.2568.658-.3005 1.368-.4684 2.09-.4942 1.024-.0237 2.032.2545 2.899.7998v-5.59882zm21.095 4.89902c.763-.0362 1.525.0857 2.238.358.713.2722 1.363.689 1.907 1.2242.545.5351.973 1.177 1.257 1.8855.285.7084.42 1.468.397 2.2311 0 1.538-.611 3.0129-1.698 4.1004-1.088 1.0875-2.563 1.6985-4.101 1.6985s-3.013-.611-4.1-1.6985c-1.088-1.0875-1.698-2.5624-1.698-4.1004-.023-.7631.112-1.5227.396-2.2311.285-.7085.713-1.3504 1.258-1.8855.544-.5352 1.193-.952 1.907-1.2242.713-.2723 1.475-.3942 2.237-.358zm-66.6862 0c.7627-.0362 1.5245.0857 2.2378.358.7132.2722 1.3625.689 1.9071 1.2242.5445.5351.9725 1.177 1.2571 1.8855.2847.7084.4198 1.468.3969 2.2311 0 .7615-.15 1.5156-.4414 2.2192-.2915.7035-.7186 1.3428-1.2571 1.8812-.5384.5385-1.1777.9656-1.8812 1.2571-.7036.2914-1.4576.4414-2.2192.4414-.7615 0-1.5155-.15-2.2191-.4414-.7035-.2915-1.3428-.7186-1.8812-1.2571-.5385-.5384-.9657-1.1777-1.2571-1.8812-.2914-.7036-.4414-1.4577-.4414-2.2192-.0229-.7631.1122-1.5227.3968-2.2311.2847-.7085.7127-1.3504 1.2572-1.8855.5446-.5352 1.1938-.952 1.9071-1.2242.7133-.2723 1.4751-.3942 2.2377-.358zm11.0978.1999v5.6989c0 1.5997.7998 2.2995 1.9996 2.2995.3902-.0391.7685-.1566 1.1121-.3456s.6455-.4455.8875-.7541v-6.8987h3.4993v10.8978h-3.5993v-.6998c-.8083.6941-1.8341 1.0832-2.8994 1.0998-2.6995 0-4.5991-1.8997-4.5991-4.999v-6.1988h3.5993zm-66.1866-11.5976c4.0413.0474832 7.8991 1.69443 10.7287 4.58022 2.8295 2.88578 4.4003 6.77518 4.3682 10.81668.0321 4.0414-1.5387 7.9309-4.3682 10.8166-2.8296 2.8858-6.6874 4.5328-10.7287 4.5803-2.0061-.0064-3.991-.4112-5.83939-1.1909-1.84839-.7798-3.52347-1.9189-4.928-3.3514-1.40453-1.4324-2.51052-3.1296-3.25375-4.9929-.743236-1.8634-1.1089107-3.8559-1.07579617-5.8617-.03201893-4.0415 1.53872617-7.9309 4.36829617-10.81668 2.82957-2.88579 6.68734-4.5327368 10.72864-4.58022zm63.6871 29.8939c.2 0 .2999 0 .3999.1.0621.0466.1125.107.1472.1764s.0528.1459.0528.2235-.0181.1542-.0528.2236-.0851.1298-.1472.1764c-.1.0999-.1999.0999-.3999.0999s-.2999 0-.3999-.0999c-.061-.0476-.1106-.1082-.1452-.1774s-.0533-.1452-.0548-.2226c0-.1999 0-.2999.1-.3999.1564-.0724.3277-.1066.4999-.1zm10.3979.8999h-.9998v2.1995h.9998c.1472.0122.2953-.0084.4336-.0602.1383-.0519.2633-.1337.3662-.2397.1999-.2177.3075-.5044.3-.7999.0122-.1472-.0084-.2952-.0603-.4335-.0518-.1383-.1337-.2634-.2397-.3663-.1-.2-.3999-.2999-.7998-.2999zm21.796 1.4997c-.247.006-.488.0748-.7.1999-.191.1956-.328.4364-.4.6999h1.899v-.3c0-.0999-.1-.1999-.2-.2999s-.2-.2-.299-.2c-.1 0-.1-.0999-.3-.0999zm-35.4932 0c-.2465.006-.4874.0748-.6999.1999-.1905.1956-.3281.4364-.3999.6999h1.8996v-.3c0-.0999-.1-.1999-.2-.2999-.0999-.1-.1999-.2-.2999-.2s-.1-.0999-.2999-.0999zm88.2822 0c-.157-.0079-.312.0248-.453.0949-.14.07-.259.1751-.347.305-.202.2559-.308.5741-.3.8998-.026.1732.009.3501.1.4999.1.2.1.2999.2.3999l.3.3c.123.0656.26.0999.4.0999.139 0 .277-.0343.4-.0999.1-.1.3-.1.4-.3.061-.0476.11-.1082.145-.1773.034-.0692.053-.1453.055-.2226.081-.1535.115-.3271.1-.4999.008-.3566-.097-.7065-.3-.9998-.1-.2-.3-.2999-.7-.2999zm-69.686 0c-.1565-.0079-.3123.0248-.4524.0949-.1402.07-.2598.1751-.3474.305-.2017.2559-.3078.5741-.3.8998-.0261.1732.0093.3501.1.4999.1.2.1.2999.2.3999l.2999.3c.1231.0656.2604.0999.3999.0999s.2769-.0343.3999-.0999c.1-.1.3-.1.4-.3.0609-.0476.1105-.1082.1451-.1773.0346-.0692.0533-.1453.0548-.2226.0808-.1535.1156-.3271.1-.4999.008-.3566-.097-.7065-.2999-.9998-.1-.2-.3-.2999-.6999-.2999zm39.692 0c-.157-.0079-.312.0248-.452.0949-.141.07-.26.1751-.348.305-.202.2559-.308.5741-.3.8998-.026.1732.009.3501.1.4999.1.2.1.2999.2.3999l.3.3c.123.0656.26.0999.4.0999.139 0 .277-.0343.4-.0999.1-.1.3-.1.4-.3.061-.0476.11-.1082.145-.1773.035-.0692.053-.1453.055-.2226.081-.1535.115-.3271.1-.4999.012-.1624-.008-.3257-.059-.4803-.052-.1545-.134-.2972-.241-.4195-.058-.1336-.157-.2449-.283-.317-.126-.0722-.273-.1013-.417-.0829zm-27.195-.9998c.211-.0128.421.026.613.1132.191.0871.359.2199.487.3867.153.1774.267.3844.336.6081.069.2236.091.4591.064.6916v2.1996c.015.1409-.02.2826-.1.3999-.1.1-.2.1-.4.1-.141.0149-.282-.0205-.4-.1-.1-.1-.1-.2-.1-.3999v-1.8997c.005-.3114-.064-.6195-.2-.8998-.074-.0876-.166-.1593-.269-.2108-.103-.0516-.215-.0819-.33-.0891-.119-.0155-.239.0048-.346.0583-.107.0534-.196.1376-.254.2416-.2.2-.2.4999-.2.8998v1.7997c.015.1409-.021.2826-.1.3999-.1.1-.2.1-.4.1-.141.0149-.283-.0205-.4-.1-.1-.1-.1-.2-.1-.3999v-3.3993c-.007-.0543-.001-.1094.016-.1612.018-.0519.046-.0993.084-.1388.1-.1.2-.1.4-.1s.3 0 .4.1c.038.0395.066.0869.083.1388.018.0518.023.1069.017.1612v.2999c.1-.2999.3-.3999.5-.5999.166-.1413.381-.2129.599-.1999zm22.696 0c.21-.0128.42.026.612.1132.192.0871.359.2199.488.3867.152.1774.266.3844.335.6081.069.2236.091.4591.065.6916v2.1996c.015.1409-.021.2826-.1.3999-.1.1-.2.1-.4.1-.141.0149-.283-.0205-.4-.1-.1-.1-.1-.2-.1-.3999v-1.8997c.004-.3114-.064-.6195-.2-.8998-.075-.0876-.167-.1593-.27-.2108-.103-.0516-.215-.0819-.33-.0891-.119-.0155-.239.0048-.346.0583-.107.0534-.195.1376-.254.2416-.2.2-.2.4999-.2.8998v1.7997c.015.1409-.02.2826-.1.3999-.1.1-.2.1-.4.1-.141.0149-.282-.0205-.4-.1-.1-.1-.1-.2-.1-.3999v-3.3993c-.006-.0543-.001-.1094.017-.1612.017-.0519.045-.0993.083-.1388.1-.1.2-.1.4-.1s.3 0 .4.1c.038.0395.066.0869.084.1388.017.0518.023.1069.016.1612v.2999c.1-.2999.3-.3999.5-.5999 0-.1.3-.1999.6-.1999zm-50.4899.0999c.1409-.0149.2826.0205.3999.1.1.1.1.2.1.3999v2.7995c0 .1.1.1.2.1.0999 0 .1999 0 .1999.0999 0 .1.1.2.1.3s0 .2999-.1.3999-.1999.1-.3999.1c-.1314.0035-.262-.0215-.3828-.0733-.1208-.0517-.229-.1291-.3171-.2267-.1999-.1999-.1999-.4999-.1999-.9998v-2.4995c-.015-.1409.0204-.2826.1-.3999.094-.049.1952-.0828.2999-.1zm-6.8986-1.4997c.2 0 .2999 0 .3999.1.061.0476.1106.1082.1452.1774s.0533.1452.0548.2225v4.6991c0 .2 0 .2999-.1.3999s-.2.1-.3999.1c-.141.015-.2826-.0205-.3999-.1-.1-.1-.1-.1999-.1-.3999v-3.1994l-1.3997 2.5995c-.1.1-.1.2-.2.3-.0395.0377-.0869.0663-.1388.0836-.0518.0173-.1069.0229-.1611.0163-.2 0-.3-.0999-.4999-.3999l-1.2998-2.4995v3.1994c0 .1999 0 .2999-.1.3999-.0999.1-.1999.1-.3999.1-.1409.0149-.2826-.0205-.3999-.1-.1-.1-.1-.2-.1-.3999v-4.6991c.0221-.1512.0924-.2913.2005-.3994s.2482-.1784.3994-.2005c.1 0 .2999 0 .2999.1.1235.114.2252.2495.3.3999l1.6996 3.0994 1.6997-3.0994c.0748-.1504.1764-.2859.2999-.3999 0-.1.1-.1.2-.1zm10.8978 1.3998c.2102-.0128.4203.026.612.1132.1917.0871.3592.2199.4878.3867.1525.1774.2668.3844.3356.6081.0688.2236.0907.4591.0643.6916v2.1996c.0149.1409-.0205.2826-.1.3999-.1.1-.2.1-.3999.1-.1409.0149-.2826-.0205-.3999-.1-.1-.1-.1-.2-.1-.3999v-1.8997c.0043-.3114-.0642-.6195-.2-.8998-.0748-.0876-.1664-.1593-.2695-.2108-.103-.0516-.2154-.0819-.3304-.0891-.1184-.0155-.2388.0048-.3457.0583-.1069.0534-.1954.1376-.2541.2416-.2.2-.2.4999-.2.8998v1.7997c.015.1409-.0204.2826-.1.3999-.0999.1-.1999.1-.3999.1-.1409.0149-.2826-.0205-.3999-.1-.1-.1-.1-.2-.1-.3999v-3.3993c-.0065-.0543-.0009-.1094.0163-.1612.0173-.0519.0459-.0993.0837-.1388.1-.1.2-.1.3999-.1.2 0 .3 0 .3999.1.0378.0395.0664.0869.0837.1388.0173.0518.0228.1069.0163.1612v.2999c.1-.2999.3-.3999.4999-.5999.1668-.1413.3817-.2129.5999-.1999zm64.9867 0c.202-.0187.405.0074.595.0766.19.0691.363.1795.505.3233.251.3505.39.7687.4 1.1997v2.1996c.015.1409-.021.2826-.1.3999-.1.1-.2.1-.4.1-.141.015-.283-.0205-.4-.1-.1-.1-.1-.1999-.1-.3999v-2.0996c.013-.2182-.059-.4331-.2-.5999-.134-.1295-.313-.2018-.5-.2018-.186 0-.366.0723-.5.2018-.141.1668-.213.3817-.2.5999v2.0996c.015.1409-.02.2826-.1.3999-.1.1-.2.1-.4.1-.141.015-.282-.0205-.4-.1-.1-.1-.099-.1999-.099-.3999v-2.0996c.012-.2182-.059-.4331-.2-.5999-.135-.1295-.314-.2018-.5-.2018-.187 0-.366.0723-.5.2018-.142.1668-.213.3817-.2.5999v2.0996c.015.1409-.021.2826-.1.3999-.1.1-.2.1-.4.1-.141.015-.283-.0205-.4-.1-.1-.1-.1-.1999-.1-.3999v-3.2993c0-.2 0-.3.1-.4.1-.0999.2-.0999.4-.0999s.3 0 .3.0999c.038.0395.066.0869.083.1388.018.0519.023.1069.017.1612v.1999c.097-.2216.233-.4246.4-.5998.094-.0837.206-.1452.327-.1798s.248-.0415.373-.0202c.246.0061.487.0749.699.2.2.0999.3.3999.4.5998.023-.1217.07-.2376.139-.3407s.158-.1912.261-.2591c.265.05.536.05.8 0zm-48.0901 0c.1999 0 .2999 0 .4001.0999.038.0395.066.0869.083.1388.018.0519.023.1069.017.1612.015.1409-.021.2826-.1.3999-.1002.1-.2002.1-.4001.1-.1728-.0156-.3464.0191-.4999.1-.1.0999-.3.0999-.4.1999-.1235.1139-.2251.2495-.2999.3999-.0814.1889-.1157.3948-.1.5999v1.5997c0 .2 0 .2999-.0999.3999-.1.1-.2.1-.4.1-.1409.015-.2826-.0205-.3999-.1-.1-.1-.1-.1999-.1-.3999v-3.2993c-.0065-.0543-.0009-.1094.0164-.1612.0172-.0519.0458-.0993.0836-.1388.1-.1.2-.1.3999-.1.0668-.0044.1338.0055.1964.0291.0627.0235.1196.0602.1669.1075.0473.0474.084.1043.1076.1669.0235.0627.0334.1296.029.1964v.3c.1361-.2236.3046-.4257.4999-.5999.2177-.1999.5045-.3074.7999-.2999zm60.4881-1.3998c.2 0 .3 0 .4.1s.099.2.099.3999v4.7991c0 .1999.001.2999-.099.3999s-.2.1-.4.1-.3 0-.4-.1-.1-.2-.1-.3999v-1.9996h-2.5v1.9996c0 .1999 0 .2999-.1.3999s-.2.1-.4.1-.3 0-.4-.1-.1-.2-.1-.3999v-4.7991c0-.1999 0-.2999.1-.3999s.2-.1.4-.1.3 0 .4.1.1.2.1.3999v1.7997h2.5v-1.7997c0-.1999 0-.2999.1-.3999s.2-.1.4-.1zm-44.191 1.3998c.2 0 .299 0 .399.0999.038.0395.067.0869.084.1388s.023.1069.016.1612c.015.1409-.02.2826-.1.3999-.1.1-.199.1-.399.1-.173-.0156-.347.0191-.5.1-.1.0999-.3.0999-.4.1999-.124.1139-.225.2495-.3.3999-.082.1889-.116.3948-.1.5999v1.5997c0 .2 0 .2999-.1.3999s-.2.1-.4.1c-.141.015-.283-.0205-.4-.1-.1-.1-.1-.1999-.1-.3999v-3.2993c-.007-.0543-.001-.1094.016-.1612.018-.0519.046-.0993.084-.1388.1-.1.2-.1.4-.1.067-.0044.134.0055.196.0291.063.0235.12.0602.167.1075.048.0474.084.1043.108.1669.023.0627.033.1296.029.1964v.3c.136-.2236.304-.4257.5-.5999.234-.1706.511-.2743.8-.2999zm5.199 0c.199 0 .299 0 .399.0999.038.0395.067.0869.084.1388s.023.1069.016.1612c.015.1409-.02.2826-.1.3999-.1.1-.2.1-.399.1-.173-.0156-.347.0191-.5.1-.1.0999-.3.0999-.4.1999-.124.1139-.225.2495-.3.3999-.082.1889-.116.3948-.1.5999v1.5997c0 .2 0 .2999-.1.3999s-.2.1-.4.1c-.141.015-.283-.0205-.4-.1-.1-.1-.1-.1999-.1-.3999v-3.2993c-.007-.0543-.001-.1094.016-.1612.018-.0519.046-.0993.084-.1388.1-.1.2-.1.4-.1.067-.0044.134.0055.196.0291.063.0235.12.0602.167.1075.047.0474.084.1043.108.1669.023.0627.033.1296.029.1964v.3c.136-.2236.304-.4257.5-.5999.217-.1999.504-.3074.8-.2999zm-31.894-1.3998c.3034-.0162.6074.0176.8998.1.2634.0718.5042.2094.6998.3999.1671.1753.3024.3783.4.5999.0872.2571.1213.5292.0999.7999-.0185.3086-.086.6123-.1999.8998-.0228.1217-.07.2376-.1387.3407-.0688.1031-.1576.1913-.2612.2592-.1956.1905-.4365.3281-.6999.3999-.2924.0824-.5964.1162-.8998.1h-.9998v1.2997c0 .2 0 .2999-.1.3999s-.1999.1-.3999.1-.2999 0-.3999-.1-.1-.1999-.1-.3999v-4.6991c0-.1999 0-.2999.1-.3999s.1999-.1.3999-.1zm74.285 1.3998c.278.0066.551.0749.8.1999.195.1742.364.3763.5.5999v-.2999c-.007-.0543-.001-.1094.016-.1612.017-.0519.046-.0993.084-.1388.1-.1.2-.1.4-.1s.299 0 .399.1c.038.0395.067.0869.084.1388.017.0518.023.1069.016.1612v2.5994c0 .3.1.4.2.4s.1 0 .2.0999c.1.1.1.2.1.3 0 .3999-.2.4999-.6.4999-.218.013-.433-.0587-.599-.2-.126-.1366-.197-.3144-.2-.4999v-.1c-.111.2969-.324.5449-.6.6999-.2.2-.5.2-.9.2-.244-.0197-.482-.0877-.7-.2-.2-.1-.4-.2999-.6-.3999-.19-.1956-.328-.4365-.4-.6999-.082-.2924-.116-.5964-.1-.8998.019-.3086.086-.6124.2-.8998.072-.2634.21-.5043.4-.6999.174-.1953.377-.3638.6-.4999.213-.1251.453-.1939.7-.1999zm-52.589 0c.276.0189.547.0866.799.1999.225.0925.429.2284.6.4.172.1716.308.3755.4.5998.082.2237.116.4622.1.6999 0 .1999 0 .2999-.1.3999-.047.061-.108.1106-.177.1452s-.145.0533-.223.0548h-2.499c.028.3073.171.5928.4.7998.217.1999.504.3074.8.2999h.299c.1 0 .2-.0999.3-.0999.076-.0106.146-.0457.2-.1.1 0 .1-.1.2-.1.076-.0106.146-.0457.2-.1.055-.0085.11-.0041.163.013.052.0171.1.0463.139.0853s.068.0866.085.139c.017.0525.022.1082.013.1626 0 .1 0 .2-.1.2s-.1.1-.1.2c-.2.0999-.4.2999-.6.3999-.292.0824-.596.1162-.899.1-.279-.0067-.552-.075-.8-.2-.271-.1073-.511-.2789-.7-.4999-.191-.1956-.328-.4364-.4-.6999-.114-.2874-.181-.5912-.2-.8998.019-.3086.086-.6123.2-.8998.072-.2634.209-.5043.4-.6999.189-.221.429-.3926.7-.4999.3 0 .5-.0999.8-.0999zm-35.4932 0c.2763.0189.5471.0866.7998.1999.2244.0925.4282.2284.5998.4s.3075.3755.4.5998c.082.2237.1161.4622.1.6999 0 .1999 0 .2999-.1.3999-.0476.061-.1082.1106-.1774.1452-.0691.0346-.1452.0533-.2225.0548h-2.4995c.0282.3073.171.5928.3999.7998.2177.1999.5044.3074.7998.2999h.3c.1 0 .1999-.0999.2999-.0999.0758-.0106.1461-.0457.2-.1.1 0 .1-.1.1999-.1.0758-.0106.1461-.0457.2-.1.0545-.0085.1102-.0041.1626.013s.1001.0463.1391.0853c.0389.039.0682.0866.0852.139.0171.0525.0216.1082.013.1626 0 .1 0 .2-.1.2-.0999 0-.0999.1-.0999.2-.2.0999-.4.2999-.5999.3999-.2924.0824-.5964.1162-.8998.1-.2782-.0067-.5513-.075-.7999-.2-.2704-.1073-.5107-.2789-.6998-.4999-.1905-.1956-.3281-.4364-.3999-.6999-.1139-.2874-.1814-.5912-.2-.8998.0186-.3086.0861-.6123.2-.8998.1113-.2452.2452-.4795.3999-.6999.1891-.221.4294-.3926.6998-.4999.3 0 .4999-.0999.7999-.0999zm18.3962 0c.2782.0066.5513.0749.7999.1999.1953.1742.3638.3763.4999.5999v-.2999c-.0066-.0543-.001-.1094.0163-.1612.0173-.0519.0459-.0993.0837-.1388.0999-.1.1999-.1.3999-.1.1999 0 .2999 0 .3999.1.0378.0395.0664.0869.0836.1388.0173.0518.0229.1069.0164.1612v2.5994c0 .3.1.4.1999.4.1 0 .1 0 .2.0999.1.1.1.2.1.3 0 .3999-.2.4999-.5999.4999-.2182.013-.4331-.0587-.5999-.2-.1254-.1366-.1965-.3144-.1999-.4999v-.1c-.1109.2969-.3235.5449-.5999.6999-.2.2-.4999.2-.8998.2-.2443-.0197-.4822-.0877-.6999-.2-.2-.1-.3999-.2999-.5999-.3999-.1905-.1956-.3281-.4365-.3999-.6999-.0825-.2924-.1162-.5964-.1-.8998.0186-.3086.0861-.6124.2-.8998.0718-.2634.2094-.5043.3999-.6999.1742-.1953.3763-.3638.5999-.4999.2125-.1251.4533-.1939.6998-.1999zm47.89.0999c.141-.0149.283.0205.4.1.1.1.1.2.1.3999v1.9996c.016.2705-.017.5417-.1.7999-.097.2216-.233.4246-.4.5999-.157.1884-.365.3273-.6.3999-.257.0872-.529.1213-.799.1-.271.0162-.542-.0177-.8-.1-.225-.0925-.428-.2284-.6-.4s-.308-.3755-.4-.5998c-.087-.2571-.121-.5292-.1-.7999v-1.9996c-.015-.1409.02-.2826.1-.3999.1-.1.2-.1.4-.1.141-.0149.283.0205.4.1.1.1.1.2.1.3999v1.9996c.006.2465.075.4874.2.6999.07.0931.16.1687.264.2208.104.052.219.0791.336.0791.116 0 .231-.0271.335-.0791.104-.0521.195-.1277.265-.2208.125-.2125.193-.4534.199-.6999v-1.9996c-.014-.1409.021-.2826.1-.3999.204-.0051.406-.0388.6-.1zm-39.992-1.0997c.141-.015.283.0204.4.0999.1.1.1.2.1.4v.5998h.7c.055-.0085.11-.0041.163.013.052.0171.1.0463.139.0853s.068.0866.085.1391c.017.0524.022.1081.013.1626 0 .0999 0 .2999-.1.2999-.039.0378-.087.0664-.139.0836-.051.0173-.107.0229-.161.0164h-.7v1.8996c0 .3999.1.5999.4.5999.055.0065.11.0009.161-.0164.052-.0172.1-.0458.139-.0836.1 0 .1-.1.2-.1.055-.0085.11-.0041.163.013.052.0171.1.0463.139.0853s.068.0866.085.139c.017.0525.022.1082.013.1626 0 .2-.1.4-.2.4s-.2.0999-.4.1999h-.5c-.205.0158-.411-.0185-.6-.1-.15-.0748-.286-.1764-.4-.2999-.125-.1366-.196-.3145-.199-.4999-.024-.1685-.057-.3354-.1-.4999v-1.9996h-.2c-.055.0085-.111.0041-.163-.013s-.1-.0463-.139-.0853c-.039-.0389-.068-.0866-.085-.139s-.022-.1082-.013-.1626c0-.1 0-.3.1-.3.039-.0378.087-.0663.138-.0836.052-.0173.107-.0229.162-.0163h.2v-.5999c-.015-.141.02-.2826.1-.3999zm49.99.9998c.271-.0214.543.0127.8.0999.179.0773.348.1782.5.3.1.1.1.1.1.1999v.2c.007.0543.001.1093-.016.1612-.018.0519-.046.0992-.084.1387-.1.1-.2.2-.3.2h-.2c-.1 0-.1-.1-.2-.1s-.2-.1-.3-.1999c-.123-.0657-.26-.1-.4-.1-.139 0-.277.0343-.4.1-.1.0999-.2.0999-.2.2999s.1.2.2.2999c.1.1.2.1.4.2s.3.1.5.2c.179.0772.348.1781.5.2999.179.0786.321.2213.4.3999.126.1753.195.3844.2.5999.016.2051-.019.411-.1.5999-.075.1504-.176.286-.3.3999-.152.1218-.321.2227-.5.2999-.222.0894-.462.1237-.7.1-.303.0163-.607-.0175-.899-.1-.222-.0975-.425-.2328-.6-.3999-.1-.1-.1-.1-.1-.1999v-.2c-.007-.0543-.001-.1093.016-.1612s.046-.0992.084-.1387c.1-.1.2-.2.3-.2h.2c.026 0 .051.0105.07.0293.019.0187.03.0442.03.0707.047.061.108.1106.177.1451.069.0346.145.0534.222.0548.15.0907.327.1261.5.1.173.0156.347-.0191.5-.1.1-.0999.2-.1999.2-.2999s-.1-.2-.2-.2999c-.1-.1-.2-.1-.4-.2s-.3-.1-.5-.2c-.2-.0999-.4-.0999-.499-.2999-.179-.0786-.322-.2213-.4-.3999-.111-.1824-.18-.3875-.2-.5999-.016-.1728.019-.3464.1-.4999.074-.1505.176-.286.3-.3999.152-.1218.32-.2227.499-.3.2 0 .4-.0999.7-.0999zm-16.396-1.3998c.141-.0149.282.0205.4.1.1.1.1.2.1.3999v4.7991c0 .1999 0 .2999-.1.3999s-.2.1-.4.1-.3 0-.4-.1-.1-.2-.1-.3999v-.3c-.108.2705-.279.5107-.5.6999-.23.1698-.517.2417-.8.2-.238.016-.476-.018-.7-.1-.221-.0976-.424-.2329-.6-.3999-.19-.1956-.328-.4365-.4-.6999-.082-.2924-.116-.5964-.1-.8998.008-.3101.076-.6157.2-.8998.072-.2635.21-.5043.4-.6999.176-.1671.378-.3024.6-.3999.218-.1124.456-.1803.7-.2.28-.0068.556.0623.8.2.195.1742.364.3763.5.5999v-1.8997c-.015-.1409.02-.2826.1-.3999 0-.1.2-.1.3-.1zm34.793 1.4997c.141-.0149.282.0205.4.1.099.1.099.2.099.3999v1.9996c.017.2705-.017.5417-.099.7999-.098.2216-.233.4246-.4.5999-.158.1884-.366.3273-.6.3999-.257.0872-.53.1213-.8.1-.271.0162-.542-.0177-.8-.1-.224-.0925-.428-.2284-.6-.4-.171-.1716-.307-.3755-.4-.5998-.087-.2571-.121-.5292-.1-.7999v-1.9996c-.015-.1409.021-.2826.1-.3999.1-.1.2-.1.4-.1.141-.0149.283.0205.4.1.1.1.1.2.1.3999v1.9996c.006.2465.075.4874.2.6999.07.0931.16.1687.265.2208.104.052.218.0791.335.0791.116 0 .231-.0271.335-.0791.104-.0521.195-.1277.265-.2208.125-.2125.194-.4534.2-.6999v-1.9996c-.015-.1409.02-.2826.1-.3999.3 0 .4-.1.6-.1zm2.899-.0999c.271-.0214.543.0127.8.0999.179.0773.347.1782.5.3.1.1.1.1.1.1999v.2c.006.0543.001.1093-.017.1612-.017.0519-.045.0992-.083.1387-.1.1-.2.2-.3.2h-.2c-.1 0-.1-.1-.2-.1s-.2-.1-.3-.1999c-.123-.0657-.26-.1-.4-.1-.139 0-.277.0343-.4.1-.1.0999-.2.0999-.2.2999s.1.2.2.2999c.1.1.2.1.4.2s.3.1.5.2c.179.0772.347.1781.5.2999.178.0786.321.2213.4.3999.125.1753.195.3844.2.5999.015.2051-.019.411-.1.5999-.075.1504-.177.286-.3.3999-.153.1218-.321.2227-.5.2999-.222.0894-.462.1237-.7.1-.303.0163-.607-.0175-.9-.1-.221-.0975-.424-.2328-.6-.3999-.1-.1-.1-.1-.1-.1999v-.2c-.006-.0543-.001-.1093.017-.1612.017-.0519.046-.0992.083-.1387.1-.1.2-.2.3-.2h.2c.027 0 .052.0105.071.0293.019.0187.029.0442.029.0707.048.061.108.1106.178.1451.069.0346.145.0534.222.0548.15.0907.327.1261.5.1.173.0156.346-.0191.5-.1.1-.0999.2-.1999.2-.2999s-.1-.2-.2-.2999c-.1-.1-.2-.1-.4-.2s-.3-.1-.5-.2c-.2-.0999-.4-.0999-.5-.2999-.178-.0786-.321-.2213-.4-.3999-.111-.1824-.179-.3875-.2-.5999-.015-.1728.019-.3464.1-.4999.075-.1505.177-.286.3-.3999.153-.1218.321-.2227.5-.3.3 0 .5-.0999.7-.0999zm-47.69.0999c.141-.0149.282.0205.4.1.1.1.1.2.1.3999v1.9996c.016.2705-.018.5417-.1.7999-.098.2216-.233.4246-.4.5999-.157.1884-.366.3273-.6.3999-.257.0872-.529.1213-.8.1-.271.0162-.542-.0177-.8-.1-.224-.0925-.428-.2284-.6-.4-.171-.1716-.307-.3755-.4-.5998-.087-.2571-.121-.5292-.1-.7999v-1.9996c-.015-.1409.021-.2826.1-.3999.1-.1.2-.1.4-.1.141-.0149.283.0205.4.1.1.1.1.2.1.3999v1.9996c.006.2465.075.4874.2.6999.07.0931.16.1687.265.2208.104.052.219.0791.335.0791s.231-.0271.335-.0791c.104-.0521.195-.1277.265-.2208.125-.2125.194-.4534.2-.6999v-1.9996c-.015-.1409.02-.2826.1-.3999.203-.0051.405-.0388.6-.1z" fill="#1f304c" fill-rule="evenodd"/></svg>