<svg fill="none" height="20" viewBox="0 0 162 20" width="162" xmlns="http://www.w3.org/2000/svg" xmlns:xlink="http://www.w3.org/1999/xlink"><clipPath id="a"><path d="m0 0h161.129v20h-161.129z"/></clipPath><g clip-path="url(#a)" fill="#1f304c"><path d="m5.85706 9.11437c-.09267-.11495-.22624-.18957-.37272-.20821-.14647-.01865-.29448.02013-.41299.10821-.07223.05793-.13076.1311-.17143.21428l-4.89999717 9.68575c-.03425043.0674-.05476953.141-.06036753.2164-.005598.0755.0038367.1513.0277568.223.02392019.0718.0618497.1381.1115889.1951.049739.0569.110298.1035.178165.1369.089228.0213.1822.0213.271428 0h6.799996c.10719.0043.21324-.0233.30477-.0792.09153-.056.16444-.1378.20952-.2351.64676-1.7266.80359-3.5984.45316-5.4085s-1.19448-3.4882-2.43888-4.84863z"/><path d="m9.41439.314353c-1.20861 1.857037-1.9127 3.996837-2.04296 6.208707-.13026 2.21186.31782 4.41954 1.3001 6.40554l3.24287 6.5c.049.0974.1247.1787.2184.2343.0936.0557.2013.0835.3102.08h6.7428c.1516 0 .2969-.0602.4041-.1673.1071-.1072.1673-.2526.1673-.4041.0231-.0842.0231-.173 0-.2571l-9.3571-18.600047c-.0251-.070049-.0643-.134191-.1152-.188443-.051-.0542519-.1125-.0974556-.1808-.12692816-.0684-.02947254-.142-.04458464-.21641-.04439794-.07441.0001868-.14799.0156684-.21616.04548354-.1222.06868256-.21402.18090556-.25714.31428556z"/><path d="m88.5714 8.07154c0 2.39996 1.1143 4.28576 5.4572 5.14286 2.6.5429 3.1428.9714 3.1428 1.8286 0 .8571-.5428 1.4285-2.3714 1.4285-2.2093-.0292-4.3758-.6138-6.3-1.7v3.8c1.9314.9975 4.0842 1.489 6.2571 1.4286 4.5429 0 6.3429-2.0286 6.3429-5.0571zm12.5286 6.87146c0-2.8572-1.4286-4.1715-5.7143-5.08575-2.3428-.51428-2.8571-1.04285-2.8571-1.78571s.8428-1.32857 2.4-1.32857c1.9085.08601 3.7776.57275 5.4854 1.42857v-3.8c-1.6825-.7739-3.5193-1.15494-5.3711-1.11429-4.3572 0-6.4715 1.82858-6.4715 4.81429"/><path d="m146.957 3.50014v16.24286h3.471v-12.38571l1.458 3.28571 4.885 9.1h4.357v-16.24286h-3.457v10.48576l-1.314-3.0429-3.929-7.44286z"/><path d="m124.943 3.50014h-3.786v16.24286h3.786z"/><path d="m116.8 14.943c0-2.8571-1.514-4.1714-5.714-5.08572-2.357-.51428-2.857-1.04285-2.857-1.78571s.843-1.32857 2.4-1.32857c1.909.08258 3.778.56951 5.485 1.42857v-3.8c-1.677-.77417-3.51-1.15527-5.357-1.11429-4.314 0-6.471 1.82858-6.471 4.81429 0 2.40003 1.114 4.28573 5.471 5.14283 2.6.5429 3.143.9715 3.143 1.8286s-.557 1.4286-2.386 1.4286c-2.209-.0311-4.375-.6156-6.3-1.7v3.8c1.932.9975 4.085 1.489 6.258 1.4285 4.542 0 6.357-2.0285 6.357-5.0571"/><path d="m59.1287 3.50014v16.24286h7.7714l1.2286-3.5h-5.2v-12.74286z"/><path d="m43.7715 3.50014v3.51429h4.2v12.72857h3.8v-12.72857h4.5v-3.51429z"/><path d="m38.243 3.50014h-4.9857l-5.7143 16.24286h4.2857l.8-2.7286c1.9786.5715 4.0785.5715 6.0571 0l.8143 2.7286h4.2857zm-2.5286 10.58576c-.7013.0004-1.399-.1007-2.0714-.3l2.0714-7.1429 2.0857 7.1429c-.677.2005-1.3796.3016-2.0857.3z"/><path d="m80.3001 3.50014h-4.9857l-5.7143 16.24286h4.2857l.8-2.7286c1.9786.5715 4.0785.5715 6.0572 0l.8 2.7286h4.2857zm-2.4857 10.58576c-.7108.0019-1.4182-.0991-2.1-.3l2.0857-7.1429 2.0857 7.1429c-.6729.197-1.3703.298-2.0714.3z"/><path d="m138.571 3.50014h-4.985l-5.715 16.24286h4.286l.814-2.7286c1.979.5715 4.079.5715 6.057 0l.8 2.7286h4.286zm-2.485 10.58576c-.706.0016-1.409-.0995-2.086-.3l2.086-7.1429 2.071 7.1429c-.672.1993-1.37.3004-2.071.3z"/></g></svg>