<svg fill="none" height="22" viewBox="0 0 82 22" width="82" xmlns="http://www.w3.org/2000/svg" xmlns:xlink="http://www.w3.org/1999/xlink"><clipPath id="a"><path d="m0 0h81.95v22h-81.95z"/></clipPath><g clip-path="url(#a)"><path d="m18.2545 21.8735-.3135-3.916h-9.79c-.33733.6306-.671 1.2723-1.001 1.925-.33.6526-.61417 1.3163-.8525 1.991h-6.2975c.966625-2.4341 2.1618-4.771 3.5695-6.9795 1.51725-2.4375 3.23948-4.7411 5.148-6.88603 1.7776-2.02112 3.7797-3.83314 5.9675-5.401 1.7879-1.35727 3.8829-2.252702 6.0995-2.6069948.4107-.0362776.8244.0123998 1.2155.1429998.1731.029438.3328.111939.4569.236091.1242.124152.2067.283817.2361.456909l1.947 21.037525zm-1.386-14.97103c-1.0322.85864-1.9941 1.79847-2.8765 2.8105-1.0934 1.23563-2.1162 2.53203-3.0635 3.88303h6.6715l-.55-6.63303zm12.8315 15.09753c-.2539.0003-.5038-.0641-.726-.187-.1206-.0725-.2214-.1737-.2934-.2947-.072-.1209-.1129-.2577-.1191-.3983l-1.5235-15.66953h5.687l.825 9.85053h.187c1.2094-1.0362 2.17-2.3314 2.8105-3.7895.8494-1.92285 1.4056-3.9622 1.65-6.05003h5.8355c-.1097 1.94986-.5485 3.8671-1.298 5.67053-.7658 1.9149-1.7971 3.7127-3.0635 5.3405-1.2324 1.5915-2.7484 2.9415-4.4715 3.982-1.655 1.0141-3.559 1.5491-5.5 1.5455zm18.953 0c-.2539.0003-.5038-.0641-.726-.187-.1209-.0721-.222-.1733-.294-.2943s-.1128-.258-.1185-.3987l-1.5235-15.66953h5.7475l.759 9.85603h.253c1.2061-1.039 2.1629-2.336 2.7995-3.795.8546-1.91847 1.3986-3.96066 1.6115-6.05003h5.874c-.1486 1.95227-.5956 3.87021-1.3255 5.68703-.749 1.923-1.7816 3.7231-3.0635 5.3405-1.2444 1.5863-2.7648 2.9352-4.488 3.982-1.6615 1.0113-3.5715 1.5407-5.5165 1.529zm24.123-16.61553c1.1582-.04433 2.3132.14843 3.3942.56647 1.0811.41803 2.0653 1.05251 2.8923 1.86453.7823.75317 1.3976 1.66234 1.806 2.66863.4084 1.0062.6007 2.087.5645 3.1724.0026 1.1164-.2427 2.2195-.7183 3.2297-.4755 1.0101-1.1695 1.902-2.0317 2.6113-1.7329 1.5825-4.0003 2.4509-6.347 2.431-1.1469.0324-2.2885-.1661-3.3572-.5837-1.0686-.4176-2.0423-1.0458-2.8633-1.8473-.798-.7442-1.4278-1.6503-1.8471-2.6577-.4192-1.0074-.6183-2.0927-.5839-3.1833.0186-1.1189.2795-2.2204.7647-3.2287.4852-1.00838 1.1832-1.8996 2.0458-2.61233 1.7118-1.57403 3.9556-2.44245 6.281-2.431zm-.176 11.81403c.4657.0044.9275-.0841 1.3586-.2603.431-.1761.8226-.4364 1.1519-.7657s.5896-.7209.7658-1.152c.1762-.431.2646-.8929.2602-1.3585.0158-.4621-.0695-.922-.25-1.3476s-.4518-.8066-.795-1.1164c-.6583-.6165-1.5291-.9554-2.431-.946-.9232-.0185-1.8178.3205-2.497.946-.353.3291-.6295.7316-.8101 1.1792s-.2607.9293-.2349 1.4113c-.0371.4583.0319.919.2017 1.3463.1698.4274.4358.8098.7773 1.1177.6806.6268 1.5774.9658 2.5025.946z" fill="#1f304c"/></g></svg>