<svg fill="none" height="32" viewBox="0 0 85 32" width="85" xmlns="http://www.w3.org/2000/svg" xmlns:xlink="http://www.w3.org/1999/xlink"><clipPath id="a"><path d="m0 0h84.8v32h-84.8z"/></clipPath><g clip-path="url(#a)"><path d="m1.376 28.984h1.6656v1.1496h-2.62v-6.0096h.9544v4.8608zm5.192-1.0904c0 1.5976-.8 2.3304-1.6176 2.3304-.8856 0-1.576-.8432-1.576-2.24 0-1.4192.6432-2.3096 1.6184-2.3096.9568 0 1.576.912 1.576 2.2192zm-.9744.048c0-.644-.1792-1.308-.6-1.308-.464-.0056-.624.664-.624 1.3072 0 .7536.2224 1.3072.624 1.3072.3784 0 .6-.5328.6-1.3072zm3.268-1.2464c.2432 0 .4224.06.5328.128l.152-.9952c-.22669-.1161-.47733-.1777-.732-.18-1.1328 0-1.7552 1.0448-1.7552 2.3312 0 1.376.6432 2.24 1.6184 2.24.352 0 .664-.088.8432-.2l-.0816-1.0128c-.152.088-.332.1312-.5536.1312-.464 0-.8432-.4216-.8432-1.224 0-.712.312-1.2224.8224-1.2224zm3.812 2.3864c0 .4216.0208.8224.0424 1.064h-.8856v-.016l-.0696-.4424c-.2.3544-.508.5336-.864.5336-.62 0-.976-.644-.976-1.3344 0-1.136.712-1.688 1.8-1.6672v-.0688c0-.2208-.088-.552-.552-.552-.312 0-.644.152-.844.3312l-.1792-.864c.2216-.18.6224-.38 1.176-.38 1.0224 0 1.3552.864 1.3552 1.888v1.5056zm-.9496-1.012h-.0048c-.512 0-.888.152-.888.6856 0 .3536.152.512.3784.512.2424 0 .4216-.2224.4904-.512.02-.0688.02-.152.02-.2216v-.464zm1.7248 2.0664h.9576v-6.344h-.9584v6.3472zm6.168-5.9936-.44 2c-.132.664-.2904 1.464-.4 2.152h-.0216c-.0926-.7212-.21-1.4389-.352-2.152l-.4224-2.0192h-1.28l-.2688 6.016h.8848l.0904-2.288c.0256-.7552.048-1.6616.068-2.484h.02c.088.7968.248 1.64.3784 2.352l.4432 2.3304h.7328l.5104-2.352c.152-.712.3336-1.5544.464-2.3296h.0224c0 .864.0216 1.728.0424 2.464l.064 2.3296h.9336l-.2216-6.016h-1.248zm4.7744 4.9416c0 .4216.0208.8224.0424 1.064h-.864v-.016h-.0016l-.0688-.4424h-.0192c-.2.3536-.512.5328-.864.5328-.624 0-.976-.644-.976-1.3344 0-1.1336.712-1.688 1.7976-1.6656v-.0688c0-.2216-.088-.5536-.552-.5536-.312 0-.644.152-.844.332l-.1792-.864c.2224-.18.624-.38 1.176-.38 1.024 0 1.356.864 1.356 1.888v1.5072zm-.928-.548-.0056-.464c-.512 0-.8856.1536-.8856.6864 0 .3536.1536.512.38.512.2424 0 .4216-.2224.4904-.512.0216-.0688.0216-.152.0216-.2216zm2.572-1.9712h-.02l-.0208-.8016h-.824c0 .3792.0216.8.0216 1.44h-.0216v2.9304h.9544v-2.2216c0-.112 0-.2208.0208-.312.068-.416.288-.684.6424-.684.116 0 .2.0208.2688.0416v-1.2856c-.068-.0216-.112-.0216-.2-.0216-.2896 0-.6696.2688-.824.912zm4.4824-.796h-1.1576l-.624 1.3088c-.0592.1576-.12.312-.1936.4672v-3.752h-.9544v6.3424h.9544v-1.376l.2424-.4216.736 1.808h1.1544l-1.2432-2.5976 1.0848-1.776zm3.1576 2.068c0 .2216-.0216.4432-.0216.5328h-1.9984v.016h-.0056c.0216.552.4224.8224.864.8224.3336 0 .576-.0688.8448-.1792l.132.912c-.312.1792-.6848.2688-1.1064.2688-1.044 0-1.6184-.8656-1.6184-2.22 0-1.1072.492-2.3304 1.5568-2.3304.976 0 1.3544 1.0856 1.3544 2.1776zm-.9184-.384c0-.3328-.0896-.8864-.5328-.8864-.4 0-.5544.512-.576.884h1.108zm2.552-2.932-.9344.2896v.9544h-.4v.996h.4v1.776c0 .6.0896 1.016.2688 1.2856.1584.224.4.3776.712.3776.2688 0 .4904-.04.6224-.1104v-1.0224c-.0935.0277-.1905.0419-.288.0424-.2904 0-.38-.2416-.38-.776v-1.576h.6856v-.9944h-.688v-1.2432zm1.264 5.6136h.9552v-4.372h-.9552v4.3704zm.512-6.2752c-.312 0-.512.2848-.512.6856-.02.3744.18.6856.4912.6856s.512-.3064.512-.6856c-.028-.3792-.1808-.6904-.492-.6856zm3.0424 1.8192c-.4896 0-.8.416-.9328.6856h-.0216l-.0424-.6h-.824c0 .4.0216.8424.0216 1.396v.0104h-.048v2.952h.9536v-2.5064c0-.112.0224-.2432.0432-.3328.0688-.2424.2216-.512.4904-.512.3576 0 .4896.4016.4896.9552v2.42h.9536v-2.5984c0-1.2656-.464-1.8664-1.0856-1.8664zm4.8344.084-.0016.0384h.0064v-.0368h-.0064v-.0016zm-.8176.0384h.816c-.0184.2664-.0184.632-.0184 1.248v2.44c0 .844-.1104 1.5296-.464 1.9776-.3328.4224-.8016.5328-1.2448.5328-.4 0-.824-.1088-1.108-.3304l.1792-1.0224c.2.152.532.3312.8848.3312.4432 0 .8016-.352.8016-1.1536v-.2896h-.0208c-.18.3792-.464.5744-.824.5744-.752 0-1.2856-.864-1.2856-2.1296 0-1.3968.6432-2.288 1.3968-2.288.4208 0 .6848.2688.8424.6224h.0216l.0192-.5096zm-.1568 1.7384c0-.0896 0-.1792-.0216-.2424-.0688-.3536-.2424-.6-.512-.6-.3312 0-.6216.4424-.6216 1.2432 0 .6432.2216 1.1544.6224 1.1544.2424 0 .4432-.2224.512-.5544.02-.0896.02-.2424.02-.3536v-.648zm2.3712 1.3552c-.3744 0-.6432.2624-.6432.664 0 .3784.268.664.6424.664s.6432-.2856.6432-.664c0-.396-.2696-.664-.644-.664zm4.84-4.772 1.3064 6.016h-1.024l-.3328-1.556h-1.1968l-.312 1.5552h-.9752l1.2864-6.016h1.244zm-.1536 3.4584-.268-1.2864c-.0696-.3536-.152-.8016-.2224-1.1544h-.0216c-.068.3536-.1312.8224-.2 1.1544l-.2416 1.2864h.952zm4.8352 1.1536h-.0264v-2.952h-.952v2.6c0 .1096 0 .2-.0216.288-.0424.196-.1952.464-.464.464-.332 0-.464-.3784-.464-1.0216v-2.3528h-.96v2.552c0 1.3552.4424 1.9088 1.064 1.9088.5544 0 .8448-.4456.9552-.712h.0208l.0424.62h.8224c0-.352-.0176-.8216-.0176-1.396zm1.8664-4.216-.936.2896v.952h-.4v.996h.4v1.776c0 .6.088 1.016.2696 1.2856.1584.2264.4.3792.712.3792.2688 0 .4904-.04.6224-.108v-1.0224c-.094.0278-.1915.0421-.2896.0424-.288 0-.3784-.2432-.3784-.776v-1.576h.6848v-.996h-.6856v-1.2408zm4.2592 3.3736c0 1.5976-.8 2.3304-1.6176 2.3304-.8856 0-1.576-.8432-1.576-2.24 0-1.4192.6432-2.3096 1.6184-2.3096.9336 0 1.576.912 1.576 2.2192zm-.9952.048c0-.644-.18-1.308-.6-1.308-.4448-.0064-.624.664-.624 1.3064 0 .7536.2216 1.3072.624 1.3072.3776 0 .6-.5328.6-1.3072zm5.232-2.2856c-.2208 0-.3952.0896-.5744.2216-.1692.1473-.3055.3285-.4.532h-.0216c-.1312-.444-.4424-.7336-.8432-.7336-.528 0-.8.416-.9296.6848h-.0208l-.0424-.6h-.8024c0 .4.0208.8416.0208 1.3952v.0064h-.016v2.952h.932v-2.552c0-.1096.0216-.2208.0424-.3312.064-.22.2-.488.444-.488.312 0 .4448.3792.4448.9328v2.44h.9336v-2.5464c0-.112.0224-.264.0432-.3544.064-.2424.2224-.464.444-.464.312 0 .4432.352.4432.996v2.372h.932v-2.5736c0-1.2856-.448-1.8864-1.0224-1.8864zm4.3504 3.4272c0 .4224.0208.824.0424 1.064h-.864v-.016l-.0672-.4416h-.024c-.2.3552-.512.5344-.864.5344-.624 0-.976-.644-.976-1.3344 0-1.1344.712-1.688 1.7968-1.6664v-.0688c0-.2208-.0896-.552-.5536-.552-.312 0-.6432.152-.8432.3312l-.18-.864c.2216-.18.6224-.38 1.176-.38 1.0224 0 1.3552.864 1.3552 1.888v1.5056zm-.928-.5472-.0056-.464c-.508 0-.8824.152-.8824.6848 0 .3536.152.512.3792.512.2424 0 .4216-.2224.4904-.512.0216-.0688.0216-.152.0216-.2216zm2.7248-4.016-.9344.288v.9536h-.4v.9952h.4v1.776c0 .6.0896 1.016.2688 1.2848.1584.2264.4.3792.712.3792.2688 0 .4904-.04.6224-.1096v-1.0216c-.094.0278-.1915.0421-.2896.0424-.2896 0-.3792-.2424-.3792-.776v-1.576h.6856v-.9944h-.6824v-1.24zm4.0024 3.3136c0 .2216-.0208.4432-.0208.5328h-1.9952v.016h-.0056c.02.552.4208.8208.864.8208.332 0 .576-.0688.8432-.1792l.1328.912c-.312.1792-.6864.2688-1.108.2688-1.044 0-1.6184-.8656-1.6184-2.22 0-1.1064.4904-2.3296 1.5552-2.3296.976 0 1.3552 1.0856 1.3552 2.1776zm-.9184-.384c0-.3328-.112-.8864-.536-.8864-.4 0-.552.512-.5744.8856h1.1072zm4.436 1.3808c0 .4896.0208.9952.0208 1.3064h-.84l-.0424-.6424h-.0208c-.2.4896-.552.732-.952.732-.732 0-1.3064-.8864-1.3064-2.24 0-1.4672.6432-2.332 1.376-2.332.3792 0 .664.18.8016.4912h.02v-2.368h.9544v.016h-.0056v5.04zm-.9328-1.224c0-.0688 0-.1792-.0208-.2424-.0688-.352-.2688-.664-.5536-.664-.4216 0-.664.5544-.664 1.2448 0 .7328.2688 1.1968.6432 1.1968.2688 0 .4904-.2696.5536-.644.0192-.088.0192-.2.0192-.312v-.5728h.0208v-.0048zm2.3776 1.288c-.3744 0-.6432.2616-.6432.664 0 .3776.264.664.6416.664.3744 0 .6432-.2864.6432-.664 0-.3968-.2688-.664-.6432-.664zm-73.3416-7.304h-8.0128v-21.5888h7.9232c3.5056 0 5.4144 1.888 5.4144 4.9712v1.5552c0 2.04-.8224 3.6376-3.016 4.016 2.3096.4912 3.1536 2.02 3.1536 4.0176v2.088c-.0264 3.1-1.956 4.9456-5.4624 4.9456zm-3.3528-12.4528h2.3976c1.1968 0 1.84-.624 1.84-1.888v-1.864h.0208v.0048c0-1.064-.4448-1.7544-1.6672-1.7544h-2.592v5.504zm2.684 8.84c1.1968 0 1.6656-.6424 1.6656-1.7072v-1.9968c0-1.2664-.6432-1.9096-1.84-1.9096h-2.5096v5.6144h2.684zm20.1336 1.172v2.6832h-.912v.024c-1.5296 0-2.6208-.6448-2.952-2.24-.912 1.484-2.3312 2.24-4.1496 2.24-2.3088 0-4.016-1.528-4.016-4.1976v-.2c0-3.3736 3.0144-4.44 7.3008-5.1504v-2.1072c0-.912-.512-1.464-1.5552-1.464-1.1072 0-1.4864.512-1.4864 1.5544v.912h-3.616v-.7536c0-2.66 1.5968-4.728 5.2608-4.728 3.7064 0 5.2136 2.24 5.2136 5.216v7.3696c0 .576.2896.8448.912.8448zm-4.7616-1.772v-2.9728c-2.4576.3536-3.568 1.044-3.568 2.5984v.5744c0 .912.552 1.5552 1.528 1.5552 1.1072 0 2.04-.712 2.04-1.7552zm10.8816-17.376h-3.9496v21.5936h3.9496zm6.8112.3536h-3.856v3.5056h3.86v-3.5056zm.072 5.6824h-3.952v15.556h3.9512v-15.5552zm10.364 4.5024v11.056h3.9064v-11.52c0-2.6-1.3336-4.3072-3.5952-4.3072-1.6176 0-3.0624.976-3.816 2.728v-8.4952h-3.9488v21.5872h3.9488v-10.2752c0-.8848.7536-2.5504 1.9504-2.5504.912 0 1.556.712 1.556 1.776zm16.912.8064.0688 5.016c.0368 3.48-2.1568 5.5472-5.44 5.5888-3.3536.0424-5.616-1.976-5.6576-5.4352l-.0688-5.0136c-.04-3.4376 2.152-5.6144 5.504-5.656 3.2856-.0432 5.5472 2.0608 5.5952 5.504zm-3.7264 5.7656-.0696-6.48c-.0216-1.1064-.712-1.84-1.756-1.8176-1.1072.0208-1.728.776-1.728 1.8664l.088 6.48c.0216 1.1064.664 1.84 1.7776 1.8176 1.044-.0216 1.708-.776 1.688-1.8672zm5.856-.776-.0688-5.0128c-.0424-3.4376 2.152-5.616 5.504-5.656 3.284-.0432 5.544 2.0608 5.592 5.504l.0704 5.0128c.0416 3.4848-2.1568 5.5464-5.44 5.588-3.3536.0424-5.616-1.976-5.6576-5.4352zm3.7488-5.8288.0904 6.48c.0208 1.1064.664 1.84 1.776 1.816 1.0448-.0192 1.7088-.776 1.688-1.864l-.0696-6.48c-.0216-1.1072-.712-1.84-1.756-1.8184-1.1064.0208-1.728.776-1.728 1.8664zm7.032-4.3136h.512v1.512h.4208v-1.516h.512v-.352h-1.4456v.352zm3.6432 1.5136-.1104-1.868h-.5544l-.2.6224c-.0747.21702-.1346.43887-.1792.664-.0432-.2208-.0848-.4424-.1536-.664l-.1784-.6224h-.5536l-.1104 1.8664h.4l.0432-.712c.0224-.2432.0432-.5336.0432-.776.048.2424.112.512.1808.7328l.2.7328h.3312l.2224-.732c.068-.2216.1312-.4904.2-.7328 0 .2832.0208.552.0208.776l-.0216.712h.424z" fill="#1f304c"/></g></svg>