<svg fill="none" height="44" viewBox="0 0 96 44" width="96" xmlns="http://www.w3.org/2000/svg" xmlns:xlink="http://www.w3.org/1999/xlink"><clipPath id="a"><path d="m0 0h95.0968v44h-95.0968z"/></clipPath><g clip-path="url(#a)"><path clip-rule="evenodd" d="m94.5096 35.6541v-5.0174c0-1.3215-.2976-2.3782-.8921-3.1694-.596-.792-1.4626-1.1873-2.605-1.1873-1.1243 0-2.2572.506-3.3982 1.518-.342-.979-1.0099-1.4688-2.0054-1.4688h-1.4429l-.1703.1716v12.2127c.2765.0499.5778.0865.9052.1107.6671.05 1.3369.05 2.004 0 .3267-.0242.6279-.0608.9044-.11v-8.1758c.3275-.294.644-.506.9547-.6365.3093-.1305.5865-.1965.8317-.1965.4221 0 .708.1312.8557.3923.1463.2618.2191.6688.2191 1.2246v5.2125c0 .7993.155 1.3955.4642 1.7871.3107.3909.8885.5867 1.7369.5867.8637 0 1.6052-.2765 2.2252-.8316-.3915-.5383-.5872-1.3464-.5872-2.4229zm-16.0193-.3792c-.2292.6285-.7044.9424-1.4269.9424-.3617 0-.6527-.0814-.8747-.245-.2204-.1628-.3929-.4121-.5166-.7465s-.2059-.7494-.2474-1.2481c-.0443-.5905-.0647-1.1825-.0611-1.7746 0-.44.0255-.8529.0742-1.2357.0495-.3835.1397-.7223.2707-1.0156.1317-.2941.3085-.5266.5297-.6967.222-.1723.513-.2581.8747-.2581.6891 0 1.1482.3065 1.3774.9181.2307.6116.3464 1.5048.3464 2.6803 0 1.1586-.1165 2.0518-.3464 2.6795zm-1.3905-9.1415c-.9125 0-1.7202.1554-2.4202.4649-.6817.2952-1.2847.7482-1.7602 1.3222-.473.5712-.8317 1.2525-1.0769 2.043-.2438.792-.366 1.6771-.366 2.6554 0 .9628.1222 1.8443.366 2.6436.2452.7993.6083 1.4813 1.0886 2.0445.4822.5638 1.084 1.0112 1.7609 1.309.6927.3102 1.4953.4649 2.4078.4649.9124 0 1.7201-.1504 2.4209-.4532.7-.3007 1.2923-.7333 1.7732-1.2973.481-.5624.8478-1.2437 1.1003-2.043s.3783-1.6896.3783-2.6685c0-2.1853-.5864-3.8668-1.7601-5.0416-.9947-.9621-2.2994-1.4439-3.9126-1.4439zm-7.139.1958c-1.4182 0-2.4377.734-3.0562 2.2029-.5872-1.3714-1.6314-2.1127-3.1303-2.2279-.2292.1797-.457.4694-.6855.869-.227.4004-.3827.7627-.4642 1.089.6185.4737.9292 1.3222.9292 2.5461v7.9052c.5538.0975 1.1934.1474 1.9196.1474.7254 0 1.357-.0499 1.8955-.1467v-7.6133c.521-.8323 1.1897-1.2474 2.0054-1.2474.553.0645.9692.1467 1.2465.2442.2932-.4899.5253-1.0809.6963-1.7746.1717-.693.2569-1.2929.2569-1.7989-.652-.1312-1.1905-.1958-1.6132-.1958zm-13.4492 9.7898c-.4395 0-.9692-.1863-1.5892-.5625v-5.3847c.505-.6527 1.1009-.979 1.7857-.979.9772 0 1.4669 1.0765 1.4669 3.231 0 2.464-.5545 3.6959-1.6634 3.6959zm4.4416-8.2484c-.3638-.5544-.8077-.9819-1.3273-1.284-.5202-.3029-1.122-.4532-1.8045-.4532-1.3316 0-2.4617.4649-3.3887 1.3955-.4555-.7993-1.1497-1.1997-2.0775-1.1997h-1.0034l-.1702.1716v17.3283l.1702.1709h1.4677c.7829 0 1.328-.1709 1.6387-.5133.3092-.3425.4642-.9387.4642-1.7864v-3.2559c.748.3424 1.4946.514 2.2419.514.6985 0 1.3454-.151 1.9377-.4524.6023-.3094 1.1303-.7477 1.547-1.2841.4395-.5558.7844-1.2327 1.0362-2.0328.2518-.7993.3777-1.6881.3777-2.6678 0-.979-.0939-1.8597-.2802-2.6429-.187-.7839-.4642-1.4519-.8295-2.0078zm-16.8255 4.2474c-.2037-.0081-.3464-.0132-.4286-.0132h-1.7842l-.9787.0249.5625-1.8846c.652-2.4141 1.0434-3.9724 1.1737-4.6742h.147c.505 1.991.9532 3.6703 1.344 5.0409l.4154 1.5179c-.0967 0-.2474-.0044-.4511-.0117zm-1.2108-10.268c-.847 0-1.5892.0492-2.2252.1467l-5.3788 16.4235.1208.1958c.4905.1796 1.1257.2698 1.9086.2698.7 0 1.2465-.0498 1.6373-.1466l1.0521-3.5493c.2111.0154.5385.0242.978.0242h3.4724c.4235 0 .7414-.0088.9532-.025l.465 1.6163c.2444.8316.5384 1.394.8804 1.6881.342.2933.9372.4407 1.7849.4407.7168 0 1.3607-.1547 1.9312-.4649l-5.2805-16.4484c-.572-.1137-1.3382-.1709-2.2994-.1709zm29.571-12.61162c.2511-.36739.6345-.55072 1.1526-.55072.5341 0 .9336.19579 1.2006.58665.2664.39159.4017.88949.4017 1.49379v.2691h-3.2053c.0495-.8323.1986-1.43143.4497-1.79882zm-3.1267 7.81942c.4386.593 1.0188 1.0647 1.6867 1.3713.6934.3256 1.5535.4891 2.5802.4891 1.8905 0 3.4884-.4649 4.7924-1.3955-.1303-.946-.4628-1.6969-.9984-2.2513-.6658.2523-1.2545.4334-1.7653.5441-.5122.11-.9634.1658-1.3534.1658-.7786 0-1.3389-.2024-1.6809-.6065-.3405-.4033-.5268-.968-.5588-1.694h6.3582c.211-.6863.3165-1.526.3165-2.5211 0-.7509-.1178-1.44466-.3543-2.08118-.2215-.61179-.5672-1.17026-1.0151-1.63971-.4543-.46616-.9993-.83267-1.6008-1.07652-.628-.26106-1.3331-.39159-2.1153-.39159-.93 0-1.7413.1628-2.4326.48913-.6679.30632-1.2546.7674-1.7121 1.34564-.4483.57126-.7822 1.24518-1.0027 2.0203-.2205.77443-.3304 1.61843-.3304 2.53293 0 .9459.0895 1.8193.2693 2.6187.1797.7993.4853 1.493.9168 2.0804zm-12.9711-2.6436c0 1.3214.2969 2.3789.8921 3.1694.5945.792 1.4633 1.188 2.605 1.188 1.1395 0 2.3547-.5794 3.6426-1.738.5865 1.0934 1.5484 1.6639 2.8851 1.7138.2445-.1797.481-.462.7088-.8463.2284-.3813.3834-.737.4657-1.0633-.457-.3102-.6848-.9057-.6848-1.7871v-8.71334c-.5712-.09826-1.2151-.14666-1.9319-.14666-.7182 0-1.3461.0484-1.8831.14666v8.17434c-.5545.5551-1.101.8323-1.6372.8323-.5552 0-.898-.1298-1.0289-.3908-.131-.2611-.1943-.6776-.1943-1.2489v-5.18824c0-.79932-.155-1.39551-.4657-1.78711-.3093-.39159-.8958-.58739-1.7602-.58739-.8637 0-1.5965.26987-2.1997.80812.3907.57126.5865 1.38598.5865 2.4471zm-.6112 4.0127c.0487-.165.0742-.5192.0742-1.0619 0-.5426-.099-1.086-.294-1.6294h-.6607c-.7182 0-1.0762-.3821-1.0762-1.1476v-11.75445c0-.84625-.1543-1.44097-.4642-1.78417-.31-.341725-.8485-.513322-1.6147-.513322h-1.4902l-.1477.171597v14.563745c0 1.1748.2328 2.0357.6978 2.5813.4642.5471 1.2501.8199 2.359.8199.7662 0 1.638-.0814 2.6167-.2457zm-14.9402-7.2438h2.0178c.8593 0 1.488.2362 1.8846.7092.398.4737.5967 1.0288.5967 1.6646 0 .6695-.1543 1.1909-.4628 1.5664-.2872.3635-.6912.6145-1.1424.7098-.484.1007-.9783.1419-1.4721.1225-.4738-.017-.948-.017-1.4218 0zm0-6.73037c.2103.01613.457.0242.7415.0242h.9838c.7604 0 1.3025.18333 1.627.54999.3238.36666.4875.82865.4875 1.38377 0 .55439-.1593 1.02372-.4751 1.40725-.3151.38352-.8623.57492-1.6394.57492h-1.7246v-3.94013zm-.0975 14.21907c.994.0169 1.7929.025 2.3954.025 1.956 0 3.468-.4041 4.5369-1.2115 1.0675-.8081 1.6009-2.0518 1.6009-3.7326 0-.4737-.0779-.9335-.2314-1.383-.1517-.442-.3609-.8617-.6222-1.2482-.2591-.382-.5761-.7208-.9394-1.0039-.3468-.27506-.7393-.48609-1.1591-.62329.6338-.2772 1.1533-.72599 1.5601-1.34638.3982-.59233.6107-1.2916.6097-2.0071 0-1.48424-.5093-2.59742-1.528-3.34101-1.0187-.74212-2.4165-1.11465-4.1935-1.11465-.5705 0-1.3243.01027-2.2615.02567-.938.01613-2.0665.04033-3.3872.07333l-.171.17086v16.47337l.171.1708c1.4182.033 2.6246.058 3.6193.0734zm-18.5806-17.977345c-1.0654-.300326-2.1486-.532276-3.2431-.694455l-.4293 7.22175h-7.1194l-.4278-7.22175c-1.10606.164997-2.1859.39746-3.24172.696655-.44241 4.622855 1.0369 16.050945-7.69928 21.509745v15.094s5.30385 5.7096 14.9314 5.7096c9.6239 0 14.9285-6.077 14.9285-6.077v-14.7266c-8.7391-5.4588-7.2605-16.88836-7.6993-21.511945z" fill="#1f304c" fill-rule="evenodd"/></g></svg>