<svg fill="none" height="20" viewBox="0 0 122 20" width="122" xmlns="http://www.w3.org/2000/svg" xmlns:xlink="http://www.w3.org/1999/xlink"><clipPath id="a"><path d="m0 0h121.951v20h-121.951z"/></clipPath><g clip-path="url(#a)"><path d="m16.2927 17.0732c-.2927.2927-.6829.6829-1.2195.9756-.4391.2927-.9756.5366-1.6098.7805-.5854.2439-1.2195.3902-1.8049.5366-.6829.1463-1.317.2439-1.9024.2439-1.31708 0-2.58537-.2439-3.80488-.7805s-2.19512-1.2195-3.12195-2.0488-1.60976-1.9025-2.048782-3.122c-.536586-1.2195-.780488-2.439-.780488-3.85362 0-1.31707.243902-2.58537.780488-3.80488.536582-1.21951 1.219512-2.19512 2.048782-3.12195.92683-.82927 1.90244-1.5122 3.12195-2.048782 1.21951-.536585 2.43902-.7804875 3.80488-.7804875 1.1219 0 2.2927.1463415 3.2683.4390245 1.0732.292683 2 .780485 2.7317 1.463415.5854.53658.9268 1.12195.9268 1.80488 0 .43902-.1463.82927-.439 1.21951-.439.58537-1.0732.92683-1.8049.92683-.5366 0-.9756-.14634-1.4634-.39024-.439-.29269-.9756-.53659-1.4634-.68293-.5366-.14634-1.0732-.2439-1.7561-.2439-.78049 0-1.36586.14634-2 .43902-.58537.14634-1.07317.53659-1.46342.97561-.39024.43902-.68292.97561-.92683 1.65854-.2439.58536-.29268 1.31707-.29268 2 0 .68296.09756 1.36586.29268 1.99996.19512.6342.53659 1.2195.92683 1.6586.39025.439.82927.8292 1.46342 1.1219.53658.2927 1.21951.439 2 .439.9268 0 1.6585-.1463 2.1951-.439.5854-.2927 1.0732-.5853 1.4634-.8292.4391-.2927.9756-.5366 1.6098-.5366.5854 0 1.1219.2439 1.6097.6829.2927.439.5366.9268.5366 1.3659-.1951.878-.3902 1.4146-.878 1.9512zm19.3658 1.5122c-.439.439-1.0731.6829-1.7561.6829-.6829 0-1.317-.2439-1.7561-.7805-.439-.5366-.7805-1.1219-.7805-1.8049-.1463.2927-.3902.5854-.6829.9756-.2927.2927-.7805.5854-1.2195.9269-.439.2926-.9756.439-1.6097.6829-.5854.1463-1.122.2439-1.8049.2439-1.3171 0-2.439-.2439-3.561-.7805-1.0732-.5366-2.0488-1.2195-2.878-2.0488-.8293-.8292-1.4635-1.9024-1.9025-3.1219s-.6829-2.439-.6829-3.8049c0-1.31708.2439-2.58537.7805-3.80488s1.2195-2.19512 2.0488-3.12195c.8292-.82927 1.9024-1.60976 3.1219-2.048782 1.2195-.439025 2.3902-.780488 3.7561-.780488 1.3171 0 2.5854.243902 3.8049.780488 1.2195.536582 2.1951 1.219512 3.1219 2.048782.8293.92683 1.6098 1.90244 2.0488 3.12195.5366 1.21951.7805 2.43902.7805 3.80488v7.0732c-.1463.6829-.3902 1.317-.8293 1.7561zm-4.7317-10.8293c-.1463-.58537-.439-1.12195-.8292-1.60976-.3903-.43902-.9269-.82927-1.4635-1.07317-.5853-.29268-1.2195-.43902-2-.43902-.7804 0-1.3658.14634-2 .39024-.5365.29268-1.0731.58537-1.4634 1.07317-.3902.43903-.6829.97561-.9268 1.60976-.2439.58536-.2927 1.31707-.2927 2 0 .68288.0976 1.36588.2927 1.99998.1463.5854.439 1.122.8293 1.6098.3902.4878.8292.8292 1.3658 1.0731.5366.2927 1.2195.3903 1.9025.3903.7804 0 1.3658-.1464 2-.3903.5853-.2926 1.0731-.5853 1.4634-1.0731.3902-.4878.7805-.9756.9756-1.6098.2439-.5853.2927-1.3171.2927-1.99998.1463-.63415.0975-1.31708-.1464-1.95122zm19.7073-3.80488c-.439.43902-.9756.68293-1.6585.68293-.7805 0-1.5122.09756-2.2927.29268-.7805.14634-1.4634.43902-2 .82927-.5854.39024-1.0732.92683-1.3658 1.51219-.3903.58537-.5366 1.36586-.5366 2.19513v7.21948c0 .683-.2439 1.3171-.7805 1.8049-.439.439-1.0732.7805-1.8049.7805-.6829 0-1.3171-.2439-1.8049-.7805-.5366-.439-.7805-1.0732-.7805-1.8049v-13.85363c0-.68293.2439-1.31707.7805-1.80488.5366-.487805 1.122-.780488 1.8049-.780488s1.3171.243903 1.7561.780488c.439.53659.6829 1.12195.6829 1.80488.4391-.53659.9269-.97561 1.3659-1.36586.439-.39024.9268-.585361 1.3658-.829264.4391-.243902.9757-.390244 1.6098-.439024.6829 0 1.3171-.097561 2-.097561s1.2195.243902 1.6098.682927c.439.439022.6829.975612.6829 1.609752 0 .63415-.1464 1.17074-.6342 1.56098zm27.2683-.97561c0 .14634-.0975.29268-.1463.43902l-5.4634 14.48777c-.1464.4391-.4391.8293-.8293 1.0732s-.8293.3903-1.3171.3903c-.439 0-.9268-.1464-1.317-.4391-.3903-.2927-.683-.6829-.8293-1.0731l-2.8781-8.14638-2.878 8.14638c-.1464.439-.439.8292-.8293 1.0731-.3902.2927-.8292.4391-1.3171.4391-.4878 0-.9268-.1464-1.317-.3903-.3903-.2439-.683-.5854-.8293-1.0732l-5.4634-14.48777c-.0976-.14634-.0976-.29268-.1463-.43902 0-.14634-.0976-.29268-.0976-.43902 0-.68293.2439-1.21952.6829-1.658541.439-.439025.9756-.682927 1.6586-.682927.439 0 .9268.146341 1.317.390244.3903.243902.5854.585364.8293 1.073174l3.2195 8.82926 3.122-8.78048c.1463-.43903.439-.829271.8292-1.073174.3903-.292683.7805-.439024 1.3171-.439024.439 0 .9268.146341 1.3171.439024.3902.292683.5853.682924.8292 1.073174l3.122 8.78048 3.2195-8.78048c.1463-.43903.439-.829271.8293-1.073174.3902-.292683.8292-.390244 1.317-.390244.683 0 1.2196.243903 1.6098.682927.439.439021.6829.975611.6829 1.658541-.2439.14634-.2439.29268-.2439.39024zm18.1464 10.58539c-.5366 1.2195-1.2196 2.1951-2.0488 3.1219-.9268.9269-1.9025 1.6098-3.122 2.0488-1.2195.5366-2.439.7805-3.8048.7805-1.3171 0-2.5854-.2439-3.8049-.7805s-2.1951-1.2195-3.122-2.0488c-.9268-.8292-1.6097-1.9024-2.0488-3.1219-.5365-1.2195-.7804-2.439-.7804-3.8049 0-1.31708.2439-2.58537.7804-3.80488.5366-1.21951 1.2196-2.19512 2.0488-3.12195.8293-.82927 1.9025-1.60976 3.122-2.048782 1.2195-.536586 2.439-.780488 3.8049-.780488 1.317 0 2.5853.243902 3.8048.780488 1.2195.536582 2.1952 1.219512 3.122 2.048782.8292.92683 1.6097 1.90244 2.0488 3.12195.5365 1.21951.7804 2.43902.7804 3.80488 0 1.3659-.3414 2.5854-.7804 3.8049zm-4.6342-5.8049c-.2439-.58537-.5366-1.12195-.9268-1.60976-.3903-.4878-.9268-.82927-1.4634-1.07317-.5366-.29268-1.2195-.39024-2-.39024s-1.3659.14634-2 .39024c-.5366.29268-1.0732.58537-1.4634 1.07317-.3903.43903-.683.97561-.9269 1.60976-.2439.58536-.2927 1.31707-.2927 2 0 .6829.0976 1.3659.2927 2s.4391 1.1219.9269 1.6098c.3902.439.8292.8292 1.4634 1.0731.5366.2927 1.2195.3903 2 .3903s1.3658-.1464 2-.3903c.5366-.2927 1.0731-.5853 1.4634-1.0731.3902-.4391.6829-.9757.9268-1.6098.2439-.5854.2927-1.3171.2927-2 0-.68293-.1463-1.36586-.2927-2zm30.3904-4.78049c0 .14634-.098.29268-.146.43902l-5.464 14.48777c-.146.4391-.439.8293-.829 1.0732s-.829.3903-1.317.3903c-.439 0-.927-.1464-1.317-.4391-.391-.2927-.683-.6829-.83-1.0731l-2.878-8.14638-2.878 8.14638c-.146.439-.439.8292-.829 1.0731-.39.2927-.829.4391-1.317.4391-.439 0-.927-.1464-1.317-.3903s-.683-.5854-.829-1.0732l-5.5126-14.48777c-.0975-.14634-.0975-.29268-.1463-.43902 0-.14634-.0976-.29268-.0976-.43902 0-.68293.2439-1.21952.683-1.658541.439-.439025.9756-.682927 1.6585-.682927.439 0 .9268.146341 1.3171.390244.3899.243902.5849.585364.8289 1.073174l3.22 8.82926 3.122-8.78048c.146-.43903.439-.829271.829-1.073174.39-.292683.781-.439024 1.317-.439024.439 0 .927.146341 1.317.439024s.586.682924.829 1.073174l3.122 8.78048 3.22-8.78048c.146-.43903.439-.829271.829-1.073174.39-.292683.829-.390244 1.317-.390244.683 0 1.22.243903 1.61.682927.439.439021.683.975611.683 1.658541-.146.14634-.146.29268-.195.39024z" fill="#1f304c"/></g></svg>