<svg fill="none" height="32" viewBox="0 0 196 32" width="196" xmlns="http://www.w3.org/2000/svg"><path clip-rule="evenodd" d="m19.2099.18945c.2131.121324.3997.284066.5489.478636.1492.194571.2579.417034.3198.654284s.0757.48449.0406.72715c-.0352.24266-.1185.47584-.2452.68578-.2525.42211-.6529.73522-1.1235.87843-.4705.14321-.9775.10628-1.4223-.1036-.4109-.2628-.7075-.67093-.8307-1.14287-.1231-.47195-.0636-.97296.1665-1.402986.2525-.422109.653-.735219 1.1235-.8784289.4706-.1432099.9776-.1062807 1.4224.1036049zm-4.7597.110689c.4109.2628.7075.670928.8307 1.142871.1231.47194.0636.97296-.1665 1.40298-.1213.21307-.2841.39971-.4787.54891-.1945.1492-.417.25795-.6542.31984-.2373.06189-.4845.07567-.7272.04053s-.4758-.11849-.6858-.24514c-.4109-.2628-.7075-.67093-.8306-1.14287-.1231-.47195-.0637-.97296.1665-1.402986.1213-.21307.2841-.399704.4786-.548904.1946-.149201.4171-.257951.6543-.3198422.2373-.0618916.4845-.0756732.7272-.0405328.2426.0351404.4758.118492.6857.245144zm47.2644 6.309291v2.21378h-1.7711v-2.21378zm-47.9285-1.43896c.5991.36828 1.0355.95085 1.2206 1.62933.185.67848.1048 1.40195-.2244 2.02341-.3788.58726-.9613 1.01381-1.6356 1.19769-.6742.1839-1.3926.1121-2.0171-.20148-.5991-.36829-1.0356-.95086-1.22061-1.62934-.18504-.67848-.10481-1.40195.22441-2.02341.1735-.30619.4058-.57503.6837-.79101.2779-.21599.5957-.37486.9353-.46746.3395-.0926.694-.1171 1.043-.07209.3491.04501.6858.15865.9907.33436zm7.0841 0c.6118.35668 1.059.93937 1.2453 1.62258.1864.68321.0969 1.41227-.2491 2.03016-.3788.58726-.9613 1.01381-1.6355 1.19769-.6743.1839-1.3927.1121-2.0172-.20148-.5991-.36829-1.0356-.95086-1.2206-1.62934s-.1048-1.40195.2244-2.02341c.1735-.30619.4059-.57503.6837-.79101.2779-.21599.5957-.37486.9353-.46746.3395-.0926.694-.1171 1.0431-.07209.349.04501.6857.15865.9906.33436zm-12.06511 4.98103c.59309.3737 1.02447.9562 1.20891 1.6325.1845.6763.1086 1.3972-.2127 2.0202-.36829.5991-.95086 1.0356-1.62934 1.2206s-1.40195.1048-2.02341-.2244c-.31295-.1667-.58851-.3956-.80975-.6727-.22125-.2771-.3835-.5965-.4768-.9386s-.11567-.6997-.06574-1.0507c.04993-.3511.17111-.6882.35609-.9907.35668-.6118.93938-1.059 1.62258-1.24533.68321-.18633 1.41227-.09687 2.03016.24913zm16.93541 0c.3107.169.5839.3992.8034.6765.2194.2774.3805.5962.4736.9375.093.3412.1161.6977.0679 1.048-.0483.3504-.1668.6874-.3486.9907-.3789.5873-.9614 1.0138-1.6356 1.1977-.6743.1839-1.3927.1121-2.0172-.2015-.6075-.3606-1.051-.9433-1.2368-1.6249-.1859-.6815-.0996-1.4087.2406-2.0278.3789-.5873.9614-1.0138 1.6356-1.1977.6742-.18388 1.3926-.11213 2.0171.2015zm-22.91263 1.8817c.21307.1213.39971.2841.54891.4786.1492.1946.25795.4171.31984.6543.06189.2373.07567.4845.04053.7272-.03514.2426-.11849.4758-.24514.6858-.2628.4108-.67093.7075-1.14287.8306s-.97296.0636-1.402984-.1665c-.217736-.1167-.409013-.2771-.561836-.4712-.152824-.1941-.263896-.4177-.3262523-.6567-.06235619-.239-.0746508-.4884-.0361127-.7324s.127077-.4774.260065-.6856c.2628-.4108.670929-.7075 1.14287-.8306.47194-.1231.97296-.0636 1.40298.1665zm28.11503 0c.2131.1213.3997.2841.5489.4786.1492.1946.258.4171.3199.6543.0619.2373.0757.4845.0405.7272-.0351.2426-.1185.4758-.2451.6858-.2628.4108-.6709.7075-1.1429.8306-.4719.1231-.9729.0636-1.403-.1665-.213-.1213-.3997-.2841-.5489-.4786-.1492-.1946-.2579-.4171-.3198-.6543-.0619-.2373-.0757-.4845-.0406-.7272.0352-.2426.1185-.4758.2452-.6858.2628-.4108.6709-.7075 1.1429-.8306.4719-.1231.9729-.0636 1.4029.1665zm111.4641 2.1031c-.785-.051-1.561.1932-2.175.6846-.615.4915-1.023 1.1948-1.146 1.9719h5.867c-.005-.6841-.271-1.3405-.745-1.8345-.473-.494-1.118-.7881-1.801-.822zm-42.173-.9962c-1.1437-.013-2.2522.3984-3.1108 1.1547-.8585.7564-1.4064 1.8041-1.5377 2.9408h8.4125c-.111-2.7672-1.882-4.0955-3.764-4.0955zm-97.40613 3.6527c.21077.1236.39515.2875.54259.4823s.25507.4167.31674.6531c.06168.2364.07618.4827.04269.7247s-.11433.475-.23788.6858c-.12356.2108-.28742.3951-.48222.5426-.19481.1474-.41676.2551-.65316.3167-.47744.1246-.9848.0544-1.410474-.1952-.213071-.1213-.399704-.284-.548905-.4786-.1492-.1946-.25795-.417-.3198417-.6543-.0618916-.2372-.07567317-.4845-.0405328-.7271.0351404-.2427.1184915-.4759.2451435-.6858.2628-.4109.670929-.7075 1.14287-.8306.47194-.1232.97296-.0637 1.40298.1664zm28.11503 0c.2154.1191.4043.2807.5553.475.151.1944.2608.4174.323.6555.0621.2381.0751.4864.0383.7297s-.1227.4766-.2524.6857c-.1236.2108-.2874.3951-.4822.5426-.1949.1474-.4168.2551-.6532.3167-.2364.0617-.4826.0762-.7247.0427-.242-.0335-.475-.1143-.6858-.2379-.2107-.1235-.3951-.2874-.5426-.4822-.1474-.1948-.255-.4167-.3167-.6532-.0617-.2364-.0762-.4826-.0427-.7246s.1143-.4751.2379-.6858c.2628-.4109.6709-.7075 1.1429-.8306.4719-.1232.9729-.0637 1.4029.1664zm-22.13781.4428c.58726.3788 1.01381.9613 1.19771 1.6356.1839.6742.1121 1.3926-.2015 2.0171-.36829.5992-.95086 1.0356-1.62934 1.2206-.67848.1851-1.40195.1048-2.02341-.2244-.31064-.169-.5839-.3991-.80333-.6765-.21944-.2774-.38053-.5962-.47358-.9374-.09306-.3412-.11616-.6977-.06792-1.0481s.16682-.6873.34863-.9907c.36828-.5991.95086-1.0355 1.62933-1.2206.67848-.185 1.40196-.1048 2.02341.2244zm16.93541 0c.313.1667.5886.3956.8098.6727s.3835.5965.4768.9386.1157.6997.0657 1.0507c-.0499.3511-.1711.6882-.356.9907-.1679.3177-.3978.5983-.6763.8252s-.5998.3955-.9447.4957c-.345.1003-.7066.1301-1.0633.0877-.3567-.0423-.7013-.156-1.0132-.3342-.3118-.1782-.5847-.4174-.8023-.7032s-.3755-.6125-.4642-.9606c-.0888-.348-.1067-.7104-.0526-1.0655.0542-.3552.1792-.6958.3676-1.0016.3789-.5873.9614-1.0138 1.6356-1.1977s1.3926-.1121 2.0171.2015zm132.4955 1.8817h-.665c-1.771 0-4.538.2214-4.538 2.1031.009.2592.071.5137.185.747.113.2333.274.4402.472.6072s.43.2905.679.3623.51.0904.767.0545c1.771 0 3.1-1.9924 3.1-3.542zm-86.338-5.9772c-2.2138 0-4.3169 1.5496-4.3169 5.4238 0 2.7672 1.4389 5.4237 4.2062 5.4237 2.4351 0 4.3169-1.9924 4.3169-5.4237 0-3.21-1.7711-5.4238-4.2062-5.4238zm-11.7331-1.3283c1.1069 0 1.6603.4428 1.6603 1.5497v9.5192c0 .4428.2214.5535.5535.5535h1.1069v1.5496h-1.8817c-.2254.0313-.4549.0099-.6706-.0625s-.4116-.1938-.5725-.3547-.2823-.3568-.3547-.5725-.0938-.4452-.0626-.6706v-9.2979c0-.4427-.2213-.6641-.5534-.6641h-1.1069v-1.5497zm54.4591-.1107c.261.0111.521.0481.775.1107v1.771c-.215-.0677-.439-.105-.664-.1106-.93.0782-1.809.4545-2.507 1.0728s-1.178 1.4455-1.367 2.3585c-.22.8686-.331 1.7608-.332 2.6566v5.6451h-1.882l.11-11.1796c.013-.0902.005-.1822-.024-.2687-.028-.0865-.077-.1651-.141-.2296-.065-.0644-.143-.113-.23-.1418-.086-.0288-.178-.037-.269-.024h-1.107v-1.5497h1.882c1.107 0 1.55.4428 1.55 1.5497v.8855c0 .3351-.038.6692-.111.9962h.111c.664-2.1031 2.103-3.5421 4.206-3.5421zm51.581-5.31305c1.218 0 1.771.55344 1.771 1.88172v13.61473c0 .4428.222.5535.664.5535h.997v2.7672h-3.21c-.242.0404-.49.0225-.723-.0523-.233-.0747-.446-.2041-.619-.3773s-.302-.3853-.377-.6187c-.075-.2333-.093-.4811-.052-.7227v-13.61478c.013-.09023.004-.18225-.024-.26874-.029-.08649-.078-.16508-.142-.22954-.065-.06446-.143-.11301-.23-.1418-.086-.02879-.178-.03703-.269-.02406h-.996v-2.76723zm-86.2267.22138c1.2176 0 1.5496.44275 1.5496 1.54965v5.64512c.0042.372-.0329.7432-.1106 1.1069h.1106c.4736-1.0049 1.2264-1.8524 2.1685-2.4412s2.0337-.8941 3.1446-.8795c3.3207 0 4.5383 1.8818 4.5383 5.2024v6.3093c0 .4428.2214.5535.6641.5535h1.1069v1.5496h-1.8817c-1.2176 0-1.5497-.5534-1.5497-1.6603v-6.42c0-2.1031-.332-3.9848-2.9886-3.9848-1.1026-.0058-2.1744.3636-3.0394 1.0475-.8649.6839-1.4716 1.6417-1.7202 2.7159-.1892.4934-.2649 1.0231-.2214 1.5497v6.6413h-1.8817v-16.38198c.0031-.08805-.012-.17579-.0443-.25776-.0322-.08198-.0811-.15643-.1434-.21873-.0622-.0623-.1367-.11111-.2187-.14339s-.1697-.04735-.2577-.04425h-1.1069v-1.43896zm55.1237-.33207v2.98861h-1.107c-.088-.00309-.176.01197-.258.04425s-.157.08109-.219.14339-.111.13675-.143.21873c-.033.08197-.048.16972-.044.25776v15.2751h-3.543v-7.8589h-8.301v7.8589h-3.542l.11-15.2751c.013-.09023.005-.18224-.024-.26873-.028-.08649-.077-.16508-.141-.22954-.065-.06446-.144-.11301-.23-.1418-.087-.02879-.179-.03703-.269-.02406h-1.217v-2.87792h3.431c1.328 0 1.882.55344 1.882 1.88172v6.19863h8.301v-6.30932c0-1.32827.554-1.88172 1.882-1.88172zm40.069 1.66034v3.7634h3.099v2.6566h-3.099v5.4237c-.021.3495.034.6993.162 1.0253.127.326.324.6203.577.8625s.555.4266.886.5402c.332.1136.683.1539 1.032.1179h.664v2.8779h-.996c-1.882 0-5.646-.5534-5.646-5.0917v-5.7558h-1.771v-2.6566h1.771v-3.7634zm7.084-1.54965c.242-.04036.49-.02243.723.05229.233.07473.445.20409.619.37733.173.17323.302.38533.377.61865s.093.48111.052.72276v4.75962c-.001.4083-.038.8158-.111 1.2176h.111c.458-.8259 1.133-1.5103 1.953-1.9787.82-.4685 1.752-.7029 2.696-.6778 3.099 0 4.76 1.5496 4.76 5.0917v5.313c0 .4428.221.5535.664.5535h.996v2.7672h-3.21c-.242.0404-.489.0225-.723-.0523-.233-.0747-.445-.2041-.618-.3773-.174-.1732-.303-.3853-.378-.6187-.074-.2333-.092-.4811-.052-.7227v-6.1986c0-1.6603-.443-2.7672-2.103-2.7672-.842.005-1.659.2907-2.32.8119-.662.5213-1.131 1.2483-1.333 2.066-.135.5811-.209 1.1746-.221 1.771v6.1986h-3.431v-15.49648c.012-.09023.004-.18225-.025-.26874-.028-.08649-.077-.16508-.141-.22954-.065-.06446-.143-.11301-.23-.1418-.086-.02879-.178-.03703-.269-.02406h-.996v-2.76723zm-26.565 4.98105c4.538 0 5.866 2.3244 5.866 5.4237v5.0917c0 .4428.222.5535.664.5535h.997v2.7672h-3.1c-1.217 0-1.771-.6641-1.771-1.5496v-.5535h-.11c-.388.7397-.98 1.3522-1.706 1.7644-.727.4122-1.556.6066-2.39.5601-2.435 0-4.649-1.5496-4.649-4.2062.222-3.9848 5.756-4.4276 8.08-4.4276h.554v-.1107c0-1.9924-.775-2.6565-2.435-2.6565-.664 0-1.771.1107-1.771.8855v.6642h-3.21v-1.439c0-2.5459 3.542-2.7672 4.981-2.7672zm-13.283 0c3.874 0 5.977 2.8779 5.977 6.4199-.015.4076-.052.814-.11 1.2176h-9.298c.06 1.0071.509 1.9513 1.253 2.633.743.6817 1.723 1.0474 2.731 1.0198 1.394-.0783 2.72-.6243 3.764-1.5497l1.328 2.3245c-1.49 1.3401-3.419 2.0883-5.424 2.1031-.952.0439-1.903-.1076-2.795-.4452-.891-.3375-1.704-.8541-2.389-1.5177-.684-.6637-1.225-1.4604-1.59-2.3411-.365-.8808-.546-1.8269-.531-2.7801.221-4.0955 2.989-7.0841 7.084-7.0841zm-92.4255-5.09174c2.6565 0 6.9734 1.10689 6.9734 3.98484v1.5496h-1.771v-1.1069c0-1.771-3.0993-2.7672-5.2024-2.7672-1.002.00055-1.9936.20387-2.915.5977s-1.7536.97003-2.4464 1.6939c-.6929.7239-1.2321 1.5805-1.5853 2.5183-.3531.9377-.5128 1.9372-.4695 2.9383 0 4.4276 3.0993 8.0804 7.4162 8.0804 1.1423-.0039 2.2718-.2415 3.3188-.6984s1.9894-1.1233 2.7691-1.9582l1.1069 1.3283c-.9194.9865-2.0336 1.7713-3.2721 2.3048s-2.5742.8041-3.9227.7945c-5.5345 0-9.4086-4.4276-9.4086-9.8514-.0103-1.2384.226-2.4665.6952-3.6126.4691-1.1462 1.1618-2.18751 2.0375-3.06325.8757-.87573 1.917-1.56837 3.0632-2.03754s2.3743-.70548 3.6127-.69515zm50.2525 5.31304c3.653 0 5.646 2.878 5.646 6.1986-.015.2976-.052.5936-.111.8856h-10.1835c-.0225.6944.0959 1.3862.348 2.0337.252.6474.6326 1.2372 1.1187 1.7336.4861.4965 1.0677.8894 1.7097 1.155.642.2657 1.3311.3986 2.0261.3907 1.521-.0406 2.976-.6304 4.095-1.6603l.886 1.3283c-1.364 1.2454-3.134 1.9534-4.981 1.9924-.9246.0324-1.8459-.1257-2.7067-.4647-.8607-.3389-1.6425-.8514-2.2966-1.5056-.6542-.6541-1.1666-1.4359-1.5056-2.2966s-.4971-1.782-.4647-2.7065c-.2213-4.4276 2.7673-7.0842 6.4196-7.0842zm-79.4745 10.6262c.5873.3789 1.0138.9614 1.1977 1.6356s.1121 1.3926-.2015 2.0172c-.1735.3061-.4058.575-.6837.791s-.5957.3748-.9353.4674c-.3395.0926-.694.1171-1.043.0721-.3491-.045-.6858-.1586-.9907-.3343-.5873-.3789-1.0138-.9614-1.1977-1.6356s-.1121-1.3926.2015-2.0172c.3607-.6074.9433-1.051 1.6249-1.2368.6816-.1859 1.4087-.0996 2.0278.2406zm-7.0841 0c.5873.3789 1.0138.9614 1.1977 1.6356s.1121 1.3926-.2015 2.0172c-.1735.3061-.4059.575-.6837.791-.2779.216-.5957.3748-.9353.4674-.3395.0926-.694.1171-1.0431.0721-.349-.045-.6857-.1586-.9906-.3343-.5873-.3789-1.0138-.9614-1.19771-1.6356-.18388-.6742-.11212-1.3926.20151-2.0172.3567-.6118.9394-1.059 1.6226-1.2453s1.4122-.0969 2.0301.2491zm58.5546-10.8475c3.5421 0 5.7559 2.8779 5.7559 7.0841s-2.5459 6.9734-5.9772 6.9734c-.9005.0221-1.7897-.2036-2.5705-.6526s-1.4233-1.1039-1.8571-1.8933v7.5269h-1.771v-16.382c0-.4427-.2214-.6641-.5535-.6641h-1.1069v-1.5497h1.8817c1.1069 0 1.6604.4428 1.6604 1.3283v.8855c.4185-.8342 1.07-1.5292 1.8755-2.0007s1.7304-.6993 2.6627-.6558zm-52.9094 17.1568c.4256.2495.7348.6579.8593 1.1354.1246.4774.0543.9848-.1952 1.4105-.2495.4256-.6579.7347-1.1354.8593-.4774.1245-.9848.0543-1.4104-.1952-.4109-.2628-.7075-.6709-.8307-1.1429-.1231-.4719-.0636-.9729.1665-1.403.1213-.213.2841-.3997.4787-.5489.1945-.1492.417-.2579.6542-.3198.2373-.0619.4845-.0757.7272-.0405.2427.0351.4758.1184.6858.2451zm-4.7597 0c.4109.2628.7075.6709.8307 1.1429.1231.4719.0636.9729-.1665 1.403-.1214.213-.2841.3997-.4787.5489-.1945.1492-.417.2579-.6543.3198-.2372.0619-.4844.0757-.7271.0405-.2427-.0351-.4758-.1185-.6858-.2451-.4109-.2628-.7075-.6709-.8306-1.1429-.1231-.4719-.0637-.9729.1665-1.403.1213-.213.284-.3997.4786-.5489s.4171-.2579.6543-.3198c.2373-.0619.4845-.0757.7272-.0405.2426.0351.4758.1184.6857.2451z" fill="#1f304c" fill-rule="evenodd"/></svg>