<svg fill="none" height="40" viewBox="0 0 132 40" width="132" xmlns="http://www.w3.org/2000/svg" xmlns:xlink="http://www.w3.org/1999/xlink"><clipPath id="a"><path d="m0 0h131.765v40h-131.765z"/></clipPath><g clip-path="url(#a)"><path clip-rule="evenodd" d="m18.5882 16.2353c.1177 0 .353.1176.353.2353.1176.1176.1176.2353.1176.4706v1.647c0 .2353 0 .353-.2353.4706-.1176.1177-.3529.2353-.4706.1177-.3529 0-.8235 0-1.2941 0v-2.9412zm108.4708-16.2353c2.588.117647 4.706 2.23529 4.706 4.82353v30.47057c0 2.5883-2.118 4.7059-4.706 4.7059h-122.23547c-2.70588 0-4.82353-2.1176-4.82353-4.7059v-30.58822c0-1.17647.470588-2.47059 1.41176-3.29412.94118-.823525 2.11765-1.41176 3.41177-1.41176zm-112.8237 23.8824c.1176-.7059 0-1.5295 0-2.353-.5882 0-1.1765 0-1.7647 0-.353 0-.4706.1177-.4706.353v1.647c0 .5882-.2353.8235-.9412.8235-.5882 0-.9412-.3529-.9412-1.0588 0-2.1176 0-4.3529 0-6.4706 0-.7059.2353-.9411.9412-.9411s1.0588.2352 1.0588.9411v1.4118.3529h2.1177c0-.8235 0-1.5294 0-2.3529s-.5882-1.5294-1.4118-1.7647c-.8235-.2353-1.7647-.353-2.5882-.1177-1.29412.1177-2.2353 1.2942-2.11765 2.4706v6.9412c0 .9412.58823 1.7647 1.41176 2 .94119.3529 2.11769.4706 3.05879.1177.9412-.1177 1.6471-.9412 1.6471-2zm5.2941 2h2c-.1176-.5883-.2353-1.1765-.2353-1.6471 0-.5882 0-1.1765 0-1.7647.2353-1.0588-.3529-2-1.4117-2.353l.4705-.2352c.353-.1177.7059-.4706.7059-.9412 0-.9412.1177-2 0-3.0588 0-.7059-.5882-1.2942-1.2941-1.2942-.2353 0-.4706-.1176-.7059-.1176h-3.8823-.353v11.4118h2.1177v-4.9412h1.0588c.7059 0 .9412.2353.9412.9412v2.5882c0 .3529.1176.7059.2353 1.0588.2353.2353.2353.353.3529.353zm4.7059 0v-11.2942c-.5882 0-1.1765 0-1.6471 0-.3529 0-.4706.1177-.4706.4706v6.4706 4c0 .1177.1177.353.2353.353zm7.0588-3.4118c.1177-1.0588-.3529-2.1177-1.4117-2.7059l-1.7648-1.1765c-.7058-.3529-1.0588-1.2941-.8235-2 .1177-.4706.4706-.5882.9412-.5882s.7059.3529.7059.7059v.9412c0 .1176.1176.2353.2353.2353h1.8823c0-.4706 0-1.0589 0-1.5295-.1176-.7058-.4706-1.2941-1.1764-1.647-.8236-.353-1.7648-.4706-2.5883-.2353-1.1765.1176-2.1176 1.1765-2.1176 2.3529v.8236c0 .9411.4706 1.8823 1.2941 2.4705.7059.4706 1.2941.9412 2 1.2942.4706.2353.7059.7058.7059 1.1764v1.1765c0 .2353-.1177.3529-.2353.5882-.1177.1177-.353.2353-.5883.2353-.7058.1177-1.0588-.2353-1.0588-.9411 0-.4706 0-1.0589 0-1.6471-.7059 0-1.2941 0-1.8823 0-.1177.1176-.2353.2353-.2353.3529v1.6471c0 1.0588.7059 1.8824 1.7647 2.1176.8235.2353 1.647.2353 2.4706.1177 1.1764 0 2.1176-1.0588 2.1176-2.2353-.2353-.5882-.2353-1.0588-.2353-1.5294zm2.8235-3.2941c0-1.4118 0-2.7059 0-4.1177 0-.3529-.1176-.4706-.4705-.4706-.353 0-.8236 0-1.1765 0-.4706 0-.4706.1177-.4706.4706v10.353.2353c0 .1176.1176.2353.2353.2353h1.8823zm7.0589 3.4117c.1176-1.0588-.4706-2.1176-1.5294-2.7058-.5883-.353-1.1765-.8236-1.7647-1.1765-.7059-.353-1.0589-1.1765-.8236-1.8824.1177-.5882.353-.8235.9412-.8235s.8235.2353.8235.8235v1.0589h2.1177c0-.4706 0-1.0589 0-1.5295 0-.7058-.4706-1.4117-1.1765-1.647-1.0588-.4706-2.3529-.4706-3.4118 0-.4705.2353-.8235.5882-1.0588.9412-.7059 1.5294-.2353 3.4117 1.1765 4.4705l2 1.2942c.3529.2353.5882.5882.7059 1.0588v1.2941c-.1177.4706-.353.7059-.8236.7059-.7058.1176-1.0588-.2353-1.0588-.9412 0-.4706 0-1.0588 0-1.647-.7059 0-1.2941 0-1.8823 0-.1177 0-.2353.2352-.2353.3529v1.5294c0 1.0588.7059 1.8824 1.647 2.1177.8236.2352 1.7647.3529 2.5883.1176 1.0588-.1176 2-1.0588 2-2.1176-.2353-.353-.2353-.9412-.2353-1.2942zm10-7.5294c0-.3529-.1177-.4706-.4706-.3529h-5.4118-.3529v1.647h2v9.0589.3529c0 .1177.1176.2353.2353.2353h2v-9.6471h2.1176c-.1176-.5882-.1176-.9411-.1176-1.2941zm6 10.7059c0-.4706 0-1.0588 0-1.6471h-3.5294v-3.4117h.4705 2.2353c.1177 0 .353-.1177.353-.2353 0-.4706 0-.9412 0-1.5294h-3.1765v-2.5883h3.2941v-1.7647h-5.4117v11.2942h5.4117c.2353 0 .353-.1177.353-.1177zm5.5294.1177h2.1176c-.1176-.2353-.1176-.353-.2353-.4706-.7058-1.6471-1.4117-3.4118-2.1176-5.0589-.1177-.2353-.1177-.4705 0-.7058.5882-1.4118 1.1765-2.9412 1.8823-4.353.1177-.2353.1177-.3529.2353-.5882-.7058 0-1.4117 0-2 0-.2353 0-.4706.1176-.4706.3529-.1176.4706-.3529.9412-.4705 1.5294l-.353 1.1765c-.3529-.8235-.7059-1.7647-.9412-2.5882 0-.1177-.2353-.353-.2353-.353-.7058 0-1.4117 0-2.1176 0l.2353.4706c.7059 1.4118 1.1765 2.8235 1.8823 4.2353.1177.353.1177.7059 0 .9412-.7058 1.647-1.4117 3.2941-2.1176 4.9412-.3529.1176-.3529.2353-.4706.4706h1.6471c.2353 0 .4706 0 .5882-.1177.2353-.1176.3529-.3529.3529-.4706.353-1.0588.7059-2 1.0589-3.1765l.2353.4706c.3529.9412.7058 2 1.0588 2.9412 0 .1177.1176.353.2353.353zm8.5882-10.8236c0-.3529-.1176-.4706-.4706-.4706h-5.8823v1.6471h2.1176v9.0588.353c0 .1176.1177.2353.2353.2353h1.8824v-9.6471h2.1176c0-.4706 0-.8235 0-1.1765zm9.0589 10.8236v-1.7648h-3.0589v-9.5294h-2.1176v.2353 10.5883c0 .3529.1176.3529.4706.3529h4.3529c.1177.1177.2353.1177.353.1177zm2.5882-5.5295c0-1.7647 0-3.5294 0-5.2941 0-.3529 0-.4706-.4706-.4706s-.9412 0-1.4118 0c-.2353 0-.3529.1177-.3529.353v1.7647 8.8235c0 .353.1176.4706.4706.4706h1.1764c.353 0 .4706-.1176.4706-.4706.1177-1.7647.1177-3.5294.1177-5.1765zm6.8235 5.5295c.353 0 .4706-.1177.4706-.4706 0-3.4118 0-6.8236 0-10.2353 0-.1177 0-.353 0-.4706-.5882 0-1.0588 0-1.5294 0-.353 0-.4706.1176-.4706.4706.1176 2.4706.2353 4.8235.2353 7.2941l-.1177-.353c-.5882-2.2352-1.1764-4.5882-1.7647-6.9411-.1176-.2353-.2353-.353-.4706-.353-.5882 0-1.4117 0-1.7647 0-.4705 0-.5882.1177-.5882.5883v8.2353 2.1176c0 .1177.1177.3529.2353.3529h1.7647l-.2353-7.8823c.1177.1176.1177.2353.1177.3529.5882 2.353 1.1764 4.7059 1.647 7.0589.1177.3529.2353.4705.5883.4705.7058-.2352 1.2941-.2352 1.8823-.2352zm7.0588-.1177c0-.5882 0-1.0588 0-1.6471h-3.5294v-3.4117h3.0588v-1.7647h-3.1764v-2.5883h3.4117c0-.4705 0-.9411 0-1.2941 0-.3529-.1176-.4706-.4706-.4706-1.5294 0-3.0588 0-4.5882 0-.3529 0-.4706.1177-.4706.4706v10.353c0 .1176-.1176.1176 0 .2353.1177.1176.1177.2353.2353.2353h5.1765c.1176 0 .3529-.1177.3529-.1177zm6.1175 3.7647v-18.2353h-2.117v18.2353z" fill="#1f304c" fill-rule="evenodd"/></g></svg>