<svg fill="none" height="35" viewBox="0 0 129 35" width="129" xmlns="http://www.w3.org/2000/svg"><path clip-rule="evenodd" d="m81.108 14.7925h3.0636l-2.9372 10.9258h-4.5202l-2.9372-10.9258h3.0226l2.1545 8.8508zm-8.4728-3.2839c0 1.0167-.7612 1.7792-1.7531 1.7792h.0007c-1.0147 0-1.7759-.7619-1.7759-1.7785 0-1.016.7612-1.77852 1.7759-1.77852.9919 0 1.7524.76182 1.7524 1.77782zm-3.1679 14.2097h2.8082v-10.9258h-2.8082zm53.8057-2.7104c-1.626 0-2.831-1.0799-2.831-2.7528 0-1.6938 1.205-2.7521 2.831-2.7521 1.647 0 2.83 1.0583 2.83 2.7521 0 1.6729-1.183 2.7528-2.83 2.7528zm.001-8.448c-3.192 0-5.557 2.3076-5.557 5.6952 0 3.3882 2.366 5.6958 5.556 5.6958s5.556-2.3076 5.556-5.6958c0-3.3876-2.366-5.6952-5.555-5.6952zm-59.1304-4.61667h2.8088v15.77507h-2.8088v-.0007zm23.5765 9.31607c.3174-1.2493 1.2676-1.9264 2.7039-1.9264 1.4579 0 2.4087.6771 2.7039 1.9264zm2.7026-4.7001c-3.1679 0-5.4919 2.2855-5.4919 5.6952 0 3.4723 2.3032 5.6952 5.8732 5.6952v.0013c1.5627-.0006 3.1053-.4236 4.3944-1.2493l-1.0779-2.4152c-1.0147.5305-2.1343.8472-3.2755.8472-1.4774 0-2.5129-.5709-2.9567-1.6305h7.9012c.0847-.4021.1264-.8042.1264-1.291 0-3.3876-2.3455-5.6529-5.4932-5.6529zm15.0843.5305-1.331 2.9841c-.486-.3388-1.015-.4848-1.584-.4848l-.001-.0007h-.001v-.0013c-.929 0-1.648.4438-2.028 1.1646v6.9654h-2.8083v-8.7869l-.4653-2.1382h2.8946l.297 1.377c.675-1.0603 1.731-1.6299 2.998-1.6299.698 0 1.415.1682 2.029.5507zm5.324 7.9182h-.002c-1.625 0-2.83-1.0799-2.83-2.7528 0-1.6938 1.205-2.7521 2.83-2.7521 1.649 0 2.832 1.0583 2.832 2.7521 0 1.6729-1.183 2.7528-2.83 2.7528zm-.002-8.448c-3.19 0-5.555 2.3076-5.555 5.6952 0 3.3882 2.365 5.6958 5.555 5.6958h.001c3.19 0 5.555-2.3076 5.555-5.6958 0-3.3876-2.366-5.6952-5.556-5.6952zm-56.719 4.6994c.3174-1.2493 1.2676-1.9264 2.7033-1.9264 1.4578 0 2.4086.6771 2.7045 1.9264zm2.7541-4.7301c-3.1686 0-5.4919 2.2869-5.4919 5.6953 0 3.4729 2.3025 5.6958 5.8731 5.6958h-.0013-.0013c1.5648 0 3.1067-.4236 4.3951-1.2493l-1.0766-2.4132c-1.0147.5291-2.1343.8465-3.2748.8465-1.4774 0-2.513-.5715-2.9574-1.6305h7.9005c.0848-.4015.1278-.8042.1278-1.2911 0-3.3875-2.3455-5.6535-5.4932-5.6535zm-34.8236 8.1359h-.002-.0006c-.3265.5617-1.1848.636-2.0281.2274-.5689-.2757-.565-.9769-.5025-1.4044.0333-.2333.1278-.4529.2751-.6387.2033-.2535.5422-.5852.9345-.5963.6374-.0169 1.1854.2659 1.4956.7775.3109.5096.1558 1.0727-.172 1.6345zm-6.3163-.7032h-.0013v.0006l.0007.0007c-.4504.4073-1.0447.3702-1.6749.1623-.6302-.2066-.9098-.9606-.6719-1.8711.1779-.6764 1.0147-.7775 1.4337-.784.1584-.0032.3148.0287.4595.0932.2959.1323.797.4152.8987.8466.146.6217.0052 1.1444-.4445 1.5517zm5.282-6.822-2.7443-12.76421-8.60175 1.80912 2.74235 12.76289-12.4025 2.6075 2.19036 10.1945 21.81044 4.5834 4.9881-11.0776 2.3742-22.344831-8.7485-.91042486zm22.878 7.868c-1.6267 0-2.831-1.0799-2.831-2.7528 0-1.6938 1.2037-2.7521 2.8303-2.7521 1.6488 0 2.8304 1.0583 2.8304 2.7521 0 1.6729-1.1816 2.7528-2.8297 2.7528zm5.6196.4444v-13.50776h-2.8088v6.16186c-.8466-.9743-2.0086-1.5452-3.3804-1.5452-2.8108 0-4.9862 2.307-4.9862 5.6952 0 3.3875 2.1754 5.6952 4.9855 5.6952 1.3947 0 2.599-.5924 3.4449-1.6091l.2946 1.3758h2.9366z" fill="#1f304c" fill-rule="evenodd"/></svg>