<svg fill="none" height="30" viewBox="0 0 97 30" width="97" xmlns="http://www.w3.org/2000/svg"><path d="m78.0769 1.63462h9.6154v18.17308h8.4615v8.4615h-18.0769zm-36.9231-1.63462c2.0193 1.34615 4.1347 2.69231 6.0577 4.13462-4.3269 2.6923-8.5577 5.48076-12.8846 8.26918.6731.4808 1.4423.8654 2.0193 1.4424 4.3269-2.7885 8.6538-5.48081 12.9807-8.26928 1.9231 1.15385 3.8462 2.40385 5.6731 3.75-4.3269 2.69228-8.4615 5.57688-12.7885 8.36538.6731.4808 1.4423.8654 2.1154 1.3462 4.4231-2.6923 8.75-5.4808 13.0769-8.2693v-9.13458h9.6154v18.17308c2.6923.0961 5.6731 0 8.5577.0961v8.4616h-18.0769v-8.6539c-5.3846 3.1731-10.8654 6.827-16.1538 10.2885-5.577-3.6538-10.9616-7.5-16.5385-11.0577-1.6346 5.0962-5.4808 8.9423-11.8269 9.4231-3.94234.2884-8.46157-.1923-12.9808 0v-26.73078c5.67308.38461 11.9231-.769235 16.4423.67307 4.0385 1.25 6.8269 4.42308 8.1731 8.36541 5.5769-3.55771 11.0577-7.11541 16.5384-10.6731zm-32.01918 10.1923v9.6154c2.30768 0 4.03848.0961 5.38458-.8654 2.0193-1.5385 2.4039-5.3846.6731-7.4038-1.1538-1.3462-3.1731-1.63465-5.96153-1.5385-.09615 0-.09615.0962-.09615.1923z" fill="#1f304c"/></svg>