<svg fill="none" height="24" viewBox="0 0 207 24" width="207" xmlns="http://www.w3.org/2000/svg"><path clip-rule="evenodd" d="m40.8797 5.69722c-.9466-1.71014-2.3303-3.13836-4.0095-4.13877-1.6793-1.000415-3.594-1.5371609-5.5486-1.55541526h-30.30119c-.199009-.01652374-.397753.03477066-.563907.14554026-.166154.110769-.289942.274496-.351231.464551-.09538722.182485-.1271801.391574-.0903455.594164s.1401925.38711.2937095.52434l6.609324 6.60932c.57046.56406 1.33344.89105 2.13532.91514h21.35322c.7281 0 1.4264.28924 1.9413.80411.5148.5149.8041 1.2132.8041 1.9413s-.2893 1.4264-.8041 1.9413c-.5149.5149-1.2132.8041-1.9413.8041h-14.6422c-.199-.0165-.3978.0348-.5639.1455-.1662.1108-.29.2745-.3513.4646-.0953.1825-.1271.3916-.0903.5942s.1402.3871.2937.5243l6.6093 6.6093c.2944.2922.6435.5235 1.0273.6805.3839.157.795.2368 1.2097.2347h6.711c8.643-.1017 15.1506-9.2531 10.2699-18.30278zm161.6743-1.83027v6.40595h-7.118v-6.40595c.009-.0554.004-.11206-.013-.16537-.017-.05332-.047-.10177-.087-.14142-.039-.03965-.088-.06937-.141-.08674-.054-.01736-.11-.02189-.166-.0132h-2.745c-.055-.00869-.112-.00416-.165.0132-.054.01737-.102.04709-.142.08674-.039.03965-.069.0881-.086.14142-.018.05331-.022.10997-.014.16537v16.26905c.007.1056.053.2049.127.2797.075.0748.174.1199.28.1271h2.745c.106-.0072.205-.0523.28-.1271s.12-.1741.127-.2797v-6.5076h7.118v6.5076c.007.1056.052.2049.127.2797s.174.1199.28.1271h2.745c.106-.0072.205-.0523.28-.1271.074-.0748.12-.1741.127-.2797v-16.26905c.008-.0554.004-.11206-.013-.16537-.018-.05332-.048-.10177-.087-.14142-.04-.03965-.088-.06937-.142-.08674-.053-.01736-.11-.02189-.165-.0132h-2.745c-.106.00714-.205.05228-.28.12706-.075.07479-.12.17415-.127.27967zm-27.353 4.27064c0-2.64373 2.237-4.98242 5.898-4.98242 1.924-.00634 3.779.72088 5.186 2.03364.038.04017.067.08837.085.14111.017.05275.023.10874.016.16394.007.0552.001.11118-.016.16393-.018.05274-.047.10094-.085.14111l-1.627 1.62691c-.088.066-.195.10168-.305.10168s-.217-.03568-.305-.10168c-.734-.71739-1.719-1.11889-2.746-1.1185-1.423 0-2.542.81346-2.542 1.83028 0 3.15211 8.44 1.32186 8.44 7.42281 0 3.1521-2.339 5.4908-6.304 5.4908-2.241-.0041-4.392-.8792-6-2.4404-.066-.088-.101-.195-.101-.305s.035-.2171.101-.3051l1.526-1.6269c.088-.066.195-.1017.305-.1017s.217.0357.305.1017c.983.9526 2.291 1.4975 3.66 1.5252 1.831 0 2.949-1.0168 2.949-2.237 0-3.2538-8.44-1.4235-8.44-7.52441zm-14.845 8.43961-1.322 3.7622c-.102.2034-.203.3051-.407.3051h-2.948c-.153-.0255-.295-.0964-.407-.2034-.05-.0559-.078-.1283-.078-.2034 0-.075.028-.1474.078-.2033l6.202-16.26914c.102-.20336.204-.30504.407-.30504h3.254c.203 0 .407.10168.407.30504l6.202 16.26914c.102.1016 0 .305 0 .4067-.048.062-.11.1124-.18.1476s-.148.0543-.226.0558h-2.848c-.203 0-.406-.1017-.406-.3051l-1.322-3.7622zm3.254-8.84634-2.034 5.59254h4.067zm-19.523-4.16896c1.132-.02036 2.257.1859 3.308.60666 1.051.42075 2.007 1.04749 2.813 1.84334.805.79585 1.443 1.74474 1.876 2.79083s.653 2.16827.646 3.30047c.015 1.1345-.199 2.2605-.629 3.3104-.43 1.05-1.068 2.0023-1.875 2.7998-.807.7976-1.767 1.424-2.822 1.8417-1.054.4178-2.183.6182-3.317.5894h-5.796c-.055.0086-.112.0041-.165-.0132-.054-.0174-.102-.0471-.142-.0868-.039-.0396-.069-.0881-.087-.1414-.017-.0533-.021-.11-.013-.1654v-16.26907c.007-.10552.053-.20488.127-.27966.075-.07479.174-.11993.28-.12707zm-2.644 3.3555v10.5749h2.644c1.339-.0288 2.614-.5755 3.559-1.5252.907-1.0045 1.413-2.3071 1.423-3.6606.01-1.3874-.498-2.72859-1.423-3.76219-.454-.48895-1.005-.87733-1.618-1.14005s-1.274-.39394-1.941-.38518zm-22.472-2.94877c.008-.10552.053-.20488.127-.27966.075-.07479.175-.11993.28-.12707h7.016c.745-.02054 1.486.10931 2.18.3818.693.27248 1.324.682 1.856 1.20407.532.52206.952 1.14596 1.237 1.83438s.428 1.42723.421 2.17225c.021 1.0225-.245 2.0304-.766 2.9105-.52.8801-1.276 1.5976-2.182 2.0719l3.253 5.7959c.05.0559.078.1283.078.2033 0 .0751-.028.1475-.078.2034-.048.062-.11.1125-.18.1476-.07.0352-.148.0543-.226.0558h-2.847c-.079-.0015-.156-.0206-.227-.0558-.07-.0351-.132-.0856-.18-.1476l-3.051-5.7959h-3.152v5.4909c.009.0554.004.112-.013.1653s-.047.1018-.087.1415c-.039.0396-.088.0693-.141.0867s-.11.0219-.165.0132h-2.746c-.055.0087-.112.0042-.165-.0132-.054-.0174-.102-.0471-.142-.0867-.039-.0397-.069-.0882-.086-.1415-.018-.0533-.022-.1099-.014-.1653zm7.321 2.84709h-3.66v4.57568h3.66c.598-.0015 1.176-.2181 1.627-.6101.437-.4313.692-1.01353.712-1.6269.016-.60106-.202-1.18477-.61-1.62691-.465-.44733-1.083-.70167-1.729-.71177zm-21.149-3.76223c1.765.02006 3.485.56186 4.943 1.55719 1.458.99534 2.589 2.39973 3.251 4.03643.661 1.63669.824 3.43259.467 5.16159-.356 1.729-1.216 3.3138-2.472 4.5551-1.255 1.2412-2.85 2.0834-4.582 2.4205-1.733.3371-3.527.154-5.156-.5261-1.6295-.6801-3.021-1.827-3.9998-3.2962s-1.5011-3.1951-1.5012-4.9605c.0039-1.1825.2415-2.35261.6989-3.44307.4575-1.09046 1.1258-2.07981 1.9667-2.91124.8409-.83144 1.8374-1.48857 2.9334-1.93368 1.095-.4451 2.268-.6694 3.451-.66002zm0 14.64221c1.469-.0161 2.871-.6137 3.9-1.662 1.03-1.0482 1.601-2.4616 1.59-3.9305.014-.7296-.118-1.4545-.388-2.13251-.27-.67796-.672-1.29532-1.183-1.81601-.512-.52069-1.121-.93426-1.794-1.21653-.673-.28228-1.396-.4276-2.125-.42748-1.469.01611-2.872.61372-3.901 1.66194-1.029 1.04823-1.601 2.46159-1.5902 3.93059-.0036 1.485.5812 2.911 1.6272 3.9656 1.026 1.0264 2.413 1.6104 3.864 1.6269zm-21.5569-14.64221c1.7653.02006 3.4852.56186 4.9432 1.55719 1.4581.99534 2.5891 2.39973 3.2508 4.03643.6617 1.63669.8245 3.43259.4678 5.16159-.3566 1.729-1.2168 3.3138-2.4721 4.5551-1.2554 1.2412-2.8499 2.0834-4.5828 2.4205s-3.5268.154-5.1559-.5261-3.0207-1.827-3.9995-3.2962-1.5011-3.1951-1.5012-4.9605c-.0042-1.1848.2278-2.35863.6824-3.45279.4545-1.09417 1.1226-2.08679 1.9652-2.91985.8425-.83306 1.8426-1.48987 2.9418-1.93206 1.0992-.44218 2.2756-.66088 3.4603-.64331zm0 14.64221c1.0988.0108 2.1747-.3146 3.0834-.9325s1.6068-1.4988 2.0007-2.5247c.4169-1.0246.5235-2.1491.3066-3.2338-.2169-1.08469-.7479-2.0817-1.5268-2.86711-.7516-.79799-1.7318-1.3437-2.806-1.56218s-2.1897-.09901-3.1932.34199c-.9989.44997-1.8468 1.17857-2.442 2.09838-.5952.91982-.9124 1.99182-.9135 3.08742-.0109 1.4689.5609 2.8823 1.5901 3.9305 1.0291 1.0483 2.4318 1.6459 3.9007 1.662zm-21.2515-14.23548c1.132-.02036 2.2567.1859 3.3078.60665 1.0512.42076 2.0076 1.0475 2.8129 1.84335s1.4433 1.74474 1.8765 2.79083c.4331 1.04608.6527 2.16825.6457 3.30045.0155 1.1345-.1983 2.2605-.6285 3.3105-.4302 1.0499-1.0679 2.0022-1.875 2.7997-.807.7976-1.7668 1.424-2.8217 1.8417-1.055.4178-2.1834.6182-3.3177.5894h-5.7959c-.0554.0087-.112.0041-.1654-.0132-.0533-.0174-.1017-.0471-.1414-.0868-.0396-.0396-.0693-.0881-.0867-.1414s-.0219-.11-.0132-.1654v-16.26905c.0071-.10552.0523-.20488.1271-.27967.0747-.07478.1741-.11992.2796-.12706zm-2.5421 3.3555v10.57488h2.6438c1.3389-.0288 2.6146-.5755 3.5588-1.5252.9072-1.0045 1.4138-2.3071 1.4236-3.6605.0095-1.3874-.498-2.72867-1.4236-3.76227-.4535-.48895-1.0046-.87733-1.6176-1.14005-.6131-.26272-1.2744-.39394-1.9412-.38518z" fill="#1f304c" fill-rule="evenodd"/></svg>