<svg fill="none" height="48" viewBox="0 0 120 48" width="120" xmlns="http://www.w3.org/2000/svg" xmlns:xlink="http://www.w3.org/1999/xlink"><clipPath id="a"><path d="m0 0h119.2v48h-119.2z"/></clipPath><g clip-path="url(#a)" fill="#1f304c"><path d="m18.48 5.36001-18.48 10.63999v10.64l9.2 5.36v-10.64l9.28-5.36zm0 31.99999v10.64l18.48-10.64v-10.72zm32.96-.96v-6.72h-.48v3.28c-.4-.64-1.12-1.2-2.08-1.2-1.36 0-2.4 1.28-2.4 2.72 0 1.36 1.04 2.72 2.56 2.72.8 0 1.6-.48 2-1.12v.64c0 .24.16.48.48.48h.16v-.48c-.16-.08-.24-.16-.24-.32zm-.56-1.04c-.08.8-1.12 1.44-1.84 1.44-1.2 0-2.08-1.04-2.08-2.24 0-1.12.8-2.32 2-2.32.8 0 1.68.64 1.92 1.36zm4.16 1.44c-1.12 0-2-.88-2.08-2.16h4.64v-.24c0-1.44-1.12-2.72-2.56-2.72s-2.56 1.2-2.56 2.72 1.12 2.8 2.64 2.72c.96 0 1.84-.56 2.16-1.28l-.48-.08c-.24.64-.96 1.04-1.76 1.04zm0-4.64c1.12 0 2 .88 2.08 2.08h-4.16c0-1.2.96-2.08 2.08-2.08zm6.72-.32-1.68 2.16-.08.16-.08-.16-1.68-2.16h-.64l2.08 2.64-2.08 2.64h.56l1.76-2.16.08-.16.08.16 1.68 2.16h.56l-2-2.64 2-2.64zm2.72 4.88c-.32 0-.64-.16-.64-.56v-3.84h1.2v-.4h-1.2v-1.84h-.48v1.84h-.72v.4h.72v4c0 .56.48.96 1.04.96s1.04-.24 1.12-.32l-.16-.4c-.16 0-.48.16-.88.16zm3.76-4.96c-1.44 0-2.56 1.2-2.56 2.72s1.12 2.8 2.64 2.72c.96 0 1.84-.56 2.16-1.28l-.4-.08c-.24.56-.96 1.04-1.76 1.04-1.12 0-2-.88-2.08-2.16h4.64v-.24c0-1.52-1.12-2.72-2.64-2.72zm-2 2.48c.08-1.2.96-2.08 2.08-2.08s2 .88 2.08 2.08zm7.68-2.4c-.64.08-1.36.56-1.68 1.28v-1.28h-.48v5.28h.48v-3.28c.24-.96 1.04-1.52 2-1.52v-.48zm3.04-.08c-1.44 0-2.56 1.28-2.56 2.72s1.12 2.72 2.56 2.72 2.56-1.28 2.56-2.72c0-1.52-1.12-2.72-2.56-2.72zm0 5.04c-1.12 0-2.08-.96-2.08-2.24s.96-2.32 2.08-2.32 2.08 1.04 2.08 2.24c0 1.28-.96 2.32-2.08 2.32zm7.92-.32v-4.56h-.48v3.28c-.32.96-1.2 1.6-2.08 1.6s-1.36-.64-1.36-1.92v-2.96h-.48v3.04c0 1.52.56 2.32 1.76 2.4.88 0 1.76-.48 2.24-1.36v.8c0 .24.16.48.48.48h.16v-.48c-.16-.08-.24-.16-.24-.32zm2.96-2.24c-.96-.24-1.36-.32-1.36-.96 0-.8.64-1.12 1.44-1.12.64 0 1.28.24 1.6.64l.24-.24c-.32-.4-1.04-.72-1.84-.72-1.04 0-1.92.48-1.92 1.6 0 .8.56 1.04 1.76 1.28 1.12.24 1.68.4 1.68 1.12s-.64 1.12-1.52 1.12c-.72 0-1.28-.24-1.92-.72l-.24.32c.56.56 1.36.8 2.16.8 1.2 0 2-.64 2-1.52 0-1.04-.72-1.28-2.08-1.6zm10.08 2.16v-6.72h-.48v3.28c-.4-.64-1.12-1.2-2.08-1.2-1.36 0-2.4 1.28-2.4 2.72 0 1.36 1.04 2.72 2.56 2.72.8 0 1.6-.48 2-1.12v.64c0 .24.16.48.48.48h.16v-.48c-.16-.08-.24-.16-.24-.32zm-.48-1.04c-.08.8-1.12 1.44-1.84 1.44-1.2 0-2.08-1.04-2.08-2.24 0-1.12.8-2.32 2-2.32.8 0 1.68.64 1.92 1.36zm1.84-3.52h.48v5.28h-.48zm0-2.16h.48v.96h-.48zm6.08 3.28c-.48-.64-1.2-1.2-2.08-1.2-1.44 0-2.48 1.28-2.48 2.72 0 1.36 1.04 2.72 2.48 2.72.8 0 1.6-.48 2-1.12v1.12c0 1.12-.88 1.76-2 1.76-.8 0-1.6-.32-2-1.04l-.32.24c.48.72 1.12 1.2 2.32 1.2 1.36 0 2.48-.72 2.48-2.16v-5.44h-.48v1.2zm-.08 2.4c-.08.64-.96 1.44-1.84 1.44-1.2 0-2.08-1.04-2.08-2.24 0-1.12.72-2.32 2-2.32.8 0 1.6.56 1.92 1.36zm1.84-3.52h.48v5.28h-.48zm0-2.16h.48v.96h-.48zm3.2 7.04c-.32 0-.64-.16-.64-.56v-3.84h1.2v-.4h-1.2v-1.84h-.48v1.84h-.72v.4h.72v4c0 .56.48.96 1.04.96s1.04-.24 1.12-.32l-.16-.4c-.08 0-.48.16-.88.16zm5.52-.32v-2.56c0-1.28-.8-2.08-2.08-2.08-.64 0-1.28.24-1.92.72l.16.32c.56-.4 1.12-.64 1.68-.64.96 0 1.6.64 1.6 1.6v.48c-.48-.16-1.04-.24-1.68-.24-1.28 0-2.24.64-2.24 1.6s.72 1.6 1.76 1.68c.88 0 1.68-.32 2.16-.96v.4c0 .24.24.48.48.48h.16v-.48s-.08-.08-.08-.32zm-.48-.8c0 .08-.08.24-.16.4-.32.48-1.04.8-1.84.8-.72 0-1.36-.56-1.36-1.28s.72-1.2 1.76-1.2c.56 0 1.12.08 1.6.24zm3.52 1.04c-.16.08-.4.08-.56.08-.4 0-.64-.24-.64-.64v-6.4h-.48v6.56c0 .56.32.96.96.96.24 0 .64-.08.88-.16zm-70.8-13.12c.64.64 1.36 1.12 2.24 1.44s1.84.48 2.96.48c1.04 0 2.08-.08 3.12-.24.96-.16 1.76-.32 2.48-.56v-21.03999l-3.28 1.92v5.99999c-.4-.16-.8-.4-1.36-.56-.48-.16-1.12-.24-1.84-.24-1.04 0-1.92.16-2.64.48-.8.32-1.44.88-2 1.52s-.96 1.44-1.2 2.32-.4 1.92-.4 3.04.16 2.16.48 3.04.8 1.76 1.44 2.4zm2.24-8.88c.56-.8 1.44-1.2 2.64-1.2.56 0 1.04.08 1.52.24s.88.32 1.12.56v8.16c-.24.08-.56.08-.88.16-.4 0-.8.08-1.36.08-1.2 0-2.16-.4-2.8-1.2s-1.04-1.92-1.04-3.36c0-1.52.32-2.64.8-3.44zm18.88 3.2 4.72-6.8h-3.44l-3.04 4.32-2.96-4.32h-3.6l4.8 6.88c-.48.56-.96 1.12-1.36 1.76-.48.64-.96 1.28-1.36 1.84-.4.64-.88 1.2-1.28 1.84-.4.56-.72 1.2-.96 1.68h3.28c.4-.64.88-1.44 1.52-2.4.56-.88 1.2-1.68 1.84-2.4l.96 1.2c.32.4.64.8.88 1.28.32.4.56.8.8 1.2s.48.72.64 1.12h3.6c-.56-1.12-1.36-2.32-2.24-3.6-.88-1.12-1.84-2.32-2.8-3.6zm25.84-2.72c.4-1.36.8-2.72 1.12-4.08h-3.36c-.16.72-.32 1.6-.56 2.48l-.72 2.64-.72 2.64c-.24.88-.48 1.68-.72 2.4-.24-.8-.56-1.68-.8-2.56l-.72-2.64c-.24-.88-.4-1.76-.64-2.56-.16-.8-.4-1.6-.56-2.4h-2.56c-.16.72-.32 1.52-.56 2.4-.16.8-.4 1.68-.64 2.56l-.72 2.64c-.24.88-.48 1.76-.8 2.56-.24-.72-.48-1.52-.72-2.4l-.72-2.64c-.24-.88-.48-1.76-.64-2.64-.24-.88-.4-1.68-.56-2.48h-3.44c.4 1.36.8 2.72 1.12 4.08.4 1.36.8 2.64 1.2 3.84s.8 2.32 1.2 3.44c.4 1.04.8 2 1.12 2.8h2.72c.48-1.36.96-2.72 1.44-4.24s.88-3.04 1.36-4.64c.4 1.6.88 3.12 1.36 4.64s.96 2.88 1.44 4.24h2.64c.4-.8.72-1.76 1.12-2.8s.8-2.16 1.2-3.44c.32-1.2.72-2.48 1.12-3.84z"/><path d="m27.68 0v32l9.28-5.36v-21.28zm-27.68 37.36 18.48 10.64v-10.64l-18.48-10.72z" opacity=".75"/></g></svg>