<svg fill="none" height="38" viewBox="0 0 95 38" width="95" xmlns="http://www.w3.org/2000/svg"><path d="m89.756 9.12-8.056 16.188-8.132-16.188h-5.624l1.444 2.736c-1.9-2.812-5.7-3.572-9.12-3.572-10.032 0-10.716 5.548-10.716 6.384h5.016s.228-3.192 5.32-3.192c3.344 0 5.852 1.52 5.852 4.408v1.064h-5.852c-6.536 0-10.488 1.596-11.552 4.788.152-.684.152-1.444.152-2.204 0-6.156-4.18-11.172-11.248-11.172-6.612 0-8.664 3.572-8.664 3.572v-11.932h-4.864v18.164c-.076-3.952-2.66-9.88-11.552-9.88-6.612 0-12.16 2.812-12.16 11.4 0 6.764 3.724 11.02 12.464 11.02 10.26 0 10.868-6.764 10.868-6.764h-4.94s-1.064 3.648-6.232 3.648c-4.18 0-7.22-2.812-7.22-6.84h18.924v5.624c0 1.52-.076 3.572-.076 3.572h4.712s.152-1.52.152-2.888c0 0 2.356 3.648 8.664 3.648 5.396 0 9.424-3.04 10.716-7.752 0 .228-.076.532-.076.76 0 4.56 3.8 7.068 8.968 7.068 6.992 0 9.272-3.876 9.272-3.876 0 1.52.152 3.04.152 3.04h4.484s-.152-1.9-.152-3.116v-10.26c0-1.368-.228-2.584-.608-3.572l8.968 16.948-4.256 8.056h5.32l14.668-28.88zm-84.74 8.512c0-3.876 3.572-6.156 7.068-6.156 4.028 0 6.764 2.432 6.764 6.156zm31.084 9.88c-4.864 0-7.448-3.8-7.448-7.98 0-3.876 2.356-7.904 7.448-7.904 4.56 0 7.448 3.344 7.448 7.904 0 4.864-3.344 7.98-7.448 7.98zm29.716-6.08c0 1.824-1.14 6.308-7.676 6.308-3.572 0-5.092-1.824-5.092-3.876 0-3.8 5.168-3.8 12.768-3.8z" fill="#1f304c"/></svg>