<svg fill="none" height="48" viewBox="0 0 68 48" width="68" xmlns="http://www.w3.org/2000/svg" xmlns:xlink="http://www.w3.org/1999/xlink"><clipPath id="a"><path d="m0 0h67.2v48h-67.2z"/></clipPath><g clip-path="url(#a)"><path d="m47.36 13.92-4.96 1.04v14.4l4.88-1.04c4.16-.88 6.96-4.24 6.96-8.64 0-4.48-2.8-6.64-6.88-5.76zm3.6 6.4c0 2.88-1.6 4.56-3.68 4.96l-1.68.4v-8.32l1.68-.4c2.08-.48 3.68.48 3.68 3.36zm-20.4-2.88-3.36.64v14.4l3.2-.64v-9.12l6.24 7.84 3.36-.64v-14.4l-3.2.64v9.12zm-17.52 10.96c0 4.48 2.72 6.64 6.88 5.76l4.96-1.04v-14.4l-4.88 1.04c-4.24.8-6.96 4.16-6.96 8.64zm6.88-5.68 1.68-.4v8.32l-1.68.4c-2.08.48-3.84-.48-3.84-3.36s1.76-4.56 3.84-4.96zm44.08-3.68c0 1.92-.8 3.04-2.4 3.44-1.6.32-2.4-.4-2.4-2.32v-8.8l-3.2.64v8.88c0 3.76 2.4 5.2 5.52 4.56.96-.24 1.68-.56 2.48-1.12v3.6h.16c0 1.6-1.12 3.52-3.2 4l-60.96 12.88v3.2l61.84-13.2c3.44-.72 5.36-3.76 5.36-6.96v-18.24l-3.2.64zm-60.8 9.92c0-1.92.8-3.04 2.4-3.44 1.6-.32 2.4.4 2.4 2.32v8.8l3.2-.64v-8.96c0-3.76-2.4-5.2-5.52-4.56-.96.24-1.68.64-2.48 1.12v-3.2c0-1.92 1.04-3.76 3.12-4.16l60.88-13.04v-3.2l-61.84 13.2c-3.44.72-5.36 3.76-5.36 6.96v18.24l3.2-.64z" fill="#1f304c"/></g></svg>