<svg fill="none" height="36" viewBox="0 0 147 36" width="147" xmlns="http://www.w3.org/2000/svg"><path d="m26.8333 3.69048.0476-.21429.0714-.19047.0715-.19048.2381-.04762.1428-.09524.1667-.09523h.1905l.1904-.07143.2143.09523.1905-.07142h.2143l.1905-.07143.1904.07143.2143.0238.1905-.04761.2143.07143h.3809l.2143-.02382.1905.04762.2143-.11904h.1905l.2142.14285.1905-.04761.2143.0238.1905-.14285.1905.04762.2142.09523.1905-.07142.2143-.07143.2143.02381.1905.09524.1666.11904.0715.19048.1428.14286.0953.16666-.0239.21429v.40476l-.0714.19048.0714.21428.0477.19048v.19048l-.0715.21428.0477.19048-.0239.21428.0239.19048.0238.21429.0238.21428-.0715.19048.0715.21428-.1191.19048-.0238.21428v.40477l.0476.19047.0715.21429.0238.19048-.1191.21428-.0238.19048-.0238.21428.0714.19048.0238.21428.0715.19048v.21429l-.1191.19047.0238.21429-.0238.21428v.40481l.0953.1904-.1429.2143.0714.1905.0238.2143.0239.1905-.0239.2142-.0238.1905-.0476.2143.0953.1905-.0953.2143.0714.2143-.0476.1904.0476.2143-.0238.1905v.4048l.0238.2142.0477.2143-.0953.1905.1429.1667.0476.1904.1429.1667.1666.1191h.2143l.1905-.0715.1905.0476h.2142l.2143.1191.1905-.1429.2143.0715h.1905l.2143.0476h.2142l.1905-.0714.2143.0952.2143-.0952.1905.0952h.2143l.1904-.0952.2143.0714.2143-.0953h.1905l.2143.0953.1904-.1429.2143.0238.2143.1429.1905-.0238.2143-.0714h.2143l.1904.0714.2143-.0476.2143.0714.1905-.0714.1905-.0953.2142.0715.0953-.2143.119-.1191.2381-.0952v-.2143l-.0714-.1905v-.2143l.1429-.1904-.0953-.2143v-.1905l.1191-.2143-.1429-.1905.0476-.2142.0715-.1905-.1429-.2143.1429-.1905-.1191-.2143.0476-.1904.0476-.2143-.0952-.1905v-.2143l.1191-.1905-.0715-.2143.0953-.1904-.0953-.2143.0953-.1905-.1191-.21428.0953-.19048-.1429-.21429.0952-.19047-.0952-.21429.1429-.21428-.1191-.19048.0476-.21429-.0714-.19047.0714-.21429.0238-.19047-.0714-.21429.0476-.19048.0238-.21428-.0952-.19048.1429-.21428-.0953-.19048-.0238-.21429.0238-.21428.0238-.19048-.0476-.21428.0714-.19048-.0476-.21428-.0238-.19048.0714-.21429-.0476-.19047.0238-.21429v-.21428l.0476-.19048-.0714-.21429v-.40476l.1429-.14285.119-.14286.0714-.21429.1905-.04762.1667-.07142h.4048l.1904-.07143.2143.09523.1905.02381.1905-.04761.2143.0238.1904-.07142.2143-.07143.1905.11905.2143-.04762.1905-.02381.2142-.04762.1905.14285.1905-.04762.2143-.07142.1905.14285.2142-.09523.1905.04762.2143-.04762.1905.0238.2143-.09523.1904.11905.2143-.09524.1667.14285.1905.02381.2142.04762.1429.11905-.0238.2381.1667.14285.0238.21429-.0238.19047v.40477l.0476.19047-.0476.21429-.0238.19048.0238.21428.0714.19048-.0714.19047-.0715.21429.1191.19047v.21429l.0238.19048-.1191.21428-.0238.19048.0953.19047v.21429l.0238.19048-.0238.21428-.0953.19048.0953.21428.0238.19048.0238.21429v.19047l-.0476.21429.0238.19047.0238.19048-.0238.21428-.0238.19048-.0238.21429-.0715.19047.0238.21434v.1904l-.0238.2143v.1905l.0953.1905-.0476.2143v.1904l.0714.2143-.1191.1905.0715.2143v.1904l-.0715.2143.0477.1905-.0239.1905-.0238.2143.1191.1904v.2143l.0238.1905-.0238.2143-.0714.1905v.4047l.0238.2143.0714.1905-.1429.2143.0953.1905.0238.2142v.1905l-.0953.1905v.4048l.0239.2142.0476.1905-.0476.2143-.0477.1905.0953.2143-.0476.1904-.0477.2143.1429.1905-.1429.2143.1429.1905-.0714.2143v.1904l-.0715.1905.1191.2143-.0238.1905-.0238.2143.0714.1904v.2143l-.0476.1905-.0953.2143.0715.1905.0238.2142v.4048l-.0238.1905.0238.1905-.0476.2142.0238.1905.0476.2143-.0476.1905.0476.2143-.1191.1904.0953.2143v.1905l-.0476.1905-.0477.2143.1429.1904-.1191.2143v.1905l.0953.2143v.1905l.0238.2142v.1905l-.0238.2143-.0476.1905-.0477.2143.0239.1904.0952.2143-.0238.1905-.0953.2143.0477.1905.0476.2143-.0476.1904v.2143l.0238.1905-.0953.2143v.1905l.1429.2142-.0952.1905.0952.2143-.0476.1905v.2143l.0476.1904v.2143l-.1191.1905.1191.2143-.0952.1905-.0239.2143.0239.1904.0952.2143-.0952.1905-.0239.2143.1191.1905-.1191.2142.1191.1905v.4048l-.0952.2143.0238.1904-.0715.1905-.1904.0953-.0715.1904-.119.1667-.1905.0714-.2143.0238-.2143-.1428-.1904.0952-.1905.0238-.2143-.119-.1905.0476h-.1905l-.2142-.0714-.1905.1428-.2143-.0714-.1905.0714-.1904-.0714-.2143.0952-.1905-.0238-.1905-.119-.2143.1428-.1905-.0952h-.4047l-.1905.0714h-.4048l-.2142-.119-.1905.0714h-.1905l-.1667-.119-.1666-.0953-.2143-.0476-.0476-.2143-.0238-.1905v-.1904l-.0715-.1905-.0476-.2143.0714-.1905.0715-.2143-.0953-.1904v-.1905l-.0476-.2143.1429-.1905-.0953-.1904-.0238-.2143.0476-.1905-.0714-.2143.0953-.1905.0476-.2143-.1191-.1904-.0238-.1905.0476-.2143.0953-.1905-.1191-.2143.0476-.1904-.0476-.1905-.0238-.2143.1191-.1905.0238-.2143-.0238-.1904-.0238-.2143v-.1905l-.0715-.1905.0715-.2143-.0953-.1904.1191-.2143-.0953-.1905.1191-.2143-.1429-.1905.0714-.1904v-.2143l-.0238-.1905-.0476-.2143.0714-.1905-.0476-.2142.0238-.1905-.0476-.1905.1191-.2143-.0238-.1905-.0953-.2142.1191-.1905-.0715-.2143-.0476-.1905v-.4047l.0953-.2143-.0477-.1905.0715-.2143-.0953-.1667-.119-.1666-.0715-.1667-.1428-.0952-.0714-.2143-.2381.0238-.1667-.1429-.2143.0238-.1905.0953-.2142-.1191-.1905.0238-.2143.0715-.1905.0476-.1905.0238-.2142-.0714-.1905-.0953-.2143.1429-.1905-.0714-.2143-.0238-.1905-.0477-.2142.0715-.1905.0714h-.4048l-.2143-.0952-.1904.0238-.2143.0476-.1905.0238-.2143-.0238-.1905-.0714h-.2142l-.1905.119-.2143-.1429-.2143.0239-.1905-.0239-.1666.1667-.2143-.0476-.1191.1667-.119.1428-.0953.1429-.1428.1428-.0714.1905.0714.2143-.0714.1905.0238.1904-.0476.2143.0952.1905.0238.2143.0238.1905-.0238.1904-.0476.2143.0476.1905-.0476.2143v.1905l.0238.1904-.0714.2143.119.1905-.0238.2143.0238.1905-.0952.1904.0952.2143-.0952.1905.119.2143-.119.1905.0714.1904-.0238.2143.0238.1905-.0238.2143.0714.1905-.1428.2143.119.1904.0238.1905-.0952.2143.0714.1905-.0714.2143-.0238.1904.0238.2143.0952.1905-.1428.2143.119.1905-.119.1904.1428.2143-.1428.1905.119.2143-.119.1905.0476.2142.0238.1905.0476.2143-.0238.1905v.1905l-.0714.2142.0476.1905.0714.2143-.0238.1905-.1428.2143.0238.1666-.0715.1905-.119.1191-.0953.1428-.0952.2143-.1905.0714-.2143-.0714-.2142.0714-.1905.0238h-.2143l-.2143-.1428h-.4047l-.2143.0952h-.4048l-.2143-.0238-.1905.0476-.2142-.0714h-.1905l-.2143-.0238h-.2143l-.1905.0476-.2143-.0476-.2142.0952-.1905.0238-.2143-.0714h-.2143l-.1905-.0238-.2142.0714-.1905-.0952-.1905-.0238-.1905-.0714-.1428-.1667-.0953-.1667v-.1905l-.0238-.1904-.0238-.2143.0476-.1905-.0238-.1905.0238-.2143-.0238-.1904-.0952-.2143.0238-.1905-.0238-.1905.0476-.2143-.0714-.1904.0714-.2143-.0714-.1905.0952-.2143-.0238-.1905-.0476-.1904.0952-.2143-.0952-.1905.119-.2143v-.4047l-.0476-.1905v-.2143l.0714-.1905v-.2143l-.0476-.1904-.119-.1905.119-.2143-.0476-.1905.0714-.2143-.119-.1904.0238-.2143.0476-.1905.0476-.2143-.0714-.1905.0714-.2143-.0476-.1904-.0238-.1905.0476-.2143-.119-.1905.1428-.2143v-.1904l-.0238-.2143v-.1905l-.0238-.2143-.0714-.1905.0952-.1904-.0714-.2143-.0238-.1905v-.2143l.119-.1905-.0238-.2142.0238-.1905.0238-.2143-.119-.1905.119-.2143-.0952-.1904.0714-.2143-.0714-.1905v-.1905l.0238-.2143.0238-.1904-.0714-.2143.0476-.1905.0238-.2143-.119-.1905.0714-.2142.0952-.1905-.0476-.2143-.0952-.1905.0714-.2143.0476-.1904-.0238-.2143-.0238-.1905.0714-.1905-.0952-.2143.0952-.1904-.0476-.2143-.0714-.1905v-.2143l.0714-.1905-.0714-.2143v-.1904l.0952-.2143-.0952-.1905.0476-.2143.0238-.1905-.0952-.2142.0952-.1905-.0714-.1905-.0238-.2143.0476-.1905-.0476-.2142v-.1905l.1428-.2143-.1666-.1905.0714-.1905.0476-.2142-.0952-.1905v-.2143l.0714-.1905-.0714-.2143.0238-.1904.0952-.2143-.0476-.1905-.0238-.2143.0476-.1905v-.2143l.0476-.1904-.0476-.21432-.119-.19047.0714-.21429v-.19047l.0714-.21429-.0238-.19048-.0952-.21428.119-.19048-.0476-.21428.0476-.19048-.1428-.21428.1428-.19048-.0714-.21429.0238-.19047-.0476-.21429-.0238-.19048.119-.21428-.119-.19048.0238-.21428.0476-.19048-.0714-.19048.119-.21428-.0952-.21429.0714-.19047-.0476-.21429v-.19048l-.0238-.21428.0476-.19048v-.21428l-.0476-.19048.0476-.21429zm55.0476 4.54762-.1905-.04762-.2143.07143-.1904.04762-.1905.11904-.1667.09524-.1428.16667-.0238.21428.0238.21429-.0953.16667-.0952.19047.0476.21429-.0238.19048v.21424l-.119.1905.0952.2143.0476.1905-.0476.1905.0238.2142-.0714.2143.0952.1905-.0238.1905.0476.2143.1191.1666v.2143l.1904.1429-.0238.2381.2143.119.0953.1667.0952.1666.1428.1667.0477.1905.1428.1429.1905.119.1429.1429.0952.1666.2143.0715.0952.2142h.2619l.1429.1429.1667.0952.1666.1191.0953.2143.2619-.0238.119.1904.1667.1191.1666.119.1667.1191.1905.0476.1666.119.1905.0715.1667.1428.1429.1429.1666.119.1667.1191.0952.1905.1429.1428.119.1667.1667.119.0952.1905.2143.0714.0715.2143.119.1667.2143.0714.0952.1905.1429.1428.119.1667.1429.1429.0952.1904.0953.1667.1428.1667-.0238.2381.1191.1666.119.1667.0714.1905.1667.1428-.0238.2143.1667.1667.0714.1905.1428.1428.0477.2143.0476.1905.0952.1905v.2142l.0953.1667.0476.2143.0952.1667.0238.2143.1667.1666.0714.1905-.0952.2381.119.1667v.2142l.1905.1429.0238.2143-.0476.2381.0952.1666.1191.1905.0476.1905.0238.2143v.1905l-.0476.2142.0714.1905.0714.2143-.0476.1905.0238.2143v.1904l-.0714.2143.0714.1905.0476.2143v.1905l-.0952.2143.0238.1904-.0476.2143v.1905l-.0238.2143v.1905l-.1191.1904.0239.2143-.1667.1667-.0953.1905-.0476.1904-.0714.1905v.1905l-.0238.2143-.0714.1905-.2143.1428-.0953.1667-.119.1666-.0476.1905-.0953.1905-.0476.2143-.119.1428-.2381.0953-.1191.1666-.1428.1191-.1429.1428-.1428.1667-.0715.1905-.2619.0238-.119.1667-.1429.1428-.1428.1191-.1905.119-.1905.0714-.1905.0477-.1428.1666h-.2143l-.1667.1429-.1905.0476-.1666.1191-.2143.0476-.1905.0714-.1905.0476-.1904.0715-.1667.0952-.2381-.0714-.1667.119-.2142-.0238h-.2143l-.1905.0238-.1905.0952-.1905.0953-.2142-.0238h-.2143l-.1905-.1191-.2143.1429-.1905-.0714h-.2143l-.1904-.0715h-.2143l-.2143.0476-.1905-.0952-.2143.0714-.1904-.1428-.1905-.0238-.2143.0476-.1905-.1191-.2143.0715-.2143-.0476-.1666-.1667-.2143.0714-.2143-.0714-.1428-.1905-.1905-.0714h-.2143l-.1905-.0714-.1428-.1667-.2143-.0476-.1429-.1667-.1905-.0476-.2143-.0476-.0952-.2381h-.2381l-.1667-.1191-.0714-.2381-.1905-.0952-.2142-.0714-.1429-.1429-.0238-.2619-.2143-.0714-.1428-.1667-.0239-.2143-.2381-.0952-.0714-.1905-.0714-.2143-.2143-.0952.0238-.2381-.1905-.1429-.0476-.1904-.0238-.2143-.1667-.1667-.0714-.1667.0476-.2381-.119-.1904.0476-.1905-.119-.1905.0952-.2143-.1191-.1905.0953-.1904-.1191-.2143.0715-.1905-.0715-.2143.1191-.1905-.1191-.1904.0477-.2143-.0715-.1905.0715-.2143.0476-.1905-.0953-.2142.0477-.1905.0238-.1905-.0953-.2143.1429-.1905-.0953-.2142-.0238-.1905.0238-.2143.0239-.1905.2142-.0714.1905.0952.2143-.0714h.1905l.1905.0714.2142-.0476.1905.0238h.2143l.1905.0476.2143-.0952.1904.0238.1905-.0238.2143.0952.1905.0238.2143-.0952.1904.0476h.5953l.2143-.0476.1904.0952h.2143l.1905-.0238h.1905l.2143-.0476.1904-.0714.2143.0952.1905-.0476.2143-.0238.1905-.0238.2143.119.1904-.0238.0715.1667-.1191.2143.0952.2143-.0476.1904.0715.2143-.0239.1905.1191.2143-.0952.1905.0952.2143-.0952.2142.0714.1905.0714.1905.0476.2143-.1428.2143.1428.1904.0238.2143.0239.1905.0476.1905.0952.2143.1667.119.1428.1667.1905.0714h.2143l.2381-.0952.1905.0476.2143-.0238.0714-.2143.0952-.1667.0714-.1905.1667-.1428.0953-.1667-.0477-.2381.0477-.1904.0238-.1905.0238-.1905.119-.1905-.0952-.2143v-.1904l-.0238-.1905-.0238-.2143.0476-.1905-.0476-.1905-.0477-.1904v-.4048l-.0476-.2143.0238-.2143-.0714-.1666-.0714-.1905-.0476-.2143-.0715-.1905-.1904-.119-.0477-.1905-.119-.1667-.1667-.1428-.0476-.2143-.1905-.119-.119-.1429-.0953-.2143-.1904-.0952-.0953-.1667-.1428-.1667-.2143-.0476-.1429-.1428-.1666-.1191-.1429-.1428-.0714-.2143-.1667-.1429-.1429-.1428-.1666-.1191-.1905-.0952-.0476-.2381-.2143-.0715-.1667-.119-.1428-.1429-.0953-.1904-.1428-.1429-.1429-.1428-.1667-.1191-.1904-.0952-.0953-.1905-.119-.1667-.2143-.0714-.119-.1905-.1191-.1666-.2381-.0477-.0238-.2619-.2619-.0238-.0952-.1905-.1429-.1666-.0952-.1905-.2143-.0476-.1191-.1905-.119-.1428-.1905-.1191-.1429-.1429-.0952-.1904-.0714-.2143-.1905-.0953-.1428-.1428-.1191-.1667-.1428-.1666-.0953-.1667-.1428-.1667-.0715-.1905-.119-.1666-.1429-.1429-.0714-.1905-.1429-.1666.0238-.2381-.119-.1667-.0714-.1905-.0238-.2142.0238-.1905-.1905-.1905.0952-.2143-.0238-.1905-.1428-.1904-.0238-.2143-.0477-.2143v-.1905l.0238-.2143.0239-.1904.0714-.2143-.0238-.2143-.1191-.1905.0238-.2143.1191-.1905-.0238-.2142-.0715-.21433.0953-.19047v-.40476l.0952-.21429.0238-.19048-.119-.21428.119-.19048-.0714-.21428.0952-.21429.0238-.19048-.0238-.21428.0477-.19048.1428-.19047-.0476-.21429.1429-.16667.0952-.16666.0476-.21429v-.21429l.1905-.11904.119-.16667v-.23809l.2143-.09524.0238-.2381.1191-.16666.1428-.14286.1905-.09524.0953-.19047.1666-.11905.2143-.07143.0952-.19048.1191-.19047.1667-.09524.1666-.14286.2381.02381.1191-.19048.1666-.11904.2381.02381.1667-.14286.1667-.07143.2142-.02381.1429-.19048h.2143l.1666-.11904.2143.02381.1667-.16667.2143-.02381.2143.07143.1666-.16667.2143.07143.2143-.02381.1905-.04762.1905-.09524h.4047l.2143.09524.1905-.09524h.2143l.1905.04762.2142.02381.1905-.11904.2143.09523.1905.04762.1905.04762.2142-.07143h.1905l.1905.09524.1905.09524.2143-.07143.1904.04762h.2143l.1667.19048.2143-.04762.1904.02381.1905.11904.2143-.02381.1429.16667.1666.11905.2381-.02381.1905.04762.1667.14286.119.16666.2381.02381.1429.11905.2143.07143.1666.09524.0714.23809.1667.11905.1667.09524.1667.11904.1428.14286.1905.07143.0952.21428.1905.09525.0238.21428.2143.09524.0238.23809.2381.07143.0476.21429.0715.19047.1428.14286.119.16667v.21428l.1191.19048.0238.19047.0714.19048-.119.21429.0238.21428.0952.19048-.119.21428.0714.21429.0476.19048v.42857l-.0952.19047.0476.21429-.0714.21429.0714.19046.0714.2143-.0238.2143v.1905l-.119.2142.0952.2143-.119.1905.0238.2143.0714.2381-.2143-.1191-.2142.0239-.1905.0714-.2143.0476h-.1905l-.1905-.0476-.2143-.0953-.1904.1429-.2143-.0714-.1905-.0476-.1905-.0477-.2143.0715-.1904.0714h-.4048l-.2143-.1191-.1905.0477-.1904.0476h-.4048l-.2143-.0953h-.1905l-.2142.0953-.1905-.1191-.1905.0238-.2143-.0238-.1904.1191-.2143-.1191-.1905.0953-.2143.0238-.1905-.0238-.1905-.0953.0715-.1666-.0715-.2143.0477-.1905v-.1905l.0238-.2143-.0953-.1904-.0476-.2143-.0238-.1905v-.21428l.0238-.19048-.0952-.19048v-.21428l-.0476-.19048-.0953-.19047-.0238-.21429-.2143-.09524-.119-.14286zm28.6671-5.28572.19-.02381.191.07143.166.09524.072.21429.238.07142.071.19048-.047.21429.047.21428-.143.19048.119.21428-.071.21429.024.19048-.024.21428v.61905l-.024.19048.095.21428v.21429l-.047.19047-.024.21429-.024.21428.072.19048-.072.21429.024.21428v.19048l.095.21428-.119.19048.024.21429-.119.16666-.143.11905-.19.09524-.191.02381-.19.09524h-.405l-.191.0238h-.19l-.214-.09523h-.191l-.19.07143-.215-.04762-.19-.07143-.214.09524-.191-.09524-.19.04762-.215.11904-.19-.04761h-.214l-.191.0238-.19-.0238-.215-.04762-.19-.04762-.214.14285-.191-.09523-.214-.02381-.191.04762-.143.16666-.119.14286-.071.16667-.119.16666-.048.19048.024.21429.072.19046-.048.2143-.071.1905.095.2143v.4047l-.095.1905.119.1905.023.2143-.047.1904v.2143l-.095.1905.071.2143-.048.1905v.2142l.072.1905-.072.2143.119.1905-.119.2143.119.1904v.6191l-.071.1905v.2143l.048.1904-.024.2143-.072.1905.072.2143-.095.1905.142.2142-.047.1905.024.2143-.024.1905-.095.2143.142.1904-.095.2143-.024.1905v.4048l.096.2142-.024.1905.047.2143v.1905l-.047.2143.024.1905.023.2142-.095.1905v.2143l-.024.1905.024.2143-.047.1904.095.2143-.095.1905v.2143l.119.1905-.048.2142.048.1905v.1905l.023.2143-.023.1905-.024.2142.047.1905-.119.2143v.1905l.024.2143-.024.1904.096.2143-.119.1905.071.2143v.1905l.071.2143-.047.1904-.024.2143.024.1905-.072.2143.024.1905v.4047l-.024.2143.096.1905.023.2143-.166.1904.071.2143-.047.1905.142.2143-.023.1905-.096.2143.048.1904.071.2143v.4048l-.023.2143-.096.1904.072.2143.024.1905-.048.2143v.4047l-.071.1905.071.2143.048.1905v.2143l-.072.1904.048.2143-.024.1905.024.2143.024.2143.023.1905-.071.2142.071.1905-.142.1905-.096.1667-.071.1428-.143.1191-.119.1428-.167.1429-.19.0238-.214-.1191-.191-.0238h-.214l-.191.0476-.214.0477-.19.0476h-.215l-.19-.1191-.215.0238-.19-.0238h-.214l-.191.0238-.214.0953-.191-.1429-.214.0476-.19.0477h-.405l-.214-.0477-.191-.0476-.214.0953-.191-.0953-.2139.0715-.2142-.0239-.1905.0239-.1905-.0239-.1667-.0714-.1666-.0952-.1429-.1191-.1666-.1428.0476-.2143-.0953-.1905.0715-.1905v-.2142l.0238-.1905-.0715-.2143-.0952-.1905.0476-.2143v-.1904l.1191-.1905-.1429-.2143.0953-.1905-.0239-.2143.0477-.1904v-.2143l-.0477-.1905.0715-.2143-.0953-.1905.0953-.2143v-.1904l-.0953-.2143.0953-.1905-.1191-.2143v-.1905l.0953-.2142-.1191-.1905v-.2143l.1429-.1905-.0238-.2143-.0715-.1904v-.2143l.0715-.1905-.0477-.2143.0715-.1905-.0715-.2143-.0714-.1904.1429-.2143-.1429-.1905v-.1905l.1429-.2143-.0715-.1904-.0714-.2143v-.1905l.1429-.2143-.1191-.1905v-.2142l.1191-.1905-.1191-.2143.0476-.1905.0477-.2143-.1429-.1904.1429-.2143-.1191-.1905.0714-.2143.0477-.1905-.0953-.2142v-.1905l.1191-.2143-.0715-.1905.0715-.2143-.0715-.1904.0715-.2143-.1191-.1905.1191-.2143-.1429-.1905.0714-.2143-.0714-.1904.1429-.2143-.1191-.1905.0238-.2143-.0476-.1905.0476-.2142.0477-.1905-.0715-.2143.0476-.1905.0239-.2143-.0953-.1904.1191-.2143-.0715-.1905-.0476-.2143.0476-.1905.0238-.2142-.0714-.1905.0714-.2143-.0476-.1905v-.2143l.0715-.1904-.0715-.2143.0238-.1905.0238-.2143.0477-.1905-.0953-.2143.0238-.1904-.0238-.2143.0953-.1905.0238-.2143-.1191-.1905.0715-.2142-.0239-.2143.0239-.1905v-.2143l-.0477-.1905.0953-.2143v-.1904l-.0476-.2143.0238-.1905-.0477-.2143-.0714-.1905.0953-.2142-.0477-.1905-.0238-.2143-.0476-.2143.1429-.19046-.0238-.21429-.0953-.16667.0476-.23809-.1666-.11905-.1191-.16667-.1905-.04761-.1666-.09524-.1905.07142-.1905-.11904-.2143.09523-.1904-.11904-.1905.04762-.2143.04762-.1905.0238-.1905-.14285-.2142.11905-.1905-.02381-.1905-.02381h-.4048l-.1904.07142-.1905-.04761-.2143-.02381h-.1905l-.1904.09523-.2143-.09523-.1905-.07143-.1905.11905h-.2143l-.1904.0238-.1905-.11904-.1667-.09524h-.2143l-.119-.14286-.1191-.16666-.0714-.19048.0714-.21429-.0714-.19047-.0238-.21429-.0238-.21428-.0238-.19048.0714-.21429-.0476-.21428v-.19048l.0238-.21428.0238-.21429.0238-.19048.0714-.21428-.0238-.21428v-.19048l.0238-.21429v-.21428l-.0952-.19048.0476-.21429v-.21428l-.0714-.19048.119-.21428-.0714-.19048.0952-.19048.1429-.11904.0952-.16667.1667-.07143.1905-.02381.1667-.14286h.1904l.2143-.0238h.1905l.2143.09523h.3809l.2143-.02381.1905-.07142.2143.14285.1905-.09524.1904-.02381h.2143l.1905.09524h.4047l.1905-.02381.2143-.07143.1905.07143.2143.04762.1905-.09524.2142.04762.1905.04762.1905-.14285.2143.14285.1905-.14285.2142.04761.1905.02381.1905.07143.2143-.11905.1905.02381.2142.02381.1905-.07142h.2143l.19.04761.191.09524.214-.07143.191-.02381h.19l.214-.02381.191.04762.214-.02381.191.04762.19-.02381.214-.04762.191.04762.214-.07142.191.14285.214-.09524h.19l.191.02381.214.07143.191-.16667.214.14286h.19l.191-.11904.214.0238.191-.0238h.214l.19.0238.215.04762.19.04762.215-.02381.19-.09523.19.0238.215.09524.19-.04762.215-.04762.19.04762h.214l.191-.02381.214.09524h.191l.19-.14285.214.09523.191-.11905.214.07143h.191l.214-.04761h.19l.215.11904.19-.11904.214.07142.191.04762.214-.02381zm4.595.83334.024-.19048.095-.16667.071-.19047.191-.04762.119-.19048.19-.04762.191-.09523h.405l.19.07142.214-.02381.191.07143.214.02381.214-.07143.191.02381.214-.09523.191.09523.214-.04762.19.09524h.215l.19-.02381.214-.07143h.405l.214.04762.191-.02381.214.04762.191-.02381.214-.02381.214-.07142.191.04761.214-.02381.143.16667.214.02381.095.19048.119.14285v.21429l.072.16667-.024.19047-.024.21429.072.19047-.096.21429.024.19048-.024.21428.119.19048.048.21428-.119.19048.071.19048-.071.21428.048.19048-.024.21428.024.19048-.096.21428.143.19048.024.21429-.071.19047.047.21429-.143.19048.119.19047-.071.21429.024.19048-.024.21428v.59524l-.024.21428.095.19048v.21429l-.047.19046-.024.2143-.024.1905.072.1904-.072.2143.024.1905v.2143l.095.1905-.095.2143.095.1904-.024.2143v.1905l-.047.2143-.024.1905.071.2142v.4048l.024.1905v.2143l-.095.1904v.1905l.071.2143-.047.1905-.072.2143.096.1904-.096.2143.048.1905.119.2143-.048.1905v.2143l.024.1904-.024.2143-.047.1905-.048.1905.143.2143-.095.1904-.048.2143v.1905l.048.2143v.1905l.024.2142-.024.1905-.048.2143.024.1905.071.2143-.047.1904-.072.1905.096.2143v.1905l.023.2143-.119.1904.119.2143.024.1905-.047.2143.023.1905-.119.2142.072.1905-.048.2143v.1905l.072.2143-.072.1904.119.2143-.119.1905.143.2143v.1905l-.024.2143.024.1904-.095.2143v.1905l.071.2143-.047.1905-.048.2142.071.1905-.119.2143.167.1905-.048.2143v.4047l-.119.2143.143.1905-.095.2143.024.1905.047.1904.12.1667.19.0952.143.0953.19.0238.167.0238.214.0238h.191l.19-.0476.191.0952.214.0238.19.0238.191-.0238.214.0476.191-.119.19.0952.214.0238.191-.119.19.0476.191-.0476h.214l.191-.0238.19.0238h.214l.191-.0238.19.119h.215l.19-.0238.191.0238h.214l.095.1905.191.0714.095.1667.143.1667-.048.2143-.024.1904.024.1905-.048.2143v.4048l.024.1904-.047.1905.119.2143v.1905l-.143.2143.047.1904-.047.1905.167.2143-.048.1905-.095.2143.047.1904.096.1905v.2143l-.024.1905-.024.2143-.095.1666v.2143l-.096.1905-.166.0952-.167.1191-.19.0476-.191-.0476-.19.0476-.215.0714h-.19l-.214-.0714-.191.0238h-.405l-.214.0476-.19.0238-.215-.0714-.19.0714-.214-.119-.191-.0476-.214.0238h-.191l-.214.0476-.19.0714-.215.0238-.19-.1428-.214-.0238h-.191l-.214.0714-.191.0238-.214.0714h-.19l-.215-.119-.19.0238-.215-.0476h-.19l-.214.0238-.191.0952-.214-.1428-.214.0714-.191.0238-.214.0238-.191-.0238-.214-.0238-.19-.0476-.215.0952-.19-.119-.214.0714-.191-.0238-.214.0476-.214-.0238h-.405l-.191.0238-.214.0476-.19-.119-.215.0952-.19-.0714-.214-.0238h-.215l-.19.0714-.215.0476-.19-.0952-.167-.0952-.047-.2381-.238-.0715.023-.2143-.023-.1904.047-.2143v-.1905l-.071-.2143.095-.1905-.095-.2142.095-.1905v-.1905l-.095-.2143.071-.1905-.095-.2142v-.1905l.095-.2143-.143-.1905.024-.2143.143-.1904-.024-.2143-.071-.1905v-.2143l.071-.1905-.047-.1904.071-.2143-.071-.1905-.072-.2143.143-.1905-.143-.2143v-.1904l.143-.2143-.071-.1905-.072-.2143v-.1905l.143-.2142-.119-.1905v-.2143l.119-.1905-.119-.2143.048-.1904.047-.2143-.143-.1905.143-.2143-.119-.1905.072-.2143.047-.1904-.095-.1905-.024-.2143.143-.1905-.071-.2142.071-.1905-.095-.2143.095-.1905-.119-.2143.119-.1904-.143-.2143.072-.1905-.072-.2143.119-.1905-.095-.2143.024-.1904-.048-.2143.048-.1905.047-.2143-.071-.1905.048-.2142.023-.1905-.119-.2143.143-.1905-.071-.2143-.048-.1904.024-.2143.048-.1905-.072-.2143.072-.1905-.048-.2143v-.1904l.071-.2143-.071-.1905.024-.2143.024-.1905.047-.2142-.095-.1905.024-.2143-.024-.1905.095-.2143v-.1904l-.095-.2143.071-.1905-.023-.2143.023-.1905v-.2142l-.047-.1905.071-.2143.024-.1905-.048-.1905.024-.2143-.071-.1904-.072-.2143.119-.1905-.047-.2143-.024-.1905-.048-.2142.143-.1905-.024-.2143-.095-.1905.143-.2143-.095-.1904.047-.2143-.047-.1905.024-.2143-.096-.1905.119-.21424-.095-.19048.119-.21429-.047-.19047-.048-.21429-.024-.19047.143-.21429-.119-.21429.024-.19047.024-.21429v-.40476l-.072-.19048.048-.21428.024-.19048-.024-.21428-.072-.19048.096-.21429.071-.19047-.119-.21429-.024-.19047v-.21429l.095-.19047.024-.21429-.095-.21429v-.59524l.095-.21428-.095-.19048zm15.666.19047.143-.16666.024-.19048.072-.16667.119-.19047.166-.09524h.215l.19-.11905.191.02381h.214l.19.11905.215-.09524.19-.02381.214.02381.191.02381.214-.07143.191.07143.19-.07143.214.07143.191.07143.214-.09524.214.09524h.191l.214-.14286.191.04762.214.02381.19-.02381.215.07143.19-.07143.214.04762.191-.09524.214.14286.191-.07143.214.07143.19-.04762.215.04762h.19l.214-.02381.191-.07143.214.11905.215-.16667.19.09524h.214l.191-.09524.214.09524.191-.07143.214.07143.19.02381.215-.02381h.19l.214-.07143.191.04762.214-.07143.214.07143.191-.02381.214-.04762.191.07143.214.09524.19-.09524.215-.02381.214.02381h.19l.191.04762.19.04762.096.16666.214.04762.071.19048.167.16667v.40476l-.071.19047.023.21429-.071.19048-.024.21428.072.19048-.024.21428.095.19048-.095.21429.047.19047-.095.21429v.19047l.024.21429.071.19047v.42858l-.047.19047.024.21429-.048.19047.024.21429.024.19048.071.21428-.119.16667-.095.21428-.215.04763-.095.16666-.214.02381-.191.04762-.19-.07143-.191.04762-.214-.02381-.19-.02381-.191.07143-.214-.09524-.191.04762-.19-.04762-.214.11905-.191.04762-.19-.11905-.191.07143-.214-.07143-.19.04762h-.405l-.191-.09524-.19.16667h-.214l-.191-.07143-.19.04762-.215-.14286-.166.14286h-.215l-.166.11905-.143.11904-.119.16667-.048.19048-.024.19047-.023.21432.095.2143v.1904l-.048.2143-.024.2143-.023.1905.071.2143-.071.2143.023.2142v.1905l.096.2143-.096.2143.096.1905-.024.2142v.2143l-.048.2143-.024.1905.096.1905.071.1666.071.1667.143.1191.167.0952.143.1428h.19l.191-.0476.214.0476.191.0715.19-.1191.19.1191.191-.0476.214-.1191.191.0476h.19l.191-.0238.214.0238.19.0476.167.1191h.214l.096.1905.071.1904.024.1667.095.1667v.2143l.024.1904-.048.2143-.024.1905.024.2143.072.1905-.048.2143-.071.1904.071.2143v.1905l.024.2143-.095.1905.095.2142.048.1905-.048.2143v.1905l-.095.2143.071.1904-.071.2143v.1905l.071.2143-.048.2143.096.1904-.191.1429.024.2381-.167.1429-.166.119-.215.0714-.19-.0714-.214.0238-.191.0476-.19-.0238-.191-.0714-.19.0714-.215-.0952-.19.1428-.19-.0476-.191.0238-.214-.0238-.191-.119-.166.1666-.215-.0238-.166.0953-.143.1428-.119.1667.024.2143-.048.1905.048.1904v.1905l-.024.2143v.1905l.047.2143-.095.1904-.024.1905-.023.2143.023.1905-.047.2143.119.1904-.119.1905v.2143l.119.1905-.048.2143.048.1904v.1905l.024.2143-.024.1905v.2143l.024.1904-.119.2143v.1905l.023.2143v.1905l.096.1904-.048.2143.19.1191.119.1428.191.0238.143.1191.19.0476.215-.0238.19.0476h.595l.191.0238.19-.0952.215-.0238.19.1428.19-.0476.215.0476.19-.1428.191.0238.19.0952.214-.0476.191-.0952.19.0238h.215l.19.0238.191.0952.214-.0714.19-.0238.191.0714.19.0476.167.1191.071.1666.143.1429.143.1667.024.1904-.095.1905.047.2143-.023.1905.023.2143.024.1904.048.1905-.095.2143.071.1905-.095.1905-.048.2142v.4048l.072.1905.071.1905v.2142l-.119.1905-.024.2143v.1905l.048.2143.047.1904.024.2143-.071.1905-.191.0952-.119.1429-.166.0714-.167.0715-.191.0238-.19.0952-.214-.1429-.191.0715-.214.0476h-.191l-.214-.0238-.19-.0238-.215-.0476-.19.0952-.214-.0952-.191.0714-.214-.0476-.191.0476h-.214l-.19-.0238-.215.0238h-.19l-.214.0714-.191-.1428-.214.0952-.191-.0714-.214-.0238h-.19l-.215.0714-.19.0714-.214-.0238h-.191l-.214-.119-.191.1428-.214-.0952-.19.0238-.215-.0476h-.214l-.191.0476-.214-.0714-.19.0952-.215-.0952h-.19l-.214.0714-.191-.0714-.214.119h-.191l-.214-.0952-.214.119h-.191l-.214-.1428-.19.0238-.215.0714h-.19l-.214-.0714-.191.0476-.214-.0714-.214.0714-.191.0714-.19-.1667-.215.0715-.166-.1191-.048-.2381-.143-.0952-.143-.1667-.024-.2143.143-.1904-.119-.2143v-.1905l.119-.2143-.119-.1905.048-.2142.048-.1905-.143-.2143.143-.1905-.12-.1905.072-.2142.048-.1905-.096-.2143-.024-.1905.143-.2143-.071-.1904.071-.2143-.095-.1905.095-.2143-.119-.1905.119-.2143-.143-.1904.072-.2143-.072-.1905.12-.2143-.096-.1905.024-.2142-.048-.1905.048-.2143.048-.1905-.072-.1905.048-.2142.024-.1905-.119-.2143.143-.1905-.072-.2143-.048-.1904.024-.2143.048-.1905-.072-.2143.072-.1905-.048-.2143v-.1904l.072-.2143-.072-.1905.024-.2143.024-.1904.048-.2143-.096-.1905.024-.2143-.024-.1905.096-.2143v-.1904l-.096-.2143.072-.1905-.024-.2143.024-.1905v-.2142l-.048-.1905.072-.1905.023-.2143-.047-.1905.024-.2142-.072-.1905-.071-.2143.119-.1905-.048-.2143-.024-.1904-.047-.2143.143-.1905-.024-.2143-.096-.1905.143-.2143-.095-.1904.048-.2143-.048-.1905.024-.2143-.095-.1905.119-.2142-.096-.1905.12-.2143-.048-.1905-.048-.2143-.024-.1904.143-.2143-.119-.1905.024-.2143.024-.1905v-.4047l-.072-.2143.048-.1905.024-.2143-.024-.1905-.071-.2142.095-.1905.071-.1905-.119-.2143-.024-.2143v-.1904l.096-.2143.024-.1905-.096-.2143v-.5952l.096-.2143-.096-.1905v-.2143l-.024-.19044-.023-.21429.071-.19048-.048-.21428v-.19048l.024-.21429.024-.19047.024-.21429.071-.19047-.047-.21429.024-.19047.023-.21429v-.19048l-.095-.21428.024-.19048v-.21428l-.048-.19048.119-.21429-.095-.19047.024-.21429.071-.21428-.071-.19048.048-.21429.023-.19047-.119-.21429v-.19047l-.024-.21429v-.19048l.096-.21428zm-60.7376-.19047-.0715-.19048-.0952-.14286v-.23809l-.2143-.04762-.119-.19048-.1905-.02381-.1905-.04762-.2143.11905-.1904-.11905-.2143.07143-.1905.02381h-.2143l-.2143-.02381-.1904-.11904h-.6191l-.1905.09523-.2143-.02381-.1904-.04762-.2143.04762-.2143.02381-.1905-.04762-.2143-.02381-.1904-.0238-.2143.07142-.1905-.09524-.2143.11905-.2143.07143-.1905-.04762-.2142.02381-.1905-.07143-.1667.11905-.1666.07143-.1667.11905-.0476.19047-.0953.16667-.0238.19048.0238.19047-.0476.21429.0476.19047-.0952.21429.0714.19048.0953.21428-.0477.19048-.0952.19047.0238.21429.0238.19048-.0476.21428.0714.19048-.0714.21428-.0238.19048.0952.21428-.0476.19048.0238.19048v.21428l-.0238.19048.0238.21429-.0714.19047.0238.21429-.0238.19048.0714.21428.0476.19048v.21428l-.0714.19048.0953.21428-.0239.19048-.0714.19048.0476.21427-.0238.1905.0476.2143-.119.1904.0476.2143.0953.1905v.2143l-.0715.1905.0715.2143-.1429.1904.0952.2143-.0714.1905.0238.1905.0953.2143-.1191.1904.0238.2143.0238.1905.0476.2143v.1905l-.0476.2142.0953.1905-.0238.2143v.1905l-.1429.2143.0952.1904.0477.1905-.0477.2143v.1905l.0477.2143-.0477.1904.0477.2143-.0715.1905-.0476.1905.0714.2143-.0714.1904v.2143l.1191.1905-.0477.2143-.0238.1905.0476.2143-.0952.1904.0714.2143-.0476.1905.0953.1905-.1191.2143.0476.1904-.0714.2143.0476.1905-.0476.2143v.1905l.0238.2142.0714.1905-.0952.2143.1667.1905-.0953.2143-.0238.1904.0953.2143-.0715.1905.0715.2143-.0715.1905-.0476.2142.0238.1905v.2143l.0714.1905-.0238.2143.0477.1904-.0477.2143.0238.1905.0239.2143-.0477.1905-.0952.2143.0952.1904v.6191l-.0476.1905.0476.2142-.0952.1905.0714.2143-.0476.1905v.2143l-.0952.1666-.0953.1905-.1666.1191-.1191.1666-.1905.0715-.1904.0476-.1905.0952-.2143.0238-.1905.0953-.2143-.0715-.2142.0715-.2143-.0953h-.2143l-.2143.0238-.2143.0715h-.4048l-.2142-.0715-.2143.0238-.1905-.0714h-.4286l-.2143.0476-.1904-.0952-.2143-.0238-.1191-.1905-.1428-.1428-.0238-.2381-.0953-.1905.0238-.2143-.0952-.1905v-.4286l-.0714-.2142.0952-.1905-.0476-.1905.0476-.2143-.119-.1905-.0477-.2142.0953-.1905-.0476-.2143.0714-.1905-.0714-.1905.0238-.2142v-.1905l.0714-.2143-.1429-.1905v-.2143l.0715-.1904-.0476-.2143.119-.1905-.0952-.2143.0714-.1905-.0238-.1904.0238-.2143v-.8095l-.0714-.1905v-.2143l.0476-.1905.0238-.2143.0238-.1904-.0952-.1905.0952-.2143-.0476-.1905.0238-.2143-.1191-.1905.1191-.2142-.0952-.1905.0238-.2143v-.1905l.0238-.2143.0476-.1904-.0952-.2143v-.1905l.0238-.1905-.0238-.2143v-.1904l.0952-.2143-.0238-.1905-.0476-.2143.0476-.1905.0714-.2142-.119-.1905.119-.2143-.0476-.1905-.1191-.1905.0477-.2142v-.1905l-.0238-.2143.0238-.1905.0238-.2143.0476-.1904-.1191-.1905.0715-.2143.0476-.1905.0238-.2143-.0714-.1904v-.2143l-.0238-.1905.0476-.2143.0238-.1905-.0238-.2143-.0714-.1904.0714-.2143.0476-.1905-.0714-.1905v-.21426l-.0238-.19047.0952-.21429-.0952-.19047-.0477-.21429.0477-.19048v-.21428l.119-.19048-.0952-.21428.0714-.19048v-.21429l-.0714-.19047.0476-.21429-.0952-.19047.0952-.21429-.1191-.19047v-.61905l.0953-.19048-.0238-.21428-.0476-.19048.0238-.21429.0714-.19047-.0714-.21429.0952-.19047-.1429-.21429.0477-.19048-.0238-.21428.0238-.19048.0952-.21428-.1429-.16667.0239-.21429-.0953-.16666-.1428-.14286-.1667-.11905-.2143.02381-.1905-.04762-.1905.04762h-.2142l-.1905-.02381h-.2143l-.1905.02381-.2143-.07143-.1904-.02381-.2143-.02381-.2143.02381-.1905-.04761-.2143.11904-.1904-.11904h-.2143l-.1905.11904-.2143-.04762-.1905.04762h-.2143l-.2142.02381-.1905-.02381-.2143-.02381-.1905.04762-.2143-.11905h-.1904l-.2143.02381h-.1905l-.1667.14286-.2143.02381-.0952.19048-.0952.16666v.19048l-.0715.16667-.0238.21428.0238.19048-.0714.21428.0238.21429v.40476l-.0238.21429.0953.19048.0238.21428-.1667.19048.0714.19047-.0476.19048.1429.19047-.0238.19048-.0953.19048.0476.19047.0715.19048v.38095l-.0238.21429-.0953.19047.0714.21429.0239.19047-.0477.21429v.40476l-.0714.19048.0714.19048.0477.21428v.19048l-.0715.21428.0476.19051-.0238.2143.0238.1904.0239.2143.0238.1905-.0715.2143.0715.1905-.1191.2142-.0238.1905v.4048l.0476.1905.0715.2142.0238.1905-.1191.2143-.0238.1905-.0238.1905.0714.2142.0238.1905.0715.2143v.1905l-.1191.2143.0238.1904-.0238.2143v.381l.0953.2143-.1429.1904.0714.2143.0238.1905.0238.2143-.0238.1905-.0238.2143-.0476.1904.0952.2143-.0952.1905.0714.2143-.0476.1905.0476.2142-.0238.1905v.4048l.0238.2143.0477.1904-.1191.2143.0952.1905-.0714.2143-.0238.1905v.2142l.0714.1905.0715.2143-.0238.1905v.2143l-.1191.1904.1429.2143-.0953.1905.0238.2143-.0714.1905.0238.2143.0476.1904-.0714.2143.0952.1905-.0952.2143v.1905l.0714.2142-.0714.1905.1191.2143v.1905l-.0953.2143.1191.1904v.2143l-.1429.1905v.2143l.0952.1905v.2143l-.0714.1904.0476.2143-.0714.1905.0476.1905.0953.2142-.1429.1905.1429.2143-.0238.1905-.1191.2143.0714.1904.0715.2143v.2143l-.1429.2143.1191.1905.0238.1905-.0715.2381.1667.1666.0238.2143v.2143l.1905.1429-.0476.238.1904.1429.0238.2143.0239.1905.1904.1428.0953.1905v.2381l.1666.1428.0477.2143.1904.1191.0477.2143.2142.0714.0715.2381.2381.0476.0952.1905.1905.0714.0952.2381.2381.0238.1429.1191.2142.0476.1667.1428.1667.0953h.2143l.1904.0952.2143.0476.1905-.0714.2143.1191.1905-.0715.2143-.0476.1904.0476.2143.0238.1905-.0714.2143.0953.1905-.0715h.1904l.2143.0715.1905-.0477.2143.0238h.1905l.2142.0477.1905-.0953.1905.0238.2143-.0238.1905.0953.2142.0238.1905-.0953.2143.0477h.5952l.2143-.0477.1905.0953h.2143l.1905-.0238h.2143l.1904-.0477.2143-.0714.1905.0953.2143-.0477.1905-.0238.2142-.0238.1905.1191.2143-.0238.1905-.0715.2143.1191.1904-.0715.2143.0477.1905-.0715.2143.0477.1905-.0953.2142.0953.1905-.0715.2143.0953.1905-.0477.2143-.0476.1905-.0238.2142.1429.1905-.1191.1905-.0238.1905-.0238.2143-.0476.1904-.0476.1667-.1429.1905-.0238.1904-.0714.1667-.1191.1191-.1666.2142-.0477.2143-.0714.0715-.2143.1428-.1428.1191-.1667.2143-.0714.1666-.1191.0476-.2143.1191-.1666.119-.1667.1191-.1667.1666-.119.0238-.2143.0953-.1905.0714-.1905.0714-.1666.1429-.1667.0476-.1905.0476-.1904.0953-.1905.0952-.1667.0476-.1905.1429-.1904v-.2143l.0238-.1905.0238-.2143v-.1905l-.0952-.2142.0476-.1905v-.1905l-.0714-.2143.119-.1905-.0714-.2142v-.1905l.0714-.2143-.0476-.1905.0238-.2143.0238-.1904-.119-.1905v-.2143l-.0238-.1905v-.2143l.0952-.1904v-.4048l-.0476-.1905-.0476-.2143.1428-.1904-.0952-.1905-.0238-.2143v-.1905l.0714-.2143.0238-.1904-.0238-.2143v-.1905l-.0714-.2143.0476-.1905.0714-.1904-.119-.2143.0476-.1905.0476-.2143-.119-.1905.1428-.2142-.1428-.1905.0476-.1905.0238-.2143.0476-.1905-.119-.2142.0476-.1905v-.2143l-.0715-.1905v-.2143l.0715-.1905.0714-.1904-.0714-.2143-.0238-.1905v-.4048l.0238-.2142-.0238-.1905.0476-.2143-.0238-.1905-.0476-.2143.0476-.1904-.0715-.2143.1429-.1905-.0952-.2143v-.1905l.0238-.2142.0714-.1905-.1667-.2143.1429-.1905v-.2143l-.1191-.1904.0239-.2143-.0477-.1905.0238-.2143.0239-.1905.0476-.2143.0476-.1904-.0238-.2143-.0953-.1905v-.2143l.1191-.1905-.0476-.2142-.0715-.1905.0715-.2143v-.1905l-.0238-.2143.0714-.1904.0238-.2143-.1429-.1905.0715-.2143-.0953-.19046.0477-.21429v-.19048l-.0239-.21428v-.19048l.1191-.21428-.1191-.19048.0715-.19048.0476-.21428-.0476-.19048-.0953-.21428.0953-.19048.0238-.21429-.1191-.19047.1191-.21429-.1191-.19048v-.40476l.0953-.21428-.0476-.19048v-.21428l.0952-.19048-.0714-.19048-.0715-.21428v-.40476l.1429-.19048-.0952-.21429-.0239-.19047.1191-.21429zm-65.61908 15.64288-.14285.1666-.02381.1667.11904.1667-.04761.1666.07142.1667-.09523.1667v.1428l.09523.1667.02381.1667-.14285.1428-.11905.0714-.19048-.0714-.16666.0714-.16667.0477-.09524.1666-.09524.1429-.07143.119-.16666.1667.16666.1429.02381.1428.02381.1667.11905.1428.19048-.0238.16666.0238.14286.0715.14286.0476.09524.0714v.1667l.02381.1667-.02381.1666.04762.1667-.04762.1667.02381.1666-.02381.1905-.02381.1667.07143.1666.02381.1667-.07143.1905.04762.1666.07142.1667-.11904.1667.11904.1666-.02381.1905-.07142.1667-.04762.1666.07143.1667.04761.1667-.09523.1905.04762.1666-.04762.1667.11904.1667-.09523.1666.02381.1905.09523.1667-.09523.1666-.07143.1667.16666.1905-.04762.1666-.07142.1667-.04762.1667v.1666l.07143.1905.02381.1667-.04762.1667.11904.1666-.11904.1905v.1667l.09523.1666v.1667l-.11904.1905.02381.1666.09523.1667-.09523.1667v.1904l.09523.1667.04762.1429.02381.1666.07143.1429.07143.1667.09524.119.09524.1429-.02381.2143.19047.0714.11905.119.14286.0953.07143.1666.14285.0953.16667.0238.11905.1667h.19047l.16667-.0715.16667.1191h.19047l.16667-.1667h.16667l.14285-.0952.2381.0476.04762-.2143.16666-.0952.04762-.1905.02381-.1667-.16666-.1428.02381-.2143-.16667-.0715-.19048.0239-.14285-.0953-.14286-.119-.16667-.0238-.19047.0238-.14286-.0953-.14286-.0952-.04762-.1667-.14285-.119-.07143-.1667-.02381-.1667.04762-.1666.09523-.1667.02381-.1905-.02381-.1666-.14285-.1667.02381-.1667.11904-.1666-.07142-.1905.02381-.1667v-.1666l-.02381-.1667.09523-.1905-.02381-.1667-.04761-.1666-.07143-.1667-.02381-.1666.07143-.1905.04762-.1667-.07143-.1667.04762-.1666-.07143-.1905.11904-.1667-.04761-.1666-.02381-.1667.02381-.1905-.07143-.1666.02381-.1667.02381-.1905.07142-.1667-.11904-.1666.14285-.1667v-.1905l-.14285-.1666.04762-.1667.02381-.1667.04761-.1904-.07142-.1667.04762-.1667.0238-.1666-.07142-.1905.09523-.1667-.07142-.1667-.04762-.1666-.02381-.1905.04762-.1667.16666-.0714.14286-.0476.19048.0238.14285-.0952.09524-.1667.16667-.0476.14285-.0715.04762-.1666.16667-.0953.04762-.1428-.02381-.1905-.14286-.119-.09524-.1429-.14285-.119-.16667-.0715-.21428.0953-.16667-.0715-.16667-.0238-.14285-.0952-.07143-.1905.09523-.1667v-.1666l.02381-.1667.04762-.1905-.11904-.1666.04761-.1667.02381-.1667-.09523-.2142-.09524-.0477-.02381-.1904-.11905-.1429-.16667-.0476-.16666-.0238-.19048.0476-.16667-.1191-.16666.0477-.14286.0952-.14286.1191v.1904zm4.09524-3.8572.09524.0238.16667-.0476.16666-.0476.16667-.0238.16667.0238.16666.0476.16667-.119.16667.0714.16666-.0714.11907-.0238v.1666l-.0476.1667.0238.1667-.0238.1666.0476.1905-.0476.1667.0476.1666v.3334l.0238.1666-.0476.1667.119.1905-.1428.1667.0714.1666.0714.1667-.1428.1666.1666.1667-.0714.1667-.0714.1905.119.1666-.0952.1667.0476.1667-.0238.1666.0238.1667-.0714.1667.1428.1904-.1428.1667-.0238.1667.119.1666-.0476.1667.0714.1905-.0952.1666v.1667l.0714.1429.0952-.1191.1905.0714.1191-.1428.1904.0476.1429-.0714.1667-.0476.1428-.1191.1667-.0476h.1667l.1666.1429.1667-.1429.1667.0476.1666.0953.1429.0952.2143-.0714.1666.0476.1429.119.119.1191.0715.1666.1428.1191.1429.0952.0714.1429.1429.119.0476.1667.0952.1429.0715.1428.0476.1667.119.1428.0953.1429-.0477.1905.0953.1666.0952.1429-.119.1667.1428.1904-.0476.1667-.0476.1667-.0476.1666.0714.1667.0476.1667-.0952.1904.0238.1667-.0476.1667.119.1667-.0714.1666.0238.1905.0714.1667-.0714.1666-.0714.1667.1428.1667-.0238.1904-.0714.1667-.0476.1667v.1666l.0714.1667.0238.1667-.0714.1904.119.1667-.0952.1667v.1666l.0952.1905v.1667l-.1428.1667.0238.1666.119.1667-.119.1905.0238.1666.0714.1667.0238.1667-.0476.1666.0238.1905-.0238.1667.0238.1666v.1667l-.119.1667.119.1904v.1667l.0238.1667-.0714.1666v.1905l.0714.1667-.1428.1667.0238.1666.0952.1905-.119.1667v.1666l.119.2143h-.2143l-.1666.0238-.1667-.1428-.1667.1428-.1666-.0952h-.1667l-.1429-.0238-.1666.1428-.1429-.119v-.1429l-.0952-.1666.0476-.1667.0714-.1667-.0238-.1666-.0714-.1905.0238-.1667v-.1666l.0714-.1667-.0714-.1667-.0476-.1666-.0238-.1905.0476-.1667.0952-.1666.0238-.1667-.0238-.1667-.1428-.1905.0476-.1666.0952-.1667-.0714-.1667.0238-.1666v-.1905l-.0238-.1667.0952-.1666-.0238-.1667-.0476-.1905-.0714-.1666-.0238-.1667.0714-.1667.0476-.1666-.0714-.1905.0476-.1667-.0714-.1667.119-.1666-.0476-.1667-.0238-.1905.0238-.1666-.0714-.1667.0238-.1667.0238-.1666.0714-.1905-.119-.1667.1428-.1666v-.1667l-.1428-.1905.0476-.1667.0238-.1666.0476-.1667-.0714-.1905.0476-.1666.0238-.1667-.0952-.1905.0952-.1904-.119-.1429-.0953-.1667-.0952-.119-.0238-.1905-.1429-.119-.119-.1191-.0952-.1667-.1667-.0476-.2143.0476-.1429-.0714-.1904-.0238-.1667.0952-.1667-.0476-.1666.0238-.1667.0238-.1429.1429-.1666.0714-.1191.1191-.0952.1666.0952.2143-.0476.1429v.1667l-.0476.1666.0476.1667-.0952.1667.0238.1904-.0238.1667-.0476.1667.1428.1666-.0476.1667-.0476.1905-.0476.1666.1428.1667-.0952.1667-.0476.1904.0476.1667.0238.1667.0714.1666-.1428.1667v.1905l.0238.1667v.1666l.119.1667-.0714.1905-.0476.1666v.1667l.0952.1667-.0476.1904.0714.1667v.1667l-.1428.1666.119.1667-.0238.1905.0714.1667-.1428.1666.0714.1667.0476.1905-.0952.1666.0476.1667.0476.1667-.0476.1904.0476.1667-.119.1667.0714.1666.0476.1905-.0238.1667-.0952.1666-.0238.1667v.3572l.0238.1666.119.1905-.0238.1667-.0714.1666.0238.1667-.16669.0714-.19047-.0952-.16667.0476-.19047-.0238-.16667.0476-.19048-.0714-.16666.0952-.19048-.0476-.21429.0238.09524-.2143-.14286-.1666.16667-.1667-.14286-.1667.11905-.1666-.07143-.1905-.07143-.1667.09524-.1666-.04762-.1667.11905-.1667-.09524-.1666-.07143-.1905.14286-.1667-.09524-.1666.09524-.1667.02381-.1667-.04762-.1667-.07143-.1904-.02381-.1667.07143-.1667.07143-.1666-.04762-.1667.02381-.1667.02381-.1904-.14286-.1667.04762-.1667.09524-.1666v-.1667l-.02381-.1905-.07143-.1666-.07143-.1667.16667-.1667-.02381-.1666-.09524-.1667.11905-.1905-.04762-.1667.02381-.1666-.09524-.1667-.02381-.1667.11905-.1666-.14286-.1905.02381-.1667.07143-.1666.04762-.1667-.04762-.1667.04762-.1666-.11905-.1905-.02381-.1667.16667-.1666-.14286-.1667v-.1667l.07143-.1666-.09524-.1905.14286-.1667-.14286-.1667.09524-.1666-.02381-.1667.09524-.1666-.04762-.1905.02381-.1667-.09524-.1667.09524-.1666-.02381-.1667.04762-.1905-.07143-.1666-.04762-.1667.04762-.1667-.07143-.1666.02381-.1667.09524-.1905-.04762-.1666-.07143-.1667.07143-.1667-.09524-.1666.09524-.1905v-.1667l.02381-.1667v-.1666l-.09524-.1905-.02381-.1667.02381-.1666.07143-.1667.07143-.1667-.14286-.1666v-.1905l.02381-.1667.09524-.1666v-.1667l-.04762-.1905.02381-.1667.02381-.1666-.09524-.1667.02381-.1666.09524-.1905-.07143-.1667-.07143-.1667v-.1666l.11905-.1667zm12.97624 14.0238-.1429.0477-.1905-.1191-.1905.0238-.1904-.0476-.1667.1429h-.1905l-.1905-.0715-.1666.0953-.1905-.0953v.1905l-.0238.1667v.1666l-.0476.1667-.0953.1429.0477.1904-.0953.1429-.0952.1429-.1191.1428h-.1904l-.1429.0952-.1905-.0476-.1428.1191-.1667-.0476-.1667.0238-.1904.0238-.1905-.0238-.1667-.0715-.119-.1428-.0715-.1667-.1904-.0714v-.2143l-.0953-.1429-.0238-.1666-.0238-.1667.0238-.1667-.0238-.1666.0238-.1667-.0476-.1667.0476-.1666-.0476-.1667.0238-.1667-.0238-.1666-.0238-.1667.0476-.1667-.119-.1666.1428-.1667-.0714-.1667-.0714-.1666.1428-.1667-.1428-.2143.2142.0476.1667.0477.1667-.1191.1666.0953.1667-.0239h.3333l.1667.0477.1667-.1191.1666.1429h.1667l.1667-.1191.1666.0476.1667-.0714.1667.0953h.1666l.1667-.0715.1667-.0238.1666.1429.1667-.0953.1667.0953.1666-.0238h.1667l.1191-.0715-.0477-.1428v-.1667l.1667-.1667-.1429-.1666.0239-.1667.0714-.1667.0476-.1666-.119-.1667-.0239-.1667.0239-.1666.0238-.1667.0952-.1667-.0238-.1666-.0238-.1667.0238-.1667-.0476-.1666.0476-.1667-.0238-.1667v-.1666l.0238-.1667-.0714-.1667-.0477-.1666.0953-.1667-.0476-.1667-.0715-.1666.0953-.1905-.1429-.1429-.0238-.1666v-.1905l-.0238-.1905-.1429-.119-.0476-.3095-.0238-.1905-.1428-.0953-.0953-.1666-.2143-.0238-.0952-.1667-.1667-.0714h-.1904l-.1191-.1429-.1429-.119-.2142.0952-.1667-.0476-.1667-.0953-.1666-.0714-.1667-.0238-.1905.0714-.1666.0238-.1667-.0714-.1667.1429-.1666-.0953-.1667.0238-.1429.1191-.1666.0476-.1905-.0714-.1429.0714-.119.1667h-.2143l-.1429.0952-.0714.1667-.119.119-.1429.0953-.0952.1428-.1191.1191-.0714.1666-.0714.1429-.1905.0952.0476.1905-.0476.1667v.1666l-.1191.1429v.1667l.0477.1666-.1191.1667.0238.1667.0953.1666-.1191.1667v.1667l.1191.1666-.0239.1667.0477.1667-.1429.1666.1191.1667-.0715.1667v.1666l-.0238.1667.1429.1667-.1191.1666.0238.1667.0953.1667-.0476.1666-.0715.1667.0476.1667.0715.1666-.0238.1667v.1667l-.0715.1666.0715.1667.0476.1667.0238.1666-.0476.1667-.0953.1667v.3333l.1429.1667-.0238.1666-.0953.1667.0715.1667-.0238.1666v.1667l.0238.1667-.0953.1666.0238.1667.0715.1667.0952.1428.0476.1667-.0238.1667.0238.1666.1191.1429.0238.1666.1667.0953v.2143l.1428.0952.1191.1191.119.119.1667.0476.1428.0953.1429.0952.0238.381.2143-.0715.119.1905.1667.0476.1905-.0952.1666.0714.1667.0476.1667.0477.1666-.0477.1667.0477.1667.0238.1666-.0953.1905.0953.1667-.0953.1667-.0714.1666-.0714.1905.0238.1429-.0715.1666-.0714h.1905l.1429-.119.0952-.1667.1429-.0714.1428-.0953.0476-.1904.1667-.0953.0952-.1428.1191-.1429.0238-.1667.119-.1428.0715-.1667.0476-.1667-.1191-.1904.0477-.1667v-.1667l.0714-.1666-.0714-.1667zm-4.1191-6.5476.0476-.1666.1905-.0715.0952-.1428.1429-.0715.0714-.2142.1667-.0715.1905.0238.1666-.119.1667.0952.1667.0238.1666.0477.1667.0476.1191.119.0952.1429.1905.0476.0952.1429.119.1428.1191.1429-.0238.1904.0952.1429-.0238.1667.0714.1666-.0476.1667.0238.1667.0477.1666.0238.1667v.1667l-.0477.1666-.0714.1667.1191.1667-.0953.1666.0476.1667-.0238.1667.0238.1428-.1428-.0476-.1667.0238-.1666-.0238-.1667.0476-.1667-.0476-.1666.0476-.1667-.0238-.1667.0238-.1666.0238-.1667-.0476-.1667.1191-.1666-.1429-.1667.0714-.1667.0715-.119-.1191-.1429-.119.0714-.1667.0477-.1667-.1191-.1666.0953-.1667-.0239-.1667v-.3333l.0477-.1667-.1191-.1666.1429-.1667v-.1667l-.1191-.1666.0476-.1667-.119-.2619z" fill="#1f304c"/></svg>