<svg fill="none" height="34" viewBox="0 0 121 34" width="121" xmlns="http://www.w3.org/2000/svg" xmlns:xlink="http://www.w3.org/1999/xlink"><clipPath id="a"><path d="m0 0h120.872v34h-120.872z"/></clipPath><g clip-path="url(#a)" fill="#1f304c"><path d="m.12793 10.7849h7.47091l-.58693 22.3456h-6.720076z"/><path d="m18.8538.0952148-.1561 10.9019852c1.8638-.6098 3.5867-.9153 5.1685-.9163 2.0266-.0082 4.0024.6342 5.6367 1.8326 3.0398 2.1781 4.5592 5.3969 4.5581 9.6563 0 3.916-1.3154 6.9943-3.9462 9.2348-2.3019 1.9773-5.106 2.9659-8.4122 2.9659-2.7545-.0029-5.463-.7066-7.8705-2.0449-.7526-.4118-1.464-.8948-2.1245-1.4423.2987-1.1271.4397-2.5288.423-4.2053l-.2778-20.77063c-.0129-1.3537-.1387-2.70396-.3762-4.03673zm-.3122 17.1708852.0468 9.5393c1.0048.6392 2.17.9807 3.3609.985 1.9262 0 3.4352-.7592 4.5268-2.2775.7348-1.0178 1.1026-2.2708 1.1037-3.7589 0-1.8326-.5641-3.2266-1.6921-4.1819-1.027-.8756-2.3394-1.3443-3.6887-1.3175-1.2843.0185-2.542.3686-3.6511 1.0162z"/><path d="m48.1285 9.87013c2.1832-.00316 4.3208.62517 6.155 1.80917 3.6985 2.3498 5.5467 5.7414 5.5447 10.1746.0003 1.8125-.4276 3.5995-1.2488 5.2153-1.0942 2.2391-2.869 4.0746-5.0701 5.2433-1.81.9827-3.8396 1.4903-5.899 1.4752-3.6809 0-6.6467-1.3238-8.8977-3.9712-1.8212-2.1448-2.7312-4.6897-2.7302-7.6348 0-3.5383 1.2842-6.538 3.8526-8.9991 2.3186-2.2094 5.0831-3.31351 8.2935-3.31247zm-.0234 6.15497c-1.7691 0-3.1865.7129-4.2521 2.1386-.8773 1.2113-1.316 2.4934-1.316 3.8463-.015 1.4795.5208 2.9117 1.5033 4.018 1.0177 1.1749 2.2317 1.7618 3.6418 1.7608 1.152-.0022 2.2665-.4095 3.1485-1.1505 1.5808-1.2488 2.3717-2.8696 2.3727-4.8625 0-1.8482-.6499-3.3759-1.9497-4.5831-.846-.7773-1.8955-1.1665-3.1485-1.1676z"/><path d="m76.2765 12.3131-.025 5.4822-5.5447-.0468-.1405 5.3074-.0234 1.0349c0 1.0646.1645 1.8399.4933 2.3259.5474.7836 1.2602 1.1754 2.1386 1.1754.6733 0 1.5422-.2508 2.6068-.7524l1.7171 4.4411c-2.0199 1.4871-4.0325 2.2306-6.0379 2.2306s-3.736-.6655-5.1919-1.9965c-1.4257-1.3195-2.1297-2.8961-2.112-4.7298l.0234-9.1615-3.0065-.0936.0172-5.3542h3.0783l.0234-3.28905c.0291-1.75455-.026-3.01584-.1655-3.78384l6.7435.07024c0 .34498-.0234.90225-.0702 1.6687-.0156.26693-.0328.86167-.0484 1.78578l-.0937 3.59027z"/><path d="m93.2395 12.3131-.0234 5.4822-5.5446-.0468-.1405 5.3074-.0234 1.0349c0 1.0646.1644 1.8399.4932 2.3259.5464.7836 1.2587 1.1754 2.137 1.1754.6723 0 1.5418-.2508 2.6084-.7524l1.7171 4.4411c-2.0209 1.4871-4.0336 2.2306-6.0379 2.2306-2.022 0-3.7531-.6655-5.1934-1.9965s-2.1453-2.9055-2.1152-4.7236l.0235-9.1614-3.0065-.0937.0218-5.3604h3.0783l.0234-3.28905c.0313-1.75455-.0239-3.01584-.1654-3.78384l6.7435.07024c0 .34498-.0235.90225-.0703 1.6687-.0156.26641-.0312.86167-.0468 1.78578l-.0937 3.59027z"/><path d="m96.7814 11.8432c3.2256-1.1738 6.2096-1.7613 8.9506-1.7623 2.741-.0011 5.031.6233 6.868 1.8732 1.504 1.0333 2.35 2.5688 2.537 4.6065.032.32.048.6414.047.9631l.047 7.4007c.031 3.1802.548 5.6778 1.551 7.4927l-6.133 1.5751-.869-2.3041c-1.581 1.38-3.516 2.0694-5.804 2.0684-2.757 0-4.9338-1.0261-6.5312-3.0783-1.2363-1.5974-1.8545-3.3359-1.8545-5.2153 0-2.3186.8846-4.222 2.6537-5.7101 1.613-1.3622 3.587-2.0434 5.921-2.0434 1.519 0 3.148.3757 4.887 1.1271-.297-2.4123-1.754-3.6184-4.37-3.6184-2.146.0196-4.264.4758-6.2272 1.3409zm8.6936 10.1964c-.475-.0125-.947.0801-1.382.2712-.434.1911-.821.4759-1.133.834-.625.6879-.937 1.4315-.937 2.2307 0 .9262.384 1.7644 1.152 2.5147.308.3051.674.5452 1.076.7061s.833.2393 1.266.2305c.498.0089.991-.0916 1.446-.2944s.86-.503 1.186-.8794c.518-.5623.798-1.3038.78-2.0683 0-1.049-.337-1.9029-1.01-2.5616-.32-.319-.7-.5705-1.119-.7394-.419-.169-.868-.252-1.319-.2441z"/><path d="m7.60672 8.30292h-.44176c-5.50562 0-7.16496-3.07047-7.16496-3.07047v-5.23245s1.8529 1.77329 7.05257 1.77329h.55415z"/><path d="m120.173 11.6809c-.333.3353-.758.5639-1.222.6567-.463.0927-.944.0454-1.38-.1359-.437-.1813-.809-.4884-1.071-.8823-.261-.3938-.399-.8565-.396-1.3291 0-.39218.098-.77811.283-1.12362.186-.34552.454-.63995.78-.85723.327-.21728.702-.3507 1.092-.38845.391-.03775.784.02134 1.146.17203s.682.38833.93.69189.418.66366.494 1.04842.056.78226-.059 1.15746c-.114.3751-.319.7162-.597.9932zm-3.141-3.14388c-.193.18887-.346.41516-.448.66503-.103.24988-.154.51809-.15.78825-.004.2713.046.5408.148.7922.102.2513.255.4794.447.6705.191.1915.417.3435.667.4472.249.1037.516.1571.786.1571.271 0 .538-.0534.787-.1571.25-.1037.476-.2557.667-.4472.383-.3885.598-.9123.598-1.45801s-.215-1.06947-.598-1.45797c-.19-.19143-.417-.34335-.666-.44703-.249-.10367-.516-.15704-.786-.15704s-.537.05337-.786.15704c-.249.10368-.475.2556-.666.44703zm1.405.13268c.242-.01256.485.01972.715.09522.13.05218.24.14492.313.26444s.106.25945.093.39899c.007.10111-.013.20229-.058.29312-.045.09082-.113.168-.198.22357-.116.06816-.244.11176-.378.12796.089.0081.175.0351.253.0793.077.0441.145.1044.197.1767.088.1175.137.2592.142.4059v.192.1936c0 .0467.008.0931.023.1373l.016.0328h-.433v-.0265s0-.0188 0-.0297l-.009-.0843v-.206c0-.3029-.083-.5027-.247-.5995-.162-.0683-.339-.0971-.515-.0842h-.363v1.0302h-.461v-2.6209zm.498.41367c-.175-.07733-.367-.11106-.559-.09835h-.395v.94909h.419c.149.00693.298-.01263.44-.05776.083-.03035.153-.08687.201-.16098.047-.0741.07-.16173.063-.24956.01-.07312 0-.14767-.03-.21524s-.078-.12548-.139-.1672z"/></g></svg>