<svg fill="none" height="36" viewBox="0 0 213 36" width="213" xmlns="http://www.w3.org/2000/svg"><path clip-rule="evenodd" d="m37 5.55556c.7045.00864 1.3778.29237 1.876.79061.4983.49823.782 1.1715.7907 1.87605 0 .70725-.281 1.38553-.7811 1.88558-.5001.5001-1.1784.7811-1.8856.7811-.7073 0-1.3855-.281-1.8856-.7811-.5001-.50005-.7811-1.17833-.7811-1.88558.0087-.70455.2924-1.37782.7906-1.87605.4983-.49824 1.1715-.78197 1.8761-.79061zm-14.1111 7.22224v2h-12.3334v-2zm0 4.3333v2h-12.3334v-2zm119.2221-2.5555c-1.496.0492-2.914.6806-3.952 1.7598s-1.613 2.5208-1.603 4.0179h11.111c-.111-2.5555-1.778-5.7777-5.556-5.7777zm-124.8888 6.6666v2h-6.6667v-2zm71.3334-4.7778c-2.7778 0-4.3334 2.3334-4.3334 5 0 2.6667 1.5556 5.0001 4.3334 5.0001 2.7777 0 4.3333-2.3334 4.3333-5.0001 0-2.6666-1.5556-5-4.3333-5zm-19.6667 0c-.9466.0558-1.8436.4424-2.5341 1.0923s-1.1307 1.5218-1.2437 2.4633v3.2222c0 2.1111 1.8889 3.2223 3.7778 3.2223 2.5555 0 4.3333-2 4.3333-5.0001 0-3-1.7778-5-4.3333-5zm-45.5556-6.1111h-13.2222c-.26306-.0014-.52379.0493-.76711.1493s-.46438.2472-.65039.4332-.33328.4071-.43326.6504c-.09999.2433-.15072.5041-.14924.7671v11.7778c.00852.2747.0745.5445.19369.7921s.28895.4675.49832.6454c.20937.178.45372.3101.71728.3878.26356.0778.54051.0994.81291.0636h1.5556c.2836.0135.5605.0904.8105.225.2499.1346.4666.3235.6339.5528.4168.5111.9421.9231 1.5379 1.206s1.247.4297 1.9066.4297c.6595 0 1.3108-.1468 1.9065-.4297.5958-.2829 1.1211-.6949 1.5379-1.206.1674-.2293.384-.4182.634-.5528.2499-.1346.5269-.2115.8105-.225h1.7777c.2631.0015.5238-.0492.7671-.1492.2434-.1.4644-.2473.6504-.4333s.3333-.4071.4333-.6504.1507-.504.1492-.7671v-11.7778c-.0451-.5245-.2887-1.012-.681-1.363s-.9038-.5391-1.4301-.5259zm135.5557 10.6667c-2.445 0-4.222 1.5556-4.222 3.7778s1.666 3.7778 4.222 3.7778c.89.0483 1.779-.1183 2.591-.4857s1.524-.925 2.076-1.6254v-3.2223c-.54-.7208-1.247-1.2997-2.06-1.6868-.813-.3872-1.707-.5709-2.607-.5354zm-135.1112-13.33333c1.0849.01718 2.1207.45583 2.888 1.22312.7672.76729 1.2059 1.80301 1.2231 2.88801v14.1111c-.0172 1.085-.4559 2.1207-1.2231 2.888-.7673.7673-1.8031 1.2059-2.888 1.2231h-14.11115c-1.08497-.0172-2.1207-.4558-2.88799-1.2231s-1.20594-1.803-1.22312-2.888v-14.1111c.01718-1.085.45583-2.12072 1.22312-2.88801s1.80302-1.20594 2.88799-1.22312zm15.4444 5.11113v17.2222h-4.4444v-17.2222zm63.6668 0 3.555 5.3333 3.445-5.3333h5l-5.667 8.3333 6.111 8.8889h-5l-3.889-5.7778-3.888 5.7778h-5.0004l6.0004-8.8889-5.6671-8.3333zm85.778-6.55558v9.55558h.111c.53-.9887 1.314-1.8185 2.27-2.4043.957-.5858 2.053-.9065 3.174-.9291.786-.0487 1.574.0702 2.31.3489.737.2787 1.406.7108 1.963 1.2677.556.5568.989 1.2258 1.267 1.9623.279.7366.398 1.524.349 2.31v11.6667h-2.555v-10.8889c0-3-1.556-4.3333-3.778-4.3333-.668-.0048-1.329.125-1.945.3816s-1.174.6347-1.641 1.1118c-.467.477-.832 1.0433-1.075 1.6648-.243.6216-.359 1.2858-.339 1.9529v10.1111h-2.667v-23.77778zm-68.667 0v9.55558h.111c.53-.9887 1.314-1.8185 2.271-2.4043s2.052-.9065 3.174-.9291c.786-.0487 1.573.0702 2.31.3489.736.2787 1.405.7108 1.962 1.2677.557.5568.989 1.2258 1.268 1.9623.278.7366.397 1.524.348 2.31v11.6667h-2.666v-10.8889c0-3-1.556-4.3333-3.778-4.3333-.667-.0048-1.329.125-1.945.3816s-1.174.6347-1.641 1.1118c-.466.477-.832 1.0433-1.075 1.6648-.243.6216-.358 1.2858-.339 1.9529v10.1111h-2.667v-23.77778zm52 0v23.77778h-2.667v-23.77778zm-120 6.11108c1.5416.032 3.0094.6661 4.0893 1.7668 1.0798 1.1006 1.6859 2.5802 1.6885 4.1221v11.7778h-4.4445v-10.1111c0-.9135-.3629-1.7896-1.0088-2.4356-.646-.646-1.5221-1.0089-2.4356-1.0089s-1.7896.3629-2.4356 1.0089-1.0089 1.5221-1.0089 2.4356v10.1111h-4.4444v-17.2222h4.4444v3c.4939-1.0498 1.2816-1.9339 2.2676-2.5452s2.1281-.9237 3.288-.8993zm153.111 14.7778.778 2.3334.778-2.3334h.666v2.8889h-.444v-2.4444l-.889 2.4444h-.444l-.889-2.4444v2.4444h-.445v-2.8889zm-2.222 0c.271.0218.536.0974.778.2222l-.111.3334c-.21-.0905-.439-.1287-.667-.1111-.06-.0073-.122-.0011-.179.0181-.058.0192-.111.051-.154.093-.112.1111-.112.1111-.112.2222v.2222l.112.1111c.111 0 .222.1111.444.2223.222.1111.333.1111.444.2222.112.1111.223.1111.223.2222s.111.2222.111.3333c-.004.2061-.083.4037-.222.5556-.237.139-.504.2155-.778.2222-.265.0264-.532-.0118-.778-.1111v-.4444c.111.1111.222.1111.444.1111h.445c.222 0 .333 0 .444-.1111.111-.1112.111-.1112.111-.3334s0-.2222-.111-.2222-.222-.1111-.555-.2222c-.199-.0859-.386-.198-.556-.3334-.088-.1303-.127-.2878-.111-.4444.004-.2061.083-.4037.222-.5556 0-.1111.223-.2222.556-.2222zm-60.778-14.7778c5.111 0 8.111 4.1111 8.111 9.2223v.6666h-13.666c.017 1.6052.67 3.1379 1.816 4.2625 1.145 1.1246 2.689 1.7494 4.295 1.7375.975.0008 1.94-.1956 2.838-.5775.897-.3819 1.708-.9413 2.384-1.6447l1.222 1.7778c-.895.8735-1.956 1.5594-3.12 2.0173-1.164.458-2.407.6787-3.658.6494-5 0-8.666-3.6667-8.666-9.1112.111-4.8889 3.555-9 8.444-9zm17.556 0c3.555 0 6.555 1.6667 6.555 5.7778v11.8889h-2.666v-2c-.701.7776-1.558 1.3976-2.516 1.819-.957.4214-1.994.6346-3.04.6255-.763.0315-1.525-.0919-2.239-.3627-.714-.2707-1.366-.6833-1.916-1.2129-.55-.5295-.987-1.165-1.285-1.8681s-.451-1.4593-.449-2.223c0-3.8889 3-5.6667 5.889-5.6667 1.042-.0509 2.081.1323 3.043.5361.961.4038 1.82 1.0179 2.513 1.7972v-3.1111c0-2.3333-1.778-3.6666-4.334-3.6666-.996.0022-1.979.2222-2.881.6444-.902.4223-1.701 1.0366-2.341 1.8l-1.222-1.8889c.886-.931 1.956-1.6684 3.142-2.1656 1.185-.4971 2.461-.7434 3.747-.7233zm-71.1114 0c1.1936-.0435 2.3833.1595 3.495.5963 1.1116.4369 2.1213 1.0983 2.9658 1.9429.8446.8445 1.506 1.8542 1.9428 2.9658.4369 1.1117.6399 2.3014.5964 3.495.0542 1.2015-.1406 2.4012-.5722 3.5238s-1.0907 2.1438-1.9359 2.9994c-.8452.8557-1.8582 1.5273-2.9754 1.9726-1.1173.4454-2.3145.6549-3.5165.6154-5.5556 0-8.8889-4.1112-8.8889-9.1112-.046-1.1848.1515-2.3664.5805-3.4718s1.0802-2.111 1.9134-2.9546 1.8306-1.5073 2.9306-1.9499c1.1-.4427 2.2791-.655 3.4644-.6237zm-23.5556-6.11108v9.55558h.1111c.4445-1.0174 1.1743-1.8842 2.1011-2.4955s2.0109-.9409 3.1211-.949c4 0 7.4445 3.8889 7.4445 9.1111 0 5.7778-3.8889 9.0001-7.4445 9.0001-1.0905-.0316-2.152-.3583-3.0716-.9452-.9196-.587-1.6628-1.4123-2.1506-2.3882h-.1111v2.8889h-4.4445v-23.77778zm114.667 1.88889v4.66669h3.444v2.3333h-3.444v11.1111c0 1.3334.777 1.8889 1.666 1.8889.666-.0419 1.296-.3173 1.778-.7778l.778 2c-.864.7429-1.972 1.1388-3.111 1.1112-1.889 0-3.778-1.3334-3.778-4.3334v-11h-2.778v-2.3333h2.778v-4.66669z" fill="#1f304c" fill-rule="evenodd"/></svg>