<svg fill="none" height="36" viewBox="0 0 151 36" width="151" xmlns="http://www.w3.org/2000/svg" xmlns:xlink="http://www.w3.org/1999/xlink"><clipPath id="a"><path d="m0 0h150.112v36h-150.112z"/></clipPath><g clip-path="url(#a)" fill="#1f304c"><path d="m83.6372 26.1209v6.9489c-4.0186 1.9255-7.786 2.9302-11.6372 2.9302-10.4651 0-16.7442-6.0279-16.7442-13.5628 0-8.1209 7.2-14.90232 16.4093-14.90232 2.2605 0 4.0186.41861 5.7768 1.00465 1.3395.41861 2.093.83721 2.9302.83721.6698 0 .9209-1.17209 1.0046-1.84186h1.0047l.9209 9.37672h-1.2558c-.5023-1.8418-1.4232-3.3488-2.5953-4.4372-1.9256-1.8418-4.521-2.76277-7.4512-2.76277-6.3628 0-10.0465 4.77207-10.0465 12.05577 0 7.1163 4.5209 12.0559 10.4651 12.0559 1.7581 0 3.4326-.4187 5.3581-1.2559v-7.1162c0-2.3442-.4186-3.1814-3.7674-3.1814v-1.0884h12.6419v1.0884c-3.1814 0-3.014.9209-3.014 3.8511zm-34.8279-11.386v20.7628h-1.6744l-21.5163-21.4326c.0837.5861.0837 1.0884.0837 1.6744v13.0605c0 4.0186 0 5.5256 3.7675 5.5256v1.0883h-10.0465v-1.0883c3.7674 0 3.7674-1.7582 3.7674-5.5256v-14.986c0-2.2605 0-4.6047-4.0186-4.6047v-1.08837h9.4605l17.6651 17.58137c-.0838-.5023-.0837-.7535-.0837-1.4232v-9.5442c0-3.8512.0837-5.5256-3.6838-5.5256v-1.08837h10.0465v1.08837c-3.6 0-3.7674 1.507-3.7674 5.5256zm-48.8093 20.5116v-1.0884c2.42791 0 4.10233-.1674 4.10233-3.6v-17.7488c0-3.51628-1.33954-3.6-4.10233-3.6v-1.08837h14.1488v1.08837c-2.9302 0-4.1023.08372-4.1023 3.6v17.8326c0 3.3488 1.507 3.6 4.1023 3.6v1.0883h-14.1488z"/><path d="m150.028 24.3628c.084-.5861.084-1.0884.084-1.507-.168-.1674-.503-.2512-.67-.2512 0-.2511-.084-.6697 0-1.0046.167 0 .586.0837.586 0 0-.586-.084-1.0884-.168-1.4233-.167-.0837-.502-.1674-.753-.2511 0-.2512-.084-.5861-.167-.7535.251-.0837.502-.0837.669-.0837 0 0-.167-.8372-.251-1.2558-.167-.0838-.502-.0838-.67-.0838-.083-.1674-.167-.3348-.251-.6697.168-.0838.419-.0838.586-.1675-.167-.5023-.251-.6697-.502-.9209-.168 0-.419 0-.67 0-.084-.1674-.167-.3349-.167-.5861.083-.0837.251-.1674.418-.2511-.083-.2512-.251-.5861-.502-.7535-.167 0-.419.0837-.586 0-.084 0-.419-.3349-.251-.3349.084-.1674.251-.2511.418-.3349-.251-.3349-.418-.6697-.669-.8372-.168 0-.419 0-.586.0837 0 0-.168-.2511-.252-.3348-.251 0 .168-.5024.168-.5024-.251-.3348-.586-.6697-.921-1.0046-.168 0-.419.1674-.502.1674 0 0-.419-.2511-.419-.3349 0-.1674.419-.2511.419-.2511s-.67-.75351-1.172-1.00467c-.168.08372-.252.08372-.503.08372-.251-.25117-.67-.50233-.67-.50233s.252-.16744.252-.25116c-.503-.25116-.67-.50233-1.089-.75349-.418-.16744-.586-.50232-.753-.75349-.67-1.00465-1.507-2.51162-3.6-2.76279 0 0 .502.66977.753 1.08837 0 .08373 0 .08373-.418.08373-.252 0-.419 0-.67 0-.168-.25117-.251-.33489-.419-.58605-.167-.33488-.251-.50233-.502-.66977-.419-.25116-2.261.75349-3.935 1.08837.419.50233.753.75349.837.92093.503.50233 1.172 1.33954 1.591 1.92558.084-.08372.167-.16744.419-.25116 1.255-.16744 1.255-.50232 1.255-.50232s-.921-.75349-.251-.75349c0 0 .502.08372.67-.08372.502-.08372 1.088-.16744 1.339 0 .419.25116.587.66976.838.92093-.168 0-.419-.08372-.586-.08372-.586-.08372-1.172 0-1.591.08372 0 0 .753.66977.921.92093-.168-.08372-.754 0-.754 0-.251.08372-.669.16744-.753.16744-.251.08372-.586 0-.754.08372.419.16744 2.093.83721 2.931.83721.753 0 1.255-.08372 1.925-.33488.084-.08373.251-.16745.419-.08373.418.08373.586.16745.753.33489 2.512 1.50693 5.275 5.02323 6.112 6.94883.837 1.7581 1.339 3.7674 1.339 5.6093.084 2.5116-.753 4.9395-2.511 7.1163-.921 1.1721-2.763 2.2605-4.689 2.4279.587.6698.838 1.6744 1.173 2.5953 0 0 .669-.0837 1.088-.2511 0-.7535-.502-1.5907-.502-1.7582 0 0 .586-.3348 1.088-.3348.084.2511.419.7534.753 1.4232.419-.1674.67-.3349.921-.6698 0-.5023-.251-1.0046-.502-1.5907.67-.2511 1.088-.3348 1.088-.3348.168.2511.67.586.754.8372 0 0 .502-.5024.67-.921-.168-.3348-.503-.6697-.67-1.0046l.753-.8372s.503.3349.67.586c.251-.3349.586-.7535.67-1.2558-.502-.5023-.67-.5023-.754-.7535.168-.2511.252-.6697.503-.9209.251.0837.502.2512.67.3349.167-.3349.418-.921.418-1.3396-.167-.1674-.502-.2511-.67-.5023.084-.5023.168-.9209.168-.9209zm-14.902-18.33489-.586.33488-.754-.50233.837-.50232.921.66977zm3.432.92093-.418-.50233 1.088-.25116.502 1.5907zm-20.26-2.42791c0 .25116.083.58605.167.83721.502.25116 1.088.50232 1.088.50232.084-.25116-.083-.58604-.083-.8372-.168-.66977-.503-1.33954-.586-2.09303 0-.08372 0-.25116 0-.33488-.419-.16744-.754-.25116-1.256-.50233 0 0 0 .58605.167.83721.251.41861.503 1.1721.503 1.5907zm.418 2.26046c.084.16745.251.16745.503.25117.167.16744.418.25116.669.50232.419.33489.586.83721 1.089 1.1721.167.08372.251.16744.418.16744.084 0 .503.25116.586.33488 0-.75349-.251-1.33953-.502-1.67442 0-.08372-.084-.16744-.251-.25116-.251-.25116-.586-.58605-.67-.58605-.251-.25116-.502-.58604-.753-.83721-.252 0-.503.25117-.67.33489-.251.33488-.586.50232-.419.58604zm1.507 2.26047c-.083 0-.418-.08372-.753-.16744-.251 0-.503 0-.503 0 .084.25116.419.58604.503.75349 0 .08372 0 .33488.083.58609.168 0 .503.0837.67.1674.084 0 .67.0837.837.2512.168 0 .838.7534.921.8372.252.1674.586.3349.754.2511.167 0 0-.2511 0-.3349-.419-.586-.67-1.59065-.754-1.59065-.251-.08372-.502 0-.837-.16744-.167-.16745-.753-.50233-.921-.58605zm17.414 20.00934c.251.3348.168-.6698.084-.8372 0-.0838 0-.8373-.168-.8373-.083-.0837-.167-.3348-.251-.5023-.083.2512 0 .5023 0 .7535 0 .1674-.418.3349-.251.5023.168.0837.419.7535.586.921zm-33.656-26.37213c.67-.33488 1.842-1.00465 2.177-1.42326.084.16745 1.256.83721 1.758 1.08838.419.25116.754.33488 1.172.58604.168-.25116.419-.58604.586-1.17209.252.16744.67.16744.921.25116 0 .33489 0 .75349.084 1.08837 0 .16745.167.08373.586-.08372.586-.16744 1.172-.25116 1.423-.33488.67-.33488 1.089-1.08837 1.591-1.08837s1.34.25116 1.507.50232c.251.08372.502.16744.754.16744.418 0 .669-.33488.92-.58604-.837-.58605-1.841-1.088374-2.762-1.506978-.586.502325-.921.837208-1.256.837208-.251 0-.084-.586045-.084-.9209291-.251 0-.502 0-.753-.0837209-.168.669767-.252 1.50698-.754 1.67442-.167.08372-.251.08372-.418.08372 0-.08372 0-.66977 0-.75349s.418-.753487.251-.837208c0 0-.837.167442-1.089.251163-.083.083721-.669.334883-.753.334883 0 0-.251-.083721-.419-.083721-.251-.167441-.502-.167441-.753-.334883-.419 1.088376-.503 1.423256-.503 1.255816 0 0-1.339-.837212-1.841-1.423258-1.256.167442-1.256.334884-2.261.753488-.419.33488-.921.83721-1.339 1.42326-.168.33488-.419.58604-.586.92093l.92.33488c.335-.08372.838-.66977.921-.92093zm21.098 15.40463c.167.1675.251.5861.419 1.1721.083.3349.251.5023.502 1.0047.251-.1675.753-.0838.753-.0838 0-.5023-.251-.9209-.251-1.0046-.083-.1675-.418-.7535-.502-.9209.084 0 .419.3348.837.3348.084 0 .419.0838.586 0 0 0 .251.1675.251.3349.168.2512.168.5024.252.7535.167 0 .251 0 .418-.0837.419 0 .586-.0837.586-.0837-.084-.1675-.167-.3349-.167-.5861-.084-.1674-.251-.6697-.251-.6697l1.758-.2512c0-.2512-.084-.6698-.419-.8372-.837.2512-1.842.3349-2.511.3349-.921 0-1.926-.1675-3.266-.7535-.083.1674 0 .586 0 .586.586.5861.586.3349 1.005.7535zm-3.098-5.3581c.168.7535.503 1.6744.586 2.7628 0 .2511-.083.586 0 .8372l1.34.5023s-.167-1.0884-.419-2.4279c-.167-1.0884-.251-1.507-.586-1.9256-.167.0837-.251.0837-.502.0837-.251.0838-.419.1675-.419.1675zm14.4 3.8511c-1.255-1.1721-2.595-1.9255-3.935-1.9255-1.172 0-2.009.8372-2.009 1.6744 0 3.3488 1.34 5.5256 2.177 7.3674.251.5023.419.8372.419 1.3396.083 1.2558-.921 3.4325-1.591 4.6883-.084-.0837-.586-.1674-.921-.1674-.921 0-1.34.6698-1.507 1.1721-.251 0-.502-.1675-.754-.1675-1.172-.0837-2.093.921-2.093 2.0931s.252 1.8418.754 2.679h.921c-.084-.2511-.419-1.6744-.502-2.093-.084-.586.083-.9209.418-1.2558.419-.5861 1.34-.3349 1.34-.3349-.252.5023-.67 1.1721-.67 1.9256.084.5023.167 1.2558.502 1.6744h.754c.167-.586 0-1.0046 0-1.507 0-.2511 0-.586.083-.8372 0-.1674.503.3349.503.3349s.418-.5023.418-.8372c0-.2512-.586-.1674-.669-.5023-.084-.2512.167-.921.167-.921.586-.3348 1.088-.2511 1.256-.2511.251 0 .418.0837.753.0837.251 0 .419-.586.419-.8372.084.0837.419.2512.502.2512.251.0837.419.0837.67.1674.419.1674.754.3349 1.172.7535v-.0837c-.084-.3349.084-.8372-.167-1.0047 0 0-.503-.3349-.838-.586-.167-.1675-.502-.1675-.586-.3349-.083-.0837-.083-.1675-.083-.3349s.083-.5023.167-.5023c.168-.0837.251 0 .67.1674.419.1675.753.5023 1.088.6698 0 0 .084.1674.084.0837.419-.1674.419-.2512.419-.8372-.419-.5023 0-.5861-.586-.9209-.168 0-1.256-.3349-1.256-.3349 0-.1675.251-.6698.251-.6698.084-.0837.251-.0837.419.0837.586.3349.92.3349 1.506.5861.084-.2512.084-.5023-.083-.6698-.168-.2512-.503-.586-.67-.6698-.419-.0837-.586-.1674-.837-.2511 0-.2512-.084-.5861-.168-.9209 0-.1675.168-.0838.419-.0838.419-.0837 2.009.5024 2.009.5024 0-.3349-.083-.6698-.251-.8373-.167-.1674-.419-.3348-.837-.586-.67-.1674-1.256-.0837-1.758-.3349-.419-.3349-.503-.5023-.586-.8372.251-.0837.753-.1674 1.088-.1674.502 0 .754-.0838 1.34.0837.167.0837.837.6698 1.172.6698 0 0-.168-.7535-.419-1.0047-.251 0-.753-.586-.921-.6698-.921-.3348-1.172-.1674-1.758-.0837-.251.0837-.586 0-.837 0-.084-.1674.167-.5023.084-.6698 0-.0837-.419-.1674-.419-.3348 0 0 1.507-.1675 2.093-.0838.167.0838.753.5024.921.5024 0 0 .167-.6698-.084-1.2558-.502-.0838-.921 0-1.339-.0838-.419-.0837-.754 0-1.089 0-.251 0-.586-.0837-.837-.0837-.167-.2511-.251-.586-.251-.8372 0 0 2.428-.0837 2.595-.1674-.083-.0838-.251-.1675-.418-.3349-.419-.6698-.67-.7535-1.172-.7535-.252 0-.921.2512-1.34.1674 0-.7535.419-1.4232.921-1.4232 1.172 0 2.26.5023 3.265 1.507 2.428 2.4279 3.6 7.0325 3.6 10.2976 0 1.507-.167 2.9303-.419 4.0186.252.0838.503.0837.754.0837.251-1.0883.586-2.5953.586-4.0186-.167-4.9395-1.926-8.9581-4.019-11.2186zm-18.335-7.03252c-.083.08373-.167.25117-.167.33489-.167.25113-.502.50233-.251.75353.084.3348.084.7534.418 1.0046.252.2512.67.1675 1.089.5023 0 0-.251-1.2558-.502-1.7581-.252-.41861-.419-.58605-.587-.83722zm11.721 11.72092c-.083-.2511-.418-.3349-.586-.586 0 0-1.255-.5024-1.423-.5024-.167.0838.502.5024.586.6698.419.3349 1.34 1.2558 1.34 1.2558zm-9.041-6.1116c.251 0 .502.1674.669.1674 0-.2511-.083-.5023-.167-.7535-.084-.5023-.251-.7534-.419-1.0046 0-.2512 0-.5023-.083-.6698-.084 0-.168 0-.252-.0837-.251 0-.669-.0837-.669-.0837 0 .2511.083.7535.083 1.0046 0 .0838.419.921.503 1.0047 0 .1674.167.3349.335.4186zm16.576 15.1535c0-.0837-.251-.2512-.418-.2512 0-.0837-.084-.5023-.168-.586-.167-.0838-.167-.1675-.418-.1675 0 .0837 0 .1675-.084.3349 0 .1674-.167.2512-.084.5023.084.1675.168.1675.419.2512.084.0837.418.8372.502.9209.084 0 .084-.586.251-1.0046zm-7.283-5.107c.418-.2512.502-.8372.586-1.0884.083-.2511-.084-.8372-.168-1.0046-.251 0-.502-.1675-.67-.1675-.167 0-.251-.5023-.586-.3349.084.1675.252 1.0884.419 1.3396 0-.0837.419.586.419 1.2558zm10.214 8.0372s-.084.2512-.168.5023c-.167.5024-.251.6698-.251.921.251.1674.419.0837.753.0837.168 0 .419.0837.503.0837.167-.0837 0-.2512 0-.3349-.168-.0837-.586-.9209-.837-1.2558zm-16.159-13.8139s-1.172-.6698-1.339-.921c-.251 0-.251 0-.586.2512-.168 0-.251.0837-.419.2512.251.1674.419.2511.67.5023.084.0837.167.0837.502 0h.754c.167 0 .418.0837.418-.0837zm-2.595-2.0931c-.084-.1674-.251-.586-.419-.6697-.083-.1675-.167-.3349-.251-.5024-.083-.0837-.502 0-.669 0-.168 0-.252 0-.503.0838.168.1674.419.8372.503.8372.083.1674.083.2511.251.3349.502.0837.837 0 1.339.1674.251-.0837-.167-.0837-.251-.2512zm7.284 7.3675c0-.2512-.084-.5861-.251-.7535-.084-.2512-.168-.6698-.168-.8372-.084-.1675-.502-.7535-.67-1.0047-.167-.1674-.167-.6697-.251-.9209l-1.172.1674c.586.7535 1.089 1.507 1.34 2.2605.083.2512.921 3.0977.921 3.0977.251-.0837-.084-1.507 0-1.5907 0-.1675 0-.2512.251-.4186zm-3.768-3.2651c0-.8373-.167-.8373-.586-1.2559 0 0-.251.5861-.502.8373.419.3348.502.8372.502.8372.419-.2512.419-.1675.586-.4186zm13.396 12.8093s-.419 0-.503 0c-.167-.0838-.251-.0838-.418 0-.251.2511-.251.7534-.503 1.0046h1.173c.167-.1674.418-.2512.418-.6698 0 0 0-.2511-.167-.3348zm-12.224-10.7163s-.167-.3349-.167-.5023c-.084-.1675-.167-.5024-.502-.5861 0-.0837-.084.3349-.168.5861-.084.1674-.084.0837-.251.5023.167.2511.251.5023.502.7535 0 .0837.252.5023.252.5023s.418-.7535.418-.9209c-.084-.1675-.084-.2512-.084-.3349zm-18.167-8.3721c.251 0 .586-.2512.837-.3349.586-.1674 1.089-.3349 1.591-.5023.167-.0837.167-.2512.167-.5023.084-.1675.084-.1675.084-.5024 0-.0837-.419-.1674-.586-.586-.167-.2512 0-.5861-.084-.5861-.251.1675-.669.3349-.753 0-.084-.2511-.084-.6697.167-.7535.921-.3348 2.01-.3348 2.93 0 .168 0 .252.1675.252.3349.083.1675 0 .3349-.168.5861-.251.0837-.586-.2512-.586 0 0 .2511-.167.6697-.67.8372-.083.0837 0 .3349.084.6698 0 .0837 0 .2511.084.2511.418.0837.921.1675 1.256.3349.418.1674 1.088.7535 1.172.6698.251-.1675.418-.5024.586-.6698 1.088.5023 1.925.7535 3.265 1.5907.167 0 .167-.3349.167-.5861-.502-.2511-1.925-1.0046-2.093-1.0883-.418-.0837-.586-.2512-.921-.3349 0 0 0-.5023 0-.7535.67.1674 2.01.2512 3.349 1.0047.084-.2512.251-.5024.168-.5861-1.507-.7535-2.679-1.0046-3.6-1.0046 0-.0838-.168-.1675 0-.2512.251-.1674.418-.2512.502-.3349.251-.3349.502-.7535.586-1.0884.251-.586.586-.3348.754-1.59066-.252 0-.419.16744-.67.25117.083-.25117.167-.58605.167-.83721.084-.58605.251-.92093.251-1.5907.252-.08372.754-.33488.838-.75349 0-.08372 0-.33488.083-.75349 0-.58604.084-1.00465-.083-1.42325 0-.08372-.67-1.00465-1.173-1.33954-.669-.25116-.92-.16744-1.423-.08372-.586 0-1.339.58605-1.339 1.5907-.586 0-1.758.08372-2.428.66977-.586-.25117-1.089-.33489-1.507-.50233-.251 0-.586 0-.837 0-.084-.33488-.252-.75349-.67-1.00465-.503-.25116-1.089-.66977-1.758-.66977-.251 0-.586-.08372-.838.08372-.251.16745-.753.33489-.837.75349-.167.50233-.418.83721-.418 1.33954 0 .50232.251.83721.586 1.33953.083.16744.167.16744.418.25116.084 0 .503.16745.586.25117.084.08372-.083.33488-.083.92093 0 .50232 0 .50232.083.83721 0 .33488.084.75348.168 1.00465-.251 0-.503-.25117-.67-.08372 0 .16744.167.66979.419 1.00469.502.5023.921.9209 1.255 1.5069 0 .0838 0 .2512.084.2512-.67.0837-1.339.0837-2.009.2512-.586.1674-1.256.5023-1.842.7534 0 .3349.084.6698.084.6698.083 0 .921-.5023 1.758-.6698 1.256-.3348 1.925-.2511 1.925-.2511.084.1674.168.5023.084.586-1.172.5024-2.26 1.0047-3.349 1.6744.084.1675 0 .5024.168.6698.921-.586 2.26-1.1721 3.265-1.5907.418-.0837.418 0 .586 0 .167.2512.419.6698.586.6698zm6.112-1.3395c-.419-.0838-.67-.3349-1.172-.3349 0-.2512 0-.2512.083-.3349.586-.0837.837.0837 1.172.1674zm1.088-5.77679c-.084.16744-.251.25116-.502.33488-.084 0-.168.16744-.168.25116-.167.25117-.502.33489-.837.33489-.167 0-.586 0-.753-.33489 0 0 .083 1.08838.083 1.42325 0 .0837.084.0837.084.0837.419.0838.502.5024.67.6698 0 0 .083.0837.167.0837.419.2512 1.256.6698.837.6698 0 .1674-.251.6698-.418.6698-.251-.2512-.754-.5024-1.172-.6698-.084-.1675-.168-.3349-.251-.5861-.168-.1674-.252-.1674-.587-.3348 0-.66981-.083-.66981-.083-1.33958 0-.08372-.168-1.08837-.168-1.08837 0-.08372.251-.33488.586-.50233 0 0 1.842 0 2.679.08373 0 .08372-.083.25116-.167.25116zm-.586-3.93488c.251-.25117.67-.33489 1.088-.25117.503.08372.586.16744.754.33489.251.33488.167 1.08837.084 1.59069-.084.25117-.419.50233-.67.50233-.503-.58605-.921-.92093-1.591-1.08837-.167-.41861.167-.83721.335-1.08837zm-1.842 1.84186c.168 0 1.842.33488.754.8372-.168.16745-.67.08373-1.173.08373 0-.16745 0-.58605-.167-.58605-.167-.16744-.502-.16744-.502-.33488-.335-.33489.586-.08373 1.088 0zm-3.935.4186c.251-.16744.586-.33488.754-.33488.167-.08372.586-.16745.586 0 0 .33488-.251.58604-.586.92093-.168.25116-.251.08372-.754.08372-.084 0-.502 0-.502 0 .084-.33489.251-.41861.502-.66977zm-2.846.08372c-.168-.16744-.586-.50232-.754-.83721-.251-.33488-.167-.75349-.167-.83721.167-.58604.837-.75349 1.256-.83721.167 0 .418 0 .669.16745.419.16744.586.16744.754.8372 0 .08373 0 .16745-.084.16745 0 0-.586.33488-.753.58604-.503.25117-.67.75349-.921.75349zm1.59 4.77209c.168-.2512.586-.5023.838-.586.418-.0838.251-.83725.251-.92097.083-.16744 0-.50233 0-.66977-.168.08372-.168 0-.586.08372-.419 0-.586-.16744-.754-.33488-.167-.16745-.67-.58605-.837-.92093.502-.08372.837-.08372 1.34-.08372h1.255c.252.08372.503.25116.503.50232 0 .08372-.084.66977-.084.75349-.084.58605-.084.75349-.167 1.59074v.2511c-.084.1675-.503.2512-.67.5023-.084.2512-.084.5024-.419.5861-.251.0837-.502.3349-.67.2512-.251-.2512-.167-.7535 0-1.0047zm0 2.0093s.419-.0837.67-.0837c.168 0 .419 0 .586.0837-.084.0837-.502.2512-.502.2512-.168.0837-.251.1674-.586.2511 0-.0837-.168-.5023-.168-.5023zm10.047 4.5209c.251.3349.586.6698.837.921.084.1674.419.1674.586.1674h.921c.251-.0837.502-.0837.67-.2512-.419-.1674-.837-.3348-1.256-.586-.419-.1674-.67-.3349-.921-.6698-.167 0-.251.0838-.419.0838-.083.1674-.167.2511-.418.3348zm4.27 3.1814h.502c.167 0 .167-.3349 0-.3349-.67-.1674-1.256-.3348-1.591-.9209-.083.0837-.669.2512-.837.5023 0 0 .168.5024.67.921.167.1674.753 0 1.256-.1675zm12.976 13.6465c-.083.2512-.167.5024-.418.6698.084.0837.251.0837.418.0837h.921c.084-.0837.084-.3349.168-.586 0-.1675.083-.3349.083-.6698 0 0-.167 0-.586 0-.251 0-.502.1675-.586.5023zm-7.702-8.2883c-.084-.1675-.167-.5024-.251-.6698 0-.0837 0-.2512-.084-.586 0 0-.67.5023-.753.586.418.5023.167.7535.251 1.0884 0 .1674.418.2511.502.586 0 .0837-.167.921-.167.921.502-.6698.502-1.5907.502-1.9256zm5.023 5.0232c-.502 0-1.088.5861-1.423 2.3442-.084.6698-.167 1.2558-.084 1.5907l.838.0837c.167-.2511.167-.7535.418-1.0883 0-.1675.168-.1675.419-.1675.167.0837.586.5861.753.7535.084-.1674.251-.586.251-.8372 0-.0837-.251-.2512-.418-.2512-.251-.1674-.503-.3349-.837-.3349-.084-.3348.502-.8372.502-.8372.67 0 1.339.7535 1.339.7535.168-.0837.252-.3349.503-.586-.67-1.1721-1.675-1.4233-2.261-1.4233zm-7.702-6.6139c-.084.2511-.419.5023-.419.8372 0 0 .503.5023.586.7535.084.1674 0 1.0046.084 1.1721.251-.2512.503-.3349.503-.7535-.084-.0837-.168-.8372-.252-1.4233 0-.0837-.251-.3349-.502-.586zm-8.54-6.6977s.084.5023.252.9209c.083.1675.251.3349.418.3349.168.0837.586.1675.837.1675 0 0 0-.0838 0-.1675-.251-.2511-.669-.9209-.669-1.0884-.168-.0837-.168-.0837-.503-.0837-.083-.0837-.251-.0837-.335-.0837zm4.605 4.186c-.167-.1674-.418-.3348-.67-.586-.418-.0837-.586-.2512-.753-.6698-.084-.1674-.168-.3349-.419-.586-.167 0-.251.0837-.502.1674-.168.1675-.586.1675-.754.5024.084.1674.168.3348.419.586.084.0837.167.2512.586.5023.67.3349.837.5023.837.5023.586.0838 1.256-.4186 1.256-.4186zm-19.256-13.47902c.168-.25117.168-.25117.419-.50233.419-.25116.586-.50233 1.088-.83721.084-.16744.168-.08372.503-.25116.083-.08372.167-.16744.167-.25116 0-.16745-.084-.33489-.167-.58605-.084-.16744-.252-.66977-.252-.75349 0-.75349.084-.92093.168-1.5907-.419-.08372-.837-.08372-1.088.25117-.168.25116-.168.58604-.168.83721 0 .50232.084.8372.168 1.42325-.419.25116-.587.50233-.921.66977 0 .50232.083 1.5907.083 1.5907zm14.651 12.22322c-.418-.586-.502-1.0883-.502-1.1721-.167-.1674.168-.8372-.251-.8372-.167-.0837-.754-.2511-.754-.2511-.083.2511-.083.8372 0 1.0883 0 .2512.503 1.0884.67 1.1721.084.0838.586.0838.67.0838.084-.0838.167-.0838.167-.0838zm-3.013-3.4325c.167-.1675.418-.5861.418-.6698.168-.3349.168-.8372.168-1.1721-.754-.5023-1.759-.586-2.68-.586-.837 0-1.841.0837-2.762.7535.083.3348.167.6697.418 1.0046.084 0 .168.1674.251.1674.168-.1674.419-.5023.67-.586v.3349c0 .2511 0 .5023.084.7535 0 .2511.251.2511.67.2511.418 0 .502-.6697.502-.7535 0 0 .084.3349.67.6698 0 0 .67 0 .67-.0837.083-.5023.167-.5861.083-.9209 0 .0837.586.4186.838.8372zm3.767 6.0279c.419.2511 1.172.1674 1.842.0837-.419-.2512-.503-.5023-.67-.6698-.251-.1674-.502-.2511-.837-.6697-.419 0-.754 0-1.256 0 .167.5023.251.7535.921 1.2558zm5.609 3.4325c-.083-.0837-.251-.1674-.502-.2511v.3349c0 .3348.084.5023.084.6697 0 .1675.251 1.507.251 1.8419.502.0837.502.5023.753.6698 0 0-.167-1.0884-.167-2.5117.084-.0837-.168-.6697-.419-.7535zm-20.428-16.5767c.084-.0837 1.172-.83721 1.256-.92094.168-.16744.251-.08372.419-.25116 0-.58605.167-.58604.083-.75349-.083-.16744-.837 0-1.088 0-.502.08372-1.339.33489-1.339.58605-.084.25116-.084.92093-.084 1.00464.084.2512.084.5861.167.8372.335-.3349.419-.4186.586-.5023zm11.052 8.7907c-.252.1674-.503.2512-.503.5023 0 .3349.084.7535.084.9209 0 .2512 0 .5024.084.5861.251.0837.418.0837.753.2512 0 .0837.419.2511.419.2511s-.168-.8372-.251-1.2558c0-.5023 0-.9209 0-1.507-.335.0838-.503.2512-.586.2512zm-1.173.1674c-.418.0838-1.172.1675-1.172.5024-.083.2511 0 .586 0 .7534.084.1675.084.3349.084.6698 0 .1675-.084.3349 0 .6698.084-.1675.586-.3349.67-.5861.167-.2511.418-.5023.502-.7535.084-.3348 0-.8372-.084-1.2558zm3.684 5.107c-.251-.1674-.753-.7535-1.088-1.0046-.168-.1675-.084-.5024-.251-.6698-.168 0-.419 0-.586.0837-.252 0-.503 0-.754.0837.084.1675.084.3349.251.5024.419.3348.419.5023.754 1.0046.083.1675.586.2512.921.2512.251 0 .669-.1675.753-.2512zm-14.818-10.5488c.167-.2512.753-.8372 1.088-1.2558.167-.1675.586-.6698 1.507-1.0884.084-.3349.167-.6698.167-1.0047-.921.2512-1.59.5024-1.842.6698-.502.2512-.669.5023-1.172.7535 0 .586 0 .586.084.8372zm9.209 7.9535c.251-.2512 0-.7535 0-1.0047-.084-.2512 0-.586-.084-.8372-.084-.1674-.251-.2512-.502-.2512-.168 0-.67-.2511-.67-.0837-.502 0-.084.5023-.084.7535 0 .3349.921 1.3395.921 1.3395.168 0 .168-.0837.419.0838zm-2.595-1.507c.083-.3349.418-.5861.418-1.1721 0 0-.084-.5023-.167-.6698-.084-.1674-.168-.3349-.503-.586-.083 0-.251-.1675-.418-.0837 0 0-.084.7534-.168.8372.168.2511.419.5023.503.7535 0 .2511.167.6697.335.9209zm-2.01-2.8465c-.084-.1675-.418-.2512-.586-.3349-.167 0-.418.3349-.418.7535 0 .1674.083.8372.167 1.0884 0 .0837.167.1674.419.2511.251.1675.586.2512.837.5023 0 0-.251-.8372-.419-1.3395 0-.3349.168-.6698 0-.9209zm8.456 10.0465c.084 0 .167-.1675.167-.1675-.083-.3348-.167-.8372-.251-1.2558 0 0-.251-.1674-.586-.1674-.167 0-.418-.0837-.586 0 .084.2511.084.5023.168.7535.335.3349.753.586 1.088.8372zm-12.977-13.2279v.5023c0 .1674.084 1.2558.084 1.507.084.2511.084.586.167.8372.084.1674.168.3349.168.586 0 0 .167-.0837.251-.2511.251-.2512.419-.5861.586-.921-.084-.6697-.251-1.2558-.251-1.4232 0-.7535.084-.9209.167-1.4233-.251.0838-.753.3349-1.172.5861zm9.377 10.7163c.251-.0838.502-.2512.753-.3349.168-.0837.419-1.5907.419-1.5907s-.586.0837-.67.1674c-.083 0-.502 0-.669.1675 0 .2511 0 .586-.084.9209-.168.2512-.67.5023-.67.9209 0 0 .419.0837.502.0837.168-.0837.335-.2511.419-.3348zm10.298 9.293c-.168.3349-.419.7535-.419.9209h1.088c.252-.3349.419-.7535.168-1.3395-.251.1674-.837-.0837-.837.4186zm.837-4.2698c-.168-.0837-2.009-.9209-2.261-.9209-.586.0837-1.507.0837-2.093.3349-.083-.2512-.167-.7535 0-1.0047.084-.1674 1.089-.1674 1.34-.1674 1.088.0837 1.591.2511 1.926.2511.251.2512.586.2512.669.2512 0 0-.083-.586-.167-.7535-.419-.1674-.754-.2512-1.089-.3349-.502-.1674-.669-.2511-1.423-.3349-.251 0-.251.0838-.837.0838 0-.0838.084-.1675.167-.2512.168-.2512.419-.5023.586-.6698h1.507c.419.0838.587.1675 1.089.3349.251 0 0-.5023 0-.7535-.084-.0837-.168-.1674-.419-.2511-.418-.0838-.67-.1675-1.088-.3349-.251-.0837-.837-.2512-1.34-.1675-.502.1675-.502.0838-.837.2512-.502.6698-.753 1.4233-1.088 2.1767 0 .1675-.503 1.3396-.503 1.507 0 .0837-.083.2512-.083.2512-.419-.0837-2.093-.3349-2.596.0837-.167.1674-.418.3349-.669.9209-.419-.2511-.67-.3348-1.089-.3348-.502 0-1.088.2511-1.339.7534 0 .0838-.754 1.507-.67 2.7628.084.7535.419 1.0047.753 1.5907h1.089c-.084-.3349-.251-.8372-.503-1.4232-.083-.5024.084-1.3396.168-2.0931 0 0 .251-.1674.586-.2511.167-.1675.251-.0837.586-.0837.084 0 .084.0837.084.0837-.419.3349-.419.7535-.503 1.3395 0 .2512.419 1.6744.754 2.4279h.753s-.167-1.8418-.083-2.093c0-.3349.083-.6698.167-.9209.168.0837.419.0837.586.1674.251.1675.251.3349.251.6698 0 .5023 0 .586-.083.8372v.5023c0 .5023.083.8372.083.8372h.754c0-.8372.083-.7535.167-1.2558.084-.3349 0-.586.084-.8372 0-.1674.084-.3349.167-.5023.252-.1675.503-.1675.838-.0837 0 .2511 0 .586-.084.8372-.084.5023-.168.9209-.419 1.4232 0 .0837-.083.2512-.167.3349h1.172s.167-.3349.251-.8372c.251.2512.67.0837.837.0837.251-.0837.503-.3349.67-.586-.419-.2512-1.256-.1675-1.256-.5861-.167-.6697 0-.7535 0-1.0883 0-.5861-.586-.7535-1.172-.8373-.167-.0837-.586-.0837-.753-.0837-.168.0837-.419.3349-.586.3349 0 0-.419-.2512-.67-.3349-.168 0-.754-.1674-.754-.1674.084-.1675.168-.3349.252-.5023.083-.0838.418-.3349.502-.3349.167-.0837.502 0 .67.0837.502.0837.837.1674.921.1674.083 0 .418.1675.418.1675.251-.1675.251-.3349.502-.3349.587-.1674.754-.2512 1.34-.2512.502 0 .837.8372 1.172 1.0884.084.1674.754 1.0047 1.172 1.7581.168-.0837.251-.2511.503-.2511 0-.1675-.084-.9209-.168-1.0047-.251-.8372-.837-1.0046-.837-1.2558.167 0 .586.1675.753.1675.168.0837.503.1674.754.3348.084.0838.251.1675.418.2512.084.3349.084.6698.252 1.0047 0 .0837 0 .1674.083.2511.251-.586.586-.6698.754-1.0884 0-.6697-.503-1.0883-.921-1.3395zm-12.14-7.3674c0-.0838-.251-.0838-.502-.0838-.167 0-.419.0838-.586.0838-.167.2511-.251.586-.419.9209-.083.2512-.251.5023-.418.6698 0 0 .837-.1675 1.088-.1675.251-.1674.502-.2511.67-.6697.167-.2512.251-.4186.167-.7535zm-7.451-3.2651s.251-.1675.251-.3349c.503-.5861 1.089-1.0047 1.172-1.0884-.167-.5023-.251-.586-.586-.8372-.083.0837-.586.3349-.669.586-.168.0838-.419.1675-.503.2512 0 .1674.084.2512.168.5023 0 .0837.167.5024.167.921zm9.879 8.8744c-.083-.0837-.083-.2512-.167-.5024-.168-.586-.084-.8372-.168-1.4232 0 0-.586 0-.753 0-.168.0837-.251 0-.502.0837 0 .3349.083.6698.418 1.0884.251.6698 1.172.7535 1.172.7535zm-5.107-6.8651c-.167 0-.251 0-.586 0 0 0-.167.7534-.167 1.3395-.084.2512-.168.5023-.168.586-.167.3349-.251.5024-.502.921.251.0837.586-.0838.754-.0838.167-.0837.502-.1674.586-.2511.083-.0837.418-.7535.502-.9209 0-.2512 0-.5861 0-.6698-.084-.1675 0-.5861 0-.8372-.168-.2512-.335-.1675-.419-.0837zm-3.683-.4186c.167-.2512.753-.8373.92-1.0047-.167-.1674-.251-.5023-.418-.6698-.419 0-1.842.5861-1.842.5861.251.5023.502.9209.67 1.507.335-.1675.502-.2512.67-.4186zm1.172 2.1767c.083-.2512 0-.5023.083-.7535 0-.1674 0-.6698.084-.9209-.167-.0837-.586.0837-.837.0837s-.921 0-.921.0837c.084.1675.084.3349.167.5861.084.1674.168.3348.168.8372 0 .2511.084.586 0 .9209 0 0 1.256-.6698 1.256-.8372zm2.176 2.5953c-.502-.3348-1.255-.7534-2.428-1.0883-.251-.0837-.92 0-1.255 0-.754 1.3395-1.089 2.5116-1.591 3.9349-.084.2511-.251.8372-.251.8372-.503-.2512-.9211-.5024-1.4234-.5024-.7535 0-1.3396.2512-1.5907 1.0047-.2512-.0837-.6698-.2512-1.1721-.1675-.6698.0838-1.2558.5024-1.507 1.0047-.2512.3349-.4186.7535-.2512 1.0884-.5023.1674-.7535.6697-.9209 1.0046-.1674.7535.5023 2.093.7535 2.3442h.9209c-.1674-.8372-.586-1.2558-.2511-2.093.1674-.5023.8372-.6698 1.0883-.7535 0-.3349-.5023-.6698-.4186-1.0047.1675-.5023.7535-.5023 1.3396-.3348-.0838.586-.1675 1.3395-.2512 2.093-.0837.8372.4186 2.1767.4186 2.1767h.9209.0838c-.0838-.2511-.1675-.586-.1675-.8372-.0837-.2511-.0837-.5023-.0837-.7535.0837-.3349.0837-.7535.0837-1.0046.9209-.5023.6698.1674.8372.3349 0 0 .4186-.8372-.0837-1.1721-.0837-.0838-.6698 0-.6698-.0838 0-.0837.0838-.3348.1675-.6697.1674-.3349.2511-.5023.5023-.7535.0837-.0837.4186-.0837.7535 0 .0837 0 .5861.0837.8371.1674-.084.2512-.5022.8372-.5859 1.0884-.4186 1.0884-.4187 2.4279-.2512 3.6h1.0881c0-.6698-.083-1.4233 0-2.093.168-.8372.503-.9209.586-.9209.168 0 .419.1674.503.3348.167.921-.419 1.7582-.419 2.5954h.754s.251-.0837.418-.3349c.168-.586.586-1.0884.67-1.6744.084-.5023-.084-.8372-.419-1.4233-.251-.3349-.586-.6697-1.256-1.0883-.167-.3349 0-.8373 0-.8373 0 .0838.419-.0837.587-.0837.753.1675.92.1675 1.339.3349.251.0837.67.2512.921.5023.251.1675.586.7535.837 1.4233 0 0 .168-1.1721.168-1.5907-.419-.3349-.754-.7535-1.34-1.0047-.502-.3348-1.507-.6697-2.009-.8372 0 0 .167-.2511.167-.5023.586-.0837 1.256-.0837 1.507 0 .921.2512 2.093.8372 2.596 1.2558 0 0 .167-.3349.167-.586 0 0-1.34-.8372-1.256-1.0884-.418-.2512-.67-.586-1.088-.6698-.586-.0837-1.758-.1674-1.758-.1674s.251-.3349.586-.6698h.753c.419 0 1.34.2512 1.926.5861.837.3349 1.339.6697 1.423.8372.084-.2512.167-.6698.251-.8372-.921-.4186-.837-.7535-1.256-.921zm-1.674 7.6186c-.67 0-.502 1.0047-.67 1.507-.084.0837-.167.2512-.084.3349h1.424s.083-.8372.083-1.0046c-.083-.1675-.418-.6698-.753-.8373z"/></g></svg>