<svg fill="none" height="30" viewBox="0 0 141 30" width="141" xmlns="http://www.w3.org/2000/svg" xmlns:xlink="http://www.w3.org/1999/xlink"><clipPath id="a"><path d="m0 0h141v30h-141z"/></clipPath><g clip-path="url(#a)"><path d="m106.892 10.599c-.069 0-.069 0-.069-.069h-.067c-.138-.069-.278-.069-.414-.069h-2.702c-.831 0-1.385.693-1.385 1.3163v.1387c0 .2078-.208.4155-.416.4155-.139 0-.208-.069-.278-.1387l-.067-.069c-1.317-1.593-3.5342-1.8705-4.3652-1.9395h-.2078c-5.6115 0-9.975 4.155-9.975 9.834 0 5.6805 4.9178 9.63 9.7673 9.63.4852 0 3.3257 0 4.7797-1.8023l.07-.0675c.069-.0705.208-.1402.277-.1402.207 0 .415.2077.415.4155v.138c0 .6937.555 1.317 1.385 1.317h2.701c.139 0 .277 0 .416-.0698h.138c.225-.1124.419-.2787.564-.4842s.237-.4437.267-.6933v-16.485c-.03-.2496-.122-.4877-.267-.6932-.145-.2054-.338-.3718-.563-.4843zm-9.491 14.1323c-2.6325 0-4.7797-2.1473-4.7797-4.7798s2.1472-4.7797 4.7797-4.7797c2.633 0 4.78 2.145 4.78 4.7775s-2.145 4.779-4.7777 4.779zm24.247-13.0238v2.5635c-.139.6923-.693 1.1775-1.385 1.1775h-.416c-2.01 0-4.85 1.731-4.85 5.1255v7.551c0 .762-.622 1.3853-1.385 1.3853h-2.701c-.367-.0018-.718-.1484-.977-.4079s-.405-.6108-.406-.9774v-16.35c.069-.555.347-.9697.831-1.1775l.139-.069c.138-.069.278-.069.415-.069h2.702c.831 0 1.386.6225 1.386 1.3163v.141c0 .2077.207.4155.415.4155.069 0 .208-.0675.277-.138l.07-.069c1.661-1.8015 3.809-1.8015 4.432-1.8015h.138c.693 0 1.316.6225 1.316 1.386zm-34.084-.9c-.2078 5.3325-3.4635 9.1425-9.4905 9.1425h-.1387c-.1388 0-.4156.1395-.4156.4163v1.455c0 .2077-.1425.3465-.3495.3465-.069 0-.1387 0-.2077-.069l-.0697-.069-3.6023-3.9488c-.207-.2077-.2775-.4155-.2775-.693s.0705-.555.2775-.762l3.6727-3.672c.0314-.0329.0691-.0592.1108-.0771.0418-.0179.0868-.0272.1322-.0272.0455 0 .0905.0093.1323.0272.0417.0179.0794.0442.1107.0771.069.069.0691.1388.0691.2078v1.3822s-.0691.1388.0689.2775c.0676.069.138.1388.2776.1388.9674 0 1.6612-.4155 2.4225-1.1775l.1395-.1388c.6915-.762 1.1774-1.8015 1.2449-2.91 0-2.6325-2.1465-4.779-4.7789-4.779-2.6325 0-4.7805 2.148-4.7805 4.7805v13.9245c0 2.565-1.9388 4.71-4.5023 4.92h-.3465c-.2077 0-.4155-.0675-.555-.2077 0-.069-.0675-.069-.0675-.069l-.1395-.1373c-.1403-.2077-.2775-.4155-.2775-.693v-17.6655c.0037-6.165 4.7827-10.8075 10.674-10.8075 6.027 0 10.668 4.8495 10.668 10.8075zm52.234 18.7035h-2.633c-1.593 0-2.979-.6225-4.018-1.9395l-3.672-4.7797-.068-.072c-.069-.069-.139-.069-.208-.069-.208 0-.347.1387-.347.3465v5.0572c-.001.3671-.147.7189-.406.9784-.26.2595-.612.4055-.979.4061h-3.188c-.366-.0012-.718-.1475-.977-.4071-.26-.2595-.406-.6112-.407-.9781v-25.4213c0-.762.623-1.38525 1.385-1.38525h3.188c.367.00079.719.14702.978.40665.26.25964.406.61152.406.9786v13.578c0 .2078.139.3465.347.3465.069 0 .139 0 .208-.069l3.117-4.0177c.968-1.2473 2.423-1.9395 4.015-1.9395h2.355c.622 0 .97.765.623 1.2502l-5.126 6.6503c-.139.2775-.345.624-.345.9705s.206.693.345.9l6.097 7.8975c.345.4845.001 1.3155-.693 1.3155zm-105.2305-8.9362c0 1.6627.0697 4.71-1.8697 6.6502-1.455 1.455-3.6023 2.4938-7.2751 2.4938h-.1372c-3.6712 0-5.82-.9698-7.275-2.4938-1.9387-1.9395-1.8697-4.8495-1.8697-6.72v-8.6587c0-.762.6262-1.3853 1.3874-1.3853h3.1178c.762 0 1.3852.6225 1.3852 1.3853v6.72c0 1.0379.1395 2.424.2085 3.4627.0698.1388.0698.2078.0698.3465v.1388c.3465 1.3822 1.455 2.4225 2.91 2.49h.2775c1.455-.138 2.6325-1.1078 2.9078-2.493v-.1395c.0674-.138.0675-.207.0675-.345.1395-1.0403.2085-2.4255.2085-3.465v-6.7185c0-.762.6225-1.3853 1.3852-1.3853h3.1178c.7619 0 1.3852.6225 1.3852 1.3853v8.1075c.0023.207.0023.4147.0023.6225zm16.6965 2.286c0 .3495 0 .6262-.069.9727-.1387 1.524-.831 2.8403-1.8015 3.9488-1.524 1.3852-3.9488 2.286-6.3038 2.217h-.5549c-2.2853-.1388-4.2248-.831-6.0263-1.6628-.2775-.1387-.6225-.4852-.762-.9-.069-.3472-.069-.7627.1388-1.11.2775-.4147.6225-1.1077.9-1.5922.2085-.4853.6937-.6225.9704-.6225.21 0 .4186.0675.5551.138 1.3874.6225 3.255 1.245 5.265 1.245.21-.0675.8324-.1373 1.2494-.414.3465-.2775.555-.762.555-1.1775s-.0697-.762-.3472-1.1085c-.1561-.2193-.3723-.3886-.6225-.4875-.069-.0675-.069-.0675-.1387-.0675-.2078-.0675-.4155-.0675-.693-.1388-1.0063-.1355-2.0014-.3435-2.9776-.6225-2.148-.624-4.0874-2.7022-4.0874-5.3347 0-4.2255 3.7402-6.37355 8.1045-6.3038 1.5922 0 3.255.3465 4.71.762.2775.069.6224.3465.8324.762.0675.2775.2063.6915-.0704 1.1775l-.0691.1373c-.2258.499-.48.9848-.7612 1.455-.1402.2077-.417.693-1.11.693-.2078 0-.4155-.0705-.6225-.1403-.8325-.2775-2.01-.6225-3.603-.555 0 0-.3465.0705-.762.21h-.1387c-.1381 0-.2071.069-.2775.1388-.5528.4852-.6915 1.3852-.2063 1.9395.0543.1241.1534.2232.2775.2775.5535.4162 1.455.555 2.0775.6225.1387 0 .2775.0705.4155.0705.969.2077 1.8697.4154 2.6325.762l.4147.2077c1.7325.969 2.7713 2.7015 2.9101 4.5023zm12.885-10.9425v1.9387c0 .4853-.1387.9-.6225 1.2473-.2775.2077-.624.2775-.9015.2775h-1.3853c-.146-.0019-.2909.0256-.4261.0806-.1353.055-.2582.1365-.3614.2397-.1033.1032-.1849.2261-.24.3613-.0552.1352-.0827.2801-.0809.4261v11.358c0 .7628-.3465 1.6635-1.6628 1.6635h-2.7015c-1.1085 0-1.6628-.555-1.6628-1.6627v-11.358c.0019-.1462-.0256-.2913-.0808-.4267-.0551-.1355-.1368-.2584-.2403-.3618-.1035-.1033-.2266-.1848-.362-.2398-.1355-.055-.2807-.0823-.4269-.0802-.345-.069-.7634-.2078-1.0402-.555-.2077-.2775-.2775-.6225-.2775-.9v-2.0775c0-.4163.2085-.8325.555-1.11.2775-.207.6225-.276.9-.276h.0697c.5535 0 1.0381-.48605 1.0381-1.11005v-3.396c0-.762.6225-1.38525 1.386-1.38525h3.1875c.367.00079.7188.14702.9783.40665.2595.25964.4056.61152.4062.9786v3.4635c0 .62255.4852 1.11005 1.1084 1.11005h1.455c.7621 0 1.3853.6225 1.3853 1.3845zm-50.0175-9.77105v19.74305c0 4.9185-3.4628 7.8975-7.55025 7.8975-1.8015 0-5.6115-.9698-6.51225-3.8798-.069-.138-.069-.3457-.069-.483v-.0697c0-.4155.3465-.762.831-.762.069 0 .20775.072.2775.072h.069c.48525.2077 1.24725.4852 2.14725.4852h.069c.069 0 4.77975-.0675 4.77975-5.0565v-13.9965c0-2.6325 2.01-4.71 4.572-4.9185h.345c.2085 0 .4163.069.6225.20775.2798.20775.3495.48525.4185.762z" fill="#1f304c"/></g></svg>