<svg fill="none" height="46" viewBox="0 0 199 46" width="199" xmlns="http://www.w3.org/2000/svg" xmlns:xlink="http://www.w3.org/1999/xlink"><clipPath id="a"><path d="m0 0h198.618v46h-198.618z"/></clipPath><g clip-path="url(#a)" fill="#1f304c"><path d="m42.647 11.21h4.0598v23.9613h-4.0598z"/><path d="m52.1412 15.5955c1.3163 0 2.3834-1.0671 2.3834-2.3835 0-1.3163-1.0671-2.3834-2.3834-2.3834s-2.3834 1.0671-2.3834 2.3834c0 1.3164 1.0671 2.3835 2.3834 2.3835z"/><path d="m50.0913 18.5271h4.0995v16.6442h-4.0995zm14.8487-.4211c-4.6397 0-8.4055 3.2653-8.4055 8.4452 0 5.18 3.2653 8.3659 8.4452 8.3659 2.0498 0 4.2266 1.0487 4.2266 3.3447s-1.8431 3.599-4.2266 3.599c-2.3834 0-4.3457-1.4222-4.3457-3.599h-4.0995c0 4.4729 3.599 7.4442 8.4452 7.4442 4.8066 0 8.3182-2.8442 8.3182-7.4442 0-2.1292-.6674-4.1392-3.4322-5.5216 2.7171-1.2553 3.5116-4.1392 3.5116-6.2287.008-5.1402-3.7976-8.4055-8.4373-8.4055zm.0397 13.4266c-2.3834 0-4.3457-2.0497-4.3457-4.9734 0-2.884 1.9623-5.0211 4.3457-5.0211 2.3835 0 4.3061 2.1769 4.3061 5.0211 0 2.8839-1.9624 4.9734-4.3061 4.9734zm20.2829-13.4266c-1.8829 0-3.6784.5879-5.1879 2.4708v-9.4066h-4.0995v23.9614h4.0995v-8.4532c0-2.4709 1.6764-4.5127 4.0995-4.5127 2.1769 0 3.7658 1.295 3.7658 4.3061v8.6518h4.0995v-8.9458c.0318-4.8939-2.0577-8.0718-6.7769-8.0718zm16.7634 14.2211c-.5 0-.922-.1669-1.168-.5005-.246-.3337-.373-.8342-.373-1.589v-8.199h3.305l.373-3.5513h-3.639v-4.5602l-4.1387.4607v4.1393h-3.1382v3.5513h3.1382v8.2784c0 1.716.421 3.011 1.2155 3.885.7945.8739 2.01 1.3347 3.5512 1.3347.707 0 1.382-.0874 2.09-.294.707-.2066 1.334-.5005 1.882-.8819l-1.422-2.6376c-.548.3972-1.128.5641-1.676.5641zm16.851-6.1095c-1.677-1.0487-3.639-1.1679-5.562-1.295-1.128-.0874-2.844-.3337-2.844-1.7955 0-1.0487 1.089-1.6287 3.051-1.6287 1.589 0 2.971.3734 4.139 1.4618l2.296-2.6774c-1.922-1.6763-3.885-2.1768-6.522-2.1768-3.051 0-7.063 1.3347-7.063 5.1879 0 1.5889.834 3.0508 2.216 3.885 1.55.9613 3.552 1.0884 5.268 1.295 1.168.1271 3.09.421 2.757 2.0497-.207 1.1282-1.589 1.4618-2.551 1.5016-1.048.0397-2.089-.0398-3.138-.294-1.088-.2939-1.962-.7945-2.924-1.4221l-2.089 2.6377c.127.0874.254.2065.254.2065 2.678 2.2166 6.396 2.9237 9.788 2.1769 2.55-.5879 4.727-2.4232 4.727-5.1879.08-1.5413-.421-3.0826-1.803-3.9247zm13.506-8.1116c-1.883 0-4.1.7945-5.395 2.6376l-.127-2.2563h-3.972v23.9614l4.099-.4608v-8.7869c1.168 1.7955 3.719 2.3834 5.474 2.3834 5.307 0 8.406-3.9724 8.406-8.7789.008-4.894-3.385-8.6995-8.485-8.6995zm-.334 13.9271c-2.804 0-4.679-2.5502-4.679-5.1402s1.756-5.3548 4.679-5.3548c2.971 0 4.68 2.8045 4.68 5.3548.047 2.59-1.875 5.1402-4.68 5.1402zm14.174-3.7261c.46 1.9624 2.256 3.6784 5.187 3.6784 1.502 0 3.512-.7547 4.473-1.716l2.638 2.59c-1.756 1.7955-4.64 2.6773-7.15 2.6773-5.188 0-8.946-3.4321-8.946-8.7392 0-5.021 3.885-8.6995 8.652-8.6995 5.021 0 9.2 3.4322 8.779 10.2011zm9.66-3.1302c-.46-1.9623-2.423-3.6784-4.806-3.6784-2.217 0-4.267 1.5015-4.854 3.6784zm9.327 3.1302c.461 1.9624 2.257 3.6784 5.188 3.6784 1.502 0 3.512-.7547 4.473-1.716l2.638 2.59c-1.756 1.7955-4.64 2.6773-7.15 2.6773-5.188 0-8.946-3.4321-8.946-8.7392 0-5.021 3.885-8.6995 8.652-8.6995 5.021 0 9.2 3.4322 8.779 10.2011zm9.701-3.1302c-.461-1.9623-2.423-3.6784-4.807-3.6784-2.216 0-4.266 1.5015-4.854 3.6784zm13.84 10.4076c1.883 0 4.099-.7945 5.394-2.6376l.127 2.2165h3.973v-23.9533h-4.1v9.2794c-1.168-1.7955-3.766-2.3437-5.521-2.3437-5.307 0-8.366 3.9327-8.366 8.7789 0 4.8463 3.392 8.6598 8.493 8.6598zm.294-13.9192c2.804 0 4.679 2.5503 4.679 5.1403s-1.756 5.3547-4.679 5.3547c-2.972 0-4.68-2.8045-4.68-5.3547-.008-2.59 1.875-5.1403 4.68-5.1403z"/><path d="m15.4284.381348 2.0895 3.638682c.4211.75475.4211 1.67634 0 2.42315l-12.45736 21.61762 5.89496 10.201c.9216 1.589 2.6377 2.59 4.4729 2.59 1.8353 0 3.5513-1.001 4.4729-2.59l5.895-10.201-1.5492-2.7568-6.6895 11.5834c-.4211.7547-1.2553 1.2155-2.0895 1.2155-.8818 0-1.6763-.4608-2.0894-1.2155l-5.14027-8.8266 11.58347-20.0684 2.0894 3.6387c.4211.7547.4211 1.6763 0 2.4231l-8.0718 14.0066 1.5889 2.7568 8.7789-15.2221 5.7679 9.9945c.8819 1.5492.8819 3.4321 0 4.9734l-5.8552 10.1613c-.8819 1.5492-3.6785 5.0211-8.6995 5.0211-5.0211 0-7.77792-3.4719-8.69951-5.0211l-5.839376-10.1534c-.88186542-1.5492-.88186542-3.4321 0-4.9813z"/></g></svg>