<svg fill="none" height="34" viewBox="0 0 197 34" width="197" xmlns="http://www.w3.org/2000/svg" xmlns:xlink="http://www.w3.org/1999/xlink"><clipPath id="a"><path d="m0 0h196.305v34h-196.305z"/></clipPath><g clip-path="url(#a)" fill="#1f304c"><path d="m42.4292 33.6817-.8334-.125-.6566-.1768-.4767-.1799-.4604-.2318-.4329-.2886-.4056-.3476-.248-.2683-.2368-.3018-.3191-.5123-.2714-.5915-.2215-.6738-.1606-.7674-.1037-.8639-.0345-.9635v-1.1281l-.0021-.4035v-.809l-.004-.4015v-.4034l-.0041-.4015-.0041-.4004-.005-.4005-.0041-.3974-.0061-.3943-.0061-.3954-.0081-.3933-.0082-.3893-.0081-.3902-.0081-.3873-.0143-.3811-.0081-.3811-.0101-.3791-.0143-.3761-.0142-.373-.0142-.3689-.0163-.3649-.0163-.3618-.0172-.3598-.0163-.3567-.0203-.3486-.0193-.3476-.0204-.3435-.0233-.3395-.0193-.3354-.0265-.3283-.0244-.3262-.0244-.3181-.0244-.3181-.0294-.307-.0295-.3069-.0274-.2988-.0305-.2958-.0326-.2876-.0335-.2846-.0325-.2774-.0325-.2704-.0387-.2683-.0355-.2602-.0376-.251-.0387-.249-.0416-.24089-.0376-.23478-.0448-.22664-.0406-.22156-.0468-.21547-.0447-.20733-.0457-.20226-.0478-.19615-.0477-.18498-.0488-.17989-.0529-.17481-.0518-.16566-.0539-.15754-.0528-.15245-.0559-.1433-.0559-.13518-.058-.13009-.0579-.12196-.063-.11383-.06-.10468-.062-.09961-.064-.09147-.063-.08232-.0671-.07521-.0691-.06606-.0651-.05793-.0691-.05285-.0721-.04371-.0722-.03658-.0732-.02745-.0731-.01931-.0773-.01321-.0762-.00305h4.8256l.0793.00305.0742.01321.0752.01931.0752.02745.0691.03658.0732.04371.0681.05285.0681.05793.0691.06606.0661.07521.063.08232.065.09147.061.09961.062.10468.0579.11383.061.12196.0569.13009.0569.13518.0559.1433.0539.15245.0518.15754.0529.16566.0508.17481.0488.17989.0508.18498.0468.19615.0477.20226.0447.20733.0417.21547.0457.22156.0417.22664.0407.23478.0386.24089.0417.249.0355.251.0356.2602.0356.2683.0355.2704.0326.2774.0335.2846.0305.2876.0315.2958.0275.2988.0304.3069.0275.307.0254.3181.0254.3181.0254.3262.0224.3283.0213.3354.0254.3395.0193.3435.0214.3476.0162.3486.0183.3567.0183.3598.0163.3618.0132.3649.0163.3689.0122.373.0132.3761.0122.3791.0122.3811.0081.3811.0112.3873.0112.3902.004.3893.0061.3933.0081.3954.0051.3943.0061.3974.0041.4005.0041.4004.003.4015.002.4034v.4015l.0061.4055v1.2003l.0305.7104.0732.495.0864.3344.0833.2185.0986.1911.1098.1666.0793.0956.0904.0884.0925.0783.0996.0691.1616.0854.1718.066.1839.0498.2683.0386.3619.0204.5071-.0204.2206-.0183v4.2961l-.4645.058-1.0672.0559z"/><path d="m20.4468 29.3207h-.125l-.1027-.0021-.1036-.0091-.1047-.0112-.1037-.0163-.1026-.0193-.1027-.0213-.1047-.0285-.1067-.0305-.1036-.0366-.1047-.0355-.1067-.0417-.1037-.0437-.1057-.0498-.1057-.0528-.1047-.0559-.1047-.06-.1077-.064-.1037-.0661-.1067-.0722-.1098-.0742-.1046-.0782-.1078-.0823-.1057-.0864-.1067-.0885-.1087-.0924-.1078-.0976-.1067-.0996-.1087-.1027-.1078-.1077-.1067-.1108-.1087-.1158-.1108-.1169-.1077-.121-.1078-.125-.1067-.129-.1128-.1312-.1067-.1351-.1098-.1372-.1097-.1423-.1088-.1433-.1108-.1484-.1097-.1535-.1098-.1545-.1108-.1544-.1098-.1627-.1097-.1636-.1128-.1667-.1118-.1707-.1118-.1708-.1098-.1778-.1128-.1769-.1098-.1829-.1118-.184-.1118-.186-.1118-.191-.1128-.1931-.1128-.1942-.1128-.1971-.1118-.2003-.1118-.2022-.1108-.2043-.1159-.2083-.1128-.2104-.1128-.2094-.1148-.2165-.1108-.2144-.1159-.2196-.1128-.2205-.1148-.2246-.1118-.2236-.1159-.2267-.1148-.2266-.1118-.2297-.1169-.2327-.1159-.2338-.1138-.2327-.1138-.2379-.1169-.2388-.1159-.2368-.1148-.2409-.1159-.2439-.1169-.2429-.1158-.2439-.1139-.245-.1179-.2459-.1158-.247-.1149-.248-.1158-.249-.12-.249-.1179-.2521-.1148-.249-.1159-.251-.1189-.252-.11687-.2511-.11688-.2551-.11992-.251-.11485-.2521-.12095-.2541-.11484-.252-.12095-.2511-.11484-.2551-.11993-.252-.12095-.251-.11484-.2521-.11993-.248-.12095-.252-.11789-.249-.1179-.2511-.11993-.249-.12094-.2459-.11892-.247-.12094-.246-.11891-.2459-.12095-.24293-.11993-.24087-.12094-.24291-.11891-.23782-.11993-.23884-.11993-.23681-.12095-.23478-.12196-.23274-.12094-.23274-.12095-.22868-.11993-.22766-.12196-.22665-.12196-.22359-.12094-.22157-.12298-.22156-.11993-.21445-.12196-.21648-.12196-.21241-.12501-.21039-.11891-.20733-.124-.2053-.12298-.19819-.12297-.1992-.12298-.19616-.12298-.19412-.12094-.19107-.12501-.18803-.124-.18192-.12196-.18294-.12501-.17685-.12094-.17379-.12502-.17176-.12399-.16567-.12399-.16363-.12501-.16058-.12298-.15652-.12501-.15042-.124-.1494-.12297-.14635-.12603-.14128-.12603-.13517-.12602-.13314-.124-.13009-.12399-.124-.12603-.11891-.12704-.11586-.12399-.11282-.12501-.10875-.12603-.101631-.12501-.096552-.12705-.09452-.12602-.091471-.12603-.082324-.12602-.080291-.129081-.07521-.122977-.07216-.129076-.063014-.12501-.06098-.127043-.055899-.12806-.05285-.126026-.0426865-.126027-.04167007h.0132125l2.2125775.04167007 2.06521.0426865 1.83755.05285 1.59973.055899 1.39544.06098 1.22568.063014 1.0865.07216.9726.07521.8761.080291.7999.082324.7318.091471.6728.09452.624.096552.5844.101631.5417.10875.5092.11282.4777.11586.4523.11891.4258.124.4045.13009.3822.13314.3669.13517.3496.14128.3323.14635.3171.1494.3029.15042.2937.15652.2775.16058.2683.16363.2602.16567.247.17176.2378.17379.2327.17685.2185.18294.2165.18192.2053.18803.2023.19107.1931.19412.187.19616.1789.1992.1778.19819.1687.2053.1637.20733.1616.21039.1524.21241.1494.21648.1464.21445.1433.22156.1362.22157.1331.22359.1301.22665.1271.22766.125.22868.1189.23274.1169.23274.1148.23478.1118.23681.1067.23884.1088.23782.1026.24291.1047.24087.0986.24293.1006.2459.0945.246.0945.247.0915.2459.0915.249.0884.2511.0905.249.0813.252.0853.248.0824.2521.0803.251.0813.252.0792.2551.0773.2511.0762.252.0742.2541.0701.2521.0763.251.0701.2551.0701.2511.0691.252.0691.251.0671.249.0661.2521.0111.0356.0539.2134.0651.249.062.248.063.247.061.2459.062.245.0599.2439.061.2429.0569.2439.059.2409.0579.2368.0528.2388.059.2379.0539.2327.0548.2338.0519.2327.0549.2297.0538.2266.0488.2267.0529.2236.0498.2246.0508.2205.0498.2196.0498.2144.0498.2165.0467.2094.0478.2104.0478.2083.0477.2043.0458.2022.0467.2003.0427.1971.0468.1942.0437.1931.0426.191.0448.186.0416.184.0437.1829.0407.1769.0437.1778.0427.1708.0417.1707.0406.1667.0396.1636.0387.1627.0426.1544.0397.1545.0376.1535.0396.1484.0397.1433.0376.1423.0376.1372.0376.1351.0356.1312.0386.129.0366.125.0366.121.0396.1169.0335.1158.0346.1108.0356.1077.0355.1027.0356.0996.0356.0976.0335.0924.0346.0885.0345.0864.0336.0823.0335.0782.0335.0742.0326.0722.0325.0661.0325.064.0325.06.0326.0559.0325.0528.0315.0498.0325.0437.0305.0417.0325.0355.0336.0366.0254.0265.003.004.0325.0285.0285.0213.0295.0193.0335.0163.0275.0112.0304.0091.0295.0021z"/><path d="m47.124 6.05139h4.8297v4.37431h-4.8297zm0 7.73951h4.8673v19.7414h-4.8673zm5.7881 0h5.1366l4.0623 12.2296c.3842 1.1617.6515 2.9779.6922 2.9779h.0742c.0396 0 .3089-1.8162.6911-2.9779l4.0643-12.2296h5.1366l-7.0148 19.7404h-5.7504zm28.8744-.4645c5.6346 0 8.6643 4.1426 8.6643 9.3656 0 .5803-.1159 1.8975-.1159 1.8975h-13.493c.306 3.4444 2.9505 5.225 5.8643 5.225 3.1416 0 5.6336-2.1678 5.6336-2.1678l1.8782 3.5236s-2.987 2.8255-7.8563 2.8255c-6.4792 0-10.5029-4.722-10.5029-10.3362 0-6.0747 4.101-10.3332 9.9277-10.3332zm3.7553 7.8949c-.0741-2.6679-1.7227-4.1009-3.8702-4.1009-2.4911 0-4.2178 1.5479-4.6762 4.1009zm7.2649 8.0525s2.1455 2.361 5.7484 2.361c2.0709 0 3.8729-1.0448 3.8729-3.0968 0-4.2585-10.3876-3.2137-10.3876-9.5597 0-3.4841 3.1059-5.3806 6.592-5.3806 4.0636 0 5.9406 2.1293 5.9406 2.1293l-1.187 2.0134s-1.647-1.7807-4.8309-1.7807c-1.9524 0-3.8326.8517-3.8326 3.0196 0 4.2951 10.3895 3.1334 10.3895 9.5597 0 3.1741-2.723 5.4578-6.5935 5.4578-4.6772 0-7.1317-2.8254-7.1317-2.8254zm16.0793-12.7734h-2.53v-2.2065h2.568v-5.61018h2.568v5.61128h4.832v2.2064h-4.832v9.6756c0 4.5685 2.875 5.1488 4.334 5.1488.535 0 .877-.0772.877-.0772v2.3579s-.421.0803-1.108.0803c-2.225 0-6.71-.7358-6.71-7.2394v-9.947zm9.929-2.4382h2.571v3.4454c0 .8517-.079 1.5479-.079 1.5479h.079c.918-2.9423 3.065-5.1874 6.094-5.1874.347.0036.693.0424 1.032.1159v2.5937s-.456-.0773-.953-.0773c-2.724 0-4.756 2.1679-5.601 5.0299-.383 1.2389-.535 2.5551-.535 3.793v8.208h-2.608zm19.359-.4645c5.327 0 8.05 4.1427 8.05 8.9815 0 .4614-.077 1.3517-.077 1.3517h-14.796c.114 4.9943 3.489 7.7039 7.474 7.7039 3.526 0 5.865-2.361 5.865-2.361l1.188 2.0124s-2.798 2.7096-7.128 2.7096c-5.752 0-10.084-4.1813-10.084-10.1818.001-6.3836 4.295-10.2163 9.508-10.2163zm5.406 8.1674c-.155-4.0644-2.606-5.9609-5.484-5.9609-3.22 0-6.017 2.052-6.63 5.9609zm15.861-.2724h1.074v-.501c0-3.7544-2.032-5.032-4.794-5.032-3.18 0-5.444 1.8579-5.444 1.8579l-1.224-2.0124s2.53-2.2064 6.864-2.2064c4.635 0 7.202 2.5937 7.202 7.4711v12.4645h-2.49v-2.1303c0-.9676.076-1.6261.076-1.6261h-.076s-1.609 4.2188-6.439 4.2188c-3.22 0-6.557-1.8996-6.557-5.7678-.001-6.5788 8.472-6.7363 11.808-6.7363zm-4.83 10.258c3.679 0 5.904-3.8723 5.904-7.2394v-.8517h-1.115c-3.026 0-9.082.1158-9.082 4.4139 0 1.8162 1.415 3.6772 4.293 3.6772zm12.599-17.6885h2.565v2.9027c0 .8517-.076 1.5479-.076 1.5479h.076c.92-2.6323 3.988-4.9161 6.981-4.9161 3.563 0 5.401 1.6648 5.975 4.8775h.079c1.035-2.6324 3.832-4.8775 7.091-4.8775 4.677 0 6.404 2.7492 6.404 7.5464v12.3882h-2.609v-11.7266c0-3.174-.652-5.8074-4.177-5.8074-2.951 0-5.367 2.6334-6.096 5.4944-.268.8517-.343 1.7806-.343 2.8254v9.2142h-2.606v-11.7266c0-2.9453-.423-5.8074-4.065-5.8074-3.142 0-5.518 2.7482-6.326 5.7302-.19.812-.266 1.7003-.266 2.5906v9.2142h-2.606v-19.4701z"/></g></svg>