<svg fill="none" height="50" viewBox="0 0 71 50" width="71" xmlns="http://www.w3.org/2000/svg" xmlns:xlink="http://www.w3.org/1999/xlink"><clipPath id="a"><path d="m0 0h70.8333v50h-70.8333z"/></clipPath><g clip-path="url(#a)"><path d="m0 .833339h10.7583v28.833361c0 4.575 2.075 7.2916 3.75 8.4333-1.75 1.5333-7.07497 2.8917-11.0833-.3917-2.35-1.925-3.425-5.1416-3.425-8.15zm67.1667 23.974961v-3.0416h3.2916v-10.6167h-3.6166c-.691-3.46999-2.6555-6.55583-5.5069-8.65049-2.8515-2.094652-6.3835-3.046489-9.9014-2.668269-3.5179.378219-6.7669 2.059119-9.1079 4.712039-2.341 2.65291-3.6046 6.08582-3.5422 9.62342v24.8c1.2608.2067 2.5511.1411 3.7844-.1924 1.2333-.3334 2.3809-.9271 3.3656-1.741 2.3584-1.9333 3.4334-5.15 3.4334-8.15v-.9333h5.3583v-10.6167h-5.3583v-3.2166c0-.957.3801-1.8748 1.0568-2.5515s1.5945-1.0569 2.5515-1.0569 1.8748.3802 2.5515 1.0569 1.0568 1.5945 1.0568 2.5515v10.6583c0 3.7572 1.4926 7.3606 4.1494 10.0174 2.6567 2.6567 6.2601 4.1493 10.0173 4.1493v-10.5584c-.9482-.0021-1.8571-.3792-2.5284-1.049-.6713-.6697-1.0505-1.5777-1.0549-2.526zm-40.675-13.6916v15.625c-.0625.3915-.2626.7479-.5642 1.0053-.3017.2573-.6852.3986-1.0817.3986s-.78-.1413-1.0816-.3986c-.3017-.2574-.5017-.6138-.5642-1.0053v-15.625h-10.6167v18.3333c0 3.2917 1.1084 7.5 6.2167 8.8333 5.1083 1.3334 8.0417-1.4666 8.0417-1.4666-.2834 1.8583-2 3.2166-4.825 3.5-2.1139.0936-4.223-.2703-6.1834-1.0667v9.725c3.4688 1.0878 7.1514 1.3081 10.725.6417 6.5084-1.25 10.6167-6.6667 10.6167-13.9417v-24.6333h-10.6833z" fill="#1f304c"/></g></svg>