<svg fill="none" height="44" viewBox="0 0 74 44" width="74" xmlns="http://www.w3.org/2000/svg" xmlns:xlink="http://www.w3.org/1999/xlink"><clipPath id="a"><path d="m0 0h73.7v44h-73.7z"/></clipPath><g clip-path="url(#a)"><path d="m24.5986 38.1968c.3204 0 1.3754.067 1.776 1.032l.0534.134-.6009.3484-.0801-.1742c-.187-.4289-.6143-.6567-1.1752-.6567-.681 0-1.1217.3351-1.1217.8577 0 .5227.4407.6836 1.2419.9114l.0267.0134c.828.2413 1.8428.5361 1.8562 1.6485 0 .9918-.8279 1.6887-2.0031 1.6887-.9614 0-1.7092-.4557-2.1098-1.2598l-.0668-.1474.6143-.3619.0801.1742c.2804.5897.8012.898 1.509.898.7745 0 1.2686-.3753 1.2686-.9516 0-.5495-.4674-.7237-1.3087-.965-.8546-.2546-1.8161-.5361-1.8161-1.6216 0-1.2331 1.1618-1.5681 1.8562-1.5681zm9.3208 4.8114c.2537 0 .4674.2145.4807.4691 0 .2681-.227.4825-.4807.4825-.2671 0-.4807-.2278-.4807-.4825 0-.2546.227-.4691.4807-.4691zm9.855-4.6372c.9481 0 1.736.4825 1.736 1.4609 0 .5495-.2804.9381-.7478 1.1928.4941.2412.908.6433.9214 1.2732 0 .9382-.6944 1.6217-1.9096 1.6217s-1.9096-.6567-1.9096-1.6217c0-.6299.414-1.0454.9081-1.2732-.4674-.2547-.7345-.6433-.7345-1.1928 0-.965.7745-1.4609 1.736-1.4609zm5.3682 0c.9481 0 1.736.4825 1.736 1.4609 0 .5495-.2805.9381-.7479 1.1928.5075.2412.9081.6433.9215 1.2732 0 .9382-.6944 1.6217-1.9096 1.6217s-1.9096-.6567-1.9096-1.6217c0-.6299.414-1.0454.9081-1.2732-.4674-.2547-.7345-.6433-.7345-1.1928 0-.965.7745-1.4609 1.736-1.4609zm7.1175.0938v3.4712l.6944.067v.6166h-.6944v1.2732h-.7078v-1.2732h-2.7375v-.4959l2.6307-3.6589zm-35.4673-.2278v.7103h-2.8043v1.7423h2.6173v.6969h-2.6173v1.796h2.9645v.6969h-3.699v-5.6424zm11.2037 0v.7103h-1.7093v4.9321h-.7344v-4.9321h-1.7093v-.7103zm7.6917.2278v5.4146h-.7345v-4.7043h-.8412l.0133-.7103zm4.0729 2.8681c-.6277 0-1.2019.3217-1.2019.9784 0 .6969.5208 1.032 1.2019 1.032.681 0 1.2018-.3351 1.2018-1.032 0-.6567-.5742-.9784-1.2018-.9784zm5.3681 0c-.6276 0-1.2018.3217-1.2018.9784 0 .6969.5208 1.032 1.2018 1.032.6811 0 1.2152-.3351 1.2019-1.032 0-.6567-.5743-.9784-1.2019-.9784zm6.4365-1.8629-1.7627 2.4392h1.7627zm-11.7913-.5093c-.6944 0-1.0683.3351-1.0683.9114 0 .5361.4807.8711 1.0683.8711.5342 0 1.0683-.2948 1.0683-.8711s-.3873-.9114-1.0683-.9114zm5.3682 0c-.6811 0-1.0683.3351-1.0683.9114 0 .5361.4807.8711 1.0683.8711.5341 0 1.0683-.2948 1.0683-.8711s-.3873-.9114-1.0683-.9114zm-9.815-38.531824c3.472 0 6.0492 2.546454 6.0492 5.763024 0 3.09595-2.4303 5.1733-4.8473 6.7682l5.5417 6.0713 3.2717-5.3342 1.963 1.233-3.6189 5.9105 4.9676 5.2939-1.7894 1.5815-4.4735-4.798c-1.6158 2.5464-3.8191 4.4093-7.438 4.4093-4.6604 0-8.0923-3.2433-8.0923-7.2238 0-3.3238 2.0431-5.3744 5.9691-7.6126-2.2301-2.2382-3.4719-4.10111-3.4719-6.2991 0-3.20317 2.6974-5.763024 5.969-5.763024zm25.1049-.428876c4.0595 0 7.7585 1.84953 9.0671 6.11148l-2.23.81755c-.8814-2.8279-3.3918-4.65063-6.7837-4.65063-3.6989 0-6.1159 1.84953-6.1159 4.98569 0 6.72801 15.33 3.16291 15.33 12.63841 0 4.5166-3.6189 7.693-9.0138 7.693-5.0076 0-8.0122-2.399-10.082-6.2187l2.0832-1.2732c1.3888 2.9351 3.926 5.2135 7.7852 5.2135 4.4601 0 6.7836-2.0506 6.7836-5.4548 0-6.7682-15.33-3.4444-15.33-12.63842 0-5.45477 4.8875-7.22388 8.5063-7.22388zm-61.52028.348462 9.62798 18.629338 9.628-18.629338h2.5372v26.978938h-2.4704v-22.03346l-8.8402 17.23546h-1.7359l-8.85351-17.19525v21.99325h-2.470429v-26.978938zm35.46728 13.831238c-3.4986 1.93-5.0477 3.4846-5.0477 5.8703 0 2.7474 2.4705 5.0258 5.6219 5.0258 2.8444 0 4.3133-1.3134 5.889-3.8598zm.9615-11.59304c-2.1499 0-3.5387 1.7021-3.5387 3.59183 0 1.50107 1.0015 2.7877 3.1915 5.14651 2.5773-1.51446 4.0061-3.09594 4.0061-5.14651 0-2.01035-1.3487-3.59183-3.6589-3.59183z" fill="#1f304c"/></g></svg>