<svg fill="none" height="47" viewBox="0 0 136 47" width="136" xmlns="http://www.w3.org/2000/svg"><path clip-rule="evenodd" d="m4.59743 42.3712h126.80557v-37.73958h-126.80557zm-4.59743 4.6288h136v-47h-136zm101.856-32.8487h4.88l7.775 10.0608v-10.0608h5.177v19.0165h-4.591l-8.064-10.434v10.434h-5.177zm-8.0726 9.5623v-.0541c0-2.7459-1.9792-5.1272-4.8519-5.1272-2.8726 0-4.7755 2.3357-4.7755 5.0817v.0541c0 2.7431 1.9792 5.1272 4.8293 5.1272s4.8038-2.3386 4.8038-5.0817zm-14.9854 0v-.0541c0-5.4605 4.3684-9.8899 10.1929-9.8899 5.8246 0 10.1364 4.3753 10.1364 9.8358v.0541c0 5.4606-4.3684 9.8871-10.1788 9.8871s-10.1505-4.3724-10.1505-9.833zm-18.3671 6.6285 2.9038-3.5037c1.8605 1.4926 3.9387 2.2788 6.1214 2.2788 1.4138 0 2.1574-.4899 2.1574-1.3046v-.0541c0-.789-.6193-1.222-3.1809-1.8202-4.0178-.9258-7.1195-2.0652-7.1195-5.9818v-.0456c0-3.5321 2.7766-6.0872 7.3089-6.0872 3.2092 0 5.7143.8716 7.7642 2.5266l-2.6154 3.723c-1.7247-1.222-3.6135-1.8743-5.2845-1.8743-1.2695 0-1.8887.544-1.8887 1.222v.0541c0 .8545.6475 1.2505 3.2628 1.8487 4.3515.9485 7.046 2.3614 7.046 5.9191v.057c0 3.8825-3.0451 6.1926-7.6341 6.1926-3.3392 0-6.5229-1.0596-8.8414-3.1504zm-8.6265-4.6744-2.1064-5.4121-2.1291 5.4121zm-4.5861-11.6531h5.0413l8.0384 19.1532h-5.6124l-1.377-3.3954h-7.2778l-1.3572 3.3954h-5.4937zm-29.937.1367h5.5277l4.5041 7.3604 4.5013-7.3604h5.5276v19.0165h-5.2024v-10.9211l-4.8265 7.4431h-.1074l-4.8067-7.389v10.867h-5.1177z" fill="#1f304c" fill-rule="evenodd"/></svg>