<svg fill="none" height="31" viewBox="0 0 152 31" width="152" xmlns="http://www.w3.org/2000/svg" xmlns:xlink="http://www.w3.org/1999/xlink"><mask id="a" height="29" maskUnits="userSpaceOnUse" width="26" x="0" y="1"><path d="m0 1h25.3299v28.1499h-25.3299z" fill="#fff"/></mask><g clip-rule="evenodd" fill="#1f304c" fill-rule="evenodd"><path d="m98.0799 20.2601c-.479 0-.8.16-1.28.16-.613-.035-1.218-.153-1.8-.35v-7.37c.959-.367 2.008-.423 3-.16 1.484.277 2.6631 1.408 3.0001 2.88.571 2.054-.631 4.182-2.6861 4.753-.077.021-.155.04-.234.057zm0-10.26c-.423-.08001-.857-.08001-1.28 0-.603-.04001-1.208.004-1.8.13h-2.69v18.87h2.69v-6.21c.586.16 1.193.231 1.8.21.433.026.867-.029 1.28-.16 3.2041-.492 5.6171-3.173 5.7711-6.41-.034-3.29-2.504-6.043-5.7711-6.43z"/><path d="m148.56 10.1297-3.051 9-3.359-9h-2.731v.48l4.811 12.18-.32 1.28c-.637 1.47-2.089 2.418-3.691 2.41v2.52c3.004-.075 5.607-2.104 6.41-5l4.651-13.94z"/><path d="m110.9 14.9398h-3.37c.316-1.537 1.641-2.66 3.21-2.72h.16c1.556.171 2.868 1.234 3.359 2.72zm0-5.13h-.16c-3.533.104-6.323 3.036-6.25 6.57-.16 3.493 2.541 6.454 6.033 6.614.072.003.145.005.217.006h.16c1.92 0 4.17-.32 5.29-1.76l-1.931-1.76c-.639 1-2.239 1-3.359 1h-.16c-1.76 0-2.88-1.28-3.21-3.05h9.3v-1.21c-.02-3.349-2.592-6.131-5.93-6.41z"/><path d="m139.26 22.3099h.16v-8.17c.027-.38-.028-.762-.16-1.12z"/><path d="m131.73 10.6097v-.61h-2.73v12.31h2.72v-8.17c0-1 1.28-1.76 2.56-1.76s2.41.8 2.41 1.76v8.17h2.56v-9.31c-.235-.637-.573-1.232-1-1.76-1.39-1.75-5.25-1.59-6.52-.63z"/><path d="m139.1 10.1297.159.48v-.48z"/><path d="m120.35 10.6097v-.61h-2.721v12.31h2.721v-8.17c0-1 1.449-1.76 2.569-1.76s2.401.8 2.401 1.76v8.17h2.729v-8.17c-.016-1.096-.483-2.137-1.29-2.88-1.119-1.77-4.96-1.61-6.409-.65z"/><path d="m49.3699 20.39h-.32c-2.137-.005-3.867-1.741-3.862-3.878 0-.098.004-.195.012-.292.01-2.138 1.751-3.862 3.889-3.8511.094 0 .187.0031.281.0111 1.949.187 3.493 1.73 3.68 3.68.251 2.128-1.271 4.057-3.4 4.307-.093.011-.186.019-.28.023zm0-10.58c-3.622.017-6.554 2.948-6.57 6.57-.072 3.584 2.775 6.547 6.358 6.619.07.001.142.002.212.001 3.629 0 6.57-2.942 6.57-6.57s-2.941-6.57-6.57-6.57z"/><path d="m85.74 19.1097-3.36-9h-2.38v1.29l4.49 11.37-.49 1.3c-.613 1.417-1.987 2.355-3.53 2.41v2.52c3.004-.075 5.606-2.104 6.41-5l4.63-13.87h-2.88z"/><path d="m59.6199 10.6097v-.61h-2.72v12.31h2.72v-8.17c0-1 1.28-1.76 2.73-1.76 1.28 0 2.4.8 2.4 1.76v8.17h2.721v-8.17c-.015-1.094-.478-2.135-1.281-2.88-1.44-1.77-5.12-1.61-6.57-.65z"/><path d="m37.1902 9.8099c-1.588-.194-3.179.339-4.33 1.45-1.441-1.93-5-1.93-7-.81-1.227.639-2.064 1.838-2.24 3.21v8.65h2.719v-8.17c0-1 1.29-1.76 2.731-1.76 1.28 0 2.4.8 2.4 1.76v8.17h2.73v-8.17c0-1 1.44-1.76 2.719-1.76 1.121 0 2.401.8 2.401 1.76v8.17h2.68v-8.17c-.328-2.426-2.363-4.259-4.81-4.33z"/><path d="m79.49 10.1297.48 1.29v-1.29z"/><path d="m19.0799 8.5301c-.779-1.094-.644-2.594.32-3.53 1.163-1.124 3.007-1.124 4.17 0 .564.604.854 1.415.8 2.24.289.449.671.831 1.12 1.12h-.639c-2.721.16-4 3.05-4 4-.434-1.35-1.028-2.643-1.771-3.85"/></g><g mask="url(#a)"><path clip-rule="evenodd" d="m25.3299 8.37c-.415-.261-.775-.601-1.06-1l.1-.24c-.028-.181-.075-.359-.14-.53-.099-.682-.267-1.352-.5-2-1.12-3-4.81-3.69-7.37-2.09-1.328.867-2.017 2.436-1.759 4-1.678.117-3.364-.017-5.00002-.4-3.476-1.003-6.693-2.746-9.431002-5.11l.06.17-.23000007-.17c.01799997.25.06099997.498.13000007.74-.409 4 .2 6.85 1.261002 8.74l-.25-.19c.05.132.114.26.189.38-.178-.115-.349002-.242-.510002-.38.406002.925 1.048002 1.728 1.861002 2.33.689 2.47 2.529 3.15 4.179 4.15l-1.08.23c2.89 2.32 6.07102 2.6 8.60002 2.91-1.441 1.872-3.278 3.402-5.38002 4.48.391.12.74.21 1.06002.28l-.90002.37c.88302.951 2.06602 1.568 3.35002 1.75-.201.127-.411.237-.63.33.665.416 1.419.669 2.2.74l-.12.06c1.23 1.06 2.08 1 2.81.75h-.08c.303.29.701.461 1.12.48 1.28 0 3.05-1 3.21-1.92v-14.85c-.003-.197-.02-.395-.049-.59.404-1.386 1.363-2.544 2.649-3.2.347-.127.711-.201 1.08-.22z" fill="#1f304c" fill-rule="evenodd"/></g><path clip-rule="evenodd" d="m22.4499 6.1297c-.229-.036-.444.121-.479.35-.007.043-.007.087 0 .13 0 .276.223.5.5.5.275 0 .5-.224.5-.5-.016-.258-.222-.465-.481-.48" fill="#1f304c" fill-rule="evenodd"/><path clip-rule="evenodd" d="m74.53 14.9398h-3.37c.309-1.541 1.639-2.667 3.21-2.72h.16c1.556.171 2.868 1.234 3.36 2.72zm0-5.13h-.16c-3.533.104-6.323 3.036-6.25 6.57-.16 3.493 2.541 6.454 6.033 6.614.072.003.145.005.217.006h.16c1.92 0 4.16-.32 5.28-1.76l-1.92-1.76c-.64 1-2.08 1-3.36 1h-.16c-1.77 0-2.89-1.28-3.21-3.05h9.29v-1.21c.045-3.371-2.557-6.187-5.92-6.41z" fill="#1f304c" fill-rule="evenodd"/></svg>