<svg fill="none" height="30" viewBox="0 0 152 30" width="152" xmlns="http://www.w3.org/2000/svg"><path clip-rule="evenodd" d="m142.02 12.0407s.82 2.3258 1.668 4.7326l.213.6021c.812 2.3045 1.591 4.5116 1.639 4.6456l3.212-9.9803h1.869l-4.364 13.5073c-.597 1.8616-1.651 3.9969-4.538 3.9969-.543 0-.953-.1011-1.441-.2617l-.042-.0119.301-1.6475.055.0178c.349.0952.687.1844 1.054.1844 1.821 0 2.435-1.4988 2.911-3.0393-.011-.0344-4.215-11.8697-4.51-12.7002l-.016-.0458zm-92.9002-1.0579.2356.0166v1.6271h-.6825c-.5148 0-.844.0237-1.3109.2722.5148.71.7961 1.6093.8081 2.6625v.071c0 1.2011-.449 2.3135-1.2631 3.13-.8201.8225-1.9514 1.278-3.1726 1.278-.7123 0-1.3768-.1242-2.0891-.3905l-.1856.142c-.3891.2959-.88.6686-.88 1.1716 0 .5502 1.1434.6508 2.592.781 2.5621.2248 6.0759.5384 6.0759 3.6684 0 2.2306-1.9275 3.408-5.5671 3.408-5.0702 0-5.6149-2.2838-5.6149-3.266 0-1.3668 1.2152-2.0827 2.1849-2.5146-.7303-.3018-1.5504-.8521-1.5504-1.7928 0-.8284.4549-1.2485.9877-1.7337.2095-.1893.419-.3905.6226-.6212-.9758-1.142-1.4187-1.9111-1.4187-3.3726 0-2.5974 1.9514-4.479 4.6452-4.479 1.0415 0 1.9993.3077 2.8553.9171l.012.0118c.85-.6271 1.8437-1.0886 2.9512-.9703zm-6.7802 12.6016c-1.1074.2071-2.4064.8283-2.4064 1.8874 0 1.6938 2.5251 1.803 3.6301 1.8101l.207.0005c1.3409 0 3.5977-.2544 3.5977-1.9762 0-.929-.9877-1.4496-3.023-1.5916-.006 0-2.0054-.1302-2.0054-.1302zm60.7274-11.9184c1.766 0 4.394 1.0884 4.394 4.0801v6.4176l.006.4164c.012.8089.024 1.6475.343 2.4207l.024.0714h-2.139s-.157-1.3977-.181-1.5821c-1.001.9635-2.194 1.9568-3.755 1.9568-2.0311 0-3.6825-1.6832-3.6825-3.753 0-3.5211 3.5195-4.443 6.3465-5.1805l.53-.1368.555-.1547v-.684c0-1.3917-.916-2.2185-2.441-2.2185-1.206 0-2.212.6424-3.1583 2.0163l-.0301.0417-1.3923-1.0231.0301-.0416c1.2597-1.7843 2.7426-2.6467 4.5506-2.6467zm30.937.0059c1.248 0 2.284.4342 3.074 1.2788 1.036 1.1063 1.621 2.9322 1.621 4.9901 0 .3034-.012.6127-.036.9279l-.006.0476h-7.896c.018 3.1463 1.236 4.8831 3.436 4.8831 1.724 0 2.851-1.6832 3.158-2.2007l.03-.0476 1.404.9219-.018.0417c-.759 1.7783-2.633 2.9322-4.767 2.9322-3.369 0-5.298-2.51-5.298-6.8875s1.929-6.8875 5.298-6.8875zm-51.0134-5.29943c2.6761 0 4.7434 1.79027 5.5329 4.79393l.0121.0475-1.8564.571-.012-.0535c-.6751-2.21257-1.5731-3.68761-3.7971-3.68761-1.6755 0-2.9894 1.34419-2.9894 3.06311 0 2.046 1.8021 2.8014 3.7126 3.6043l.382.1612c2.175.9247 4.4762 2.0781 4.4819 5.3643 0 3.1106-2.1517 5.2042-5.346 5.2042-3.2607 0-5.6896-1.9924-6.3405-5.1923l-.0121-.0476 1.9769-.4699.0121.0535c.3977 1.9212 1.9407 3.985 4.3817 3.985 1.8684 0 3.2727-1.4274 3.2727-3.3188 0-2.3791-1.9166-3.1464-3.9478-3.9672-2.2722-.9159-4.6228-1.8616-4.6228-5.0972 0-2.95006 2.1216-5.01393 5.1592-5.01393zm10.4992 1.47504v4.19319h2.9654v1.6534l-1.2459-.0005c-.0654-.0001-.1315-.0001-.1976-.0002l-.5839-.0008c-.496-.0009-.8969-.0022-.9319-.0044l.0003 8.3809c.0034.6236.0353 1.1171.3312 1.4091.2169.2141.5725.3152 1.1089.3152.5606 0 1.0367-.0535 1.4586-.1606l.0663-.0178v1.4393l-.0362.0119c-.7353.2558-1.3139.3747-1.8684.3747-1.0427 0-1.784-.226-2.2601-.7018-.7052-.7018-.7594-1.8676-.7594-3.1345v-7.9164h-1.995v-1.6475h1.995v-4.19319zm23.1082 3.81849c2.254 0 3.399 1.4928 3.399 4.431v8.9811h-1.953v-8.5052l.006-.4045c.012-.91.03-1.939-.524-2.4921-.277-.2736-.651-.4044-1.163-.4044-1.145 0-2.622 1.1241-3.315 1.933v9.8613h-1.959v-13.0255h1.959v1.2787c1.067-.8505 2.073-1.6534 3.55-1.6534zm9.034-4.91287v18.31907h-1.952v-18.31907zm-69.9613 4.51257c1.7539 0 4.3638 1.0827 4.3638 4.0589v6.3842l.006.4142c.012.8046.024 1.6389.3412 2.4081l.03.071h-2.1251s-.1616-1.3905-.1796-1.5739c-.9937.9585-2.1849 1.9466-3.7293 1.9466-2.0173 0-3.6575-1.6744-3.6575-3.7334 0-3.5028 3.4899-4.4199 6.2974-5.1536l.5267-.1361.5508-.1538v-.6804c0-1.3845-.9099-2.207-2.4244-2.207-1.1972 0-2.1969.639-3.1367 2.0058l-.03.0414-1.3827-1.0177.0299-.0414c1.2451-1.775 2.7237-2.6329 4.5195-2.6329zm-32.9295 0c3.3402 0 5.2618 2.4968 5.2618 6.8516 0 4.3547-1.9216 6.8516-5.2618 6.8516-3.3463 0-5.2618-2.4969-5.2618-6.8516 0-4.3548 1.9155-6.8516 5.2618-6.8516zm46.2964 0c2.2448 0 3.3762 1.4851 3.3762 4.408v8.9343h-1.9455v-8.461l.006-.4023c.012-.9053.0299-1.9289-.5208-2.4792-.2634-.2721-.6405-.4023-1.1493-.4023-1.1374 0-2.604 1.1183-3.2924 1.9229v9.8101h-1.9455v-12.9578h1.9455v1.2721c1.0596-.8461 2.0592-1.6448 3.5258-1.6448zm-54.4495-4.89323v18.22373h-2.0353v-16.25344l-4.42967 16.25344h-1.65815l-4.42971-16.25344v16.25934h-2.03527v-18.22371h3.29834s3.96878 14.79791 3.99871 14.91031c.02993-.1124 3.93285-14.91031 3.93285-14.91031h3.3163v-.00592zm22.7771 5.08253v1.7691l-.0599-.0118c-2.3525-.3195-3.5796 2.1655-4.298 4.0471v7.3368h-1.9455v-12.9578h1.9455v2.6981c.7303-1.5088 1.6821-2.8815 3.5977-2.8815zm68.1368 6.3788-1.121.3212c-1.778.4996-4.4663 1.2609-4.4663 3.3545 0 .9933.7833 2.0995 1.9163 2.0995 1.766 0 3.146-1.4393 3.671-2.0698zm-82.7608-4.9292c-2.8853 0-3.3163 3.2661-3.3163 5.2127s.431 5.2127 3.3163 5.2127 3.3163-3.2661 3.3163-5.2127l-.0009-.1523c-.0228-1.9597-.5041-5.0604-3.3154-5.0604zm35.3419 4.4968-1.1134.3195c-1.7659.497-4.4357 1.2543-4.4357 3.337 0 .9881.7841 2.0887 1.9035 2.0887 1.76 0 3.1308-1.4319 3.6456-2.0591zm-14.4983-4.8814c-1.8378 0-2.8255 1.5798-2.8255 3.0708 0 1.4792.9099 2.9762 2.6578 2.9762 1.7719 0 2.8674-1.1479 2.8734-2.9998 0-1.4082-.7124-3.0472-2.7057-3.0472zm90.2802.7994c-1.934 0-3.007 2.0223-3.055 3.9434h5.804v-.0714c0-1.017-.35-2.3612-1.157-3.182-.453-.458-.989-.69-1.592-.69zm-61.4512-12.74003v9.41379l-9.4138-9.41379zm-1.4029 1.40293h-4.4034l4.4034 4.40332z" fill="#1f304c" fill-rule="evenodd"/></svg>