<svg fill="none" height="27" viewBox="0 0 200 27" width="200" xmlns="http://www.w3.org/2000/svg" xmlns:xlink="http://www.w3.org/1999/xlink"><clipPath id="a"><path d="m0 0h200v26.0586h-200z"/></clipPath><g clip-path="url(#a)" fill="#1f304c"><path d="m72.8339 16.0912-4.0391-10.16286h-3.7785l6.1238 14.13676c-.0652.1955-.5864 1.2378-.6515 1.4333-.456 1.0423-1.1075 1.6286-2.3453 1.6286-.5863 0-1.1075-.1954-1.4332-.2606l-1.0423 2.6059c.3908.2606 1.3029.6515 2.7361.6515 3.3876 0 4.6906-2.1499 5.4723-4.1694l6.7753-16.09121h-3.6482c-.0652 0-4.1694 10.22801-4.1694 10.22801zm-30.0326-10.61889c-3.4528 0-5.0163 2.14984-5.1466 2.34528l-.0651-1.88925h-3.3876v19.73946h3.583v-7.0359c.2606.3909 1.6287 1.9544 4.6254 1.9544 4.6254 0 7.1661-3.7785 7.1661-7.557-.0651-5.60259-3.8436-7.55699-6.7752-7.55699zm-1.0423 12.18239c-2.3453 0-4.0391-1.7589-4.0391-4.6254 0-2.9316 1.7589-4.69054 4.1694-4.69054 2.3452 0 4.039 1.69384 4.039 4.69054-.1303 2.8013-1.8241 4.6254-4.1693 4.6254zm15.8957-12.18239c-4.0391 0-5.9935 2.47557-6.1238 2.60587l1.8893 2.08472c.1954-.19547 1.7589-1.75899 4.0391-1.75899 1.7589 0 3.127.78176 3.127 2.80129v.0652h-3.3225c-1.6938 0-3.6482.2605-5.0814 1.7589-.6515.6515-1.1075 1.6287-1.1075 2.9968 0 3.127 2.4756 4.4951 5.0163 4.4951 2.9316 0 4.2997-1.4984 4.6906-1.9544l.0651 1.6286h3.1922v-7.4267c0-2.4755-.0652-4.16935-1.4984-5.66772-1.1075-1.1075-2.6058-1.62867-4.886-1.62867zm2.9316 9.18569c-.0651.8469-.2606 1.6286-.912 2.2801-.5864.5863-1.4984.9121-2.7362.9121s-2.3453-.6515-2.3453-1.9544c0-2.1499 2.4756-2.1499 4.0391-2.1499h2.0847v.9121zm45.5377 1.4332-4.039-10.16286h-3.7788l6.1238 14.13676c-.065.1955-.586 1.2378-.651 1.4333-.457 1.0423-1.108 1.6286-2.346 1.6286-.586 0-1.107-.1954-1.433-.2606l-1.0424 2.6059c.3909.2606 1.3034.6515 2.7364.6515 3.387 0 4.69-2.1499 5.472-4.1694l6.775-16.09121h-3.648c-.065 0-4.169 10.22801-4.169 10.22801zm-15.0491-10.61889c-3.3225 0-4.886 2.08469-5.0814 2.28013v-7.75244h-3.5831v20.1954h3.3225l.0651-1.6938c.1955.1955 1.6287 2.0847 4.8209 2.0847 4.6254 0 7.1661-3.7785 7.1661-7.557-.0651-5.60259-3.7785-7.55699-6.7101-7.55699zm-1.0423 12.18239c-2.3453 0-4.0391-1.7589-4.0391-4.6254 0-2.9316 1.7589-4.69054 4.1694-4.69054 2.4104 0 4.0391 1.69384 4.0391 4.69054-.1303 2.8013-1.8242 4.6254-4.1694 4.6254zm51.4654-12.18239c-2.736 0-4.169 1.49837-4.625 2.08469v-7.557h-3.583v20.1954h3.583v-6.3843c0-1.6938 0-3.3225 1.042-4.2997.652-.65147 1.629-.91205 2.346-.91205 1.042 0 1.628.26058 2.084.65146.782.65147.847 1.69379.847 2.93159v8.013h3.583v-8.5993c0-1.62867-.195-3.38763-1.433-4.62542-1.107-1.10749-2.41-1.49837-3.844-1.49837zm15.245 0c-5.473 0-7.818 3.97394-7.818 7.62219 0 3.6482 2.345 7.6221 7.818 7.6221 5.472 0 7.817-3.9739 7.817-7.6221 0-3.64825-2.475-7.62219-7.817-7.62219zm2.801 11.20519c-.651.6515-1.629 1.0424-2.801 1.0424-1.173 0-2.15-.3909-2.802-1.0424-.847-.8469-1.303-2.0847-1.303-3.583 0-1.4984.456-2.7362 1.303-3.5831.652-.65147 1.629-1.04234 2.802-1.04234 1.172 0 2.15.39087 2.801 1.04234.847.8469 1.303 2.0847 1.303 3.5831-.065 1.4983-.521 2.7361-1.303 3.583zm37.134-2.4755c0-2.5408-.261-5.01633-2.15-6.84044-1.499-1.49837-3.453-1.75895-4.821-1.75895-5.016 0-7.427 3.6482-7.427 7.62219 0 4.039 2.476 7.557 7.557 7.557 3.453 0 5.472-1.759 6.384-2.8013l-1.954-1.8893c-1.107 1.2378-2.606 1.8893-4.3 1.8893-2.801 0-3.974-2.0847-3.974-3.6483h10.685zm-6.906-5.99353c2.736 0 3.453 2.47553 3.453 3.45273h-7.166c0-.8469.847-3.45273 3.713-3.45273zm-14.788-2.73616c-3.127 0-4.626 2.08469-4.821 2.28013l-.065-1.75896h-3.388v14.20192h3.583v-6.3843c0-1.6938 0-3.3225 1.042-4.2997.652-.65147 1.629-.91205 2.346-.91205 1.042 0 1.628.26058 2.084.65146.782.65147.847 1.69379.847 2.93159v8.013h3.583v-8.7296c0-1.62867-.195-3.38762-1.433-4.62541-1.042-.9772-2.345-1.36808-3.778-1.36808zm-50.619 0c-3.453 0-5.016 2.14984-5.147 2.34528l-.065-1.88925h-3.388v19.73946h3.584v-7.0359c.26.3909 1.628 1.9544 4.625 1.9544 4.625 0 7.166-3.7785 7.166-7.557-.065-5.60259-3.844-7.55699-6.775-7.55699zm-1.043 12.18239c-2.345 0-4.039-1.7589-4.039-4.6254 0-2.9316 1.759-4.69054 4.17-4.69054 2.41 0 4.039 1.69384 4.039 4.69054-.13 2.8013-1.824 4.6254-4.17 4.6254zm-118.50115-16.41692h-2.86645s-1.9544 0-1.9544 1.9544v2.8013s0 1.9544 1.9544 1.9544h2.73615s1.9544 0 1.9544-1.9544v-2.8013c.13029.1303.13029-1.9544-1.8241-1.9544zm8.33875 16.80782h-2.8013s-1.95439 0-1.95439 1.9544v2.7362s0 1.9544 1.95439 1.9544h2.8013s1.9544 0 1.9544-1.9544v-2.8013c0 .1302 0-1.8893-1.9544-1.8893zm-8.33875 0h-2.86645s-1.9544 0-1.9544 1.9544v2.8013s0 1.9544 1.9544 1.9544h2.8013s1.9544 0 1.9544-1.9544v-2.8013c.06514.0651.06514-1.9544-1.88925-1.9544zm13.87625-10.03257h2.8013s1.9544 0 1.9544-1.9544v-2.73615s0-1.9544-1.9544-1.9544h-2.8013s-1.9544 0-1.9544 1.9544v2.73615c0-.06514 0 1.9544 1.9544 1.9544zm-5.5375 1.69381h-2.8013s-1.95439 0-1.95439 1.95436v2.8013s0 1.9544 1.95439 1.9544h2.8013s1.9544 0 1.9544-1.9544v-2.8013s0-1.95436-1.9544-1.95436zm-8.33875 0h-2.86645s-1.9544 0-1.9544 1.95436v2.8013s0 1.9544 1.9544 1.9544h2.8013s1.9544 0 1.9544-1.9544v-2.8013c.06514 0 .06514-1.95436-1.88925-1.95436zm13.87625 6.64496h2.8013s1.9544 0 1.9544-1.9544v-2.8013s0-1.95441-1.9544-1.95441h-2.7362s-1.9544 0-1.9544 1.95441v2.8013c-.0651 0-.0651 1.9544 1.8893 1.9544zm-5.5375-15.11402h-2.8013s-1.95439 0-1.95439 1.9544v2.73616s0 1.9544 1.95439 1.9544h2.8013s1.9544 0 1.9544-1.9544v-2.8013c0 .19544 0-1.88926-1.9544-1.88926zm8.4039 16.80782h-2.8013s-1.9544 0-1.9544 1.9544v2.8013s0 1.9544 1.9544 1.9544h2.8013s1.9544 0 1.9544-1.9544v-2.8013c0 .0651 0-1.9544-1.9544-1.9544zm178.4365-15.04886c0-1.23778-1.042-2.280128-2.28-2.280128s-2.28 1.042348-2.28 2.280128c0 1.23779 1.042 2.28013 2.28 2.28013s2.28-.9772 2.28-2.28013zm-2.28 1.82411c-.912 0-1.759-.78176-1.759-1.75896 0-.91205.782-1.75896 1.759-1.75896.912 0 1.694.78176 1.694 1.75896s-.717 1.75896-1.694 1.75896z"/><path d="m198.697 2.54069c0-.19544-.065-.39088-.261-.58632-.195-.06515-.456-.06515-.651-.06515h-.782v2.28013h.456v-.9772h.391l.456.84691h.586l-.586-.91205c.196 0 .391-.32574.391-.58632zm-1.042.26058h-.261v-.52117h.261c.065 0 .391 0 .456.06515.065 0 .065.06514.065.26058s-.13.19544-.521.19544z"/></g></svg>