<svg fill="none" height="36" viewBox="0 0 137 36" width="137" xmlns="http://www.w3.org/2000/svg" xmlns:xlink="http://www.w3.org/1999/xlink"><clipPath id="a"><path d="m0 0h136.8v36h-136.8z"/></clipPath><g clip-path="url(#a)" fill="#1f304c"><path d="m45.0899 23.31c-1.17 0-2.79-.09-4.05-.18v12.51h-3.87v-35.1c2.61-.36 5.22-.54 8.1-.54 9.09 0 13.59 5.22 13.59 11.25.09 7.11-5.13 12.06-13.77 12.06zm.81-19.8c-1.62 0-3.6.09-4.86.36v15.75c1.17.18 2.88.27 4.23.27 6.57 0 9.45-3.78 9.45-8.37.09-4.14-2.97-8.01-8.82-8.01zm22.41 32.49c-6.21 0-10.26-4.77-10.26-10.53s4.14-10.53 10.26-10.53c6.21 0 10.26 4.77 10.26 10.53-.09 5.76-4.14 10.53-10.26 10.53zm0-17.91c-3.87 0-6.48 2.97-6.48 7.47 0 4.41 2.61 7.47 6.48 7.47s6.48-2.97 6.48-7.47-2.61-7.47-6.48-7.47zm18.63 3.69v13.86h-3.7799v-20.25h3.5999v3.42c1.89-2.52 4.59-3.78 7.2-3.78v3.69c-2.88 0-5.58.99-7.02 3.06zm20.1601 14.22c-6.39 0-10.9801-4.59-10.9801-10.44s4.5001-10.62 10.9801-10.62c2.52 0 5.04.9 6.93 2.07l-1.53 2.88c-1.62-.99-3.6-1.71-5.67-1.71-3.96 0-6.9301 2.7-6.9301 7.38 0 4.41 3.5101 7.11 7.2001 7.11 2.07 0 4.05-.72 5.67-1.71l1.26 2.88c-1.8 1.26-4.41 2.16-6.93 2.16zm25.83-.36v-12.78c0-3.15-1.35-4.77-4.23-4.77-2.25 0-4.86 1.62-6.3 3.24v14.22h-3.78v-35.28h3.78v18.18c2.16-2.16 4.59-3.42 7.29-3.42 4.68 0 7.11 2.88 7.11 6.93v13.77h-3.87zm-117.9901-30.42v9.45l13.59 9.18v-9.45z"/><path d="m14.4 4.95001-14.4 9.44999v9.45l14.4-9.45z" opacity=".75"/></g></svg>