<svg fill="none" height="48" viewBox="0 0 129 48" width="129" xmlns="http://www.w3.org/2000/svg" xmlns:xlink="http://www.w3.org/1999/xlink"><clipPath id="a"><path d="m0 0h128.372v48h-128.372z"/></clipPath><g clip-path="url(#a)" clip-rule="evenodd" fill="#1f304c" fill-rule="evenodd"><path d="m69.2291 36.6475c-6.1227 0-12.1864-4.8592-12.1864-12.3014 0-7.8653 6.3115-12.3773 12.2043-12.3773 6.5604 0 12.4309 5.1281 12.4309 12.3069 0 5.1238-3.0218 8.1199-3.0218 8.1199 1.2692 1.4299 2.4112 2.1912 4.233 2.1912.1484 0 .2511.1061.2511.2512v2.083c0 .1518-.1094.2266-.2266.2266-5.5211 0-5.8917-4.281-9.0787-5.2253-.3672-.0804-.4912-.4064-.0569-.6464 0 0 .787-.5269 1.7068-.5269.3929 0 .9399.115.9399.115s2.6991-2.4714 2.6991-6.6072c0-5.2387-4.5454-9.7574-9.6625-9.7574-5.8526 0-9.879 4.8435-9.879 9.7094 0 5.8828 4.9551 9.8634 9.8054 9.8634.8952 0 1.5895-.2177 2.2906-.2177.9577 0 1.7201.7189 2.2627 1.4903.183.2936-.0514.4532-.5493.5972 0 0-1.5493.7044-4.1614.7044z"/><path d="m2.10977 45.4143h43.30603v-43.30489h-43.30603zm-1.738049-45.41466068c-.204279-.00111069-.37060472.16521468-.371721.36949368v.002233 46.782134c0 .2054.166326.3717.371721.3717h46.780979c.2054.0011.3718-.1641.3718-.3695v-.0022-46.78325c0-.204279-.1652-.37061068-.3706-.37061068h-.0012z"/><path d="m23.7841 35.4262c-6.4733 0-11.9665-5.356-11.9665-11.9666 0-6.0937 4.8391-11.9218 12.0123-11.9218 6.3427 0 11.8817 5.1125 11.8817 11.9509 0 4.7821-2.8544 7.6911-2.8544 7.6911.9355 1.0192 1.9089 1.9513 3.6871 1.9513.173 0 .3092.0815.3092.3103v2.2348c0 .2121-.1362.3081-.3092.3081-2.8722 0-4.5979-1.5751-6.1641-3.4716-.778-.8082-1.8675-1.7068-2.7427-1.9055-.4856-.1116-.5369-.3762-.2601-.633.5169-.5402 1.1989-.8126 2.0573-.8126l1.1353.1998c.9711-1.1129 2.237-3.1077 2.237-5.866 0-4.8547-3.8612-9.0452-9.0262-9.0452-4.9161 0-9.0653 3.9672-9.0653 9.0496 0 4.4261 3.581 9.033 9.2439 9.033.3717.0022 1.0247-.0938 1.3875-.0938 1.152 0 1.939.5659 2.7371 1.651.1775.2132.2244.4677-.2388.6117-.844.2936-2.4302.7245-4.0611.7245z"/><path d="m119.626 36.6373c-6.71 0-12.352-5.2253-12.352-12.461 0-6.8729 5.584-12.2266 12.277-12.2266 4.967 0 8.048 2.9302 8.048 2.9302.279.2668.396.451.09.7714l-1.145 1.1442c-.273.2735-.456.2165-.637.0323 0 0-2.404-2.3196-6.356-2.3196-5.181 0-9.702 4.4339-9.702 9.7541 0 5.664 4.727 9.7652 9.763 9.7652 2.825 0 4.443-1.0103 6.074-2.1076.314-.2143.463-.2712.667-.0457l1.154 1.2748c.236.2466.217.4911-.026.6608-1.631 1.2268-4.343 2.8264-7.855 2.8264zm-25.4165-.365c.1886.4097.3572.3059.5224-.0033l11.1541-23.7567c.094-.1987-.023-.2958-.146-.2958h-2.481c-.167 0-.225.1228-.378.4588l-8.4148 17.9375-8.4771-18.0346c-.1239-.2847-.1875-.3617-.3426-.3617h-2.4302c-.2422 0-.2835.1239-.1942.2813z"/></g></svg>