<svg fill="none" height="30" viewBox="0 0 114 30" width="114" xmlns="http://www.w3.org/2000/svg" xmlns:xlink="http://www.w3.org/1999/xlink"><clipPath id="a"><path d="m0 0h113.143v30h-113.143z"/></clipPath><g clip-path="url(#a)"><path d="m58.4144 5.9249c-2.6661-1.40731-5.6704-2.04764-8.6787-1.8498h-7.1071v23.5466h7.4409c2.2816.0985 4.56-.2561 6.7038-1.0431 1.8295-.6891 3.3633-1.9917 4.3393-3.6857 1.1172-2.0998 1.6277-4.4692 1.4743-6.8428.0765-2.1019-.2347-4.2-.9179-6.18918-.7281-1.57023-1.8491-2.92597-3.2546-3.93602zm-1.9749 13.9082c-.2067 1.0653-.8204 2.0082-1.7107 2.6287-1.2513.7676-2.7066 1.1363-4.1725 1.057h-2.6426v-15.75802h2.1558c1.6673-.18936 3.3468.23052 4.7288 1.1822.7792.67068 1.369 1.53382 1.7107 2.50352.3258 1.3344.4984 2.7016.5146 4.0751.039 1.4684-.1583 2.9335-.5841 4.3393zm9.3463 7.6356h5.2573v-9.9722h6.3143v-3.9499h-6.3143v-5.78582h9.6245v-3.81085h-14.8818zm18.4145 0h5.2573v-23.51877h-5.2573zm28.9427-23.51877h-5.396v13.54657l-10.0002-13.54657h-4.3393v23.54657h5.3407v-13.9082l9.8608 13.9082h4.479zm-90.7786 24.46457c-.3895-.2643-.918-.5285-2.1002-2.6287l-2.5034-3.9499-2.8929-4.7288-.2643-.4173c.1391 0 .2643-.1251.4033-.1251 3.2824-1.1822 5.2573-4.0751 5.2573-8.4284.0269-1.05573-.1842-2.10396-.6175-3.06701-.4334-.96305-1.078-1.81622-1.8859-2.49627-.2643-.26426-.5286-.38943-.6537-.65369-2.2392-1.390818-5.2573-1.91933-9.20726-1.91933h-7.496523c-.40333752 0-.528511.264256-.264255.528512.264255.264256.389429.528508.389429 1.307368v23.64392c-.044464.4834-.176419.9547-.389429 1.3909-.264256.2642-.13908252.5285.389429.5285h5.396389v-9.9027h2.50347l1.71075 3.032 2.1001 3.6718 1.057 1.8498c1.1822 2.1001 2.3644 3.4214 4.3394 3.6856.2642 0 1.1822.2643 1.7107.2643h.3894c.7373-.0011 1.463-.1826 2.1141-.5285.0651-.0735.1535-.1226.2503-.1391.7928-.3894.5285-.7789.2643-.9179zm-12.89293-14.8679h-3.54659v-9.59667h3.54659c.70403-.07768 1.41643-.01305 2.09503.19004.6785.20308 1.3093.54048 1.8549.99216.407.27686.6911.70052.7928 1.1822.2798.7124.4123 1.47416.3894 2.23922.1391 1.18219 0 4.99305-5.13213 4.99305zm19.87483 3.9499h6.3143v-3.9499h-6.3143v-5.78582h9.5967v-3.81085h-14.9931v23.54657h14.8679v-3.9499h-9.6106v-6.0501z" fill="#1f304c"/></g></svg>