<svg fill="none" height="32" viewBox="0 0 172 32" width="172" xmlns="http://www.w3.org/2000/svg" xmlns:xlink="http://www.w3.org/1999/xlink"><clipPath id="a"><path d="m0 0h172v32h-172z"/></clipPath><g clip-path="url(#a)"><path d="m56.24 9.76-.48 2c-.08.4-.32.56-.8.48-.8-.24-1.6-.32-2.24-.32-1.2 0-4.08.4-4.08 3.92v11.68c0 .4-.32.64-.8.64h-2.32c-.4 0-.48-.16-.48-.64v-11.52c0-4.72 2.72-7.6 7.36-7.6 1.12 0 2.24.16 3.28.4.24.16.72.32.56.96zm19.2 1.04c1.92 1.84 2.96 4.4 2.96 7.6v.4c-.16.32-.4.4-.8.4h-15.76c.32 3.84 2.64 6.08 6.4 6.08 1.76 0 3.44-.56 4.56-1.6.32-.32.64-.32 1.04-.16l2 1.04c.16.08.32.24.32.48 0 .16 0 .32-.16.48-1.92 2.24-4.56 3.28-7.76 3.28-6.16 0-10.08-4.08-10.08-10.32s4-10.32 10.08-10.32c2.88.08 5.36.96 7.2 2.64zm-1.2 5.28c-.8-3.12-2.96-4.32-6.08-4.32s-5.28 1.52-6.08 4.32v.08h12.16zm47.84-7.12h-2.64c-.4 0-.72.32-.72.72v17.84c0 .4.32.72.72.72h2.64c.4 0 .72-.32.72-.72v-17.84c0-.4-.32-.72-.72-.72zm49.44-8.08v17.2c0 6.16-4 10.32-10 10.32-5.84 0-10-4.32-10-10.32 0-6.24 3.76-10.32 9.68-10.32h.32c2.64.08 5.04.72 6.56 2.4v-9.28c0-.4.32-.88.72-.88h2.32c.24 0 .4.48.4.88zm-3.52 17.2c-.16-4.4-2.4-6.8-6.4-6.8-4.08 0-6.4 2.48-6.4 6.8 0 4.24 2.4 6.8 6.4 6.8s6.4-2.56 6.4-6.8zm-63.68-9.84c-2.96 0-5.36 1.12-6.72 3.2-1.52-2.08-3.92-3.2-6.8-3.2-5.36 0-8.64 3.36-8.64 8.96v10.4c0 .4.4.64.88.64h2.32c.4 0 .88-.16.88-.64v-10.4c0-4.48 2.72-5.44 4.88-5.44 1.68 0 4.48 1.76 4.48 3.84v12c0 .4.32.64.72.64h2.64c.4 0 .72-.24.72-.64v-12c0-2.16 2.16-3.76 4.48-3.76 2.24 0 4.88.96 4.88 5.44v10.4c0 .4.56.64.96.64h2.32c.4 0 .8-.16.8-.64v-10.4c-.16-5.76-3.44-9.04-8.8-9.04zm33.44 0c-5.84 0-9.6 3.76-9.6 9.76v9.6c0 .4.48.64.96.64h2.32c.4 0 .8-.16.8-.64v-9.6c0-5.44 4-5.68 5.6-5.76 1.52.08 5.6.32 5.6 5.76v9.6c0 .4.32.64.8.64h2.32c.4 0 .96-.16.96-.64v-9.6c-.16-6.08-3.92-9.76-9.76-9.76zm-107.28-1.2c-2.24-2.88-6.48-4.8-11.36-4.8-6 0-11.04 2.88-12.56 6.88-3.84 1.36-6.56 4.96-6.56 9.28 0 5.44 4.4 9.84 9.84 9.84 1.92 0 3.68-.56 5.2-1.52l.48 4.32c.08.96 1.36 1.36 2 .56l4.24-5.68c.32.08.64.08.96.08 2.72 0 4.96-1.68 5.92-4.08 4.64-.24 8.32-3.52 8.32-7.6 0-3.44-2.8-6.4-6.48-7.28z" fill="#1f304c"/></g></svg>