<svg fill="none" height="30" viewBox="0 0 155 30" width="155" xmlns="http://www.w3.org/2000/svg" xmlns:xlink="http://www.w3.org/1999/xlink"><clipPath id="a"><path d="m0 0h154.225v30h-154.225z"/></clipPath><g clip-path="url(#a)" fill="#1f304c"><path d="m142.189 0c8.266 0 12.036 5.89223 12.036 9.9492v19.11h-5.837v-3.0389s-4.055 3.9753-9.413 3.9753c-4.591 0-10.026-2.3719-10.026-9.1078 0-7.5088 8.266-9.1056 11.705-9.1056 3.438 0 7.729 1.3008 7.729 1.3008v-1.9147c0-1.91256-2.754-5.05081-7.27-5.05081-2.762.02017-5.482.6753-7.95 1.91475l-1.836-5.053s3.898-2.97924 10.862-2.97924zm-.075 15.9938c-4.822 0-6.889 1.875-6.889 4.5164 0 1.3781.46 4.5914 5.663 4.5914s7.425-3.8251 7.425-5.4329v-2.4492s-2.374-1.2257-6.199-1.2257z"/><path d="m109.134.680218v28.378982h6.328v-19.39047c0-2.34761 3.878-4.08127 6.121-4.08127 2.244 0 4.186 1.73366 4.186 1.73366l2.754-5.10159c-2.007-1.410547-4.394-2.1804805-6.847-2.2084826-3.975 0-7.855 3.2398426-7.855 3.2398426z"/><path d="m0 .680951v28.378949h6.3273v-19.39043c0-2.34762 3.8759-4.08128 6.1219-4.08128s4.1829 1.73366 4.1829 1.73366l2.7562-5.10159c-2.0068-1.410545-4.3936-2.1804781-6.8463-2.2084802-3.9753 0-7.85781 3.2398402-7.85781 3.2398402z"/><path d="m104.894 15c0 8.3414-6.7622 14.7968-15.1037 14.7968-8.3414 0-15.1082-6.4554-15.1082-14.7968 0-8.34143 6.7624-14.796814 15.1016-14.796814 8.3393 0 15.1103 6.455384 15.1103 14.796814zm-15.1037-9.17623c-5.1722 0-8.7544 4.00397-8.7544 9.17623 0 5.1723 3.5822 9.1762 8.7544 9.1762 5.1723 0 8.7567-4.0039 8.7567-9.1762 0-5.17226-3.5822-9.17623-8.7567-9.17623z"/><path d="m24.5893 17.1224c0 3.4828 3.8759 7.3675 8.4276 7.3675 4.5516 0 7.6546-3.4055 7.6546-3.4055l3.9576 3.5623c-1.4387 1.6324-3.2109 2.9369-5.1971 3.8254s-4.14 1.3403-6.3158 1.3248c-8.3392 0-15.1016-6.4554-15.1016-14.7969 0-8.34138 6.1485-14.9491577 14.4855-14.9491577 8.7014 0 13.2729 7.6015877 13.2729 15.2164577.0006.6186-.037 1.2367-.1126 1.8507zm7.4912-11.63869c-6.3141 0-7.4227 6.60119-7.4227 7.51989h14.4832c0-.9762-.7465-7.51989-7.0605-7.51989z"/><path d="m50.0659.662537h22.8821l-.9938 6.046823-15.4594 17.46684h16.4532l-1.1484 4.883-23.4187-.0795.5366-4.8035 15.6891-17.77382h-15.8415z"/></g></svg>