<svg fill="none" height="32" viewBox="0 0 200 32" width="200" xmlns="http://www.w3.org/2000/svg" xmlns:xlink="http://www.w3.org/1999/xlink"><clipPath id="a"><path d="m0 0h200v31.6206h-200z"/></clipPath><g clip-path="url(#a)" fill="#1f304c"><path d="m17.5494 7.11462c-3.2411-3.63636-7.1146-5.21739-6.9565-4.82213.2371.94861-2.76683 6.71936-2.76683 6.71936-7.98419 11.38345 7.11463 21.66005 8.37943 22.52965-.7114-1.502-7.82607-16.8379 1.3439-24.42688z" opacity=".75"/><path d="m16.2055 31.6205s-10.03949-20.079 4.8222-26.71934c0 0 6.245-3.87352 6.5612-4.90118867.3953-1.02767133 15.0198 20.86952867-11.3834 31.62052867z" opacity=".5"/><path d="m5.92889 12.5692c-3.32015-.8696-6.166004-.5534-5.92884981-.3953.55335981.6324.71146281 6.087.71146281 6.087-1.422925 12.2529 15.494097 13.3597 15.494097 13.3597v-.0791c-1.0277-.6324-13.35971-9.0119-10.27671-18.9723zm41.73911 12.2529c0 1.6601-.7114 3.083-2.0553 4.1898-1.2648 1.1067-2.7668 1.66-4.4269 1.66-.8696 0-1.7391-.2371-2.6877-.6324-.7905-.3952-1.6601-.8695-2.4506-1.2648l-.2372-3.3992h.5534c.079 1.2648.5533 2.2925 1.4229 3.0039.8696.7115 1.8972 1.1068 3.1621 1.1068 1.1067 0 1.9762-.4743 2.6087-1.3439.5533-.7905.8695-1.7391.8695-2.9249 0-2.0553-.7905-3.7945-2.2925-5.3755-1.4229-1.1858-2.7668-2.4506-4.1897-3.6364-1.502-1.5019-2.2925-3.162-2.2925-5.1383 0-1.66009.7115-3.00396 2.0554-4.18973 1.3438-1.02767 2.7667-1.58103 4.4268-1.58103 1.7392 0 3.004.39526 3.9526 1.26482l.3162 4.03164h-.5534c-.079-1.50199-.3162-2.45061-.6324-3.00397-.4743-.79051-1.3438-1.18577-2.7668-1.18577-1.1067 0-1.9762.47431-2.6087 1.34387-.6324.79052-.8695 1.73913-.8695 2.92487 0 1.7392.7905 3.3992 2.2925 4.8222 1.4229 1.1857 2.8458 2.4506 4.2687 3.6363 1.3439 1.7392 2.1344 3.6364 2.1344 5.6917zm15.4941-5.5336h-10.6719c0 .0791.079.8696.1581 2.3716.1581 1.9763.4743 3.6363 1.1067 4.9012.8695 1.8181 2.1344 2.7668 3.7945 2.7668.7905 0 1.581-.2372 2.3715-.7115s1.4229-1.1067 1.8972-1.8972l.7905.3952c-1.4229 2.2925-3.5573 3.3992-6.5612 3.3992-2.2925 0-4.0316-1.0276-5.2965-3.0039-1.1067-1.7392-1.66-3.7945-1.66-6.166 0-2.6087.6324-4.9012 1.8972-6.8775 1.4229-2.2925 3.3992-3.3992 5.9288-3.3992 1.9763 0 3.5574.9486 4.7431 2.8458.9486 1.423 1.502 3.3202 1.502 5.3755zm-2.2134-1.1857c0-.3162-.1581-1.0277-.3953-2.2135-.5534-2.6087-1.6601-3.9525-3.3992-3.9525s-3.083 1.4229-3.9526 4.2687c-.1581.4743-.3162 1.1068-.5533 1.8973zm17.9446 12.2529c-1.502-.079-2.3715-.079-2.5296-.079-.2372 0-1.1067 0-2.8459.079v-.3952c.7905 0 1.1067-.2372 1.1067-.8696v-12.8063c0-1.1067-.2371-1.9763-.7114-2.7668-.5534-.8696-1.3439-1.3439-2.3716-1.3439-.9486 0-1.7391.3953-2.3715 1.1067-.6324.7905-.8696 1.5811-.7905 2.5297.079.7905.1581 1.502.1581 2.2134v11.1463c0 .5533.3162.8695 1.0277.8695v.3953c-1.6601-.0791-2.5297-.0791-2.6878-.0791-.2371 0-1.1067 0-2.6877.0791v-.3953c.7114 0 1.1067-.2371 1.1067-.8695v-15.8103c0-.3162-.0791-.4743-.2372-.6324-.079 0-.2371-.0791-.6324-.2372-.2371-.079-.3952-.1581-.3952-.2371 0-.0791.1581-.1581.3952-.2372.6324-.079 1.9763-.3952 4.1897-.9486 0 .6324-.079 1.502-.1581 2.6877.1581-.6324.5534-1.2648 1.1858-1.7391.8696-.7115 1.9763-1.0277 3.2411-1.0277 1.3439 0 2.5297.3953 3.4783 1.1858 1.0276.9486 1.581 2.1344 1.581 3.6364v13.3597c0 .5533.3162.8695 1.0277.8695zm6.4032 0c-1.6601-.079-2.5297-.079-2.7668-.079-.1581 0-1.0277 0-2.6878.079v-.3952c.7906 0 1.1068-.3162 1.1068-.8696v-15.7312c0-.3162-.0791-.5534-.2372-.6324-.079 0-.3162-.0791-.7115-.2372-.2371-.079-.3952-.1581-.3952-.2371 0-.0791.1581-.1581.3952-.2372.7115-.079 2.0554-.3952 4.1898-.9486v18.0237c0 .5534.3162.8696 1.0276.8696zm16.1265-9.8814c0 3.1621-.474 5.6127-1.502 7.3518-.7115 1.1858-1.7391 1.9763-2.9249 2.3715-1.1858.3953-2.4506.6324-3.6364.6324-2.5296 0-4.2687-1.1857-5.2964-3.5573-.6324-1.581-1.0277-3.8735-1.0277-6.7984 0-2.5296.2372-4.4269.6324-5.5336.6324-1.7391 1.9763-3.0039 3.9526-3.6364 1.3439-.4743 2.4506-.6324 3.5573-.6324 4.1897-.1581 6.2451 3.1621 6.2451 9.8024zm-3.083.9486v-.5533c0-1.423-.1581-2.7668-.3953-3.8736-.3162-1.3438-.7115-2.5296-1.3439-3.4782-.8695-1.2648-1.8181-1.8972-3.0039-1.8972-.3953 0-.8696.079-1.2648.2371-1.3439.5534-1.9763 3.2411-1.9763 7.9842 0 6.5613 1.502 9.8024 4.4269 9.8024.4743 0 .9486-.0791 1.3438-.2372 1.502-.3952 2.2135-3.083 2.2135-7.9842zm16.047-8.5375c0 .3162-.079.5533-.316.7905-.237.2371-.474.3162-.711.3162-.475 0-.791-.3162-1.028-.8696-.158-.3162-.237-.5533-.316-.6324-.158-.2371-.316-.3162-.554-.3162-1.185-.079-2.292.7905-3.241 2.6087-.948 1.6601-1.343 3.083-1.185 4.2688.079.7114.158 1.4229.158 2.1344v7.9842c0 .5533.316.8695 1.027.8695v.3953c-1.66-.0791-2.529-.0791-2.766-.0791-.238 0-1.107 0-2.688.0791v-.3953c.711 0 1.107-.2371 1.107-.8695v-15.8103c0-.3162-.079-.5534-.238-.6324l-.711-.2372c-.237-.079-.316-.1581-.316-.2371 0-.0791.158-.1581.395-.2372.632-.079 2.055-.3952 4.19-.9486v2.2925c0 .5533-.079 1.2648-.158 2.1344 1.264-3.1621 2.845-4.7431 4.743-4.7431.632 0 1.185.2371 1.818.6324.553.4743.79.9486.79 1.502zm17.708-6.95655c-.316 0-.633.07905-.949.31621-.316.23715-.474.47431-.474.79051v21.66013c0 .3162.158.5533.395.7905.316.2371.554.3162.87.3162v.3952c-1.739-.079-2.688-.079-2.925-.079s-1.186 0-3.004.079v-.3952c.316 0 .632-.0791.949-.3162.316-.2372.474-.4743.474-.7905v-8.2214c0-.6324.079-1.581.158-2.6877h-9.407c.079 1.0276.158 1.8972.158 2.6877v8.2214c0 .3162.158.5533.395.7905.316.2371.554.3162.87.3162v.3952l-2.846-.079c-.237 0-1.186 0-3.004.079v-.3952c.316 0 .632-.0791.949-.3162.316-.2372.474-.4743.474-.7905v-21.66013c0-.3162-.158-.55336-.395-.79051-.317-.23716-.554-.31621-.87-.31621v-.39526l2.925.07906c.237 0 1.186 0 2.925-.07906v.39526c-.316 0-.633.07905-.949.31621-.316.23715-.474.47431-.474.79051v7.50993c0 .7114-.079 1.581-.158 2.5296h9.407c-.079-1.0277-.158-1.9763-.158-2.7668v-7.27273c0-.3162-.158-.55336-.395-.79051-.317-.23716-.554-.31621-.87-.31621v-.39526l3.004.07906c.237 0 1.186 0 2.846-.07906zm16.284 14.30835c0 3.162-.474 5.6126-1.501 7.3517-.712 1.1858-1.74 1.9763-2.925 2.3716-1.186.3952-2.451.6324-3.637.6324-2.529 0-4.269-1.1858-5.296-3.5573-.633-1.5811-1.028-3.8735-1.028-6.7984 0-2.5297.237-4.4269.633-5.5336.632-1.7392 1.976-3.004 3.952-3.6364 1.344-.4743 2.451-.6324 3.557-.6324 4.19-.0791 6.245 3.2411 6.245 9.8024zm-3.083 1.0276v-.5533c0-1.423-.158-2.7668-.395-3.8736-.316-1.3438-.711-2.5296-1.344-3.4782-.869-1.2648-1.818-1.8973-3.004-1.8973-.395 0-.869.0791-1.264.2372-1.344.5534-1.977 3.2411-1.977 7.9842 0 6.5613 1.502 9.8024 4.427 9.8024.474 0 .949-.0791 1.344-.2372 1.502-.3952 2.213-3.083 2.213-7.9842zm25.85 8.9328c-1.502-.079-2.371-.079-2.529-.079-.237 0-1.107 0-2.846.079v-.3952c.711 0 1.107-.2372 1.107-.8696v-12.8854c0-1.0276-.159-1.8972-.475-2.6877-.474-1.0277-1.107-1.581-1.976-1.581-.791 0-1.344.4743-1.739 1.4229-.316.7114-.475 1.502-.475 2.3715v13.3597c0 .5534.317.8696 1.028.8696v.3952c-1.581-.079-2.45-.079-2.609-.079-.237 0-1.106 0-2.766.079v-.3952c.711 0 1.106-.2372 1.106-.8696v-12.8854c0-1.0276-.158-1.8972-.395-2.6087-.395-1.0276-1.028-1.581-1.897-1.581-.87 0-1.581.4743-2.134 1.502-.475.8695-.633 1.7391-.554 2.6087.079.7114.158 1.4229.158 2.1344v10.83c0 .5534.316.8696 1.028.8696v.3952c-1.581-.079-2.451-.079-2.688-.079s-1.107 0-2.767.079v-.3952c.791 0 1.107-.2372 1.107-.8696v-15.7312c0-.3162-.079-.4743-.316-.6324l-.712-.2372c-.237-.079-.395-.1581-.395-.2371 0-.0791.158-.1581.395-.2372.633-.079 2.056-.3953 4.269-.9486 0 .2371-.079.9486-.158 2.1344.158-.3162.395-.6324.791-1.0277.79-.8696 1.897-1.2648 3.162-1.2648.869 0 1.581.2371 2.213.7114.553.3953.949.9487 1.028 1.5811.395-.6324.948-1.1858 1.581-1.5811.869-.5533 1.818-.8695 2.767-.8695 1.343 0 2.45.4743 3.32 1.502.79.9486 1.186 2.0553 1.186 3.4782v13.3597c0 .5534.316.8696 1.027.8696v.3952zm15.257-11.0672h-10.672c0 .0791.079.8696.158 2.3716.158 1.9763.475 3.6363 1.107 4.9012.87 1.8181 2.134 2.7668 3.795 2.7668.79 0 1.581-.2372 2.371-.7115.791-.4743 1.423-1.1067 1.897-1.8972l.791.3952c-1.423 2.2925-3.557 3.3992-6.561 3.3992-2.293 0-4.032-1.0276-5.297-3.0039-1.107-1.7392-1.66-3.7945-1.66-6.166 0-2.6087.632-4.9012 1.897-6.8775 1.423-2.2925 3.4-3.3992 5.929-3.3992 1.976 0 3.557.9486 4.743 2.8458.949 1.423 1.502 3.2411 1.502 5.3755zm-2.292-1.1857c0-.3162-.158-1.0277-.396-2.2135-.553-2.6087-1.66-3.9525-3.399-3.9525s-3.083 1.4229-3.952 4.2687c-.158.4743-.317 1.1067-.554 1.8973zm15.178 6.8774c0 1.5811-.633 2.9249-1.977 4.1107-1.265 1.1067-2.687 1.6601-4.268 1.6601-.87 0-1.661-.1581-2.53-.4743-.237-.0791-1.028-.4743-2.293-1.1067l-.237-3.3993h.554c.158 2.4506 1.502 3.6364 4.031 3.6364.87 0 1.66-.3162 2.451-.9486.711-.6324 1.107-1.4229 1.107-2.2925 0-1.1067-.396-2.0553-1.107-2.7668-.474-.4743-1.344-.9486-2.688-1.6601-1.502-.7114-2.53-1.4229-3.162-2.1344-.79-.8695-1.186-2.0553-1.186-3.5573 0-1.5019.633-2.8458 1.897-3.9525 1.186-1.0277 2.609-1.502 4.111-1.502s2.767.2371 3.795.6324l.316 4.0316h-.554c-.079-1.1858-.316-2.0553-.711-2.6087-.474-.6324-1.344-.8695-2.53-.8695-.869 0-1.581.3162-2.213.9486s-.949 1.3438-.949 2.2134c0 1.0277.317 1.8972.949 2.6087.474.4743 1.265 1.0277 2.371 1.581 1.819.8696 3.004 1.5811 3.479 2.0554.869.9486 1.344 2.2134 1.344 3.7944zm-114.8621-22.21341c-.079.23716-1.7391 1.10672-1.7391 1.10672-3.8735 1.42293-1.6601 6.56129-1.6601 6.56129 6.7194-2.21346 3.4783-7.90516 3.3992-7.66801z"/></g></svg>