<svg fill="none" height="40" viewBox="0 0 141 40" width="141" xmlns="http://www.w3.org/2000/svg" xmlns:xlink="http://www.w3.org/1999/xlink"><clipPath id="a"><path d="m0 0h141v40h-141z"/></clipPath><g clip-path="url(#a)"><path d="m41.5 28.1c.9.4 2.4 1.1 3.9 1 1.3 0 2.1-.7 2.1-1.6s-.5-1.4-2-2.3c-1.8-1-3.1-2.5-3.1-4.4 0-3.3 2.9-5.7 7-5.7 1.8 0 3.2.3 4 .8l-1.1 3.4c-.7-.3-1.7-.7-3-.7s-2.2.6-2.2 1.6c0 .8.6 1.3 1.8 2 1.9 1.1 3.4 2.5 3.4 4.5 0 3.8-3.1 5.9-7.3 5.9-2 0-3.8-.6-4.7-1.2zm11.8 4.3 4.6-24.30001h4.7l-1.8 9.50001h.1c1.3-1.5 2.9-2.5 5-2.5 2.5 0 3.9 1.6 3.9 4.3 0 .8-.1 2.1-.3 3.1l-1.9 9.8h-4.7l1.8-9.5c.1-.7.2-1.4.2-2.1 0-1-.4-1.8-1.5-1.8-1.5 0-3.1 1.9-3.7 5.1l-1.6 8.3h-4.8zm33.7-10.6c0 5.9-3.8 10.9-9.4 10.9-4.3 0-6.5-3-6.5-6.6 0-5.7 3.8-10.9 9.5-10.9 4.4 0 6.4 3.2 6.4 6.6zm-11.1 4.2c0 1.7.7 3.1 2.3 3.1 2.5 0 3.9-4.5 3.9-7.4 0-1.4-.6-2.9-2.2-2.9-2.6 0-4 4.4-4 7.2zm10 13.1 3.3-17.4c.4-2 .8-4.6 1-6.3h4.2l-.3 2.6h.1c1.3-1.8 3.1-2.8 5-2.8 3.5 0 4.9 2.9 4.9 6.1 0 5.8-3.6 11.5-9.2 11.5-1.2 0-2.2-.3-2.8-.6h-.1l-1.3 7h-4.8zm6.8-10.7c.5.4 1.1.7 2 .7 2.6 0 4.5-4.4 4.5-7.4 0-1.3-.4-2.6-1.9-2.6-1.7 0-3.2 2-3.7 4.9zm11.5 4 3.2-16.8h4.8l-3.2 16.8zm6.1-18.9c-1.3 0-2.2-1-2.2-2.4 0-1.50001 1.2-2.80001 2.7-2.80001 1.4 0 2.4 1 2.4 2.40001 0 1.8-1.3 2.8-2.9 2.8zm2.7 18.9 2.5-13.3h-2.2l.7-3.6h2.2l.1-.8c.4-2 1.1-4 2.8-5.40001 1.3-1.1 3-1.6 4.6-1.6 1.2 0 2 .2 2.6.4l-.9 3.70001c-.4-.1-.9-.2-1.5-.2-1.6 0-2.5 1.4-2.8 3.1l-.2.8h3.3l-.7 3.6h-3.3l-2.5 13.3zm17.1-16.9.8 7.6c.2 1.7.3 2.9.4 4h.1c.4-1.1.7-2.2 1.4-4l2.9-7.5h5l-5.9 12.4c-2.1 4.3-4.1 7.4-6.2 9.4-1.7 1.6-3.7 2.4-4.6 2.6l-1.3-4c.8-.3 1.8-.7 2.7-1.3 1.1-.8 2-1.8 2.6-2.9.1-.2.2-.4.1-.8l-2.9-15.4h4.9zm-106.7-10.80001-1.2.4c-.5-1.5-1.2-2.6-2.1-3.3-.7-.5-1.4-.7-2.2-.6-.2-.200002-.3-.400002-.5-.600002-.9-.7-2-.8-3.3-.3-4 1.500002-5.7 6.700002-6.3 9.200002l-3.5 1.10001s-.8.2-1 .5c-.3.2-.3.9-.3.9l-3 22.9 22.2 4.2 1.8-34.40001c-.3-.1-.5 0-.6 0zm-5.6 1.7-3.9 1.2c.5-2 1.5-4.1 3.4-4.8.4 1 .5 2.4.5 3.6zm-3.3-4.8c.8-.3 1.4-.3 1.9 0-2.5 1.1-3.6 4-4.1 6.5l-3.1 1c.7-2.5 2.3-6.4 5.3-7.5zm2.2 16.80001-.6-.3c-.2-.1-.5-.2-.8-.2-.3-.1-.6-.1-.9-.2h-1c-.3 0-.6.1-.9.2-.2.1-.5.2-.6.4-.2.2-.3.3-.4.5s-.2.4-.2.7c0 .2 0 .4.1.6s.2.4.3.5c.1.2.3.3.5.5s.5.4.8.6c.4.3.9.6 1.3.9l1.2 1.2c.3.5.6 1 .8 1.6s.3 1.2.3 2c-.1 1.2-.3 2.2-.7 3s-1 1.5-1.7 1.9c-.7.5-1.5.7-2.3.9-.8.1-1.7.1-2.6-.1-.4-.1-.8-.2-1.2-.4s-.7-.3-1.1-.5l-.9-.6c-.3-.2-.5-.4-.6-.6l1-3.4c.2.1.4.3.6.5s.5.3.8.5.6.3.9.4.7.2 1 .3h.8c.2-.1.4-.1.6-.3.2-.1.3-.3.4-.5s.1-.4.1-.6 0-.5-.1-.7l-.3-.6c-.1-.2-.3-.4-.5-.6s-.5-.4-.8-.7c-.4-.3-.8-.6-1.1-.9s-.6-.7-.8-1.1-.4-.8-.5-1.3-.2-1-.1-1.5c0-.9.2-1.7.5-2.5s.7-1.4 1.3-2 1.2-1.1 2-1.5 1.7-.7 2.7-.8c.5-.1.9-.1 1.3-.1s.8 0 1.2.1c.4 0 .7.1 1 .2s.6.2.8.3zm2.4-12.40001v-.5c0-1.2-.2-2.2-.5-3 .3 0 .6.1.8.3.7.5 1.2 1.5 1.6 2.6zm11.5 1.6s0-.2-.1-.2c-.1-.1-.2-.1-.2-.1l-3.1-.2-2.3-2.3c-.1-.1-.2-.1-.3-.1l-1.7 34.40001 12.1-2.6z" fill="#1f304c"/></g></svg>