<svg fill="none" height="28" viewBox="0 0 187 28" width="187" xmlns="http://www.w3.org/2000/svg"><path clip-rule="evenodd" d="m29.2366 8.16789v-.00178c-.1955-.3332-.4689-.62186-.8057-.83924l-12.4971-7.059596c-.7207-.3563653-1.5699-.3563653-2.2923 0l-12.49536 7.070286c-.331346.21204-.601133.49535-.798494.8232l-.009054-.00712c-.11226.18709-.188308.38843-.2426273.59513-.0506983.17283-.0851008.35102-.0959647.53454v15.42879l4.70589-2.6638.52147-.2958.01629-.0089-.01629-10.7996 8.41414-4.76106c.7097-.40448 1.5843-.40448 2.2923 0l8.4159 4.76106v10.805l-8.4159-4.7629c-.3531-.1835-.746-.2761-1.1462-.2672-.4001-.0089-.7931.0837-1.1461.2672l-8.39785 4.7575-.01629.0089v.0107l-5.21830673 2.9543 5.21830673 2.9471 8.41414-4.7628c.7116-.4009 1.5825-.4009 2.2923 0l8.4159 4.7628 5.2129-2.9507-5.2129-2.9507v-.0071l5.2201 2.9525-.0072.0053.0144.0072v-.009-15.4377c-.0181-.38487-.1303-.75905-.3331-1.09047-.0018-.00535-.0036-.01248-.0073-.01604zm75.5364 3.45321c-.986.5149-1.917 1.1243-2.779 1.821l-1.249-2.646h-2.0245v16.0364h3.7775v-10.217c.898-.7929 1.895-1.47 2.967-2.017.867-.4918 1.838-.7751 2.836-.8285l-.775-2.9739c-.971.0499-1.916.335-2.753.825zm-12.9964 7.938h-3.6828c-.7152-.0445-1.4178.2103-1.932.7003s-.7931 1.1706-.7677 1.8727c-.0018.5666.2317 1.11.6446 1.5092.4689.4383 1.1045.6664 1.7527.629.7279-.0072 1.4431-.1782 2.0931-.4972.708-.3367 1.3489-.7947 1.8921-1.3542zm2.8645-6.3665c.6066.8589.9252 1.8816.9125 2.9276v10.7248h-2.533l-.5722-1.6179c-.6337.5969-1.3634 1.0887-2.1601 1.454-.7569.3617-1.5862.5523-2.4299.5612-1.8867 0-3.319-.4632-4.2985-1.3916-.9814-.9265-1.4703-2.1613-1.4667-3.7026 0-1.6072.5559-2.8509 1.6695-3.7347 1.1135-.8802 2.5747-1.3257 4.4017-1.3257h3.576c-.0452-2.2237-1.0339-3.3373-2.9676-3.3373-1.6351.0285-3.2465.3937-4.7277 1.0762l-1.0429-3.038c.8456-.474 1.7618-.809 2.7178-.9925.9759-.253 1.9772-.3956 2.9858-.4312 1.195-.0125 2.381.2477 3.4547.7608.9977.4651 1.8523 1.1778 2.4806 2.0669zm-19.9063-2.9275c-1.0176.0267-2.0207.253-2.9496.6628-1.0828.4473-2.0985 1.0371-3.0184 1.7498-.7876-1.609-2.285-2.4126-4.4904-2.4126-1.023.0285-2.0315.253-2.9676.6628-1.0919.4508-2.1149 1.0513-3.0329 1.7854l-.6772-1.9172h-2.5295v16.0275h3.797v-11.2077c1.8143-1.4735 3.3153-2.2094 4.5049-2.2094.8311-.0125 1.4195.2637 1.769.8267.3458.5649.5197 1.3952.5197 2.4964v10.094h3.8132v-10.6464c.0036-.2334-.0091-.4651-.0344-.6949.7297-.5738 1.5083-1.0834 2.3267-1.5235.6283-.3492 1.3362-.5416 2.0587-.5612.8311 0 1.4232.2815 1.7708.8445.3495.5649.5251 1.3952.5251 2.4964v10.094h3.8096v-10.6464c0-1.8745-.4219-3.3284-1.2656-4.3655-.8438-1.037-2.1511-1.5555-3.9291-1.5555zm-24.8802 5.8711c-1.1172-.7127-2.2815-1.3577-3.4819-1.9279-1.3689-.686-2.3738-1.2117-3.0184-1.5769-.5921-.3243-1.1172-.752-1.5517-1.2616-.3875-.4615-.5957-1.0406-.5867-1.63747-.0344-.8036.3947-1.55731 1.1118-1.94931.8745-.47397 1.8686-.70382 2.868-.66284.8366-.01604 1.6731.08909 2.477.31538.8148.25124 1.6097.55949 2.3792.92299l1.2874-2.9418c-.9796-.47396-2.0008-.85528-3.0546-1.13859-1.0465-.294-2.1293-.44367-3.2175-.44902-1.4087-.03207-2.8065.23342-4.1012.78044-1.07.44724-1.9935 1.17957-2.6652 2.11325-1.4486 2.18452-1.1697 5.06217.6753 6.93847 1.0683 1.053 2.6581 2.1043 4.7747 3.1556 1.2675.6183 2.2326 1.1136 2.8971 1.4878.612.3332 1.1624.7591 1.6368 1.2615.411.4295.6392.9925.6428 1.5787.0272.8589-.4255 1.6643-1.1806 2.1008-.7876.4954-1.9192.7448-3.4076.7448-1.0067-.0125-2.0062-.1693-2.9677-.4633-.9397-.2637-1.8541-.6076-2.7304-1.0263l-.8474 2.9756c.583.4206 1.5897.8233 3.0183 1.2081 1.1607.3457 2.3611.5399 3.5725.5791 1.5571.0357 3.107-.2281 4.5592-.7786 1.1606-.4277 2.1692-1.1814 2.897-2.165.6501-.9336.9887-2.0437.9651-3.1752.0236-1.0227-.2625-2.0295-.8238-2.8937-.5613-.8338-1.2838-1.5537-2.1275-2.115zm134.4514 7.7189c-.528.2441-1.102.3795-1.687.3973-.686.0464-1.351-.2459-1.773-.7804-.422-.6058-.628-1.3328-.588-2.0651v-7.6405h4.115l-1.149-2.8385h-2.966v-4.663l-3.777.7252v3.9414h-2.253v2.8385h2.253v8.2641c0 1.7444.516 3.079 1.55 4.0037 1.035.9248 2.462 1.3881 4.282 1.3881.556-.0089 1.108-.0927 1.64-.2495.491-.1229.966-.3189 1.4-.5773zm-66.288.3973c-.688.0464-1.352-.2459-1.774-.7804-.42-.6076-.626-1.3328-.588-2.0651v-7.6405h4.113l-1.146-2.8385h-2.967v-4.663l-3.779.7252v3.9414h-2.253v2.8385h2.253v8.2641c0 1.7444.516 3.079 1.551 4.0037 1.034.9248 2.463 1.3881 4.284 1.3881.554-.0089 1.107-.0927 1.637-.2495.495-.1229.965-.3172 1.4-.5773l-1.047-2.744c-.527.2441-1.101.3795-1.684.3973zm16.032-12.9556c0-1.36668-.427-2.34847-1.287-2.9436-.857-.59513-2.084-.89448-3.681-.89448h-3.003v7.56918h2.945c1.501 0 2.716-.2975 3.644-.8927.926-.5951 1.386-1.5413 1.382-2.8384zm.043 5.7464 5.699 9.7804h-4.102l-4.988-8.8432c-.617.0766-1.238.1087-1.859.098h-2.764v8.763h-3.778v-22.49553h6.844c2.633 0 4.771.56841 6.411 1.70343 1.641 1.1368 2.468 2.82776 2.477 5.0764.035 1.2829-.342 2.5427-1.075 3.6029-.721 1.0156-1.713 1.8174-2.865 2.3146zm17.256.2655c-.199-1.2348-.617-2.1703-1.251-2.81-.668-.6503-1.586-.9925-2.528-.9479-.974-.0392-1.921.3207-2.613.9942-.711.7645-1.144 1.7355-1.236 2.7637h.003zm1.794-4.5954c1.246 1.5645 1.863 3.5619 1.856 5.9941l-.011 1.0798h-11.334c.336 2.8669 2.08 4.3013 5.231 4.3013.795.0125 1.588-.1051 2.344-.3474.85-.303 1.677-.6611 2.479-1.0763l1.145 2.7137c-1.766 1.2188-3.877 1.8656-6.039 1.8514-2.969 0-5.236-.7555-6.795-2.2647-1.561-1.511-2.342-3.5655-2.345-6.1669-.033-1.5271.297-3.038.965-4.4172.608-1.2294 1.568-2.2576 2.763-2.9578 1.298-.7306 2.774-1.0958 4.271-1.0584 2.403 0 4.228.784 5.47 2.3484zm17.938-.7768c.859 1.1154 1.286 2.6424 1.288 4.581v10.315h-3.819v-10.094c0-2.2273-.844-3.3409-2.531-3.3409-1.369 0-2.966.7358-4.787 2.2076v11.2273h-3.778v-16.0364h2.528l.674 1.9172c.938-.7448 1.984-1.347 3.105-1.7854 1.005-.4169 2.08-.6414 3.17-.6628 1.911 0 3.296.5577 4.15 1.6714z" fill="#1f304c" fill-rule="evenodd"/></svg>