<svg fill="none" height="36" viewBox="0 0 200 36" width="200" xmlns="http://www.w3.org/2000/svg" xmlns:xlink="http://www.w3.org/1999/xlink"><clipPath id="a"><path d="m0 0h200v35.2423h-200z"/></clipPath><g clip-path="url(#a)"><path d="m41.4978 17.3568c-4.229-6.8722-5.1982-1.3216-9.6916-8.81054-3.5242-5.90308-9.2511-9.86784-11.63-8.193833 2.5551.792953 9.163 6.167403 11.1895 11.365673-1.7621-3.25995-12.4229-11.71809629-14.0969-10.39651-1.3216 1.05727 5.6387 7.57709 11.1894 10.39651-.1762.4405-.6168 1.3216-2.6432 1.3216-2.3788 0-5.4625-4.40533-11.9824-4.40533-3.7885 0-7.66516 1.58593-10.30833 4.58153-.61674-.4406-2.29075-.7049-3.171809.7929-.881057 1.3216.088105 2.9075.881059 3.2599-.440531 1.4097-.792954 2.9075-.792954 4.6696 0 8.5463 7.048454 13.2159 13.215834 13.304 2.467.0881 4.9339-.793 6.7842-1.8502 2.7312-1.4097 3.7004-3.2599 3.1718-4.4053-.5287-1.1454-3.348-.8811-6.0793 0 3.1718-2.7313 3.5242-7.489.7048-10.6608s-7.489-3.5242-10.66077-.7049c-1.4978 1.3216-2.46696 3.1719-2.55507 5.1983-.44053-4.4934 2.90749-8.5463 7.48904-8.9868 4.4933-.4405 8.5462 2.9075 8.9867 7.489.1762 2.0264-.4405 4.141-1.674 5.7269 1.3216-.5287 2.3789-1.4097 3.2599-2.467 4.141 4.5815 9.4273 4.6696 9.6036 2.9075.1762-2.0264-5.1102-.6168-5.1983-5.9031.4406.7049 1.2335.4405 1.3216.3524.3524-.1762.7049-.6167.5286-1.0572 2.2908 2.2907 4.4934 2.4669 7.6652 2.2907 4.5815-.3524 6.4318-2.5551 4.4934-5.815zm-3.9647.0881c-.6168 0-1.1454-.4405-1.2335-1.0572-.0881-.6168.2643-1.0573.8811-1.0573.6167 0 1.1453.4405 1.2334 1.0573.1762.5286-.2643 1.0572-.881 1.0572zm107.9299 10.9252h-2.996c-1.762 0-1.762-1.7622-1.762-1.7622h-.088c-.793 1.5859-2.82 2.2908-4.67 2.2908-5.11 0-8.106-3.9648-8.106-8.6344 0-5.2863 3.789-8.5462 8.106-8.5462 2.643 0 4.141 1.3216 4.67 2.2026h.088s0-1.7621 1.674-1.7621h3.084zm-8.723-3.9648c2.996 0 4.053-2.5551 4.053-4.141 0-1.9383-1.322-4.0528-4.053-4.0528s-3.965 2.2907-3.965 4.1409c-.088 1.4978 1.058 4.0529 3.965 4.0529zm14.273-17.44494h1.41v6.60794c1.762-1.8502 4.053-1.8502 4.67-1.8502 3.348 0 7.929 2.3788 7.929 8.4581 0 5.815-4.053 8.7225-8.106 8.7225-2.29 0-3.964-1.1454-4.581-2.2908h-.088v1.7622h-4.582v-18.0617c0-3.34804 3.348-3.34804 3.348-3.34804zm5.11 17.44494c2.467 0 4.053-2.0264 4.053-4.141 0-2.1145-1.586-4.0528-3.965-4.0528-2.555 0-3.964 2.0264-3.964 4.0528 0 2.2027 1.498 4.141 3.876 4.141zm13.481-17.44494h1.409v6.60794c1.762-1.8502 4.053-1.8502 4.67-1.8502 3.348 0 7.929 2.3788 7.929 8.4581 0 5.815-4.053 8.7225-8.105 8.7225-2.291 0-3.965-1.1454-4.582-2.2908h-.088v1.7622h-4.581v-18.0617c.088-3.34804 3.348-3.34804 3.348-3.34804zm5.198 17.44494c2.467 0 4.053-2.0264 4.053-4.141 0-2.1145-1.586-4.0528-3.965-4.0528-2.555 0-3.965 2.0264-3.965 4.0528 0 2.2027 1.498 4.141 3.877 4.141zm14.978 3.9648h-4.846v-12.6873c0-3.348 3.348-3.4361 3.348-3.4361h1.498zm-2.467-22.02648c1.41 0 2.555 1.14537 2.555 2.55506 0 1.40972-1.145 2.55502-2.555 2.55502s-2.555-1.1453-2.555-2.55502c.088-1.40969 1.145-2.55506 2.555-2.55506zm-61.586 17.18058c-1.234 0-2.027-.9691-2.115-1.0572l-.793-.9692-.352-.4405c4.053-.7049 5.286-4.3172 5.286-6.7842 0-2.2026-.881-4.49336-2.643-5.81495-1.41-1.05727-2.819-1.49779-6.608-1.49779h-6.784v21.40974h5.286v-6.4318l2.027 2.5551.793 1.0573c.264.2643 2.379 2.8194 5.903 2.8194h2.114v-4.8459zm-6.784-5.8149h-1.939v-5.9912h1.939c2.114 0 3.524.9691 3.524 2.9075 0 1.0572-.352 3.0837-3.524 3.0837zm80.528 5.8149v4.8459h-.616c-2.908 0-7.137-1.9384-7.137-7.2247v-10.837c0-3.34804 3.348-3.34804 3.348-3.34804h1.41v5.28634h3.172v3.7885h-3.172v5.1102c0 1.3216.528 1.7621 1.057 2.0264.617.3524 1.41.3524 1.498.3524zm-145.4622-11.718h-5.022v-1.4978c0-3.34804 3.348-3.34804 3.348-3.34804h11.7181v4.84584h-4.5815v16.5639h-2.2026c-3.3481 0-3.3481-3.3481-3.3481-3.3481zm24.7578 16.5639h-2.9956c-1.7622 0-1.7622-1.7622-1.7622-1.7622h-.0881c-.7929 1.5859-2.8193 2.2908-4.6696 2.2908-5.1101 0-8.1057-3.9648-8.1057-8.6344 0-5.2863 3.7886-8.5462 8.1057-8.5462 2.6432 0 4.141 1.3216 4.6696 2.2026h.0881s.0001-1.7621 1.6741-1.7621h3.0837zm-8.8106-3.9648c2.9956 0 4.0528-2.5551 4.0528-4.141 0-1.9383-1.3215-4.0528-4.0528-4.0528s-3.9648 2.2907-3.9648 4.1409c0 1.4978 1.1454 4.0529 3.9648 4.0529zm17.9736-7.5771c0-.3524-.0882-1.2335-1.4979-1.2335-1.0572 0-1.3215.6168-1.3215 1.0573 0 .881 1.1453 1.3216 2.4669 1.7621 2.7313.793 5.6388 1.5859 5.6388 5.022 0 3.348-2.9956 5.4626-6.5198 5.4626-2.467 0-6.0793-1.1454-6.5199-5.3745h4.7578c.1762 1.5859 1.5859 1.4978 1.8502 1.4978.7929 0 1.674-.4405 1.674-1.2335 0-1.2334-1.1454-1.4096-4.2291-2.555-2.1145-.7049-3.7885-2.0264-3.7885-4.2291 0-3.1718 2.9075-5.2863 6.2555-5.2863 2.1145 0 5.7268.7929 6.1674 5.022zm6.3436-9.86784h1.4978s3.348 0 3.348 3.34804v7.7533h.0881l4.4929-5.815h5.727l-6.079 7.0485c.088.0881.176.2643.264.3524.265.4405.793 1.2335 1.674 2.555 1.234 1.8503 4.053 1.9384 4.141 1.9384h1.234v4.2291h-1.234c-.176 0-5.11-.0882-7.577-3.8767-.881-1.3216-1.674-2.6432-2.5548-3.9648h-.0881v7.8415h-4.9339z" fill="#1f304c"/></g></svg>