<svg fill="none" height="36" viewBox="0 0 166 36" width="166" xmlns="http://www.w3.org/2000/svg" xmlns:xlink="http://www.w3.org/1999/xlink"><clipPath id="a"><path d="m0 0h165.766v36h-165.766z"/></clipPath><g clip-path="url(#a)"><path d="m35.9996 17.999c.0005 3.5604-1.055 7.041-3.0328 10.0016s-4.7892 5.2681-8.0785 6.6308c-3.2894 1.3628-6.909 1.7194-10.401 1.0249-3.4921-.6945-6.69973-2.409-9.21735-4.9266s-4.23209-5.7253-4.9266-9.2173c-.694508-3.4921-.33785131-7.1117 1.02486-10.401 1.36272-3.28937 3.67028-6.10073 6.63086-8.07855 2.96053-1.97782 6.44123-3.03326328 10.00163-3.03284988 4.7734.00055425 9.3512 1.89704988 12.7266 5.27238988 3.3753 3.37533 5.2718 7.95311 5.2723 12.72661" fill="#1f304c"/><path d="m13.4381 29.0166-4.72806-3.6161c1.49386-1.7028 3.05596-3.3325 4.68626-4.889.6438-.6271 1.0451-1.0305 1.2186-1.1998-.5239-.0822-2.0233-.4223-4.4981-1.0201-1.78231-.4319-2.95632-.751-3.52207-.9573l1.94809-5.5663c2.51758 1.0247 4.94568 2.2566 7.25938 3.683-.5017-3.4572-.7518-6.27903-.7504-8.4654h5.5642c0 1.56767-.2787 4.4118-.8361 8.5323.418-.1686 1.3238-.5762 2.7173-1.2228 1.9174-.8556 3.683-1.5851 5.2966-2.1884l1.6137 5.677c-2.3439.5212-5.0549 1.0319-8.1331 1.5321l3.7791 4.2871c.7539.8695 1.3517 1.5788 1.7934 2.1279l-4.8388 3.175-4.2035-7.0879c-1.2708 2.2532-2.7263 4.6528-4.3665 7.1987" fill="#fff"/><g fill="#1f304c"><path d="m46.3716 10.8775c-.0544 1.0953-.1108 3.6641-.1108 3.9923-.0522 1.4778-.0522 7.5436 0 11.3709.0564 2.1341.5476 3.6098 2.6797 4.8075 0 0-1.2019 1.7516-1.6408 2.4058-3.1709-1.7516-3.9359-4.3748-3.9359-7.4349v-8.6347c0-2.5689-.0544-4.6466 0-6.3418-.6564-.2195-1.8039-.2738-2.732-.3282.0544-.7106.0544-1.69514.1631-2.40582.9695-.00738 1.9374-.0807 2.897-.21947-.1087-.4912 0-1.14754 0-1.36492.0544-1.75161.1108-2.56889.2195-3.82721 0 0 2.4602-.81936 2.9514-1.14753-.1087 1.31057-.2195 4.09893-.3282 6.61348 1.4778-.05435 3.2817-.27382 4.1554-.27382-.0293.87545-.0112 1.75184.0543 2.62529-.6542-.1087-3.499.1631-4.3727.1631z"/><path d="m60.0941 31.8739c-1.9125 0-4.4835-1.4234-5.8526-3.3443-1.53-2.1864-2.3494-5.1943-2.3494-9.4061 0-8.7476 3.4969-12.08358 7.9261-12.08358 4.2097 0 5.7941 5.74188 6.0136 12.02928-4.3184.3825-9.6777.8193-10.934.7107.1652 2.9534.4369 4.9747 1.3106 6.6699.9302 1.6408 2.7905 2.734 4.0467 2.734s4.1554-.6563 5.0855-1.2541c.2536.639.5842 1.2448.9845 1.8038-.5476.8758-4.5985 2.1341-6.2331 2.1341zm-.9301-22.15013c-1.806 0-4.3205 2.62323-4.1554 7.49133 1.2754.0993 2.5577.0622 3.8251-.1107 1.5322-.1631 3.2274-.3805 3.8816-.4912-.4369-3.9924-1.0451-6.89779-3.5534-6.89779"/><path d="m78.0806 34.1689c0-.7651-.3825-3.8816-.4933-4.9748-1.2019 1.2542-3.7164 3.5534-6.5048 3.5534-1.6931 0-4.4292-2.2407-4.4292-7.5436 0-2.0234 1.0953-5.0855 3.2817-6.2895 3.6621-1.9669 6.4504-2.6233 7.7631-3.1709.0543-2.7319-.163-4.4835-1.6408-5.1921-1.4996-.72259-3.143-1.097-4.8076-1.0953 0 0 .1652-2.4602.1652-2.9514 1.8603.21947 5.7962.93015 7.1632 1.85821 1.4213.8758 1.8582 3.55339 1.8582 4.70299 0 .3825.0543 8.7476.0543 14.3808.0125 2.0095.1402 4.0166.3826 6.0115-.9302.2195-2.0234.4912-2.7884.7107zm-5.5182-13.6137c-1.4214.765-3.1144 2.0798-3.1144 3.9923 0 3.8273.928 5.1378 2.6232 5.1378 1.6387 0 4.0446-2.1863 5.468-3.662.1631-.4933.1631-6.5069.1631-7.6001-.7107.209-3.938 1.4757-5.1399 2.132"/><path d="m105.306 31.3806c-.329.0543-1.859.2738-3.006.3825.109-1.6408.163-4.2097.163-5.3029v-12.301c0-2.4058.054-3.7164-1.254-3.7164-1.5825 0-4.8077 2.7883-5.5205 3.5534.1087 1.6387.1087 16.7218.163 17.4952h-3.1729c.1651-.3846.2738-3.4991.2738-3.7624 0-1.4778-.209-12.7504-.209-14.1613 0-3.2253-.2738-3.5534-2.2407-3.5534-1.4757 0-3.6078.9845-4.4836 1.4778 0 1.2541-.1087 17.4931-.1087 20.9921-.9094-.2724-1.8433-.4551-2.7883-.5455.0543-1.4778.1087-8.1519.1087-8.6389l.0543-16.72186c.8194.16513 1.8603.43686 2.4602.38252 0 0 .1651 1.367.3282 1.96899 1.969-.9845 4.4292-1.69517 6.2874-1.69517 1.0932 0 2.3515.49329 2.8427 2.18637.1622.57055.2542 1.15875.2738 1.75165 1.6952-1.58652 4.4835-3.60986 6.3956-3.60986 2.735 0 3.5 2.13203 3.5 5.95926l-.055 17.8777"/><path d="m109.998 32.6326c.078-1.319.065-2.6418-.04-3.9589 3.401 0 5.362-1.2207 5.362-2.8469 0-1.923-1.589-4.1052-2.734-5.6959-1.628-2.107-3.186-4.471-3.186-7.0274 0-4.54829 3.221-6.28526 9.693-6.28526-.073 1.14544-.186 2.32851-.038 3.58686-3.438.0731-5.549.7023-5.549 2.2992 0 1.5531.296 1.923 2.554 5.2883 1.551 2.2177 3.252 4.772 3.252 7.3158 0 4.5839-2.255 6.5821-9.316 7.3158"/><path d="m131.668 31.4099c-.59-2.1425-4.511-11.1681-5.843-14.1258-.075 1.0452-.037 2.8469-.037 4.1032-.038 3.7728.037 10.2839.037 10.2839-1.415-.2879-2.849-.4737-4.291-.556.149-1.8812.554-7.9429.592-12.7232.037-4.1408-.184-9.28065-.222-11.16812 1.203-.00298 2.404-.10224 3.591-.29682.186 1.29594 4.105 10.43024 5.955 14.16544 0-.9991.113-6.6573-.037-9.8742-.029-1.2142-.139-2.42514-.331-3.62445 1.381-.05455 2.755-.22799 4.106-.51838v24.59573c-1.405-.1108-2.371-.1484-3.516-.2613"/><path d="m147.608 32.5218c-.148-1.3691-.851-3.6997-1.045-5.1064-.042-.2446-.067-.4918-.075-.7399l-4.66.2236c-.181 1.0451-.886 4.4376-1.034 5.5851-1.25-.5532-2.535-1.0231-3.846-1.4067.37-1.5154 2.926-12.4619 4.105-20.1561.192-1.21858.537-2.99527.537-3.62234.889-.11078 3.179-.2571 3.995-.40551.292 1.33148 5.62 23.00295 6.028 24.66465-.999.184-2.885.6271-3.995.9615zm-3.752-18.5695c-.259 1.8812-1.254 8.3212-1.442 9.4311.666-.1108 2.508-.0732 3.292-.1861-.297-1.4046-1.442-7.4684-1.85-9.245z"/><path d="m157.476 22.24c0 2.7737.036 6.4337.257 8.5427-1.626.5895-4.251 1.11-4.251 1.11 0-2.9953.11-9.4332 0-15.7562-.076-3.1813-.333-7.39521-.628-8.56991 1.196-.31582 2.424-.48912 3.66-.51629 5.032-.18603 9.246 1.47779 9.246 7.3952 0 3.219-3.66 7.435-8.284 7.8049zm-.209-11.6509c.035 1.0451.109 2.7005.146 4.0696.038 1.0723.111 2.9264.111 3.9568 2.406-.1128 4.145-2.2177 4.145-4.402 0-2.7382-1.553-3.6244-4.402-3.6244"/></g></g></svg>