<svg fill="none" height="34" viewBox="0 0 163 34" width="163" xmlns="http://www.w3.org/2000/svg" xmlns:xlink="http://www.w3.org/1999/xlink"><clipPath id="a"><path d="m0 0h162.714v34h-162.714z"/></clipPath><g clip-path="url(#a)"><path clip-rule="evenodd" d="m18.2736 1.32455 9.2789 5.35071c1.855 1.06995 2.9981 3.0473 2.9981 5.18714v10.7005c0 2.1399-1.1431 4.1172-2.9981 5.1872l-9.2789 5.3507c-1.855 1.0699-4.1412 1.0699-5.9962 0l-9.27892-5.3507c-1.85597-1.07-2.99811379-3.0473-2.99811379-5.1872v-10.7005c0-2.13984 1.14214379-4.11719 2.99811379-5.18714l9.27892-5.35071c1.855-1.069941 4.1412-1.069941 5.9962 0zm2.861 10.92215h-14.59728c0 1.5715 1.27231 2.8463 2.84312 2.8529l.00005-.0016 3.30791.0016 1.6562.001v8.8976h3.2607v-8.8976h3.5293zm32.1239-1.7095c2.0437 0 3.4564.5345 4.354 1.4499.7837.7628 1.184 1.7929 1.184 3.1091v.0379c0 2.0412-1.0882 3.3953-2.7495 4.1013l2.7495 4.6537h-4.3499l-2.1824-3.8091h-1.6214v3.8091h-3.705v-13.3519zm11.3852-.0004v13.3519h-3.7089v-13.3519zm-19.1764.0006v3.2428h-4.0104v10.1091h-3.704v-10.1091l-4.0135-.002v-3.2408zm40.0318-.0006 5.6508 13.3519h-3.9446l-.9664-2.3673h-5.1207l-.9475 2.3673h-3.8687l5.1706-12.2171-.8177-1.1348zm11.635 0c2.6257 0 4.3149 1.1009 5.4539 2.6784l-2.6814 2.0721c-.7338-.9174-1.5794-1.5037-2.8094-1.5037-1.7991 0-3.066 1.5226-3.066 3.3923v.0369c0 1.9265 1.2669 3.4302 3.066 3.4302 1.3408 0 2.1305-.6243 2.9012-1.5596l2.6806 1.9076c-1.211 1.6692-2.8463 2.8977-5.6916 2.8977-3.6731 0-6.6293-2.806-6.6293-6.639v-.0369c0-3.7414 2.8833-6.676 6.776-6.676zm23.4769 0v13.3519h-3.709v-13.3519zm19.972.0041 5.498 7.0549v-7.0549h3.666v13.3479h-3.246l-5.707-7.3221v7.3221h-3.666v-13.3479zm-68.0719-.0042c3.3805 0 5.5579 1.7361 5.5579 4.6926v.0379c0 3.147-2.426 4.8063-5.7486 4.8063l-1.833.004v3.8111h-3.705v-13.3519zm56.5289-.0002c3.967 0 6.905 2.9536 6.905 6.6391v.0369c0 3.6864-2.975 6.6759-6.941 6.6759s-6.905-2.9526-6.905-6.639v-.0369c0-3.6865 2.975-6.676 6.941-6.676zm27.303-.0002c2.197 0 3.915.5903 5.318 1.7151l-1.791 2.5268c-1.182-.8296-2.474-1.2724-3.619-1.2724-.868 0-1.293.369-1.293.8297v.0369c0 .5903.443.8485 2.235 1.2544 2.973.6451 4.819 1.6044 4.819 4.0195v.0379c0 2.6365-2.087 4.204-5.226 4.204-2.289 0-4.468-.719-6.056-2.1389l1.994-2.3792c1.275 1.0141 2.696 1.5496 4.192 1.5496.959 0 1.477-.3321 1.477-.8855v-.0369c0-.5345-.425-.8296-2.179-1.2355-2.751-.6272-4.874-1.402-4.874-4.0574v-.0369c0-2.3971 1.901-4.1312 5.003-4.1312zm-40.959.0002v3.2418h-4.008v10.1061h-3.704v-10.1061h-4.009v-3.2418zm13.62 3.2099c-1.947 0-3.25 1.5775-3.25 3.4292v.0369c0 1.8527 1.34 3.4671 3.286 3.4671 1.965 0 3.269-1.5775 3.269-3.4302v-.0369c0-1.8527-1.341-3.4661-3.305-3.4661zm-45.307 1.146-1.4976 3.7692h2.9772zm-11.4714-1.1149h-1.7382v3.5289h1.7571c1.3179 0 2.1196-.687 2.1196-1.7361v-.0378c0-1.1448-.8017-1.755-2.1385-1.755zm-19.1577.0045h-2.4251v3.2048h2.444c1.26 0 1.9858-.6103 1.9858-1.5835v-.0379c0-1.049-.7638-1.5834-2.0047-1.5834z" fill="#1f304c" fill-rule="evenodd"/></g></svg>