<svg fill="none" height="30" viewBox="0 0 114 30" width="114" xmlns="http://www.w3.org/2000/svg"><path d="m87.525 0c1.575 0 2.925 1.35 2.925 2.925s-1.35 2.925-2.925 2.925-2.925-1.35-2.925-2.925 1.275-2.925 2.925-2.925zm-59.1 22.8v-10.35h5.325v-4.2h-5.325v-6.6l-5.1 1.275v5.325h-3.825v4.2h3.825v10.8c0 4.05 2.1 6.525 6.375 6.525 1.5 0 2.925-.225 4.35-.525v-4.275c-1.425.15-2.25.225-3.3.225-1.575-.075-2.325-.75-2.325-2.4zm13.725-11.325-.45-3.225h-4.35v21.225h5.1v-10.65c0-3.45 1.875-6 5.475-6 .525 0 1.2.075 1.725.225v-4.875c-.525-.075-1.05-.15-1.575-.15-2.4 0-4.95.975-5.925 3.45zm23.25 8.025c0 1.725-.375 3.675-1.575 4.725-.6.6-1.425 1.05-2.625 1.05-2.7 0-3.675-1.575-3.675-4.05v-12.975h-5.025v14.1c0 4.5 2.775 7.575 7.35 7.575 2.7 0 5.025-1.2 6.075-3.3l.375 2.775h4.2v-21.15h-5.1zm13.575 3.675v-23.175h-5.1v24c0 4.05 2.325 5.7 5.775 5.7 1.05 0 1.2-.075 2.25-.3v-4.275h-.9c-1.725.075-2.025-.75-2.025-1.95zm5.925-14.925h5.175v21.225h-5.175zm27.225 17.325c-.9 0-1.2-.375-1.2-1.35v-7.875c0-1.425-.075-2.925-.6-4.275-1.2-3.15-4.35-4.35-7.95-4.35-4.725 0-8.55 2.1-8.775 6.9h4.95c.15-1.95 1.5-3 3.825-3 2.925 0 3.6 1.35 3.6 3.3v1.275l-6.225.45c-4.05.3-7.125 2.625-7.125 6.6 0 3.45 2.625 6.6 7.65 6.6 3 0 5.475-1.5 6.45-3.15.15 1.575 1.425 3 3.6 3 1.2 0 1.65-.225 2.55-.525v-3.75c0 .075-.375.15-.75.15zm-6.075-4.575c0 3.15-2.25 4.875-5.4 4.875-1.575 0-3-1.05-3-2.625 0-1.725 1.5-2.625 3.075-2.775l5.4-.375zm-98.4-21c-4.65 0-7.65 3.15-7.65 7.875 0 3.9 2.55 7.275 3.975 12.375.825 2.925 1.275 6.525 1.5 9.15h4.275c.225-2.625.675-6.225 1.5-9.15 1.425-5.1 3.975-8.475 3.975-12.375.15-4.725-2.85-7.875-7.575-7.875zm.075 12.075c-1.95 0-3.525-1.575-3.525-3.525s1.575-3.525 3.525-3.525 3.525 1.575 3.525 3.525-1.575 3.525-3.525 3.525z" fill="#1f304c"/></svg>