<svg fill="none" height="36" viewBox="0 0 42 36" width="42" xmlns="http://www.w3.org/2000/svg" xmlns:xlink="http://www.w3.org/1999/xlink"><clipPath id="a"><path d="m0 0h42v36h-42z"/></clipPath><g clip-path="url(#a)"><path d="m40 4.26175c-1.5432.72287-3.2048 1.21171-4.9477 1.43012 1.7799-1.12329 3.1456-2.90444 3.789-5.026215-1.6664 1.040085-3.508 1.796755-5.4752 2.202385-1.5679-1.76555-3.8088-2.86804-6.2888-2.86804-4.7554 0-8.6135 4.06934-8.6135 9.08776 0 .71246.074 1.40414.2219 2.06974-7.1615-.3796-13.50944-3.9939-17.761946-9.49856-.742032 1.34691-1.16605 2.90964-1.16605 4.57378 0 3.15146 1.521046 5.93368 3.833416 7.56398-1.4101-.0442-2.741323-.4576-3.904907-1.1336v.1118c0 4.4047 2.970597 8.0788 6.914947 8.9109-.72231.2132-1.48406.3198-2.27047.3198-.55467 0-1.09702-.0546-1.62211-.1612 1.09702 3.6091 4.27716 6.2379 8.04892 6.3081-2.94838 2.439-6.66593 3.8926-10.7015046 3.8926-.6951924 0-1.3829854-.0416-2.0559954-.1248 3.8137 2.5742 8.34478 4.0797 13.2087 4.0797 15.8513 0 24.5166-13.8462 24.5166-25.8566 0-.39519-.0074-.79042-.0222-1.17785 1.6838-1.28191 3.1456-2.88104 4.2969-4.7038z" fill="#1f304c"/></g></svg>