<svg fill="none" height="42" viewBox="0 0 152 42" width="152" xmlns="http://www.w3.org/2000/svg" xmlns:xlink="http://www.w3.org/1999/xlink"><clipPath id="a"><path d="m0 0h151.2v42h-151.2z"/></clipPath><g clip-path="url(#a)"><path d="m0 .945v-.63h8.61v.63c-1.785 0-2.835.21-2.835 2.625v10.815c0 3.36.735 6.615 5.04 6.615 4.725 0 5.46-2.73 5.46-6.615v-10.71c0-2.415-1.05-2.625-2.835-2.625v-.735h7.56v.63c-1.785 0-2.835.21-2.835 2.625v10.815c0 4.515-.63 7.875-7.455 7.875-6.72 0-7.77-3.255-7.77-7.875v-10.71c-.105-2.52-1.155-2.73-2.94-2.73zm30.24 21.42c2.415 0 4.2-.315 5.88-.84v-1.365c-.84.315-1.995.84-4.2.84-7.14 0-8.085-6.51-8.085-10.71 0-3.36.42-8.925 5.67-8.925 4.095 0 5.355 2.94 5.775 4.725h.84l-.315-5.145c-1.47-.42-3.675-.945-6.3-.945-7.035 0-8.925 4.41-8.925 10.5 0 6.93 3.15 11.865 9.66 11.865zm17.43-1.47c-3.465 0-5.04-1.995-5.25-3.78h-.84l.21 4.62c.84.105 3.36.63 5.565.63 4.515 0 8.085-1.995 8.085-6.09 0-3.15-1.68-4.41-4.305-5.985-2.835-1.68-6.72-2.625-6.72-5.565 0-2.205 1.89-3.57 4.095-3.57 3.465 0 4.83 1.995 5.04 3.78h.84l-.21-4.515c-1.365-.21-2.835-.42-5.04-.42-4.095 0-7.35 1.575-7.35 5.46 0 2.1.735 3.255 2.1 4.41 3.045 2.31 8.4 3.36 8.4 6.93.105 2.205-1.785 4.095-4.62 4.095zm16.8-6.195v-1.05c0-1.995 0-4.2-2.415-4.2-1.785 0-1.995.735-1.995 1.68 0 1.155-.84 1.47-1.365 1.47-.735 0-1.365-.525-1.365-1.26 0-1.89 2.835-2.835 4.83-2.835 3.99 0 4.725 1.89 4.725 4.62v7.245c0 1.05.315 1.365 1.26 1.365.21 0 .525-.105.735-.105v.42c-.315.105-1.05.21-2.1.21-1.68 0-2.205-.84-2.205-2.1h-.105c-.945 1.26-2.1 2.1-4.095 2.1s-3.465-1.365-3.465-3.255c-.105-4.2 5.355-4.2 7.56-4.305zm0 .945c-1.365 0-5.04.315-5.04 2.94 0 1.47.945 2.52 1.995 2.52 1.89 0 3.15-1.785 3.15-3.78zm11.655 5.88c-1.26 0-2.205-.21-2.205-2.1v-3.57c0-2.73 2.1-6.09 3.78-6.09 1.89 0 1.995 1.155 1.995 3.675v5.985c0 1.89-.945 2.1-2.205 2.1v.525h6.72v-.525c-1.26 0-2.205-.21-2.205-2.1v-6.615c-.105-2.73-.42-4.41-3.465-4.41-2.835 0-4.2 2.73-4.62 3.78h-.105v-3.78l-4.515.735v.525c.84.105 2.205.105 2.205 1.89v7.875c0 1.89-.945 2.1-2.205 2.1v.525h6.72v-.525zm19.005.525h-7.665v-.63c1.785 0 2.835-.21 2.835-2.625v-15.12c0-2.415-1.05-2.625-2.835-2.625v-.735h7.665c5.46 0 11.13 1.155 11.13 10.92 0 9.66-6.09 10.815-11.13 10.815zm0-1.26c5.565 0 7.875-3.045 7.875-9.555 0-5.985-1.68-9.66-7.875-9.66-1.68 0-1.89.21-1.89 2.73v13.755c0 2.415.21 2.73 1.89 2.73zm19.005.735c-1.26 0-2.205-.21-2.205-2.1v-11.025l-4.515.735v.525c.84.105 2.205.105 2.205 1.89v7.875c0 1.89-.945 2.1-2.205 2.1v.525h6.72zm-3.465-15.75c.945 0 1.68-.735 1.68-1.68s-.735-1.68-1.68-1.68-1.68.735-1.68 1.68.735 1.68 1.68 1.68zm3.465 9.24c0-4.2 1.68-6.615 5.88-6.615 2.625 0 4.935 1.47 4.935 4.83v.63h-8.4c0 2.415 1.155 7.35 5.985 7.35.63 0 1.47-.105 1.995-.42v.945c-.735.21-1.68.525-3.465.525-4.41.105-6.93-2.415-6.93-7.245zm2.415-2.1h5.88c0-1.575-.525-3.57-2.73-3.57s-3.15 2.52-3.15 3.57zm22.47 10.08c0 3.36-3.255 5.145-7.14 5.145-2.835 0-5.775-1.05-5.775-3.675 0-1.785 1.365-2.625 2.31-3.045-.525-.315-1.26-.84-1.26-2.1 0-1.05.945-2.205 1.26-2.52-.63-.525-1.68-1.47-1.68-3.885 0-3.78 2.73-4.515 5.46-4.515 1.365 0 2.1.21 3.045.735.42-1.05 1.155-3.15 2.94-3.15.84 0 1.365.525 1.365 1.365 0 .735-.525 1.26-1.365 1.26-.735 0-.945-.42-1.26-.42-.63 0-.945.84-1.05 1.26.315.42 1.26 1.47 1.26 3.465 0 2.94-1.785 4.62-5.355 4.62-1.155 0-1.995-.105-2.625-.42-.21.21-.525.63-.525 1.26 0 1.155 1.47 1.155 2.415 1.155h3.465c1.26.21 4.515.315 4.515 3.465zm-9.87-10.29c0 2.205.735 3.99 2.835 3.99 2.415 0 2.73-1.89 2.73-3.465 0-2.205-.735-3.885-2.835-3.885-2.31 0-2.73 1.68-2.73 3.36zm7.98 11.025c0-1.47-1.26-1.995-2.625-1.995h-5.04c-.63.42-1.365.945-1.365 2.205 0 1.68 1.575 3.15 4.095 3.15 2.52.105 4.935-1.26 4.935-3.36zm1.89-8.4c0-4.305 2.31-6.93 6.09-6.93 3.675 0 6.09 2.625 6.09 6.93s-2.31 6.93-6.09 6.93c-3.675.105-6.09-2.52-6.09-6.93zm2.625 0c0 2.415.63 5.985 3.465 5.985 2.94 0 3.465-3.57 3.465-5.985s-.63-5.985-3.465-5.985-3.465 3.675-3.465 5.985zm-17.01 11.76h-124.635v.735h125.37c-.315-.21-.525-.525-.735-.735zm13.965.735h12.285v-.735h-11.445c-.21.21-.525.525-.84.735zm-137.97 13.545c.525.315 1.575.63 2.52.63 2.31 0 3.465-1.365 3.465-2.835s-.84-2.31-2.52-2.94c-1.365-.525-1.995-.945-1.995-1.89 0-.63.525-1.47 1.89-1.47.945 0 1.575.315 1.89.42l.315-1.05c-.42-.21-1.155-.525-2.205-.525-1.89 0-3.255 1.155-3.255 2.73 0 1.365 1.05 2.205 2.625 2.835 1.365.525 1.89 1.05 1.89 1.995 0 1.05-.735 1.68-2.1 1.68-.84 0-1.68-.315-2.31-.63zm12.6-.735c-.42.21-.84.315-1.575.315-1.365 0-2.52-1.05-2.52-2.625 0-1.47.84-2.73 2.52-2.73.735 0 1.155.21 1.47.315l.315-1.05c-.315-.21-1.05-.42-1.785-.42-2.31 0-3.78 1.575-3.78 3.78s1.365 3.675 3.57 3.675c.945 0 1.68-.21 1.995-.42zm1.785 1.155h1.26v-4.305c0-.21 0-.42.105-.63.21-.735.945-1.26 1.785-1.26 1.26 0 1.68.945 1.68 2.1v4.095h1.26v-4.2c0-2.415-1.575-3.045-2.52-3.045-.525 0-.945.105-1.365.315s-.735.525-.945.945v-4.41h-1.26zm11.13-7.245c-1.995 0-3.57 1.365-3.57 3.78 0 2.205 1.47 3.675 3.36 3.675 1.68 0 3.57-1.155 3.57-3.78.105-2.205-1.26-3.675-3.36-3.675zm0 .945c1.575 0 2.1 1.575 2.1 2.73 0 1.575-.945 2.73-2.205 2.73s-2.205-1.155-2.205-2.73c.105-1.26.735-2.73 2.31-2.73zm8.085-.945c-1.995 0-3.57 1.365-3.57 3.78 0 2.205 1.47 3.675 3.36 3.675 1.68 0 3.57-1.155 3.57-3.78.105-2.205-1.26-3.675-3.36-3.675zm0 .945c1.575 0 2.1 1.575 2.1 2.73 0 1.575-.945 2.73-2.205 2.73s-2.205-1.155-2.205-2.73c.105-1.26.735-2.73 2.31-2.73zm5.04 6.3h1.26v-10.395h-1.26zm9.66-7.245c-1.995 0-3.57 1.365-3.57 3.78 0 2.205 1.47 3.675 3.36 3.675 1.68 0 3.57-1.155 3.57-3.78 0-2.205-1.365-3.675-3.36-3.675zm-.105.945c1.575 0 2.1 1.575 2.1 2.73 0 1.575-.945 2.73-2.205 2.73s-2.205-1.155-2.205-2.73c.21-1.26.84-2.73 2.31-2.73zm6.51 6.3v-6.09h1.68v-.945h-1.68v-.42c0-1.05.315-2.1 1.365-2.1.42 0 .63.105.84.21l.21-1.05c-.21-.105-.63-.21-1.155-.21-.63 0-1.26.21-1.785.63-.63.525-.84 1.47-.84 2.52v.315h-1.05v1.05h1.05v6.09zm14.7 0h1.26l-.63-9.87h-1.68l-1.785 4.83c-.42 1.26-.84 2.31-1.05 3.36-.21-1.05-.63-2.1-1.05-3.36l-1.68-4.83h-1.68l-.735 9.87h1.26l.315-4.2c.105-1.47.21-3.15.21-4.41.315 1.155.63 2.415 1.155 3.885l1.575 4.725h.945l1.785-4.83c.525-1.365.945-2.625 1.26-3.78 0 1.26.105 2.94.105 4.305zm8.925-3.255v-.63c0-1.26-.63-3.36-2.94-3.36-2.1 0-3.36 1.68-3.36 3.885 0 2.1 1.26 3.57 3.465 3.57 1.155 0 1.89-.21 2.415-.42l-.21-.945c-.525.21-1.05.42-1.995.42-1.26 0-2.415-.735-2.415-2.52zm-4.935-.945c.105-.945.63-2.1 1.995-2.1 1.47 0 1.785 1.26 1.785 2.1zm11.445-6.195v4.2c-.315-.525-1.05-1.05-2.1-1.05-1.785 0-3.255 1.47-3.15 3.78 0 2.205 1.365 3.57 3.045 3.57 1.155 0 1.995-.63 2.415-1.365l.105 1.26h1.155c0-.525-.105-1.155-.105-1.89v-8.61h-1.365zm0 7.455c0 .21 0 .42-.105.525-.21.945-1.05 1.575-1.89 1.575-1.365 0-2.1-1.155-2.1-2.625 0-1.575.84-2.73 2.1-2.73.945 0 1.68.63 1.89 1.47 0 .21.105.42.105.525zm4.095-6.93c-.42 0-.84.315-.84.84 0 .42.315.84.735.84.525 0 .84-.315.84-.84.105-.525-.21-.84-.735-.84zm.63 9.87v-7.14h-1.26v7.14zm7.035-1.155c-.42.21-.84.315-1.575.315-1.365 0-2.52-1.05-2.52-2.625 0-1.47.84-2.73 2.52-2.73.735 0 1.155.21 1.47.315l.315-1.05c-.315-.21-1.05-.42-1.785-.42-2.31 0-3.78 1.575-3.78 3.78s1.365 3.675 3.57 3.675c.945 0 1.68-.21 1.995-.42zm2.31-8.715c-.42 0-.84.315-.84.84 0 .42.315.84.735.84.525 0 .84-.315.84-.84.105-.525-.21-.84-.735-.84zm.735 9.87v-7.14h-1.26v7.14zm2.1 0h1.26v-4.305c0-.21 0-.42.105-.63.21-.735.84-1.365 1.785-1.365 1.26 0 1.68.945 1.68 2.1v4.095h1.26v-4.2c0-2.415-1.575-3.045-2.52-3.045-1.155 0-1.995.63-2.31 1.365l-.105-1.155h-1.155c0 .63.105 1.155.105 1.89v5.25zm13.86-3.255v-.63c0-1.26-.63-3.36-2.94-3.36-2.1 0-3.36 1.68-3.36 3.885 0 2.1 1.26 3.57 3.465 3.57 1.155 0 1.89-.21 2.415-.42l-.21-.945c-.525.21-1.05.42-1.995.42-1.26 0-2.415-.735-2.415-2.52zm-4.935-.945c.105-.945.63-2.1 1.995-2.1 1.47 0 1.785 1.26 1.785 2.1z" fill="#1f304c"/></g></svg>