<svg fill="none" height="42" viewBox="0 0 102 42" width="102" xmlns="http://www.w3.org/2000/svg" xmlns:xlink="http://www.w3.org/1999/xlink"><clipPath id="a"><path d="m0 0h101.314v42h-101.314z"/></clipPath><g clip-path="url(#a)"><path d="m101.239 41.9358h-41.155v-41.8609099h41.155z" stroke="#1f304c" stroke-miterlimit="10" stroke-width=".13"/><path d="m60.0841 41.9358h-60.0092099v-41.8609099h60.0092099z" stroke="#1f304c" stroke-miterlimit="10" stroke-width=".13"/><g fill="#1f304c"><path d="m71.8547 23.9801.7491-.3424c.2033-.0963.1712-.1819.1177-.3531-.2783-.8168-.4228-1.6732-.428-2.5361.0774-2.1633.9912-4.2122 2.5491-5.7152 1.5578-1.503 3.638-2.343 5.8027-2.343s4.245.84 5.8028 2.343 2.4716 3.5519 2.5491 5.7152c.0106 1.1214-.2116 2.2327-.6528 3.2637-.0132.0224-.0217.0471-.025.0729-.0034.0257-.0015.0518.0055.0768s.019.0483.0352.0686c.0162.0202.0364.037.0592.0492l.7812.3424c.1605.0642.2461 0 .3317-.1284.5601-1.3149.8206-2.7381.7624-4.1662s-.4335-2.8254-1.0987-4.0905c-.6653-1.265-1.6038-2.3661-2.7474-3.2234-1.1437-.8573-2.4638-1.4493-3.8647-1.7331-1.4008-.2837-2.8473-.2521-4.2344.0926s-2.6801.9939-3.7852 1.9004c-1.1051.9064-1.9945 2.0475-2.6038 3.3405-.6093 1.2929-.9232 2.7052-.9189 4.1345 0 1.0416.1736 2.0759.5136 3.0604 0 .1605.107.2568.2996.1712z"/><path d="m69.3936 25.1144c.2033-.107.8882-.4067 1.0701-.503.0298-.0087.0573-.0241.0803-.045.0229-.021.0408-.0469.0522-.0759.0113-.0289.0159-.0601.0134-.091-.0026-.031-.0122-.061-.0282-.0877-.4119-1.1357-.6254-2.3338-.6313-3.5419 0-2.838 1.1273-5.5597 3.1341-7.5665 2.0068-2.0067 4.7285-3.1341 7.5665-3.1341s5.5597 1.1274 7.5665 3.1341c2.0067 2.0068 3.1341 4.7285 3.1341 7.5665.006 1.4398-.2893 2.865-.8667 4.1839 0 .075-.0856.2248.0963.2997l1.07.4708c.1606.0535.2462 0 .3318-.1391.6713-1.5165 1.0176-3.1568 1.0165-4.8153 0-3.2722-1.2998-6.4104-3.6136-8.7242-2.3138-2.31376-5.452-3.61363-8.7242-3.61363s-6.4104 1.29987-8.7242 3.61363c-2.3138 2.3138-3.6136 5.452-3.6136 8.7242-.0021 1.4326.2553 2.8538.7597 4.1947 0 .0749.0856.2354.2996.1498"/><path d="m66.0764 26.6125 1.9368-.8882c.2568-.1177.1391-.2996.1177-.4173-.555-1.4518-.838-2.9935-.8346-4.5478 0-3.5475 1.4092-6.9497 3.9176-9.4581 2.5085-2.50845 5.9107-3.91768 9.4582-3.91768 3.5474 0 6.9496 1.40923 9.4581 3.91768 2.5084 2.5084 3.9177 5.9106 3.9177 9.4581.001 1.7779-.3632 3.5371-1.0701 5.1684-.0213.0356-.034.0755-.0372.1168s.0032.0828.0188.1212c.0155.0384.0398.0726.0708.1.0311.0274.0681.0473.1081.0579.2247.0964 1.6372.717 1.8405.7812s.3424.0749.4708-.1926c.8365-1.9437 1.2697-4.0369 1.2734-6.1529-.258-4.0732-2.0579-7.8951-5.0337-10.6883-2.9757-2.79325-6.9038-4.348-10.9851-4.348-4.0814 0-8.0094 1.55475-10.9852 4.348-2.9758 2.7932-4.7757 6.6151-5.0337 10.6883.0005 1.9371.3634 3.857 1.0701 5.6606 0 .1071.0749.289.321.1927z"/><path d="m80.6721 17.3457c.3308-.0063.6524-.1102.9244-.2986s.4824-.4529.6046-.7604.151-.6442.0826-.968c-.0684-.3237-.2309-.6201-.4671-.8518-.2362-.2318-.5355-.3886-.8605-.4509-.325-.0622-.6611-.0271-.9662.1009-.3052.1281-.5657.3433-.7489.6189-.1832.2755-.281.599-.281.9299.0056.4494.1888.8783.5096 1.1931.3208.3147.7531.4898 1.2025.4869z"/><path d="m81.2927 26.1844c.1581-.0027.3089-.0667.4207-.1785s.1758-.2626.1786-.4207v-3.7024c.0785-.5329.3174-1.0293.6848-1.4232l3.5419-3.4777c.058-.0541.1043-.1195.1359-.1922.0316-.0728.048-.1512.048-.2305s-.0164-.1577-.048-.2305c-.0316-.0727-.0779-.1381-.1359-.1922l-.642-.6313c-.1141-.1124-.2679-.1754-.428-.1754-.1602 0-.314.063-.4281.1754l-3.2102 3.1567c-.0907.1094-.2056.1962-.3355.2538-.13.0575-.2715.0842-.4135.0779-.144.0097-.2882-.0153-.4204-.073-.1322-.0578-.2486-.1465-.3393-.2587l-3.2102-3.2102c-.055-.0583-.1214-.1048-.195-.1365s-.1529-.0481-.2331-.0481c-.0801 0-.1594.0164-.233.0481s-.14.0782-.195.1365l-.6527.6313c-.0577.0531-.1038.1177-.1353.1895-.0316.0718-.0478.1494-.0478.2278 0 .0785.0162.1561.0478.2279.0315.0718.0776.1364.1353.1895l3.5312 3.5312c.3818.3839.6231.8853.6848 1.4232v3.6917c0 .0796.0159.1584.0466.2318.0308.0734.0759.14.1327.1957.0568.0558.1241.0997.1981.1292.0739.0295.153.0439.2326.0425h1.2412"/><path d="m92.4856 27.4899c-.8137.4834-1.5618 1.0696-2.2257 1.7442h-.1498c.416-.4673.802-.9605 1.1556-1.4767.6207-1.0058-.535-1.9261-1.8084-1.2199-.4815.2783-1.284 1.0701-1.68 1.4018h-.1284c.1712-.1712.8775-1.07 1.0701-1.4018.5564-.8025-.5992-1.573-1.5944-.9737-.6592.4391-1.2884.9217-1.8833 1.4446h-.107c.1605-.1605.5564-.6207.7169-.7705.5886-.6634-.2568-1.4018-1.145-.9416-.8881.4601-2.0759 1.6372-3.4349 2.4825.6314.321 1.7228.3852 3.467 1.0701 1.7443.6848 2.3221 2.5574 1.1771 3.8522-1.1449 1.2948-2.6537.824-4.0341.3959-1.5944-.4922-2.1401-.9951-4.1091-1.6479-1.2519-.428-1.787-.428-1.7549-.7918s1.0701-.1498 2.1402.2033c2.8356 1.0166 6.5916 3.2958 7.4904.8239.7277-1.9368-2.536-2.7928-3.7773-3.0175-1.7335-.2461-2.932-1.5409-4.4301-2.3863-1.6095-.9547-3.5029-1.3144-5.3503-1.0165-1.6162.4611-3.1532 1.1647-4.5585 2.0866-.8453.4815-.7704 1.2306 0 2.3648 1.5409 2.1448 3.584 3.8791 5.9505 5.0513 2.3665 1.1721 4.9842 1.7464 7.6241 1.6725 2.6398-.0739 5.2213-.7938 7.5185-2.0965 2.2972-1.3028 4.24-3.1487 5.6585-5.3763.61-.9738-.3745-2.0331-1.8084-1.5195"/><path d="m46.612 38.3189c0 .4602 1.6372.9417 2.5146.9417.58.0208 1.1516-.1431 1.6324-.4681.4808-.3251.8459-.7944 1.0428-1.3403.6634-1.5837 3.3707-10.7006 3.3707-10.7006h.2996c.6099-.0964.8239-.4602.8239-1.3697 0-.3318 0-.3532-.3103-.3532h-2.2685c-.214 0-.2247 0-.2996.2569l-1.8512 7.0303-1.9155-7.0303c-.0535-.2141-.0856-.2462-.2996-.2569h-2.2364c-.2782 0-.321 0-.321.3532 0 .9095.2354 1.2733.8453 1.3697h.3103s1.787 6.1207 2.718 8.6782l-.1498.4922c-.2996.9631-.8133 1.4018-1.6372 1.4018-.2033 0-1.2948-.1605-1.2948-.1605-.6206 0-.7918.2033-.856.428-.0673.2393-.1209.4822-.1605.7276"/><path d="m38.9824 21.6046h-2.6538c-.2354 0-.2461 0-.2782.2568l-1.4981 9.0955-1.7977-9.0527c0-.2461-.0856-.2996-.3638-.2996h-1.2199c-.4387 0-.4708.0642-.5136.3103l-1.8833 9.042-1.4232-9.0955c0-.2354 0-.2568-.2675-.2568h-2.718c-.2782 0-.321 0-.321.3638 0 1.0058.2568 1.3697.9631 1.4553h.2782l2.0652 11.2142c.0749.2568.0963.321.3424.321h1.7977c.289 0 .2997 0 .3425-.321l1.7977-8.6996 1.4981 8.721c.0535.2782.0535.2996.3531.2996h1.8298c.2461 0 .2889-.0642.3424-.321l2.3969-11.2142h.2569c.7276-.0856.9737-.4388.9737-1.4553 0-.3103 0-.3424-.2568-.3531"/><path d="m43.5302 32.7011c-.1807.231-.4069.4223-.6646.5622s-.5414.2254-.8335.2511c-.1837-.0054-.3644-.0477-.5314-.1244-.167-.0766-.3169-.1861-.4407-.3219s-.219-.2951-.28-.4684c-.0609-.1734-.0864-.3572-.0748-.5406 0-1.8405 2.215-1.7228 2.8143-1.68v2.322zm2.3648.4708c-.158-.5784-.2301-1.1769-.214-1.7763v-3.5312c0-2.2257-.9845-3.2102-3.2102-3.2102-1.5516 0-3.2102.6635-3.2102 1.0701.0329.2302.0903.4562.1712.6741 0 .1284.1391.4281.7919.3853.2782 0 1.4124-.2247 1.8833-.2247 1.2626 0 1.3911.7276 1.3911 1.5622v.7063c-1.573 0-4.9651 0-4.9651 3.36 0 1.9047 1.07 3.0711 2.7928 3.0711.4479.0118.8926-.0783 1.3004-.2637.4079-.1854.7682-.4612 1.0538-.8064l.1605-.1605v.2568c.0856.4173.1498.6956.4708.6956h2.3006c.289 0 .3104 0 .3104-.3425 0-.9951-.2248-1.3482-1.0701-1.4125"/><path d="m29.8227 16.6502h-.2461v-7.91849c0-.20331 0-.21401-.2033-.21401h-3.2102c-.289 0-.3211 0-.3211.34242 0 1.07006.289 1.41248 1.2413 1.41248h.2675v6.4204h-.2461c-.9523 0-1.2413.321-1.2413 1.4125 0 .321 0 .3424.3104.3424h4.5798c.2783 0 .3211 0 .3211-.3424 0-1.0701-.2997-1.4125-1.2413-1.4125"/><path d="m28.4209 4.74036c-.1822.00266-.362.04194-.5287.11549s-.3169.17987-.4417.31264-.2216.28928-.2847.46023c-.0631.17094-.0911.35282-.0825.53482-.0089.3675.1259.72398.3757.99372.2497.26974.5948.43148.9619.45087.1827-.00689.3623-.04974.5284-.1261.1662-.07635.3156-.18471.4399-.31888.1242-.13417.2208-.29152.2841-.46304.0634-.17152.0923-.35386.0852-.53657.0071-.18165-.022-.3629-.0856-.5332-.0636-.17029-.1605-.32622-.285-.45868-.1245-.13247-.2741-.23883-.4401-.31288-.1661-.07405-.3452-.1143-.5269-.11842z"/><path d="m13.3116 7.24432c.9738 0 1.2841-.35312 1.2841-1.45529 0-.32102 0-.35312-.321-.35312h-4.3552c-.25682 0-.28892 0-.32102.18191v.17121c0 1.07007.29961 1.45529 1.25202 1.45529h.0642v6.52738c0 1.252 0 2.9534-2.04387 2.9534-2.04382 0-2.04382-1.3483-2.04382-2.9534v-6.52738h.07491c.94165 0 1.25197-.35312 1.25197-1.45529v-.19261c0-.1177-.0749-.16051-.31032-.16051h-4.40866c-.27822 0-.32102 0-.32102.35312 0 1.07007.27822 1.45529 1.28408 1.45529v6.52738c.0535 3.5098 1.38038 5.0186 4.47286 5.0186 3.09247 0 4.44077-1.4981 4.44077-5.0079z"/><path d="m23.5093 16.6502v-5.3503c0-2.14017-.7277-3.14603-2.3542-3.14603-.5577.01926-1.1045.1605-1.6018.41377-.4973.25328-.9331.61244-1.2767 1.05222l-.0963-.41733c-.107-.43872-.1926-.70624-.4708-.70624h-2.4825c-.2783 0-.3211 0-.3211.34242 0 1.07006.2569 1.38039 1.145 1.41249.1693.5833.2381 1.1913.2033 1.7977v4.6013c-.9309 0-1.2198.3424-1.2198 1.4125 0 .3317 0 .3424.321.3424h2.9319c.1927 0 .1927 0 .1927-.214v-7.1802c.4226-.4948 1.0213-.8057 1.6693-.8667 1.07 0 1.07 1.252 1.07 1.787v6.2706c0 .1926 0 .214.1926.214h2.932c.2675 0 .3103 0 .3103-.3424 0-1.0701-.2889-1.3911-1.1877-1.3911"/><path d="m35.3228 18.7903c1.3054 0 2.3755-.3317 2.3755-.6099-.0316-.2091-.0744-.4163-.1284-.6207-.1926-.7383-.2568-1.07-1.6479-.856-.0781.0157-.1588.0122-.2352-.0102s-.1462-.0629-.2035-.1182c-.2357-.3997-.33-.8671-.2675-1.3269v-5.0186h1.2412c.9524 0 1.2413-.33172 1.2413-1.41249 0-.33172 0-.34242-.321-.34242h-2.1401v-2.75006c0-.27822 0-.28892-.1284-.28892-.1285 0-.5565.05351-.7919.08561-.3984.06104-.7582.27269-1.0051.59128-.2469.31858-.3621.71978-.3218 1.12082v1.25197h-1.2841c-.2675 0-.3103 0-.3103.34242 0 1.07007.2996 1.41249 1.2413 1.41249h.3531v4.6548c0 1.9261 0 3.895 2.3542 3.895"/><path d="m40.8229 12.3699v-.1712c.0749-.6848.214-2.24714 1.6372-2.24714s1.4125 1.60514 1.4125 2.41834zm5.3503 1.3162c0-3.6382-1.2413-5.48944-3.6703-5.48944s-4.002 2.14014-4.002 5.35034c0 4.2802 2.2364 5.2112 4.109 5.2112 1.5088 0 3.2102-.7063 3.2102-1.145-.0363-.2365-.0936-.4692-.1712-.6955-.0749-.214-.2033-.4495-.8454-.4174-.642.0321-1.284.2462-2.0117.2462-1.3911 0-2.1401-.8561-2.1401-2.6859h5.0721c.321 0 .3745 0 .3745-.428"/><path d="m51.1597 16.8749c-1.3482 0-1.6265-1.2199-1.6265-3.3493s.289-3.467 1.7442-3.467c.5289-.0202 1.0502.1298 1.4874.428v5.6393c-.1836.249-.4267.4481-.7071.5789-.2804.1309-.5891.1893-.898.1701zm4.0128-.2247c-.1698-.5759-.2386-1.1769-.2033-1.7763v-9.866c0-.18191 0-.21402-.1926-.21402h-2.8999c-.2675 0-.3317 0-.3317.34242 0 1.07007.2889 1.40179 1.177 1.41249v2.27923l-.1819-.1284c-.5186-.37401-1.1481-.56248-1.787-.53504-2.3006 0-3.5205 1.97962-3.5205 5.71412 0 3.1567 1.0701 4.9116 3.1353 4.9116 1.0034-.0295 1.9572-.4432 2.6644-1.1557l.1285.4281c.0963.3424.1177.3745.3852.3745h2.6965c.2676 0 .3104 0 .3104-.3424 0-1.0701-.289-1.4125-1.2841-1.4125"/><path d="m96.188 38.0515h.2354c.2568 0 .3638 0 .3638-.2248 0-.2247-.0856-.2033-.3103-.2033h-.2889zm0 .7918h-.214v-1.3911h.535c.321 0 .4922.1284.4922.3959.0029.0473-.0037.0946-.0195.1393-.0158.0446-.0404.0856-.0723.1206-.0319.0349-.0706.0631-.1136.0828-.0431.0197-.0897.0305-.137.0319l.3853.6313h-.2569l-.3638-.6206h-.214zm1.2306-.7169c0-.2611-.1037-.5115-.2884-.6962-.1846-.1846-.435-.2883-.6961-.2883s-.5115.1037-.6961.2883c-.1846.1847-.2883.4351-.2883.6962-.0119.1363.0047.2735.0488.403s.1148.2484.2074.3491.2052.181.3306.2357.2608.0827.3976.0822c.1349-.0027.2679-.0325.3911-.0876.1231-.0551.2339-.1345.3258-.2333.0918-.0989.1629-.2152.2088-.342.046-.1269.066-.2617.0588-.3964zm-2.1402 0c-.0042-.2426.064-.481.1959-.6846s.3215-.3633.5447-.4586c.2231-.0953.4696-.1219.7079-.0764s.4576.161.63.3318c.1723.1708.2898.3891.3374.627s.0232.4846-.0701.7086c-.0933.2239-.2513.415-.4538.5487-.2024.1337-.4402.204-.6828.2019-.1583.0014-.3153-.0285-.4619-.0881s-.28-.1477-.3925-.2591c-.1124-.1114-.2016-.244-.2625-.3901s-.0923-.3029-.0923-.4611z"/></g></g></svg>