<svg fill="none" height="60" viewBox="0 0 91 60" width="91" xmlns="http://www.w3.org/2000/svg" xmlns:xlink="http://www.w3.org/1999/xlink"><clipPath id="a"><path d="m0 0h90.75v60h-90.75z"/></clipPath><g clip-path="url(#a)"><path d="m54.375 49.875-3.15-10.95h-1.8l-3.225 10.95-3.45-12.075h-1.35l3.975 13.65h1.65l3.3-11.025 3.225 11.025h1.575l4.05-13.65h-1.35zm-27.525-2.025 1.575 3.6h1.35l-6.075-13.65h-1.2l-6.075 13.65h1.35l1.575-3.6zm-3.75-8.7 3.225 7.5h-6.525zm13.5 5.925c1.5-.225 3.45-1.05 3.45-3.6 0-3.6-3.6-3.75-4.725-3.75h-3.9v13.65h1.275v-12.45h2.775c2.775 0 3.225 1.575 3.225 2.55s-.525 2.55-3.225 2.55h-1.5v1.125h1.35l3.75 6.225h1.5zm53.85 6.375-7.2-6.825 6.825-6.825h-1.8l-6.975 6.825 7.275 6.825zm-29.1-13.65h1.275v13.65h-1.275zm10.875.75c1.425 0 3.15.675 4.125 2.1l1.05-.825c-1.35-1.8-3.15-2.475-5.175-2.475-4.275 0-7.2 3.075-7.2 7.2 0 4.2 3 7.2 7.2 7.2 2.025 0 3.9-.75 5.175-2.475l-1.05-.825c-.975 1.5-2.7 2.1-4.125 2.1-3.675 0-5.925-2.625-5.925-6 0-3.3 2.25-6 5.925-6zm-55.8-.75-3.45 12.075-3.225-10.95h-1.65l-3.3 10.95-3.45-12.075h-1.35l3.975 13.65h1.65l3.3-11.025 3.225 11.025h1.65l3.975-13.65zm62.85 0h1.275v13.65h-1.275zm-50.475 20.025h2.1v-.45h-2.1v-1.5h2.25v-.375h-2.7v4.35h2.775v-.375h-2.325zm-7.575 1.425h-.075l-2.55-3.75h-.525v4.35h.45v-3.75l2.55 3.75h.6v-4.35h-.45zm4.575.075-1.425-3.825h-.525l1.725 4.35h.45l1.65-4.35h-.45zm-3.15-3.825h.45v4.35h-.45zm-6.075 2.7c0 .15 0 .375-.075.525s-.075.3-.225.45c-.075.15-.225.225-.375.3s-.375.15-.6.15-.375-.075-.6-.15c-.15-.075-.3-.15-.375-.3l-.225-.45c.15-.15.15-.375.15-.525v-2.7h-.45v2.775c0 .15 0 .375.075.6s.15.375.225.6c.15.15.3.3.525.45s.45.15.825.15c.3 0 .6-.075.825-.15.225-.15.375-.225.525-.45.15-.15.225-.375.225-.6.075-.225.075-.375.075-.6v-2.775h-.45v2.7zm-16.275-2.25h1.5v3.975h.45v-3.975h1.425v-.375h-3.375zm9.075 1.875h2.1v-.375h-2.1v-1.5h2.25v-.375h-2.7v4.35h2.775v-.375h-2.325zm-2.025-.375h-2.4v-1.875h-.45v4.35h.45v-2.1h2.4v2.1h.45v-4.35h-.45zm60.15-1.95-1.875 4.35h.525l.45-1.125h2.25l.45 1.125h.525l-1.875-4.35zm-.75 2.85.975-2.325.975 2.325zm-1.35-2.85-1.125 3.75-1.125-3.75h-.525l-1.05 3.75-1.125-3.75h-.45l1.275 4.35h.525l1.125-3.75 1.125 3.75h.525l1.275-4.35zm12.9 3.75h-.075l-1.05-3.75h-.525l-1.125 3.75-1.05-3.75h-.525l1.35 4.35h.45l1.125-3.75 1.125 3.75h.525l1.275-4.35h-.45zm-5.7-1.575c.15-.075.225-.15.375-.225.075-.075.15-.225.225-.375s.075-.3.075-.45c0-.225 0-.375-.075-.525s-.15-.3-.3-.375l-.45-.225h-1.95v4.35h.45v-2.025h.75l1.2 2.025h.6l-1.275-2.1c.15 0 .3 0 .375-.075zm-1.65-.225v-1.575h.825c.15 0 .3 0 .45.075.15 0 .225.075.375.15l.225.225c.075.075.075.225.075.375 0 .225-.075.45-.3.6s-.45.225-.825.225h-.825zm9.675-1.95h.45v4.35h-.45zm9.45 0h-.6l-2.1 1.95v-1.95h-.45v4.35h.45v-2.325l2.175 2.325h.675l-2.325-2.4zm-5.025 3.9c-.225.075-.45.15-.75.15s-.525-.075-.75-.15-.45-.225-.6-.45c-.15-.15-.3-.375-.375-.6s-.15-.45-.15-.75c0-.225.075-.525.15-.75s.225-.45.375-.6.375-.3.6-.45c.225-.075.45-.15.75-.15.15 0 .3 0 .375.075.15 0 .225.075.3.15s.225.15.3.15c.075.075.15.15.15.225l.375-.3c-.075-.075-.15-.225-.3-.3-.075-.075-.225-.15-.375-.225s-.3-.075-.45-.15c-.15 0-.3-.075-.45-.075-.3 0-.6.075-.9.15-.3.15-.525.3-.75.45-.225.225-.375.45-.45.75-.15.3-.15.6-.15.9s.075.675.15.9c.075.3.3.525.45.75.225.225.45.375.75.45.3.15.6.15.9.15.225 0 .375 0 .525-.075s.3-.075.45-.15.225-.15.375-.225l.3-.3-.375-.225c0 .45-.225.6-.45.675zm-50.85-1.725c.15-.075.225-.15.375-.225.075-.075.15-.225.225-.375s.075-.3.075-.45c0-.225 0-.375-.075-.525s-.15-.3-.3-.375l-.45-.225h-1.95v4.35h.45v-2.025h.75l1.2 2.025h.525l-1.275-2.025c.15-.075.3-.075.45-.15zm-1.65-.225v-1.575h.825c.15 0 .3 0 .45.075.15 0 .225.075.375.15l.225.225c.075.075.075.225.075.375 0 .225-.075.45-.3.6s-.45.225-.825.225h-.825zm5.4.375-.45-.225c-.15-.075-.3-.075-.45-.15s-.225-.075-.375-.15-.225-.075-.3-.15l-.225-.225c-.075-.075-.075-.225-.075-.375s0-.225.075-.375c.075-.075.15-.225.225-.225.075-.075.225-.15.3-.15.15 0 .225-.075.3-.075.225 0 .375.075.525.15s.3.15.375.3l.375-.3c-.075-.15-.3-.3-.45-.375-.225-.075-.45-.15-.75-.15-.15 0-.3 0-.525.075l-.45.225c-.15.075-.225.225-.3.375s-.15.3-.15.525 0 .375.075.525.15.225.3.375c.075.075.225.15.375.225s.3.075.45.15.3.075.375.15c.15.075.225.075.375.15l.225.225c.075.075.075.225.075.375s0 .3-.075.375-.15.225-.225.3-.225.15-.3.15c-.15 0-.225.075-.375.075-.225 0-.45-.075-.6-.15s-.3-.225-.375-.375l-.375.3c.075.075.15.225.3.3.075.075.225.15.3.225.15.075.225.075.375.15.15 0 .3.075.375.075.15 0 .375 0 .525-.075l.45-.225c.15-.075.225-.225.3-.375s.15-.375.15-.6-.075-.375-.15-.525c0-.3-.075-.45-.225-.525zm2.4-1.95h1.5v3.975h.45v-3.975h1.425v-.375h-3.375zm15.075 3.975h.45v-2.025h2.025v-.375h-2.025v-1.575h2.175v-.375h-2.625zm-16.125-4.35h.45v4.35h-.45zm6.825 2.1-1.275-2.1h-.6l1.65 2.475v1.875h.45v-1.875l1.65-2.475h-.525zm7.65-1.575c-.225-.225-.45-.375-.75-.45-.3-.15-.6-.15-.9-.15s-.6.075-.9.15c-.3.15-.525.3-.75.45-.225.225-.375.45-.45.75-.15.3-.15.6-.15.9s.075.675.15.9c.15.3.3.525.45.75.225.225.45.375.75.45.3.15.6.15.9.15s.6-.075.9-.15c.3-.15.525-.3.75-.45.225-.225.375-.45.45-.75.15-.3.15-.6.15-.9s-.075-.675-.15-.9c-.075-.3-.225-.525-.45-.75zm.075 2.4c-.075.225-.225.45-.375.6s-.375.3-.6.45c-.225.075-.45.15-.75.15s-.525-.075-.75-.15-.45-.225-.6-.45c-.15-.15-.3-.375-.375-.6s-.15-.45-.15-.75c0-.225.075-.525.15-.75s.225-.45.375-.6.375-.3.6-.45c.225-.075.45-.15.75-.15s.525.075.75.15.45.225.6.45c.15.15.3.375.375.6s.15.45.15.75c-.075.3-.075.525-.15.75zm-8.4-51.6 13.5 25.05 18.225-31.875h-63.45l18.15 31.875z" fill="#1f304c"/></g></svg>