<svg fill="none" height="30" viewBox="0 0 119 30" width="119" xmlns="http://www.w3.org/2000/svg" xmlns:xlink="http://www.w3.org/1999/xlink"><clipPath id="a"><path d="m0 0h118.5v30h-118.5z"/></clipPath><g clip-path="url(#a)"><path d="m20.925 4.64997c-.075 0-.15.225-.225.75h.45l.225-.075c.15 0 .225-.075.375-.15.225-.075.45-.225.6-.375l.225-.225c-.75.15-1.275.15-1.65.075zm-1.725 4.125-.075.075c-.225.15-.45.225-.75.225s-.525-.075-.75-.225l-.075-.075h-.075v.15l.075.075c.45.3 1.05.3 1.575 0l.15-.075c-.075-.075-.075-.075-.075-.15zm3.15-2.475c-.075-.15-.15-.3-.3-.375-.3-.225-.75-.225-1.125.075-.15.15-.225.3-.3.45-.15.375-.3.825-.3 1.275 0 .225.075.375.225.525s.375.3.675.3c.225.075.45.075.75 0 .225-.15.375-.375.45-.675.075-.375.075-.675.075-1.05 0-.15-.075-.375-.15-.525zm-.9 1.35c0-.075-.075-.225-.075-.45s-.15-.225-.45-.225c.075 0 .15 0 .15-.075l.15-.075c.075 0 .075-.075.15-.15.075-.15.15-.375.075-.6l.075.45c0 .15.15.3.3.3h.075c-.15 0-.225.075-.375.075-.075.375-.15.525-.075.75zm.525.375c-.075.075-.15.225-.075.375 0-.075 0-.15-.075-.3s-.075-.15-.3-.15h.225l.075-.075c.075-.15.075-.3.075-.45v.3c0 .15.075.225.225.225-.075.075-.075.075-.15.075zm-7.65-3.075c.225.15.45.225.675.3.075.075.225.075.375.075l.225.075h.45c-.075-.525-.15-.75-.225-.75h-1.65c0 .075.075.225.15.3zm1.425.975c-.3-.3-.75-.3-1.125-.075-.15.075-.225.225-.3.375-.075.225-.075.45-.075.6 0 .375 0 .675.15.975.075.3.225.525.45.675.225.075.45.075.75 0 .225 0 .45-.15.6-.3s.225-.375.225-.525c0-.45-.075-.9-.3-1.275-.15-.15-.225-.3-.375-.45zm-.825 2.175c0 .15 0 .225-.075.3 0-.15 0-.225-.075-.375-.075 0-.15-.075-.225-.075.15 0 .225-.075.225-.15v-.3c0 .15 0 .225.075.375l.075.075h.225c-.15 0-.225.075-.225.15zm.45-.9c0 .225-.075.375-.075.45.075-.225 0-.45-.15-.6-.15-.075-.225-.075-.375-.075.225.075.375 0 .45-.225v-.075l.075-.45c0 .225 0 .375.075.6 0 .075.075.075.15.15l.15.075c.075 0 .15 0 .15.075-.3-.15-.45-.075-.45.075zm20.775-7.1250012c-.225-.07500003-.375-.07500004-.6-.07500004h-4.5c-.675 0-1.35.22500024-1.95.60000024s-1.125.750001-1.575 1.200001c-.825.75-1.575 1.5-2.175 2.4-.3-.6-.6-1.2-.9-1.725-.525-1.05-1.425-1.800001-2.55-2.175001-.3-.075-.6-.075-.9-.075h-5.175c-.3 0-.6 0-.825.075-1.125.3-2.025 1.125001-2.55 2.100001-.3.6-.6 1.125-.825 1.725-.675-.825-1.425-1.65-2.175-2.4-.525-.45-1.05-.825001-1.65-1.200001-.6-.3-1.275-.52500024-1.95-.52500024h-4.5c-.3 0-.6.00000001-.825.07500004-.15.0750002-.3.1500002-.375.2250002-.075.15-.15.3-.15.45 0 .075 0 .225.075.300001 0 .15.15.3.225.45.075.075.225.15.225.225.225.225.375.45.525.675l.675 1.125c.525.9.975 1.875 1.5 2.775 1.125 2.025 2.4 3.97503 3.825 5.85003 1.05 1.35 2.325 2.475 3.825 3.3l-3.525 6.525c-1.05 1.95-2.1 3.9-3.225 5.85l-.15.3c-.15.075-.225.225-.3.375s-.15.375-.15.6.075.375.225.525c.225.15.45.3.675.3s.45.075.675.075h5.4c1.275-.15 2.475-.75 3.3-1.875l.15-.375c.6-.975 2.4-3.9 3.225-5.175.15-.3.525-.825.825-1.35l.375-.6.375.6.825 1.35 1.95 3.15.9 1.5.3.525.15.3c.75 1.05 1.95 1.725 3.3 1.875h5.4c.3 0 .6 0 .9-.075l.45-.225c.15-.15.225-.3.225-.525 0-.15-.075-.375-.075-.525-.075-.15-.15-.3-.225-.525l-.075-.3c-1.125-1.875-2.175-3.825-3.15-5.775l-3.525-6.6c1.5-.75 2.85-1.875 3.825-3.3 1.425-1.8 2.7-3.75003 3.825-5.85003.525-.9.975-1.875 1.5-2.775l.675-1.125.45-.675c.075-.075.15-.15.225-.3s.15-.225.225-.375001c.075-.075.075-.225.075-.3 0-.15-.075-.3-.15-.45-.225-.075-.375-.1500002-.6-.1500002zm.225.9000002c-.075.075001-.075.150001-.15.225001s-.225.15-.3.3c-.15.225-.3.45-.525.675l-.675 1.125c-.225.375-.45.825-.675 1.275-.75 1.05-1.725 2.025-2.7 2.775-1.8 1.425-4.8 2.85003-9.075 4.27503-4.125 1.35-7.125 2.925-9 4.65-.9.825-1.575 1.425-1.95 1.725-.075.075-.525.525-1.2 1.275-.975 1.125-1.875 2.25-2.775 3.45l-.45.675.675-1.275 3.6-6.75c.075-.075 0-.225-.075-.3-1.575-.75-2.85-1.875-3.9-3.225-1.425-1.8-2.7-3.75003-3.75-5.77503-.45-.9-.9-1.875-1.35-2.775l-.675-1.125c-.15-.225-.375-.45-.525-.675-.075-.15-.15-.225-.3-.3-.075-.075-.075-.15-.15-.300001v-.15c0-.075 0-.075.075-.15 0-.075.15-.075.225-.15.15 0 .375-.075.525-.075h4.5c.6 0 1.2.225 1.725.525.525.375001 1.05.750001 1.5 1.200001.9.825 1.65 1.65 2.4 2.625.075.075.225.075.3 0l.075-.075c.3-.675.6-1.425.975-2.025.45-.9 1.275-1.650001 2.25-1.875001.225-.075.525-.075.75-.075h5.25c.225 0 .525 0 .75.075.975.300001 1.8.975001 2.25 1.875001.375.675.675 1.35.975 2.025.075.15.15.15.3.15.075 0 .075-.075.075-.075.75-.975 1.5-1.8 2.4-2.625.45-.45.975-.825 1.5-1.200001.525-.375 1.125-.525 1.8-.6h4.5c.225 0 .45 0 .675.075.075 0 .15.075.15.075 0 .075.075.075.075.15-.075.225-.075.3-.075.375zm48.6-.375c-1.5.825001-2.1 2.175001-2.1 5.925001.525-.525 1.2-.9 1.95-1.2.675-.3 1.35-.6 1.95-1.05 1.275-.975 1.5-2.175 1.5-4.2000012-1.125-.07500003-2.25.0750002-3.3.5250002zm-9 .825001c-.825.75-1.35 1.8-1.65 2.85l-4.125 15.97503-3.45-13.05003c-.3-1.575-.975-3-1.875-4.275-1.2-1.5-3.675-1.575-3.975-1.575s-2.7.075-3.9 1.575c-.9 1.275-1.575 2.7-1.875 4.275l-3.45 13.05003-4.125-15.97503c-.3-1.05-.825-2.025-1.65-2.85-2.025-1.800001-5.025-1.42500124-5.025-1.42500124l7.875 29.92503124s2.625.15 3.9-.45c1.725-.9 2.55-1.575 3.6-5.625.9-3.6 3.525-14.25003 3.75-15.00003.15-.375.3-1.275.9-1.275s.825.9.9 1.275c.225.75 2.85 11.40003 3.75 15.00003 1.05 4.05 1.875 4.725 3.6 5.625 1.275.675 3.9.45 3.9.45l7.95-29.92503124s-3-.37499976-5.025 1.42500124zm12.3 3.525c-.45.6-.975 1.05-1.65 1.425-.75.375-1.425.675-2.175 1.05-1.275.6-1.575 1.275-1.575 2.25v20.32503c1.125.15 2.25 0 3.3-.375 1.65-.825 2.1-1.65 2.1-5.4zm29.775-4.800001s-4.2-.75-6.3 1.200001c-1.05 1.05-2.025 2.175-2.85 3.45l-3.675 5.32503c-.15.45-.6.675-1.05.525-.225-.075-.45-.3-.525-.525l-3.675-5.32503c-.825-1.2-1.8-2.4-2.85-3.45-2.1-1.950001-6.3-1.200001-6.3-1.200001l10.05 14.925031-10.125 14.85s4.425.525 6.525-1.35c.975-.975 1.875-2.025 2.625-3.225l3.675-5.325c.15-.45.6-.675 1.05-.525.225.075.45.3.525.525l3.675 5.325c.825 1.125 1.725 2.25 2.7 3.225 2.1 1.875 6.45 1.35 6.45 1.35l-9.975-14.85z" fill="#1f304c"/></g></svg>