<svg fill="none" height="32" viewBox="0 0 156 32" width="156" xmlns="http://www.w3.org/2000/svg"><g clip-rule="evenodd" fill="#1f304c" fill-rule="evenodd"><path d="m107.739 18.0212c-.413-2.6881-2.02-4.669-5.237-4.669-2.9876 0-5.0533 1.6976-5.6053 4.669zm-4.732 8.0173c2.526 0 4.364-1.0373 5.467-2.1216l2.711 2.9227c-1.793 1.8401-4.272 3.2094-8.131 3.2094-6.6174 0-10.8894-4.3875-10.8894-10.3302 0-5.8958 4.503-10.32842 10.2904-10.32842 6.571 0 10.291 4.99912 9.969 11.93222h-15.5273c.552 2.8776 2.5726 4.7159 6.1103 4.7159z"/><path d="m1.04932 25.8233 11.95208-12.1398h-11.67245v-3.81021h17.20925v3.88781l-11.95212 12.1416h12.11272v3.8084h-17.64948z"/><path d="m36.8491 18.0212c-.4131-2.6881-2.0205-4.669-5.2372-4.669-2.9876 0-5.0533 1.6976-5.6054 4.669zm-4.7321 8.0173c2.5257 0 4.3641-1.0373 5.4664-2.1216l2.7116 2.9227c-1.7933 1.8401-4.2721 3.2094-8.1329 3.2094-6.6156 0-10.8877-4.3875-10.8877-10.3302 0-5.8958 4.503-10.32842 10.2906-10.32842 6.5705 0 10.2905 4.99912 9.9694 11.93222h-15.5279c.5521 2.8776 2.5727 4.7159 6.1105 4.7159z"/><path d="m84.1522 19.6912c0-3.5306-2.6683-6.428-6.2945-6.428-3.5468 0-6.2963 2.818-6.2963 6.428s2.7495 6.4676 6.2963 6.4676c3.6262 0 6.2945-2.8973 6.2945-6.4676zm-16.8124.0397c0-6.3486 4.7394-10.31584 9.9586-10.31584 2.6304 0 5.1399 1.15104 6.6138 2.97674v-11.706741h4.2234v28.966541h-4.2234v-2.7386c-1.5136 1.9448-4.0231 3.1337-6.6535 3.1337-5.0586 0-9.9189-4.0051-9.9189-10.3158z"/><path d="m115.174 25.4445 3.823-1.9827c1.077 1.8239 2.83 2.8955 5.1 2.8955 2.39 0 3.626-1.2286 3.626-2.6177 0-1.5876-2.309-1.9448-4.82-2.4608-3.389-.7144-6.892-1.8257-6.892-5.9102 0-3.1373 2.986-6.03289 7.689-5.9932 3.704 0 6.455 1.4685 8.008 3.8499l-3.547 1.943c-.916-1.3891-2.469-2.2623-4.461-2.2623-2.271 0-3.426 1.1131-3.426 2.3814 0 1.4289 1.833 1.824 4.701 2.459 3.266.7162 6.971 1.786 6.971 5.9138 0 2.7368-2.388 6.428-8.048 6.3865-4.142 0-7.052-1.6652-8.724-4.6022z"/><path d="m143.414 20.8424-3.345 3.6497v5.1579h-4.223v-28.964697h4.223v18.966397l8.963-9.83949h5.14l-7.771 8.49009 7.971 11.3477h-4.781z"/><path d="m54.5783 9.41113c-5.0208 0-9.2243 3.25277-9.2243 8.64887v11.5912h4.3028v-11.0536c0-3.2528 1.8726-5.2012 5.0568-5.2012 3.1897 0 4.7845 1.9484 4.7845 5.2012v11.0536h4.3027v-11.5912c0-5.3961-4.2035-8.64887-9.2225-8.64887z"/></g></svg>