<svg fill="none" height="40" viewBox="0 0 183 40" width="183" xmlns="http://www.w3.org/2000/svg" xmlns:xlink="http://www.w3.org/1999/xlink"><clipPath id="a"><path d="m0 0h182.066v40h-182.066z"/></clipPath><g clip-path="url(#a)" fill="#1f304c"><path d="m137.602 10.3084c0-.2742.056-.54556.164-.79763s.266-.47966.464-.66905.433-.33666.69-.43293c.256-.09626.53-.13953.804-.12719.393.02111.772.15705 1.088.39101.317.23396.559.55567.695.92533.135.36966.16.77106.07 1.15456-.09.3834-.29.7321-.576 1.003-.286.2708-.645.4519-1.033.5208-.387.0689-.787.0226-1.149-.1332-.361-.1557-.67-.4141-.886-.7431-.216-.3291-.332-.7144-.331-1.1082z"/><path d="m141.26 14.6651c.045 0 .087.0175.118.0487.031.0311.049.0734.049.1174v13.0662c0 .044-.018.0863-.049.1174-.031.0312-.073.0487-.118.0487h-3.015c-.044 0-.086-.0175-.117-.0487-.031-.0311-.049-.0734-.049-.1174v-13.0662c0-.044.018-.0863.049-.1174.031-.0312.073-.0487.117-.0487z"/><path d="m30.626 24.824 10.4039-13.2198c.0089-.0127.0143-.0276.0155-.0431.0012-.0154-.0017-.031-.0084-.0449-.0068-.014-.0172-.0259-.0301-.0345s-.0279-.0137-.0434-.0145h-10.0467c-.0218 0-.0434-.0043-.0636-.0127-.0202-.0083-.0385-.0206-.0539-.036s-.0277-.0337-.036-.0539c-.0084-.0202-.0127-.0418-.0127-.0636v-2.83665c0-.02182.0043-.04342.0127-.06358.0083-.02015.0206-.03847.036-.05389.0154-.01543.0337-.02767.0539-.03602.0202-.00834.0418-.01264.0636-.01264h14.8645c.0218 0 .0434.0043.0636.01264.0201.00835.0384.02059.0538.03602.0155.01542.0277.03374.0361.05389.0083.02016.0126.04176.0126.06358v2.94465c-.0006.0468-.0167.0921-.0457.1288l-10.5036 13.2115c-.009.012-.0147.0263-.0162.0413-.0016.015.001.0302.0074.0439.0064.0136.0164.0253.0289.0337.0126.0084.0272.0132.0422.014h10.3209c.044 0 .0863.0175.1174.0486.0312.0312.0487.0734.0487.1175v2.8491c0 .0218-.0043.0434-.0126.0636-.0084.0202-.0206.0385-.0361.0539-.0154.0154-.0337.0277-.0538.036-.0202.0084-.0418.0127-.0636.0127h-15.0307c-.0218 0-.0434-.0043-.0635-.0127-.0202-.0083-.0385-.0206-.0539-.036-.0155-.0154-.0277-.0337-.036-.0539-.0084-.0202-.0127-.0418-.0127-.0636v-2.9446c-.0009-.0464.0137-.0917.0415-.1288z"/><path d="m70.3687 8.46435c0-.02182.0043-.04342.0126-.06358.0084-.02015.0206-.03847.036-.05389.0154-.01543.0338-.02767.0539-.03602.0202-.00834.0418-.01264.0636-.01264h6.18c5.6858 0 7.8912 2.07658 7.8912 5.66918 0 3.6756-2.6747 5.2165-4.4398 5.4325-.0099.0014-.0194.0053-.0275.0111-.0081.0059-.0147.0137-.0192.0226-.0045.009-.0067.0189-.0065.029.0001.01.0027.0198.0075.0286l5.0421 8.3855c.0109.0189.0166.0404.0166.0623s-.0057.0434-.0167.0623c-.0109.0189-.0267.0347-.0456.0456-.019.0109-.0405.0167-.0623.0167h-3.8999c-.0373-.0004-.0738-.0105-.1059-.0295s-.0586-.046-.0769-.0785l-4.4813-8.2027c-.0122-.0187-.0288-.0342-.0484-.0451-.0195-.0108-.0414-.0168-.0638-.0172h-2.4089c-.022 0-.0431.0087-.0587.0243s-.0243.0367-.0243.0588v8.1237c0 .0218-.0043.0434-.0127.0636-.0083.0202-.0206.0385-.036.0539s-.0337.0277-.0539.036c-.0202.0084-.0418.0127-.0636.0127h-3.1855c-.0218 0-.0434-.0043-.0636-.0127-.0201-.0083-.0385-.0206-.0539-.036s-.0276-.0337-.036-.0539c-.0083-.0202-.0126-.0418-.0126-.0636zm6.4832 8.21095c2.5708 0 4.2778-.5897 4.2778-2.737 0-1.8191-1.2252-2.6248-4.2031-2.6248h-2.9571c-.0109 0-.0217.0021-.0318.0063-.01.0042-.0192.0103-.0269.018s-.0138.0169-.018.027c-.0042.01-.0063.0208-.0063.0317v5.1916c0 .022.0087.0432.0243.0588.0156.0155.0367.0243.0587.0243z"/><path d="m110.024 18.565c-.015.0156-.033.028-.053.0364-.02.0085-.042.0129-.063.0129-.022 0-.044-.0044-.063-.0129-.02-.0084-.039-.0208-.054-.0364-.691-.7281-1.634-1.1648-2.637-1.221-1.483 0-3.738.9885-3.738 4.0203 0 3.0942 2.438 4.0204 3.834 4.0204.969-.0316 1.892-.4276 2.583-1.1089.015-.0176.034-.0317.055-.0414s.044-.0147.067-.0147c.024 0 .047.005.068.0147s.04.0238.055.0414l1.993 2.143c.016.0155.029.0339.037.0542.009.0204.013.0422.013.0642s-.004.0438-.013.0642c-.008.0203-.021.0387-.037.0542-1.296 1.1518-2.975 1.7783-4.709 1.7568-3.385 0-7.285-2.2095-7.285-7.0356 0-4.6932 3.638-7.0356 7.285-7.0356 1.768-.0066 3.469.6791 4.739 1.9105.016.0159.029.0349.038.0559.009.0211.014.0437.014.0666s-.005.0455-.014.0665c-.009.0211-.022.0401-.038.056z"/><path d="m88.6137 22.5356c-.012-.0002-.024.0023-.0349.0072-.011.005-.0208.0122-.0287.0213s-.0137.0198-.0171.0314c-.0034.0115-.0042.0237-.0024.0356.1745 1.5242 1.8399 3.09 3.5885 3.09 1.8232 0 2.6871-.76 3.5012-1.6987.0273-.0316.0656-.0517.1072-.0563.0416-.0047.0834.0066.117.0314l2.139 1.6156c.0357.0293.0584.0715.063.1174.0047.0459-.009.0918-.0381.1277-.6729.8162-1.5223 1.4691-2.4842 1.9094s-2.0111.6565-3.0687.6324c-3.8626 0-7.289-2.6249-7.289-7.0356 0-4.2239 3.1856-7.0357 7.0813-7.0357 3.6507 0 6.4874 3.0527 6.4874 7.2848v.7559c0 .0441-.0175.0864-.0487.1175-.0311.0312-.0734.0487-.1174.0487zm6.6826-2.492c.022 0 .0432-.0087.0587-.0243.0156-.0156.0244-.0367.0244-.0587-.0398-.8436-.4062-1.6385-1.0217-2.2168-.6154-.5782-1.4316-.8944-2.276-.8816-.8694-.0438-1.7224.2482-2.3825.8156-.6602.5674-1.0771 1.3668-1.1644 2.2329-.0018.0119-.001.0241.0024.0356.0033.0116.0091.0223.017.0314s.0177.0163.0287.0213c.011.0049.0229.0074.035.0072z"/><path d="m157.35 22.5356c-.012-.0002-.024.0023-.035.0072-.011.005-.02.0122-.028.0213s-.014.0198-.017.0314c-.004.0115-.005.0237-.003.0356.175 1.5242 1.84 3.09 3.589 3.09 1.823 0 2.687-.76 3.501-1.6987.027-.0316.065-.0517.107-.0563.042-.0047.083.0066.117.0314l2.139 1.6156c.036.0293.058.0715.063.1174s-.009.0918-.038.1277c-.673.8162-1.522 1.4691-2.484 1.9094s-2.011.6565-3.069.6324c-3.862 0-7.289-2.6249-7.289-7.0356 0-4.2239 3.186-7.0357 7.081-7.0357 3.651 0 6.488 3.0527 6.488 7.2848v.7559c0 .0441-.018.0864-.049.1175-.031.0312-.073.0487-.117.0487zm6.683-2.492c.022 0 .043-.0087.059-.0243.015-.0156.024-.0367.024-.0587-.035-.8458-.398-1.6448-1.012-2.2272s-1.431-.9024-2.277-.8919c-.874-.0457-1.732.2481-2.395.8201-.662.5719-1.078 1.3778-1.161 2.2491-.001.0119-.001.0241.003.0356.003.0116.009.0223.017.0314s.017.0163.028.0213c.011.0049.023.0074.035.0072z"/><path d="m113.953 14.6651h2.633c.038-.0006.076.0124.105.0368.03.0243.05.0584.057.0961l.39 1.9895h.054c1.412-2.762 4.756-2.3466 5.034-2.2926.079 0 .133.0872.133.2533v2.5875c0 .0229-.005.0456-.014.0666s-.022.0399-.039.0555-.037.0276-.058.0351c-.022.0076-.045.0106-.068.0089-.388-.0801-.783-.1246-1.179-.1329-2.164 0-3.705 1.9396-3.863 4.5894v5.9391c0 .0218-.004.0434-.012.0636-.009.0201-.021.0385-.036.0539-.016.0154-.034.0276-.054.036-.02.0083-.042.0126-.064.0126h-3.019c-.022 0-.044-.0043-.064-.0126-.02-.0084-.038-.0206-.054-.036-.015-.0154-.027-.0338-.036-.0539-.008-.0202-.012-.0418-.012-.0636v-13.0661c0-.0441.017-.0863.048-.1175s.074-.0487.118-.0487z"/><path d="m169.374 14.6651h2.633c.038.0002.075.0135.105.0377.029.0242.049.0579.057.0952l.39 1.9895h.054c1.413-2.762 4.752-2.3466 5.03-2.2926.079 0 .137.0872.137.2533v2.5875c0 .0229-.005.0456-.014.0666s-.022.0399-.039.0555-.036.0276-.058.0351c-.022.0076-.045.0106-.068.0089-.388-.0801-.783-.1246-1.179-.1329-2.168 0-3.705 1.9396-3.863 4.5894v5.9391c0 .0218-.004.0434-.012.0636-.009.0201-.021.0385-.036.0539-.016.0154-.034.0276-.054.036-.02.0083-.042.0126-.064.0126h-3.019c-.022 0-.044-.0043-.064-.0126-.02-.0084-.038-.0206-.054-.036-.015-.0154-.027-.0338-.036-.0539-.008-.0202-.012-.0418-.012-.0636v-13.0661c0-.0441.017-.0863.048-.1175.032-.0312.074-.0487.118-.0487z"/><path d="m143.167 17.344v-2.4919c0-.0219.004-.0435.013-.0636.008-.0202.02-.0385.036-.0539.015-.0154.033-.0277.054-.036.02-.0084.041-.0127.063-.0127h2.513c.022 0 .043-.0087.059-.0243.015-.0156.024-.0367.024-.0587v-2.4588c0-.0336.01-.0665.029-.094.02-.0276.047-.0484.079-.0596l3.019-1.1256c.026-.0084.053-.0108.079-.007.026.0039.052.0139.073.0293.022.0153.04.0356.053.0592.012.0235.019.0497.02.0764v3.5593c0 .022.008.0432.024.0587.016.0156.037.0244.059.0244h3.434c.044 0 .087.0175.118.0486.031.0312.049.0734.049.1175v2.4919c0 .0441-.018.0864-.049.1175-.031.0312-.074.0487-.118.0487h-3.434c-.022 0-.043.0087-.059.0243s-.024.0367-.024.0587v5.7814c0 1.1629.195 2.1763 1.869 2.1763.568.0084 1.133-.096 1.661-.3074.019-.0086.04-.0122.06-.0104.021.0018.041.0088.058.0205s.031.0277.04.0463.013.0392.012.0599v2.4629c.001.0396-.01.0785-.032.1118-.021.0333-.052.0594-.088.0751-.813.2842-1.669.4247-2.53.4153-1.619 0-2.72-.353-3.322-.9677s-1.051-1.4827-1.051-3.7794v-6.0638c0-.022-.009-.0431-.024-.0587-.016-.0156-.037-.0244-.059-.0244h-2.513c-.024.0043-.049.0032-.072-.0032-.024-.0064-.046-.0179-.065-.0338-.018-.0159-.033-.0357-.043-.058s-.015-.0466-.015-.0711z"/><path d="m129.677 25.5093c-1.337 0-2.463-.8307-2.492-2.3176v-8.3688c0-.0221-.004-.0441-.013-.0645-.008-.0205-.021-.039-.037-.0544-.016-.0155-.035-.0277-.055-.0358-.021-.0081-.043-.012-.065-.0114h-3.019c-.022-.0006-.044.0033-.065.0115-.02.0081-.039.0203-.054.0359-.016.0155-.028.0341-.036.0545s-.012.0423-.012.0642v7.966c0 3.2644 2.438 5.6069 5.815 5.6069h.083c3.377 0 5.815-2.3425 5.815-5.6069v-7.966c0-.0219-.004-.0438-.012-.0642s-.02-.039-.036-.0545c-.015-.0156-.034-.0278-.054-.0359-.021-.0082-.043-.0121-.065-.0115h-3.023c-.022-.0006-.044.0033-.064.0115-.021.0081-.039.0203-.055.0359-.015.0155-.028.0341-.036.0545s-.012.0423-.011.0642v8.3688c-.038 1.4827-1.163 2.3176-2.492 2.3176z"/><path d="m57.5099 26.4397c-.0019-.0134.0008-.0271.0079-.0387.007-.0116.0178-.0203.0306-.0248.0128-.0044.0268-.0042.0395.0005.0127.0048.0233.0138.03.0256.8597 1.1297 2.6083 2.0019 4.5271 2.0019 3.2478 0 6.4749-2.5252 6.4749-7.0357 0-4.7637-3.2437-7.0356-6.6161-7.0356-.8903-.0245-1.7728.1707-2.5697.5684-.7968.3977-1.4833.9856-1.9989 1.7118-.0043.0108-.0118.02-.0214.0265s-.021.01-.0326.01-.023-.0035-.0326-.01-.0171-.0157-.0214-.0265l-.3738-1.7984c-.0077-.037-.0282-.0701-.0577-.0936-.0296-.0235-.0665-.0359-.1043-.0351h-2.467c-.022-.0006-.0438.0033-.0643.0114-.0204.0082-.0389.0204-.0545.0359-.0155.0156-.0277.0341-.0359.0545-.0081.0205-.012.0423-.0114.0643v19.4331c0 .044.0175.0863.0486.1174.0312.0312.0734.0487.1175.0487h3.0194c.0441 0 .0863-.0175.1175-.0487.0311-.0311.0486-.0734.0486-.1174zm4.2405-1.0508c-2.1888 0-3.9373-1.491-3.9373-4.0204 0-2.5293 1.7402-4.0203 3.9373-4.0203 1.3 0 3.6217.8763 3.6217 4.0203 0 3.1441-2.4255 4.0204-3.6217 4.0204z"/><path d="m47.6877 10.3084c.0003-.2742.0561-.54556.1641-.79763s.2659-.47966.4642-.66905.433-.33666.6897-.43293c.2568-.09626.5304-.13953.8044-.12719.3932.02111.7717.15705 1.0885.39101.3169.23396.5582.55567.6941.92533s.1604.77106.0706 1.15456c-.0898.3834-.2901.7321-.576 1.003-.286.2708-.6451.4519-1.0328.5208-.3878.0689-.7873.0226-1.149-.1332-.3618-.1557-.6699-.4141-.8863-.7431-.2165-.3291-.3317-.7144-.3315-1.1082z"/><path d="m51.3467 14.6651c.044 0 .0863.0175.1175.0487.0311.0311.0486.0734.0486.1174v13.0662c0 .044-.0175.0863-.0486.1174-.0312.0312-.0735.0487-.1175.0487h-3.0153c-.044 0-.0863-.0175-.1175-.0487-.0311-.0311-.0486-.0734-.0486-.1174v-13.0662c0-.044.0175-.0863.0486-.1174.0312-.0312.0735-.0487.1175-.0487z"/><path clip-rule="evenodd" d="m21.9704 11.0144c-.2747-.0677-.5631-.0547-.8307.0374l-1.113.378v-10.449633c0-.259957-.1033-.509266-.2871-.693083s-.4331-.287084-.6931-.287084h-14.77728c-.25996 0-.50927.103267-.69308.287084-.18382.183817-.28709.433126-.28709.693083v10.449633l-1.11722-.378c-.26752-.0921-.55594-.1051-.83065-.0374-.41533.0997-1.34150771.5067-1.34150771 2.1265v8.5515c-.00412035.0595-.00412035.1192 0 .1786.03643301.4378.23592871.8459.55898071 1.1436s.746107.4632 1.185387.4637h3.73793c.79363.823 1.87675 1.3042 3.01942 1.3415.01257.6048.19956 1.1931.53849 1.6941.33892.501.81535.8935 1.37202 1.1302v2.4379c-.001.0217-.0101.0423-.0255.0576-.0153.0154-.0359.0245-.0576.0255-5.21647.2077-8.55984 1.8648-9.515087 2.4089-.237881.162-.428553.3842-.552583.644-.12403.2597-.1769864.5477-.153472.8345v1.9147c.014041.3253.154912.6323.392447.8551.237536.2228.552855.3437.878445.3369.2954-.0166.57527-.1377.78953-.3417.21425-.2041.34892-.4777.37989-.7719.03097-.2943-.04377-.5899-.21085-.8341-.16707-.2442-.41559-.4209-.70106-.4986-.0176-.003-.03356-.0121-.04498-.0259-.01143-.0137-.01757-.031-.01732-.0489v-.6894c.00238-.0863.02793-.1704.07396-.2435s.11086-.1324.18769-.1718c1.41626-.7808 5.02544-1.1754 7.75413-1.3125h.83066c.0195.001.0379.0092.0517.0231.0139.0138.022.0322.0231.0517.1412 2.2095.3571 4.0744.4153 5.2414h-.1039c-.4776 0-.8846.5441-.8846 1.246s.4153 1.246.8846 1.246h1.6613c.4735 0 .8847-.5483.8847-1.246 0-.6978-.4153-1.246-.8847-1.246h-.1038s.2949-3.0319.4361-5.2372c.0009-.02.009-.0389.0227-.0534s.0322-.0236.0521-.0256h.8306c2.7287.1371 6.3379.5317 7.7541 1.3125.0769.0394.1417.0987.1877.1718.0461.0731.0716.1572.074.2435v.6894c.0003.0179-.0059.0352-.0173.0489-.0114.0138-.0274.0229-.045.0259-.2268.0529-.4343.1683-.5989.3331-.1645.1648-.2796.3725-.3321.5994-.0526.2269-.0404.464.035.6843.0754.2204.211.4152.3916.5624.1805.1472.3986.2408.6297.2702.231.0295.4657-.0064.6774-.1036.2116-.0972.3918-.2517.5201-.4461s.1995-.4209.2056-.6537v-1.9147c.0235-.2868-.0294-.5748-.1535-.8345-.124-.2598-.3147-.482-.5526-.644-.9594-.5441-4.3027-2.2013-9.5151-2.4089-.0217-.001-.0422-.0101-.0576-.0255-.0153-.0153-.0244-.0359-.0254-.0576v-2.4379c.5566-.2368 1.0331-.6292 1.372-1.1302s.5259-1.0893.5385-1.6941c1.1426-.0373 2.2258-.5185 3.0194-1.3415h3.7379c.4393-.0005.8624-.166 1.1854-.4637.3231-.2977.5226-.7058.559-1.1436.0041-.0594.0041-.1191 0-.1786v-8.5432c.0166-1.6198-.9179-2.0268-1.3249-2.1265zm-18.68966 9.0375-1.7236 1.3083c-.00925.0069-.02026.0112-.03178.0122s-.02311-.0012-.03346-.0063c-.01035-.0052-.01905-.0132-.02513-.023s-.0093-.0212-.0093-.0328v-8.1694c0-.3115.04568-.76.22843-.7019l1.50763.5108c.02521.0086.04713.0248.06275.0464s.02417.0475.02446.0741zm18.45706 1.3083-1.707-1.3083v-6.9816c-.0003-.0268.008-.053.0237-.0747s.038-.0377.0635-.0458l1.4994-.515c.1952-.0539.2284.3904.2284.7019v8.1736c0 .0116-.0032.023-.0093.0328s-.0148.0178-.0251.023c-.0104.0051-.022.0073-.0335.0063s-.0225-.0053-.0318-.0122z" fill-rule="evenodd"/><path d="m178.046 12.7339c-.002-.2675.053-.5322.162-.7767.096-.2379.237-.455.415-.6396.184-.1768.4-.3176.636-.4153.247-.1042.512-.1579.781-.1579.268 0 .533.0537.78.1579.236.0987.451.2394.636.4153.178.1846.319.4017.415.6396.107.2457.162.5108.162.7787 0 .268-.055.5331-.162.7788-.096.2379-.237.455-.415.6396-.186.1746-.401.3152-.636.4153-.247.1042-.512.1579-.78.1579-.269 0-.534-.0537-.781-.1579-.235-.0991-.451-.2398-.636-.4153-.178-.1846-.319-.4017-.415-.6396-.109-.2458-.164-.512-.162-.7808zm.357 0c-.001.2177.042.4334.125.6346.083.2011.206.3835.361.5366.15.1505.328.2704.523.353.204.0857.423.1298.644.1298s.44-.0441.644-.1298c.195-.0837.373-.2034.523-.353.308-.3111.481-.7313.481-1.1692 0-.4378-.173-.858-.481-1.1691-.15-.1496-.328-.2693-.523-.353-.204-.0857-.423-.1298-.644-.1298s-.44.0441-.644.1298c-.195.0826-.373.2025-.523.353-.154.1526-.277.3344-.36.5347-.084.2004-.126.4153-.126.6324z"/><path d="m179.263 11.6042h.718c.656 0 .91.2409.91.6563 0 .1407-.05.277-.14.3849s-.216.1804-.354.2048l.581.9636v.0291h-.444l-.524-.9511h-.278v.9386.0208h-.37v-.0208zm.747.947c.299 0 .495-.0665.495-.3157s-.142-.3031-.486-.3031h-.341v.6022z"/></g></svg>