<svg width="128" height="38" viewBox="0 0 128 38" fill="none" xmlns="http://www.w3.org/2000/svg">
<path d="M90.106 7.43652H83.5504C83.4594 7.43679 83.3723 7.47256 83.3079 7.53604C83.2436 7.59952 83.2073 7.68554 83.207 7.77531V11.666C83.2075 11.7557 83.2439 11.8416 83.3082 11.905C83.3725 11.9684 83.4595 12.0043 83.5504 12.0048H90.106C90.1969 12.0043 90.284 11.9684 90.3483 11.905C90.4126 11.8416 90.4489 11.7557 90.4494 11.666V7.77531C90.4491 7.68554 90.4129 7.59952 90.3485 7.53604C90.2842 7.47257 90.197 7.43679 90.106 7.43652Z" fill="#F22F46"/>
<path d="M54.1583 24.8571C53.0068 24.8571 52.4028 24.3842 52.4028 23.0927V18.7453H56.0828C56.1738 18.7451 56.261 18.7093 56.3253 18.6458C56.3896 18.5823 56.4259 18.4963 56.4262 18.4065V14.3234L61.264 30.2343C61.2963 30.3256 61.3556 30.4053 61.4342 30.4631C61.5129 30.5208 61.6073 30.5539 61.7052 30.5582H67.0535C67.152 30.5538 67.247 30.5208 67.3267 30.4635C67.4063 30.4061 67.4672 30.3269 67.5015 30.2357L69.7927 23.1875L70.9576 26.8722L72.0206 30.2351C72.054 30.3264 72.1142 30.4058 72.1935 30.4633C72.2727 30.5208 72.3674 30.5538 72.4657 30.5582H77.8476C77.9455 30.5539 78.04 30.5208 78.1188 30.4632C78.1976 30.4056 78.2571 30.326 78.2897 30.2348L83.2006 14.2787V30.2262C83.2006 30.3161 83.2367 30.4022 83.3011 30.4658C83.3655 30.5293 83.4529 30.565 83.544 30.565H90.1057C90.1966 30.5647 90.2838 30.529 90.3482 30.4655C90.4125 30.402 90.4488 30.316 90.4491 30.2262V13.5713C90.4488 13.4816 90.4125 13.3955 90.3482 13.3321C90.2838 13.2686 90.1966 13.2328 90.1057 13.2325H77.0316C76.9344 13.2365 76.8408 13.2701 76.7638 13.3288C76.6868 13.3875 76.6302 13.4683 76.6018 13.5601L74.9245 19.8986L74.8366 20.2251L72.7968 13.4941C72.7645 13.4024 72.705 13.3224 72.6261 13.2644C72.5472 13.2064 72.4524 13.1731 72.3541 13.1689H67.2611C67.1632 13.1731 67.0688 13.2063 66.9903 13.2641C66.9117 13.3219 66.8526 13.4017 66.8205 13.4931L64.9082 19.8389L64.8107 20.1628L64.7268 19.8349L63.9165 16.6977L63.1073 13.5601C63.0796 13.4684 63.0235 13.3875 62.947 13.3288C62.8704 13.27 62.7771 13.2364 62.6802 13.2325H52.4028V7.79095C52.4028 7.73783 52.3902 7.68545 52.3659 7.63804C52.3416 7.59064 52.3063 7.54953 52.2629 7.51805C52.2196 7.48657 52.1693 7.46559 52.1162 7.45681C52.0631 7.44803 52.0086 7.45169 51.9572 7.4675L45.5644 9.43334C45.4456 9.46989 45.3417 9.54295 45.2679 9.64187C45.1941 9.74079 45.1543 9.86038 45.1543 9.98319V13.2325H43.4538C43.3628 13.2328 43.2756 13.2686 43.2112 13.3321C43.1469 13.3955 43.1106 13.4816 43.1104 13.5713V18.4065C43.1106 18.4963 43.1469 18.5823 43.2112 18.6458C43.2756 18.7093 43.3628 18.7451 43.4538 18.7453H45.1543V24.6674C45.1543 28.8575 47.4537 30.8103 51.7325 30.8103C53.3848 30.8103 55.0092 30.4753 56.153 29.9364C56.2163 29.9056 56.2695 29.8578 56.3064 29.7984C56.3433 29.7391 56.3625 29.6706 56.3616 29.601L56.3616 24.8599C56.3618 24.8052 56.3485 24.7512 56.3228 24.7026C56.2972 24.6541 56.2599 24.6124 56.2143 24.5812C56.1687 24.55 56.1161 24.5303 56.061 24.5236C56.0059 24.517 55.95 24.5236 55.8981 24.543C55.3418 24.7495 54.7526 24.8558 54.1583 24.8571Z" fill="#F22F46"/>
<path d="M98.742 7.43652C98.833 7.43679 98.9202 7.47257 98.9846 7.53604C99.0489 7.59952 99.0852 7.68554 99.0854 7.77531V30.2276C99.0849 30.3171 99.0485 30.4029 98.9842 30.4661C98.9198 30.5293 98.8328 30.5648 98.742 30.565H92.1803C92.0895 30.5651 92.0023 30.5296 91.9379 30.4663C91.8736 30.4031 91.8372 30.3172 91.8369 30.2276V7.77531C91.8378 7.68572 91.8742 7.60004 91.9384 7.53668C92.0027 7.47333 92.0895 7.43737 92.1803 7.43652H98.742Z" fill="#F22F46"/>
<path d="M107.37 7.43652C107.461 7.43679 107.549 7.47257 107.613 7.53604C107.677 7.59952 107.714 7.68554 107.714 7.77531V11.666C107.713 11.7557 107.677 11.8416 107.613 11.905C107.548 11.9684 107.461 12.0043 107.37 12.0048H100.809C100.718 12.0043 100.631 11.9684 100.566 11.905C100.502 11.8416 100.466 11.7557 100.465 11.666V7.77531C100.466 7.68554 100.502 7.59952 100.566 7.53604C100.631 7.47256 100.718 7.43679 100.809 7.43652H107.37Z" fill="#F22F46"/>
<path d="M107.37 13.2334C107.461 13.2337 107.549 13.2694 107.613 13.3329C107.677 13.3964 107.714 13.4824 107.714 13.5722V30.2271C107.714 30.3169 107.677 30.4029 107.613 30.4663C107.549 30.5298 107.461 30.5656 107.37 30.5659H100.809C100.718 30.5658 100.63 30.5301 100.566 30.4666C100.502 30.4031 100.465 30.3169 100.465 30.2271V13.5722C100.465 13.4823 100.502 13.3962 100.566 13.3327C100.63 13.2691 100.718 13.2334 100.809 13.2334H107.37Z" fill="#F22F46"/>
<path d="M118.228 12.8232C112.481 12.8232 108.395 16.9822 108.395 21.8323V21.896C108.395 26.7475 112.449 30.8428 118.165 30.8428C123.912 30.8428 128 26.6838 128 21.8323V21.77C128 16.9185 123.944 12.8232 118.228 12.8232ZM121.039 21.896C121.039 23.5344 119.857 24.8882 118.228 24.8882C116.632 24.8882 115.355 23.5344 115.355 21.8323V21.77C115.355 20.1316 116.536 18.7778 118.165 18.7778C119.761 18.7778 121.039 20.1316 121.039 21.8323V21.896Z" fill="#F22F46"/>
<path d="M19.258 5.30677e-10C15.449 0.000134033 11.7256 1.1146 8.55857 3.20245C5.39157 5.29031 2.92324 8.25779 1.46573 11.7296C0.00820762 15.2015 -0.373041 19.0218 0.370193 22.7074C1.11343 26.393 2.94776 29.7784 5.64123 32.4355C8.3347 35.0926 11.7663 36.9021 15.5022 37.635C19.238 38.368 23.1103 37.9916 26.6293 36.5534C30.1483 35.1153 33.156 32.6799 35.2721 29.5553C37.3881 26.4307 38.5175 22.7572 38.5174 18.9993C38.517 13.9602 36.4878 9.12768 32.876 5.56465C29.2642 2.00162 24.3657 -3.76337e-05 19.258 5.30677e-10ZM19.258 32.9927C16.4529 32.9925 13.7108 32.1718 11.3785 30.6342C9.04619 29.0966 7.22841 26.9112 6.155 24.3544C5.08159 21.7976 4.80078 18.9842 5.34806 16.27C5.89534 13.5557 7.24615 11.0625 9.22966 9.10567C11.2132 7.1488 13.7403 5.81614 16.4915 5.27621C19.2427 4.73628 22.0944 5.01332 24.6861 6.07231C27.2777 7.1313 29.4928 8.92467 31.0513 11.2257C32.6098 13.5266 33.4418 16.2319 33.4419 18.9993C33.4419 20.837 33.0751 22.6566 32.3623 24.3544C31.6495 26.0521 30.6047 27.5948 29.2876 28.8942C27.9705 30.1936 26.4069 31.2243 24.686 31.9276C22.9651 32.6308 21.1207 32.9927 19.258 32.9927" fill="#F22F46"/>
<path d="M20.0498 14.268C20.0497 13.4866 20.2844 12.7226 20.7244 12.0728C21.1644 11.4229 21.7899 10.9164 22.5217 10.6173C23.2535 10.3182 24.0588 10.2399 24.8357 10.3923C25.6126 10.5447 26.3262 10.921 26.8863 11.4736C27.4465 12.0262 27.8279 12.7303 27.9824 13.4967C28.1369 14.2632 28.0575 15.0577 27.7543 15.7797C27.4511 16.5016 26.9377 17.1187 26.279 17.5528C25.6204 17.9868 24.846 18.2185 24.0539 18.2183C23.528 18.2184 23.0074 18.1162 22.5216 17.9177C22.0357 17.7192 21.5943 17.4282 21.2225 17.0614C20.8507 16.6945 20.5558 16.2591 20.3545 15.7798C20.1533 15.3005 20.0498 14.7868 20.0498 14.268Z" fill="#F22F46"/>
<path d="M20.0498 23.7319C20.0497 22.9504 20.2844 22.1865 20.7244 21.5366C21.1644 20.8868 21.7899 20.3803 22.5217 20.0812C23.2535 19.782 24.0588 19.7037 24.8357 19.8562C25.6126 20.0086 26.3262 20.3849 26.8863 20.9375C27.4465 21.4901 27.8279 22.1941 27.9824 22.9606C28.1369 23.7271 28.0575 24.5215 27.7543 25.2435C27.4511 25.9655 26.9377 26.5825 26.2791 27.0166C25.6204 27.4507 24.846 27.6823 24.0539 27.6822C23.528 27.6822 23.0074 27.5801 22.5216 27.3815C22.0358 27.183 21.5943 26.8921 21.2225 26.5252C20.8507 26.1584 20.5558 25.7229 20.3546 25.2436C20.1533 24.7644 20.0498 24.2507 20.0498 23.7319Z" fill="#F22F46"/>
<path d="M10.457 23.7319C10.4569 22.9504 10.6917 22.1865 11.1317 21.5366C11.5717 20.8868 12.1971 20.3803 12.9289 20.0812C13.6607 19.782 14.466 19.7037 15.2429 19.8562C16.0198 20.0086 16.7335 20.3849 17.2936 20.9375C17.8537 21.4901 18.2351 22.1941 18.3896 22.9606C18.5441 23.7271 18.4648 24.5215 18.1616 25.2435C17.8584 25.9655 17.345 26.5825 16.6863 27.0166C16.0276 27.4507 15.2532 27.6823 14.4611 27.6822C13.9353 27.6822 13.4146 27.5801 12.9288 27.3815C12.443 27.183 12.0016 26.8921 11.6297 26.5252C11.2579 26.1584 10.963 25.7229 10.7618 25.2436C10.5606 24.7644 10.457 24.2507 10.457 23.7319Z" fill="#F22F46"/>
<path d="M10.457 14.2681C10.4569 13.4866 10.6917 12.7226 11.1317 12.0728C11.5717 11.4229 12.1971 10.9164 12.9289 10.6173C13.6607 10.3182 14.466 10.2399 15.2429 10.3923C16.0198 10.5447 16.7335 10.921 17.2936 11.4736C17.8537 12.0262 18.2351 12.7303 18.3896 13.4967C18.5441 14.2632 18.4648 15.0577 18.1616 15.7797C17.8584 16.5016 17.345 17.1187 16.6863 17.5528C16.0276 17.9868 15.2532 18.2185 14.4611 18.2183C13.9353 18.2184 13.4146 18.1162 12.9288 17.9177C12.443 17.7192 12.0016 17.4282 11.6297 17.0614C11.2579 16.6945 10.963 16.2591 10.7618 15.7798C10.5606 15.3005 10.457 14.7868 10.457 14.268" fill="#F22F46"/>
</svg>
