<svg fill="none" height="32" viewBox="0 0 32 32" width="32" xmlns="http://www.w3.org/2000/svg" xmlns:xlink="http://www.w3.org/1999/xlink"><clipPath id="a"><path d="m0 0h32v32h-32z"/></clipPath><g clip-path="url(#a)"><path clip-rule="evenodd" d="m21.3778 27.0507h4.577v-6.7551h-4.577zm4.7876-8.6142h-4.9992c-.9074 0-1.6464.7391-1.6464 1.6475v7.1783c0 .9084.739 1.6475 1.6464 1.6475h4.9992c.9084 0 1.6465-.7391 1.6465-1.6475v-7.1783c0-.9084-.7381-1.6475-1.6465-1.6475zm3.4034 10.6199c0 .4769-.3881.865-.865.865h-9.3317c-.4769 0-.866-.3881-.866-.865v-13.6382c0-.4759.3891-.864.866-.864l8.0795-.001c.0909.002.1765.0371.2436.0949l1.8044 1.8746c.0413.0403.0682.096.0692.1156zm1.857-12.4552c-.0217-.544-.2519-1.0509-.6173-1.3967l-1.7951-1.8653-.0309-.032c-.3985-.3757-.9187-.5925-1.4989-.6121h-8.1115c-1.5019 0-2.7241 1.2212-2.7241 2.7231v13.6382c0 1.5019 1.2222 2.7241 2.7241 2.7241h9.3317c1.5019 0 2.723-1.2222 2.723-2.7241zm-22.70656 3.4436h-4.91045c-.67097-1.697-.98994-3.5613-.94246-5.4307h5.44413c-.01858 1.824.12697 3.6377.40878 5.4307zm-3.53136-12.71949h3.85342c-.35613 1.68464-.59251 3.51169-.68232 5.42969h-5.32232c.14864-.9342.38193-1.856.71948-2.7376.37058-.96719.85987-1.86216 1.43174-2.69209zm5.19742-4.34478c-.3324.76181-.62761 1.59174-.88464 2.48568h-2.74684c1.04568-1.0209 2.26271-1.86839 3.63148-2.48568zm7.872-.8289c.5574 1.00439 1.0137 2.14813 1.375 3.31458h-8.1931c.4067-1.29652.9022-2.41961 1.4689-3.32594 1.7621-.38606 3.5789-.37574 5.3492.01136zm6.1585 3.31458h-2.8408c-.254-.88361-.5451-1.72697-.8702-2.50942 1.3894.61626 2.6426 1.46581 3.711 2.50942zm-10.6416 9.14789c.513 0 .929-.416.929-.9291 0-.513-.416-.93-.929-.93h-3.5572c.0971-1.9231.3438-3.76673.7206-5.42969h9.1953c.2168.94554.3768 1.85703.4718 2.65084.0567.47275.4572.81965.9218.81965.0361 0 .0733-.0021.1104-.0073.51-.0609.8733-.5233.8124-1.03223-.097-.81548-.2343-1.63096-.4046-2.43096h3.936c.64.9249 1.1767 1.93135 1.5597 3.01629.1693.4851.703.7391 1.184.5677.4841-.1703.7381-.6999.5677-1.18399-1.4193-4.03097-4.5109-7.22168-8.482-8.756649-.5513-.212645-1.1128-.379871-1.6764-.522322-.033-.010323-.065-.016517-.0991-.02271-2.272-.562581-4.6183-.564645-6.88-.008258-.0237.004129-.0454.013419-.0692.019613-.8062.202322-1.602.463484-2.37726.807226-3.55922 1.58142-6.28955 4.46142-7.68619 8.10942-1.633034 4.26527-1.289293 9.30687.89703 13.15927 1.50503 2.6508 4.5791 6.0335 10.67352 7.0947.0537.0082.1074.0134.16.0134.4429 0 .8362-.318.9146-.7701.0878-.5048-.2508-.9868-.7556-1.0746-4.11975-.7163-7.27536-2.7509-9.17575-5.8704h4.32c.18478.8516.39949 1.697.65239 2.5352.12078.4016.48926.6607.88876.6607.0888 0 .1796-.0124.2684-.0403.4914-.1476.7701-.6658.6204-1.1572-.1992-.6596-.3665-1.3285-.5213-1.9984h2.7871c.513 0 .929-.417.929-.9301 0-.513-.416-.929-.929-.929h-3.1463c-.2973-1.791-.4563-3.6026-.4367-5.4307z" fill="#394762" fill-rule="evenodd"/></g></svg>