<svg fill="none" height="32" viewBox="0 0 32 32" width="32" xmlns="http://www.w3.org/2000/svg"><g stroke="#394762" stroke-width="1.7"><path d="m4.08391 23.4352c-1.43137 0-3.08385-.514-3.08385-2.8825 0-2.2572 1.65248-2.7712 3.08385-2.7712"/><path clip-rule="evenodd" d="m8.19526 27.0329h-2.01135c-1.58565 0-2.09962-1.028-2.09962-2.5922v-7.7764c0-1.4529.6237-2.994 2.0559-2.994h2.05507z" fill-rule="evenodd"/><path d="m27.7261 22.9212c1.4306 0 3.0831-.514 3.0831-2.5699s-1.6525-2.5691-3.0831-2.5691"/><path clip-rule="evenodd" d="m23.614 27.0329h2.0114c1.5864 0 2.1004-1.028 2.1004-2.5922v-7.7764c0-1.4529-1.0279-2.994-2.5699-2.994h-1.5419z" fill-rule="evenodd"/><path d="m6.83203 13.6701c0-5.01104 4.06147-8.66992 9.07257-8.66992 5.0102 0 9.0725 3.65888 9.0725 8.66992"/></g></svg>