<svg fill="none" height="32" viewBox="0 0 32 32" width="32" xmlns="http://www.w3.org/2000/svg"><g stroke="#394762" stroke-linecap="round" stroke-linejoin="round" stroke-width="1.7"><path d="m18 19c-.2449-1.944-1.1947-3.7306-2.6693-5.0209-1.4745-1.2902-3.3714-1.9945-5.3307-1.9791-2.0088-.0157-3.95.7249-5.43784 2.0746-1.48785 1.3498-2.41343 3.2099-2.59283 5.2107"/><path d="m14.5 5.5c0 1.19347-.4741 2.33807-1.318 3.18198s-1.9885 1.31802-3.182 1.31802c-1.19347 0-2.33807-.47411-3.18198-1.31802s-1.31802-1.98851-1.31802-3.18198v-3.5c0-.26522.10536-.51957.29289-.70711.18754-.18753.44189-.29289.70711-.29289h7c.2652 0 .5196.10536.7071.29289.1875.18754.2929.44189.2929.70711z"/><path d="m31 31h-30v-10c0-.5304.21071-1.0391.58579-1.4142.37507-.3751.88378-.5858 1.41421-.5858h26c.5304 0 1.0391.2107 1.4142.5858s.5858.8838.5858 1.4142z"/><path d="m5.508 5.74402c1.4447-.49939 2.96343-.75093 4.492-.744 1.531-.00693 3.052.24553 4.4987.74666"/><path d="m20 19c.0175-.6566.1642-1.3034.4316-1.9033.2675-.5999.6505-1.1413 1.1271-1.5932.4767-.4519 1.0377-.8055 1.6511-1.0406.6133-.2351 1.2669-.3471 1.9235-.3296s1.3034.1642 1.9033.4316c.5999.2675 1.1413.6505 1.5932 1.1272.4519.4766.8055 1.0376 1.0406 1.651.2351.6133.3471 1.2669.3296 1.9235"/><path d="m25 14v-3"/><path d="m23 11h4"/></g></svg>