<svg fill="none" height="32" viewBox="0 0 32 32" width="32" xmlns="http://www.w3.org/2000/svg"><g stroke="#394762" stroke-linecap="round" stroke-linejoin="round" stroke-width="1.7"><path d="m12.7188 1v14.0625"/><path d="m16.4688 1v12.1875"/><path d="m28.6562 1v10.3125"/><path d="m24.9062 7.5625v3.75"/><path d="m8.96875 5.6875v9.375"/><path d="m21.1562 5.6875v5.625"/><path clip-rule="evenodd" d="m23.0312 15.0625c4.4015 0 7.9688 3.5673 7.9688 7.9687 0 4.4015-3.5673 7.9688-7.9688 7.9688-4.4014 0-7.9687-3.5673-7.9687-7.9688 0-4.4014 3.5673-7.9687 7.9687-7.9687z" fill-rule="evenodd"/><path d="m26.3125 20.6875-3.9356 5.221c-.3373.4474-.9754.5363-1.4252.2008-.038-.0283-.0745-.0593-.107-.093l-2.0322-2.0216"/><path d="m1.46875 7.5625v5.625"/><path d="m5.21875 1v17.8125"/></g></svg>