<svg fill="none" height="32" viewBox="0 0 32 32" width="32" xmlns="http://www.w3.org/2000/svg" xmlns:xlink="http://www.w3.org/1999/xlink"><clipPath id="a"><path d="m0 0h32v32h-32z"/></clipPath><g clip-path="url(#a)" stroke="#394762" stroke-linecap="round" stroke-linejoin="round" stroke-width="1.7"><path d="m12 12.6667c0 .5304.4214 1.0391 1.1716 1.4142.7501.3751 1.7675.5858 2.8284.5858s2.0783-.2107 2.8284-.5858c.7502-.3751 1.1716-.8838 1.1716-1.4142s-.4214-1.0392-1.1716-1.4142c-.7501-.3751-1.7675-.5858-2.8284-.5858s-2.0783.2107-2.8284.5858c-.7502.375-1.1716.8838-1.1716 1.4142z"/><path d="m12 4.66669c0 .53043.4214 1.03914 1.1716 1.41421.7501.37507 1.7675.58579 2.8284.58579s2.0783-.21072 2.8284-.58579c.7502-.37507 1.1716-.88378 1.1716-1.41421 0-.53044-.4214-1.03914-1.1716-1.41422-.7501-.37507-1.7675-.58578-2.8284-.58578s-2.0783.21071-2.8284.58578c-.7502.37508-1.1716.88378-1.1716 1.41422z"/><path d="m21.3333 8.66669c0 .53043.4215 1.03914 1.1716 1.41421.7501.3751 1.7676.5858 2.8284.5858 1.0609 0 2.0783-.2107 2.8285-.5858.7501-.37507 1.1715-.88378 1.1715-1.41421 0-.53044-.4214-1.03914-1.1715-1.41422-.7502-.37507-1.7676-.58578-2.8285-.58578-1.0608 0-2.0783.21071-2.8284.58578-.7501.37508-1.1716.88378-1.1716 1.41422z"/><path d="m3.33333 8.66669c0 .26264.10346.52271.30448.76536.20102.24266.49566.46313.86709.64885.37144.1857.81239.333 1.29769.4335.48531.1006 1.00545.1523 1.53074.1523s1.04543-.0517 1.53073-.1523c.4853-.1005.92626-.2478 1.29774-.4335.3714-.18572.666-.40619.867-.64885.2011-.24265.3045-.50272.3045-.76536 0-.26265-.1034-.52272-.3045-.76537-.201-.24265-.4956-.46313-.867-.64885-.37148-.18571-.81244-.33303-1.29774-.43354s-1.00544-.15224-1.53073-.15224-1.04543.05173-1.53074.15224c-.4853.10051-.92625.24783-1.29769.43354-.37143.18572-.66607.4062-.86709.64885s-.30448.50272-.30448.76537z"/><path d="m12.9827 5.9787-2.8734 1.24933"/><path d="m22.2587 7.38802-3.244-1.41066"/><path d="m4.09866 9.84137-2.632 1.14403c-.23787.1038-.44028.2748-.582386.492-.142107.2171-.217736.4711-.21761.7306v8.9334c.000071.2559.073778.5063.212323.7215.138543.2151.336073.3859.569013.4918l13.352 6.072c.167.0762.348.117.5315.12.1836.003.3658-.032.5352-.1027l14.644-6.1026c.2428-.1013.4503-.2723.5962-.4913s.2238-.4762.2238-.7394v-8.9027c.0001-.2595-.0755-.5135-.2176-.7306-.1422-.2172-.3446-.3882-.5824-.492l-2.264-.9854"/><path d="m15.3333 18v10.544"/><path d="m31.0867 11.436-15.7534 6.564"/><path d="m15.3333 18-14.425303-6.5573"/></g></svg>