<svg fill="none" height="32" viewBox="0 0 32 32" width="32" xmlns="http://www.w3.org/2000/svg"><g stroke="#394762" stroke-linecap="round" stroke-linejoin="round" stroke-width="1.7"><path d="m4.176 17.0667.59733-1.5667-1.39467-3.6587c-.10013-.2639-.10713-.5541-.01984-.8225s.26364-.499.49984-.6535l3.27734-2.13997 1.02266-3.77867c.07389-.27251.23875-.51155.46721-.67744.22847-.16589.5068-.24866.78879-.23456l3.90934.19867 3.048-2.46c.22-.17739.4941-.274123.7767-.274123s.5566.096733.7766.274123l3.048 2.46 3.9094-.19467c.282-.0141.5603.06867.7888.23456.2284.16589.3933.40493.4672.67744l1.0226 3.77867 3.2774 2.13997c.2364.1544.4129.3849.5002.6534s.0801.5588-.0202.8226l-1.3934 3.6587 1.3934 3.6573c.1004.2641.1076.5546.0203.8233s-.2638.4995-.5003.6541l-3.2774 2.1333-1.028 3.78c-.0734.2729-.2381.5124-.4666.6785-.2286.1662-.5072.2491-.7894.2348l-3.9093-.1946-3.048 2.4546"/><path d="m1 26.3586 2.208 3.4787"/><path d="m13.2107 10.8627 8.392 13.2213"/><path d="m21.1613 23.388-18.39462 5.7547-1.32533-2.088 12.21065-15.496z"/><path d="m6.74133 27.8986 1.168 1.7947c.19313.3166.44893.5904.7517.8046s.64613.3642 1.00898.4409c.36289.0766.73759.0783 1.10109.0049s.7082-.2203 1.0129-.4317c.6229-.4483 1.0509-1.1177 1.1964-1.8712.1455-.7536-.0025-1.5342-.4137-2.1822l-.2174-.3146"/></g></svg>