<svg fill="none" height="32" viewBox="0 0 32 32" width="32" xmlns="http://www.w3.org/2000/svg"><g stroke="#394762" stroke-linecap="round" stroke-linejoin="round" stroke-width="1.7"><path d="m23 19.2693c0-1.9893 3.5493-3.1373 7.3053-3.264.1757-.0084.3488.0449.4894.1507.0627.0464.1138.1066.1494.176s.0548.146.0559.224v8.736c-.0162.1557-.0917.2992-.2109.4008-.1191.1015-.2728.1533-.4291.1445-2.6164-.0456-5.1843.7089-7.36 2.1627-2.1747-1.4571-4.7427-2.2149-7.36-2.172-.1562.0084-.3097-.0435-.4288-.145-.1191-.1014-.1947-.2447-.2112-.4003v-8.732c.0011-.078.0203-.1547.0559-.224.0356-.0694.0867-.1296.1494-.176.1406-.1058.3137-.1591.4894-.1507 3.756.1333 7.3053 1.28 7.3053 3.2693z"/><path d="m23 19.2693v8.7347"/><path d="m11 23.004h-8.66665c-.35625-.0042-.69636-.1492-.94615-.4032s-.388973-.5965-.38719-.9528v-16.28667c-.002847-.35708.13582-.70075.38569-.95586.24986-.25512.59058-.4009.94765-.40547h21.33335c.3565.00422.6968.14934.9466.40366.2498.25433.3889.59718.3867.95367v6.78667"/><path d="m6.21735 28.004h4.78265"/><path d="m11 23.004v5"/><path d="m5 9.00403 4 2.99997-4 3"/><path d="m13 12.004h5"/></g></svg>