<svg fill="none" height="32" viewBox="0 0 32 32" width="32" xmlns="http://www.w3.org/2000/svg"><g stroke="#394762" stroke-linecap="round" stroke-linejoin="round" stroke-width="1.7"><path d="m2.49866 23.5c0 .9283.36875 1.8185 1.02512 2.4749.65638.6564 1.54662 1.0251 2.47488 1.0251s1.81849-.3687 2.47487-1.0251 1.02513-1.5466 1.02513-2.4749-.36875-1.8185-1.02513-2.4749-1.54661-1.0251-2.47487-1.0251-1.8185.3687-2.47488 1.0251c-.65637.6564-1.02512 1.5466-1.02512 2.4749z"/><path d="m10.9987 31c-.4834-.9062-1.20388-1.664-2.08457-2.1925-.88068-.5284-1.88842-.8075-2.91547-.8075s-2.03479.2791-2.91548.8075c-.88069.5285-1.60121 1.2863-2.084523 2.1925"/><path d="m22.4987 23.5c0 .4596.0905.9148.2664 1.3394s.4337.8105.7587 1.1355.7108.5828 1.1355.7587c.4246.1759.8797.2664 1.3394.2664.4596 0 .9147-.0905 1.3393-.2664.4247-.1759.8105-.4337 1.1355-.7587s.5828-.7109.7587-1.1355.2665-.8798.2665-1.3394-.0906-.9148-.2665-1.3394-.4337-.8105-.7587-1.1355-.7108-.5828-1.1355-.7587c-.4246-.1759-.8797-.2664-1.3393-.2664-.4597 0-.9148.0905-1.3394.2664-.4247.1759-.8105.4337-1.1355.7587s-.5828.7109-.7587 1.1355-.2664.8798-.2664 1.3394z"/><path d="m30.9987 31c-.4834-.9062-1.2039-1.664-2.0846-2.1925-.8807-.5284-1.8884-.8075-2.9154-.8075-1.0271 0-2.0348.2791-2.9155.8075-.8807.5285-1.6012 1.2863-2.0845 2.1925"/><path d="m12.4987 4.5c0 .45963.0905.91475.2664 1.33939s.4337.81048.7587 1.13548c.325.32501.7108.58282 1.1355.75871.4246.17589.8797.26642 1.3394.26642.4596 0 .9147-.09053 1.3393-.26642.4247-.17589.8105-.4337 1.1355-.75871.325-.325.5828-.71084.7587-1.13548s.2665-.87976.2665-1.33939-.0906-.91475-.2665-1.33939-.4337-.81048-.7587-1.13548c-.325-.32501-.7108-.58282-1.1355-.75871-.4246-.17589-.8797-.26642-1.3393-.26642-.4597 0-.9148.09053-1.3394.26642-.4247.17589-.8105.4337-1.1355.75871-.325.325-.5828.71084-.7587 1.13548s-.2664.87976-.2664 1.33939z"/><path d="m20.3307 11c-.5344-.6274-1.1986-1.13131-1.9468-1.47685s-1.5624-.52449-2.3866-.52449c-.8241 0-1.6384.17895-2.3865.52449-.7482.34554-1.4124.84945-1.9468 1.47685"/><path d="m12.0667 26.276c2.5536.9736 5.3776.965 7.9253-.024"/><path d="m8.46398 8c-1.09462 1.0252-1.9671 2.2642-2.5634 3.6403-.59631 1.3761-.90375 2.86-.90326 4.3597 0 .3373.02.6667.05066 1"/><path d="m26.948 17c.0293-.3307.0506-.6667.0506-1 .0008-1.4998-.3066-2.9837-.9029-4.3598-.5963-1.3762-1.4689-2.61515-2.5637-3.6402"/></g></svg>