<svg xmlns="http://www.w3.org/2000/svg" width="24" height="17" fill="none" viewBox="0 0 24 17"><path fill="#394762" fill-rule="evenodd" d="M0.570152 0.570213C1.08369 0.0566737 1.9163 0.0566738 2.42984 0.570213L9.42987 7.57024C9.94341 8.08378 9.94341 8.9164 9.42987 9.42993L2.42984 16.43C1.9163 16.9435 1.08369 16.9435 0.570152 16.43C0.0566128 15.9164 0.0566126 15.0838 0.570152 14.5703L6.64034 8.50009L0.570152 2.4299C0.0566126 1.91636 0.0566128 1.08375 0.570152 0.570213ZM10.685 15.5002C10.685 14.7739 11.2738 14.1852 12 14.1852H22.5001C23.2263 14.1852 23.8151 14.7739 23.8151 15.5002C23.8151 16.2264 23.2263 16.8152 22.5001 16.8152H12C11.2738 16.8152 10.685 16.2264 10.685 15.5002Z" clip-rule="evenodd"/></svg>