<svg fill="none" height="32" viewBox="0 0 32 32" width="32" xmlns="http://www.w3.org/2000/svg" xmlns:xlink="http://www.w3.org/1999/xlink"><clipPath id="a"><path d="m0 0h32v32h-32z"/></clipPath><g clip-path="url(#a)" stroke="#394762" stroke-linecap="round" stroke-linejoin="round" stroke-width="1.7"><path d="m9.33334 31.3306h13.33336l-6.6667-13.3333z"/><path d="m27.076 26.596c2.0775-2.1701 3.4717-4.9026 4.0096-7.8583.5378-2.9557.1956-6.0042-.9842-8.76701-1.1799-2.76282-3.1453-5.1182-5.6522-6.7736-2.507-1.65541-5.445-2.53791-8.4492-2.53791s-5.9422.8825-8.44916 2.53791c-2.50695 1.6554-4.47239 4.01078-5.65222 6.7736-1.179826 2.76281-1.522066 5.81131-.984213 8.76701s1.932103 5.6882 4.009593 7.8583"/><path d="m7.87734 21.8146c-1.07296-1.4942-1.713-3.2553-1.84969-5.0898-.13669-1.8344.23526-3.671 1.07492-5.3077.83967-1.63665 2.11451-3.01003 3.68433-3.96899 1.5697-.95897 3.3736-1.46636 5.2131-1.46636s3.6434.50739 5.2132 1.46636c1.5697.95896 2.8446 2.33234 3.6842 3.96899.8397 1.6367 1.2116 3.4733 1.075 5.3077-.1367 1.8345-.7768 3.5956-1.8497 5.0898"/><path d="m11.344 16.2013c0-.0693-.0107-.1333-.0107-.204 0-.6128.1207-1.2197.3553-1.7859.2345-.5661.5782-1.0806 1.0116-1.5139.4333-.4334.9478-.7771 1.514-1.0116.5661-.2346 1.173-.3553 1.7858-.3553s1.2197.1207 1.7859.3553c.5662.2345 1.0806.5782 1.5139 1.0116.4334.4333.7771.9478 1.0116 1.5139.2346.5662.3553 1.1731.3553 1.7859 0 .068-.008.1333-.0107.204"/><path d="m16 17.9973v-2.6667"/><path d="m9.35999 31.3306 9.49731-7.6186"/><path d="m22.6667 31.3306-9.524-7.6186"/></g></svg>