<svg fill="none" height="32" viewBox="0 0 32 32" width="32" xmlns="http://www.w3.org/2000/svg"><path d="m29.2 23.33-.1.1-.1.1v.1h-.1c-1.8905 1.7758-4.397 2.7476-6.9904 2.7103-2.5935-.0373-5.071-1.0809-6.9096-2.9103l-5.3-5.3c-.18245-.1878-.32501-.4105-.41911-.6547-.09411-.2443-.1378-.5051-.12846-.7667s.07153-.5186.18282-.7555c.11129-.237.26938-.4489.46475-.6231.3687-.3373.8503-.5244 1.35-.5244s.9813.1871 1.35.5244l5.3 5.3c.5384.5646 1.1828 1.0178 1.8963 1.3334.7135.3157 1.4823.4877 2.2623.5063.78.0185 1.556-.1167 2.2838-.3981.7277-.2813 1.3929-.7032 1.9576-1.2416.5647-.5385 1.0178-1.1828 1.3334-1.8964.3157-.7135.4877-1.4822.5063-2.2622s-.1167-1.5561-.398-2.2838c-.2814-.7277-.7033-1.3929-1.2417-1.9576l-.2-.2-5.3-5.30003c-.3801-.36061-.6035-.85596-.6222-1.37957-.0187-.5236.1688-1.03364.5222-1.42043.3565-.38432.8497-.61327 1.3734-.63758s1.036.15796 1.4266.50758l.1.1 5.3 5.33c1.8295 1.83863 2.873 4.31613 2.9103 6.90953.0373 2.5935-.9345 5.1-2.7103 6.9905zm-23.4-3.5c-.55936-.5575-1.00318-1.2198-1.30602-1.9491-.30283-.7293-.45871-1.5113-.45871-2.3009 0-.7897.15588-1.5716.45871-2.3009.30284-.7294.74666-1.3917 1.30602-1.9491.55478-.5511 1.21374-.9862 1.93843-1.2799.7247-.29372 1.50063-.4402 2.28257-.43089.7819.00931 1.5541.17421 2.2716.48509.7175.3109 1.3659.7615 1.9074 1.3257l5.3 5.3.06.06c.261.2726.5969.4617.9653.5436s.7528.0528 1.1047-.0836c.3165-.1198.5974-.318.8165-.5759.219-.258.369-.5673.436-.899.0669-.3317.0486-.675-.0533-.9977s-.2839-.6143-.5292-.8474l-5.3-5.30003c-1.8386-1.82947-4.3161-2.873-6.9096-2.91031-2.59343-.03732-5.09992.93449-6.9904 2.71031l-.1.1v.1h-.1l-.1.1c-1.77582 1.89043-2.7476262 4.39693-2.7103102 6.99043.0373162 2.5935 1.0808402 5.071 2.9103102 6.9096l5.23 5.24c.35453.3487.82085.561 1.31668.5995.49582.0384.98932-.0996 1.39332-.3895.2152-.176.3913-.395.5171-.6429s.1986-.5193.2136-.7968c.0151-.2776-.0279-.5553-.1262-.8153-.0982-.2601-.2496-.4968-.4445-.695z" fill="#394762"/></svg>