<svg fill="none" height="32" viewBox="0 0 32 32" width="32" xmlns="http://www.w3.org/2000/svg" xmlns:xlink="http://www.w3.org/1999/xlink"><clipPath id="a"><path d="m0 0h32v32h-32z"/></clipPath><g clip-path="url(#a)" fill="#394762"><path d="m7.77 28.09c-.26545.0054-.52869-.0493-.77-.16-.3029-.1423-.55833-.3689-.7357-.6527-.17736-.2838-.26913-.6127-.2643-.9473v-4.33h-5c-.265216 0-.51957-.1054-.707107-.2929-.187536-.1875-.292893-.4419-.292893-.7071s.105357-.5196.292893-.7071c.187537-.1875.441891-.2929.707107-.2929h6c.13161-.0008.26207.0245.38391.0742.12183.0498.23265.1231.32609.2158.09268.0934.16601.2043.21577.3261.04977.1218.07499.2523.07423.3839v4.77l6.33-5.53c.1863-.1595.4248-.2449.67-.24h16c.2652 0 .5196.1054.7071.2929s.2929.4419.2929.7071-.1054.5196-.2929.7071-.4419.2929-.7071.2929h-15.62l-6.47 5.66c-.31669.2745-.72092.427-1.14.43zm24.23-13.09c0-.2652-.1054-.5196-.2929-.7071s-.4419-.2929-.7071-.2929h-30c-.265216 0-.51957.1054-.707107.2929-.187536.1875-.292893.4419-.292893.7071s.105357.5196.292893.7071c.187537.1875.441891.2929.707107.2929h30c.2652 0 .5196-.1054.7071-.2929s.2929-.4419.2929-.7071zm0-6c0-.26522-.1054-.51957-.2929-.70711-.1875-.18753-.4419-.29289-.7071-.29289h-30c-.265216 0-.51957.10536-.707107.29289-.187536.18754-.292893.44189-.292893.70711s.105357.51957.292893.70711c.187537.18753.441891.29289.707107.29289h30c.2652 0 .5196-.10536.7071-.29289.1875-.18754.2929-.44189.2929-.70711z"/><path d="m31 4h-30c-.265216 0-.51957-.10536-.707107-.29289-.187536-.18754-.292893-.44189-.292893-.70711s.105357-.51957.292893-.70711c.187537-.18753.441891-.29289.707107-.29289h30c.2652 0 .5196.10536.7071.29289.1875.18754.2929.44189.2929.70711s-.1054.51957-.2929.70711c-.1875.18753-.4419.29289-.7071.29289z"/></g></svg>