<svg fill="none" height="32" viewBox="0 0 32 32" width="32" xmlns="http://www.w3.org/2000/svg" xmlns:xlink="http://www.w3.org/1999/xlink"><clipPath id="a"><path d="m0 0h32v32h-32z"/></clipPath><g clip-path="url(#a)" fill="#394762"><path d="m8.00002 22c-.13231-.0005-.26319-.0273-.38507-.0788s-.23232-.1267-.32493-.2212c-.18626-.1874-.2908-.4408-.2908-.705s.10454-.5176.2908-.705l3.89998-3.89c.088-.0956.1378-.2201.14-.35-.0003-.1351-.0543-.2646-.15-.36l-3.99998-3.94c-.10527-.0889-.19102-.1986-.25188-.3222-.06086-.1237-.09551-.2585-.10179-.3962-.00627-.1376.01598-.2751.06534-.4038.04936-.1286.12478-.2457.22152-.3438.09675-.0981.21272-.1752.34066-.2264.12793-.0512.26507-.07534.40279-.07102.13773.00431.27308.03702.39756.09612.12447.0591.23539.1433.3258.2473l3.99998 3.94c.2328.2322.4175.5081.5436.8118.126.3038.1909.6294.1909.9582s-.0649.6545-.1909.9582c-.1261.3037-.3108.5796-.5436.8118l-3.82998 3.85c-.09371.1067-.20907.1922-.33838.2508-.12932.0586-.26964.089-.41162.0892z"/><path d="m29.5 28h-27c-.66304 0-1.29893-.2634-1.767767-.7322-.468841-.4689-.732233-1.1048-.732233-1.7678v-19c0-.66304.263392-1.29893.732233-1.76777.468837-.46884 1.104727-.73223 1.767767-.73223h27c.663 0 1.2989.26339 1.7678.73223.4688.46884.7322 1.10473.7322 1.76777v19c0 .663-.2634 1.2989-.7322 1.7678-.4689.4688-1.1048.7322-1.7678.7322zm-27-22c-.13261 0-.25979.05268-.35355.14645-.09377.09376-.14645.22094-.14645.35355v19c0 .1326.05268.2598.14645.3536.09376.0937.22094.1464.35355.1464h27c.1326 0 .2598-.0527.3536-.1464.0937-.0938.1464-.221.1464-.3536v-19c0-.13261-.0527-.25979-.1464-.35355-.0938-.09377-.221-.14645-.3536-.14645z"/><path d="m24 22h-7c-.2652 0-.5196-.1054-.7071-.2929s-.2929-.4419-.2929-.7071.1054-.5196.2929-.7071.4419-.2929.7071-.2929h7c.2652 0 .5196.1054.7071.2929s.2929.4419.2929.7071-.1054.5196-.2929.7071-.4419.2929-.7071.2929z"/></g></svg>