<svg fill="none" height="32" viewBox="0 0 32 32" width="32" xmlns="http://www.w3.org/2000/svg" xmlns:xlink="http://www.w3.org/1999/xlink"><clipPath id="a"><path d="m0 0h32v32h-32z"/></clipPath><g clip-path="url(#a)" fill="#394762"><path d="m10 26.3901c.5137.2967.9278.739 1.1901 1.2711.2624.532.361 1.1299.2836 1.718-.0774.5882-.3274 1.1402-.7184 1.5862-.3911.4461-.90558.7662-1.47852.9199s-1.17859.1341-1.7404-.0563-1.05456-.5431-1.41596-1.0135-.57523-1.0374-.61446-1.6293.09789-1.1821.39404-1.6961c.19683-.3416.45905-.6411.77168-.8813.31264-.2402.66955-.4164 1.05033-.5185.38077-.1022.77796-.1283 1.16883-.0769.39088.0515.76778.1795 1.10916.3767z"/><path d="m22 5.61001c.514.29615 1.1043.43328 1.6962.39404.5919-.03923 1.1588-.25306 1.6292-.61446.4705-.3614.8232-.85415 1.0136-1.41595.1904-.56181.21-1.16746.0563-1.7404s-.4739-1.08745-.9199-1.478496c-.4461-.391044-.9981-.64107-1.5862-.7184729-.5881-.0774033-1.186.02129-1.7181.2836049-.532.262316-.9744.676477-1.2711 1.190134-.1972.34138-.3252.71829-.3766 1.10916-.0515.39088-.0253.78806.0768 1.16884.1022.38078.2784.73769.5186 1.05032s.5396.57486.8812.77168z"/><path d="m4.92001 26.1401c.20454-.1665.33507-.407.36316-.6692s-.04852-.5249-.21316-.7308c-1.73993-2.1744-2.79188-4.8182-3.02137-7.5935s.37391-5.556 1.73306-7.9866c1.35916-2.43059 3.4123-4.40062 5.89695-5.65822s5.28785-1.74564 8.05135-1.40172c.2652.03315.5328-.04041.7437-.20451.211-.16409.3482-.40528.3813-.67049.0332-.26522-.0404-.532744-.2045-.743722-.1641-.210979-.4053-.34813-.6705-.381282-3.1628-.398584-6.3726.156722-9.21776 1.594704-2.84512 1.43797-5.19583 3.69306-6.75064 6.47605-1.554822 2.78299-2.242865 5.96699-1.97589 9.14369.266975 3.1766 1.47679 6.2011 3.4743 8.6856.0818.1034.18326.1897.29855.2538.11528.0641.2421.1047.37315.1196.13106.0149.26376.0037.39047-.033.12671-.0366.24493-.0979.34783-.1804zm8.07999-14.14h3c.2652 0 .5196.1053.7071.2928.1876.1876.2929.4419.2929.7072 0 .2652-.1053.5195-.2929.7071-.1875.1875-.4419.2929-.7071.2929h-2v2h2c.2652 0 .5196.1053.7071.2928.1876.1876.2929.4419.2929.7072v4c0 .2652-.1053.5195-.2929.7071-.1875.1875-.4419.2929-.7071.2929h-3c-.2652 0-.5196-.1054-.7071-.2929-.1875-.1876-.2929-.4419-.2929-.7071 0-.2653.1054-.5196.2929-.7072.1875-.1875.4419-.2928.7071-.2928h2v-2h-2c-.2652 0-.5196-.1054-.7071-.2929-.1875-.1876-.2929-.4419-.2929-.7071v-4c0-.2653.1054-.5196.2929-.7072.1875-.1875.4419-.2928.7071-.2928zm10 1v8c0 .2652.1054.5195.2929.7071.1875.1875.4419.2929.7071.2929s.5196-.1054.7071-.2929c.1876-.1876.2929-.4419.2929-.7071v-3h3c.2652 0 .5196-.1054.7071-.2929.1876-.1876.2929-.4419.2929-.7071v-4c0-.2653-.1053-.5196-.2929-.7072-.1875-.1875-.4419-.2928-.7071-.2928h-4c-.2652 0-.5196.1053-.7071.2928-.1875.1876-.2929.4419-.2929.7072zm2 3v-2h2v2zm-6 5v-8c0-.2653.1054-.5196.2929-.7072.1875-.1875.4419-.2928.7071-.2928s.5196.1053.7071.2928c.1876.1876.2929.4419.2929.7072v8c0 .2652-.1053.5195-.2929.7071-.1875.1875-.4419.2929-.7071.2929s-.5196-.1054-.7071-.2929c-.1875-.1876-.2929-.4419-.2929-.7071z"/></g></svg>