<svg fill="none" height="32" viewBox="0 0 32 32" width="32" xmlns="http://www.w3.org/2000/svg" xmlns:xlink="http://www.w3.org/1999/xlink"><clipPath id="a"><path d="m0 0h32v32h-32z"/></clipPath><g clip-path="url(#a)" fill="#394762"><path d="m1.70002 12.4999c-.13977-.137-.31669-.23-.50882-.2674-.192129-.0375-.391024-.0177-.572026.0568-.181001.0745-.336149.2006-.446209.3624-.1100606.1619-.1701928.3525-.17294226.5482v9.1c-.00352895.1315.02146106.2621.07325016.3829.0517891.1209.1291471.2291.2267501.3171l8.599997 8.6c.13977.1371.31669.2301.50882.2675.19213.0375.39103.0177.57203-.0568.18103-.0746.33613-.2006.44623-.3624.11-.1619.1702-.3525.1729-.5483v-9.1c.0036-.1314-.0214-.262-.0732-.3828-.0518-.1209-.1292-.2291-.2268-.3172z"/><path d="m1.00002 0c-.259072.0185749-.502774.129896-.686438.313559-.183663.183664-.2949843.427366-.31355926.686441v6.6c-.00352895.13142.02146106.26205.07325016.38289s.1291471.22903.2267501.31711l14.699977 14.7c.0881.0976.1963.175.3171.2267.1209.0518.2515.0768.3829.0733h10.2c.1957-.0028.3864-.0629.5482-.1729.1619-.1101.2879-.2652.3625-.4463.0745-.181.0943-.3798.0568-.572-.0374-.1921-.1304-.369-.2675-.5088l-8.6-8.7c-.0881-.0976-.1962-.175-.3171-.2267-.1208-.0518-.2515-.0768-.3829-.0733h-5.6c-.2652 0-.5195-.1054-.7071-.2929-.1875-.1875-.2929-.4419-.2929-.7071s.1054-.5196.2929-.7071c.1876-.1875.4419-.2929.7071-.2929h19.3c.1957-.0027.3864-.0629.5482-.1729.1619-.1101.2879-.2653.3625-.44625.0745-.181.0943-.3799.0568-.57203-.0374-.19213-.1304-.36905-.2675-.50882l-8.6-8.6c-.1891-.181681-.438-.2883159-.7-.3z"/></g></svg>