<svg fill="none" height="32" viewBox="0 0 32 32" width="32" xmlns="http://www.w3.org/2000/svg"><g fill="#394762"><path d="m29.5 32h-27c-.66304 0-1.29893-.2634-1.767767-.7322-.468841-.4689-.732233-1.1048-.732233-1.7678v-27c0-.66304.263392-1.29893.732233-1.767767.468837-.468841 1.104727-.732233 1.767767-.732233h27c.663 0 1.2989.263392 1.7678.732233.4688.468837.7322 1.104727.7322 1.767767v27c0 .663-.2634 1.2989-.7322 1.7678-.4689.4688-1.1048.7322-1.7678.7322zm-27-30c-.13261 0-.25979.05268-.35355.14645-.09377.09376-.14645.22094-.14645.35355v27c0 .1326.05268.2598.14645.3536.09376.0937.22094.1464.35355.1464h27c.1326 0 .2598-.0527.3536-.1464.0937-.0938.1464-.221.1464-.3536v-27c0-.13261-.0527-.25979-.1464-.35355-.0938-.09377-.221-.14645-.3536-.14645z"/><path d="m26 26.9999c-.1316.0008-.2621-.0244-.3839-.0742s-.2327-.1231-.3261-.2158l-20-19.99996c-.1883-.1883-.29409-.4437-.29409-.71s.10579-.52169.29409-.71c.18831-.1883.4437-.29409.71-.29409s.5217.10579.71.29409l20 19.99996c.0937.093.1681.2036.2189.3255.0508.1218.0769.2525.0769.3845 0 .1321-.0261.2628-.0769.3846-.0508.1219-.1252.2325-.2189.3254-.0934.0927-.2043.166-.3261.2158s-.2523.075-.3839.0742z"/><path d="m6 26.9999c-.13161.0008-.26207-.0244-.38391-.0742-.12183-.0498-.23265-.1231-.32609-.2158-.09373-.0929-.16812-.2035-.21889-.3254-.05077-.1218-.07691-.2525-.07691-.3846 0-.132.02614-.2627.07691-.3845.05077-.1219.12516-.2325.21889-.3255l20-19.99996c.1883-.1883.4437-.29409.71-.29409s.5217.10579.71.29409c.1883.18831.2941.4437.2941.71s-.1058.5217-.2941.71l-20 19.99996c-.09344.0927-.20426.166-.32609.2158-.12184.0498-.2523.075-.38391.0742z"/><path d="m16 25c-1.78 0-3.5201-.5278-5.0001-1.5168-1.48007-.9889-2.63362-2.3945-3.31481-4.039-.68119-1.6446-.85942-3.4542-.51215-5.2.34726-1.7458 1.20443-3.3495 2.4631-4.60816 1.25866-1.25867 2.86236-2.11584 4.60816-2.4631 1.7458-.34727 3.5554-.16904 5.2.51215 1.6445.68119 3.0501 1.83474 4.039 3.31481.989 1.48 1.5168 3.2201 1.5168 5.0001 0 2.387-.9482 4.6761-2.636 6.364-1.6879 1.6878-3.977 2.636-6.364 2.636zm0-16c-1.3845 0-2.7378.41055-3.889 1.1797-1.1511.7692-2.0483 1.8624-2.57815 3.1415-.52982 1.2791-.66844 2.6866-.39834 4.0444.27009 1.3579.93679 2.6052 1.91579 3.5842.9789.9789 2.2262 1.6456 3.5841 1.9157 1.3578.2701 2.7653.1315 4.0444-.3983 1.2791-.5299 2.3723-1.4271 3.1415-2.5782s1.1797-2.5045 1.1797-3.889c0-1.8565-.7375-3.637-2.0502-4.9497-1.3128-1.3128-3.0933-2.0503-4.9498-2.0503z"/></g></svg>