<svg fill="none" height="32" viewBox="0 0 32 32" width="32" xmlns="http://www.w3.org/2000/svg"><path d="m29.28 2.92c-.2352-.28729-.5312-.51882-.8667-.67791-.3354-.15909-.702-.24177-1.0733-.24209h-16.34c-2.38695 0-4.67613.94821-6.36396 2.63604s-2.63604 3.97701-2.63604 6.36396v16.43c.00081.3484.07413.6928.2153 1.0113.14118.3185.34711.6041.6047.8387.45468.4209 1.05043.6563 1.67.66h.21c7.77-.68 10.83-5.92 11-9.32 1.825-.5196 3.4645-1.5477 4.7271-2.9643 1.2625-1.4166 2.0959-3.1632 2.4029-5.0357 1.7452-.5157 3.3165-1.4979 4.5447-2.84066 1.2283-1.34277 2.0668-2.99523 2.4253-4.77934.0737-.36354.0653-.73897-.0247-1.09883-.0899-.35987-.2592-.69509-.4953-.98117zm-24.75 25c-.132.003-.26038-.0433-.36-.13-.05195-.0448-.09393-.0999-.12321-.162-.02928-.062-.04522-.1294-.04679-.198v-6.43h9 .68c-.41 2.39-2.85 6.39-9.15 6.94zm8.47-8.92h-9v-6h16 .75c-.4436 1.7179-1.4456 3.2396-2.8486 4.3258-1.4029 1.0861-3.1271 1.6751-4.9014 1.6742zm7-8h-16c0-1.85652.7375-3.63699 2.05025-4.94975 1.31276-1.31275 3.09323-2.05025 4.94975-2.05025h16.34c.0754-.00117.1499.01542.2177.04843.0677.03301.1268.08151.1723.14157.0492.05492.0848.12065.1039.19187.0191.07123.0212.14595.0061.21813-.3688 1.80698-1.3507 3.43103-2.7794 4.59729-1.4286 1.16621-3.2164 1.80311-5.0606 1.80271z" fill="#394762"/></svg>