<svg fill="none" height="32" viewBox="0 0 32 32" width="32" xmlns="http://www.w3.org/2000/svg" xmlns:xlink="http://www.w3.org/1999/xlink"><clipPath id="a"><path d="m0 0h32v32h-32z"/></clipPath><g clip-path="url(#a)" fill="#394762"><path d="m12 15c1.6569 0 3-1.3431 3-3s-1.3431-3-3-3-3 1.3431-3 3 1.3431 3 3 3z"/><path d="m31.71 30.29-10.56-10.55c1.9999-2.3637 3.0087-5.4089 2.8157-8.4991-.193-3.09022-1.573-5.9862-3.8515-8.08263s-5.2791-3.2310408-8.3747-3.1666589c-3.09552.0643819-6.04638 1.3227689-8.23573 3.5121289-2.18936 2.18935-3.4477465 5.14021-3.51212838 8.23576-.06438182 3.0955 1.07022838 6.0962 3.16665838 8.3747 2.09643 2.2784 4.99241 3.6584 8.0826 3.8515 3.0902.193 6.1354-.8159 8.4991-2.8157l10.55 10.56c.093.0937.2036.1681.3254.2189.1219.0507.2526.0769.3846.0769s.2627-.0262.3846-.0769c.1218-.0508.2324-.1252.3254-.2189.0937-.093.1681-.2036.2189-.3255.0508-.1218.0769-.2525.0769-.3845 0-.1321-.0261-.2628-.0769-.3846-.0508-.1219-.1252-.2325-.2189-.3254zm-29.71001-18.29c0-1.9779.58649-3.91125 1.6853-5.55574 1.09882-1.64449 2.6606-2.92622 4.48787-3.6831 1.82724-.75687 3.83794-.95491 5.77774-.56905 1.9398.38585 3.7216 1.33826 5.1202 2.73678 1.3985 1.39853 2.3509 3.18036 2.7367 5.12021.3859 1.9398.1879 3.9504-.569 5.7777s-2.0386 3.389-3.6831 4.4879c-1.6445 1.0988-3.5779 1.6853-5.5557 1.6853-1.3132 0-2.61359-.2587-3.82684-.7612-1.21326-.5026-2.31565-1.2392-3.24424-2.1678-1.87536-1.8753-2.92893-4.4189-2.92893-7.071z"/></g></svg>