<svg fill="none" height="32" viewBox="0 0 32 32" width="32" xmlns="http://www.w3.org/2000/svg"><path d="m28 20c-.7035.0055-1.3828.258-1.919.7135s-.8953 1.085-1.0144 1.7784.0092 1.4066.3626 2.015c.3534.6083.9094 1.0731 1.5708 1.3131v1.68c0 .5304-.2107 1.0391-.5858 1.4142s-.8838.5858-1.4142.5858-1.0391-.2107-1.4142-.5858-.5858-.8838-.5858-1.4142v-7c0-1.0609-.4214-2.0783-1.1716-2.8284-.7501-.7502-1.7675-1.1716-2.8284-1.1716-.705.003-1.396.1964-2 .56v-12.56c0-.53043.2107-1.03914.5858-1.41421.3751-.37508.8838-.58579 1.4142-.58579s1.0391.21071 1.4142.58579c.3751.37507.5858.88378.5858 1.41421v7c0 1.0609.4214 2.0783 1.1716 2.8284.7501.7502 1.7675 1.1716 2.8284 1.1716s2.0783-.4214 2.8284-1.1716c.7502-.7501 1.1716-1.7675 1.1716-2.8284v-1.68c.6672-.2359 1.2296-.70007 1.5876-1.31048.3581-.61041.4889-1.32776.3692-2.02525-.1197-.6975-.4821-1.33023-1.0231-1.78637-.5411-.45615-1.226-.70633-1.9337-.70633s-1.3926.25018-1.9337.70633c-.541.45614-.9034 1.08887-1.0231 1.78637-.1197.69749.0111 1.41484.3692 2.02525s.9204 1.07458 1.5876 1.31048v1.68c0 .5304-.2107 1.0391-.5858 1.4142s-.8838.5858-1.4142.5858-1.0391-.2107-1.4142-.5858-.5858-.8838-.5858-1.4142v-7c0-1.06087-.4214-2.07828-1.1716-2.82843-.7501-.750143-1.7675-1.17157-2.8284-1.17157s-2.0783.421427-2.8284 1.17157c-.7502.75015-1.1716 1.76756-1.1716 2.82843v17c0 .5304-.2107 1.0391-.5858 1.4142s-.8838.5858-1.4142.5858-1.0391-.2107-1.4142-.5858-.5858-.8838-.5858-1.4142v-8.5c0-1.0609-.4214-2.0783-1.17157-2.8284-.75014-.75017-1.76756-1.1716-2.82842-1.1716-1.06087 0-2.07829.42143-2.82843 1.1716-.75015.7501-1.17157 1.7675-1.17157 2.8284v.18c-.66722.2359-1.22956.7001-1.58764 1.3105-.35807.6104-.488831 1.3277-.36916 2.0252.11967.6975.48207 1.3303 1.02314 1.7864.54106.4561 1.22597.7063 1.93366.7063.70768 0 1.39259-.2502 1.93366-.7063s.90346-1.0889 1.02313-1.7864-.01108-1.4148-.36916-2.0252-.92042-1.0746-1.58763-1.3105v-.18c0-.5304.21071-1.0391.58578-1.4142.37508-.3751.88378-.5858 1.41422-.5858.53043 0 1.03914.2107 1.41421.5858s.58579.8838.58579 1.4142v8.5c0 1.0609.42142 2.0783 1.17159 2.8284.7501.7502 1.7675 1.1716 2.8284 1.1716s2.0783-.4214 2.8284-1.1716c.7502-.7501 1.1716-1.7675 1.1716-2.8284v-1c0-.5304.2107-1.0391.5858-1.4142s.8838-.5858 1.4142-.5858 1.0391.2107 1.4142.5858.5858.8838.5858 1.4142v7c0 1.0609.4214 2.0783 1.1716 2.8284.7501.7502 1.7675 1.1716 2.8284 1.1716s2.0783-.4214 2.8284-1.1716c.7502-.7501 1.1716-1.7675 1.1716-2.8284v-1.68c.6614-.24 1.2174-.7048 1.5708-1.3131.3534-.6084.4817-1.3216.3626-2.015s-.4782-1.3229-1.0144-1.7784-1.2155-.708-1.919-.7135z" fill="#394762"/></svg>