<svg fill="none" height="32" viewBox="0 0 32 32" width="32" xmlns="http://www.w3.org/2000/svg" xmlns:xlink="http://www.w3.org/1999/xlink"><clipPath id="a"><path d="m0 0h32v32h-32z"/></clipPath><g clip-path="url(#a)" fill="#394762"><path d="m29 2c-.1336-.00884-.2676.01097-.3929.0581s-.2391.12049-.3338.21517-.1681.2085-.2152.33383c-.0471.12534-.0669.25929-.0581.3929v4c0 .26522-.1054.51957-.2929.70711-.1875.18753-.4419.29289-.7071.29289s-.5196-.10536-.7071-.29289c-.1875-.18754-.2929-.44189-.2929-.70711v-4c0-.79565-.3161-1.55871-.8787-2.12132s-1.3257-.87868-2.1213-.87868-1.5587.31607-2.1213.87868-.8787 1.32567-.8787 2.12132v4c0 .26522.1054.51957.2929.70711.1875.18753.4419.29289.7071.29289s.5196-.10536.7071-.29289c.1875-.18754.2929-.44189.2929-.70711v-4c0-.26522.1054-.51957.2929-.70711.1875-.18753.4419-.29289.7071-.29289s.5196.10536.7071.29289c.1875.18754.2929.44189.2929.70711v4c0 .79565.3161 1.55871.8787 2.12132s1.3257.87868 2.1213.87868 1.5587-.31607 2.1213-.87868.8787-1.32567.8787-2.12132v-4c.0088-.13361-.011-.26756-.0581-.3929-.0471-.12533-.1205-.23915-.2152-.33383s-.2085-.16804-.3338-.21517-.2593-.06694-.3929-.0581z"/><path d="m17 8.49996c-.3264-.30635-.7527-.48399-1.2-.5h-11.30001c-.32905-.00267-.65533.06018-.95985.18487-.30452.1247-.58118.30874-.81386.54142s-.41672.50934-.54142.81386c-.12469.30451-.18753.63079-.18487.95989v19c-.00266.329.06018.6553.18487.9598.1247.3045.30874.5812.54142.8139.23268.2326.50934.4167.81386.5414s.6308.1875.95985.1849h13.00001c.329.0026.6553-.0602.9598-.1849.3046-.1247.5812-.3088.8139-.5414.2327-.2327.4167-.5094.5414-.8139s.1876-.6308.1849-.9598v-17.3c-.0175-.4177-.1969-.8122-.5-1.1zm1 21.00004c.0044.0668-.0055.1337-.0291.1964-.0235.0627-.0602.1196-.1075.1669-.0474.0474-.1043.084-.167.1076-.0626.0236-.1296.0335-.1964.0291h-13.00001c-.0668.0044-.13378-.0055-.19645-.0291s-.11957-.0602-.16692-.1076c-.04734-.0473-.08402-.1042-.10758-.1669-.02357-.0627-.03347-.1296-.02905-.1964v-19c-.00442-.0668.00548-.1338.02905-.1965.02356-.0627.06024-.1196.10758-.1669.04735-.0473.10425-.084.16692-.1076s.12965-.03346.19645-.02904h11.10001l2.4 2.40004zm-11.00001-13.5c-.13361-.0089-.26756.0109-.3929.0581-.12533.0471-.23915.1204-.33383.2151s-.16804.2085-.21517.3339c-.04713.1253-.06694.2593-.0581.3929v10c-.00884.1336.01097.2675.0581.3929.04713.1253.12049.2391.21517.3338s.2085.168.33383.2152c.12534.0471.25929.0669.3929.0581h8.00001c.1336.0088.2676-.011.3929-.0581.1253-.0472.2391-.1205.3338-.2152s.1681-.2085.2152-.3338c.0471-.1254.0669-.2593.0581-.3929v-10c.0088-.1336-.011-.2676-.0581-.3929-.0471-.1254-.1205-.2392-.2152-.3339s-.2085-.168-.3338-.2151c-.1253-.0472-.2593-.067-.3929-.0581zm7.00001 4.6-2.6-2.6h2.6zm-6.00001 2.8 2.60001 2.6h-2.60001zm5.40001 2.6-5.40001-5.4v-2.6h.6l5.40001 5.4v2.6z"/></g></svg>