<svg fill="none" height="32" viewBox="0 0 32 32" width="32" xmlns="http://www.w3.org/2000/svg" xmlns:xlink="http://www.w3.org/1999/xlink"><clipPath id="a"><path d="m0 0h32v32h-32z"/></clipPath><g clip-path="url(#a)" fill="#394762"><path d="m25 10c1.1046 0 2-.89543 2-2s-.8954-2-2-2-2 .89543-2 2 .8954 2 2 2z"/><path d="m32 17v3.5c0 .663-.2634 1.2989-.7322 1.7678-.4689.4688-1.1048.7322-1.7678.7322h-14.12l-6.47 5.66c-.25689.2272-.57487.3739-.91444.4219s-.68576-.0048-.99556-.1519c-.3029-.1423-.55833-.3689-.7357-.6527-.17736-.2838-.26913-.6127-.2643-.9473v-4.33h-3.5c-.66304 0-1.29893-.2634-1.767767-.7322-.468841-.4689-.732233-1.1048-.732233-1.7678v-15c0-.66304.263392-1.29892.732233-1.76776.468837-.46884 1.104727-.73224 1.767767-.73224h11.5c.2652 0 .5196.10536.7071.2929.1875.18753.2929.44189.2929.7071 0 .26522-.1054.51957-.2929.70711s-.4419.29289-.7071.29289h-11.5c-.13261 0-.25979.05268-.35355.14645-.09377.09377-.14645.22095-.14645.35355v15c0 .1326.05268.2598.14645.3536.09376.0937.22094.1464.35355.1464h4.5c.13161-.0008.26207.0245.38391.0742.12183.0498.23265.1231.32609.2158.09268.0934.16601.2043.21577.3261.04977.1218.07499.2523.07423.3839v4.77l6.33-5.53c.1863-.1595.4248-.2449.67-.24h14.5c.1326 0 .2598-.0527.3536-.1464.0937-.0938.1464-.221.1464-.3536v-3.5c0-.2652.1054-.5196.2929-.7071s.4419-.2929.7071-.2929.5196.1054.7071.2929.2929.4419.2929.7071zm-14-9c0-1.38447.4105-2.73784 1.1797-3.88899.7692-1.15114 1.8624-2.04835 3.1415-2.57816 1.2791-.52982 2.6866-.66844 4.0444-.39834 1.3579.27009 2.6052.93678 3.5841 1.91575.979.97896 1.6457 2.22624 1.9158 3.58411s.1315 2.76533-.3983 4.04443c-.5299 1.2791-1.4271 2.3723-2.5782 3.1415-1.1512.7692-2.5045 1.1797-3.889 1.1797-1.8565 0-3.637-.7375-4.9497-2.0503-1.3128-1.3127-2.0503-3.09318-2.0503-4.9497zm2 0c0 .98891.2932 1.95561.8427 2.7779.5494.8222 1.3303 1.4631 2.2439 1.8415s1.9189.4775 2.8889.2845c.9699-.1929 1.8608-.6691 2.56-1.3684.6993-.6992 1.1755-1.59014 1.3684-2.56005.193-.9699.0939-1.97523-.2845-2.88886s-1.0193-1.69453-1.8415-2.24394c-.8223-.5494-1.789-.84265-2.7779-.84265-1.3261 0-2.5979.52679-3.5355 1.46447-.9377.93768-1.4645 2.20945-1.4645 3.53553z"/></g></svg>