<svg fill="none" height="32" viewBox="0 0 32 32" width="32" xmlns="http://www.w3.org/2000/svg"><g fill="#394762"><path d="m6.5 14h3c.13261 0 .25979.0527.35355.1464.09377.0938.14645.221.14645.3536v1c0 .1326-.05268.2598-.14645.3536-.09376.0937-.22094.1464-.35355.1464h-3c-.13261 0-.25979-.0527-.35355-.1464-.09377-.0938-.14645-.221-.14645-.3536v-1c0-.1326.05268-.2598.14645-.3536.09376-.0937.22094-.1464.35355-.1464zm21-12h-23c-.66304 0-1.29893.26339-1.76777.73223s-.73223 1.10473-.73223 1.76777v13c0 .663.26339 1.2989.73223 1.7678.46884.4688 1.10473.7322 1.76777.7322h4.5c.26522 0 .51957-.1054.70711-.2929.18753-.1875.29289-.4419.29289-.7071s-.10536-.5196-.29289-.7071c-.18754-.1875-.44189-.2929-.70711-.2929h-4.5c-.13261 0-.25979-.0527-.35355-.1464-.09377-.0938-.14645-.221-.14645-.3536v-7.5h24v9c0 .2652.1054.5196.2929.7071s.4419.2929.7071.2929.5196-.1054.7071-.2929.2929-.4419.2929-.7071v-14.5c0-.66304-.2634-1.29893-.7322-1.76777-.4689-.46884-1.1048-.73223-1.7678-.73223zm.5 4h-24v-1.5c-.00442-.0668.00548-.13378.02905-.19645.02356-.06267.06024-.11957.10758-.16692.04735-.04734.10425-.08402.16692-.10758.06267-.02357.12965-.03347.19645-.02905h23c.0668-.00442.1338.00548.1964.02905.0627.02356.1196.06024.167.10758.0473.04735.084.10425.1076.16692.0235.06267.0334.12965.029.19645z"/><path d="m25 18h-1v-1c.0268-.6637-.0842-1.3259-.326-1.9446-.2418-.6188-.6092-1.1807-1.0789-1.6505-.4698-.4697-1.0317-.837-1.6505-1.0788-.6187-.2418-1.2808-.3528-1.9446-.3261-.6657-.0345-1.3313.0712-1.9535.3103-.6223.2391-1.1874.6062-1.6587 1.0775-.4714.4714-.8385 1.0365-1.0776 1.6587-.239.6223-.3447 1.2878-.3102 1.9535v1h-1c-.1336-.0088-.2676.011-.3929.0581-.1254.0472-.2392.1205-.3339.2152-.0946.0947-.168.2085-.2151.3338-.0472.1254-.067.2593-.0581.3929v10c-.0089.1336.0109.2676.0581.3929.0471.1254.1205.2392.2151.3339.0947.0946.2085.168.3339.2151.1253.0472.2593.067.3929.0581h12c.1336.0089.2675-.0109.3929-.0581.1253-.0471.2391-.1205.3338-.2151.0947-.0947.168-.2085.2152-.3339.0471-.1253.0669-.2593.0581-.3929v-10c.0088-.1336-.011-.2675-.0581-.3929-.0472-.1253-.1205-.2391-.2152-.3338s-.2085-.168-.3338-.2152c-.1254-.0471-.2593-.0669-.3929-.0581zm-9-1c-.0201-.3992.0438-.7983.1874-1.1713.1437-.3731.364-.7119.6466-.9946.2827-.2827.6215-.503.9946-.6466.3731-.1437.7721-.2075 1.1714-.1875.3992-.02.7983.0438 1.1714.1875.373.1436.7118.3639.9945.6466s.503.6215.6466.9946c.1437.373.2075.7721.1875 1.1713v1h-6zm8 11h-10v-8h10z"/><path d="m19 22c-.1336-.0089-.2676.0109-.3929.0581-.1254.0471-.2392.1205-.3339.2151-.0946.0947-.168.2085-.2151.3339-.0472.1253-.067.2593-.0581.3929v2c0 .2652.1053.5195.2929.7071.1875.1875.4419.2929.7071.2929s.5195-.1054.7071-.2929c.1875-.1876.2929-.4419.2929-.7071v-2c.0088-.1336-.011-.2676-.0581-.3929-.0472-.1254-.1205-.2392-.2152-.3339-.0947-.0946-.2085-.168-.3338-.2151-.1254-.0472-.2593-.067-.3929-.0581z"/></g></svg>