<svg fill="none" height="32" viewBox="0 0 32 32" width="32" xmlns="http://www.w3.org/2000/svg"><g fill="#394762"><path d="m18.59 30.3699h-.14c-.2626-.0371-.4996-.1771-.659-.389s-.2281-.4784-.191-.741l.8-5.69c.0172-.1309.0601-.257.1264-.3712.0662-.1142.1544-.2142.2594-.2942.1051-.0799.2249-.1383.3526-.1717.1278-.0334.2608-.0411.3916-.0229.2625.0372.4996.1771.659.389s.2281.4785.191.741l-.8 5.7c-.0359.2368-.1556.4528-.3373.6088-.1817.1559-.4133.2416-.6527.2412z"/><path d="m27 10h-4.68l1.08-7.73c.0371-.26522-.0326-.53432-.1939-.74812-.1613-.21379-.4009-.35475-.6661-.39188s-.5343.03261-.7481.19389c-.2138.16129-.3548.40089-.3919.66611l-1.1 8.01h-6l1.1-7.73c.0371-.26522-.0326-.53432-.1939-.74812-.1613-.21379-.4009-.35475-.6661-.39188s-.5343.03261-.7481.19389c-.2138.16129-.3548.40089-.3919.66611l-1.1 8.01h-6.3c-.26522 0-.51957.1054-.70711.2929-.18753.1875-.29289.4419-.29289.7071s.10536.5196.29289.7071c.18754.1875.44189.2929.70711.2929h6l-1 7h-6c-.26522 0-.51957.1054-.70711.2929-.18753.1875-.29289.4419-.29289.7071s.10536.5196.29289.7071c.18754.1875.44189.2929.70711.2929h5.75l-1.15 8.23c-.03709.2626.03162.5291.19102.741s.39648.3518.65898.389h.14c.2427.0024.4779-.0835.6619-.2418.184-.1582.3041-.3779.3381-.6182l1.18-8.5h13.23c.2652 0 .5196-.1054.7071-.2929s.2929-.4419.2929-.7071-.1054-.5196-.2929-.7071-.4419-.2929-.7071-.2929h-4.95l1-7h5c.2652 0 .5196-.1054.7071-.2929s.2929-.4419.2929-.7071-.1054-.5196-.2929-.7071-.4419-.2929-.7071-.2929zm-8 9h-6l1-7h6z"/></g></svg>