<svg fill="none" height="32" viewBox="0 0 32 32" width="32" xmlns="http://www.w3.org/2000/svg" xmlns:xlink="http://www.w3.org/1999/xlink"><clipPath id="a"><path d="m0 0h32v32h-32z"/></clipPath><g clip-path="url(#a)" fill="#394762"><path d="m29.81 1.90002c-1.0592-.72633-2.3572-1.017258-3.6251-.81246-1.2678.20479-2.4083.8896-3.1849 1.91246h-20.5c-.66304 0-1.29893.2634-1.767767.73224-.468841.46884-.732233 1.10472-.732233 1.76776v14.99998c0 .6631.263392 1.2989.732233 1.7678.468837.4688 1.104727.7322 1.767767.7322h3.5v4.33c-.00483.3346.08694.6636.2643.9473.17737.2838.4328.5104.7357.6527.3061.1408.64633.1901.97982.1423.33348-.0479.64606-.1911.90018-.4123l6.5-5.66h11.62c.6566 0 1.3068-.1293 1.9134-.3806s1.1578-.6196 1.6221-1.0838c.4643-.4643.8326-1.0155 1.0839-1.6222.2513-.6066.3806-1.2568.3806-1.9134v-11.69998c.0157-.85546-.1752-1.70208-.5564-2.46806-.3813-.76597-.9416-1.42869-1.6336-1.93194zm.19 16.54998c-.1104.7329-.4883 1.399-1.0607 1.8699-.5724.4708-1.2989.7131-2.0393.6801h-11.9c-.2431.0004-.4777.0892-.66.25l-6.34 5.53v-4.78c.00209-.1333-.02249-.2656-.07229-.3893-.0498-.1236-.12382-.2361-.21771-.3307-.19034-.1835-.44562-.2842-.71-.28h-4.5c-.13261 0-.25979-.0527-.35355-.1464-.09377-.0938-.14645-.221-.14645-.3536v-14.99998c0-.1326.05268-.25978.14645-.35355.09376-.09377.22094-.14645.35355-.14645h19.5v10.63998c0 .3607.1433.7066.3983.9617.2551.255.601.3983.9617.3983.2339-.0058.4627-.0702.6653-.1872.2027-.1171.3728-.283.4947-.4828.2679-.4126.6356-.7509 1.0692-.9834.4336-.2326.9189-.3518 1.4108-.3466.4349-.0049.8656.0848 1.2624.2628.3967.1781.75.4403 1.0354.7685s.496.7145.6172 1.1321c.1213.4176.1503.8567.085 1.2866zm0-4.45c-.8655-.6491-1.9181-1-3-1s-2.1345.3509-3 1v-7.89998c-.033-.74045.2093-1.46689.6802-2.0393.4708-.57241 1.1369-.95025 1.8698-1.0607.43-.06526.869-.03626 1.2866.08499.4177.12126.804.33186 1.1321.61723.3282.28536.5904.63866.7685 1.03543.178.39676.2677.82749.2628 1.26235z"/><path d="m16 9h-9c-.55228 0-1 .44772-1 1 0 .5523.44772 1 1 1h9c.5523 0 1-.4477 1-1 0-.55228-.4477-1-1-1z"/><path d="m14 15h-7c-.55228 0-1 .4477-1 1s.44772 1 1 1h7c.5523 0 1-.4477 1-1s-.4477-1-1-1z"/></g></svg>