<svg fill="none" height="32" viewBox="0 0 32 32" width="32" xmlns="http://www.w3.org/2000/svg" xmlns:xlink="http://www.w3.org/1999/xlink"><clipPath id="a"><path d="m0 0h32v32h-32z"/></clipPath><g clip-path="url(#a)" fill="#394762"><path d="m21 10h-10c-.7956 0-1.55871.3161-2.12132.8787s-.87868 1.3257-.87868 2.1213v12c0 .7956.31607 1.5587.87868 2.1213s1.32572.8787 2.12132.8787h10c.7956 0 1.5587-.3161 2.1213-.8787s.8787-1.3257.8787-2.1213v-12c0-.7956-.3161-1.5587-.8787-2.1213s-1.3257-.8787-2.1213-.8787zm1 3v6.35l-7.35-7.35h6.35c.2652 0 .5196.1054.7071.2929s.2929.4419.2929.7071zm-12 12v-7.39l8.39 8.39h-7.39c-.2652 0-.5196-.1054-.7071-.2929s-.2929-.4419-.2929-.7071zm11.19 1-11.19-11.22v-1.78c0-.2652.1054-.5196.2929-.7071s.4419-.2929.7071-.2929h.83l10.17 10.17v2.83c.0043.2354-.0746.4647-.2228.6476-.1481.1829-.3561.3077-.5872.3524z"/><path d="m27.12 4.07002-3.24-3.24c-.5702-.544479-1.3317-.8426402-2.12-.83000012h-15.26001c-.6588.0025777-1.29017.26406212-1.75788.72802912-.46771.463971-.73425 1.093221-.74212 1.751971v26.99998c-.00264.33.06007.6572.18453.9629.12445.3056.30818.5836.54059.8178.23241.2343.5089.4202.81353.5471.30462.1269.63135.1922.96135.1922h19.00001c.663 0 1.2989-.2634 1.7678-.7322.4688-.4689.7322-1.1047.7322-1.7678v-23.29998c.001-.39552-.0763-.78732-.2273-1.15287s-.3729-.69763-.6527-.97713zm-1.12 25.42998c0 .1326-.0527.2598-.1465.3536-.0937.0937-.2209.1464-.3535.1464h-19.00001c-.13261 0-.25979-.0527-.35355-.1464-.09377-.0938-.14645-.221-.14645-.3536v-26.99998c0-.13261.05268-.25979.14645-.35355.09376-.09377.22094-.14645.35355-.14645h15.26001c.1323.00055.2632.02735.3851.07885.1218.05149.2323.12666.3249.22115l3.24 3.24c.1753.17629.2787.4116.29.66z"/></g></svg>