<svg fill="none" height="32" viewBox="0 0 32 32" width="32" xmlns="http://www.w3.org/2000/svg" xmlns:xlink="http://www.w3.org/1999/xlink"><clipPath id="a"><path d="m0 0h32v32h-32z"/></clipPath><g clip-path="url(#a)"><path d="m19.5 26h-17c-.66304 0-1.29893-.2634-1.767767-.7322-.468841-.4689-.732233-1.1048-.732233-1.7678v-15c0-.66304.263392-1.29893.732233-1.76777.468837-.46884 1.104727-.73223 1.767767-.73223h17c.663 0 1.2989.26339 1.7678.73223.4688.46884.7322 1.10473.7322 1.76777v3.88l6.38-3.19c.3815-.19118.8056-.28152 1.232-.26241.4263.01911.8406.14703 1.2035.37158s.6622.53825.8696.91123c.2073.373.3157.7929.3149 1.2196v9.15c.0028.4264-.104.8464-.3101 1.2197s-.5047.6874-.867.9122-.7763.3529-1.2023.3718-.8498-.0719-1.2306-.2637l-6.39-3.16v3.84c0 .663-.2634 1.2989-.7322 1.7678-.4689.4688-1.1048.7322-1.7678.7322zm-17-18c-.13261 0-.25979.05268-.35355.14645-.09377.09376-.14645.22094-.14645.35355v15c0 .1326.05268.2598.14645.3536.09376.0937.22094.1464.35355.1464h17c.1326 0 .2598-.0527.3536-.1464.0937-.0938.1464-.221.1464-.3536v-5.45c-.0003-.1699.0426-.3372.1249-.4859.0822-.1487.201-.274.3451-.3641s.3088-.1419.4785-.1507c.1697-.0087.3389.0259.4915.1007l7.84 3.85c.0736.0403.1561.0614.24.0614s.1664-.0211.24-.0614c.0724-.0463.1322-.1098.1741-.1848s.0645-.1593.0659-.2452v-9.14c-.0014-.0859-.024-.1702-.0659-.2452s-.1017-.1385-.1741-.1848c-.0736-.0403-.1561-.0614-.24-.0614s-.1664.0211-.24.0614l-7.83 3.91c-.1537.0775-.3249.114-.4969.106-.172-.0081-.339-.0604-.4848-.1519-.1459-.0916-.2656-.2192-.3476-.3706-.0821-.1514-.1236-.3213-.1207-.4935v-5.5c0-.13261-.0527-.25979-.1464-.35355-.0938-.09377-.221-.14645-.3536-.14645z" fill="#394762"/></g></svg>