<svg fill="none" height="32" viewBox="0 0 32 32" width="32" xmlns="http://www.w3.org/2000/svg"><path d="m24 30.49c-.4469-.0015-.8854-.1223-1.27-.35-2.6267-1.564-5.1396-3.3117-7.52-5.23-1.93-1.59-3.45-2.95-4.8-4.3-1.34999-1.35-2.81999-3-4.49999-5-1.87908-2.3371-3.58686-4.8068-5.109996-7.39-.270087-.47444-.378131-1.02399-.307753-1.56536s.315341-1.04504.697749-1.43464l4-4c.47596-.453044 1.1079-.705718 1.765-.705718.65711 0 1.28905.252674 1.765.705718l4.86999 4.87c.4672.46861.7295 1.10331.7295 1.765 0 .66168-.2623 1.29638-.7295 1.765l-1.34 1.33c1.1721 1.4549 2.4241 2.8437 3.75 4.16 1.2674 1.2713 2.6027 2.473 4 3.6l1.34-1.33c.4686-.4672 1.1033-.7295 1.765-.7295s1.2964.2623 1.765.7295l4.87 4.87c.4672.4686.7295 1.1033.7295 1.765s-.2623 1.2964-.7295 1.765l-4 4c-.4662.4531-1.0899.7076-1.74.71zm-16.99999-28.04c-.13188.00188-.25768.05579-.35.15l-4 4c-.07792.0791-.12789.18148-.14233.29158-.01444.11009.00745.22189.06233.31842 1.46025 2.48474 3.09783 4.8609 4.9 7.11 1.63 2 3.05999 3.55 4.36999 4.86 1.4771 1.4661 3.0292 2.8546 4.65 4.16 2.2993 1.8582 4.7289 3.5492 7.27 5.06.097.0533.2084.0743.3181.0599s.212-.0634.2919-.1399l4-4c.0469-.0465.0841-.1018.1095-.1627.0253-.0609.0384-.1263.0384-.1923s-.0131-.1314-.0384-.1923c-.0254-.0609-.0626-.1162-.1095-.1627l-4.86-4.87c-.0951-.0923-.2225-.1438-.355-.1438s-.2598.0515-.355.1438l-2 2c-.1744.173-.4063.2757-.6516.2886s-.4868-.0649-.6784-.2186l-.7-.56c-1.4528-1.1711-2.8414-2.4196-4.16-3.74-1.3628-1.3846-2.6481-2.8435-3.85-4.37l-.56-.7c-.1524-.1928-.22851-.4349-.21376-.6803.01476-.2453.11936-.4766.29376-.6497l2-2c.0469-.04649.0841-.10179.1095-.16271.0253-.06093.0384-.12629.0384-.19229 0-.06601-.0131-.13136-.0384-.19229-.0254-.06093-.0626-.11623-.1095-.16271l-4.93999-4.8c-.09043-.09098-.21183-.14454-.34-.15z" fill="#394762"/></svg>