<svg fill="none" height="32" viewBox="0 0 32 32" width="32" xmlns="http://www.w3.org/2000/svg"><g fill="#394762"><path d="m31.12 10.71-1.83-1.82998c-.5621-.56277-1.3246-.8793-2.12-.88h-2.62c-.2798.00033-.5543-.07711-.7926-.22367-.2384-.14656-.4314-.35648-.5574-.60633l-.48-1c-.3373-.65557-.8492-1.20517-1.4792-1.58811s-1.3536-.58431-2.0908-.58189h-6.3c-.7414.00132-1.4679.20869-2.0983.59893-.6304.39025-1.13992.94803-1.4717 1.61107l-.48 1c-.13145.24239-.32675.44416-.56474.58343-.23798.13926-.50955.2107-.78526.20657h-2.62c-.79538.0007-1.55793.31723-2.12.88l-1.83 1.82998c-.56277.5621-.87929979 1.3246-.88 2.12v13.67c0 .6631.263392 1.2989.732233 1.7678.468837.4688 1.104727.7322 1.767767.7322h27c.663 0 1.2989-.2634 1.7678-.7322.4688-.4689.7322-1.1047.7322-1.7678v-13.67c-.0007-.7954-.3172-1.5579-.88-2.12zm-20-3.59998c.1609-.32426.4068-.59877.7115-.79425s.6567-.30461 1.0185-.31575h6.3c.3704.00205.7329.10692 1.0472.3029.3143.19599.568.4754.7328.8071l.45.89h-10.76zm-8.78 4.99998 1.83-1.83c.18034-.1679.41396-.267.66-.28h22.34c.2648.0037.5184.1073.71.29l1.83 1.83c.0927.0935.166.2043.2158.3261.0497.1219.075.2523.0742.3839v1.17h-11c0-.2652-.1054-.5195-.2929-.7071-.1875-.1875-.4419-.2929-.7071-.2929h-4c-.2652 0-.5196.1054-.7071.2929-.1875.1876-.2929.4419-.2929.7071h-11v-1.17c-.00076-.1316.02446-.262.07423-.3839.04976-.1218.12309-.2326.21577-.3261zm27.16 14.89h-27c-.13261 0-.25979-.0527-.35355-.1464-.09377-.0938-.14645-.221-.14645-.3536v-10.5h28v10.5c0 .1326-.0527.2598-.1464.3536-.0938.0937-.221.1464-.3536.1464z"/><path d="m22 25c-.1316.0008-.2621-.0245-.3839-.0742-.1218-.0498-.2327-.1231-.3261-.2158-.0937-.093-.1681-.2036-.2189-.3254-.0508-.1219-.0769-.2526-.0769-.3846s.0261-.2627.0769-.3846c.0508-.1218.1252-.2324.2189-.3254l1.44-1.44c.0478-.0449.086-.0991.112-.1593.0261-.0602.0395-.1251.0395-.1907s-.0134-.1305-.0395-.1907c-.026-.0602-.0642-.1144-.112-.1593l-1.44-1.44c-.1883-.1883-.2941-.4437-.2941-.71s.1058-.5217.2941-.71.4437-.2941.71-.2941.5217.1058.71.2941l1.44 1.44c.4678.4703.7303 1.1067.7303 1.77s-.2625 1.2997-.7303 1.77l-1.44 1.44c-.0934.0927-.2043.166-.3261.2158-.1218.0497-.2523.075-.3839.0742z"/><path d="m10 25c-.13158.0008-.26204-.0245-.38388-.0742-.12184-.0498-.23265-.1231-.32609-.2158l-1.44-1.44c-.46777-.4703-.73034-1.1067-.73034-1.77s.26257-1.2997.73034-1.77l1.44-1.44c.09324-.0932.20393-.1672.32575-.2177.12182-.0504.25239-.0764.38422-.0764.1319 0 .2625.026.3843.0764.1218.0505.2325.1245.3257.2177.0933.0932.1672.2039.2177.3258.0504.1218.0764.2523.0764.3842s-.026.2624-.0764.3843c-.0505.1218-.1244.2325-.2177.3257l-1.43997 1.44c-.04783.0449-.08596.0991-.11202.1593s-.0395.1251-.0395.1907.01344.1305.0395.1907.06419.1144.11202.1593l1.43997 1.44c.0938.093.1681.2036.2189.3254.0508.1219.0769.2526.0769.3846s-.0261.2627-.0769.3846c-.0508.1218-.1251.2324-.2189.3254-.0934.0927-.2042.166-.3261.2158-.1218.0497-.2523.075-.3839.0742z"/><path d="m15 25.0001c-.1312.0033-.2613-.0241-.38-.08-.1288-.0425-.2475-.1106-.3491-.2003-.1016-.0898-.1839-.1992-.2419-.3218-.058-.1225-.0905-.2555-.0955-.391-.0049-.1354.0177-.2705.0665-.3969l2.1-5c.1036-.2414.2981-.4323.5413-.5315.2433-.0992.5158-.0987.7587.0015.127.0444.2436.114.3431.2047.0994.0906.1795.2003.2355.3226s.0868.2547.0905.3892c.0037.1344-.0198.2683-.0691.3934l-2.1 5c-.0752.1777-.2002.3298-.3599.438-.1597.1083-.3472.168-.5401.1721z"/></g></svg>