<svg fill="none" height="32" viewBox="0 0 32 32" width="32" xmlns="http://www.w3.org/2000/svg"><path d="m4 8h27c.2652 0 .5196-.10536.7071-.29289.1875-.18754.2929-.44189.2929-.70711v-6c0-.265216-.1054-.51957-.2929-.707107-.1875-.187536-.4419-.292893-.7071-.292893h-12c-.2652 0-.5196.105357-.7071.292893-.1875.187537-.2929.441891-.2929.707107v5h-14c-1.06087 0-2.07828.42143-2.82843 1.17157-.750143.75015-1.17157 1.76756-1.17157 2.82843 0 1.0609.421427 2.0783 1.17157 2.8284.75015.7502 1.76756 1.1716 2.82843 1.1716h4v5c0 .2652.10536.5196.29289.7071.18754.1875.44189.2929.70711.2929h19c.5304 0 1.0391.2107 1.4142.5858s.5858.8838.5858 1.4142-.2107 1.0391-.5858 1.4142-.8838.5858-1.4142.5858h-27c-.265216 0-.51957.1054-.707107.2929-.187536.1875-.292893.4419-.292893.7071v6c0 .2652.105357.5196.292893.7071.187537.1875.441891.2929.707107.2929h12c.2652 0 .5196-.1054.7071-.2929s.2929-.4419.2929-.7071v-5h14c1.0609 0 2.0783-.4214 2.8284-1.1716.7502-.7501 1.1716-1.7675 1.1716-2.8284s-.4214-2.0783-1.1716-2.8284c-.7501-.7502-1.7675-1.1716-2.8284-1.1716h-4v-5c0-.2652-.1054-.5196-.2929-.7071s-.4419-.2929-.7071-.2929h-19c-.53043 0-1.03914-.2107-1.41421-.5858-.37508-.3751-.58579-.8838-.58579-1.4142 0-.53043.21071-1.03914.58579-1.41421.37507-.37508.88378-.58579 1.41421-.58579zm16-6h10v4h-10zm-8 28h-10v-4h10zm10-12h-12v-4h12z" fill="#394762"/></svg>