<svg fill="none" height="32" viewBox="0 0 32 32" width="32" xmlns="http://www.w3.org/2000/svg"><g fill="#394762"><path d="m29.9 4.5c-.0446-.12577-.1138-.24134-.2037-.33993-.09-.09858-.1987-.17817-.3198-.23408-.1212-.05591-.2523-.08702-.3856-.09148-.1334-.00447-.2663.0178-.3909.06549l-2.6.8v-2.7c0-.26522-.1054-.51957-.2929-.70711-.1875-.18753-.4419-.29289-.7071-.29289s-.5196.10536-.7071.29289c-.1875.18754-.2929.44189-.2929.70711v2.7l-2.6-.8c-.1246-.04769-.2575-.06996-.3909-.06549-.1333.00446-.2644.03557-.3856.09148-.1211.05591-.2298.1355-.3198.23408-.0899.09859-.1591.21416-.2037.33993-.0477.12461-.07.25751-.0655.39086s.0356.26446.0915.38561c.0559.12114.1355.22987.2341.31979.0986.08991.2141.15918.3399.20374l2.6.8-1.6 2.2c-.1406.2184-.1977.48016-.161.73729s.1649.49241.361.66271c.1824.1109.3875.1793.6.2.1565.0078.3124-.0249.4525-.0949.1402-.0701.2599-.1752.3475-.3051l1.6-2.2 1.6 2.2c.278.2435.6308.3846 1 .4.2125-.0207.4176-.0891.6-.2.1998-.1678.3307-.40345.3676-.66177s-.0228-.52117-.1676-.73823l-1.6-2.2 2.6-.8c.1258-.04456.2413-.11383.3399-.20374.0986-.08992.1782-.19865.2341-.31979.0559-.12115.087-.25226.0915-.38561s-.0178-.26625-.0655-.39086z"/><path d="m6 17v10c0 .2652.10536.5196.29289.7071.18754.1875.44189.2929.70711.2929h8c.2652 0 .5196-.1054.7071-.2929s.2929-.4419.2929-.7071v-10c0-.2652-.1054-.5196-.2929-.7071s-.4419-.2929-.7071-.2929h-8c-.26522 0-.51957.1054-.70711.2929-.18753.1875-.29289.4419-.29289.7071zm8 3.6-2.6-2.6h2.6zm-6 2.8 2.6 2.6h-2.6zm5.4 2.6-5.4-5.4v-2.6h.6l5.4 5.4v2.6zm3.6-17.5c-.3263-.30635-.7527-.48399-1.2-.5h-11.3c-.66304 0-1.29893.26339-1.76777.73223s-.73223 1.10473-.73223 1.76777v19c0 .663.26339 1.2989.73223 1.7678.46884.4688 1.10473.7322 1.76777.7322h13c.663 0 1.2989-.2634 1.7678-.7322.4688-.4689.7322-1.1048.7322-1.7678v-17.3c-.0175-.4177-.1968-.8122-.5-1.1zm.5 21.5h-13c-.13261 0-.25979-.0527-.35355-.1464-.09377-.0938-.14645-.221-.14645-.3536v-19c0-.1326.05268-.2598.14645-.3536.09376-.0937.22094-.1464.35355-.1464h11.1l2.4 2.4v17.1c0 .1326-.0527.2598-.1464.3536-.0938.0937-.221.1464-.3536.1464z"/></g></svg>