<svg fill="none" height="32" viewBox="0 0 32 32" width="32" xmlns="http://www.w3.org/2000/svg" xmlns:xlink="http://www.w3.org/1999/xlink"><clipPath id="a"><path d="m0 0h32v32h-32z"/></clipPath><g clip-path="url(#a)" fill="#394762"><path d="m26 12 6-3-6-3z"/><path d="m24 23c0-.2652-.1054-.5196-.2929-.7071s-.4419-.2929-.7071-.2929h-1c-3.2 0-5-2.8-6.8-6 1.8-3.2 3.6-6 6.8-6h1c.2652 0 .5196-.10536.7071-.29289.1875-.18754.2929-.44189.2929-.70711s-.1054-.51957-.2929-.70711c-.1875-.18753-.4419-.29289-.7071-.29289h-1c-3.9 0-6.2 2.9-8 6-1.8-3.1-4.1-6-8-6h-5c-.265216 0-.51957.10536-.707107.29289-.187536.18754-.292893.44189-.292893.70711s.105357.51957.292893.70711c.187537.18753.441891.29289.707107.29289h5c3.2 0 5 2.8 6.8 6-1.8 3.2-3.6 6-6.8 6h-5c-.265216 0-.51957.1054-.707107.2929-.187536.1875-.292893.4419-.292893.7071s.105357.5196.292893.7071c.187537.1875.441891.2929.707107.2929h5c3.9 0 6.2-2.9 8-6 1.8 3.1 4.1 6 8 6h1c.2652 0 .5196-.1054.7071-.2929s.2929-.4419.2929-.7071z"/><path d="m26 26 6-3-6-3z"/></g></svg>