<svg fill="none" height="32" viewBox="0 0 32 32" width="32" xmlns="http://www.w3.org/2000/svg" xmlns:xlink="http://www.w3.org/1999/xlink"><clipPath id="a"><path d="m0 0h32v32h-32z"/></clipPath><g clip-path="url(#a)" fill="#394762"><path d="m17 8.50002c-.3264-.30635-.7527-.48399-1.2-.5h-11.30001c-.32905-.00266-.65533.06018-.95985.18487-.30452.1247-.58118.30874-.81386.54142s-.41672.50934-.54142.81386c-.12469.30452-.18753.63083-.18487.95983v19c-.00266.3291.06018.6554.18487.9599.1247.3045.30874.5811.54142.8138s.50934.4168.81386.5414c.30452.1247.6308.1876.95985.1849h13.00001c.329.0027.6553-.0602.9598-.1849.3046-.1246.5812-.3087.8139-.5414s.4167-.5093.5414-.8138.1876-.6308.1849-.9599v-17.3c-.0175-.4177-.1969-.8121-.5-1.1zm1 20.99998c.0044.0668-.0055.1338-.0291.1965-.0235.0626-.0602.1195-.1075.1669-.0474.0473-.1043.084-.167.1076-.0626.0235-.1296.0334-.1964.029h-13.00001c-.0668.0044-.13378-.0055-.19645-.029-.06267-.0236-.11957-.0603-.16692-.1076-.04734-.0474-.08402-.1043-.10758-.1669-.02357-.0627-.03347-.1297-.02905-.1965v-19c-.00442-.0668.00548-.1338.02905-.1964.02356-.0627.06024-.1196.10758-.1669.04735-.0474.10425-.0841.16692-.1076.06267-.0236.12965-.0335.19645-.0291h11.10001l2.4 2.4zm-11.00001-13.5c-.13361-.0088-.26756.011-.3929.0581-.12533.0471-.23915.1205-.33383.2152s-.16804.2085-.21517.3338c-.04713.1254-.06694.2593-.0581.3929v10c-.00884.1336.01097.2676.0581.3929.04713.1254.12049.2392.21517.3339.09468.0946.2085.168.33383.2151.12534.0472.25929.067.3929.0581h8.00001c.1336.0089.2676-.0109.3929-.0581.1253-.0471.2391-.1205.3338-.2151.0947-.0947.1681-.2085.2152-.3339.0471-.1253.0669-.2593.0581-.3929v-10c.0088-.1336-.011-.2675-.0581-.3929-.0471-.1253-.1205-.2391-.2152-.3338s-.2085-.1681-.3338-.2152-.2593-.0669-.3929-.0581zm7.00001 4.6-2.6-2.6h2.6zm-6.00001 2.8 2.60001 2.6h-2.60001zm5.40001 2.6-5.40001-5.4v-2.6h.6l5.40001 5.4v2.6z"/><path d="m28 4.51v-1.51c0-.79565-.3161-1.55871-.8787-2.12132s-1.3257-.87868-2.1213-.87868-1.5587.31607-2.1213.87868-.8787 1.32567-.8787 2.12132v1.51c-.3105.23287-.5625.53483-.7361.88197-.1735.34713-.2639.72992-.2639 1.11803v2c.0026.66131.2672 1.29463.7358 1.7613.4685.4667 1.1029.7287 1.7642.7287h3c.663 0 1.2989-.2634 1.7678-.7322.4688-.46887.7322-1.10476.7322-1.7678v-2c-.0015-.38642-.0927-.76723-.2662-1.11251s-.4247-.64564-.7338-.87749zm-3-2.51c.1336-.00884.2676.01097.3929.0581s.2391.12049.3338.21517.1681.2085.2152.33383c.0471.12534.0669.25929.0581.3929v1h-2v-1c-.0088-.13361.011-.26756.0581-.3929.0471-.12533.1205-.23915.2152-.33383s.2085-.16804.3338-.21517.2593-.06694.3929-.0581zm2 6.5c0 .13261-.0527.25979-.1464.35355-.0938.09377-.221.14645-.3536.14645h-3c-.1326 0-.2598-.05268-.3536-.14645-.0937-.09376-.1464-.22094-.1464-.35355v-2c0-.13261.0527-.25979.1464-.35355.0938-.09377.221-.14645.3536-.14645h3c.1326 0 .2598.05268.3536.14645.0937.09376.1464.22094.1464.35355z"/></g></svg>