<svg fill="none" height="32" viewBox="0 0 32 32" width="32" xmlns="http://www.w3.org/2000/svg" xmlns:xlink="http://www.w3.org/1999/xlink"><clipPath id="a"><path d="m0 0h32v32h-32z"/></clipPath><g clip-path="url(#a)" fill="#394762"><path d="m16 26.64c-.596-.0019-1.191-.0487-1.78-.14-2.1733-.3737-4.1779-1.4103-5.73903-2.9678-1.56111-1.5575-2.60233-3.5598-2.98096-5.7322-.34213-2.0259-.0993-4.1073.7-6 .23729-.5327.60077-.9996 1.05901-1.3603.45825-.3606.99745-.60424 1.57099-.70972.59453-.11626 1.20849-.08597 1.78869.08827.5802.17423 1.1092.48715 1.5413.91175.5198.5091.8756 1.1619 1.0217 1.8746s.0758 1.4528-.2017 2.1254c-.242.5741-.3215 1.2037-.23 1.82.1177.6784.4422 1.304.9291 1.7909s1.1124.8114 1.7909.9291c.62.079 1.2497-.0145 1.82-.27.6716-.2831 1.4131-.3562 2.1271-.2099.7139.1464 1.3669.5054 1.8729 1.0299.4252.4296.7387.9568.913 1.5356s.2042 1.1914.087 1.7844c-.1077.5702-.3523 1.1057-.7129 1.5604s-.8264.8149-1.3571 1.0496c-1.3314.5808-2.7674.8837-4.22.89zm-6.44999-15c-.10951-.0147-.22049-.0147-.33 0-.27165.0414-.52754.1539-.74177.3259-.21423.1721-.37921.3978-.47823.6541-.64037 1.5315-.83451 3.2129-.56 4.85.29823 1.7531 1.13078 3.3714 2.38377 4.6333 1.25302 1.2619 2.86522 2.106 4.61622 2.4167 1.6593.2801 3.3643.0752 4.91-.59.2348-.0975.4408-.2534.5983-.4529.1576-.1996.2614-.4361.3017-.6871.0544-.2647.0417-.5387-.0369-.7972s-.2206-.4932-.4131-.6828c-.2219-.2509-.5148-.4282-.8399-.5086s-.6669-.06-.9801.0586c-.914.3888-1.9187.5136-2.9.36-.7907-.1295-1.5416-.4373-2.1958-.9-.6541-.4627-1.1944-1.0682-1.5799-1.7707-.3854-.7025-.6059-1.4835-.6448-2.2838-.0388-.8003.1049-1.599.4205-2.3355.1148-.3009.1391-.6288.0698-.9434-.0693-.3145-.2291-.6018-.4598-.8266-.3067-.3055-.7174-.484-1.14999-.5z"/><path d="m16 32c-3.0521-.0005-6.04127-.8674-8.62-2.5l-3.33 1.19c-.36365.1304-.75653.1564-1.1342.0751-.37767-.0812-.72506-.2666-1.00287-.535-.27782-.2685-.47496-.6093-.56914-.984-.09418-.3746-.08164-.7682.03621-1.1361l1.13-3.51c-1.50368-2.3474-2.367934-5.047-2.5071295-7.8313s.4514965-5.5566 1.7135495-8.04235c1.26206-2.48572 3.15168-4.59855 5.48166-6.12917 2.32997-1.53063 5.01942-2.425918 7.80192-2.59717499 4.1849-.28115701 8.3129 1.09225499 11.4953 3.82454499 3.1823 2.7323 5.1645 6.60495 5.5197 10.78425.3553 4.1793-.9448 8.331-3.6202 11.5612-2.6755 3.2303-6.5125 5.2807-10.6848 5.71-.5673.0721-1.1382.1122-1.71.12zm-8.45-4.61c.19945-.0004.39447.0588.56.17 2.7391 1.8852 6.0647 2.7228 9.37 2.36 3.7024-.3156 7.1278-2.0891 9.5227-4.9302 2.3948-2.8412 3.5629-6.5174 3.2473-10.2198s-2.0891-7.12782-4.9302-9.52266c-2.8412-2.39484-6.5174-3.56294-10.2198-3.24733-3.2863.23059-6.3875 1.60705-8.76312 3.88946-2.37562 2.28242-3.87501 5.32613-4.23688 8.60053-.36459 3.3054.47317 6.6316 2.36 9.37.08489.1263.13983.2704.16062.4211.0208.1508.0069.3043-.04062.4489l-1.27 4 .09.09 3.83-1.36c.1021-.0408.21021-.0644.32-.07z"/></g></svg>