<svg fill="none" height="32" viewBox="0 0 32 32" width="32" xmlns="http://www.w3.org/2000/svg"><g fill="#394762"><path d="m16 30.38c-.3286.0011-.6542-.0628-.958-.1881s-.5797-.3094-.812-.5419l-13.35-13.36c-.56277-.5621-.87929979-1.3246-.88-2.12v-11.67c0-.66304.263392-1.29893.732233-1.767767.468837-.468841 1.104727-.732233 1.767767-.732233h27c.663 0 1.2989.263392 1.7678.732233.4688.468837.7322 1.104727.7322 1.767767v.67c-.0007.79538-.3172 1.55793-.88 2.12l-13.35 13.36c-.4716.4653-1.1075.7263-1.77.7263s-1.2984-.261-1.77-.7263l-4.94-4.94c-.1883-.1883-.29409-.4437-.29409-.71s.10579-.5217.29409-.71.4437-.2941.71-.2941.5217.1058.71.2941l4.94 4.94c.0449.0478.0991.086.1593.112.0602.0261.1251.0395.1907.0395s.1305-.0134.1907-.0395c.0602-.026.1144-.0642.1593-.112l13.36-13.35c.0927-.09344.166-.20426.2158-.32609.0497-.12184.075-.2523.0742-.38391v-.67c0-.13261-.0527-.25979-.1464-.35355-.0938-.09377-.221-.14645-.3536-.14645h-27c-.13261 0-.25979.05268-.35355.14645-.09377.09376-.14645.22094-.14645.35355v11.67c-.00076.1316.02446.2621.07423.3839.04976.1218.12309.2327.21577.3261l13.36 13.35c.0449.0478.0991.086.1593.112.0602.0261.1251.0395.1907.0395s.1305-.0134.1907-.0395c.0602-.026.1144-.0642.1593-.112l7.94-7.94c.1883-.1883.4437-.2941.71-.2941s.5217.1058.71.2941.2941.4437.2941.71-.1058.5217-.2941.71l-7.94 7.94c-.2323.2325-.5082.4166-.812.5419s-.6294.1892-.958.1881z"/><path d="m29 19.82c1.6569 0 3-1.3431 3-3 0-1.6568-1.3431-3-3-3s-3 1.3432-3 3c0 1.6569 1.3431 3 3 3z"/></g></svg>