<svg xmlns="http://www.w3.org/2000/svg" width="32" height="32" fill="none" viewBox="0 0 32 32"><path fill="#F22F46" d="M16 0C7.14667 0 0 7.14667 0 16C0 24.8533 7.14667 32 16 32C24.8533 32 32 24.8533 32 16C32 7.14667 24.8533 0 16 0ZM16 27.7333C9.49333 27.7333 4.26667 22.5067 4.26667 16C4.26667 9.49333 9.49333 4.26667 16 4.26667C22.5067 4.26667 27.7333 9.49333 27.7333 16C27.7333 22.5067 22.5067 27.7333 16 27.7333ZM23.2533 12.0533C23.2533 13.8667 21.76 15.36 19.9467 15.36C18.1333 15.36 16.64 13.8667 16.64 12.0533C16.64 10.24 18.1333 8.74667 19.9467 8.74667C21.76 8.74667 23.2533 10.24 23.2533 12.0533ZM23.2533 19.9467C23.2533 21.76 21.76 23.2533 19.9467 23.2533C18.1333 23.2533 16.64 21.76 16.64 19.9467C16.64 18.1333 18.1333 16.64 19.9467 16.64C21.76 16.64 23.2533 18.1333 23.2533 19.9467ZM15.36 19.9467C15.36 21.76 13.8667 23.2533 12.0533 23.2533C10.24 23.2533 8.74667 21.76 8.74667 19.9467C8.74667 18.1333 10.24 16.64 12.0533 16.64C13.8667 16.64 15.36 18.1333 15.36 19.9467ZM15.36 12.0533C15.36 13.8667 13.8667 15.36 12.0533 15.36C10.24 15.36 8.74667 13.8667 8.74667 12.0533C8.74667 10.24 10.24 8.74667 12.0533 8.74667C13.8667 8.74667 15.36 10.24 15.36 12.0533Z"/></svg>