<svg fill="none" height="32" viewBox="0 0 32 32" width="32" xmlns="http://www.w3.org/2000/svg"><g stroke="#394762" stroke-linecap="round" stroke-linejoin="round" stroke-width="1.7"><path d="m1 31h30"/><path d="m8 23h-4c-.26522 0-.51957.1054-.70711.2929-.18753.1875-.29289.4419-.29289.7071v7h6v-7c0-.2652-.10536-.5196-.29289-.7071-.18754-.1875-.44189-.2929-.70711-.2929z"/><path d="m18 13h-4c-.2652 0-.5196.1054-.7071.2929s-.2929.4419-.2929.7071v17h6v-17c0-.2652-.1054-.5196-.2929-.7071s-.4419-.2929-.7071-.2929z"/><path d="m28 19h-4c-.2652 0-.5196.1054-.7071.2929s-.2929.4419-.2929.7071v11h6v-11c0-.2652-.1054-.5196-.2929-.7071s-.4419-.2929-.7071-.2929z"/><path d="m1 14c0 .5304.21071 1.0391.58579 1.4142.37507.3751.88378.5858 1.41421.5858s1.03914-.2107 1.41421-.5858c.37508-.3751.58579-.8838.58579-1.4142s-.21071-1.0391-.58579-1.4142c-.37507-.3751-.88378-.5858-1.41421-.5858s-1.03914.2107-1.41421.5858c-.37508.3751-.58579.8838-.58579 1.4142z"/><path d="m10 3c0 .53043.2107 1.03914.5858 1.41421.3751.37508.8838.58579 1.4142.58579s1.0391-.21071 1.4142-.58579c.3751-.37507.5858-.88378.5858-1.41421s-.2107-1.03914-.5858-1.41421c-.3751-.37508-.8838-.58579-1.4142-.58579s-1.0391.21071-1.4142.58579c-.3751.37507-.5858.88378-.5858 1.41421z"/><path d="m27 8c0 .53043.2107 1.03914.5858 1.41421.3751.37508.8838.58579 1.4142.58579s1.0391-.21071 1.4142-.58579c.3751-.37507.5858-.88378.5858-1.41421s-.2107-1.03914-.5858-1.41421c-.3751-.37508-.8838-.58579-1.4142-.58579s-1.0391.21071-1.4142.58579c-.3751.37507-.5858.88378-.5858 1.41421z"/><path d="m4.26672 12.452 6.46668-7.90403"/><path d="m27.0814 7.43463-13.1627-3.87067"/></g></svg>