<svg fill="none" height="16" viewBox="0 0 16 16" width="16" xmlns="http://www.w3.org/2000/svg"><path clip-rule="evenodd" d="m10.1106 5.34682c-1.45572 1.48142-5.81931 5.92198-4.36355 4.44051.04791-.04875-2.42872-3.0941-2.59825-3.26662-.33169-.34129-.83292-.54757-1.30465-.54757-.45332 0-.991393.20253-1.304657.54757-.320635.35629-.5601903.82509-.53807756 1.32765.02211276.49881.18795856.96761.53807756 1.32765 1.230947 1.25639 2.461887 2.50899 3.689147 3.76539.16953.1726.34275.3488.51228.5214.70392.7163 1.9017.7163 2.60562 0 .91768-.9339 1.83167-1.864 2.74936-2.7979 1.4557-1.48139 2.9078-2.95906 4.3636-4.44048.3354-.34129.667-.67882 1.0024-1.02011s.5381-.84385.5381-1.32766c0-.4613-.199-1.00886-.5381-1.32765-.3501-.32628-.8108-.57006-1.3046-.54756-.4865.01875-.9472.18752-1.2973.54756-.9177.93386-1.8317 1.86397-2.7494 2.79782z" fill="#394762" fill-rule="evenodd"/></svg>