<svg fill="none" height="32" viewBox="0 0 32 32" width="32" xmlns="http://www.w3.org/2000/svg"><g stroke="#394762" stroke-linecap="round" stroke-linejoin="round" stroke-width="1.7"><path d="m15.0347 21.5786c-.0001.3344.0208.6683.0626 1-.0418-.3317-.0627-.6656-.0626-1 .0025-.5023.053-1.0032.1506-1.496"/><path d="m23.0347 29.5786c1.5186.0018 3.0064-.4287 4.2894-1.2411s2.3083-1.9733 2.956-3.3469.8911-2.9031.7016-4.4099c-.1894-1.5068-.8038-2.9285-1.7713-4.099-.9676-1.1705-2.2483-2.0415-3.6925-2.511-1.4442-.4696-2.9922-.5184-4.4632-.1408-1.4709.3777-2.8039 1.1662-3.8433 2.2734-1.0393 1.1073-1.7421 2.4875-2.0261 3.9793-.6764-.3243-1.4171-.492-2.1673-.4906-.7501.0013-1.4902.1716-2.1655.4982s-1.26826.8012-1.73495 1.3884c-.46669.5873-.79507 1.2721-.96076 2.0037s-.16443 1.4911.00369 2.2221c.16812.7311.49879 1.4148.96742 2.0005.46864.5857 1.0632 1.0583 1.7396 1.3827.6763.3244 1.417.4922 2.1672.491z"/><path d="m8.03467 11.5786c-.00005.3344.02088.6683.06266 1-.04178-.3317-.06271-.6656-.06266-1 .00258-.5023.05303-1.0032.15066-1.496"/><path d="m23.78 9.56796c-.4575-1.75751-1.4994-3.30706-2.9543-4.39391-1.455-1.08685-3.2364-1.64633-5.0515-1.58645-1.8151.05989-3.5558.73556-4.936 1.91595-1.38013 1.18039-2.31759 2.79524-2.65825 4.57905-.6764-.32423-1.41716-.49193-2.16727-.49062s-1.49029.1716-2.16555.49822c-.67527.3266-1.26826.8012-1.73495 1.3885-.46669.5872-.79508 1.2721-.96077 2.0036-.165685.7316-.164422 1.4911.0037 2.2222.16812.731.49878 1.4147.96742 2.0004s1.06322 1.0583 1.73956 1.3827c.67635.3244 1.41709.4922 2.1672.491"/></g></svg>