<svg fill="none" height="24" viewBox="0 0 24 24" width="24" xmlns="http://www.w3.org/2000/svg"><g clip-rule="evenodd" fill="#394762" fill-rule="evenodd"><path d="m16.5214 6.03249c.4784-.47838 1.2539-.47838 1.7323 0l5.3875 5.38751c.4784.4784.4784 1.254 0 1.7324l-5.3875 5.3875c-.4784.4784-1.2539.4784-1.7323 0s-.4784-1.254 0-1.7324l4.5213-4.5213-4.5213-4.52137c-.4784-.47837-.4784-1.25397 0-1.73234z"/><path d="m7.47865 6.03249c.47837.47837.47837 1.25397 0 1.73234l-4.52135 4.52137 4.52135 4.5213c.47837.4784.47837 1.254 0 1.7324-.47838.4784-1.25397.4784-1.73235 0l-5.38752-5.3875c-.478373-.4784-.478373-1.254 0-1.7324l5.38752-5.38751c.47838-.47838 1.25397-.47838 1.73235 0z"/><path d="m13.6126 5.02943c.6604.14676 1.0768.8011.93 1.46151l-2.6937 12.12196c-.1468.6604-.8011 1.0768-1.4616.93-.66037-.1467-1.07677-.8011-.93001-1.4615l2.69381-12.12191c.1467-.66042.8011-1.07682 1.4615-.93006z"/></g></svg>
