<svg fill="none" height="32" viewBox="0 0 32 32" width="32" xmlns="http://www.w3.org/2000/svg"><g stroke="#394762" stroke-linecap="round" stroke-linejoin="round" stroke-width="1.7"><path d="m29 29.0146c0 .5305-.2107 1.0392-.5858 1.4143-.3751.375-.8838.5857-1.4142.5857h-22c-.53043 0-1.03914-.2107-1.41421-.5857-.37508-.3751-.58579-.8838-.58579-1.4143v-25.99995c0-.53043.21071-1.03914.58579-1.41422.37507-.37507.88378-.58578 1.41421-.58578h14.172c.5301.00011 1.0384.21064 1.4133.58533l7.8294 7.82934c.3747.37493.5852.88328.5853 1.41328z"/><path d="m29 11.0146h-8c-.5304 0-1.0391-.2107-1.4142-.5857-.3751-.3751-.5858-.88382-.5858-1.41425v-8"/><path d="m12.892 12.8253-2.8427 3.7894c-.08597.1145-.19556.2092-.32133.2777s-.26479.1091-.40764.1193c-.14285.0101-.28621-.0106-.42038-.0607s-.25601-.1284-.35728-.2297l-1.54267-1.5413"/><path d="m12.892 21.8253-2.8427 3.7894c-.08597.1145-.19556.2092-.32133.2777s-.26479.1091-.40764.1193c-.14285.0101-.28621-.0106-.42038-.0607s-.25601-.1284-.35728-.2297l-1.54267-1.5426"/><path d="m17 17.0146h6"/><path d="m17 25.0146h6"/></g></svg>