<svg fill="none" height="24" viewBox="0 0 24 24" width="24" xmlns="http://www.w3.org/2000/svg"><path clip-rule="evenodd" d="m6.79001.75758c-2.32115.98647-4.15535 2.8546-5.09912 5.19344-.943764 2.33884-.919775 4.95678.06669 7.27798.98647 2.3211 2.8546 4.1553 5.19344 5.0991 2.33883.9437 4.95678.9198 7.27798-.0667.7382-.3137 1.4271-.7166 2.0538-1.1955l5.5654 5.5661c.4922.4923 1.2903.4924 1.7826.0002.4922-.4922.4923-1.2903.0001-1.7826l-5.5654-5.5662c.514-.6727.9402-1.4166 1.2626-2.2154.9437-2.3389.9198-4.95683-.0667-7.27798s-2.8546-4.15536-5.1934-5.099129c-2.3389-.943765-4.95684-.919776-7.27799.066689zm8.68579 13.66882c.6464-.653 1.164-1.4332 1.5145-2.3018.6936-1.7188.676-3.64274-.049-5.34857-.725-1.70582-2.0979-3.05379-3.8167-3.74736-1.7188-.69358-3.64275-.67595-5.34857.04901-1.70582.72495-3.05379 2.09785-3.74737 3.81667-.69357 1.71882-.67594 3.64275.04902 5.34855.72495 1.7059 2.09785 3.0538 3.81667 3.7474s3.64275.676 5.34855-.049c.8218-.3493 1.5606-.8489 2.1831-1.4652.0081-.0085.0163-.0169.0246-.0252s.0167-.0165.0252-.0245z" fill="#394762" fill-rule="evenodd"/></svg>