<svg fill="none" height="32" viewBox="0 0 32 32" width="32" xmlns="http://www.w3.org/2000/svg"><g stroke="#394762" stroke-linecap="round" stroke-linejoin="round" stroke-width="1.7"><path d="m1 29h30"/><path d="m8 15h-4c-.26522 0-.51957.1054-.70711.2929-.18753.1875-.29289.4419-.29289.7071v13h6v-13c0-.2652-.10536-.5196-.29289-.7071-.18754-.1875-.44189-.2929-.70711-.2929z"/><path d="m18 3h-4c-.2652 0-.5196.10536-.7071.29289-.1875.18754-.2929.44189-.2929.70711v25h6v-25c0-.26522-.1054-.51957-.2929-.70711-.1875-.18753-.4419-.29289-.7071-.29289z"/><path d="m28 9h-4c-.2652 0-.5196.10536-.7071.29289-.1875.18754-.2929.44189-.2929.70711v19h6v-19c0-.26522-.1054-.51957-.2929-.70711-.1875-.18753-.4419-.29289-.7071-.29289z"/></g></svg>