<svg fill="none" height="32" viewBox="0 0 32 32" width="32" xmlns="http://www.w3.org/2000/svg"><g stroke="#394762" stroke-linecap="round" stroke-linejoin="round" stroke-width="1.7"><path d="m1 1h30v30h-30z"/><path d="m7 23 4.616-6.1546c.1719-.2294.3911-.4191.6427-.5563.2516-.1373.5298-.2188.8156-.2392.2859-.0203.5728.021.8414.1212.2685.1002.5123.2569.715.4596l1.3693 1.3693 4.4-5.8666c.1863-.2484.4279-.45.7056-.5889.2777-.1388.5839-.2111.8944-.2111s.6167.0723.8944.2111c.2777.1389.5193.3405.7056.5889l3.56 4.7466"/><path d="m6 8.5c0 .66304.26339 1.29893.73223 1.7678.46884.4688 1.10473.7322 1.76777.7322s1.29893-.2634 1.7678-.7322c.4688-.46887.7322-1.10476.7322-1.7678s-.2634-1.29893-.7322-1.76777c-.46887-.46884-1.10476-.73223-1.7678-.73223s-1.29893.26339-1.76777.73223-.73223 1.10473-.73223 1.76777z"/><path d="m1 23h30"/></g></svg>