<svg width="142" height="27" viewBox="0 0 142 27" fill="none" xmlns="http://www.w3.org/2000/svg">
<path d="M41.14 10V0.808H41.152L45.628 7.156L50.212 0.808H50.236V10H48.496V5.788L45.616 9.88H45.592L42.82 6.052V10H41.14ZM51.7629 10L55.7469 0.819999H55.8429L59.8269 10H57.8109L57.1269 8.272H54.1989L53.4789 10H51.7629ZM54.8109 6.808H56.5509L55.6989 4.66L54.8109 6.808ZM60.0395 1.168H65.9915V2.848H63.8435V10H62.1035V2.848H60.0395V1.168ZM74.2301 9.268C74.1341 9.348 73.9541 9.456 73.6901 9.592C73.4341 9.728 73.1181 9.848 72.7421 9.952C72.3661 10.056 71.9501 10.104 71.4941 10.096C70.7981 10.08 70.1741 9.956 69.6221 9.724C69.0781 9.484 68.6141 9.16 68.2301 8.752C67.8541 8.344 67.5661 7.876 67.3661 7.348C67.1661 6.82 67.0661 6.256 67.0661 5.656C67.0661 4.76 67.2461 3.968 67.6061 3.28C67.9661 2.592 68.4661 2.052 69.1061 1.66C69.7541 1.268 70.5061 1.072 71.3621 1.072C71.9541 1.072 72.4781 1.152 72.9341 1.312C73.3901 1.472 73.7621 1.644 74.0501 1.828L73.3661 3.472C73.1661 3.32 72.8981 3.164 72.5621 3.004C72.2341 2.836 71.8541 2.752 71.4221 2.752C70.9741 2.752 70.5541 2.876 70.1621 3.124C69.7781 3.372 69.4661 3.708 69.2261 4.132C68.9941 4.548 68.8781 5.024 68.8781 5.56C68.8781 6.128 68.9861 6.628 69.2021 7.06C69.4181 7.484 69.7261 7.816 70.1261 8.056C70.5261 8.296 70.9941 8.416 71.5301 8.416C72.0021 8.416 72.4061 8.34 72.7421 8.188C73.0781 8.036 73.3341 7.876 73.5101 7.708L74.2301 9.268ZM83.6413 1.168V10H81.9013V6.412H77.9533V10H76.2133V1.168H77.9533V4.732H81.9013V1.168H83.6413ZM41.14 26V17.168H43.78C44.668 17.168 45.424 17.3 46.048 17.564C46.672 17.828 47.172 18.18 47.548 18.62C47.932 19.06 48.212 19.552 48.388 20.096C48.564 20.64 48.652 21.188 48.652 21.74C48.652 22.396 48.532 22.988 48.292 23.516C48.06 24.036 47.74 24.484 47.332 24.86C46.924 25.228 46.452 25.512 45.916 25.712C45.38 25.904 44.812 26 44.212 26H41.14ZM42.88 24.32H43.912C44.792 24.32 45.5 24.092 46.036 23.636C46.58 23.18 46.852 22.508 46.852 21.62C46.852 21.044 46.756 20.576 46.564 20.216C46.38 19.848 46.148 19.564 45.868 19.364C45.596 19.164 45.316 19.028 45.028 18.956C44.74 18.876 44.496 18.836 44.296 18.836H42.88V24.32ZM50.6378 17.168H56.6618V18.848H52.3778V20.732H56.1698V22.412H52.3778V24.32H56.8298V26H50.6378V17.168ZM63.586 19.304C63.25 19.12 62.906 18.968 62.554 18.848C62.21 18.728 61.886 18.668 61.582 18.668C61.206 18.668 60.91 18.744 60.694 18.896C60.478 19.048 60.37 19.276 60.37 19.58C60.37 19.788 60.45 19.976 60.61 20.144C60.778 20.304 60.99 20.448 61.246 20.576C61.51 20.704 61.782 20.82 62.062 20.924C62.406 21.052 62.738 21.216 63.058 21.416C63.378 21.608 63.642 21.876 63.85 22.22C64.058 22.556 64.162 23.004 64.162 23.564C64.162 24.012 64.046 24.428 63.814 24.812C63.582 25.196 63.242 25.508 62.794 25.748C62.346 25.98 61.794 26.096 61.138 26.096C60.634 26.096 60.118 26.02 59.59 25.868C59.07 25.716 58.578 25.476 58.114 25.148L58.882 23.792C59.186 24.016 59.534 24.2 59.926 24.344C60.318 24.488 60.67 24.56 60.982 24.56C61.19 24.56 61.398 24.532 61.606 24.476C61.822 24.412 61.998 24.308 62.134 24.164C62.278 24.02 62.35 23.82 62.35 23.564C62.35 23.3 62.222 23.072 61.966 22.88C61.718 22.68 61.418 22.512 61.066 22.376C60.794 22.272 60.514 22.152 60.226 22.016C59.938 21.88 59.666 21.716 59.41 21.524C59.162 21.324 58.958 21.08 58.798 20.792C58.646 20.496 58.57 20.136 58.57 19.712C58.57 19.2 58.682 18.756 58.906 18.38C59.138 18.004 59.462 17.708 59.878 17.492C60.294 17.268 60.774 17.144 61.318 17.12C62.03 17.12 62.606 17.204 63.046 17.372C63.494 17.54 63.894 17.74 64.246 17.972L63.586 19.304ZM66.1061 17.168H67.8461V26H66.1061V17.168ZM77.5296 25.112C77.4256 25.224 77.2616 25.34 77.0376 25.46C76.8136 25.572 76.5536 25.676 76.2576 25.772C75.9696 25.868 75.6736 25.944 75.3696 26C75.0656 26.064 74.7776 26.096 74.5056 26.096C73.5536 26.096 72.7256 25.912 72.0216 25.544C71.3176 25.176 70.7736 24.672 70.3896 24.032C70.0136 23.392 69.8256 22.66 69.8256 21.836C69.8256 21.028 69.9456 20.328 70.1856 19.736C70.4336 19.136 70.7656 18.64 71.1816 18.248C71.6056 17.848 72.0896 17.552 72.6336 17.36C73.1856 17.168 73.7616 17.072 74.3616 17.072C74.9296 17.072 75.4496 17.136 75.9216 17.264C76.3936 17.384 76.7936 17.536 77.1216 17.72L76.5576 19.34C76.4136 19.26 76.2216 19.18 75.9816 19.1C75.7416 19.02 75.4976 18.956 75.2496 18.908C75.0016 18.852 74.7816 18.824 74.5896 18.824C73.6376 18.824 72.9056 19.064 72.3936 19.544C71.8816 20.016 71.6256 20.728 71.6256 21.68C71.6256 22.232 71.7496 22.708 71.9976 23.108C72.2456 23.508 72.5896 23.816 73.0296 24.032C73.4776 24.248 73.9856 24.356 74.5536 24.356C74.8016 24.356 75.0296 24.34 75.2376 24.308C75.4456 24.268 75.6216 24.208 75.7656 24.128V23.06H74.2416V21.38H77.5296V25.112ZM87.6543 26.36L81.4743 20.78L81.5103 26H79.7463V16.82H79.8183L85.9863 22.484L85.9503 17.168H87.7023V26.36H87.6543ZM99.0751 19.304C98.7391 19.12 98.3951 18.968 98.0431 18.848C97.6991 18.728 97.3751 18.668 97.0711 18.668C96.6951 18.668 96.3991 18.744 96.1831 18.896C95.9671 19.048 95.8591 19.276 95.8591 19.58C95.8591 19.788 95.9391 19.976 96.0991 20.144C96.2671 20.304 96.4791 20.448 96.7351 20.576C96.9991 20.704 97.2711 20.82 97.5511 20.924C97.8951 21.052 98.2271 21.216 98.5471 21.416C98.8671 21.608 99.1311 21.876 99.3391 22.22C99.5471 22.556 99.6511 23.004 99.6511 23.564C99.6511 24.012 99.5351 24.428 99.3031 24.812C99.0711 25.196 98.7311 25.508 98.2831 25.748C97.8351 25.98 97.2831 26.096 96.6271 26.096C96.1231 26.096 95.6071 26.02 95.0791 25.868C94.5591 25.716 94.0671 25.476 93.6031 25.148L94.3711 23.792C94.6751 24.016 95.0231 24.2 95.4151 24.344C95.8071 24.488 96.1591 24.56 96.4711 24.56C96.6791 24.56 96.8871 24.532 97.0951 24.476C97.3111 24.412 97.4871 24.308 97.6231 24.164C97.7671 24.02 97.8391 23.82 97.8391 23.564C97.8391 23.3 97.7111 23.072 97.4551 22.88C97.2071 22.68 96.9071 22.512 96.5551 22.376C96.2831 22.272 96.0031 22.152 95.7151 22.016C95.4271 21.88 95.1551 21.716 94.8991 21.524C94.6511 21.324 94.4471 21.08 94.2871 20.792C94.1351 20.496 94.0591 20.136 94.0591 19.712C94.0591 19.2 94.1711 18.756 94.3951 18.38C94.6271 18.004 94.9511 17.708 95.3671 17.492C95.7831 17.268 96.2631 17.144 96.8071 17.12C97.5191 17.12 98.0951 17.204 98.5351 17.372C98.9831 17.54 99.3831 17.74 99.7351 17.972L99.0751 19.304ZM103.887 23.252L100.635 17.168H102.783L104.811 21.248L106.791 17.168H108.939L105.627 23.252V26H103.887V23.252ZM114.789 19.304C114.453 19.12 114.109 18.968 113.757 18.848C113.413 18.728 113.089 18.668 112.785 18.668C112.409 18.668 112.113 18.744 111.897 18.896C111.681 19.048 111.573 19.276 111.573 19.58C111.573 19.788 111.653 19.976 111.813 20.144C111.981 20.304 112.193 20.448 112.449 20.576C112.713 20.704 112.985 20.82 113.265 20.924C113.609 21.052 113.941 21.216 114.261 21.416C114.581 21.608 114.845 21.876 115.053 22.22C115.261 22.556 115.365 23.004 115.365 23.564C115.365 24.012 115.249 24.428 115.017 24.812C114.785 25.196 114.445 25.508 113.997 25.748C113.549 25.98 112.997 26.096 112.341 26.096C111.837 26.096 111.321 26.02 110.793 25.868C110.273 25.716 109.781 25.476 109.317 25.148L110.085 23.792C110.389 24.016 110.737 24.2 111.129 24.344C111.521 24.488 111.873 24.56 112.185 24.56C112.393 24.56 112.601 24.532 112.809 24.476C113.025 24.412 113.201 24.308 113.337 24.164C113.481 24.02 113.553 23.82 113.553 23.564C113.553 23.3 113.425 23.072 113.169 22.88C112.921 22.68 112.621 22.512 112.269 22.376C111.997 22.272 111.717 22.152 111.429 22.016C111.141 21.88 110.869 21.716 110.613 21.524C110.365 21.324 110.161 21.08 110.001 20.792C109.849 20.496 109.773 20.136 109.773 19.712C109.773 19.2 109.885 18.756 110.109 18.38C110.341 18.004 110.665 17.708 111.081 17.492C111.497 17.268 111.977 17.144 112.521 17.12C113.233 17.12 113.809 17.204 114.249 17.372C114.697 17.54 115.097 17.74 115.449 17.972L114.789 19.304ZM116.71 17.168H122.662V18.848H120.514V26H118.774V18.848H116.71V17.168ZM124.581 17.168H130.605V18.848H126.321V20.732H130.113V22.412H126.321V24.32H130.773V26H124.581V17.168ZM132.813 26V16.808H132.825L137.301 23.156L141.885 16.808H141.909V26H140.169V21.788L137.289 25.88H137.265L134.493 22.052V26H132.813Z" fill="#121C2D"/>
<circle cx="12" cy="15" r="12" fill="#121C2D"/>
</svg>
