<svg width="16" height="16" viewBox="0 0 16 16" fill="none" xmlns="http://www.w3.org/2000/svg">
<path d="M7.99998 15.9993C5.95035 15.9993 3.90072 15.2194 2.34025 13.6595C-0.780085 10.5392 -0.780085 5.46098 2.34025 2.34002C5.46059 -0.779694 10.5394 -0.780319 13.6597 2.34002C16.7801 5.46098 16.7801 10.5385 13.6597 13.6595C12.0992 15.2194 10.049 15.9993 7.99998 15.9993ZM3.2169 3.21666C0.580159 5.85402 0.580159 10.1455 3.2169 12.7829C5.85488 15.4196 10.1463 15.4202 12.7831 12.7829C15.4199 10.1455 15.4198 5.85402 12.7831 3.21666C10.1451 0.579925 5.85426 0.579925 3.2169 3.21666Z" fill="#AD1111"/>
<path fill-rule="evenodd" clip-rule="evenodd" d="M8.00012 15.3843C12.0783 15.3843 15.3843 12.0783 15.3843 8.00018C15.3843 3.92203 12.0783 0.616039 8.00012 0.616039C3.92197 0.616039 0.615978 3.92203 0.615978 8.00018C0.615978 12.0783 3.92197 15.3843 8.00012 15.3843ZM5.8474 10.7711C5.68868 10.7711 5.52999 10.7103 5.40908 10.5894C5.16667 10.347 5.16667 9.95516 5.40908 9.71275L7.16206 7.95978L5.40847 6.20619C5.16606 5.96378 5.16606 5.57196 5.40847 5.32955C5.65088 5.08714 6.0427 5.08714 6.28511 5.32955L8.0387 7.08314L9.79228 5.32955C10.0347 5.08714 10.4265 5.08714 10.6689 5.32955C10.9113 5.57196 10.9113 5.96378 10.6689 6.20619L8.91534 7.95978L10.6683 9.71275C10.9107 9.95516 10.9107 10.347 10.6683 10.5894C10.5474 10.7103 10.3887 10.7711 10.23 10.7711C10.0713 10.7711 9.91258 10.7103 9.79167 10.5894L8.0387 8.83642L6.28572 10.5894C6.16419 10.7103 6.00609 10.7711 5.8474 10.7711Z" fill="#AD1111"/>
</svg>
