<svg xmlns="http://www.w3.org/2000/svg" width="16" height="17" fill="none" viewBox="0 0 16 17"><g clip-path="url(#clip0)"><path fill="#0B602D" fill-rule="evenodd" d="M8 16.4527C12.4183 16.4527 16 12.9048 16 8.52817C16 4.15157 12.4183 0.603638 8 0.603638C3.58172 0.603638 0 4.15157 0 8.52817C0 12.9048 3.58172 16.4527 8 16.4527ZM9.08196 7.95857C8.57561 8.46899 7.05784 9.99894 7.56419 9.48853C7.58086 9.47173 6.71942 8.42247 6.66045 8.36303C6.54508 8.24544 6.37074 8.17437 6.20666 8.17437C6.04899 8.17437 5.86183 8.24415 5.75287 8.36303C5.64134 8.48579 5.55802 8.64731 5.56571 8.82046C5.5734 8.99232 5.63109 9.15385 5.75287 9.2779C6.18102 9.71078 6.60918 10.1424 7.03605 10.5753C7.09502 10.6347 7.15526 10.6954 7.21423 10.7549C7.45907 11.0017 7.87569 11.0017 8.12053 10.7549C8.43973 10.4331 8.75764 10.1127 9.07683 9.7909C9.58318 9.28048 10.0883 8.77136 10.5946 8.26094C10.7113 8.14336 10.8266 8.02706 10.9433 7.90947C11.0599 7.79188 11.1304 7.61873 11.1304 7.45203C11.1304 7.29309 11.0612 7.10443 10.9433 6.9946C10.8215 6.88218 10.6613 6.79819 10.4895 6.80594C10.3203 6.8124 10.16 6.87055 10.0383 6.9946C9.71906 7.31635 9.40115 7.63682 9.08196 7.95857Z" clip-rule="evenodd"/></g><defs><clipPath id="clip0"><rect width="16" height="15.849" fill="#fff" transform="translate(0 0.603638)"/></clipPath></defs></svg>