<svg xmlns="http://www.w3.org/2000/svg" width="16" height="17" fill="none" viewBox="0 0 16 17"><path stroke="#0263E0" d="M4.88889 2.82935C4.88889 1.93445 5.58533 1.20898 6.44444 1.20898C7.30355 1.20898 8 1.93445 8 2.82935V4.44973H11.8889V8.50065H13.4444C14.3036 8.50065 15 9.22612 15 10.121C15 11.0159 14.3036 11.7414 13.4444 11.7414H11.8889V15.7923H8V14.1719C8 13.277 7.30355 12.5516 6.44444 12.5516C5.58533 12.5516 4.88889 13.277 4.88889 14.1719V15.7923H1V11.7414H2.55556C3.41466 11.7414 4.11111 11.0159 4.11111 10.121C4.11111 9.22612 3.41467 8.50065 2.55556 8.50065H1V4.44973H4.88889V2.82935Z"/></svg>