<svg width="16" height="17" viewBox="0 0 16 17" fill="none" xmlns="http://www.w3.org/2000/svg">
<path d="M4.71094 9.95898C5.25159 11.2399 6.59187 12.1456 7.99989 12.1456C9.40192 12.1456 10.7396 11.2376 11.2849 9.96218" stroke="#D61F1F" stroke-linecap="round"/>
<path d="M6.1002 6.31266C6.1002 6.45866 5.99161 6.54183 5.9002 6.54183C5.80878 6.54183 5.7002 6.45866 5.7002 6.31266C5.7002 6.16666 5.80878 6.0835 5.9002 6.0835C5.99161 6.0835 6.1002 6.16666 6.1002 6.31266Z" fill="#D61F1F" stroke="#D61F1F"/>
<path d="M10.2999 6.31266C10.2999 6.45866 10.1913 6.54183 10.0999 6.54183C10.0085 6.54183 9.8999 6.45866 9.8999 6.31266C9.8999 6.16666 10.0085 6.0835 10.0999 6.0835C10.1913 6.0835 10.2999 6.16666 10.2999 6.31266Z" fill="#D61F1F" stroke="#D61F1F"/>
<path fill-rule="evenodd" clip-rule="evenodd" d="M8 15.7918C11.866 15.7918 15 12.5272 15 8.50016C15 4.47309 11.866 1.2085 8 1.2085C4.13401 1.2085 1 4.47309 1 8.50016C1 12.5272 4.13401 15.7918 8 15.7918Z" stroke="#D61F1F"/>
</svg>
