<svg xmlns="http://www.w3.org/2000/svg" width="16" height="15" fill="none" viewBox="0 0 16 15"><path stroke="#121C2D" stroke-linecap="round" stroke-linejoin="round" stroke-width="1.25" d="M10.8713 0.891813C10.633 0.796479 10.3671 0.796479 10.1287 0.891813L5.87134 2.59515C5.63296 2.69048 5.36705 2.69048 5.12867 2.59515L1.18601 1.01781C1.10993 0.987325 1.02753 0.976003 0.946059 0.984845C0.864583 0.993686 0.786529 1.02242 0.718768 1.06852C0.651007 1.11461 0.595615 1.17666 0.557468 1.24919C0.519321 1.32173 0.499588 1.40253 0.500007 1.48448V11.0665C0.499973 11.2664 0.55985 11.4617 0.67191 11.6272C0.783969 11.7928 0.943068 11.9209 1.12867 11.9951L5.12867 13.5951C5.36705 13.6905 5.63296 13.6905 5.87134 13.5951L10.1287 11.8918C10.3671 11.7965 10.633 11.7965 10.8713 11.8918L14.814 13.4665C14.8901 13.497 14.9725 13.5083 15.054 13.4994C15.1354 13.4906 15.2135 13.4619 15.2812 13.4158C15.349 13.3697 15.4044 13.3076 15.4425 13.2351C15.4807 13.1626 15.5004 13.0818 15.5 12.9998V3.42048C15.5 3.22058 15.4402 3.02526 15.3281 2.85973C15.216 2.69419 15.0569 2.56604 14.8713 2.49181L10.8713 0.891813Z"/><path stroke="#121C2D" stroke-linecap="round" stroke-linejoin="round" stroke-width="1.25" d="M5.5 2.6665V13.6665"/><path stroke="#121C2D" stroke-linecap="round" stroke-linejoin="round" stroke-width="1.25" d="M10.5 0.820801V11.8208"/></svg>