<svg width="141" height="32" viewBox="0 0 141 32" fill="none" xmlns="http://www.w3.org/2000/svg">
<rect width="141" height="32" fill="white"/>
<path d="M16 0C7.14667 0 0 7.14667 0 16C0 24.8533 7.14667 32 16 32C24.8533 32 32 24.8533 32 16C32 7.14667 24.8533 0 16 0ZM16 27.7333C9.49333 27.7333 4.26667 22.5067 4.26667 16C4.26667 9.49333 9.49333 4.26667 16 4.26667C22.5067 4.26667 27.7333 9.49333 27.7333 16C27.7333 22.5067 22.5067 27.7333 16 27.7333ZM23.2533 12.0533C23.2533 13.8667 21.76 15.36 19.9467 15.36C18.1333 15.36 16.64 13.8667 16.64 12.0533C16.64 10.24 18.1333 8.74667 19.9467 8.74667C21.76 8.74667 23.2533 10.24 23.2533 12.0533ZM23.2533 19.9467C23.2533 21.76 21.76 23.2533 19.9467 23.2533C18.1333 23.2533 16.64 21.76 16.64 19.9467C16.64 18.1333 18.1333 16.64 19.9467 16.64C21.76 16.64 23.2533 18.1333 23.2533 19.9467ZM15.36 19.9467C15.36 21.76 13.8667 23.2533 12.0533 23.2533C10.24 23.2533 8.74667 21.76 8.74667 19.9467C8.74667 18.1333 10.24 16.64 12.0533 16.64C13.8667 16.64 15.36 18.1333 15.36 19.9467ZM15.36 12.0533C15.36 13.8667 13.8667 15.36 12.0533 15.36C10.24 15.36 8.74667 13.8667 8.74667 12.0533C8.74667 10.24 10.24 8.74667 12.0533 8.74667C13.8667 8.74667 15.36 10.24 15.36 12.0533V12.0533Z" fill="#121C2D"/>
<path d="M51.124 12L50.44 3.3H48.4L45.988 9.9L43.576 3.3H41.5L40.792 12H42.268L42.76 5.544L45.148 12.024H46.612L49 5.544L49.504 12H51.124ZM52.5177 12H54.1737L54.9897 9.768H58.5417L59.4297 12.084L61.0737 11.784L57.7017 3.264H55.9617L52.5177 12ZM56.7657 5.04L58.0497 8.424H55.4817L56.7657 5.04ZM68.2817 4.74L68.0417 3.3H61.0097V4.74H63.7817V12H65.4257V4.74H68.2817ZM76.0205 11.4L75.7925 9.96C75.0965 10.416 74.3165 10.728 73.4525 10.728C71.7725 10.728 70.7165 9.552 70.7165 7.656C70.7165 5.76 71.7365 4.572 73.4285 4.572C74.3165 4.572 75.0365 4.908 75.6485 5.352L75.8765 3.792C75.2045 3.384 74.4125 3.156 73.3805 3.156C70.7525 3.156 69.0485 4.968 69.0485 7.668C69.0485 10.38 70.7045 12.156 73.3205 12.156C74.3765 12.156 75.3125 11.844 76.0205 11.4ZM85.2182 12V3.3H83.5742V6.756H79.5542V3.3H77.9102V12H79.5542V8.22H83.5742V12H85.2182ZM48.676 23.644C48.676 21.076 47.032 19.3 43.876 19.3H41.044V28H43.876C46.96 28 48.676 26.224 48.676 23.644ZM46.996 23.656C46.996 25.708 45.808 26.644 43.852 26.644H42.676V20.668H43.864C45.736 20.668 46.996 21.64 46.996 23.656ZM55.999 28V26.608H52.279V24.184H55.279L55.051 22.804H52.279V20.704H55.867V19.3H50.659V28H55.999ZM63.2845 25.528C63.2845 24.184 62.6005 23.56 60.7405 22.828C59.4685 22.324 59.1565 22.048 59.1565 21.484C59.1565 20.956 59.5645 20.548 60.4645 20.548C61.1725 20.548 61.9285 20.812 62.5765 21.22L62.8165 19.744C62.1925 19.408 61.4845 19.204 60.4765 19.204C58.7965 19.204 57.5725 20.104 57.5725 21.628C57.5725 22.972 58.2805 23.524 60.0325 24.232C61.3645 24.76 61.7005 25.036 61.7005 25.696C61.7005 26.38 61.1125 26.764 60.2845 26.764C59.3725 26.764 58.4365 26.416 57.6925 25.984L57.4525 27.496C58.2205 27.856 59.1565 28.096 60.2485 28.096C61.9885 28.096 63.2845 27.208 63.2845 25.528ZM66.8706 28V19.3H65.2146V28H66.8706ZM76.5098 27.28V23.14H72.9098L73.1138 24.46H74.9978V26.416C74.5418 26.644 74.0738 26.776 73.4018 26.776C71.5298 26.776 70.5698 25.528 70.5698 23.656C70.5698 21.784 71.5058 20.548 73.3178 20.548C74.3378 20.548 75.1538 20.896 75.8378 21.364L76.0778 19.84C75.3578 19.42 74.4698 19.144 73.3058 19.144C70.5698 19.144 68.9018 20.968 68.9018 23.668C68.9018 26.344 70.4738 28.168 73.3418 28.168C74.5658 28.168 75.6578 27.82 76.5098 27.28ZM85.9853 28V19.3H84.4613V25.048L80.2373 19.3H78.6893V28H80.2133V21.964L84.6293 28H85.9853ZM97.0392 25.528C97.0392 24.184 96.3552 23.56 94.4952 22.828C93.2232 22.324 92.9112 22.048 92.9112 21.484C92.9112 20.956 93.3192 20.548 94.2192 20.548C94.9272 20.548 95.6832 20.812 96.3312 21.22L96.5712 19.744C95.9472 19.408 95.2392 19.204 94.2312 19.204C92.5512 19.204 91.3272 20.104 91.3272 21.628C91.3272 22.972 92.0352 23.524 93.7872 24.232C95.1192 24.76 95.4552 25.036 95.4552 25.696C95.4552 26.38 94.8672 26.764 94.0392 26.764C93.1272 26.764 92.1912 26.416 91.4472 25.984L91.2072 27.496C91.9752 27.856 92.9112 28.096 94.0032 28.096C95.7432 28.096 97.0392 27.208 97.0392 25.528ZM105.949 19.3H104.161L101.893 23.152L99.5415 19.216L97.8255 19.504L101.017 24.676V28H102.661V24.664L105.949 19.3ZM112.578 25.528C112.578 24.184 111.894 23.56 110.034 22.828C108.762 22.324 108.45 22.048 108.45 21.484C108.45 20.956 108.858 20.548 109.758 20.548C110.466 20.548 111.222 20.812 111.87 21.22L112.11 19.744C111.486 19.408 110.778 19.204 109.77 19.204C108.09 19.204 106.866 20.104 106.866 21.628C106.866 22.972 107.574 23.524 109.326 24.232C110.658 24.76 110.994 25.036 110.994 25.696C110.994 26.38 110.406 26.764 109.578 26.764C108.666 26.764 107.73 26.416 106.986 25.984L106.746 27.496C107.514 27.856 108.45 28.096 109.542 28.096C111.282 28.096 112.578 27.208 112.578 25.528ZM120.944 20.74L120.704 19.3H113.672V20.74H116.444V28H118.088V20.74H120.944ZM127.891 28V26.608H124.171V24.184H127.171L126.943 22.804H124.171V20.704H127.759V19.3H122.551V28H127.891ZM139.809 28L139.125 19.3H137.085L134.673 25.9L132.261 19.3H130.185L129.477 28H130.953L131.445 21.544L133.833 28.024H135.297L137.685 21.544L138.189 28H139.809Z" fill="black"/>
</svg>
