<svg width="16" height="17" viewBox="0 0 16 17" fill="none" xmlns="http://www.w3.org/2000/svg">
<rect x="1" y="1.20898" width="14" height="14.5833" stroke="#8C5BD8" stroke-linejoin="round"/>
<path d="M7.30029 4.85368H11.5003" stroke="#8C5BD8" stroke-linecap="round"/>
<path d="M7.30029 8.49967H11.5003" stroke="#8C5BD8" stroke-linecap="round"/>
<path d="M7.30029 12.1457H11.5003" stroke="#8C5BD8" stroke-linecap="round"/>
<path fill-rule="evenodd" clip-rule="evenodd" d="M4.4998 5.58285C4.8864 5.58285 5.19981 5.25639 5.19981 4.85368C5.19981 4.45097 4.8864 4.12451 4.4998 4.12451C4.11321 4.12451 3.7998 4.45097 3.7998 4.85368C3.7998 5.25639 4.11321 5.58285 4.4998 5.58285Z" fill="#8C5BD8"/>
<path fill-rule="evenodd" clip-rule="evenodd" d="M4.4998 9.22884C4.8864 9.22884 5.19981 8.90238 5.19981 8.49967C5.19981 8.09697 4.8864 7.77051 4.4998 7.77051C4.11321 7.77051 3.7998 8.09697 3.7998 8.49967C3.7998 8.90238 4.11321 9.22884 4.4998 9.22884Z" fill="#8C5BD8"/>
<path fill-rule="evenodd" clip-rule="evenodd" d="M4.4998 12.8748C4.8864 12.8748 5.19981 12.5484 5.19981 12.1457C5.19981 11.743 4.8864 11.4165 4.4998 11.4165C4.11321 11.4165 3.7998 11.743 3.7998 12.1457C3.7998 12.5484 4.11321 12.8748 4.4998 12.8748Z" fill="#8C5BD8"/>
</svg>
