<svg width="16" height="16" viewBox="0 0 16 16" fill="none" xmlns="http://www.w3.org/2000/svg">
<path d="M8 0C3.59385 0 0 3.59385 0 8C0 12.4062 3.59385 16 8 16C12.4062 16 16 12.4062 16 8C16 3.59385 12.4062 0 8 0ZM8 13.8831C4.75077 13.8831 2.11692 11.2492 2.11692 8C2.11692 4.75077 4.75077 2.11692 8 2.11692C11.2492 2.11692 13.8831 4.75077 13.8831 8C13.8831 11.2492 11.2492 13.8831 8 13.8831Z" fill="#F22F46"/>
<path d="M9.9939 7.68021C10.9183 7.68021 11.6677 6.93081 11.6677 6.00637C11.6677 5.08193 10.9183 4.33252 9.9939 4.33252C9.06946 4.33252 8.32005 5.08193 8.32005 6.00637C8.32005 6.93081 9.06946 7.68021 9.9939 7.68021Z" fill="#F22F46"/>
<path d="M9.9939 11.6675C10.9183 11.6675 11.6677 10.9181 11.6677 9.99367C11.6677 9.06923 10.9183 8.31982 9.9939 8.31982C9.06946 8.31982 8.32005 9.06923 8.32005 9.99367C8.32005 10.9181 9.06946 11.6675 9.9939 11.6675Z" fill="#F22F46"/>
<path d="M6.00614 11.6675C6.93058 11.6675 7.67998 10.9181 7.67998 9.99367C7.67998 9.06923 6.93058 8.31982 6.00614 8.31982C5.0817 8.31982 4.33229 9.06923 4.33229 9.99367C4.33229 10.9181 5.0817 11.6675 6.00614 11.6675Z" fill="#F22F46"/>
<path d="M6.00614 7.68021C6.93058 7.68021 7.67998 6.93081 7.67998 6.00637C7.67998 5.08193 6.93058 4.33252 6.00614 4.33252C5.0817 4.33252 4.33229 5.08193 4.33229 6.00637C4.33229 6.93081 5.0817 7.68021 6.00614 7.68021Z" fill="#F22F46"/>
</svg>
