<svg fill="none" height="44" viewBox="0 0 99 44" width="99" xmlns="http://www.w3.org/2000/svg"><path clip-rule="evenodd" d="m43.3456 16.8552c-.392 0-.7839.392-.7839 1.078.0643.6772.3787 1.3061.8819 1.7639.4311-.4486.6763-1.0438.686-1.6659.098-.784-.294-1.176-.784-1.176zm-23.6169-16.8552c2.4499.88196 3.8218 3.52784 4.6058 5.97773-4.1158 3.23385-7.7417 9.01557-6.3697 14.50337-2.3519-.588-4.0178-3.0379-4.6058-5.4878-.2853-1.2388-.2458-2.5302.1147-3.7492.3606-1.219 1.0299-2.32422 1.9432-3.20847 2.1559-2.1559 4.6058-4.80178 4.3118-8.03563zm9.7996 4.70379c-2.7439 3.13585-1.274 7.44761-2.9399 11.07351-.98 2.4499-2.4499 4.6058-5.0958 5.5857-.6719.196-1.3859.196-2.0579 0-1.1759-3.8218.294-8.2316 2.7439-11.36745 1.8694-2.45528 4.4282-4.29763 7.3497-5.29176zm9.7015 15.48331c.2479.034.4779.1482.6548.3251.1769.177.2911.4069.3252.6548 0 .2599-.1033.5092-.2871.693-.1837.1837-.433.287-.6929.287s-.5091-.1033-.6929-.287c-.1838-.1838-.287-.4331-.287-.693-.0087-.1309.0107-.2622.0569-.385s.1181-.2343.2109-.3271c.0927-.0928.2043-.1647.3271-.2109s.2541-.0656.385-.0569zm16.9532-3.4299c-.5879 0-.6859.98-.6859 3.0379v2.7439c0 1.8619.098 2.7439.6859 2.7439.588 0 .686-.98.686-3.0379v-2.7439c0-1.8619-.098-2.7439-.686-2.7439zm-6.5657 0c-.5879 0-.6859.98-.6859 3.0379v2.7439c0 1.8619.098 2.7439.6859 2.7439.588 0 .686-.98.686-3.0379v-3.0379c-.098-1.6659-.098-2.4499-.686-2.4499zm-6.5657 5.3898c-.4694.5424-.7146 1.2432-.6859 1.9599 0 .784.392 1.2739.9799 1.2739.588 0 .98-.4899.98-1.1759-.1823-.8093-.6309-1.5339-1.274-2.0579zm-5.6837-6.7617v9.7016h1.1759v1.6659h-4.5077v-1.6659h1.2739v-7.3497l-1.176.196v-1.274c.8077-.2518 1.5457-.6879 2.1559-1.2739zm18.8151-.098c1.862 0 2.8419 1.8619 2.8419 5.7817 0 3.9199-.9799 5.8798-2.7439 5.8798-1.7639 0-2.8418-1.9599-2.8418-5.8798 0-3.9198.9799-5.7817 2.7438-5.7817zm-6.5657 0c1.862 0 2.8419 1.8619 2.8419 5.7817 0 3.9199-.9799 5.8798-2.7439 5.8798-1.9599 0-2.8418-1.9599-2.8418-5.8798 0-3.9198.8819-5.7817 2.7438-5.7817zm-6.3697 0c.3337-.0299.67.0122.986.1234.3161.1112.6046.2889.8461.5211s.4304.5136.5538.825c.1235.3115.1788.6458.162.9804.0008.5326-.1229 1.058-.361 1.5344-.2382.4764-.5844.8905-1.0109 1.2095.476.418.8609.9295 1.1306 1.5028.2697.5732.4186 1.1958.4373 1.829.0444.393.0029.7909-.1214 1.1663s-.3286.7194-.5988 1.0082-.5998.5155-.9661.6646c-.3662.149-.7605.2169-1.1556.1988-.3727.0148-.7444-.0493-1.0906-.1882s-.6591-.3494-.9182-.6178c-.2591-.2683-.4586-.5885-.5852-.9393-.1267-.3509-.1778-.7246-.1498-1.0966.0031-.5916.1579-1.1725.4495-1.6872.2917-.5147.7105-.946 1.2164-1.2527-.8054-.8163-1.2921-1.8939-1.372-3.0378-.0112-.6977.2476-1.3728.7224-1.8841.4748-.5114 1.1289-.8194 1.8255-.8598zm18.6192 15.8753c-1.176 0-1.4699 1.5679-1.4699 2.9399v.5879h2.9398v-.098c0-2.1559-.294-3.4298-1.4699-3.4298zm-24.1069 0c-1.47 0-1.5679 2.1559-1.5679 5.0958 0 2.9398.1959 5.0957 1.5679 5.0957 1.1759 0 1.5679-1.4699 1.5679-5.0957 0-3.6259-.294-5.0958-1.5679-5.0958zm53.0156 7.9376c-.392 0-.49.588-.49 1.7639 0 1.176.098 1.764.49 1.764.3919 0 .4899-.49.4899-1.764 0-1.2739-.098-1.7639-.4899-1.7639zm6.4677-.9799c.5879 0 .7839.3919.7839.9799v4.3118h-1.1759v-4.0178c0-.196-.098-.392-.294-.392-.1474.0246-.2839.0929-.392.196v4.0178h-1.1759v-4.0178c0-.196-.098-.392-.294-.392-.0758.0015-.1503.0198-.2182.0537-.0678.0339-.1271.0826-.1738.1423v4.0178h-1.1759v-5.0957h1.1759v.49c.392-.392.686-.588.98-.588.1797-.0134.3581.0388.5023.1469.1441.1081.2442.2648.2816.4411.3826-.1326.7761-.2309 1.176-.294zm-65.657-14.5034v19.8931h-2.9399v-19.8931zm41.6481 4.9978v3.6258c-.294 0-.588-.098-.882-.098-.9799 0-2.1559.686-2.1559 2.6459v8.7216h-2.9399v-14.6013h2.8419v1.9599h.098c.588-1.4699 1.4699-2.3519 2.6459-2.3519.098.098.196.098.392.098zm-27.7328.294 1.372 10.2895 1.4699-10.2895h3.2339l1.5679 10.2895 1.4699-10.2895h2.7439l-2.5479 14.6013h-3.3318l-1.47-10.2895h-.098l-1.3719 10.2895h-3.5278l-2.4499-14.5033h2.9398zm41.5501 9.1136c.98 0 1.47.6859 1.47 1.8619v.196h-1.078v-.196c0-.588-.098-.882-.392-.882-.2939 0-.3919.49-.3919 1.47 0 1.4699.098 2.0579.3919 2.0579.294 0 .49-.392.49-.98v-.098l.98.098c0 1.4699-.588 2.1559-1.568 2.1559-.9799 0-1.6659-.8819-1.6659-2.6459.098-1.9599.686-3.0378 1.7639-3.0378zm3.7239 0c1.1759 0 1.7639.8819 1.7639 2.7438 0 1.862-.686 2.7439-1.7639 2.7439-1.078 0-1.764-.9799-1.764-2.7439 0-1.7639.588-2.7438 1.764-2.7438zm-63.2072-14.7974v2.6459h-.5879c-.784 0-1.078.294-1.078 1.176v1.8619h1.7639v2.5479h-1.7639v11.9554h-2.9398v-11.9554h-1.47v-2.5479h1.47v-2.2539c0-2.6459 1.1759-3.5279 3.0378-3.5279.5181.0846 1.0433.1174 1.5679.098zm56.0535 18.4232c.2599 0 .5092.1033.6929.287.1838.1838.287.4331.287.693-.0114.2567-.1159.5006-.2939.6859-.0864.0957-.1924.1715-.3108.2222-.1184.0508-.2464.0753-.3752.0718-.2568-.0114-.5006-.1159-.686-.294-.1035-.0797-.1849-.1845-.2364-.3046s-.0713-.2514-.0576-.3813c-.0034-.1288.0211-.2568.0718-.3753.0508-.1184.1266-.2244.2222-.3107.1854-.178.4292-.2825.686-.294zm-21.755-13.0334c3.4298 0 4.2138 2.9399 4.2138 7.3497v.7839h-5.7817v1.176c0 1.7639.3919 3.3318 1.4699 3.3318 1.0779 0 1.3719-.9799 1.5679-2.7438h2.6459c-.098 3.3318-1.3719 5.2917-4.1158 5.2917-4.3118 0-4.4098-4.1158-4.4098-7.7416-.098-3.8219.49-7.4477 4.4098-7.4477zm-19.5991 7.6437c0 4.9977-1.078 7.6436-4.5078 7.6436-3.4299 0-4.5078-2.6459-4.5078-7.6436 0-4.9978 1.0779-7.6437 4.5078-7.6437 3.4298 0 4.5078 2.6459 4.5078 7.6437zm-42.2361006-28.32076c.0979956-.19599.2939866-.19599.4899776-.098 4.605793 3.33186 7.643653 8.62366 10.485523 14.01336 1.476 2.7424 2.6585 5.633 3.5278 8.6236.8191-2.9788 1.9353-5.8679 3.3319-8.6236.0109-.0399.03-.0771.0563-.1091.0262-.0319.0589-.058.0959-.0765.0369-.0185.0774-.029.1188-.0308.0413-.0018.0825.0052.121.0204l.294.294c-.294 2.6459-1.274 5.1938-1.862 7.7416-.5074 1.8859-.7708 3.829-.7839 5.7818-.0808 2.2.0835 4.4021.49 6.5657-.0612.4572-.229.8936-.49 1.2739-.3004.2888-.6726.4918-1.078.588-.9799.196-1.8619-.686-2.0579-1.8619.686-6.5657-1.4699-12.7394-3.52782-18.6192-2.93987-5.0957-4.99777-10.9755-9.113585-14.79729-.0628836-.10135-.1040604-.21464-.12092781-.33271-.01686745-.11807-.00905885-.23836.02293221-.35326zm78.1024006 20.67706c2.6459 0 3.9199 1.4699 3.9199 4.1158v.588h-2.6459c0-1.4699-.392-2.1559-1.274-2.1559-.8819 0-1.3719.49-1.3719 1.5679.0035.3898.1279.7688.3561 1.0848s.5489.5533.9178.6791l1.764.784c1.8619.784 2.5478 1.9599 2.5478 4.1158 0 3.0379-1.7639 4.6058-4.3118 4.6058-3.3318 0-4.2138-1.8619-4.2138-4.6058v-.49l2.5479-.098v.49c0 1.274.49 2.1559 1.5679 2.1559.882 0 1.47-.588 1.47-1.7639.0227-.3566-.0698-.711-.2639-1.011-.1941-.2999-.4795-.5295-.8141-.6549l-2.0579-.98c-.7753-.3319-1.4279-.8973-1.867-1.6174s-.6428-1.5591-.5829-2.4004c.196-2.4499 1.372-4.4098 4.3118-4.4098z" fill="#1f304c" fill-rule="evenodd"/></svg>