<svg fill="none" height="36" viewBox="0 0 116 36" width="116" xmlns="http://www.w3.org/2000/svg" xmlns:xlink="http://www.w3.org/1999/xlink"><clipPath id="a"><path d="m0 0h115.8v36h-115.8z"/></clipPath><g clip-path="url(#a)"><path d="m56.9469 13.2991h3.4903v13.6h-3.4903zm-24.3115 11.0726c-.3009-.662-.6017-1.2637-.8425-1.8655l-.0601-.0602c-2.4673-5.4159-5.1752-10.892-8.0036-16.30795l-.1203-.24071c-.3009-.54159-.6018-1.14336-.8425-1.68495-.3611-.66195-.7221-1.3239-1.3239-1.98584-1.1434-1.44425-2.7681-2.22655-4.5734-2.22655-1.8054 0-3.4301.7823-4.6337 2.16637-.5416.66195-.9628 1.32389-1.3239 1.98584-.3008.60177-.6017 1.14336-.8424 1.68495l-.12039.24071c-2.76814 5.41593-5.47611 10.89203-8.00354 16.30793l-.06018.0602c-.24071.6018-.54159 1.2035-.84248 1.8655-.180526.4212-.361057.8425-.541588 1.3239-.4814158 1.3239-.60177 2.5876-.4212388 3.9115.4212388 2.7079 2.2265468 4.9947 4.6938068 6.0177.96283.4212 1.92566.6018 2.94867.6018.30088 0 .66195-.0602.96283-.0602 1.20354-.1204 2.40711-.5416 3.61061-1.2036 1.5044-.8424 2.8885-2.046 4.4531-3.7309 1.5646 1.7451 3.0089 2.9486 4.4531 3.7309 1.2035.662 2.4071 1.0832 3.6106 1.2036.3009.0602.662.0602.9629.0602 1.023 0 2.046-.1806 2.9486-.6018 2.5275-1.023 4.2726-3.3098 4.6938-6.0177.3009-1.2637.1204-2.5274-.3009-3.8513-.1203-.4815-.3008-.9629-.4814-1.3239zm-15.7663 3.1893c-1.9257-2.4672-3.1894-4.7539-3.6708-6.7398-.1806-.8425-.2407-1.5646-.1204-2.2265.0602-.6018.3009-1.0832.6018-1.5044.6619-.9629 1.8655-1.5646 3.1894-1.5646s2.5274.6017 3.1893 1.5646c.3009.4212.4815.9628.6018 1.5044.1204.6619.0602 1.384-.1203 2.2265-.4815 1.9257-1.7452 4.2124-3.6708 6.7398zm14.3823 1.685c-.2408 1.8655-1.5045 3.4903-3.3098 4.2124-.8425.3611-1.8053.4814-2.7681.3611-.9027-.1204-1.8053-.4213-2.7682-.9629-1.3239-.7221-2.5876-1.8655-4.092-3.4902 2.4071-2.9487 3.8513-5.5965 4.3929-8.0036.2407-1.1433.3009-2.1062.1806-3.069-.1204-.9027-.4815-1.7451-.9629-2.4673-1.1433-1.6247-3.0088-2.5876-5.115-2.5876s-3.9717.9629-5.1151 2.5876c-.4814.7222-.8424 1.5646-.9628 2.4673-.1203.9628-.1203 1.9858.1805 3.069.5416 2.4071 2.0461 5.1151 4.393 8.0036-1.5045 1.6849-2.8284 2.7681-4.0921 3.4902-.9628.5416-1.86546.8425-2.76812.9629-.96283.1203-1.92566-.0602-2.76814-.3611-1.74513-.7221-3.00885-2.3469-3.30973-4.2124-.12036-.9027-.06018-1.8053.30088-2.8283.12036-.3611.30089-.7221.48142-1.1434.24071-.6017.54159-1.2035.84248-1.8053l.06017-.0602c2.46726-5.3557 5.17522-10.892 7.94334-16.24774l.1204-.24071c.3009-.54159.6017-1.14336.8425-1.68496.3008-.60176.6017-1.14336 1.023-1.5646.7823-.84247 1.8053-1.26371 2.9486-1.26371 1.1434 0 2.1062.48141 2.8885 1.32389.4213.48142.7222 1.02301 1.023 1.5646.3009.54159.6018 1.14336.8425 1.68496l.1204.2407c2.7681 5.35577 5.4159 10.89207 7.8832 16.24777.3008.6018.5415 1.2036.8424 1.8053.1806.4213.3611.7823.4814 1.1434.3009.9628.4213 1.8655.2408 2.8283zm20.0991-15.4655v.6018s-1.1434-1.4443-3.4903-1.4443c-3.9115 0-7.0407 3.0089-7.0407 7.1611 0 4.092 3.0088 7.1611 7.0407 7.1611 2.4071 0 3.4903-1.5045 3.4903-1.5045v.6018c0 .3009.2407.4814.4814.4814h2.9487v-13.5398h-2.9487c-.2407 0-.4814.2407-.4814.4814zm0 8.7257c-.5416.7823-1.6248 1.5044-2.9487 1.5044-2.2867 0-4.092-1.4442-4.092-3.9115s1.7451-3.9115 4.092-3.9115c1.2637 0 2.4071.7221 2.9487 1.5044zm7.3416-15.76638c-1.3239 0-2.3469 1.02301-2.3469 2.3469 0 1.32388 1.023 2.34688 2.3469 2.34688s2.3469-1.023 2.3469-2.34688c0-1.26372-1.023-2.3469-2.3469-2.3469zm39.5964 7.52208c-1.023-.8424-2.2867-1.3239-3.7911-1.3239-1.3239 0-2.6478.4213-3.6708 1.4443v-.6018c0-.2407-.2407-.4814-.4815-.4814h-2.7681v13.6h3.4903v-9.508c.6619-.7823 1.7451-1.3239 2.8283-1.3239 1.9256 0 2.6478.9027 2.6478 3.1292v7.7027h3.4906v-8.0637c0-2.2867-.4818-3.6106-1.7455-4.5735zm10.5305-1.3239c-2.407 0-3.49 1.4443-3.49 1.4443v-7.64248h-3.49v20.15928h2.949c.301 0 .481-.2407.481-.4814v-.6018s1.143 1.5044 3.49 1.5044c3.912 0 7.041-3.0088 7.041-7.161 0-4.2124-3.129-7.2213-6.981-7.2213zm-.601 11.0124c-1.324 0-2.407-.6619-2.949-1.5044v-4.8142c.542-.7221 1.685-1.5044 2.949-1.5044 2.286 0 4.092 1.4443 4.092 3.9115 0 2.4673-1.806 3.9115-4.092 3.9115zm-29.0658-11.0124c-2.4071 0-3.4902 1.4443-3.4902 1.4443v-7.64248h-3.4903v20.15928h2.9487c.3009 0 .4814-.2407.4814-.4814v-.6018s1.1433 1.5044 3.4903 1.5044c3.9115 0 7.0407-3.0088 7.0407-7.161.0601-4.2124-3.0089-7.2213-6.9806-7.2213zm-.6017 11.0124c-1.3239 0-2.4071-.6619-2.9487-1.5044v-4.8142c.5416-.7221 1.6849-1.5044 2.9487-1.5044 2.2867 0 4.092 1.4443 4.092 3.9115 0 2.4673-1.7451 3.9115-4.092 3.9115zm-12.5169-9.5681v-.6018c0-.2407-.2407-.4814-.4814-.4814h-2.9486v13.6h3.4902v-9.508c1.8053-2.046 4.6938-1.0831 4.6938-1.0831v-3.1894s-.5416-.1806-1.5646-.1806c-1.1433 0-2.5274.662-3.1894 1.4443z" fill="#1f304c"/></g></svg>