<svg fill="none" height="36" viewBox="0 0 139 36" width="139" xmlns="http://www.w3.org/2000/svg" xmlns:xlink="http://www.w3.org/1999/xlink"><clipPath id="a"><path d="m0 0h138.375v36h-138.375z"/></clipPath><g clip-path="url(#a)"><path clip-rule="evenodd" d="m120.472 0c10.304 0 17.913 7.67213 17.913 17.8964 0 10.2559-7.609 17.928-17.913 17.928-10.145 0-17.912-7.6721-17.912-17.928 0-10.22427 7.767-17.8964 17.912-17.8964zm0 2.78987c-8.559 0-14.9 6.3723-14.9 15.10653 0 8.7341 6.341 15.1064 14.9 15.1064 8.56 0 14.901-6.3723 14.901-15.1064 0-8.73423-6.341-15.10653-14.901-15.10653zm-64.8332 8.67183c4.1214 0 5.5481 1.4266 5.5481 5.6431v8.1001c0 .856.4755 1.284 1.4266 1.284h.1585v1.6961h-4.7555c-.951 0-1.4266-.4914-1.4266-1.5217v-.5073c-.9511.8718-1.2681 1.0621-2.0607 1.4266-.7926.5073-1.9022.7609-3.0118.7609-2.8532 0-4.1214-1.49-4.1214-4.6128 0-2.4887.9511-4.0738 3.0118-4.8981.6341-.2695 1.2681-.4755 1.9022-.634 1.2681-.2695 1.9022-.3963 4.1214-.7609v-.4122c0-1.4583-.4755-1.9814-2.0607-1.9814-.317 0-.9511.0634-1.4266.1268-.9511.1744-1.7437.3646-3.0118.8718l-.4756.1903-1.1096-3.0435c1.4267-.745 2.0607-.967 3.3288-1.2681 1.2682-.3012 2.5363-.4597 3.9629-.4597zm-43.5916-5.3103c1.4266 0 2.0606.42799 2.3777 1.75952l5.7065 20.27408h-5.3895l-1.5851-5.342h-6.49916l-1.58516 5.342h-5.07248l5.70654-17.3257c.47555-1.09376.47555-1.39493.47555-1.85463 0-.72917-.47555-1.03035-1.42663-1.03035h-.63407v-1.82292zm13.1567 0c1.1096 0 1.7437.5548 1.7437 1.61685v20.41675h-4.914v-18.95841c0-.85598-.4755-1.25227-1.4266-1.25227h-.3171v-1.82292zm8.8769 0c1.1096 0 1.7436.5548 1.7436 1.61685v20.41675h-4.9139v-18.95841c0-.85598-.4756-1.25227-1.4267-1.25227h-.317v-1.82292zm9.0353 5.5322c.9511 0 1.5852.6023 1.5852 1.6327v14.8687h-4.914v-13.4104c0-.9035-.317-1.2998-1.2681-1.2998h-.317v-1.7912zm32.3371-.1902c1.4267 0 2.3777.3962 3.1703 1.2522.6341.8719.9511 1.8705.9511 4.1848v11.2546h-4.914v-10.462c0-1.6803-.317-2.1558-1.4266-2.1558s-1.9022.3963-3.0118 1.4266v11.1912h-4.914v-13.4104c0-.9035-.4755-1.2998-1.4266-1.2998h-.1585v-1.7912h4.7555c.951 0 1.4266.5072 1.4266 1.5376v.8877c2.2192-1.9181 3.6458-2.6155 5.548-2.6155zm19.0227.1892v3.3922l-6.9747 9.9547h7.2917v3.1545h-12.6812v-3.4239l7.1332-9.9548h-3.8044c-.9511 0-1.4267.3646-1.4267 1.2681v.3329h-1.7436v-2.9959c0-1.2206.4755-1.7278 1.7436-1.7278zm26.3131-5.07252c1.427 0 2.061.4914 2.061 1.99729v18.67313h-4.755v-17.38916c0-.91938-.317-1.22056-1.11-1.22056h-.476v-2.0607zm7.134 4.58112c1.426 0 2.06.5706 2.06 1.9973v14.092h-4.597v-16.0893zm-12.365 0v16.0893h-4.597v-14.092c0-1.4267.634-1.9973 2.061-1.9973zm-59.1266 8.9888c-1.4266.2378-2.2192.4438-3.0118.7767-1.1096.428-1.4266.9511-1.4266 2.3143 0 1.2365.4755 1.6961 1.4266 1.6961s2.0607-.5389 3.0118-1.49zm-46.2864-9.6219-2.69479 8.7659h5.07249zm31.8615-4.77129c1.7437 0 2.8533.85599 2.8533 2.31433 0 1.49004-1.1096 2.36186-2.8533 2.36186-1.9022 0-2.8533-.87182-2.8533-2.36186 0-1.45834.9511-2.31433 2.8533-2.31433z" fill="#1f304c" fill-rule="evenodd"/></g></svg>