<svg fill="none" height="48" viewBox="0 0 48 48" width="48" xmlns="http://www.w3.org/2000/svg"><path d="m13.08 40.08c-.36-.24-.6 0-.72.12l.84.6c.12-.24.24-.48-.12-.72zm21.36-32.04c.12.12.36.12.6 0l.12-.12.24-.24c-.36-.24-.72-.36-.96-.12-.12.24-.12.36 0 .48zm-13.44-3.48c0 .24.24.36.36.24.24 0 .36-.24.36-.36v-.48c-.48.12-.84.36-.72.6zm-12.48 5.64-.72-.36c.12.24.36.36.48.6l.48.72.48-.72zm36.36 11.88h-.36c0 .48.12.84.48.84.24 0 .36-.12.36-.36s-.12-.36-.36-.48zm-38.64 12c-.36.24-.48.6-.36.96.12.24.36.36.6.24 0 0 .12 0 .12-.12l.36-.24s.12 0 .12-.12c.12-.12.24-.48.12-.72s-.48-.24-.96 0zm17.76-34.08c-13.2 0-24 10.8-24 24s10.8 24 24 24 24-10.8 24-24-10.8-24-24-24zm21.84 21.96-.24.12c.24.12.36.48.36.84 0 .6-.36.96-.84.96-.72 0-1.08-.6-1.2-1.56-.12 0-.36.12-.36.48 0 .24.12.6.24.72l-.6.24c-.12-.24-.24-.6-.36-1.08 0-.96.48-1.32 1.2-1.32l.96-.12c.24 0 .48 0 .72-.12zm-.72-4.08.24.84-3.96 1.08-.24-.84zm-4.2 11.28c.12-.24.36-.36.6-.36.24.12.36.36.24.6s-.36.36-.6.36c-.24-.12-.36-.36-.24-.6zm-3.6-18.84c0 .24.12.48.36.72.12.24.36.24.36.12.12-.12.12-.24 0-.48-.24-.6-.12-.96.12-1.2.36-.36.96-.24 1.44.36.24.24.36.48.36.72l-.48.24c0-.12-.12-.36-.24-.6-.12-.12-.24-.24-.36-.12s-.12.24 0 .6c.24.48.12.84-.24 1.08-.36.36-.96.24-1.44-.36-.24-.24-.36-.6-.48-.84zm.48 5.76c-.12-.12-.24-.12-.36-.24-.84-.24-2.16.36-1.8-.24.24-.48.72-.84.84-1.44.48.6.84 1.32 1.32 1.92zm-4.2-8.88c.48-.6 1.2-.48 1.92.12.12-.12.12-.36-.24-.6l-.72-.36.24-.6c.24 0 .6.12 1.08.48.72.6.72 1.2.24 1.68l-.6.84c-.12.24-.36.48-.36.6l-.6-.48.12-.24c-.24.12-.6 0-.84-.24-.48-.36-.48-.84-.24-1.2zm-3.6-1.68c.12.12.36.36.6.48s.36.12.48-.12c0-.12 0-.24-.24-.48-.48-.36-.6-.84-.48-1.08.24-.48.84-.72 1.44-.36.36.12.6.36.72.48l-.36.48c-.12-.12-.24-.24-.48-.36s-.36 0-.36.12 0 .24.36.48c.48.36.48.72.36 1.08-.24.48-.72.72-1.44.36-.6-.24-.84-.36-.96-.6zm-4.8-2.16c0-.36.12-.6.12-.96l.72.12v.36c.12-.12.48-.36.96-.36.6.12.96.48.84 1.32l-.24 1.68-.84-.12.24-1.56c0-.36 0-.6-.36-.72-.24 0-.36.12-.48.24v.24l-.24 1.68-.84-.12zm9.24 8.64h-.24c-.48-.12-21.12.72-21.12.72l-.24.12c2.88-2.88 6.84-4.68 11.16-4.68 3.96 0 7.68 1.44 10.44 3.84zm-21.84 21.6s.96.72 1.32.96 1.44 0 1.44 0 .24 2.16.12 2.4c0 .12-.12.12-.24.12-4.2-2.88-7.08-7.68-7.08-13.2 0-3.84 1.32-7.32 3.6-10.08.12.6.24 1.44.36 2.64.24 2.52.72 6.48.48 9-.24 2.64 0 8.16 0 8.16zm8.52-31.08c.96-.12 1.32.48 1.44 1.08l.12.96c0 .24.12.6.12.72l-.84.12-.12-.24c-.12.24-.36.36-.72.48-.6.12-.96-.24-1.08-.72-.12-.72.48-1.2 1.44-1.32 0-.12-.12-.36-.6-.24-.24 0-.6.24-.72.36l-.24-.48c.36-.36.72-.6 1.2-.72zm-5.88.48.96 2.28v-.36l.24-.96.96-.36-.48 1.44 1.8.96-.96.48-1.08-.84-.12.36.36.84-.84.36-1.68-3.84zm-3.36 3.48.36.36c-.12-.36 0-.72.24-.96.12 0 .12-.12.12-.12l.6.72c-.12 0-.12.12-.24.12-.24.24-.36.48-.24.72l.12.12.84 1.08-.72.48-1.08-1.32c-.24-.36-.48-.6-.6-.72zm-4.2 2.52 3.84 1.44-.6.72-.96-.36-.72.96.6.84-.6.72-2.28-3.36zm-1.44 18.96c-.24 0-.48-.12-.6-.36s.12-.48.36-.6c.24 0 .48.12.6.36.12.36-.12.48-.36.6zm-3.72-8.88c.36-1.32 1.32-1.8 2.4-1.56 1.32.36 1.8 1.44 1.56 2.52-.12.48-.24.72-.36.84l-.6-.36c.12-.12.24-.36.36-.72 0-.6-.24-1.2-1.08-1.44-.72-.24-1.32.12-1.56.96-.12.24-.12.6 0 .72h-.72c-.12-.12-.12-.6 0-.96zm-.48 5.28h1.56c.36 0 .6-.12.6-.48 0-.24-.12-.36-.36-.48h-1.92v-.84l4.08-.12v.84h-1.68l.36.36c.12.12.12.24.12.48 0 .6-.36.96-1.2.96h-1.68zm.48 3.48 2.76-.6.24.84-2.76.6zm.84 3.12 3.84-1.44.36.84-3.96 1.44zm3.48 5.16c-.24.12-.6.36-.72.48l-.36-.72.36-.24c-.36 0-.72-.24-.84-.48-.36-.6-.12-1.32.6-1.8.84-.48 1.56-.36 1.92.24.24.36.24.6.12.84l1.2-.84.48.72zm3.72 2.28c0-.12-.12-.12-.12-.24-.24-.24-.48-.24-.72-.12l-.12.12-1.2.96-.6-.6 1.44-1.32c.36-.24.48-.48.6-.72l.48.48-.36.36c.36-.24.72-.12.96.12l.12.12zm3.24 3c-.12.12-.12.24-.24.24l-1.56-.96c-.24.36 0 .72.36.84l.72.36-.24.6c-.36-.12-.6-.24-.96-.36-.84-.48-.96-1.32-.48-2.04.36-.6 1.2-.96 2.04-.48s.72 1.32.36 1.8zm4.44 1.8-.6 1.56-.84-.36.6-1.44c.12-.36.12-.6-.24-.72-.24-.12-.36 0-.48.12 0 0-.12.12-.12.24l-.6 1.56-.84-.36.72-1.8c.12-.36.24-.6.24-.84l.72.24-.12.36c.12-.12.48-.24.96-.12.6.24.96.72.6 1.56zm-2.16-5.52 16.32-.24c-2.4 1.44-5.28 2.4-8.28 2.4s-5.76-.72-8.04-2.16zm4.68 5.28h-.48c.24-.48.48-.96.6-1.44l.84.12c-.24.36-.6.96-.96 1.32zm2.76 2.76c-.36 0-.72-.12-.96-.24l.12-.6c.12.12.48.24.72.24s.36-.12.36-.24-.12-.24-.36-.36c-.6-.24-.84-.48-.84-.84 0-.48.48-.96 1.2-.96.36 0 .6.12.84.24l-.12.6c-.12-.12-.36-.12-.6-.12s-.36.12-.36.24.12.24.48.36c.48.24.72.48.72.84 0 .48-.48.84-1.2.84zm8.76-1.68-.6-1.56-1.32.48.6 1.56-.84.36-1.32-3.72.84-.36.48 1.44 1.32-.48-.48-1.44.84-.36 1.32 3.72zm.12-7.56h-3.24s-.48-1.08-1.08-1.32c0 0 .6-.48.48-.96s-.72-.12-1.08-.36c-.24-.24-.48-.48-.72-.6-.24 0 0-1.08.24-1.68s1.2-.84 1.56-.48c.48.36 1.92-.24 2.4-.36s.6-.96.6-1.56c0-.48.72-.72.6-1.2s-.36-.72-.36-.72.96 0 .96-.48-.36-.96 0-1.56 0-1.2-.72-1.32-1.56-.36-1.2-1.56c.36-1.08.72-2.64-.96-5.28 0 0 .84-.84.24-1.56-.72-.6-1.08-.84-1.2-.84s-.24-.36-.72-.12-.48-.48-.72-.6c-.24 0-.24.48-.72.36-.36 0-.84-.96-1.2-.72s.12.84-.12.72c-.24 0-1.32.12-1.8-.24s-1.92-.72-3 0-1.92 1.68-2.28 1.44c-.36.12-.48-.12-.36-.36s-.48-.48-.72.24-.48.72-.48.48-.48-.36-.48.24.12 1.56-.24 1.56-.6.96-.6 1.32c0 .48.36 1.2-.12 1.56s-.84 2.04-.6 2.52.84 1.44.6 1.68-.48.72.12 1.44 2.88 3.12 5.28 3.72l.12 2.16s-.72.24-.96 0-.6.12-.6.6-.12.84-.24 1.2c-.24.36 0 .6 0 .96s-1.56 1.8-1.92 1.8-.84.36-.84-.96 0-2.64-.36-2.52c-.48 0-1.08.36-1.56.36-.36 0-.84-.12-.84-1.2s0-5.76.12-8.16c.12-2.28-.48-6-.72-8.28s-.36-2.64.36-2.52c0 0 11.28-.48 14.4-.36s6.96-.36 7.2 0 .84.96.36 1.32c-.48.48-.96.84-.96 1.08 0 .36-.96 1.08-.12 1.2s3.36-.24 3.6.48c.36.84.6 1.92-.24 2.28-.84.48-1.2 1.56-1.2 1.92s.24 2.4-.48 2.76c-.6.36-1.44.72-1.32 1.56s0 1.56-.48 2.16-.72 1.08-.6 1.56c.12.36-.48 1.44-.84 1.8-.48.36-.84 1.2-.6 1.68.6.72 1.8 3.72.36 3.72zm1.08-3.24c-.24-.6-.48-.96.12-1.44s1.08-1.68 1.08-2.16c-.12-.48 0-.48.6-1.32s.72-1.2.48-1.92c-.12-.72.84-1.32 1.44-2.16.48-.84.6-1.8.36-2.64-.36-.84.96-.96 1.2-1.56.24-.48.48-.36.6-.36.36 1.44.6 2.88.6 4.44 0 5.04-2.4 9.6-6 12.48.48-1.56-.36-2.76-.48-3.36zm3.12 8.52c-.72.48-1.56.36-2.04-.36s-.36-1.56.36-2.04 1.56-.36 2.04.36c.6.72.24 1.56-.36 2.04zm3.6-3.12c-.24.24-.48.48-.72.48l-.36-.48c.24 0 .48-.24.72-.36.24-.24.24-.36.12-.48s-.24-.12-.48.12c-.48.36-.96.24-1.2 0-.36-.36-.36-.96.12-1.44.24-.24.48-.36.6-.48l.36.48c-.12 0-.36.12-.48.36-.12.12-.12.36 0 .36.12.12.24 0 .6-.12.48-.24.84-.24 1.2 0 0 .36 0 .96-.48 1.56zm3.24-2.4-2.64-1.56c-.36-.24-.6-.36-.84-.48l.36-.72.36.12c-.12-.36-.12-.72.12-1.08.36-.48 1.08-.72 1.8-.36.96.48.96 1.32.72 1.8-.12.36-.36.48-.6.48l1.2.72zm1.32-5.4-2.76-.84.24-.84 2.64.84zm1.08-4.32c0 .24-.12.48-.36.6s-.48.24-.84.12l-1.2-.12v.36l-.6-.12v-.36l-.48-.12-.12-.84.72.12.12-.6.6.12-.12.6 1.08.12c.36 0 .48 0 .48-.24v-.24l.6.12c.12 0 .12.24.12.48zm-10.56 13.32c-.36.24-.24.72 0 1.08s.6.6.96.36c.24-.24.24-.6 0-1.08-.24-.36-.6-.6-.96-.36zm6.96-6.6c-.36-.24-.84-.24-.96.12-.12.24-.12.48.12.72l.12.12.36.24c.12 0 .12 0 .12.12.24.12.48 0 .6-.24.24-.48 0-.84-.36-1.08z" fill="#1f304c"/></svg>