<svg width="48" height="48" viewBox="0 0 48 48" fill="none" xmlns="http://www.w3.org/2000/svg">
<path d="M13.08 40.08C12.72 39.84 12.48 40.08 12.36 40.2L13.2 40.8C13.32 40.56 13.44 40.32 13.08 40.08ZM34.44 8.04C34.56 8.16 34.8 8.16 35.04 8.04L35.16 7.92L35.4 7.68C35.04 7.44 34.68 7.32 34.44 7.56C34.32 7.8 34.32 7.92 34.44 8.04ZM21 4.56C21 4.8 21.24 4.92 21.36 4.8C21.6 4.8 21.72 4.56 21.72 4.44V3.96C21.24 4.08 20.88 4.32 21 4.56ZM8.52 10.2L7.8 9.84C7.92 10.08 8.16 10.2 8.28 10.44L8.76 11.16L9.24 10.44L8.52 10.2ZM44.88 22.08H44.52C44.52 22.56 44.64 22.92 45 22.92C45.24 22.92 45.36 22.8 45.36 22.56C45.36 22.32 45.24 22.2 45 22.08H44.88ZM6.24 34.08C5.88 34.32 5.76 34.68 5.88 35.04C6 35.28 6.24 35.4 6.48 35.28C6.48 35.28 6.6 35.28 6.6 35.16L6.96 34.92C6.96 34.92 7.08 34.92 7.08 34.8C7.2 34.68 7.32 34.32 7.2 34.08C7.08 33.84 6.72 33.84 6.24 34.08ZM24 0C10.8 0 0 10.8 0 24C0 37.2 10.8 48 24 48C37.2 48 48 37.2 48 24C48 10.8 37.2 0 24 0ZM45.84 21.96L45.6 22.08C45.84 22.2 45.96 22.56 45.96 22.92C45.96 23.52 45.6 23.88 45.12 23.88C44.4 23.88 44.04 23.28 43.92 22.32C43.8 22.32 43.56 22.44 43.56 22.8C43.56 23.04 43.68 23.4 43.8 23.52L43.2 23.76C43.08 23.52 42.96 23.16 42.84 22.68C42.84 21.72 43.32 21.36 44.04 21.36L45 21.24C45.24 21.24 45.48 21.24 45.72 21.12L45.84 21.96ZM45.12 17.88L45.36 18.72L41.4 19.8L41.16 18.96L45.12 17.88ZM40.92 29.16C41.04 28.92 41.28 28.8 41.52 28.8C41.76 28.92 41.88 29.16 41.76 29.4C41.64 29.64 41.4 29.76 41.16 29.76C40.92 29.64 40.8 29.4 40.92 29.16ZM37.32 10.32C37.32 10.56 37.44 10.8 37.68 11.04C37.8 11.28 38.04 11.28 38.04 11.16C38.16 11.04 38.16 10.92 38.04 10.68C37.8 10.08 37.92 9.72 38.16 9.48C38.52 9.12 39.12 9.24 39.6 9.84C39.84 10.08 39.96 10.32 39.96 10.56L39.48 10.8C39.48 10.68 39.36 10.44 39.24 10.2C39.12 10.08 39 9.96 38.88 10.08C38.76 10.2 38.76 10.32 38.88 10.68C39.12 11.16 39 11.52 38.64 11.76C38.28 12.12 37.68 12 37.2 11.4C36.96 11.16 36.84 10.8 36.72 10.56L37.32 10.32ZM37.8 16.08C37.68 15.96 37.56 15.96 37.44 15.84C36.6 15.6 35.28 16.2 35.64 15.6C35.88 15.12 36.36 14.76 36.48 14.16C36.96 14.76 37.32 15.48 37.8 16.08ZM33.6 7.2C34.08 6.6 34.8 6.72 35.52 7.32C35.64 7.2 35.64 6.96 35.28 6.72L34.56 6.36L34.8 5.76C35.04 5.76 35.4 5.88 35.88 6.24C36.6 6.84 36.6 7.44 36.12 7.92L35.52 8.76C35.4 9 35.16 9.24 35.16 9.36L34.56 8.88L34.68 8.64C34.44 8.76 34.08 8.64 33.84 8.4C33.36 8.04 33.36 7.56 33.6 7.2ZM30 5.52C30.12 5.64 30.36 5.88 30.6 6C30.84 6.12 30.96 6.12 31.08 5.88C31.08 5.76 31.08 5.64 30.84 5.4C30.36 5.04 30.24 4.56 30.36 4.32C30.6 3.84 31.2 3.6 31.8 3.96C32.16 4.08 32.4 4.32 32.52 4.44L32.16 4.92C32.04 4.8 31.92 4.68 31.68 4.56C31.44 4.44 31.32 4.56 31.32 4.68C31.32 4.8 31.32 4.92 31.68 5.16C32.16 5.52 32.16 5.88 32.04 6.24C31.8 6.72 31.32 6.96 30.6 6.6C30 6.36 29.76 6.24 29.64 6L30 5.52ZM25.2 3.36C25.2 3 25.32 2.76 25.32 2.4L26.04 2.52V2.88C26.16 2.76 26.52 2.52 27 2.52C27.6 2.64 27.96 3 27.84 3.84L27.6 5.52L26.76 5.4L27 3.84C27 3.48 27 3.24 26.64 3.12C26.4 3.12 26.28 3.24 26.16 3.36V3.6L25.92 5.28L25.08 5.16L25.2 3.36ZM34.44 12H34.2C33.72 11.88 13.08 12.72 13.08 12.72L12.84 12.84C15.72 9.96 19.68 8.16 24 8.16C27.96 8.16 31.68 9.6 34.44 12ZM12.6 33.6C12.6 33.6 13.56 34.32 13.92 34.56C14.28 34.8 15.36 34.56 15.36 34.56C15.36 34.56 15.6 36.72 15.48 36.96C15.48 37.08 15.36 37.08 15.24 37.08C11.04 34.2 8.16 29.4 8.16 23.88C8.16 20.04 9.48 16.56 11.76 13.8C11.88 14.4 12 15.24 12.12 16.44C12.36 18.96 12.84 22.92 12.6 25.44C12.36 28.08 12.6 33.6 12.6 33.6ZM21.12 2.52C22.08 2.4 22.44 3 22.56 3.6L22.68 4.56C22.68 4.8 22.8 5.16 22.8 5.28L21.96 5.4L21.84 5.16C21.72 5.4 21.48 5.52 21.12 5.64C20.52 5.76 20.16 5.4 20.04 4.92C19.92 4.2 20.52 3.72 21.48 3.6C21.48 3.48 21.36 3.24 20.88 3.36C20.64 3.36 20.28 3.6 20.16 3.72L19.92 3.24C20.28 2.88 20.64 2.64 21.12 2.52ZM15.24 3L16.2 5.28V4.92L16.44 3.96L17.4 3.6L16.92 5.04L18.72 6L17.76 6.48L16.68 5.64L16.56 6L16.92 6.84L16.08 7.2L14.4 3.36L15.24 3ZM11.88 6.48L12.24 6.84C12.12 6.48 12.24 6.12 12.48 5.88C12.6 5.88 12.6 5.76 12.6 5.76L13.2 6.48C13.08 6.48 13.08 6.6 12.96 6.6C12.72 6.84 12.6 7.08 12.72 7.32L12.84 7.44L13.68 8.52L12.96 9L11.88 7.68C11.64 7.32 11.4 7.08 11.28 6.96L11.88 6.48ZM7.68 9L11.52 10.44L10.92 11.16L9.96 10.8L9.24 11.76L9.84 12.6L9.24 13.32L6.96 9.96L7.68 9ZM6.24 27.96C6 27.96 5.76 27.84 5.64 27.6C5.52 27.36 5.76 27.12 6 27C6.24 27 6.48 27.12 6.6 27.36C6.72 27.72 6.48 27.84 6.24 27.96ZM2.52 19.08C2.88 17.76 3.84 17.28 4.92 17.52C6.24 17.88 6.72 18.96 6.48 20.04C6.36 20.52 6.24 20.76 6.12 20.88L5.52 20.52C5.64 20.4 5.76 20.16 5.88 19.8C5.88 19.2 5.64 18.6 4.8 18.36C4.08 18.12 3.48 18.48 3.24 19.32C3.12 19.56 3.12 19.92 3.24 20.04H2.52C2.4 19.92 2.4 19.44 2.52 19.08ZM2.04 24.36H3.6C3.96 24.36 4.2 24.24 4.2 23.88C4.2 23.64 4.08 23.52 3.84 23.4H1.92V22.56L6 22.44V23.28H4.32L4.68 23.64C4.8 23.76 4.8 23.88 4.8 24.12C4.8 24.72 4.44 25.08 3.6 25.08H1.92L2.04 24.36ZM2.52 27.84L5.28 27.24L5.52 28.08L2.76 28.68L2.52 27.84ZM3.36 30.96L7.2 29.52L7.56 30.36L3.6 31.8L3.36 30.96ZM6.84 36.12C6.6 36.24 6.24 36.48 6.12 36.6L5.76 35.88L6.12 35.64C5.76 35.64 5.4 35.4 5.28 35.16C4.92 34.56 5.16 33.84 5.88 33.36C6.72 32.88 7.44 33 7.8 33.6C8.04 33.96 8.04 34.2 7.92 34.44L9.12 33.6L9.6 34.32L6.84 36.12ZM10.56 38.4C10.56 38.28 10.44 38.28 10.44 38.16C10.2 37.92 9.96 37.92 9.72 38.04L9.6 38.16L8.4 39.12L7.8 38.52L9.24 37.2C9.6 36.96 9.72 36.72 9.84 36.48L10.32 36.96L9.96 37.32C10.32 37.08 10.68 37.2 10.92 37.44L11.04 37.56L10.56 38.4ZM13.8 41.4C13.68 41.52 13.68 41.64 13.56 41.64L12 40.68C11.76 41.04 12 41.4 12.36 41.52L13.08 41.88L12.84 42.48C12.48 42.36 12.24 42.24 11.88 42.12C11.04 41.64 10.92 40.8 11.4 40.08C11.76 39.48 12.6 39.12 13.44 39.6C14.28 40.08 14.16 40.92 13.8 41.4ZM18.24 43.2L17.64 44.76L16.8 44.4L17.4 42.96C17.52 42.6 17.52 42.36 17.16 42.24C16.92 42.12 16.8 42.24 16.68 42.36C16.68 42.36 16.56 42.48 16.56 42.6L15.96 44.16L15.12 43.8L15.84 42C15.96 41.64 16.08 41.4 16.08 41.16L16.8 41.4L16.68 41.76C16.8 41.64 17.16 41.52 17.64 41.64C18.24 41.88 18.6 42.36 18.24 43.2ZM16.08 37.68L32.4 37.44C30 38.88 27.12 39.84 24.12 39.84C21.12 39.84 18.36 39.12 16.08 37.68ZM20.76 42.96H20.28C20.52 42.48 20.76 42 20.88 41.52L21.72 41.64C21.48 42 21.12 42.6 20.76 42.96ZM23.52 45.72C23.16 45.72 22.8 45.6 22.56 45.48L22.68 44.88C22.8 45 23.16 45.12 23.4 45.12C23.64 45.12 23.76 45 23.76 44.88C23.76 44.76 23.64 44.64 23.4 44.52C22.8 44.28 22.56 44.04 22.56 43.68C22.56 43.2 23.04 42.72 23.76 42.72C24.12 42.72 24.36 42.84 24.6 42.96L24.48 43.56C24.36 43.44 24.12 43.44 23.88 43.44C23.64 43.44 23.52 43.56 23.52 43.68C23.52 43.8 23.64 43.92 24 44.04C24.48 44.28 24.72 44.52 24.72 44.88C24.72 45.36 24.24 45.72 23.52 45.72ZM32.28 44.04L31.68 42.48L30.36 42.96L30.96 44.52L30.12 44.88L28.8 41.16L29.64 40.8L30.12 42.24L31.44 41.76L30.96 40.32L31.8 39.96L33.12 43.68L32.28 44.04ZM32.4 36.48H29.16C29.16 36.48 28.68 35.4 28.08 35.16C28.08 35.16 28.68 34.68 28.56 34.2C28.44 33.72 27.84 34.08 27.48 33.84C27.24 33.6 27 33.36 26.76 33.24C26.52 33.24 26.76 32.16 27 31.56C27.24 30.96 28.2 30.72 28.56 31.08C29.04 31.44 30.48 30.84 30.96 30.72C31.44 30.6 31.56 29.76 31.56 29.16C31.56 28.68 32.28 28.44 32.16 27.96C32.04 27.48 31.8 27.24 31.8 27.24C31.8 27.24 32.76 27.24 32.76 26.76C32.76 26.28 32.4 25.8 32.76 25.2C33.12 24.6 32.76 24 32.04 23.88C31.32 23.76 30.48 23.52 30.84 22.32C31.2 21.24 31.56 19.68 29.88 17.04C29.88 17.04 30.72 16.2 30.12 15.48C29.4 14.88 29.04 14.64 28.92 14.64C28.8 14.64 28.68 14.28 28.2 14.52C27.72 14.76 27.72 14.04 27.48 13.92C27.24 13.92 27.24 14.4 26.76 14.28C26.4 14.28 25.92 13.32 25.56 13.56C25.2 13.8 25.68 14.4 25.44 14.28C25.2 14.28 24.12 14.4 23.64 14.04C23.16 13.68 21.72 13.32 20.64 14.04C19.56 14.76 18.72 15.72 18.36 15.48C18 15.6 17.88 15.36 18 15.12C18.12 14.88 17.52 14.64 17.28 15.36C17.04 16.08 16.8 16.08 16.8 15.84C16.8 15.6 16.32 15.48 16.32 16.08C16.32 16.68 16.44 17.64 16.08 17.64C15.72 17.64 15.48 18.6 15.48 18.96C15.48 19.44 15.84 20.16 15.36 20.52C14.88 20.88 14.52 22.56 14.76 23.04C15 23.52 15.6 24.48 15.36 24.72C15.12 24.96 14.88 25.44 15.48 26.16C16.08 26.88 18.36 29.28 20.76 29.88L20.88 32.04C20.88 32.04 20.16 32.28 19.92 32.04C19.68 31.8 19.32 32.16 19.32 32.64C19.32 33.12 19.2 33.48 19.08 33.84C18.84 34.2 19.08 34.44 19.08 34.8C19.08 35.16 17.52 36.6 17.16 36.6C16.8 36.6 16.32 36.96 16.32 35.64C16.32 34.32 16.32 33 15.96 33.12C15.48 33.12 14.88 33.48 14.4 33.48C14.04 33.48 13.56 33.36 13.56 32.28C13.56 31.2 13.56 26.52 13.68 24.12C13.8 21.84 13.2 18.12 12.96 15.84C12.72 13.56 12.6 13.2 13.32 13.32C13.32 13.32 24.6 12.84 27.72 12.96C30.84 13.08 34.68 12.6 34.92 12.96C35.16 13.32 35.76 13.92 35.28 14.28C34.8 14.76 34.32 15.12 34.32 15.36C34.32 15.72 33.36 16.44 34.2 16.56C35.04 16.68 37.56 16.32 37.8 17.04C38.16 17.88 38.4 18.96 37.56 19.32C36.72 19.8 36.36 20.88 36.36 21.24C36.36 21.6 36.6 23.64 35.88 24C35.28 24.36 34.44 24.72 34.56 25.56C34.68 26.4 34.56 27.12 34.08 27.72C33.6 28.32 33.36 28.8 33.48 29.28C33.6 29.64 33 30.72 32.64 31.08C32.16 31.44 31.8 32.28 32.04 32.76C32.64 33.48 33.84 36.48 32.4 36.48ZM33.48 33.24C33.24 32.64 33 32.28 33.6 31.8C34.2 31.32 34.68 30.12 34.68 29.64C34.56 29.16 34.68 29.16 35.28 28.32C35.88 27.48 36 27.12 35.76 26.4C35.64 25.68 36.6 25.08 37.2 24.24C37.68 23.4 37.8 22.44 37.56 21.6C37.2 20.76 38.52 20.64 38.76 20.04C39 19.56 39.24 19.68 39.36 19.68C39.72 21.12 39.96 22.56 39.96 24.12C39.96 29.16 37.56 33.72 33.96 36.6C34.44 35.04 33.6 33.84 33.48 33.24ZM36.6 41.76C35.88 42.24 35.04 42.12 34.56 41.4C34.08 40.68 34.2 39.84 34.92 39.36C35.64 38.88 36.48 39 36.96 39.72C37.56 40.44 37.2 41.28 36.6 41.76ZM40.2 38.64C39.96 38.88 39.72 39.12 39.48 39.12L39.12 38.64C39.36 38.64 39.6 38.4 39.84 38.28C40.08 38.04 40.08 37.92 39.96 37.8C39.84 37.68 39.72 37.68 39.48 37.92C39 38.28 38.52 38.16 38.28 37.92C37.92 37.56 37.92 36.96 38.4 36.48C38.64 36.24 38.88 36.12 39 36L39.36 36.48C39.24 36.48 39 36.6 38.88 36.84C38.76 36.96 38.76 37.2 38.88 37.2C39 37.32 39.12 37.2 39.48 37.08C39.96 36.84 40.32 36.84 40.68 37.08C40.68 37.44 40.68 38.04 40.2 38.64ZM43.44 36.24L40.8 34.68C40.44 34.44 40.2 34.32 39.96 34.2L40.32 33.48L40.68 33.6C40.56 33.24 40.56 32.88 40.8 32.52C41.16 32.04 41.88 31.8 42.6 32.16C43.56 32.64 43.56 33.48 43.32 33.96C43.2 34.32 42.96 34.44 42.72 34.44L43.92 35.16L43.44 36.24ZM44.76 30.84L42 30L42.24 29.16L44.88 30L44.76 30.84ZM45.84 26.52C45.84 26.76 45.72 27 45.48 27.12C45.24 27.24 45 27.36 44.64 27.24L43.44 27.12V27.48L42.84 27.36V27L42.36 26.88L42.24 26.04L42.96 26.16L43.08 25.56L43.68 25.68L43.56 26.28L44.64 26.4C45 26.4 45.12 26.4 45.12 26.16V25.92L45.72 26.04C45.84 26.04 45.84 26.28 45.84 26.52ZM35.28 39.84C34.92 40.08 35.04 40.56 35.28 40.92C35.52 41.28 35.88 41.52 36.24 41.28C36.48 41.04 36.48 40.68 36.24 40.2C36 39.84 35.64 39.6 35.28 39.84ZM42.24 33.24C41.88 33 41.4 33 41.28 33.36C41.16 33.6 41.16 33.84 41.4 34.08L41.52 34.2L41.88 34.44C42 34.44 42 34.44 42 34.56C42.24 34.68 42.48 34.56 42.6 34.32C42.84 33.84 42.6 33.48 42.24 33.24Z" fill="#1F304C"/>
</svg>
