<svg width="85" height="32" viewBox="0 0 85 32" fill="none" xmlns="http://www.w3.org/2000/svg">
<g clip-path="url(#clip0)">
<path d="M1.376 28.984H3.0416V30.1336H0.4216V24.124H1.376V28.9848V28.984ZM6.568 27.8936C6.568 29.4912 5.768 30.224 4.9504 30.224C4.0648 30.224 3.3744 29.3808 3.3744 27.984C3.3744 26.5648 4.0176 25.6744 4.9928 25.6744C5.9496 25.6744 6.5688 26.5864 6.5688 27.8936H6.568ZM5.5936 27.9416C5.5936 27.2976 5.4144 26.6336 4.9936 26.6336C4.5296 26.628 4.3696 27.2976 4.3696 27.9408C4.3696 28.6944 4.592 29.248 4.9936 29.248C5.372 29.248 5.5936 28.7152 5.5936 27.9408V27.9416ZM8.8616 26.6952C9.1048 26.6952 9.284 26.7552 9.3944 26.8232L9.5464 25.828C9.31971 25.7119 9.06907 25.6503 8.8144 25.648C7.6816 25.648 7.0592 26.6928 7.0592 27.9792C7.0592 29.3552 7.7024 30.2192 8.6776 30.2192C9.0296 30.2192 9.3416 30.1312 9.5208 30.0192L9.4392 29.0064C9.2872 29.0944 9.1072 29.1376 8.8856 29.1376C8.4216 29.1376 8.0424 28.716 8.0424 27.9136C8.0424 27.2016 8.3544 26.6912 8.8648 26.6912L8.8616 26.6952ZM12.6736 29.0816C12.6736 29.5032 12.6944 29.904 12.716 30.1456H11.8304V30.1296L11.7608 29.6872C11.5608 30.0416 11.2528 30.2208 10.8968 30.2208C10.2768 30.2208 9.9208 29.5768 9.9208 28.8864C9.9208 27.7504 10.6328 27.1984 11.7208 27.2192V27.1504C11.7208 26.9296 11.6328 26.5984 11.1688 26.5984C10.8568 26.5984 10.5248 26.7504 10.3248 26.9296L10.1456 26.0656C10.3672 25.8856 10.768 25.6856 11.3216 25.6856C12.344 25.6856 12.6768 26.5496 12.6768 27.5736V29.0792L12.6736 29.0816ZM11.724 28.0696H11.7192C11.2072 28.0696 10.8312 28.2216 10.8312 28.7552C10.8312 29.1088 10.9832 29.2672 11.2096 29.2672C11.452 29.2672 11.6312 29.0448 11.7 28.7552C11.72 28.6864 11.72 28.6032 11.72 28.5336V28.0696H11.724ZM13.4488 30.136H14.4064V23.792H13.448V30.1392L13.4488 30.136ZM19.6168 24.1424L19.1768 26.1424C19.0448 26.8064 18.8864 27.6064 18.7768 28.2944H18.7552C18.6626 27.5732 18.5452 26.8555 18.4032 26.1424L17.9808 24.1232H16.7008L16.432 30.1392H17.3168L17.4072 27.8512C17.4328 27.096 17.4552 26.1896 17.4752 25.3672H17.4952C17.5832 26.164 17.7432 27.0072 17.8736 27.7192L18.3168 30.0496H19.0496L19.56 27.6976C19.712 26.9856 19.8936 26.1432 20.024 25.368H20.0464C20.0464 26.232 20.068 27.096 20.0888 27.832L20.1528 30.1616H21.0864L20.8648 24.1456H19.6168V24.1424ZM24.3912 29.084C24.3912 29.5056 24.412 29.9064 24.4336 30.148H23.5696V30.132H23.568L23.4992 29.6896H23.48C23.28 30.0432 22.968 30.2224 22.616 30.2224C21.992 30.2224 21.64 29.5784 21.64 28.888C21.64 27.7544 22.352 27.2 23.4376 27.2224V27.1536C23.4376 26.932 23.3496 26.6 22.8856 26.6C22.5736 26.6 22.2416 26.752 22.0416 26.932L21.8624 26.068C22.0848 25.888 22.4864 25.688 23.0384 25.688C24.0624 25.688 24.3944 26.552 24.3944 27.576V29.0832L24.3912 29.084ZM23.4632 28.536L23.4576 28.072C22.9456 28.072 22.572 28.2256 22.572 28.7584C22.572 29.112 22.7256 29.2704 22.952 29.2704C23.1944 29.2704 23.3736 29.048 23.4424 28.7584C23.464 28.6896 23.464 28.6064 23.464 28.5368L23.4632 28.536ZM26.0352 26.5648H26.0152L25.9944 25.7632H25.1704C25.1704 26.1424 25.192 26.5632 25.192 27.2032H25.1704V30.1336H26.1248V27.912C26.1248 27.8 26.1248 27.6912 26.1456 27.6C26.2136 27.184 26.4336 26.916 26.788 26.916C26.904 26.916 26.988 26.9368 27.0568 26.9576V25.672C26.9888 25.6504 26.9448 25.6504 26.8568 25.6504C26.5672 25.6504 26.1872 25.9192 26.0328 26.5624L26.0352 26.5648ZM30.5176 25.7688H29.36L28.736 27.0776C28.6768 27.2352 28.616 27.3896 28.5424 27.5448V23.7928H27.588V30.1352H28.5424V28.7592L28.7848 28.3376L29.5208 30.1456H30.6752L29.432 27.548L30.5168 25.772L30.5176 25.7688ZM33.6752 27.8368C33.6752 28.0584 33.6536 28.28 33.6536 28.3696H31.6552V28.3856H31.6496C31.6712 28.9376 32.072 29.208 32.5136 29.208C32.8472 29.208 33.0896 29.1392 33.3584 29.0288L33.4904 29.9408C33.1784 30.12 32.8056 30.2096 32.384 30.2096C31.34 30.2096 30.7656 29.344 30.7656 27.9896C30.7656 26.8824 31.2576 25.6592 32.3224 25.6592C33.2984 25.6592 33.6768 26.7448 33.6768 27.8368H33.6752ZM32.7568 27.4528C32.7568 27.12 32.6672 26.5664 32.224 26.5664C31.824 26.5664 31.6696 27.0784 31.648 27.4504H32.756L32.7568 27.4528ZM35.3088 24.5208L34.3744 24.8104V25.7648H33.9744V26.7608H34.3744V28.5368C34.3744 29.1368 34.464 29.5528 34.6432 29.8224C34.8016 30.0464 35.0432 30.2 35.3552 30.2C35.624 30.2 35.8456 30.16 35.9776 30.0896V29.0672C35.8841 29.0949 35.7871 29.1091 35.6896 29.1096C35.3992 29.1096 35.3096 28.868 35.3096 28.3336V26.7576H35.9952V25.7632H35.3072V24.52L35.3088 24.5208ZM36.5728 30.1344H37.528V25.7624H36.5728V30.1328V30.1344ZM37.0848 23.8592C36.7728 23.8592 36.5728 24.144 36.5728 24.5448C36.5528 24.9192 36.7528 25.2304 37.064 25.2304C37.3752 25.2304 37.576 24.924 37.576 24.5448C37.548 24.1656 37.3952 23.8544 37.084 23.8592H37.0848ZM40.1272 25.6784C39.6376 25.6784 39.3272 26.0944 39.1944 26.364H39.1728L39.1304 25.764H38.3064C38.3064 26.164 38.328 26.6064 38.328 27.16V27.1704H38.28V30.1224H39.2336V27.616C39.2336 27.504 39.256 27.3728 39.2768 27.2832C39.3456 27.0408 39.4984 26.7712 39.7672 26.7712C40.1248 26.7712 40.2568 27.1728 40.2568 27.7264V30.1464H41.2104V27.548C41.2104 26.2824 40.7464 25.6816 40.1248 25.6816L40.1272 25.6784ZM44.9616 25.7624L44.96 25.8008H44.9664V25.764H44.96V25.7624H44.9616ZM44.144 25.8008H44.96C44.9416 26.0672 44.9416 26.4328 44.9416 27.0488V29.4888C44.9416 30.3328 44.8312 31.0184 44.4776 31.4664C44.1448 31.8888 43.676 31.9992 43.2328 31.9992C42.8328 31.9992 42.4088 31.8904 42.1248 31.6688L42.304 30.6464C42.504 30.7984 42.836 30.9776 43.1888 30.9776C43.632 30.9776 43.9904 30.6256 43.9904 29.824V29.5344H43.9696C43.7896 29.9136 43.5056 30.1088 43.1456 30.1088C42.3936 30.1088 41.86 29.2448 41.86 27.9792C41.86 26.5824 42.5032 25.6912 43.2568 25.6912C43.6776 25.6912 43.9416 25.96 44.0992 26.3136H44.1208L44.14 25.804L44.144 25.8008ZM43.9872 27.5392C43.9872 27.4496 43.9872 27.36 43.9656 27.2968C43.8968 26.9432 43.7232 26.6968 43.4536 26.6968C43.1224 26.6968 42.832 27.1392 42.832 27.94C42.832 28.5832 43.0536 29.0944 43.4544 29.0944C43.6968 29.0944 43.8976 28.872 43.9664 28.54C43.9864 28.4504 43.9864 28.2976 43.9864 28.1864V27.5384L43.9872 27.5392ZM46.3584 28.8944C45.984 28.8944 45.7152 29.1568 45.7152 29.5584C45.7152 29.9368 45.9832 30.2224 46.3576 30.2224C46.732 30.2224 47.0008 29.9368 47.0008 29.5584C47.0008 29.1624 46.7312 28.8944 46.3568 28.8944H46.3584ZM51.1984 24.1224L52.5048 30.1384H51.4808L51.148 28.5824H49.9512L49.6392 30.1376H48.664L49.9504 24.1216H51.1944L51.1984 24.1224ZM51.0448 27.5808L50.7768 26.2944C50.7072 25.9408 50.6248 25.4928 50.5544 25.14H50.5328C50.4648 25.4936 50.4016 25.9624 50.3328 26.2944L50.0912 27.5808H51.0432H51.0448ZM55.88 28.7344H55.8536V25.7824H54.9016V28.3824C54.9016 28.492 54.9016 28.5824 54.88 28.6704C54.8376 28.8664 54.6848 29.1344 54.416 29.1344C54.084 29.1344 53.952 28.756 53.952 28.1128V25.76H52.992V28.312C52.992 29.6672 53.4344 30.2208 54.056 30.2208C54.6104 30.2208 54.9008 29.7752 55.0112 29.5088H55.032L55.0744 30.1288H55.8968C55.8968 29.7768 55.8792 29.3072 55.8792 28.7328L55.88 28.7344ZM57.7464 24.5184L56.8104 24.808V25.76H56.4104V26.756H56.8104V28.532C56.8104 29.132 56.8984 29.548 57.08 29.8176C57.2384 30.044 57.48 30.1968 57.792 30.1968C58.0608 30.1968 58.2824 30.1568 58.4144 30.0888V29.0664C58.3204 29.0942 58.2229 29.1085 58.1248 29.1088C57.8368 29.1088 57.7464 28.8656 57.7464 28.3328V26.7568H58.4312V25.7608H57.7456V24.52L57.7464 24.5184ZM62.0056 27.892C62.0056 29.4896 61.2056 30.2224 60.388 30.2224C59.5024 30.2224 58.812 29.3792 58.812 27.9824C58.812 26.5632 59.4552 25.6728 60.4304 25.6728C61.364 25.6728 62.0064 26.5848 62.0064 27.892H62.0056ZM61.0104 27.94C61.0104 27.296 60.8304 26.632 60.4104 26.632C59.9656 26.6256 59.7864 27.296 59.7864 27.9384C59.7864 28.692 60.008 29.2456 60.4104 29.2456C60.788 29.2456 61.0104 28.7128 61.0104 27.9384V27.94ZM66.2424 25.6544C66.0216 25.6544 65.8472 25.744 65.668 25.876C65.4988 26.0233 65.3625 26.2045 65.268 26.408H65.2464C65.1152 25.964 64.804 25.6744 64.4032 25.6744C63.8752 25.6744 63.6032 26.0904 63.4736 26.3592H63.4528L63.4104 25.7592H62.608C62.608 26.1592 62.6288 26.6008 62.6288 27.1544V27.1608H62.6128V30.1128H63.5448V27.5608C63.5448 27.4512 63.5664 27.34 63.5872 27.2296C63.6512 27.0096 63.7872 26.7416 64.0312 26.7416C64.3432 26.7416 64.476 27.1208 64.476 27.6744V30.1144H65.4096V27.568C65.4096 27.456 65.432 27.304 65.4528 27.2136C65.5168 26.9712 65.6752 26.7496 65.8968 26.7496C66.2088 26.7496 66.34 27.1016 66.34 27.7456V30.1176H67.272V27.544C67.272 26.2584 66.824 25.6576 66.2496 25.6576L66.2424 25.6544ZM70.5928 29.0816C70.5928 29.504 70.6136 29.9056 70.6352 30.1456H69.7712V30.1296L69.704 29.688H69.68C69.48 30.0432 69.168 30.2224 68.816 30.2224C68.192 30.2224 67.84 29.5784 67.84 28.888C67.84 27.7536 68.552 27.2 69.6368 27.2216V27.1528C69.6368 26.932 69.5472 26.6008 69.0832 26.6008C68.7712 26.6008 68.44 26.7528 68.24 26.932L68.06 26.068C68.2816 25.888 68.6824 25.688 69.236 25.688C70.2584 25.688 70.5912 26.552 70.5912 27.576V29.0816H70.5928ZM69.6648 28.5344L69.6592 28.0704C69.1512 28.0704 68.7768 28.2224 68.7768 28.7552C68.7768 29.1088 68.9288 29.2672 69.156 29.2672C69.3984 29.2672 69.5776 29.0448 69.6464 28.7552C69.668 28.6864 69.668 28.6032 69.668 28.5336L69.6648 28.5344ZM72.3896 24.5184L71.4552 24.8064V25.76H71.0552V26.7552H71.4552V28.5312C71.4552 29.1312 71.5448 29.5472 71.724 29.816C71.8824 30.0424 72.124 30.1952 72.436 30.1952C72.7048 30.1952 72.9264 30.1552 73.0584 30.0856V29.064C72.9644 29.0918 72.8669 29.1061 72.7688 29.1064C72.4792 29.1064 72.3896 28.864 72.3896 28.3304V26.7544H73.0752V25.76H72.3928V24.52L72.3896 24.5184ZM76.392 27.832C76.392 28.0536 76.3712 28.2752 76.3712 28.3648H74.376V28.3808H74.3704C74.3904 28.9328 74.7912 29.2016 75.2344 29.2016C75.5664 29.2016 75.8104 29.1328 76.0776 29.0224L76.2104 29.9344C75.8984 30.1136 75.524 30.2032 75.1024 30.2032C74.0584 30.2032 73.484 29.3376 73.484 27.9832C73.484 26.8768 73.9744 25.6536 75.0392 25.6536C76.0152 25.6536 76.3944 26.7392 76.3944 27.8312L76.392 27.832ZM75.4736 27.448C75.4736 27.1152 75.3616 26.5616 74.9376 26.5616C74.5376 26.5616 74.3856 27.0736 74.3632 27.4472H75.4704L75.4736 27.448ZM79.9096 28.8288C79.9096 29.3184 79.9304 29.824 79.9304 30.1352H79.0904L79.048 29.4928H79.0272C78.8272 29.9824 78.4752 30.2248 78.0752 30.2248C77.3432 30.2248 76.7688 29.3384 76.7688 27.9848C76.7688 26.5176 77.412 25.6528 78.1448 25.6528C78.524 25.6528 78.8088 25.8328 78.9464 26.144H78.9664V23.776H79.9208V23.792H79.9152V28.832L79.9096 28.8288ZM78.9768 27.6048C78.9768 27.536 78.9768 27.4256 78.956 27.3624C78.8872 27.0104 78.6872 26.6984 78.4024 26.6984C77.9808 26.6984 77.7384 27.2528 77.7384 27.9432C77.7384 28.676 78.0072 29.14 78.3816 29.14C78.6504 29.14 78.872 28.8704 78.9352 28.496C78.9544 28.408 78.9544 28.296 78.9544 28.184V27.6112H78.9752V27.6064L78.9768 27.6048ZM81.3544 28.8928C80.98 28.8928 80.7112 29.1544 80.7112 29.5568C80.7112 29.9344 80.9752 30.2208 81.3528 30.2208C81.7272 30.2208 81.996 29.9344 81.996 29.5568C81.996 29.16 81.7272 28.8928 81.3528 28.8928H81.3544ZM8.0128 21.5888H0V0H7.9232C11.4288 0 13.3376 1.888 13.3376 4.9712V6.5264C13.3376 8.5664 12.5152 10.164 10.3216 10.5424C12.6312 11.0336 13.4752 12.5624 13.4752 14.56V16.648C13.4488 19.748 11.5192 21.5936 8.0128 21.5936V21.5888ZM4.66 9.136H7.0576C8.2544 9.136 8.8976 8.512 8.8976 7.248V5.384H8.9184V5.3888C8.9184 4.3248 8.4736 3.6344 7.2512 3.6344H4.6592V9.1384L4.66 9.136ZM7.344 17.976C8.5408 17.976 9.0096 17.3336 9.0096 16.2688V14.272C9.0096 13.0056 8.3664 12.3624 7.1696 12.3624H4.66V17.9768H7.344V17.976ZM27.4776 19.148V21.8312H26.5656V21.8552C25.036 21.8552 23.9448 21.2104 23.6136 19.6152C22.7016 21.0992 21.2824 21.8552 19.464 21.8552C17.1552 21.8552 15.448 20.3272 15.448 17.6576V17.4576C15.448 14.084 18.4624 13.0176 22.7488 12.3072V10.2C22.7488 9.288 22.2368 8.736 21.1936 8.736C20.0864 8.736 19.7072 9.248 19.7072 10.2904V11.2024H16.0912V10.4488C16.0912 7.7888 17.688 5.7208 21.352 5.7208C25.0584 5.7208 26.5656 7.9608 26.5656 10.9368V18.3064C26.5656 18.8824 26.8552 19.1512 27.4776 19.1512V19.148ZM22.716 17.376V14.4032C20.2584 14.7568 19.148 15.4472 19.148 17.0016V17.576C19.148 18.488 19.7 19.1312 20.676 19.1312C21.7832 19.1312 22.716 18.4192 22.716 17.376ZM33.5976 0H29.648V21.5936H33.5976V0ZM40.4088 0.3536H36.5528V3.8592H40.4128V0.3536H40.4088ZM40.4808 6.036H36.5288V21.592H40.48V6.0368L40.4808 6.036ZM50.8448 10.5384V21.5944H54.7512V10.0744C54.7512 7.4744 53.4176 5.7672 51.156 5.7672C49.5384 5.7672 48.0936 6.7432 47.34 8.4952V0H43.3912V21.5872H47.34V11.312C47.34 10.4272 48.0936 8.7616 49.2904 8.7616C50.2024 8.7616 50.8464 9.4736 50.8464 10.5376L50.8448 10.5384ZM67.7568 11.3448L67.8256 16.3608C67.8624 19.8408 65.6688 21.908 62.3856 21.9496C59.032 21.992 56.7696 19.9736 56.728 16.5144L56.6592 11.5008C56.6192 8.0632 58.8112 5.8864 62.1632 5.8448C65.4488 5.8016 67.7104 7.9056 67.7584 11.3488L67.7568 11.3448ZM64.0304 17.1104L63.9608 10.6304C63.9392 9.524 63.2488 8.7904 62.2048 8.8128C61.0976 8.8336 60.4768 9.5888 60.4768 10.6792L60.5648 17.1592C60.5864 18.2656 61.2288 18.9992 62.3424 18.9768C63.3864 18.9552 64.0504 18.2008 64.0304 17.1096V17.1104ZM69.8864 16.3344L69.8176 11.3216C69.7752 7.884 71.9696 5.7056 75.3216 5.6656C78.6056 5.6224 80.8656 7.7264 80.9136 11.1696L80.984 16.1824C81.0256 19.6672 78.8272 21.7288 75.544 21.7704C72.1904 21.8128 69.928 19.7944 69.8864 16.3352V16.3344ZM73.6352 10.5056L73.7256 16.9856C73.7464 18.092 74.3896 18.8256 75.5016 18.8016C76.5464 18.7824 77.2104 18.0256 77.1896 16.9376L77.12 10.4576C77.0984 9.3504 76.408 8.6176 75.364 8.6392C74.2576 8.66 73.636 9.4152 73.636 10.5056H73.6352ZM80.6672 6.192H81.1792V7.704H81.6V6.188H82.112V5.836H80.6664V6.188L80.6672 6.192ZM84.3104 7.7056L84.2 5.8376H83.6456L83.4456 6.46C83.3709 6.67702 83.311 6.89887 83.2664 7.124C83.2232 6.9032 83.1816 6.6816 83.1128 6.46L82.9344 5.8376H82.3808L82.2704 7.704H82.6704L82.7136 6.992C82.736 6.7488 82.7568 6.4584 82.7568 6.216C82.8048 6.4584 82.8688 6.728 82.9376 6.9488L83.1376 7.6816H83.4688L83.6912 6.9496C83.7592 6.728 83.8224 6.4592 83.8912 6.2168C83.8912 6.5 83.912 6.7688 83.912 6.9928L83.8904 7.7048H84.3144L84.3104 7.7056Z" fill="#1F304C"/>
</g>
<defs>
<clipPath id="clip0">
<rect width="84.8" height="32" fill="white"/>
</clipPath>
</defs>
</svg>
