<svg fill="none" height="36" viewBox="0 0 50 36" width="50" xmlns="http://www.w3.org/2000/svg" xmlns:xlink="http://www.w3.org/1999/xlink"><clipPath id="a"><path d="m0 0h50v36h-50z"/></clipPath><g clip-path="url(#a)" clip-rule="evenodd" fill="#1f304c" fill-rule="evenodd"><path d="m.896828 22.3306c1.234202.0911 2.779922.0092 4.048442.0105 2.40504.004 4.6794.0225 7.07653-.0448 1.2738-.037 2.768-.6627 3.7963-1.3742 1.852-1.2817 2.6492-3.3699 2.5648-5.6152-.107-2.8737-1.0785-3.8769-3.135-5.0992.194-.231 1.0375-.67848 1.7146-1.87572.5109-.9042.6165-2.00376.4238-3.02016-.3723-1.95888-1.3214-3.28944-2.9436-4.34016-1.8507-1.19592-4.1739-.9503999-6.27003-.9503999l-7.277162.0066zm4.527602-17.98502c.80388-.00132 4.29264-.05016 4.79947.00924.5003.06072 1.2831.0924 1.7583.63756.4382.50424.7352.9768.7379 1.67772.0026 1.47312-1.0917 2.34696-2.5186 2.35092-.96227.00264-4.05371.0462-4.77839-.00924zm0 8.16952c1.7292-.004 3.6432-.0344 5.35127-.008.7788.0119 1.3688.3076 1.8242.8699.9953 1.2263 1.0613 2.6836-.0343 3.7739-.5993.5966-.9702.7616-1.844.8078-.5901.0304-4.75993.0383-5.29849.0014z"/><path d="m21.7073 8.05624c.2469.46992 1.8097 2.92116 2.0341 3.28156.5148-.231 7.5029-4.1422 7.1954.726-1.9906.1333-5.0147.4052-6.6964 1.2592-.8712.3987-1.5906 1.0851-2.0315 1.9233-.4343.8263-.8883 2.3007-.5544 3.6181.3762 1.7094 1.6447 2.9251 3.7369 3.5693 2.9991.9227 5.1111-.0145 6.2727-1.2144 1.4441 1.4639 1.9272 1.4652 3.9204 1.5787.3801-1.0441 1.0137-2.2453 1.4599-3.3198-1.5008-.3538-1.6447-1.0098-1.654-1.3688-.2032-3.6617.2297-6.6476-.2745-8.69884-.231-.93984-.7089-1.7754-1.4441-2.22684-2.9119-2.01168-7.3339-1.77672-10.3066-.04488-.491.28644-1.0956.58608-1.6579.9174zm9.2229 7.27976c.0343.6917.0066 1.4586.0066 2.1582-.0212 1.8414-2.8565 2.1371-4.1448 1.1656-.8184-.6151-.9518-2.0882.1267-2.5027 1.1735-.4528 2.57-.7234 4.0115-.8211z"/><path d="m14.8972 28.0979c.0884.169.6508 1.0508.7313 1.1801.1848-.0831 2.6994-1.4903 2.5885.2614-.7154.0475-1.8044.1452-2.409.4527-.3142.1426-.5716.3894-.73.6917-.1557.2983-.3194.8277-.2006 1.3015.136.6152.5927 1.0521 1.3451 1.2844 1.0784.3313 1.8374-.0053 2.2559-.4369.5187.5267.693.5267 1.4097.5676.1373-.3762.3657-.8079.5267-1.1933-.5399-.128-.5927-.3643-.5953-.4924-.0739-1.3186.0818-2.3918-.099-3.1297-.0832-.3379-.2548-.6389-.5188-.8012-1.0481-.7234-2.6387-.6389-3.7092-.0159-.1769.103-.3933.2099-.5953.33zm3.3172 2.6176c.0118.2495.0026.5254.0026.7775-.0026.2033-.1228.4158-.3485.5029-.3155.1373-.7445.2165-1.1431-.0832-.1808-.1359-.2746-.322-.2204-.5689.0145-.1465.066-.2534.2296-.3181.3551-.1399.9676-.2746 1.4798-.3102z"/><path d="m44.3085 7.92991-.0093-1.45596-4.3639-.00132v15.81627l4.3705-.0317c0-2.7601-.128-5.7314.0053-8.4599.2152-3.3132 3.6683-3.6537 5.0411-3.428l-.0159-4.2095c-1.7833-.0066-2.4974-.04884-4.055.99263-.2719.18084-.7946.6996-.9728.77748z"/><path d="m-.00048828 33.2438h1.76879828l.4356-1.4308 2.98056.0118.42108 1.4177 1.7886.0013c-.90948-2.6769-1.72128-5.3526-2.65584-8.011h-2.13972c-.21384.8368-.99528 3.0663-1.31472 3.9969-.1848.532-1.2605983 3.7119-1.28435828 4.0141zm3.68147828-6.229 1.06788 3.3739h-2.12388z"/><path d="m45.4751 31.2967c-.3683.396-.9082.9055-1.0481 1.0573.6244.5346 1.2408 1.0217 2.3694 1.0441 3.0928.0647 3.0347-2.6254 1.8678-3.3462-.8316-.6124-2.5014-.2006-2.2783-1.0269.0356-.1281.2534-.4317.7075-.4105.6296.029 1.093.3867 1.3609.6151l.9465-1.089c-.3327-.1439-.5518-.4013-.9993-.5676-1.1167-.4171-2.8934-.3934-3.461.8831-.3762.8461-.1083 1.7806.6626 2.2281.8501.4171 2.2717.2653 2.2348.9663-.0291.5293-1.3121.6916-2.3628-.3538z"/><path d="m24.9764 33.5687-.1875 1.3833c.8277.103 1.9919.4066 2.5978-.326.2416-.2904 2.306-6.2397 2.6083-7.0937l-1.6064.0013-1.2369 3.3343-1.1668-3.3382-1.6065.029c.6508 1.7437 1.2052 3.4584 1.852 5.1704.4092 1.0811-.5967.891-1.254.8396z"/><path d="m10.0129 27.8297-.04884-.3247-1.5642.0106-.00264 5.6984 1.58928-.0053c.00132-.8857-.00132-1.98-.00132-2.8657 0-.3445-.02508-.8554.17692-1.0837.5095-.6165 1.3873-.5821 1.7463 0 .1927.3075.1281.8712.1254 1.2395v2.7178l1.588-.0158c0-.8435-.004-2.4116.0013-3.5851.0013-.4449-.1558-.8224-.2732-1.0679-.3644-.7616-1.5933-1.3913-2.5199-1.1167-.3617.1069-.5491.3023-.8171.3986z"/><path d="m43.9758 31.5706-1.4744-.5082c-.6983 1.7266-2.343.9517-2.2849-.7194-.0317-1.7648 1.679-2.2862 2.2862-.6798l1.4639-.5174c-.8395-2.6691-5.2061-2.607-5.3302 1.1444-.1214 3.6762 4.4009 4.1725 5.3394 1.2804z"/><path d="m31.5081 25.7189-.0053 1.745-.9134.004v1.3121l.9187.0237c.0013 1.1788-.0093 2.4156.0053 3.1733.0171.9385.4567 1.3649 1.4757 1.4071.5161.0225 1.3174-.033 1.7701-.297l-.3682-1.2263c-.8303.2522-1.2884.1479-1.3002-.3907l.0092-2.6862 1.4441-.0092v-1.3042l-1.4415-.0079-.0264-2.207c-.6204.1782-.8434.2283-1.5681.4633z"/><path d="m24.0548 33.164-.1386-1.3557c-.1756.037-.9293.1294-.9293-.2679l-.0079-6.2832-1.5708.0092c-.0278 2.0896-.0014 4.2161-.0066 6.303-.0027.2733-.0779 1.056.4197 1.4599.499.4792 1.6276.3182 2.2335.1347z"/><path d="m36.6668 25.1924c.4924 0 .8937.3999.8937.8936s-.4013.8936-.8937.8936c-.4936 0-.8936-.3999-.8936-.8936s.4-.8936.8936-.8936z"/><path d="m35.8894 33.2495h1.588v-5.7063h-1.588z"/></g></svg>