<svg fill="none" height="28" viewBox="0 0 180 28" width="180" xmlns="http://www.w3.org/2000/svg" xmlns:xlink="http://www.w3.org/1999/xlink"><clipPath id="a"><path d="m0 0h179.9v28h-179.9z"/></clipPath><g clip-path="url(#a)"><path d="m48.629 13.4736c1.8928-.6986 2.912-2.534 2.912-4.6298 0-3.0576-1.7472-5.2416-5.5328-5.2416h-7.658v20.384h7.3668c3.4944 0 6.4064-1.456 6.4064-5.5335 0-2.471-1.456-4.3645-3.4944-4.977zm-6.6976-6.7844h3.115c1.5442 0 2.7671.6986 2.7671 2.562 0 1.778-.931 2.7965-2.7664 2.7965h-3.115v-5.3557zm3.0282 14.2394h-3.0282v-5.7946h3.64c1.7185 0 2.8245.9898 2.8245 2.94 0 1.981-1.2229 2.8546-3.437 2.8546zm16.436-11.7936c-4.7166 0-7.0756 2.7664-7.0756 7.8036 0 4.8629 2.3009 7.3381 6.6976 7.3381 1.7185 0 3.7856-.2884 5.2416-.8708v-2.7699c-1.253.4956-3.1451.875-4.571.875-2.156 0-3.5826-1.1648-3.6694-4.3099h8.5904c.9604-4.2805-.175-8.0661-5.2129-8.0661zm2.0678 5.6784h-5.2416c.2912-2.1259 1.5141-2.8826 2.9414-2.8826 2.184 0 2.562 1.484 2.3002 2.8826zm12.1534 6.4064c.525 0 1.1942-.0875 2.0678-.378v2.8532c-.8155.2912-2.534.5824-3.5238.5824-1.9222 0-3.7275-.5824-3.7275-3.4944v-8.8235h-1.6625v-2.2421l1.659-.2912.7868-4.368h2.8245v4.368h3.4356v2.534h-3.4356v7.28c0 1.484.4669 1.9796 1.5729 1.9796zm10.6218 0c.525 0 1.1942-.0875 2.0678-.378v2.8532c-.8155.2912-2.534.5824-3.5238.5824-1.9222 0-3.7275-.5824-3.7275-3.4944v-8.8235h-1.659v-2.2421l1.659-.2912.7861-4.368h2.8245v4.368h3.437v2.534h-3.437v7.28c.0035 1.484.469 1.9796 1.575 1.9796zm10.8458-12.0848c-4.718 0-7.077 2.7664-7.077 7.8036 0 4.8629 2.3009 7.3381 6.699 7.3381 1.7178 0 3.7846-.2884 5.2406-.8708v-2.7699c-1.253.4956-3.1476.875-4.5742.875-2.1546 0-3.5819-1.1648-3.668-4.3099h8.5892c.961-4.2805-.175-8.0661-5.2124-8.0661zm2.0671 5.6784h-5.2416c.2912-2.1259 1.5141-2.8826 2.9414-2.8826 2.184 0 2.562 1.484 2.2974 2.8826zm9.8555-3.64c1.515-1.253 2.621-2.0384 4.571-2.0384v3.087c-1.6 0-3.144.1449-4.629 1.0185v10.745h-3.582v-14.56l3.29-.2912h.292v2.037h.058zm17.527-7.5712h3.931l-5.796 20.5296h-4.543l-5.852-20.5296h3.929l4.222 15.869h.059l4.047-15.869zm10.717 5.5328c-4.805 0-6.755 3.1738-6.755 7.5712s1.98 7.5712 6.755 7.5712 6.727-3.1738 6.727-7.5712-1.981-7.5712-6.727-7.5712zm0 12.376c-2.096 0-3.058-1.428-3.058-4.8055 0-3.3488.961-4.7754 3.058-4.7754 2.067 0 3.028 1.4266 3.028 4.7754 0 3.3782-.963 4.8048-3.031 4.8048zm12.811-12.376h.292v14.8505h-3.579v-14.56l3.29-.2905zm-3.29-7.1631h3.582v3.843h-3.579v-3.843zm13.664 7.1631c1.312 0 3.35.2618 4.777.8442v2.7664c-1.078-.4368-2.971-.8155-4.513-.8155-2.648 0-3.929 1.631-3.929 4.7754 0 3.6694 1.893 4.8048 4.018 4.8048 1.456 0 3.262-.3815 4.427-.8176v2.7664c-1.428.553-3.552.8155-5.154.8155-4.281 0-6.99-2.4171-6.99-7.5712 0-4.8048 2.621-7.5712 7.367-7.5712zm13.751 0c-4.718 0-7.077 2.7664-7.077 7.8036 0 4.8629 2.3 7.3381 6.699 7.3381 1.717 0 3.784-.2884 5.24-.8708v-2.7699c-1.253.4956-3.144.875-4.571.875-2.156 0-3.582-1.1648-3.669-4.3099h8.589c.961-4.2805-.175-8.0661-5.211-8.0661zm2.067 5.6784h-5.239c.291-2.1259 1.515-2.8826 2.941-2.8826 2.184 0 2.562 1.484 2.3 2.8826zm-162.254-14.8134c-7.7294 0-14 6.2685-14 14 0 7.7301 6.2699 14 13.9979 14 7.7336 0 14.0021-6.2699 14.0021-14 0-7.7322-6.2692-14-14.0028-14zm.266 6.461c-.6142.00093-1.203.24533-1.6373.67966-.4344.43432-.6788 1.02312-.6797 1.63734v10.7086c.0081.6094.2557 1.1912.6892 1.6195.4336.4283 1.0183.6688 1.6278.6695.6146-.0006 1.2038-.245 1.6382-.6797.4345-.4347.6786-1.0241.6788-1.6387-.0004-.4861-.1538-.9598-.4383-1.354-.2845-.3941-.6858-.6888-1.147-.8423s-.9591-.1581-1.4231-.0131c-.4639.1451-.8705.4324-1.1622.8213v-2.3996c.576-.2852 1.2101-.4338 1.8529-.434 1.1189.0019 2.1915.4472 2.9827 1.2383.7911.7912 1.2364 1.8638 1.2383 2.9827 0 2.331-1.897 4.221-4.2224 4.221-1.1086-.0013-2.1722-.4381-2.9618-1.2163-.7895-.7782-1.2418-1.8354-1.2592-2.9438v-10.7394c.0019-1.11891.4472-2.19146 1.2383-2.98265.7912-.79119 1.8638-1.2365 2.9827-1.23835 2.3254 0 4.2224 1.8942 4.2224 4.221-.0015 1.11952-.4469 2.1927-1.2386 2.9843s-1.865 1.2368-2.9845 1.2381c-.643-.0001-1.2774-.1487-1.8536-.434v-2.3996c.2153.2882.4948.5222.8163.6834.3215.1613.6762.2453 1.0359.2455.3043 0 .6056-.0599.8867-.1764.2811-.1164.5365-.2871.7517-.5022.2151-.2152.3858-.47061.5022-.75172.1165-.28111.1764-.58241.1764-.88668s-.0599-.60557-.1764-.88668c-.1164-.28111-.2871-.53653-.5022-.75169-.2152-.21515-.4706-.38582-.7517-.50226s-.5824-.17637-.8867-.17637z" fill="#1f304c"/></g></svg>