<svg fill="none" height="22" viewBox="0 0 157 22" width="157" xmlns="http://www.w3.org/2000/svg" xmlns:xlink="http://www.w3.org/1999/xlink"><clipPath id="a"><path d="m0 0h156.64v22h-156.64z"/></clipPath><g clip-path="url(#a)" fill="#1f304c"><path d="m0 .879993h9.328c1.9874-.099471 3.9381.561267 5.456 1.847997.4549.44689.8142.98153 1.0563 1.57148.242.58996.3617 1.22293.3517 1.86052.0204.98657-.2532 1.95689-.786 2.78745-.5328.83057-1.3008 1.48376-2.206 1.87656 2.464.88 4.136 2.2 4.136 5.016v.088c0 3.696-3.08 5.72-7.656 5.72h-9.68zm12.496 5.895997c0-1.584-1.32-2.64-3.696-2.64h-5.192v5.544h5.016c2.288-.088 3.872-.968 3.872-2.904zm-3.08 5.98401h-5.808v5.72h6.072c2.464 0 4.048-.968 4.048-2.816v-.088c-.088-1.848-1.496-2.816-4.312-2.816z"/><path d="m23.232 0h-3.608v21.648h3.608z"/><path d="m25.4319 17.16c0-3.432 2.64-5.104 6.424-5.104 1.4392-.0257 2.8709.2129 4.224.704v-.44c0-2.2-1.408-3.432-3.872-3.432-1.5491-.01212-3.0817.31844-4.488.968l-.968-2.816c1.8449-.85716 3.8622-1.27868 5.896-1.232 2.376 0 4.048.616 5.192 1.76.5862.65523 1.036 1.42071 1.3231 2.25172.2871.83098.4057 1.71088.3489 2.58828v9.24h-3.52v-1.936c-.5963.7501-1.3616 1.3484-2.2334 1.7461s-1.8253.5834-2.7826.5419c-2.904 0-5.544-1.76-5.544-4.84zm10.736-1.144v-1.056c-1.1249-.422-2.3186-.6309-3.52-.616-2.288 0-3.696.968-3.696 2.64v.088c0 1.496 1.32 2.376 3.08 2.376 2.376-.088 4.136-1.496 4.136-3.432z"/><path d="m41.448 13.904c-.0188-1.084.1794-2.1609.5829-3.1672.4035-1.00636 1.0042-1.92182 1.7668-2.69257.7625-.77074 1.6715-1.3812 2.6735-1.79546 1.0019-.41427 2.0766-.62396 3.1608-.61676 1.1805-.05147 2.3571.16756 3.44.64036 1.0828.4728 2.0433 1.18687 2.808 2.08764l-2.288 2.37599c-.4911-.6002-1.1085-1.08479-1.8081-1.4194-.6996-.3346-1.4644-.51098-2.2399-.51659-.6316.0236-1.2521.17271-1.8254.43864-.5734.26592-1.088.64334-1.5139 1.11025-.426.4669-.7547 1.0139-.967 1.6092s-.304 1.2268-.2697 1.8579v.088c0 2.816 1.936 5.016 4.664 5.016.7722-.0238 1.531-.2083 2.2279-.5416.697-.3334 1.3168-.8082 1.8201-1.3944l2.2 2.112c-.7702.9514-1.7522 1.7095-2.8676 2.2138-1.1155.5042-2.3333.7406-3.5564.6902-1.0594.0013-2.1085-.208-3.0864-.6155s-1.8651-1.0052-2.6101-1.7584-1.333-1.6469-1.7298-2.6292c-.3968-.9822-.5945-2.0336-.5817-3.0929z"/><path d="m57.8159 0h3.608v12.936l6.512-6.952h4.4l-6.248 6.424 6.424 9.24h-4.224l-4.664-6.776-2.2 2.288v4.488h-3.608z"/><path d="m78.056 19.184v2.464h-3.608v-21.648h3.608v8.624c.5815-.89346 1.3772-1.62722 2.3148-2.13444s1.9872-.77178 3.0532-.76956c3.696 0 7.304 2.904 7.304 8.096v.088c0 5.192-3.52 8.096-7.304 8.096-1.0616.0332-2.1138-.2086-3.0543-.702-.9406-.4934-1.7376-1.2217-2.3137-2.114zm8.888-5.368c0-3.08-2.024-5.016-4.488-5.016s-4.576 2.024-4.576 5.016v.088c0 2.992 2.112 5.016 4.576 5.016s4.488-2.024 4.488-5.104z"/><path d="m91.8719 13.904c-.0059-1.0954.2068-2.181.6259-3.1931.4192-1.01205 1.0361-1.93026 1.8148-2.70073.7787-.77048 1.7034-1.37771 2.7198-1.78608 1.0165-.40838 2.1043-.60968 3.1996-.59209 1.084-.02931 2.162.15812 3.172.55129 1.011.39318 1.932.98417 2.711 1.7383s1.399 1.65621 1.824 2.65331c.426.9971.647 2.0691.653 3.1531v.088c.012 2.2172-.858 4.3482-2.418 5.9243-1.559 1.5761-3.681 2.468-5.898 2.4797-2.2173.0117-4.3483-.8579-5.9244-2.4175-1.576-1.5595-2.468-3.6813-2.4797-5.8985zm13.1121 0c.028-.6557-.076-1.3103-.305-1.925-.23-.6147-.581-1.1769-1.033-1.6531-.452-.47623-.994-.85673-1.596-1.11887-.602-.26213-1.25-.40056-1.906-.40703-.6473-.00227-1.2882.12796-1.8832.38267-.5951.25471-1.1317.62851-1.5768 1.09843-.4452.4698-.7895 1.0259-1.0117 1.6338s-.3176 1.2549-.2804 1.9011v.088c-.0222.6426.0835 1.2833.3111 1.8846.2276.6014.5726 1.1515 1.0148 1.6182.4423.4668.9729.841 1.5611 1.1008s1.2222.4 1.8651.4124c.654.0118 1.303-.1112 1.907-.3614.605-.2502 1.151-.6222 1.605-1.0929.454-.4706.806-1.0297 1.035-1.6425.228-.6128.328-1.2661.293-1.9192z"/><path d="m109.736 17.16c0-3.432 2.64-5.104 6.424-5.104 1.439-.0257 2.871.2129 4.224.704v-.44c0-2.2-1.408-3.432-3.872-3.432-1.549-.01212-3.082.31844-4.488.968l-.968-2.816c1.845-.85716 3.862-1.27868 5.896-1.232 2.376 0 4.048.616 5.192 1.76.586.65523 1.036 1.42071 1.323 2.25172.287.83098.406 1.71088.349 2.58828v9.24h-3.52v-1.936c-.628.7356-1.412 1.3225-2.295 1.7182-.882.3957-1.842.5903-2.809.5698-2.816 0-5.456-1.76-5.456-4.84zm10.736-1.144v-1.056c-1.125-.422-2.319-.6309-3.52-.616-2.288 0-3.696.968-3.696 2.64v.088c0 1.496 1.32 2.376 3.08 2.376 2.376-.088 4.136-1.496 4.136-3.432z"/><path d="m126.72 5.984h3.608v3.52c.968-2.376 2.816-3.96 5.544-3.872v3.784h-.176c-3.168 0-5.368 2.024-5.368 6.16v5.984h-3.608z"/><path d="m136.224 13.816c0-5.192 3.52-8.184 7.304-8.184 1.049-.01468 2.086.22599 3.021.70124s1.741 1.17083 2.347 2.02676v-8.36h3.608v21.648h-3.608v-2.64c-.581.8935-1.377 1.6272-2.315 2.1344-.937.5073-1.987.7718-3.053.7696-3.696.088-7.304-2.904-7.304-8.096zm12.672 0c0-3.08-2.112-5.016-4.576-5.016s-4.488 1.936-4.488 5.016v.088c0 2.992 2.112 5.016 4.488 5.016 1.284-.0704 2.487-.6476 3.345-1.6047s1.301-2.2158 1.231-3.4993z"/><path d="m156.64 1.40799c-.001.19217-.041.38215-.118.55838-.076.17624-.188.33504-.328.46675s-.305.23357-.486.29939c-.18.06582-.372.09422-.564.08348-.384.00723-.755-.13605-1.035-.39918s-.445-.62523-.461-1.00882c0-.39677.158-.77728.438-1.057834.281-.2805549.661-.4381687 1.058-.4381687s.777.1576138 1.058.4381687c.28.280554.438.661064.438 1.057834zm-2.64 0c-.005.15155.021.3025.077.44351s.14.26908.247.3763c.107.10723.235.19132.376.24708s.292.082.444.07711c.145-.0045.287-.03782.419-.09801.132-.06018.251-.14603.349-.25253s.174-.23151.224-.36774c.049-.13624.071-.28096.064-.42572.007-.14476-.015-.28949-.064-.42572-.05-.136234-.126-.26125-.224-.367748-.098-.106499-.217-.192347-.349-.252532-.132-.060184-.274-.093501-.419-.098003-.302.004542-.59.126529-.804.340094s-.336.501919-.34.803909zm.88.792h-.352v-1.408003c.342-.117333.714-.117333 1.056 0 .176.088.176.176.176.352003 0 .176-.088.264-.264.352.176.088.264.176.264.352s.088.264.088.352h-.352c-.088-.088-.088-.176-.088-.352.004-.03569 0-.07188-.012-.10585-.011-.03396-.031-.06481-.056-.09022-.025-.02542-.056-.04474-.09-.0565-.034-.01177-.07-.01568-.106-.01143h-.176zm0-.792h.176c.176 0 .352-.088.352-.176-.004-.06866-.033-.13341-.082-.18204-.049-.04864-.113-.07779-.182-.081963h-.176z"/></g></svg>