<svg fill="none" height="30" viewBox="0 0 177 30" width="177" xmlns="http://www.w3.org/2000/svg"><g fill="#1f304c"><path d="m155.923 9.02349c3.25-3.42852 7.861-2.46783 9.166.43892.305-.03349.396-.31552.566-.49885 1.849-1.97426 4.121-2.53304 6.67-1.84734 2.029.54469 2.945 2.11529 3.249 4.08078.11.7842.163 1.5754.158 2.3673.018 2.9667 0 5.9334.02 8.8983 0 .5764-.163.7474-.739.7615-3.328.0758-3.758-.3279-3.758-3.6683 0-2.0271.023-4.0543-.011-6.0796-.016-.9255.043-1.939-1.057-2.3974-.921-.3825-2.188.0159-2.997.9519-.927 1.0577-1.303 2.3462-1.312 3.737-.014 2.2316-.022 4.4633.009 6.6984 0 .5764-.157.7792-.738.758-.998-.037-1.999-.0458-2.997 0-.649.0335-.779-.2292-.774-.8161.025-2.7605.013-5.5209.009-8.2849 0-.3808-.018-.7633-.051-1.1423-.072-.8302-.326-1.5741-1.181-1.9002-.911-.3525-1.749-.1058-2.45.5288-1.162 1.0453-1.636 2.4326-1.685 3.9362-.075 2.2598-.071 4.5214-.05 6.7813 0 .6698-.141.9518-.871.9025-.966-.0652-1.939-.0335-2.906 0-.457.0105-.609-.1446-.609-.6064.015-4.9357.015-9.8713 0-14.80698 0-.45478.129-.64164.598-.60463.409.0335.821 0 1.234 0 1.491.0335 1.958.36137 2.507 1.8121z"/><path d="m104.826 21.7628c-3.672 2.3479-8.6267.8355-10.2467-3.143-1.1176-2.7428-1.1035-5.4944.208-8.1791.9184-1.88434 2.452-3.05657 4.4915-3.49373 2.1942-.47242 4.2602-.17627 6.0622 1.28857.827-.99595 2.707-1.53005 3.908-1.13696.386.12692.255.41952.257.65221.012 1.90904 0 3.81811 0 5.72711v8.1086c0 4.2306-2.311 6.9628-6.492 7.6644-2.508.4213-4.8987.0088-7.2096-1.0136-.5394-.238-.7262-.4883-.4266-1.0576.2451-.4636.3826-.9836.5923-1.4666.4689-1.0771.9748-1.3397 2.0906-.9713 1.2223.4268 2.5213.589 3.8113.4759 2.032-.1992 3.185-1.5635 2.954-3.4549zm-6.2999-7.051c-.024.8824.1851 1.7556.6064 2.5313.2943.5276.7369.9572 1.2725 1.2358.537.2785 1.143.3937 1.743.3313 1.411-.1639 2.222-.8496 2.616-2.2228.289-1.0048.274-2.0272.133-3.0478-.24-1.7381-1.277-2.6441-3.105-2.7322-1.514-.0776-2.6437.7826-3.0773 2.3409-.1353.5117-.1987 1.0397-.1886 1.5688z"/><path d="m12.9012 11.4049c2.9403 2.0624 3.8516 4.4668 2.8204 7.43-.869 2.4854-2.8292 3.6312-5.2741 4.0966-1.88967.3525-3.80574.1251-5.7095.1762-1.14401.0282-2.29155-.0158-3.4338.0159-.468889.0141-.58524-.1428-.583477-.5941.012339-6.3987.000014-12.79742.014115-19.19615 0-1.32381.951872-2.2651 2.280972-2.2792 1.96721-.01939 3.93266 0 5.89987 0 .82337.00562 1.63982.15043 2.41492.42833 1.9901.7051 3.3951 1.9919 3.7776 4.1301.386 2.16817-.1534 4.07368-1.9091 5.52792-.0969.0688-.178.1534-.2979.2644zm-7.86001 5.4381h-.05818c0 .6169.02115 1.2339 0 1.8491-.01939.4442.11459.6363.58876.6257 1.14578-.0246 2.29156.0265 3.43557-.0193 1.60766-.0617 2.61416-1.1617 2.64406-2.8099.0371-1.7627-.9377-2.9455-2.58411-3.0636-.90604-.0652-1.81914-.0458-2.72871-.0299-.7474.0123-1.23392.3966-1.2868 1.1651-.05289.7686-.01059 1.5213-.01059 2.2828zm0-9.03933h-.05113c0 .52882.01411 1.05764 0 1.58646-.01234.35255.0758.54469.48123.52882 1.08232-.02291 2.16819.03172 3.24875-.03703 1.27446-.08109 2.11526-1.1211 2.15056-2.55244.0405-1.38727-.7051-2.37087-1.99017-2.57711-.87079-.14102-1.75218-.0899-2.6265-.04231-.70509.03878-1.14222.46184-1.19862 1.16517-.0617.64163-.02118 1.2868-.02118 1.92844z"/><path d="m68.5756 7.14791c-1.2851 1.91257-2.452 3.66119-3.633 5.40099-.4442.654-1.2234 1.2569-1.2886 1.939-.0581.6029.6928 1.2639 1.033 1.9285 1.0418 2.0359 2.2334 3.9855 3.4179 5.9386.1446.2398.3773.4478.3632.8462-1.4649-.0265-2.9191.0863-4.3734-.0794-.9237-.104-1.4313-.7315-1.8332-1.4772-.7633-1.4101-1.516-2.8415-2.2722-4.264-.073-.1596-.156-.3145-.2485-.4636-.3068-.4319-.7827-.4142-1.1987-.3208s-.1939.4971-.1975.7544c-.0176 1.7011-.0299 3.4056 0 5.112.0106.5587-.1198.7844-.7209.7597-1.1123-.0423-2.2299-.03-3.3492 0-.4812.0123-.661-.1181-.6593-.6381.0165-6.9558.0165-13.9121 0-20.86903 0-.57289.1992-.7051.7051-.66985.6434.03702 1.2921.00001 1.9391.01235 1.3484.03173 1.9795.62929 2.0571 1.99188.0387.67337.0088 1.35026.0088 2.02538 0 2.14173-.0106 4.28523.0123 6.42697 0 .3402-.2538.8814.2063.9959.5834.1411 1.2339.1181 1.6393-.5288.8197-1.285 1.7063-2.53129 2.4678-3.84805.4372-.75446.9413-1.04707 1.8192-.9889 1.2973.07756 2.5841.01586 4.1054.01586z"/><path d="m81.6024 8.94594c1.6693-1.72924 3.5572-2.32506 5.7289-2.09942 2.8997.30142 4.7065 1.96367 4.8352 4.86158.1621 3.7018.0687 7.4035.1005 11.1053 0 .3366-.1429.4001-.4178.3948-.7051-.0141-1.4102.0229-2.1153-.0405-1.4578-.1322-2.0959-.825-2.1065-2.2916-.0194-2.3497 0-4.6994-.0106-7.0509 0-.9396.0565-1.9849-.9412-2.4855-.9978-.5006-2.0836-.2503-3.0179.3314-1.4754.9166-1.9143 2.3815-1.9284 4.0102-.0194 2.2334-.03 4.4668.0106 6.6984.0106.6575-.1658.8814-.8338.8391-1.0577-.0564-2.1153-.0317-3.173 0-.4688.0106-.6751-.0952-.6715-.6275.0176-4.9357.0176-9.8714 0-14.80702 0-.51824.1762-.67513.6592-.63811.379.03173.7633 0 1.1458 0 1.2551-.00176 2.3762.21331 2.7358 1.79977z"/><path d="m43.6684 6.8606c4.9356 0 8.3853 3.4197 8.38 8.3254 0 4.8017-3.5131 8.2567-8.3853 8.262-4.8722.0052-8.3977-3.4903-8.3906-8.3572 0-4.8158 3.4902-8.2302 8.3959-8.2302zm-3.841 8.2567c0 2.0148.8814 3.5254 2.4132 4.1248 2.8062 1.0893 5.4504-1.0242 5.2988-4.2518-.0846-1.7927-.7281-3.2875-2.5155-3.9837-2.7005-1.05064-5.1895.9395-5.1965 4.1107z"/><path d="m25.7656 6.86061c4.8793 0 8.3624 3.45149 8.3677 8.27079s-3.5466 8.3236-8.447 8.313c-4.844-.0105-8.3695-3.5113-8.366-8.3024.0035-4.8617 3.4973-8.29549 8.4453-8.28139zm-3.8939 8.30249c0 1.315.3631 2.4837 1.3538 3.4056 1.5864 1.4666 4.2605 1.2039 5.5226-.5394 1.137-1.5724 1.1441-4.1371.0142-5.7254-.4664-.6501-1.129-1.1335-1.8905-1.3791-.7616-.2456-1.5818-.2404-2.3401.0148-1.6517.5218-2.6565 2.1206-2.6565 4.2235z"/><path d="m141.586 6.86237c4.888 0 8.403 3.44263 8.414 8.23723.01 4.8246-3.556 8.3554-8.428 8.3448-4.905-.0123-8.405-3.4937-8.396-8.3571.007-4.807 3.505-8.2267 8.41-8.22493zm3.845 8.28483c0-.2062.014-.4125 0-.6169-.176-1.9866-1.573-3.5502-3.36-3.7511-1.877-.2098-3.465.8073-4.084 2.6282-.409 1.1754-.388 2.4577.06 3.6189.68 1.8191 2.365 2.7569 4.274 2.4079s3.122-1.9954 3.11-4.2852z"/><path d="m126.079 6.86059c1.527 0 2.979.29087 4.291 1.09644 1.341.8232 2.136 3.14997 1.586 4.51617-.107.2679-.303.2309-.497.2326-.617 0-1.234-.0105-1.851 0-.766.0194-1.329-.319-1.577-1.0259-.238-.6786-.767-.8426-1.356-.9342-3.023-.4777-5.401 2.1646-4.798 5.3199.48 2.5066 2.889 4.0173 5.447 3.4144 1.207-.277 2.312-.8879 3.189-1.7627.306-.3032.477-.3367.705.0775.428.7674.882 1.5201 1.364 2.2581.243.372.176.6328-.125.9131-2.644 2.4079-5.725 3.1535-9.142 2.2122-3.194-.8813-5.235-3.0213-5.804-6.2964-1.044-6.055 3.27-10.0829 8.568-10.02121z"/><path d="m69.8496 15.1842c0-2.4325.0177-4.8651-.0123-7.29592-.0088-.56936.1357-.79852.7262-.74916.728.06169 1.4666.01056 2.1911.10046.9765.11987 1.5072.68041 1.6676 1.64639.0511.31824.0758.64016.074.96247 0 4.16356-.0124 8.32716.0194 12.48896 0 .6945-.1763.9237-.8814.8814-.9658-.0547-1.9339-.0547-2.8997 0-.6434.0335-.862-.1375-.8514-.8197.0423-2.4044.0176-4.8087.0176-7.2131z"/><path d="m71.9738.338463c.3529-.010799.7044.04881 1.034.175348.3296.126539.6307.317479.8857.561659.2551.24418.4589.53671.5996.86051.1407.32381.2155.6724.22 1.02543.0015.71164-.2766 1.39538-.7745 1.90383s-1.1757.80091-1.8872.81432c-.3507.00509-.699-.05895-1.0249-.18845-.326-.12951-.6233-.32193-.8748-.56631-.2516-.24438-.4526-.53592-.5915-.85798-.1389-.32205-.213-.66833-.2181-1.01903s.0589-.69896.1884-1.02492c.1295-.32595.322-.62322.5663-.8748.2444-.251585.536-.452569.858-.591481.3221-.138913.6683-.213033 1.019-.218126z"/><path d="m113.989 23.3827c-.359.0118-.717-.0484-1.052-.1768-.335-.1285-.642-.3228-.901-.5714s-.466-.5466-.608-.8763c-.143-.3297-.218-.6846-.221-1.0437-.003-.3592.066-.7153.202-1.0475.137-.3322.338-.6338.593-.8869.255-.2532.558-.4528.891-.5872s.689-.2008 1.048-.1954c1.458-.0106 2.727 1.2339 2.729 2.6723-.005.7124-.289 1.3945-.789 1.9012-.501.5067-1.18.7979-1.892.8117z"/></g></svg>