<svg fill="none" height="36" viewBox="0 0 66 36" width="66" xmlns="http://www.w3.org/2000/svg" xmlns:xlink="http://www.w3.org/1999/xlink"><clipPath id="a"><path d="m0 0h65.4v36h-65.4z"/></clipPath><g clip-path="url(#a)"><path d="m46.26 17.4c-2.16-4.2-6.48-6.78-11.22-6.78-4.68 0-9 2.58-11.22 6.72-3.3-6.18-10.92-8.51998-17.16-5.28-.6.3-1.14.66-1.68 1.08v-10.67998c0-1.38-1.14-2.45999596-2.58-2.399996-1.32.06-2.34 1.139996-2.4 2.399996v20.99998c.12 7.02 5.88 12.6 12.9 12.48 4.62-.06 8.82-2.64 10.98-6.72 3.24 6.18 10.92 8.58 17.1 5.28 6.18-3.24 8.58-10.92 5.28-17.1zm-33.6 13.5c-4.2 0-7.62-3.42-7.62-7.62s3.42-7.62 7.62-7.62 7.62 3.42 7.62 7.62-3.42 7.62-7.62 7.62zm22.38 0c-4.2 0-7.62-3.42-7.62-7.62s3.42-7.62 7.62-7.62 7.62 3.42 7.62 7.62-3.42 7.62-7.62 7.62zm29.76 1.08-6.48-8.7 6.48-8.64c.78-1.14.48-2.76-.66-3.54-1.08-.72-2.52-.54-3.36.48l-5.64 7.5-5.58-7.5c-.9-1.08-2.52-1.2-3.6-.36-1.02.84-1.2 2.28-.48 3.36l6.48 8.7-6.48 8.7c-.78 1.14-.48 2.76.66 3.54 1.08.72 2.52.54 3.36-.48l5.58-7.5 5.58 7.5c.84 1.14 2.46 1.38 3.54.54s1.44-2.46.6-3.6z" fill="#1f304c"/></g></svg>