<svg fill="none" height="28" viewBox="0 0 195 28" width="195" xmlns="http://www.w3.org/2000/svg" xmlns:xlink="http://www.w3.org/1999/xlink"><clipPath id="a"><path d="m0 0h194.6v28h-194.6z"/></clipPath><g clip-path="url(#a)"><path d="m0 14.3864c0-4.5374 3.2004-7.8624 7.7686-7.8624 2.9218 0 4.6921 1.2432 5.7491 2.674l-2.142 1.9894c-.84-1.183-1.988-1.7731-3.451-1.7731-2.7328 0-4.536 2.051-4.536 4.97s1.8032 5.005 4.536 5.005c1.463 0 2.611-.623 3.451-1.7731l2.1448 1.988c-1.057 1.4315-2.8266 2.6719-5.7484 2.6719-4.5689 0-7.77-3.325-7.77-7.8925zm24.9186 7.5215v-1.617c-1.1186 1.2754-2.8588 1.988-4.8475 1.988-2.4549 0-5.222-1.645-5.222-4.9714 0-3.4482 2.7671-4.8769 5.222-4.8769 2.0202 0 3.7604.6531 4.8475 1.9264v-2.2379c0-1.7402-1.428-2.7972-3.5105-2.7972-1.6786 0-3.1388.623-4.445 1.8956l-1.3356-2.268c1.7402-1.6471 3.9144-2.4255 6.307-2.4255 3.325 0 6.2475 1.3986 6.2475 5.439v9.9449zm0-3.4181v-2.2708c-.7455-1.0234-2.1448-1.5512-3.5735-1.5512-1.834 0-3.2004 1.0549-3.2004 2.702 0 1.617 1.3699 2.674 3.2032 2.674 1.4294 0 2.828-.5292 3.5735-1.554zm6.8642 3.4181v-15.0094h3.2634v2.2071c1.12-1.4315 2.9211-2.548 4.879-2.548v3.2312c-.28-.063-.623-.0931-1.0255-.0931-1.365 0-3.199.9345-3.85 1.9915v10.2228h-3.2641zm9.2274-7.5215c0-4.3491 3.1696-7.8624 7.6132-7.8624 4.5059 0 7.3969 3.451 7.3969 8.1739v.777h-11.5913c.2478 2.2694 1.9565 4.1328 4.7859 4.1328 1.4602 0 3.2004-.588 4.256-1.645l1.491 2.1448c-1.491 1.4322-3.696 2.1756-6.09 2.1756-4.5066 0-7.861-3.136-7.861-7.8925zm7.6132-5.187c-2.7965 0-4.0705 2.142-4.2266 3.976h8.4532c-.0616-1.771-1.274-3.976-4.2266-3.976zm28.2751 12.7085v-10.5049c0-2.1112-.9016-3.4174-3.0149-3.4174-1.617 0-3.4489 1.1802-4.2882 2.548v11.3764h-1.6464v-10.507c0-2.1112-.8708-3.4174-3.0156-3.4174-1.5841 0-3.3859 1.2131-4.2875 2.5788v11.3435h-1.617v-15.0094h1.617v2.268c.6216-.9625 2.6719-2.6425 4.8475-2.6425 2.331 0 3.5735 1.3685 3.9466 2.828.8386-1.3965 2.8588-2.828 4.9721-2.828 2.7664 0 4.102 1.554 4.102 4.571v10.8129zm5.1541-7.5215c0-4.3491 3.0758-7.8624 7.2408-7.8624 4.5682 0 7.084 3.6365 7.084 7.9555v.4368h-12.5524c.154 3.262 2.3296 5.964 5.8716 5.964 1.897 0 3.6365-.714 4.9105-2.0839l.84 1.057c-1.4924 1.554-3.388 2.4234-5.8751 2.4234-4.382 0-7.5194-3.262-7.5194-7.8932zm7.21-6.4638c-3.5434 0-5.3151 3.1094-5.439 5.719h10.9081c-.028-2.548-1.708-5.719-5.467-5.719zm9.3478 11.9966.9639-1.2131c.9607 1.2131 2.7317 2.2071 4.8437 2.2071 2.518 0 4.011-1.3055 4.011-3.045 0-4.102-9.4777-1.8018-9.4777-7.1778 0-2.3002 1.9577-4.1664 5.3447-4.1664 2.579 0 4.288.994 5.376 2.2078l-.901 1.1501c-.872-1.1809-2.485-1.9894-4.476-1.9894-2.331 0-3.76 1.1802-3.76 2.7349 0 3.759 9.478 1.4616 9.478 7.2401 0 2.4234-1.865 4.4121-5.625 4.4121-2.425 0-4.289-.714-5.7818-2.3604zm13.6396 0 .963-1.2131c.964 1.2131 2.734 2.2071 4.849 2.2071 2.517 0 4.008-1.3055 4.008-3.045 0-4.102-9.478-1.8018-9.478-7.1778 0-2.3002 1.958-4.1664 5.345-4.1664 2.583 0 4.291.994 5.376 2.2078l-.898 1.1501c-.87-1.1809-2.487-1.9894-4.475-1.9894-2.33 0-3.759 1.1802-3.759 2.7349 0 3.759 9.478 1.4616 9.478 7.2401 0 2.4234-1.865 4.4121-5.625 4.4121-2.425 0-4.29-.714-5.782-2.3604zm24.486 1.988v-1.7682c-1.337 1.4588-3.015 2.142-5.096 2.142-2.58 0-5.253-1.771-5.253-5.0022 0-3.262 2.642-4.9721 5.252-4.9721 2.082 0 3.791.6839 5.096 2.1455v-3.045c0-2.2386-1.803-3.4489-4.04-3.4489-1.864 0-3.325.6531-4.692 2.205l-.898-1.1179c1.554-1.68 3.294-2.52 5.78-2.52 3.045 0 5.47 1.463 5.47 4.816v10.57h-1.617zm0-2.9526v-3.2921c-1.057-1.3685-2.735-2.0818-4.538-2.0818-2.487 0-4.102 1.5876-4.102 3.7296 0 2.114 1.615 3.6988 4.102 3.6988 1.803 0 3.48-.6832 4.537-2.051zm6.056 6.776.931-1.2439c1.304 1.5575 2.733 2.1175 4.97 2.1175 2.735 0 5.129-1.3685 5.129-4.8188v-2.3611c-1.057 1.5218-2.985 2.7979-5.222 2.7979-3.978 0-6.713-3.017-6.713-7.833 0-4.753 2.735-7.8624 6.713-7.8624 2.144 0 4.008 1.092 5.222 2.8v-2.429h1.646v14.854c0 4.6004-3.108 6.2475-6.776 6.2475-2.517 0-4.134-.4676-5.904-2.2708zm11.032-7.707v-7.3038c-.873-1.4616-2.861-2.7349-4.942-2.7349-3.325 0-5.254 2.765-5.254 6.4015s1.927 6.37 5.252 6.37c2.082 0 4.071-1.2726 4.942-2.7342zm5.152-3.6372c0-4.3491 3.076-7.8624 7.241-7.8624 4.568 0 7.084 3.6365 7.084 7.9555v.4368h-12.553c.154 3.262 2.331 5.964 5.873 5.964 1.897 0 3.637-.714 4.911-2.0839l.839 1.057c-1.491 1.554-3.388 2.4234-5.873 2.4234-4.382 0-7.521-3.262-7.521-7.8932zm7.21-6.4638c-3.542 0-5.315 3.1094-5.439 5.719h10.908c-.032-2.548-1.708-5.719-5.469-5.719zm14.441-6.7571v8.6835h-1.253v-8.6828h-2.777v-1.1662h6.807v1.1655h-2.779zm12.719 8.6835v-8.148l-3.36 8.148h-.357l-3.36-8.148v8.148h-1.253v-9.849h1.925l2.865 7.1645 2.869-7.1645h1.925v9.849h-1.253z" fill="#1f304c"/></g></svg>