<svg fill="none" height="30" viewBox="0 0 98 30" width="98" xmlns="http://www.w3.org/2000/svg" xmlns:xlink="http://www.w3.org/1999/xlink"><clipPath id="a"><path d="m0 0h97.8383v30h-97.8383z"/></clipPath><g clip-path="url(#a)" fill="#1f304c"><path d="m69.7671 8.72474c-1.8351 0-4.028.65319-6.1275 2.92376-2.0996-2.27057-4.308-2.92376-6.1276-2.92376 0 0-7.014-.52877-7.014 7.66716v13.266h5.0856v-12.5195c0-3.6703 2.4572-3.748 2.9393-3.6392 0 0 .8865.0467 1.6952.8865 0 0-1.6174 2.1151-1.7418 4.7745 0 0-.3577 6.8896 5.1633 6.8896s5.1633-6.8896 5.1633-6.8896c-.1244-2.6594-1.7419-4.7745-1.7419-4.7745.8087-.8398 1.6952-.8865 1.6952-.8865.4666-.1088 2.9394-.0311 2.9394 3.6392v12.5195h5.0855v-13.266c-.0156-8.19593-7.014-7.66716-7.014-7.66716zm-6.1431 13.59256c-1.0886 0-1.4463-1.3686-1.4619-2.675-.0311-2.2706 1.4464-3.9036 1.4619-3.9347.0311.0311 1.493 1.6641 1.4619 3.9347 0 1.3064-.3732 2.675-1.4619 2.675z"/><path d="m47.6363 9.06683h-5.0855v20.60657h5.0855z"/><path d="m45.1012.139954c-1.6952 0-3.0949 1.368586-3.0949 3.048216 0 1.69517 1.3842 3.09486 3.0949 3.09486 1.6796 0 3.0482-1.38413 3.0482-3.09486 0-1.64853-1.3841-3.048216-3.0482-3.048216z"/><path d="m26.4539 10.451v-10.451h-5.0389v29.6734h5.0389v-14.8522c8.3515-4.0591 8.0405 2.3639 8.0405 2.3639v12.4883h5.0544v-12.4883c-.0156-12.06846-10.5599-8.08712-13.0949-6.7341z"/><path d="m83.7636 20.3733c2.7061.9486 6.1431.8709 6.1431.8709 8.1493-.0467 7.916-5.972 7.916-5.972-.2021-6.67188-8.0404-6.54746-8.0404-6.54746-6.4852 0-11.0264 4.44786-11.0264 10.80876 0 6.3608 4.4479 10.4665 11.3219 10.4665 2.9238 0 5.7076-.8087 7.6516-2.2239v-4.8989c-2.0373 1.7573-4.479 2.6905-7.0606 2.6905.0155 0-7.0451.3577-6.9052-5.1944zm.6221-4.3391c.8554-2.1617 2.6283-3.297 5.1478-3.297 2.0684 0 3.2659.8709 3.2659 2.255 0 1.944-2.1928 2.1151-4.2457 2.1151-2.0218 0-3.266-.2177-3.8258-.3577l-.5444-.1244z"/><path d="m10.9798 30c3.577 0 6.112-1.353 7.6205-2.4883v-4.93c-2.2239 1.7574-4.8367 2.7683-7.154 2.7683-3.70135 0-6.29855-2.5506-6.29855-6.2209 0-3.4837 2.36391-5.9098 5.73875-5.9098 1.1042 0 2.0528.28 3.0637.5599 1.042.2955 2.1307.6221 3.4215.6221.4044 0 .8087-.0311 1.2131-.0933v-4.69677c-.3422.03111-.6688.06221-1.0109.06221-1.1664 0-2.224-.21773-3.3282-.45101-1.1664-.24883-2.3639-.49767-3.7791-.49767-2.81497 0-5.42772.99534-7.34063 2.83044-2.03732 1.9441-3.12597 4.6501-3.12597 7.8072 0 6.2675 4.51011 10.6376 10.9798 10.6376z"/></g></svg>