<svg width="196" height="32" viewBox="0 0 196 32" fill="none" xmlns="http://www.w3.org/2000/svg">
<path fill-rule="evenodd" clip-rule="evenodd" d="M19.2099 0.18945C19.423 0.310774 19.6096 0.473516 19.7588 0.668086C19.908 0.862657 20.0167 1.08512 20.0786 1.32237C20.1405 1.55962 20.1543 1.80686 20.1192 2.04952C20.084 2.29218 20.0007 2.52536 19.874 2.7353C19.6215 3.15741 19.2211 3.47052 18.7505 3.61373C18.28 3.75694 17.773 3.72001 17.3282 3.51013C16.9173 3.24733 16.6207 2.8392 16.4975 2.36726C16.3744 1.89531 16.4339 1.3943 16.664 0.964274C16.9165 0.542165 17.317 0.229055 17.7875 0.0858451C18.2581 -0.0573648 18.7651 -0.0204356 19.2099 0.18945ZM14.4502 0.300139C14.8611 0.562939 15.1577 0.971067 15.2809 1.44301C15.404 1.91495 15.3445 2.41597 15.1144 2.84599C14.9931 3.05906 14.8303 3.2457 14.6357 3.3949C14.4412 3.5441 14.2187 3.65285 13.9815 3.71474C13.7442 3.77663 13.497 3.79041 13.2543 3.75527C13.0116 3.72013 12.7785 3.63678 12.5685 3.51013C12.1576 3.24733 11.861 2.8392 11.7379 2.36726C11.6148 1.89531 11.6742 1.3943 11.9044 0.964274C12.0257 0.751204 12.1885 0.56457 12.383 0.41537C12.5776 0.266169 12.8001 0.157419 13.0373 0.0955278C13.2746 0.0336362 13.5218 0.0198546 13.7645 0.054995C14.0071 0.0901354 14.2403 0.173487 14.4502 0.300139ZM61.7146 6.60943V8.82321H59.9435V6.60943H61.7146ZM13.7861 5.17047C14.3852 5.53875 14.8216 6.12132 15.0067 6.7998C15.1917 7.47828 15.1115 8.20175 14.7823 8.82321C14.4035 9.41047 13.821 9.83702 13.1467 10.0209C12.4725 10.2048 11.7541 10.133 11.1296 9.81942C10.5305 9.45113 10.094 8.86856 9.90899 8.19008C9.72395 7.5116 9.80418 6.78813 10.1334 6.16667C10.3069 5.86048 10.5392 5.59164 10.8171 5.37566C11.095 5.15967 11.4128 5.0008 11.7524 4.9082C12.0919 4.8156 12.4464 4.7911 12.7954 4.83611C13.1445 4.88112 13.4812 4.99476 13.7861 5.17047ZM20.8702 5.17047C21.482 5.52715 21.9292 6.10984 22.1155 6.79305C22.3019 7.47626 22.2124 8.20532 21.8664 8.82321C21.4876 9.41047 20.9051 9.83702 20.2309 10.0209C19.5566 10.2048 18.8382 10.133 18.2137 9.81942C17.6146 9.45113 17.1781 8.86856 16.9931 8.19008C16.8081 7.5116 16.8883 6.78813 17.2175 6.16667C17.391 5.86048 17.6234 5.59164 17.9012 5.37566C18.1791 5.15967 18.4969 5.0008 18.8365 4.9082C19.176 4.8156 19.5305 4.7911 19.8796 4.83611C20.2286 4.88112 20.5653 4.99476 20.8702 5.17047ZM8.80509 10.1515C9.39818 10.5252 9.82956 11.1077 10.014 11.784C10.1985 12.4603 10.1226 13.1812 9.8013 13.8042C9.43301 14.4033 8.85044 14.8398 8.17196 15.0248C7.49348 15.2098 6.77001 15.1296 6.14855 14.8004C5.8356 14.6337 5.56004 14.4048 5.3388 14.1277C5.11755 13.8506 4.9553 13.5312 4.862 13.1891C4.7687 12.847 4.74633 12.4894 4.79626 12.1384C4.84619 11.7873 4.96737 11.4502 5.15235 11.1477C5.50903 10.5359 6.09173 10.0887 6.77493 9.90237C7.45814 9.71604 8.1872 9.8055 8.80509 10.1515ZM25.7405 10.1515C26.0512 10.3205 26.3244 10.5507 26.5439 10.828C26.7633 11.1054 26.9244 11.4242 27.0175 11.7655C27.1105 12.1067 27.1336 12.4632 27.0854 12.8135C27.0371 13.1639 26.9186 13.5009 26.7368 13.8042C26.3579 14.3915 25.7754 14.818 25.1012 15.0019C24.4269 15.1858 23.7085 15.114 23.084 14.8004C22.4765 14.4398 22.033 13.8571 21.8472 13.1755C21.6613 12.494 21.7476 11.7668 22.0878 11.1477C22.4667 10.5604 23.0492 10.1339 23.7234 9.95C24.3976 9.76612 25.116 9.83787 25.7405 10.1515ZM2.82787 12.0332C3.04094 12.1545 3.22758 12.3173 3.37678 12.5118C3.52598 12.7064 3.63473 12.9289 3.69662 13.1661C3.75851 13.4034 3.77229 13.6506 3.73715 13.8933C3.70201 14.1359 3.61866 14.3691 3.49201 14.5791C3.22921 14.9899 2.82108 15.2866 2.34914 15.4097C1.8772 15.5328 1.37618 15.4733 0.946156 15.2432C0.72842 15.1265 0.537143 14.9661 0.38432 14.772C0.231496 14.5779 0.120424 14.3543 0.0580677 14.1153C-0.00428849 13.8763 -0.0165831 13.6269 0.021955 13.3829C0.0604931 13.1389 0.149032 12.9055 0.28202 12.6973C0.54482 12.2865 0.952949 11.9898 1.42489 11.8667C1.89683 11.7436 2.39785 11.8031 2.82787 12.0332ZM30.9429 12.0332C31.156 12.1545 31.3426 12.3173 31.4918 12.5118C31.641 12.7064 31.7498 12.9289 31.8117 13.1661C31.8736 13.4034 31.8874 13.6506 31.8522 13.8933C31.8171 14.1359 31.7337 14.3691 31.6071 14.5791C31.3443 14.9899 30.9362 15.2866 30.4642 15.4097C29.9923 15.5328 29.4913 15.4733 29.0612 15.2432C28.8482 15.1219 28.6615 14.9591 28.5123 14.7646C28.3631 14.57 28.2544 14.3475 28.1925 14.1103C28.1306 13.873 28.1168 13.6258 28.1519 13.3831C28.1871 13.1405 28.2704 12.9073 28.3971 12.6973C28.6599 12.2865 29.068 11.9898 29.54 11.8667C30.0119 11.7436 30.5129 11.8031 30.9429 12.0332ZM142.407 14.1363C141.622 14.0853 140.846 14.3295 140.232 14.8209C139.617 15.3124 139.209 16.0157 139.086 16.7928H144.953C144.948 16.1087 144.682 15.4523 144.208 14.9583C143.735 14.4643 143.09 14.1702 142.407 14.1363ZM100.234 13.1401C99.0903 13.1271 97.9818 13.5385 97.1232 14.2948C96.2647 15.0512 95.7168 16.0989 95.5855 17.2356H103.998C103.887 14.4684 102.116 13.1401 100.234 13.1401ZM2.82787 16.7928C3.03864 16.9164 3.22302 17.0803 3.37046 17.2751C3.5179 17.4699 3.62553 17.6918 3.6872 17.9282C3.74888 18.1646 3.76338 18.4109 3.72989 18.6529C3.6964 18.8949 3.61556 19.1279 3.49201 19.3387C3.36845 19.5495 3.20459 19.7338 3.00979 19.8813C2.81498 20.0287 2.59303 20.1364 2.35663 20.198C1.87919 20.3226 1.37183 20.2524 0.946156 20.0028C0.733085 19.8815 0.546452 19.7188 0.397251 19.5242C0.248051 19.3296 0.139301 19.1072 0.0774093 18.8699C0.0155177 18.6327 0.00173613 18.3854 0.0368765 18.1428C0.0720169 17.9001 0.155368 17.6669 0.28202 17.457C0.54482 17.0461 0.952949 16.7495 1.42489 16.6264C1.89683 16.5032 2.39785 16.5627 2.82787 16.7928ZM30.9429 16.7928C31.1583 16.9119 31.3472 17.0735 31.4982 17.2678C31.6492 17.4622 31.759 17.6852 31.8212 17.9233C31.8833 18.1614 31.8963 18.4097 31.8595 18.653C31.8227 18.8963 31.7368 19.1296 31.6071 19.3387C31.4835 19.5495 31.3197 19.7338 31.1249 19.8813C30.93 20.0287 30.7081 20.1364 30.4717 20.198C30.2353 20.2597 29.9891 20.2742 29.747 20.2407C29.505 20.2072 29.272 20.1264 29.0612 20.0028C28.8505 19.8793 28.6661 19.7154 28.5186 19.5206C28.3712 19.3258 28.2636 19.1039 28.2019 18.8674C28.1402 18.631 28.1257 18.3848 28.1592 18.1428C28.1927 17.9008 28.2735 17.6677 28.3971 17.457C28.6599 17.0461 29.068 16.7495 29.54 16.6264C30.0119 16.5032 30.5129 16.5627 30.9429 16.7928ZM8.80509 17.2356C9.39235 17.6144 9.8189 18.1969 10.0028 18.8712C10.1867 19.5454 10.1149 20.2638 9.8013 20.8883C9.43301 21.4875 8.85044 21.9239 8.17196 22.1089C7.49348 22.294 6.77001 22.2137 6.14855 21.8845C5.83791 21.7155 5.56465 21.4854 5.34522 21.208C5.12578 20.9306 4.96469 20.6118 4.87164 20.2706C4.77858 19.9294 4.75548 19.5729 4.80372 19.2225C4.85196 18.8721 4.97054 18.5352 5.15235 18.2318C5.52063 17.6327 6.10321 17.1963 6.78168 17.0112C7.46016 16.8262 8.18364 16.9064 8.80509 17.2356ZM25.7405 17.2356C26.0535 17.4023 26.3291 17.6312 26.5503 17.9083C26.7715 18.1854 26.9338 18.5048 27.0271 18.8469C27.1204 19.189 27.1428 19.5466 27.0928 19.8976C27.0429 20.2487 26.9217 20.5858 26.7368 20.8883C26.5689 21.206 26.339 21.4866 26.0605 21.7135C25.782 21.9404 25.4607 22.109 25.1158 22.2092C24.7708 22.3095 24.4092 22.3393 24.0525 22.2969C23.6958 22.2546 23.3512 22.1409 23.0393 21.9627C22.7275 21.7845 22.4546 21.5453 22.237 21.2595C22.0194 20.9737 21.8615 20.647 21.7728 20.2989C21.684 19.9509 21.6661 19.5885 21.7202 19.2334C21.7744 18.8782 21.8994 18.5376 22.0878 18.2318C22.4667 17.6445 23.0492 17.218 23.7234 17.0341C24.3976 16.8502 25.116 16.922 25.7405 17.2356ZM158.236 19.1173H157.571C155.8 19.1173 153.033 19.3387 153.033 21.2204C153.042 21.4796 153.104 21.7341 153.218 21.9674C153.331 22.2007 153.492 22.4076 153.69 22.5746C153.888 22.7416 154.12 22.8651 154.369 22.9369C154.618 23.0087 154.879 23.0273 155.136 22.9914C156.907 22.9914 158.236 20.999 158.236 19.4494V19.1173ZM71.898 13.1401C69.6842 13.1401 67.5811 14.6897 67.5811 18.5639C67.5811 21.3311 69.02 23.9876 71.7873 23.9876C74.2224 23.9876 76.1042 21.9952 76.1042 18.5639C76.1042 15.3539 74.3331 13.1401 71.898 13.1401ZM60.1649 11.8118C61.2718 11.8118 61.8252 12.2546 61.8252 13.3615V22.8807C61.8252 23.3235 62.0466 23.4342 62.3787 23.4342H63.4856V24.9838H61.6039C61.3785 25.0151 61.149 24.9937 60.9333 24.9213C60.7176 24.8489 60.5217 24.7275 60.3608 24.5666C60.1999 24.4057 60.0785 24.2098 60.0061 23.9941C59.9337 23.7784 59.9123 23.5489 59.9435 23.3235V14.0256C59.9435 13.5829 59.7222 13.3615 59.3901 13.3615H58.2832V11.8118H60.1649ZM114.624 11.7011C114.885 11.7122 115.145 11.7492 115.399 11.8118V13.5828C115.184 13.5151 114.96 13.4778 114.735 13.4722C113.805 13.5504 112.926 13.9267 112.228 14.545C111.53 15.1633 111.05 15.9905 110.861 16.9035C110.641 17.7721 110.53 18.6643 110.529 19.5601V25.2052H108.647L108.757 14.0256C108.77 13.9354 108.762 13.8434 108.733 13.7569C108.705 13.6704 108.656 13.5918 108.592 13.5273C108.527 13.4629 108.449 13.4143 108.362 13.3855C108.276 13.3567 108.184 13.3485 108.093 13.3615H106.986V11.8118H108.868C109.975 11.8118 110.418 12.2546 110.418 13.3615V14.247C110.418 14.5821 110.38 14.9162 110.307 15.2432H110.418C111.082 13.1401 112.521 11.7011 114.624 11.7011ZM166.205 6.38805C167.423 6.38805 167.976 6.94149 167.976 8.26977V21.8845C167.976 22.3273 168.198 22.438 168.64 22.438H169.637V25.2052H166.427C166.185 25.2456 165.937 25.2277 165.704 25.1529C165.471 25.0782 165.258 24.9488 165.085 24.7756C164.912 24.6024 164.783 24.3903 164.708 24.1569C164.633 23.9236 164.615 23.6758 164.656 23.4342V9.81942C164.669 9.72919 164.66 9.63717 164.632 9.55068C164.603 9.46419 164.554 9.3856 164.49 9.32114C164.425 9.25668 164.347 9.20813 164.26 9.17934C164.174 9.15055 164.082 9.14231 163.991 9.15528H162.995V6.38805H166.205ZM79.9783 6.60943C81.1959 6.60943 81.5279 7.05218 81.5279 8.15908V13.8042C81.5321 14.1762 81.495 14.5474 81.4173 14.9111H81.5279C82.0015 13.9062 82.7543 13.0587 83.6964 12.4699C84.6385 11.8811 85.7301 11.5758 86.841 11.5904C90.1617 11.5904 91.3793 13.4722 91.3793 16.7928V23.1021C91.3793 23.5449 91.6007 23.6556 92.0434 23.6556H93.1503V25.2052H91.2686C90.051 25.2052 89.7189 24.6518 89.7189 23.5449V17.1249C89.7189 15.0218 89.3869 13.1401 86.7303 13.1401C85.6277 13.1343 84.5559 13.5037 83.6909 14.1876C82.826 14.8715 82.2193 15.8293 81.9707 16.9035C81.7815 17.3969 81.7058 17.9266 81.7493 18.4532V25.0945H79.8676V8.71252C79.8707 8.62447 79.8556 8.53673 79.8233 8.45476C79.7911 8.37278 79.7422 8.29833 79.6799 8.23603C79.6177 8.17373 79.5432 8.12492 79.4612 8.09264C79.3792 8.06036 79.2915 8.04529 79.2035 8.04839H78.0966V6.60943H79.9783ZM135.102 6.27736V9.26597H133.995C133.907 9.26288 133.819 9.27794 133.737 9.31022C133.655 9.3425 133.58 9.39131 133.518 9.45361C133.456 9.51591 133.407 9.59036 133.375 9.67234C133.342 9.75431 133.327 9.84206 133.331 9.9301V25.2052H129.788V17.3463H121.487V25.2052H117.945L118.055 9.9301C118.068 9.83987 118.06 9.74786 118.031 9.66137C118.003 9.57488 117.954 9.49629 117.89 9.43183C117.825 9.36737 117.746 9.31882 117.66 9.29003C117.573 9.26124 117.481 9.253 117.391 9.26597H116.174V6.38805H119.605C120.933 6.38805 121.487 6.94149 121.487 8.26977V14.4684H129.788V8.15908C129.788 6.83081 130.342 6.27736 131.67 6.27736H135.102ZM175.171 7.9377V11.7011H178.27V14.3577H175.171V19.7814C175.15 20.1309 175.205 20.4807 175.333 20.8067C175.46 21.1327 175.657 21.427 175.91 21.6692C176.163 21.9114 176.465 22.0958 176.796 22.2094C177.128 22.323 177.479 22.3633 177.828 22.3273H178.492V25.2052H177.496C175.614 25.2052 171.85 24.6518 171.85 20.1135V14.3577H170.079V11.7011H171.85V7.9377H175.171ZM182.255 6.38805C182.497 6.34769 182.745 6.36562 182.978 6.44034C183.211 6.51507 183.423 6.64443 183.597 6.81767C183.77 6.9909 183.899 7.203 183.974 7.43632C184.049 7.66964 184.067 7.91743 184.026 8.15908V12.9187C184.025 13.327 183.988 13.7345 183.915 14.1363H184.026C184.484 13.3104 185.159 12.626 185.979 12.1576C186.799 11.6891 187.731 11.4547 188.675 11.4798C191.774 11.4798 193.435 13.0294 193.435 16.5715V21.8845C193.435 22.3273 193.656 22.438 194.099 22.438H195.095V25.2052H191.885C191.643 25.2456 191.396 25.2277 191.162 25.1529C190.929 25.0782 190.717 24.9488 190.544 24.7756C190.37 24.6024 190.241 24.3903 190.166 24.1569C190.092 23.9236 190.074 23.6758 190.114 23.4342V17.2356C190.114 15.5753 189.671 14.4684 188.011 14.4684C187.169 14.4734 186.352 14.7591 185.691 15.2803C185.029 15.8016 184.56 16.5286 184.358 17.3463C184.223 17.9274 184.149 18.5209 184.137 19.1173V25.3159H180.706V9.81942C180.718 9.72919 180.71 9.63717 180.681 9.55068C180.653 9.46419 180.604 9.3856 180.54 9.32114C180.475 9.25668 180.397 9.20813 180.31 9.17934C180.224 9.15055 180.132 9.14231 180.041 9.15528H179.045V6.38805H182.255ZM155.69 11.3691C160.228 11.3691 161.556 13.6935 161.556 16.7928V21.8845C161.556 22.3273 161.778 22.438 162.22 22.438H163.217V25.2052H160.117C158.9 25.2052 158.346 24.5411 158.346 23.6556V23.1021H158.236C157.848 23.8418 157.256 24.4543 156.53 24.8665C155.803 25.2787 154.974 25.4731 154.14 25.4266C151.705 25.4266 149.491 23.877 149.491 21.2204C149.713 17.2356 155.247 16.7928 157.571 16.7928H158.125V16.6821C158.125 14.6897 157.35 14.0256 155.69 14.0256C155.026 14.0256 153.919 14.1363 153.919 14.9111V15.5753H150.709V14.1363C150.709 11.5904 154.251 11.3691 155.69 11.3691ZM142.407 11.3691C146.281 11.3691 148.384 14.247 148.384 17.789C148.369 18.1966 148.332 18.603 148.274 19.0066H138.976C139.036 20.0137 139.485 20.9579 140.229 21.6396C140.972 22.3213 141.952 22.687 142.96 22.6594C144.354 22.5811 145.68 22.0351 146.724 21.1097L148.052 23.4342C146.562 24.7743 144.633 25.5225 142.628 25.5373C141.676 25.5812 140.725 25.4297 139.833 25.0921C138.942 24.7546 138.129 24.238 137.444 23.5744C136.76 22.9107 136.219 22.114 135.854 21.2333C135.489 20.3525 135.308 19.4064 135.323 18.4532C135.544 14.3577 138.312 11.3691 142.407 11.3691ZM49.9815 6.27736C52.638 6.27736 56.9549 7.38425 56.9549 10.2622V11.8118H55.1839V10.7049C55.1839 8.9339 52.0846 7.9377 49.9815 7.9377C48.9795 7.93825 47.9879 8.14157 47.0665 8.5354C46.1451 8.92923 45.3129 9.50543 44.6201 10.2293C43.9272 10.9532 43.388 11.8098 43.0348 12.7476C42.6817 13.6853 42.522 14.6848 42.5653 15.6859C42.5653 20.1135 45.6646 23.7663 49.9815 23.7663C51.1238 23.7624 52.2533 23.5248 53.3003 23.0679C54.3473 22.611 55.2897 21.9446 56.0694 21.1097L57.1763 22.438C56.2569 23.4245 55.1427 24.2093 53.9042 24.7428C52.6657 25.2763 51.33 25.5469 49.9815 25.5373C44.447 25.5373 40.5729 21.1097 40.5729 15.6859C40.5626 14.4475 40.7989 13.2194 41.2681 12.0733C41.7372 10.9271 42.4299 9.88579 43.3056 9.01005C44.1813 8.13432 45.2226 7.44168 46.3688 6.97251C47.515 6.50334 48.7431 6.26703 49.9815 6.27736ZM100.234 11.5904C103.887 11.5904 105.88 14.4684 105.88 17.789C105.865 18.0866 105.828 18.3826 105.769 18.6746H95.5855C95.563 19.369 95.6814 20.0608 95.9335 20.7083C96.1855 21.3557 96.5661 21.9455 97.0522 22.4419C97.5383 22.9384 98.1199 23.3313 98.7619 23.5969C99.4039 23.8626 100.093 23.9955 100.788 23.9876C102.309 23.947 103.764 23.3572 104.883 22.3273L105.769 23.6556C104.405 24.901 102.635 25.609 100.788 25.648C99.8634 25.6804 98.9421 25.5223 98.0813 25.1833C97.2206 24.8444 96.4388 24.3319 95.7847 23.6777C95.1305 23.0236 94.6181 22.2418 94.2791 21.3811C93.9401 20.5204 93.782 19.5991 93.8144 18.6746C93.5931 14.247 96.5817 11.5904 100.234 11.5904ZM20.7595 22.2166C21.3468 22.5955 21.7733 23.178 21.9572 23.8522C22.1411 24.5264 22.0693 25.2448 21.7557 25.8694C21.5822 26.1755 21.3499 26.4444 21.072 26.6604C20.7941 26.8764 20.4763 27.0352 20.1367 27.1278C19.7972 27.2204 19.4427 27.2449 19.0937 27.1999C18.7446 27.1549 18.4079 27.0413 18.103 26.8656C17.5157 26.4867 17.0892 25.9042 16.9053 25.23C16.7214 24.5558 16.7932 23.8374 17.1068 23.2128C17.4675 22.6054 18.0501 22.1618 18.7317 21.976C19.4133 21.7901 20.1404 21.8764 20.7595 22.2166ZM13.6754 22.2166C14.2627 22.5955 14.6892 23.178 14.8731 23.8522C15.057 24.5264 14.9852 25.2448 14.6716 25.8694C14.4981 26.1755 14.2657 26.4444 13.9879 26.6604C13.71 26.8764 13.3922 27.0352 13.0526 27.1278C12.7131 27.2204 12.3586 27.2449 12.0095 27.1999C11.6605 27.1549 11.3238 27.0413 11.0189 26.8656C10.4316 26.4867 10.0051 25.9042 9.82119 25.23C9.63731 24.5558 9.70907 23.8374 10.0227 23.2128C10.3794 22.601 10.9621 22.1538 11.6453 21.9675C12.3285 21.7812 13.0575 21.8706 13.6754 22.2166ZM72.23 11.3691C75.7721 11.3691 77.9859 14.247 77.9859 18.4532C77.9859 22.6594 75.44 25.4266 72.0087 25.4266C71.1082 25.4487 70.219 25.223 69.4382 24.774C68.6574 24.325 68.0149 23.6701 67.5811 22.8807V30.4076H65.8101V14.0256C65.8101 13.5829 65.5887 13.3615 65.2566 13.3615H64.1497V11.8118H66.0314C67.1383 11.8118 67.6918 12.2546 67.6918 13.1401V14.0256C68.1103 13.1914 68.7618 12.4964 69.5673 12.0249C70.3728 11.5534 71.2977 11.3256 72.23 11.3691ZM19.3206 28.5259C19.7462 28.7754 20.0554 29.1838 20.1799 29.6613C20.3045 30.1387 20.2342 30.6461 19.9847 31.0718C19.7352 31.4974 19.3268 31.8065 18.8493 31.9311C18.3719 32.0556 17.8645 31.9854 17.4389 31.7359C17.028 31.4731 16.7314 31.065 16.6082 30.593C16.4851 30.1211 16.5446 29.6201 16.7747 29.19C16.896 28.977 17.0588 28.7903 17.2534 28.6411C17.4479 28.4919 17.6704 28.3832 17.9076 28.3213C18.1449 28.2594 18.3921 28.2456 18.6348 28.2808C18.8775 28.3159 19.1106 28.3992 19.3206 28.5259ZM14.5609 28.5259C14.9718 28.7887 15.2684 29.1968 15.3916 29.6688C15.5147 30.1407 15.4552 30.6417 15.2251 31.0718C15.1037 31.2848 14.941 31.4715 14.7464 31.6207C14.5519 31.7699 14.3294 31.8786 14.0921 31.9405C13.8549 32.0024 13.6077 32.0162 13.365 31.981C13.1223 31.9459 12.8892 31.8625 12.6792 31.7359C12.2683 31.4731 11.9717 31.065 11.8486 30.593C11.7255 30.1211 11.7849 29.6201 12.0151 29.19C12.1364 28.977 12.2991 28.7903 12.4937 28.6411C12.6883 28.4919 12.9108 28.3832 13.148 28.3213C13.3853 28.2594 13.6325 28.2456 13.8752 28.2808C14.1178 28.3159 14.351 28.3992 14.5609 28.5259Z" fill="#1F304C"/>
</svg>
