<svg fill="none" height="25" viewBox="0 0 155 25" width="155" xmlns="http://www.w3.org/2000/svg"><path clip-rule="evenodd" d="m62.3247 3.46928.1533.43368c.0767.2551.1278.5102.1789.7653 1.0732-.73979 2.3509-1.12245 3.6541-1.09694 3.0664 0 6.3372 1.96429 6.3628 7.52548 0 5.0766-2.4787 8.1123-6.6439 8.1123-1.0732 0-2.1209-.2551-3.0664-.7143v5.5102l-4.2929.9949v-16.96429c.0511-1.12245-.0512-2.27041-.2811-3.36735l-.1278-.53571zm17.7851-.07653v10.00005c0 1.9387.3833 2.4744 1.7121 2.4744.9966-.0765 1.9165-.5867 2.4787-1.4285v-10.30615l4.2929-.71429v11.14794c0 1.7857.69 2.347.7411 2.3214l.5877.4847-.6388.4082-2.6065 1.6072-.281-.1786c-.5111-.3317-.92-.7653-1.2266-1.301-1.201.9183-2.6831 1.403-4.1908 1.352-1.7887 0-3.3219-.5612-4.2163-1.5561-.7155-.7653-.9965-1.8112-.9965-3.6735v-9.92346zm-55.8341.12755c4.5741 0 7.4105 3.03572 7.436 7.9337 0 4.7449-2.8875 7.8061-7.3593 7.8061-4.4719 0-7.3338-3.0612-7.3338-7.8571 0-4.79596 2.8364-7.8827 7.2571-7.8827zm92.4773 0c4.549 0 7.385 3.03572 7.411 7.9337 0 4.7449-2.862 7.8061-7.334 7.8061s-7.334-3.0612-7.334-7.8571c0-4.79596 2.837-7.8827 7.257-7.8827zm-107.83486-3.265303c1.78876-.051021 3.57746.459183 5.05956 1.454083l.4344.33163-2.0954 2.70408-.4088-.28061c-.8688-.58673-1.91652-.91837-2.96421-.89286-1.35433-.02551-2.63199.66327-3.34749 1.83674-.63883.94388-.91992 2.29592-.91992 4.23469 0 1.93875.20443 3.11225.68994 4.05615.68994 1.403 2.17204 2.2704 3.75635 2.1683 1.12433.0511 2.22313-.3061 3.09193-.9949l.4089-.2806 2.172 2.6531-.4855.3316c-1.6099 1.0715-3.5264 1.6327-5.49397 1.5817-2.42757.102-4.75293-.8674-6.4139-2.6531-1.558756-1.8112-2.3764637-4.1327-2.299804-6.53061-.0766597-1.91327.383301-3.80103 1.328774-5.4847 1.5332-2.65306 4.39518-4.285714 7.48714-4.234693zm92.47786 0c1.814-.051021 3.577.459183 5.059 1.454083l.435.33163-2.096 2.70408-.408-.28061c-.869-.58673-1.917-.91837-2.965-.89286-1.354-.02551-2.6317.66327-3.3471 1.83674-.6133.94388-.92 2.29592-.92 4.23469 0 1.93875.2044 3.11225.69 4.05615.6899 1.403 2.1721 2.2704 3.7561 2.1683 1.125.0511 2.223-.3061 3.092-.9949l.435-.2806 2.172 2.6531-.486.3316c-1.61 1.0715-3.526 1.6327-5.494 1.5817-2.4274.0765-4.7784-.8674-6.4393-2.6531-1.5588-1.8112-2.3765-4.1327-2.2998-6.53061-.0767-1.91327.3833-3.80103 1.3287-5.4847 1.5588-2.65306 4.4208-4.285714 7.4874-4.234693zm29.361 3.163263.204.30612c.23.33164.383.71429.486 1.09694 1.073-.81632 2.376-1.27551 3.73-1.30102 1.457-.07653 2.888.61225 3.757 1.78572 1.252-1.12245 2.836-1.76021 4.523-1.78572 2.989 0 4.548 1.58164 4.548 4.59184v10.73976h-4.344v-10.17854c0-1.58163-.383-1.58163-1.073-1.58163-.792 0-1.636.40817-2.734 1.32653v10.45914h-4.242v-10.07648c0-1.58164-.358-1.63266-1.15-1.63266-.997.05102-1.917.43368-2.658 1.09694v10.6122h-4.318v-10.56118c0-1.58163-.154-2.60204-.486-3.29082l-.281-.58673zm-93.0913 0 .2044.30612c.23.33164.3833.71429.4855 1.09694 1.0733-.81632 2.3765-1.27551 3.7308-1.30102 1.4821-.07653 2.8875.61225 3.7819 1.78572 1.2266-1.12245 2.8364-1.76021 4.523-1.78572 2.9641 0 4.5485 1.58164 4.5229 4.59184v10.73976h-4.3441v-10.17854c0-1.58163-.2811-1.58163-1.0732-1.58163-.7922 0-1.6354.40817-2.7342 1.32653v10.45914h-4.2419v-10.07648c0-1.58164-.3577-1.63266-1.1499-1.63266-.9966.05102-1.9165.43368-2.6575 1.09694v10.6122h-4.3186v-10.56118c0-1.58163-.1277-2.60204-.4855-3.29082l-.281-.58673zm113.7893 11.30104.155.006c1.024.0794 1.812.9379 1.812 1.9583 0 1.0714-.868 1.9643-1.967 1.9643-1.073 0-1.968-.8674-1.968-1.9643 0-1.0715.869-1.9643 1.968-1.9643zm0 .3316-.152.0068c-.848.076-1.509.784-1.509 1.6514 0 .9183.741 1.6581 1.661 1.6581s1.661-.7398 1.661-1.6581c0-.9184-.741-1.6582-1.661-1.6582zm-.102.5612c.255 0 .485.0511.69.1786.127.1276.204.2806.204.4592 0 .2551-.179.4847-.434.5357l.064.0083c.146.0383.252.2085.319.4764.025.1786.077.3571.153.5357h-.383c-.077-.1786-.128-.3571-.153-.5357v-.0255c-.026-.2296-.23-.3827-.46-.3572h-.256v.9439h-.358v-2.1683c.205-.0255.409-.0511.614-.0511zm-.026.2551h-.255v.7653h.255c.281 0 .537-.1275.537-.3826 0-.1786-.154-.3827-.537-.3827zm-127.0257-9.00506c-1.3033 0-2.5043.53571-2.5043 4.33676 0 4.3622 1.3544 4.7194 2.6065 4.7194 1.0732.0255 2.5553-.3572 2.5553-4.4643 0-4.05615-1.3543-4.59186-2.6575-4.59186zm92.4517 0c-1.303 0-2.504.53571-2.504 4.33676 0 4.3622 1.354 4.7194 2.607 4.7194 1.098 0 2.555-.4592 2.555-4.4388 0-4.03063-1.329-4.61736-2.658-4.61736zm-51.0808.28061c-1.0222 0-2.0187.40817-2.7342 1.12245v6.5051c.6388.5612 1.4565.8929 2.3253.9439 1.3544 0 2.7342-.5102 2.7342-4.3112 0-3.54596-.8943-4.26025-2.3253-4.26025z" fill="#1f304c" fill-rule="evenodd"/></svg>