<svg fill="none" height="24" viewBox="0 0 136 24" width="136" xmlns="http://www.w3.org/2000/svg" xmlns:xlink="http://www.w3.org/1999/xlink"><clipPath id="a"><path d="m0 0h135.6v24h-135.6z"/></clipPath><g clip-path="url(#a)"><path d="m40.4058 2.3856h-9.894v19.83h9.894c7.128 0 10.692-2.2164 10.692-10.2378 0-7.1922-3.564-9.5922-10.692-9.5922zm-.6378 16.1592h-5.0268v-12.489h5.0268c4.734 0 7.101 1.176 7.101 5.922 0 5.574-2.367 6.567-7.101 6.567zm19.629-13.086c-1.83 0-3.6492.267-5.4576.7992v3.351c1.7707-.52648 3.6079-.79523 5.4552-.798 2.904 0 4.356.75 4.356 2.25v1.1016c-1.1382-.21-2.436-.318-3.894-.318-4.8504 0-7.2762 1.7196-7.2762 5.154 0 3.48 2.2608 5.22 6.7824 5.22 1.65 0 3.2022-.393 4.6596-1.182l1.8192 1.182h2.1372v-11.2386c0-3.6798-2.862-5.52-8.586-5.52zm4.356 12.096c-1.2018.873-2.664 1.3092-4.3878 1.3092-1.7022 0-2.553-.6384-2.553-1.9152s1.0158-1.914 3.048-1.914c1.5318 0 2.8296.1062 3.894.318v2.202zm10.6788-12.096h3.8928v3.3522h-3.4284v7.707c0 1.5642.6762 2.346 2.0268 2.346h1.404v3.3516h-3.447c-2.808 0-4.212-1.506-4.212-4.5168v-14.952h3.126l.6384 2.712zm11.7936 0c-1.83 0-3.6516.267-5.46.7992v3.351c1.7714-.52662 3.6095-.79538 5.4576-.798 2.904 0 4.356.75 4.356 2.25v1.1016c-1.1388-.21-2.436-.318-3.894-.318-4.8516 0-7.278 1.7196-7.278 5.154 0 3.48 2.262 5.22 6.7836 5.22 1.628.0055 3.231-.4012 4.6596-1.182l1.818 1.182h2.1384v-11.2386c0-3.6798-2.862-5.52-8.5848-5.52zm4.356 12.096c-1.2042.873-2.6676 1.3092-4.3902 1.3092-1.7028 0-2.5536-.6384-2.5536-1.9152s1.0152-1.914 3.048-1.914c1.5318 0 2.829.1062 3.894.318v2.202zm6.9084-14.8428h4.2302v19.5948h-4.2302zm14.3322 2.5872c-5.638 0-8.458 2.847-8.458 8.538.022 5.6808 2.841 8.5212 8.459 8.5212 5.638 0 8.458-2.8404 8.458-8.5218 0-5.688-2.82-8.535-8.458-8.535zm0 13.7238c-2.82 0-4.23-1.7496-4.23-5.25 0-3.414 1.41-5.1228 4.23-5.1228s4.23 1.7076 4.23 5.1228c0 3.5004-1.41 5.25-4.229 5.25zm13.872-13.563h3.894v3.351h-3.432v7.707c0 1.5642.676 2.346 2.028 2.346h1.404v3.3516h-3.447c-2.809 0-4.214-1.506-4.214-4.5168v-14.952h3.129l.638 2.712zm-101.6052-3.4668.012 12.519c0-.441-.312-.447-.312-.447s-.8682.0072-.528 1.041c.3396 1.035-.5544 2.76-2.2128 2.7522-1.4628-.0072-4.0002-3.5922-4.0002-3.5922l-2.7078-14.2662h7.7538c.5288.00015894 1.0359.210251 1.4099.58411.3739.373858.5842.8809.5845 1.40969zm-24.08279774 9.594-.006-9.5922c-.00039435-.26185.05083924-.5212.15076974-.76323.099931-.242024.246598-.461974.431612-.647266.185013-.185293.404743-.332291.646616-.432586.24188-.1002945.50116-.1519183.763-.151918h8.922l2.538 9.93s-3.66-5.5962-9.1056-3.3864c-2.49 1.0116-3.797998 2.9388-4.34039774 5.0448zm14.08199774 6.369c.0624 3.2052-1.104 5.286-3.4476 5.3496-2.6862.0738-4.7838-2.2842-6.2196-5.3496-.33984-.73-.63929-1.4781-.897-2.241-1.3848-4.0722-.7584-7.7892 2.9658-8.136 3.7248-.348 7.104 4.4856 7.104 4.4856s.4032 3.651.486 5.5872c.0042.102.0072.204.0084.3042zm-9.168 6.0438h-2.9112c-.5288-.0003-1.035869-.2104-1.409901-.5842-.374032-.3739-.5844611-.8808-.5850967-1.4096l-.0036-5.2182c.0977997.4116.2141997.804.3467997 1.1682.084.231.1752.45.2718.6564.838798 1.8 2.027998 3.888 4.291198 5.388zm18.912-4.692c.252-.2772.27-.546.27-.8052v3.504c.0002.2617-.0512.5209-.1513.7627-.1.2418-.2467.4615-.4317.6466s-.4047.332-.6464.4322c-.2418.1001-.5009.1517-.7626.1517h-9.0504c.7572-.402 1.362-.8676 1.7178-1.314.75-.9444 1.938-2.3736 2.1618-4.7298.03-.3156.042-.648.0348-.999 0 0 .306.441.8064.999 1.2492 1.392 4.0776 3.5142 6.0498 1.3518zm111.612-19.119v2.3712h-.274v-1.914l-.843 1.914h-.246l-.855-1.914v1.914h-.271v-2.3718h.387l.874 1.9764.852-1.977h.374zm-4.601 0h1.8v.2502h-.746v2.121h-.306v-2.1222h-.748v-.2484z" fill="#1f304c"/></g></svg>