<svg width="214" height="40" viewBox="0 0 214 40" fill="none" xmlns="http://www.w3.org/2000/svg">
<path d="M46.9558 14.2814C46.94 14.1158 46.9609 13.9487 47.0171 13.7921C47.0734 13.6355 47.1636 13.4933 47.2812 13.3756C47.3989 13.258 47.5411 13.1678 47.6977 13.1115C47.8543 13.0553 48.0214 13.0343 48.187 13.0502H51.4454C55.894 13.0502 58.2947 15.4428 58.2947 19.4645C58.2947 23.8228 55.6477 26.4615 51.1623 26.4615H48.187C48.0214 26.4774 47.8543 26.4565 47.6977 26.4002C47.5411 26.344 47.3989 26.2538 47.2812 26.1361C47.1636 26.0185 47.0734 25.8763 47.0171 25.7197C46.9609 25.5631 46.94 25.396 46.9558 25.2304V14.2814V14.2814ZM51.3059 24.3645C53.9077 24.3645 55.5205 22.7476 55.5205 19.6656C55.5205 16.5836 54.0801 15.1514 51.3059 15.1514H49.6644V24.3768L51.3059 24.3645Z" fill="#1F304C"/>
<path d="M65.185 16.3661C68.1644 16.3661 70.1383 18.34 70.1383 21.3399C70.1383 24.6681 68.1521 26.6503 64.9429 26.6503C61.9635 26.6503 59.9773 24.6763 59.9773 21.6805C59.9773 18.3482 61.9717 16.3661 65.185 16.3661V16.3661ZM65.0865 24.6189C66.4203 24.6189 67.4544 23.5847 67.4544 21.5246C67.4544 19.4645 66.371 18.3975 65.0496 18.3975C63.7282 18.3975 62.6735 19.4316 62.6735 21.4836C62.6735 23.5355 63.7446 24.6189 65.0865 24.6189V24.6189Z" fill="#1F304C"/>
<path d="M72.3956 17.5603C72.3786 17.4117 72.3953 17.2612 72.4446 17.12C72.4938 16.9788 72.5743 16.8506 72.68 16.7448C72.7858 16.6391 72.914 16.5586 73.0552 16.5094C73.1964 16.4601 73.3469 16.4434 73.4955 16.4604C73.6333 16.4434 73.7732 16.4542 73.9067 16.4924C74.0403 16.5306 74.1648 16.5952 74.2728 16.6826C74.3808 16.7699 74.4701 16.8781 74.5354 17.0007C74.6006 17.1233 74.6406 17.2577 74.6527 17.3961L74.7307 17.8927H74.7717C75.1091 17.4023 75.5655 17.0058 76.0981 16.7402C76.6308 16.4746 77.2222 16.3487 77.8168 16.3743C80.1149 16.3743 81.5431 17.8065 81.5431 20.4247V25.3493C81.5431 26.088 81.1327 26.5148 80.2216 26.5148C79.3106 26.5148 78.8961 26.1044 78.8961 25.3493V20.7366C78.8961 19.1484 78.2354 18.4877 77.115 18.4877C75.7361 18.4877 75.0631 19.9076 75.0631 19.9076V25.3575C75.0631 26.0962 74.6527 26.523 73.7417 26.523C72.8306 26.523 72.4162 26.1126 72.4162 25.3575V17.5603" fill="#1F304C"/>
<path d="M88.9092 16.3661C91.8886 16.3661 93.8625 18.34 93.8625 21.3399C93.8625 24.6681 91.8804 26.6503 88.6671 26.6503C85.6918 26.6503 83.7056 24.6763 83.7056 21.6805C83.7056 18.3482 85.7 16.3661 88.9092 16.3661V16.3661ZM88.8148 24.6189C90.1486 24.6189 91.1786 23.5847 91.1786 21.5246C91.1786 19.4645 90.0993 18.3975 88.7738 18.3975C87.4483 18.3975 86.4018 19.4316 86.4018 21.4836C86.4018 23.5355 87.4688 24.6189 88.8148 24.6189V24.6189Z" fill="#1F304C"/>
<path d="M96.1239 17.5603C96.1069 17.4117 96.1236 17.2613 96.1728 17.1201C96.2221 16.9789 96.3026 16.8506 96.4083 16.7449C96.514 16.6392 96.6423 16.5587 96.7835 16.5094C96.9247 16.4602 97.0752 16.4434 97.2237 16.4605C97.3628 16.4458 97.5033 16.459 97.6372 16.4993C97.7711 16.5396 97.8955 16.6063 98.0033 16.6953C98.1111 16.7844 98.2 16.8941 98.2649 17.0179C98.3297 17.1418 98.3692 17.2774 98.381 17.4167L98.5082 18.1266H98.5369C99.0212 17.1048 99.8584 16.3661 100.88 16.3661C101.619 16.3661 102.038 16.7765 102.038 17.5972C102.038 18.578 101.602 19.1444 101.085 19.1444C100.802 19.1444 100.646 18.9966 100.347 18.9966C99.7147 18.9966 99.1156 19.6984 98.7709 20.3878V25.3535C98.7709 26.0921 98.34 26.5189 97.4453 26.5189C96.5507 26.5189 96.1239 26.1086 96.1239 25.3535V17.5562" fill="#1F304C"/>
<path d="M107.208 16.3743C108.649 16.3743 109.465 16.7354 109.785 17.0555C109.895 17.1606 109.98 17.2887 110.034 17.4307C110.088 17.5727 110.11 17.7249 110.097 17.8763C110.097 18.094 110.011 18.3027 109.857 18.4567C109.703 18.6106 109.494 18.6971 109.276 18.6971C108.772 18.6971 108.197 18.2867 107.089 18.2867C106.055 18.2867 105.649 18.6683 105.649 19.1526C105.649 20.7941 110.573 19.9036 110.573 23.3877C110.573 25.1975 109.133 26.638 106.215 26.638C104.574 26.638 103.753 26.2686 103.383 25.9075C103.275 25.8016 103.191 25.6733 103.137 25.5315C103.083 25.3898 103.061 25.238 103.072 25.0867C103.067 24.9762 103.085 24.8659 103.124 24.7625C103.164 24.6591 103.223 24.5647 103.3 24.485C103.377 24.4053 103.469 24.3419 103.57 24.2986C103.672 24.2553 103.782 24.233 103.892 24.2331C104.401 24.2331 104.976 24.6968 106.355 24.6968C107.528 24.6968 107.996 24.2865 107.996 23.6955C107.996 21.9842 103.072 22.8748 103.072 19.4522C103.072 17.6998 104.455 16.3579 107.22 16.3579" fill="#1F304C"/>
<path d="M118.769 12.8696C120.41 12.8696 121.465 13.4154 121.855 13.8053C121.983 13.9259 122.084 14.0726 122.15 14.2354C122.217 14.3982 122.248 14.5734 122.241 14.7492C122.248 14.875 122.229 15.0009 122.186 15.1191C122.142 15.2373 122.074 15.3451 121.986 15.4357C121.899 15.5264 121.793 15.5979 121.677 15.6457C121.56 15.6935 121.435 15.7166 121.309 15.7136C120.726 15.7136 120.295 15.0405 118.711 15.0405C116.725 15.0405 115.051 16.6451 115.051 19.8995C115.051 22.8378 116.647 24.4137 118.847 24.4137C120.402 24.4137 120.899 23.7612 121.465 23.7612C121.579 23.7642 121.691 23.7903 121.795 23.8378C121.898 23.8853 121.991 23.9532 122.068 24.0376C122.145 24.1219 122.203 24.2209 122.241 24.3285C122.278 24.4362 122.294 24.5503 122.286 24.664C122.289 24.8291 122.256 24.993 122.19 25.1444C122.124 25.2959 122.027 25.4315 121.904 25.5422C121.44 25.9977 120.263 26.601 118.383 26.601C114.743 26.601 112.272 24.1387 112.272 20.1785C112.272 15.6438 114.919 12.8491 118.773 12.8491" fill="#1F304C"/>
<path d="M124.383 13.202C124.383 12.4633 124.814 12.0324 125.708 12.0324C126.603 12.0324 127.03 12.4428 127.03 13.202V16.1322C127.029 16.6327 127 17.1327 126.944 17.6301H126.972C127.318 17.2194 127.753 16.8929 128.243 16.6753C128.734 16.4577 129.268 16.3548 129.804 16.3743C132.102 16.3743 133.53 17.8065 133.53 20.4248V25.3493C133.53 26.088 133.12 26.5148 132.209 26.5148C131.298 26.5148 130.883 26.1044 130.883 25.3493V20.7367C130.883 19.1485 130.223 18.4878 129.102 18.4878C127.719 18.4878 127.03 19.9077 127.03 19.9077V25.3576C127.03 26.0962 126.619 26.523 125.708 26.523C124.797 26.523 124.383 26.1127 124.383 25.3576V13.202" fill="#1F304C"/>
<path d="M140.897 16.3661C143.876 16.3661 145.85 18.34 145.85 21.3399C145.85 24.6681 143.868 26.6503 140.654 26.6503C137.679 26.6503 135.693 24.6763 135.693 21.6805C135.693 18.3482 137.687 16.3661 140.897 16.3661V16.3661ZM140.802 24.6189C142.136 24.6189 143.166 23.5847 143.166 21.5246C143.166 19.4645 142.087 18.3975 140.761 18.3975C139.436 18.3975 138.389 19.4316 138.389 21.4836C138.389 23.5355 139.456 24.6189 140.802 24.6189V24.6189Z" fill="#1F304C"/>
<path d="M152.703 16.3661C155.678 16.3661 157.656 18.34 157.656 21.3399C157.656 24.6681 155.67 26.6503 152.461 26.6503C149.482 26.6503 147.495 24.6763 147.495 21.6805C147.495 18.3482 149.49 16.3661 152.703 16.3661V16.3661ZM152.605 24.6189C153.938 24.6189 154.968 23.5847 154.968 21.5246C154.968 19.4645 153.889 18.3975 152.568 18.3975C151.246 18.3975 150.192 19.4316 150.192 21.4836C150.192 23.5355 151.263 24.6189 152.605 24.6189V24.6189Z" fill="#1F304C"/>
<path d="M163.574 16.3743C165.015 16.3743 165.831 16.7354 166.151 17.0555C166.261 17.1606 166.346 17.2887 166.4 17.4307C166.454 17.5727 166.476 17.7249 166.463 17.8763C166.463 18.094 166.377 18.3027 166.223 18.4567C166.069 18.6106 165.86 18.6971 165.643 18.6971C165.138 18.6971 164.563 18.2867 163.455 18.2867C162.425 18.2867 162.015 18.6683 162.015 19.1526C162.015 20.7941 166.939 19.9036 166.939 23.3877C166.939 25.1975 165.499 26.638 162.581 26.638C160.939 26.638 160.119 26.2686 159.749 25.9075C159.641 25.8016 159.557 25.6733 159.503 25.5315C159.449 25.3898 159.427 25.238 159.437 25.0867C159.433 24.9762 159.451 24.8659 159.49 24.7625C159.53 24.6591 159.589 24.5647 159.666 24.485C159.743 24.4053 159.835 24.3419 159.936 24.2986C160.038 24.2553 160.148 24.233 160.258 24.2331C160.763 24.2331 161.338 24.6968 162.721 24.6968C163.898 24.6968 164.362 24.2865 164.362 23.6955C164.362 21.9842 159.437 22.8748 159.437 19.4522C159.437 17.6998 160.82 16.3579 163.586 16.3579" fill="#1F304C"/>
<path d="M171.203 22.0499C171.351 23.6463 172.373 24.5573 174.006 24.5573C175.348 24.5573 175.894 24.1223 176.39 24.1223C176.497 24.1198 176.604 24.1396 176.703 24.1804C176.802 24.2212 176.891 24.2821 176.965 24.3593C177.039 24.4365 177.096 24.5282 177.133 24.6287C177.17 24.7292 177.185 24.8363 177.178 24.9431C177.183 25.0894 177.155 25.2349 177.098 25.3695C177.041 25.5041 176.955 25.6247 176.846 25.7228C176.456 26.1332 175.34 26.6256 173.538 26.6256C170.444 26.6256 168.564 24.7584 168.564 21.8077C168.564 18.3646 170.616 16.3414 173.489 16.3414C175.98 16.3414 177.593 17.9378 177.593 20.6012C177.593 21.5656 177.125 22.0335 176.296 22.0335H171.203V22.0499ZM175.155 20.3386C174.987 18.8981 174.375 18.2169 173.255 18.2169C172.311 18.2169 171.515 18.8407 171.232 20.3386H175.155Z" fill="#1F304C"/>
<path d="M181.167 23.281C181.388 23.2745 181.607 23.3137 181.811 23.3959C182.015 23.4782 182.2 23.6019 182.354 23.7591C182.509 23.9164 182.629 24.1039 182.707 24.3097C182.785 24.5156 182.82 24.7354 182.809 24.9554C182.818 25.1814 182.779 25.4067 182.697 25.6172C182.614 25.8278 182.489 26.019 182.329 26.1789C182.169 26.3388 181.978 26.4639 181.768 26.5465C181.557 26.629 181.332 26.6671 181.106 26.6585C180.885 26.6678 180.665 26.6311 180.459 26.5509C180.253 26.4706 180.066 26.3486 179.91 26.1923C179.754 26.0361 179.632 25.8491 179.551 25.6433C179.471 25.4374 179.435 25.2172 179.444 24.9964C179.438 24.7688 179.478 24.5422 179.562 24.3307C179.647 24.1192 179.774 23.9272 179.935 23.7666C180.097 23.6059 180.289 23.4799 180.501 23.3964C180.713 23.313 180.94 23.2737 181.167 23.281" fill="#1F304C"/>
<path d="M189.695 16.3661C192.67 16.3661 194.648 18.34 194.648 21.3399C194.648 24.6681 192.662 26.6503 189.449 26.6503C186.474 26.6503 184.487 24.6763 184.487 21.6805C184.487 18.3482 186.482 16.3661 189.695 16.3661V16.3661ZM189.597 24.6189C190.93 24.6189 191.96 23.5847 191.96 21.5246C191.96 19.4645 190.881 18.3975 189.556 18.3975C188.23 18.3975 187.184 19.4316 187.184 21.4836C187.184 23.5355 188.267 24.6189 189.597 24.6189V24.6189Z" fill="#1F304C"/>
<path d="M196.905 17.5603C196.888 17.4117 196.905 17.2613 196.954 17.1201C197.004 16.9789 197.084 16.8506 197.19 16.7449C197.296 16.6392 197.424 16.5587 197.565 16.5094C197.706 16.4602 197.857 16.4434 198.005 16.4605C198.144 16.4458 198.285 16.459 198.419 16.4993C198.553 16.5396 198.677 16.6063 198.785 16.6953C198.893 16.7844 198.982 16.8941 199.046 17.0179C199.111 17.1418 199.151 17.2774 199.163 17.4167L199.29 18.1266H199.318C199.803 17.1048 200.64 16.3661 201.662 16.3661C202.405 16.3661 202.823 16.7765 202.823 17.5972C202.823 18.578 202.384 19.1444 201.867 19.1444C201.584 19.1444 201.432 18.9966 201.128 18.9966C200.496 18.9966 199.897 19.6984 199.552 20.3878V25.3535C199.552 26.0921 199.142 26.5189 198.227 26.5189C197.312 26.5189 196.905 26.1086 196.905 25.3535V17.5562" fill="#1F304C"/>
<path d="M211.474 17.5028C211.774 17.7852 212.014 18.126 212.177 18.5043C212.341 18.8826 212.426 19.2903 212.426 19.7025C212.426 21.8159 210.887 23.3425 208.047 23.3425C207.65 23.3469 207.254 23.2972 206.87 23.1948C206.638 23.389 206.491 23.6657 206.459 23.9663C206.459 24.4793 206.808 24.7871 208.162 24.7871H209.369C212.016 24.7871 213.214 25.8664 213.214 27.5695C213.214 29.5639 211.384 31.2301 207.879 31.2301C204.596 31.2301 203.295 29.884 203.295 28.3082C203.315 27.7992 203.467 27.3042 203.737 26.8723C204.007 26.4404 204.385 26.0866 204.834 25.8459C204.612 25.6591 204.433 25.4253 204.312 25.1613C204.191 24.8974 204.129 24.6098 204.132 24.3193C204.159 23.9541 204.264 23.5988 204.44 23.278C204.616 22.9571 204.86 22.6781 205.154 22.4602C204.77 22.1751 204.459 21.8037 204.245 21.3759C204.031 20.9482 203.921 20.4762 203.923 19.9979C203.923 17.8968 205.458 16.3578 208.31 16.3578C208.849 16.3535 209.385 16.4352 209.898 16.6L211.006 15.2498C211.359 14.8394 211.581 14.6753 211.942 14.6753C212.217 14.678 212.48 14.785 212.679 14.9747C212.878 15.1645 212.997 15.4227 213.013 15.6971C213.013 16.0254 212.808 16.2511 212.41 16.6287L211.495 17.4864L211.474 17.5028ZM207.904 26.6749C207.49 26.6785 207.077 26.6358 206.673 26.5476C206.459 26.7115 206.283 26.9202 206.158 27.1591C206.033 27.398 205.963 27.6614 205.95 27.9306C205.95 28.7514 206.603 29.3587 208.101 29.3587C209.837 29.3587 210.641 28.657 210.641 27.8321C210.641 27.1427 210.185 26.6749 208.909 26.6749H207.904ZM208.203 21.4958C209.283 21.4958 209.927 20.8556 209.927 19.8543C209.927 18.853 209.266 18.1799 208.166 18.1799C207.067 18.1799 206.451 18.8201 206.451 19.8215C206.451 20.8228 207.095 21.5122 208.183 21.5122L208.203 21.4958Z" fill="#1F304C"/>
<path d="M27.3027 25.6366L29.7117 23.4616C29.7815 23.3966 29.8669 23.3508 29.9596 23.3285C30.0524 23.3062 30.1493 23.3082 30.241 23.3344L31.743 23.7448C31.8198 23.7657 31.898 23.7808 31.977 23.7899C32.2161 23.8176 32.4584 23.7866 32.6828 23.6996C32.6828 23.6996 37.6854 22.214 38.8837 21.0239C39.7045 20.2032 40.2995 17.6383 39.2448 16.5713C39.1094 16.4277 38.9822 16.2881 38.8345 16.2717C37.4227 16.0952 22.3001 14.1336 22.3001 14.1336C22.2403 14.1264 22.1855 14.0963 22.1473 14.0497C22.109 14.003 22.0903 13.9434 22.095 13.8833C22.2749 11.5988 21.9397 9.30303 21.1141 7.16532C20.8854 6.43683 20.382 5.82601 19.7106 5.46224C17.7449 4.44449 6.42246 5.52379 4.25564 7.10377C4.09997 7.21066 3.96157 7.34075 3.84526 7.48952C2.64694 9.09412 2.48689 16.9283 4.92046 18.6109C5.63042 19.0992 6.82874 19.3003 8.77805 19.2429C8.83731 19.2438 8.89399 19.2672 8.93664 19.3084C8.9793 19.3495 9.00476 19.4053 9.00787 19.4645L9.21716 24.5163C9.21986 24.574 9.20255 24.6308 9.16815 24.6772C9.13374 24.7235 9.08437 24.7566 9.02839 24.7707C8.12965 24.9513 7.63308 24.9923 7.29247 25.3001C6.5784 25.9485 5.9259 30.4504 5.77816 31.3738C5.77247 31.4085 5.75654 31.4407 5.73241 31.4663C5.70828 31.4919 5.67705 31.5097 5.64273 31.5174C3.05488 28.2371 1.65591 24.1762 1.67434 19.998C1.67373 18.8696 1.77398 17.7434 1.97391 16.6328C1.98421 16.5841 1.98421 16.5338 1.97391 16.4851C1.79918 15.7298 1.67714 14.9633 1.60867 14.1911C1.60305 14.1002 1.56513 14.0143 1.50175 13.9489C1.43837 13.8836 1.35371 13.843 1.26305 13.8346C1.17239 13.8262 1.0817 13.8504 1.00736 13.903C0.933027 13.9556 0.879936 14.033 0.857673 14.1213C-0.350907 18.1721 -0.280684 22.4972 1.05876 26.5066C1.65833 28.4058 2.56949 30.1921 3.75497 31.7924C5.53278 34.3201 7.89088 36.3847 10.6314 37.8128C13.372 39.2409 16.4151 39.991 19.5054 40C28.9442 40 36.7949 33.1466 38.6169 24.0361C38.6287 23.9662 38.6209 23.8944 38.5945 23.8286C38.5681 23.7628 38.5241 23.7055 38.4672 23.6631C38.4104 23.6207 38.343 23.5948 38.2724 23.5882C38.2018 23.5816 38.1307 23.5946 38.067 23.6258C37.7428 23.7817 37.4063 23.9376 37.0575 24.0813C37.0021 24.1051 36.9532 24.1417 36.9146 24.188C36.8761 24.2344 36.8491 24.2892 36.8359 24.348C35.907 28.2709 33.7137 31.7794 30.594 34.3326C30.5664 34.3357 30.5386 34.3327 30.5123 34.3238C30.4861 34.3149 30.4622 34.3003 30.4422 34.2812C30.4222 34.262 30.4067 34.2386 30.3968 34.2128C30.3868 34.1869 30.3827 34.1592 30.3847 34.1315C30.4298 32.962 30.4832 29.9703 29.8142 28.8869C29.0468 27.6557 27.59 27.073 27.1796 26.601C27.1099 26.5086 27.0711 26.3966 27.0688 26.2809C27.056 26.1671 27.0701 26.0519 27.1098 25.9444C27.1489 25.8317 27.2168 25.7313 27.3068 25.653L27.3027 25.6366ZM15.496 36.5692C15.496 37.3202 15.3811 37.6444 15.0856 37.7142C12.2406 36.9702 9.62664 35.5271 7.48124 33.516C7.47921 33.4777 7.47921 33.4393 7.48124 33.4011C7.56332 31.6323 7.80545 29.1372 8.01474 28.4765C8.02691 28.417 8.05214 28.3609 8.08861 28.3123C8.15837 28.259 8.38819 28.2261 8.44154 28.3123C9.82042 30.0893 13.4769 34.0987 15.1102 34.0987C15.4591 34.0823 15.5494 34.6609 15.496 36.5692ZM16.2675 23.5314C14.8107 23.7284 13.0871 23.991 11.5358 24.2742C11.4983 24.2806 11.4599 24.279 11.4231 24.2696C11.3862 24.2602 11.3518 24.2431 11.322 24.2195C11.2922 24.1959 11.2677 24.1662 11.2501 24.1325C11.2325 24.0988 11.2222 24.0618 11.2198 24.0238L10.7561 19.2757C10.7538 19.2568 10.7553 19.2377 10.7605 19.2194C10.7657 19.2011 10.7744 19.184 10.7863 19.1691C10.7981 19.1542 10.8128 19.1418 10.8294 19.1326C10.8461 19.1235 10.8644 19.1177 10.8833 19.1157C12.5701 18.953 14.2469 18.6995 15.9064 18.3564C15.9268 18.3523 15.9479 18.3526 15.9682 18.3574C15.9885 18.3622 16.0075 18.3713 16.024 18.3842C16.0404 18.3971 16.0538 18.4134 16.0632 18.432C16.0727 18.4506 16.078 18.471 16.0788 18.4919L16.444 23.3139C16.4481 23.3634 16.4342 23.4127 16.4048 23.4527C16.3754 23.4927 16.3324 23.5206 16.2839 23.5314H16.2675ZM27.9798 31.1399C28.0047 31.1171 28.0354 31.102 28.0686 31.0962C28.1017 31.0904 28.1358 31.0942 28.1669 31.1071C28.1979 31.1201 28.2246 31.1416 28.2438 31.1692C28.2631 31.1968 28.274 31.2294 28.2753 31.263C28.5195 32.7721 28.5306 34.3098 28.3081 35.8223L28.2835 35.9003C25.6133 37.4587 22.5766 38.2788 19.4849 38.2764C19.013 38.2764 18.5452 38.2764 18.0814 38.2231C17.9451 38.0387 17.8796 37.8115 17.8967 37.5829C17.8967 37.4392 17.946 35.6089 17.9665 34.5501C17.9697 34.3981 18.0327 34.2535 18.1417 34.1475C18.2508 34.0415 18.3972 33.9827 18.5493 33.9838C21.5779 34.0043 24.3644 33.5775 27.9963 31.1399H27.9798ZM25.2303 25.2919C25.1512 25.3511 25.0611 25.3939 24.9653 25.4179C24.8694 25.4419 24.7698 25.4465 24.6722 25.4314C24.6058 25.4203 24.541 25.401 24.4793 25.374C23.1209 24.7584 20.2441 23.2523 18.935 23.2523C18.5862 23.2523 18.4877 23.121 18.3687 22.4315L17.708 18.1307C17.7008 18.0747 17.7137 18.0179 17.7446 17.9705C17.7754 17.9232 17.8221 17.8883 17.8762 17.8722C19.6942 17.3921 21.0731 16.8421 21.4753 16.3415C21.609 16.1614 21.7116 15.9603 21.779 15.7464C21.8042 15.6716 21.8552 15.6083 21.9229 15.5677C21.9906 15.5271 22.0705 15.5119 22.1483 15.5248L26.0059 16.2225C26.1044 16.2225 27.0811 16.4071 27.0811 16.9529C27.0811 17.4988 26.1577 17.6588 26.0059 17.6875L20.4411 18.7135C20.2819 18.7444 20.1412 18.8365 20.0491 18.97C19.9571 19.1035 19.921 19.2678 19.9487 19.4275C19.9981 19.7457 20.1376 20.0431 20.3507 20.2846C20.5638 20.526 20.8415 20.7014 21.1511 20.79L27.0524 22.4315C27.1235 22.4516 27.1912 22.482 27.2535 22.5218C27.3546 22.585 27.4388 22.6718 27.4988 22.7747C27.5589 22.8777 27.593 22.9937 27.5982 23.1128C27.6075 23.218 27.5944 23.3239 27.5597 23.4237C27.525 23.5234 27.4696 23.6147 27.3971 23.6914L27.3109 23.7653L25.2303 25.2919Z" fill="#1F304C"/>
<path d="M9.61107 3.61958L12.0939 3.34462C12.1334 3.34065 12.1721 3.33098 12.2088 3.3159C14.4952 2.26145 16.9835 1.71674 19.5013 1.71951C27.1795 1.71951 33.721 6.69334 36.2326 13.6657C36.2583 13.7314 36.3005 13.7893 36.3552 13.8338C36.4098 13.8784 36.475 13.9081 36.5444 13.9202L37.554 14.0515C37.6173 14.0534 37.6801 14.0405 37.7376 14.0141C37.7951 13.9876 37.8457 13.9482 37.8855 13.8989C37.9252 13.8496 37.953 13.7918 37.9667 13.73C37.9804 13.6682 37.9796 13.6041 37.9644 13.5426C35.342 5.66738 28.0701 5.68653e-06 19.4972 5.68653e-06C15.9132 -0.00276327 12.4013 1.00574 9.36483 2.90962C9.29167 2.95598 9.23624 3.02561 9.20746 3.10731C9.17868 3.189 9.17824 3.27801 9.2062 3.35999C9.23415 3.44197 9.28889 3.51215 9.36159 3.55924C9.43428 3.60633 9.52071 3.62758 9.60696 3.61958" fill="#1F304C"/>
</svg>
