<svg fill="none" height="40" viewBox="0 0 214 40" width="214" xmlns="http://www.w3.org/2000/svg"><g fill="#1f304c"><path d="m46.9558 14.2814c-.0158-.1656.0051-.3327.0613-.4893.0563-.1566.1465-.2988.2641-.4165.1177-.1176.2599-.2078.4165-.2641.1566-.0562.3237-.0772.4893-.0613h3.2584c4.4486 0 6.8493 2.3926 6.8493 6.4143 0 4.3583-2.647 6.997-7.1324 6.997h-2.9753c-.1656.0159-.3327-.005-.4893-.0613-.1566-.0562-.2988-.1464-.4165-.2641-.1176-.1176-.2078-.2598-.2641-.4164-.0562-.1566-.0771-.3237-.0613-.4893zm4.3501 10.0831c2.6018 0 4.2146-1.6169 4.2146-4.6989s-1.4404-4.5142-4.2146-4.5142h-1.6415v9.2254z"/><path d="m65.1853 16.3661c2.9793 0 4.9533 1.9739 4.9533 4.9738 0 3.3282-1.9863 5.3104-5.1955 5.3104-2.9793 0-4.9656-1.974-4.9656-4.9698 0-3.3323 1.9945-5.3144 5.2078-5.3144zm-.0985 8.2528c1.3337 0 2.3679-1.0342 2.3679-3.0943s-1.0834-3.1271-2.4048-3.1271c-1.3215 0-2.3762 1.0341-2.3762 3.0861 0 2.0519 1.0711 3.1353 2.4131 3.1353z"/><path d="m72.3956 17.5603c-.017-.1486-.0003-.2991.049-.4403.0492-.1412.1297-.2694.2354-.3752.1058-.1057.234-.1862.3752-.2354.1412-.0493.2917-.066.4403-.049.1378-.017.2777-.0062.4112.032.1336.0382.2581.1028.3661.1902.108.0873.1973.1955.2626.3181.0652.1226.1052.257.1173.3954l.078.4966h.041c.3374-.4904.7938-.8869 1.3264-1.1525.5327-.2656 1.1241-.3915 1.7187-.3659 2.2981 0 3.7263 1.4322 3.7263 4.0504v4.9246c0 .7387-.4104 1.1655-1.3215 1.1655-.911 0-1.3255-.4104-1.3255-1.1655v-4.6127c0-1.5882-.6607-2.2489-1.7811-2.2489-1.3789 0-2.0519 1.4199-2.0519 1.4199v5.4499c0 .7387-.4104 1.1655-1.3214 1.1655-.9111 0-1.3255-.4104-1.3255-1.1655v-7.7972"/><path d="m88.9092 16.3661c2.9794 0 4.9533 1.9739 4.9533 4.9738 0 3.3282-1.9821 5.3104-5.1954 5.3104-2.9753 0-4.9615-1.974-4.9615-4.9698 0-3.3323 1.9944-5.3144 5.2036-5.3144zm-.0944 8.2528c1.3338 0 2.3638-1.0342 2.3638-3.0943s-1.0793-3.1271-2.4048-3.1271-2.372 1.0341-2.372 3.0861c0 2.0519 1.067 3.1353 2.413 3.1353z"/><path d="m96.1237 17.5603c-.0171-.1486-.0004-.299.0489-.4402.0492-.1412.1297-.2695.2355-.3752.1057-.1057.2339-.1862.3751-.2355.1412-.0492.2917-.066.4403-.0489.139-.0147.2796-.0015.4135.0388.1338.0403.2583.107.3661.196.1078.0891.1967.1988.2615.3226.0649.1239.1044.2595.1162.3988l.1272.7099h.0287c.4843-1.0218 1.3214-1.7605 2.3433-1.7605.739 0 1.157.4104 1.157 1.2311 0 .9808-.435 1.5472-.952 1.5472-.283 0-.439-.1478-.739-.1478-.6315 0-1.2307.7018-1.5754 1.3912v4.9657c0 .7386-.4309 1.1654-1.3255 1.1654s-1.3214-.4103-1.3214-1.1654v-7.7973"/><path d="m107.208 16.3743c1.441 0 2.257.3611 2.577.6812.11.1051.195.2332.249.3752s.076.2942.063.4456c0 .2177-.086.4264-.24.5804-.154.1539-.363.2404-.581.2404-.504 0-1.079-.4104-2.187-.4104-1.034 0-1.44.3816-1.44.8659 0 1.6415 4.924.751 4.924 4.2351 0 1.8098-1.44 3.2503-4.358 3.2503-1.641 0-2.462-.3694-2.832-.7305-.108-.1059-.192-.2342-.246-.376-.054-.1417-.076-.2935-.065-.4448-.005-.1105.013-.2208.052-.3242.04-.1034.099-.1978.176-.2775s.169-.1431.27-.1864c.102-.0433.212-.0656.322-.0655.509 0 1.084.4637 2.463.4637 1.173 0 1.641-.4103 1.641-1.0013 0-1.7113-4.924-.8207-4.924-4.2433 0-1.7524 1.383-3.0943 4.148-3.0943"/><path d="m118.769 12.8696c1.641 0 2.696.5458 3.086.9357.128.1206.229.2673.295.4301.067.1628.098.338.091.5138.007.1258-.012.2517-.055.3699-.044.1182-.112.226-.2.3166-.087.0907-.193.1622-.309.21-.117.0478-.242.0709-.368.0679-.583 0-1.014-.6731-2.598-.6731-1.986 0-3.66 1.6046-3.66 4.859 0 2.9383 1.596 4.5142 3.796 4.5142 1.555 0 2.052-.6525 2.618-.6525.114.003.226.0291.33.0766.103.0475.196.1154.273.1998.077.0843.135.1833.173.2909.037.1077.053.2218.045.3355.003.1651-.03.329-.096.4804-.066.1515-.163.2871-.286.3978-.464.4555-1.641 1.0588-3.521 1.0588-3.64 0-6.111-2.4623-6.111-6.4225 0-4.5347 2.647-7.3294 6.501-7.3294"/><path d="m124.383 13.202c0-.7387.431-1.1696 1.325-1.1696.895 0 1.322.4104 1.322 1.1696v2.9302c-.001.5005-.03 1.0005-.086 1.4979h.028c.346-.4107.781-.7372 1.271-.9548.491-.2176 1.025-.3205 1.561-.301 2.298 0 3.726 1.4322 3.726 4.0505v4.9245c0 .7387-.41 1.1655-1.321 1.1655s-1.326-.4104-1.326-1.1655v-4.6126c0-1.5882-.66-2.2489-1.781-2.2489-1.383 0-2.072 1.4199-2.072 1.4199v5.4499c0 .7386-.411 1.1654-1.322 1.1654s-1.325-.4103-1.325-1.1654z"/><path d="m140.897 16.3661c2.979 0 4.953 1.9739 4.953 4.9738 0 3.3282-1.982 5.3104-5.196 5.3104-2.975 0-4.961-1.974-4.961-4.9698 0-3.3323 1.994-5.3144 5.204-5.3144zm-.095 8.2528c1.334 0 2.364-1.0342 2.364-3.0943s-1.079-3.1271-2.405-3.1271c-1.325 0-2.372 1.0341-2.372 3.0861 0 2.0519 1.067 3.1353 2.413 3.1353z"/><path d="m152.703 16.3661c2.975 0 4.953 1.9739 4.953 4.9738 0 3.3282-1.986 5.3104-5.195 5.3104-2.98 0-4.966-1.974-4.966-4.9698 0-3.3323 1.995-5.3144 5.208-5.3144zm-.099 8.2528c1.334 0 2.364-1.0342 2.364-3.0943s-1.079-3.1271-2.401-3.1271c-1.321 0-2.376 1.0341-2.376 3.0861 0 2.0519 1.071 3.1353 2.413 3.1353z"/><path d="m163.574 16.3743c1.44 0 2.257.3611 2.577.6812.11.1051.195.2332.249.3752s.075.2942.063.4456c0 .2177-.086.4264-.24.5804-.154.1539-.363.2404-.581.2404-.505 0-1.079-.4104-2.187-.4104-1.03 0-1.441.3816-1.441.8659 0 1.6415 4.925.751 4.925 4.2351 0 1.8098-1.44 3.2503-4.358 3.2503-1.642 0-2.463-.3694-2.832-.7305-.108-.1059-.193-.2342-.246-.376-.054-.1417-.077-.2935-.066-.4448-.004-.1105.014-.2208.053-.3242s.099-.1978.176-.2775c.076-.0797.168-.1431.27-.1864s.211-.0656.322-.0655c.505 0 1.079.4637 2.462.4637 1.178 0 1.642-.4103 1.642-1.0013 0-1.7113-4.925-.8207-4.925-4.2433 0-1.7524 1.383-3.0943 4.149-3.0943"/><path d="m171.203 22.0498c.148 1.5964 1.17 2.5075 2.803 2.5075 1.342 0 1.888-.435 2.384-.435.107-.0025.214.0173.313.0581s.188.1017.262.1789.131.1689.168.2694.052.2076.045.3143c.005.1463-.023.2918-.08.4265-.057.1346-.143.2552-.252.3533-.39.4104-1.506.9028-3.308.9028-3.094 0-4.974-1.8672-4.974-4.8179 0-3.4431 2.052-5.4663 4.925-5.4663 2.491 0 4.104 1.5964 4.104 4.2598 0 .9644-.468 1.4322-1.297 1.4322h-5.093zm3.952-1.7112c-.168-1.4405-.78-2.1217-1.9-2.1217-.944 0-1.74.6238-2.023 2.1217z"/><path d="m181.167 23.281c.221-.0065.44.0326.644.1149s.389.206.543.3632c.155.1573.275.3448.353.5506.078.2059.113.4257.102.6457.009.226-.03.4513-.112.6618-.083.2106-.208.4018-.368.5617s-.351.285-.561.3676c-.211.0825-.436.1206-.662.112-.221.0093-.441-.0274-.647-.1076-.206-.0803-.393-.2024-.549-.3586s-.278-.3432-.359-.549c-.08-.2059-.116-.4261-.107-.6469-.006-.2277.034-.4542.118-.6657.085-.2115.212-.4035.373-.5642.162-.1606.354-.2866.566-.3701s.439-.1227.666-.1154"/><path d="m189.695 16.3661c2.975 0 4.953 1.9739 4.953 4.9738 0 3.3282-1.986 5.3104-5.199 5.3104-2.975 0-4.962-1.974-4.962-4.9698 0-3.3323 1.995-5.3144 5.208-5.3144zm-.098 8.2528c1.333 0 2.363-1.0342 2.363-3.0943s-1.079-3.1271-2.404-3.1271c-1.326 0-2.372 1.0341-2.372 3.0861 0 2.0519 1.083 3.1353 2.413 3.1353z"/><path d="m196.905 17.5603c-.017-.1486 0-.299.049-.4402.05-.1412.13-.2695.236-.3752s.234-.1862.375-.2355c.141-.0492.292-.066.44-.0489.139-.0147.28-.0015.414.0388s.258.107.366.196c.108.0891.197.1988.261.3226.065.1239.105.2595.117.3988l.127.7099h.028c.485-1.0218 1.322-1.7605 2.344-1.7605.743 0 1.161.4104 1.161 1.2311 0 .9808-.439 1.5472-.956 1.5472-.283 0-.435-.1478-.739-.1478-.632 0-1.231.7018-1.576 1.3912v4.9657c0 .7386-.41 1.1654-1.325 1.1654s-1.322-.4103-1.322-1.1654v-7.7973"/><path d="m211.474 17.5028c.3.2824.539.6233.703 1.0015.164.3783.248.786.249 1.1982 0 2.1134-1.539 3.6401-4.379 3.6401-.397.0044-.794-.0453-1.178-.1478-.231.1942-.378.4709-.41.7715 0 .513.349.8208 1.703.8208h1.207c2.647 0 3.845 1.0793 3.845 2.7824 0 1.9945-1.83 3.6606-5.335 3.6606-3.283 0-4.584-1.346-4.584-2.9219.02-.509.172-1.0039.442-1.4358.27-.432.648-.7858 1.097-1.0265-.223-.1868-.401-.4206-.522-.6846-.122-.2639-.183-.5515-.18-.842.026-.3652.131-.7204.308-1.0413.176-.3209.42-.5998.714-.8178-.384-.2851-.695-.6565-.909-1.0843-.214-.4277-.324-.8997-.322-1.378 0-2.1011 1.535-3.64 4.387-3.64.539-.0044 1.075.0773 1.588.2421l1.108-1.3502c.353-.4104.575-.5745.936-.5745.275.0027.538.1097.737.2995.199.1897.318.4479.334.7223 0 .3283-.205.5541-.603.9316l-.916.8577zm-3.57 9.1721c-.414.0036-.827-.0391-1.232-.1272-.214.1638-.389.3725-.514.6114s-.196.5023-.208.7715c0 .8208.653 1.4282 2.151 1.4282 1.735 0 2.54-.7018 2.54-1.5267 0-.6894-.456-1.1572-1.732-1.1572zm.299-5.1791c1.079 0 1.724-.6402 1.724-1.6415s-.661-1.6743-1.761-1.6743-1.715.6402-1.715 1.6415.644 1.6908 1.732 1.6908z"/><path d="m27.3027 25.6366 2.409-2.175c.0698-.065.1552-.1108.2479-.1331.0928-.0223.1897-.0203.2814.0059l1.502.4104c.0768.0209.155.036.234.0451.2391.0277.4814-.0033.7058-.0903 0 0 5.0026-1.4856 6.2009-2.6757.8208-.8207 1.4158-3.3856.3611-4.4526-.1354-.1436-.2626-.2832-.4103-.2996-1.4118-.1765-16.5344-2.1381-16.5344-2.1381-.0598-.0072-.1146-.0373-.1528-.0839-.0383-.0467-.057-.1063-.0523-.1664.1799-2.2845-.1553-4.58027-.9809-6.71798-.2287-.72849-.7321-1.33931-1.4035-1.70308-1.9657-1.01775-13.28814.06155-15.45496 1.64153-.15567.10689-.29407.23698-.41038.38575-1.19832 1.6046-1.35837 9.43878 1.0752 11.12138.70996.4883 1.90828.6894 3.85759.632.05926.0009.11594.0243.15859.0655.04266.0411.06812.0969.07123.1561l.20929 5.0518c.0027.0577-.01461.1145-.04901.1609-.03441.0463-.08378.0794-.13976.0935-.89874.1806-1.39531.2216-1.73592.5294-.71407.6484-1.36657 5.1503-1.51431 6.0737-.00569.0347-.02162.0669-.04575.0925s-.05536.0434-.08968.0511c-2.58785-3.2803-3.98682-7.3412-3.96839-11.5194-.00061-1.1284.09964-2.2546.29957-3.3652.0103-.0487.0103-.099 0-.1477-.17473-.7553-.29677-1.5218-.36524-2.294-.00562-.0909-.04354-.1768-.10692-.2422-.06338-.0653-.14804-.1059-.2387-.1143s-.18135.0158-.25569.0684c-.074333.0526-.127424.13-.149687.2183-1.20858 4.0508-1.138357 8.3759.201087 12.3853.59957 1.8992 1.51073 3.6855 2.69621 5.2858 1.77781 2.5277 4.13591 4.5923 6.87643 6.0204 2.7406 1.4281 5.7837 2.1782 8.874 2.1872 9.4388 0 17.2895-6.8534 19.1115-15.9639.0118-.0699.004-.1417-.0224-.2075s-.0704-.1231-.1273-.1655c-.0568-.0424-.1242-.0683-.1948-.0749s-.1417.0064-.2054.0376c-.3242.1559-.6607.3118-1.0095.4555-.0554.0238-.1043.0604-.1429.1067-.0385.0464-.0655.1012-.0787.16-.9289 3.9229-3.1222 7.4314-6.2419 9.9846-.0276.0031-.0554.0001-.0817-.0088-.0262-.0089-.0501-.0235-.0701-.0426-.02-.0192-.0355-.0426-.0454-.0684-.01-.0259-.0141-.0536-.0121-.0813.0451-1.1695.0985-4.1612-.5705-5.2446-.7674-1.2312-2.2242-1.8139-2.6346-2.2859-.0697-.0924-.1085-.2044-.1108-.3201-.0128-.1138.0013-.229.041-.3365.0391-.1127.107-.2131.197-.2914zm-11.8067 10.9326c0 .751-.1149 1.0752-.4104 1.145-2.845-.744-5.45896-2.1871-7.60436-4.1982-.00203-.0383-.00203-.0767 0-.1149.08208-1.7688.32421-4.2639.5335-4.9246.01217-.0595.0374-.1156.07387-.1642.06976-.0533.29958-.0862.35293 0 1.37888 1.777 5.03536 5.7864 6.66866 5.7864.3489-.0164.4392.5622.3858 2.4705zm.7715-13.0378c-1.4568.197-3.1804.4596-4.7317.7428-.0375.0064-.0759.0048-.1127-.0046-.0369-.0094-.0713-.0265-.1011-.0501s-.0543-.0533-.0719-.087-.0279-.0707-.0303-.1087l-.4637-4.7481c-.0023-.0189-.0008-.038.0044-.0563s.0139-.0354.0258-.0503c.0118-.0149.0265-.0273.0431-.0365.0167-.0091.035-.0149.0539-.0169 1.6868-.1627 3.3636-.4162 5.0231-.7593.0204-.0041.0415-.0038.0618.001s.0393.0139.0558.0268c.0164.0129.0298.0292.0392.0478.0095.0186.0148.039.0156.0599l.3652 4.822c.0041.0495-.0098.0988-.0392.1388s-.0724.0679-.1209.0787zm11.7123 7.6085c.0249-.0228.0556-.0379.0888-.0437.0331-.0058.0672-.002.0983.0109.031.013.0577.0345.0769.0621.0193.0276.0302.0602.0315.0938.2442 1.5091.2553 3.0468.0328 4.5593l-.0246.078c-2.6702 1.5584-5.7069 2.3785-8.7986 2.3761-.4719 0-.9397 0-1.4035-.0533-.1363-.1844-.2018-.4116-.1847-.6402 0-.1437.0493-1.974.0698-3.0328.0032-.152.0662-.2966.1752-.4026.1091-.106.2555-.1648.4076-.1637 3.0286.0205 5.8151-.4063 9.447-2.8439zm-2.7495-5.848c-.0791.0592-.1692.102-.265.126-.0959.024-.1955.0286-.2931.0135-.0664-.0111-.1312-.0304-.1929-.0574-1.3584-.6156-4.2352-2.1217-5.5443-2.1217-.3488 0-.4473-.1313-.5663-.8208l-.6607-4.3008c-.0072-.056.0057-.1128.0366-.1602.0308-.0473.0775-.0822.1316-.0983 1.818-.4801 3.1969-1.0301 3.5991-1.5307.1337-.1801.2363-.3812.3037-.5951.0252-.0748.0762-.1381.1439-.1787s.1476-.0558.2254-.0429l3.8576.6977c.0985 0 1.0752.1846 1.0752.7304 0 .5459-.9234.7059-1.0752.7346l-5.5648 1.026c-.1592.0309-.2999.123-.392.2565-.092.1335-.1281.2978-.1004.4575.0494.3182.1889.6156.402.8571.2131.2414.4908.4168.8004.5054l5.9013 1.6415c.0711.0201.1388.0505.2011.0903.1011.0632.1853.15.2453.2529.0601.103.0942.219.0994.3381.0093.1052-.0038.2111-.0385.3109-.0347.0997-.0901.191-.1626.2677l-.0862.0739z"/><path d="m9.61107 3.61958 2.48283-.27496c.0395-.00397.0782-.01364.1149-.02872 2.2864-1.05445 4.7747-1.59916 7.2925-1.59639 7.6782 0 14.2197 4.97383 16.7313 11.94619.0257.0657.0679.1236.1226.1681.0546.0446.1198.0743.1892.0864l1.0096.1313c.0633.0019.1261-.011.1836-.0374.0575-.0265.1081-.0659.1479-.1152.0397-.0493.0675-.1071.0812-.1689s.0129-.1259-.0023-.1874c-2.6224-7.87522-9.8943-13.54259431-18.4672-13.54259431-3.584-.00276896-7.0959 1.00573431-10.13237 2.90961431-.07316.04636-.12859.11599-.15737.19769-.02878.08169-.02922.1707-.00126.25268.02795.08198.08269.15216.15539.19925.07269.04709.15912.06834.24537.06034"/></g></svg>