<svg fill="none" height="38" viewBox="0 0 161 38" width="161" xmlns="http://www.w3.org/2000/svg"><path clip-rule="evenodd" d="m95.8613 17.2267c-2.432 0-4.1546 1.7226-4.3573 4.4586h8.512c-.1013-3.04-1.7227-4.4586-4.1547-4.4586zm-82.992 1.1146c1.1375.0023 2.2293.4483 3.043 1.2431.8138.7948 1.2853 1.8758 1.3144 3.0129-.008 1.1263-.4589 2.2042-1.2554 3.0007-.7964.7964-1.8743 1.2474-3.0006 1.2553-1.1322-.0197-2.2139-.4714-3.02397-1.2626-.81003-.7912-1.28703-1.862-1.3334-2.9934-.00541-.5604.10098-1.1162.31294-1.6351.21197-.5188.52526-.9901.92155-1.3864.39628-.3963.86758-.7096 1.38638-.9215.5189-.212 1.0747-.3184 1.6351-.313zm37.8987-1.1146c-2.6347 0-4.7627 2.0266-4.7627 5.2693v.2027c0 3.1413 2.0267 5.2693 4.7627 5.2693s4.7627-2.0267 4.7627-5.2693v-.2027c0-3.344-2.128-5.2693-4.7627-5.2693zm103.563 0c-2.736 0-4.662 1.9253-4.662 5.2693v.2027c0 3.4453 1.926 5.168 4.459 5.168s4.661-1.824 4.661-5.2694v-.2026c0-3.344-1.824-5.168-4.458-5.168zm-72.1497 0c-2.736 0-4.6613 1.9253-4.6613 5.2693v.2027c0 3.4453 1.9253 5.168 4.4587 5.168 2.5333 0 4.6613-1.824 4.6613-5.2694v-.2026c.1013-3.344-1.824-5.168-4.4587-5.168zm49.7547 5.3706h-2.533c-2.635 0-4.662.5067-4.662 2.736 0 1.6214 1.014 2.5334 3.04 2.5334 2.331 0 4.155-1.3174 4.155-3.1414zm-102.448 0h-1.824v2.2294h-2.2293v1.824h2.2293v2.128h1.824v-2.128h2.2293v-1.824h-2.2293zm-10.336-13.4773h-1.9253v9.0187c-1.199-1.0955-2.7745-1.6859-4.398-1.6481-1.6236.0378-3.16998.7007-4.3167 1.8507-.57672.5593-1.03524 1.2286-1.34836 1.9684s-.47447 1.535-.47447 2.3383.16135 1.5985.47447 2.3383.77164 1.4091 1.34836 1.9684c1.15993 1.136 2.7135 1.7807 4.337 1.7995 1.6235.0189 3.1916-.5894 4.3777-1.6982v1.7227h1.9253zm3.7493 7.1947h-1.9253v12.464h1.9253v-6.1814c.0261-1.1463.4988-2.2371 1.3174-3.04.8125-.7916 1.9057-1.2289 3.04-1.216v-1.9253c-1.6181.0022-3.1752.6178-4.3574 1.7227zm118.9657-.2027c2.634 0 4.458 1.4187 4.458 4.9653v7.7014h-1.317v-7.7014c0-2.6346-1.216-3.8506-3.445-3.8506-.537-.0305-1.074.0493-1.578.2345-.505.1851-.966.4718-1.355.8421s-.699.8166-.909 1.3111c-.21.4946-.317 1.0269-.313 1.5643v7.4986h-1.317v-12.464h1.317v2.432c.446-.785 1.095-1.435 1.88-1.8809.785-.446 1.676-.6714 2.579-.6524zm-77.2163 0c2.6346 0 4.4586 1.4187 4.4586 4.9653v7.7014h-1.3173v-7.7014c0-2.6346-1.216-3.8506-3.4453-3.8506-.5365-.0305-1.0735.0493-1.578.2345-.5044.1851-.9655.4718-1.3549.8421-.3893.3703-.6986.8166-.9087 1.3111-.2102.4946-.3167 1.0269-.3131 1.5643v7.4986h-1.3173v-12.464h1.3173v2.432c.4457-.785 1.0954-1.435 1.8803-1.8809.7849-.446 1.6758-.6714 2.5784-.6524zm44.1813 0c.863-.0789 1.725.1536 2.432.6554.706.5018 1.209 1.2399 1.419 2.0806.385-.8489 1.016-1.563 1.81-2.0506.795-.4876 1.717-.7263 2.648-.6854 2.432 0 4.155 1.3173 4.155 4.864v7.8027h-1.317v-7.904c0-2.6347-1.115-3.648-3.142-3.648-1.049.0178-2.056.4136-2.837 1.1146-.375.3682-.668.8111-.86 1.3-.192.4888-.279 1.0127-.255 1.5374v7.6h-1.317v-7.904c0-2.6347-1.115-3.648-3.141-3.648-1.049.0178-2.057.4136-2.838 1.1146-.716.771-1.115 1.7847-1.114 2.8374v7.6h-1.318v-12.464h1.318v2.3306c.464-.7459 1.104-1.3668 1.863-1.8084.76-.4416 1.616-.6905 2.494-.7249zm-12.9707 0c3.04 0 5.4717 1.9253 5.4717 6.08v.4053h-9.9303c0 3.344 1.6213 5.2694 4.6613 5.2694 2.128 0 3.5467-.8107 3.952-2.6347h1.216c-.507 2.3307-2.5333 3.648-5.168 3.648-3.648 0-5.9787-2.5333-5.9787-6.2827v-.2026c0-3.648 2.432-6.2827 5.776-6.2827zm-7.904-6.89067v19.55737h-1.3173v-2.8374c-.4339.8985-1.1092 1.6586-1.9502 2.1955-.8411.5368-1.8148.8292-2.8125.8445-3.1413 0-5.6746-2.3306-5.6746-6.2826v-.2027c0-3.8507 2.5333-6.384 5.8773-6.384.9671-.0239 1.9191.2435 2.7323.7675.8132.5241 1.45 1.2805 1.8277 2.1712v-9.82937zm72.1497-.10133v19.6587h-1.318v-2.8374c-.434.8985-1.109 1.6586-1.95 2.1955-.841.5368-1.815.8292-2.812.8445-3.142 0-5.675-2.3306-5.675-6.2826v-.2027c0-3.8507 2.533-6.384 5.877-6.384.967-.0239 1.919.2435 2.733.7675.813.5241 1.45 1.2805 1.827 2.1712v-9.9307zm-31.312 6.992c2.634 0 4.357 1.216 4.357 4.3573v8.208h-1.317v-1.9253c-.462.696-1.097 1.2588-1.844 1.6322s-1.579.5444-2.412.4958c-2.432 0-4.256-1.216-4.256-3.5467 0-2.8373 2.736-3.7493 5.877-3.7493h2.635v-1.1147c0-2.3306-.912-3.344-3.142-3.344-1.925 0-3.242.8107-3.546 2.6347h-1.216c.304-2.5333 2.533-3.648 4.864-3.648zm-78.027 0c.8182-.0091 1.6297.1488 2.3849.464.7551.3151 1.4381.7809 2.0071 1.369.569.588 1.0122 1.2858 1.3025 2.0509.2902.7651.4214 1.5813.3855 2.3988v.2026c.0449.8197-.0801 1.6398-.3671 2.4089s-.7298 1.4705-1.3007 2.0604c-.5708.5899-1.2574 1.0555-2.0167 1.3675-.7593.3121-1.5748.4639-2.3955.4459-.8158.0005-1.6233-.1633-2.3745-.4814-.7512-.3182-1.4307-.7842-1.998-1.3704-.5673-.5863-1.0108-1.2807-1.3042-2.0419-.2933-.7612-.4305-1.5736-.4033-2.389v-.2026c-.0272-.8154.11-1.6278.4033-2.389.2934-.7612.7369-1.4556 1.3042-2.0419.5673-.5862 1.2468-1.0522 1.998-1.3704.7512-.3181 1.5587-.4819 2.3745-.4814zm-12.464-16.112v38h-38.304v-38z" fill="#1f304c" fill-rule="evenodd"/></svg>