<svg fill="none" height="24" viewBox="0 0 156 24" width="156" xmlns="http://www.w3.org/2000/svg"><path d="m61.8042 6.6156h4.728v17.0322h-4.728zm0-1.8852h4.728v-4.7304h-4.728zm-6.9978 3.1896v-1.3044h-4.7304v17.0322h4.731v-11.1858c.7992-1.0212 2.1732-1.62 4.026-1.62.192 0 .864.0636.9912.096l-.0024-4.3224c-3.462 0-5.016 1.3038-5.016 1.3038zm21.1176 10.2648-2.8728-11.5692h-4.7604l4.953 17.0322h5.3604l4.953-17.0322h-4.7604zm21.96-2.7498v1.374h-10.1418c0 2.4582 1.6884 3.6744 3.396 3.6744 1.629 0 2.9718-1.086 3.6732-2.208l2.748 2.2056c-1.47 2.142-3.516 3.5172-6.648 3.5172-4.092 0-7.356-2.3562-7.356-8.8536 0-6.486 3.822-8.883 7.3056-8.883 3.8352 0 7.02 2.6202 7.02 9.1704zm-4.212-1.9542c-.162-2.5572-1.3542-3.606-2.8062-3.606-1.242 0-2.8356.888-3.0912 3.606h5.898zm-45.8928-1.7208c0 9.204-4.5696 11.8872-10.8336 11.8872h-6.198v-23.646h6.198c6.36-.0012 10.8348 2.619 10.8348 11.7588zm-4.758 0c0-5.5278-1.5372-7.6704-5.6592-7.6704h-1.8858v15.4992h1.9176c4.0902 0 5.628-2.109 5.628-7.8288zm69.4608 2.316c-.606-1.3878-.984-2.142-1.661-3.4662l-5.431-10.6098h-5.018v23.6478h4.73v-14.424c.543 1.185.886 1.8384 1.47 2.952l6.136 11.472h4.506v-23.6478h-4.731v14.076zm39.37-7.4604-2.324 11.5692-2.021-11.5692h-4.416l-2.021 11.5692-2.324-11.5692h-4.027l3.964 17.0322h4.73l1.884-10.0878.004-.0102.004.0096 1.885 10.086h4.728l3.964-17.0322h-4.027zm-17.544 8.532c0 6.3276-3.643 8.8524-7.509 8.8524-3.864 0-7.508-2.5248-7.508-8.8524 0-6.3918 3.612-8.8842 7.51-8.8842 3.867 0 7.511 2.49 7.511 8.8818zm-4.22 0c0-3.1962-1.244-5.274-3.289-5.274-1.946 0-3.288 1.824-3.288 5.274 0 3.228 1.144 5.328 3.222 5.328 1.95 0 3.358-1.812 3.358-5.328zm-116.9432-15.144h-10.1184c-1.6644 0-3.0264 1.362-3.0264 3.0264v1.773l8.31 2.5788 4.8342-7.3782zm-6.2508 14.5944 8.418-3.474-6.27-1.95-2.148 5.4258zm.7368-5.874-7.6308-2.364v11.0856l4.9788-2.0592 2.6502-6.6618zm9.438 1.38 4.0092-10.065c-.1481-.0232507-.2977-.03528493-.4476-.036h-5.712l-5.1222 7.8438 7.2702 2.2572zm6.5898 2.0592v-2.883l-3.9762 1.6476 3.9756 1.236zm-23.6586 6.876v1.5768c0 1.2258.7542 2.283 1.809 2.7576l2.418-6.0708-4.227 1.737zm22.44-18.426-3.6 9.0432 4.818-1.9878v-4.6386c-.0012-.984-.486-1.8642-1.218-2.418zm-16.3158 15.9012-2.8302 7.128h8.4l4.4772-11.2824-10.0464 4.155zm7.164 7.128h7.3416c1.6644 0 3.0264-1.3632 3.0264-3.027v-6.9114l-5.712-1.7736z" fill="#1f304c"/></svg>