<svg width="120" height="48" viewBox="0 0 120 48" fill="none" xmlns="http://www.w3.org/2000/svg">
<g clip-path="url(#clip0)">
<path d="M18.48 5.36001L0 16V26.64L9.2 32V21.36L18.48 16V5.36001ZM18.48 37.36V48L36.96 37.36V26.64L18.48 37.36ZM51.44 36.4V29.68H50.96V32.96C50.56 32.32 49.84 31.76 48.88 31.76C47.52 31.76 46.48 33.04 46.48 34.48C46.48 35.84 47.52 37.2 49.04 37.2C49.84 37.2 50.64 36.72 51.04 36.08V36.72C51.04 36.96 51.2 37.2 51.52 37.2H51.68V36.72C51.52 36.64 51.44 36.56 51.44 36.4ZM50.88 35.36C50.8 36.16 49.76 36.8 49.04 36.8C47.84 36.8 46.96 35.76 46.96 34.56C46.96 33.44 47.76 32.24 48.96 32.24C49.76 32.24 50.64 32.88 50.88 33.6V35.36ZM55.04 36.8C53.92 36.8 53.04 35.92 52.96 34.64H57.6V34.4C57.6 32.96 56.48 31.68 55.04 31.68C53.6 31.68 52.48 32.88 52.48 34.4C52.48 35.92 53.6 37.2 55.12 37.12C56.08 37.12 56.96 36.56 57.28 35.84L56.8 35.76C56.56 36.4 55.84 36.8 55.04 36.8ZM55.04 32.16C56.16 32.16 57.04 33.04 57.12 34.24H52.96C52.96 33.04 53.92 32.16 55.04 32.16ZM61.76 31.84L60.08 34L60 34.16L59.92 34L58.24 31.84H57.6L59.68 34.48L57.6 37.12H58.16L59.92 34.96L60 34.8L60.08 34.96L61.76 37.12H62.32L60.32 34.48L62.32 31.84H61.76ZM64.48 36.72C64.16 36.72 63.84 36.56 63.84 36.16V32.32H65.04V31.92H63.84V30.08H63.36V31.92H62.64V32.32H63.36V36.32C63.36 36.88 63.84 37.28 64.4 37.28C64.96 37.28 65.44 37.04 65.52 36.96L65.36 36.56C65.2 36.56 64.88 36.72 64.48 36.72ZM68.24 31.76C66.8 31.76 65.68 32.96 65.68 34.48C65.68 36 66.8 37.28 68.32 37.2C69.28 37.2 70.16 36.64 70.48 35.92L70.08 35.84C69.84 36.4 69.12 36.88 68.32 36.88C67.2 36.88 66.32 36 66.24 34.72H70.88V34.48C70.88 32.96 69.76 31.76 68.24 31.76ZM66.24 34.24C66.32 33.04 67.2 32.16 68.32 32.16C69.44 32.16 70.32 33.04 70.4 34.24H66.24ZM73.92 31.84C73.28 31.92 72.56 32.4 72.24 33.12V31.84H71.76V37.12H72.24V33.84C72.48 32.88 73.28 32.32 74.24 32.32V31.84H73.92ZM76.96 31.76C75.52 31.76 74.4 33.04 74.4 34.48C74.4 35.92 75.52 37.2 76.96 37.2C78.4 37.2 79.52 35.92 79.52 34.48C79.52 32.96 78.4 31.76 76.96 31.76ZM76.96 36.8C75.84 36.8 74.88 35.84 74.88 34.56C74.88 33.28 75.84 32.24 76.96 32.24C78.08 32.24 79.04 33.28 79.04 34.48C79.04 35.76 78.08 36.8 76.96 36.8ZM84.88 36.48V31.92H84.4V35.2C84.08 36.16 83.2 36.8 82.32 36.8C81.44 36.8 80.96 36.16 80.96 34.88V31.92H80.48V34.96C80.48 36.48 81.04 37.28 82.24 37.36C83.12 37.36 84 36.88 84.48 36V36.8C84.48 37.04 84.64 37.28 84.96 37.28H85.12V36.8C84.96 36.72 84.88 36.64 84.88 36.48ZM87.84 34.24C86.88 34 86.48 33.92 86.48 33.28C86.48 32.48 87.12 32.16 87.92 32.16C88.56 32.16 89.2 32.4 89.52 32.8L89.76 32.56C89.44 32.16 88.72 31.84 87.92 31.84C86.88 31.84 86 32.32 86 33.44C86 34.24 86.56 34.48 87.76 34.72C88.88 34.96 89.44 35.12 89.44 35.84C89.44 36.56 88.8 36.96 87.92 36.96C87.2 36.96 86.64 36.72 86 36.24L85.76 36.56C86.32 37.12 87.12 37.36 87.92 37.36C89.12 37.36 89.92 36.72 89.92 35.84C89.92 34.8 89.2 34.56 87.84 34.24ZM97.92 36.4V29.68H97.44V32.96C97.04 32.32 96.32 31.76 95.36 31.76C94 31.76 92.96 33.04 92.96 34.48C92.96 35.84 94 37.2 95.52 37.2C96.32 37.2 97.12 36.72 97.52 36.08V36.72C97.52 36.96 97.68 37.2 98 37.2H98.16V36.72C98 36.64 97.92 36.56 97.92 36.4ZM97.44 35.36C97.36 36.16 96.32 36.8 95.6 36.8C94.4 36.8 93.52 35.76 93.52 34.56C93.52 33.44 94.32 32.24 95.52 32.24C96.32 32.24 97.2 32.88 97.44 33.6V35.36ZM99.28 31.84H99.76V37.12H99.28V31.84ZM99.28 29.68H99.76V30.64H99.28V29.68ZM105.36 32.96C104.88 32.32 104.16 31.76 103.28 31.76C101.84 31.76 100.8 33.04 100.8 34.48C100.8 35.84 101.84 37.2 103.28 37.2C104.08 37.2 104.88 36.72 105.28 36.08V37.2C105.28 38.32 104.4 38.96 103.28 38.96C102.48 38.96 101.68 38.64 101.28 37.92L100.96 38.16C101.44 38.88 102.08 39.36 103.28 39.36C104.64 39.36 105.76 38.64 105.76 37.2V31.76H105.28V32.96H105.36ZM105.28 35.36C105.2 36 104.32 36.8 103.44 36.8C102.24 36.8 101.36 35.76 101.36 34.56C101.36 33.44 102.08 32.24 103.36 32.24C104.16 32.24 104.96 32.8 105.28 33.6V35.36ZM107.12 31.84H107.6V37.12H107.12V31.84ZM107.12 29.68H107.6V30.64H107.12V29.68ZM110.32 36.72C110 36.72 109.68 36.56 109.68 36.16V32.32H110.88V31.92H109.68V30.08H109.2V31.92H108.48V32.32H109.2V36.32C109.2 36.88 109.68 37.28 110.24 37.28C110.8 37.28 111.28 37.04 111.36 36.96L111.2 36.56C111.12 36.56 110.72 36.72 110.32 36.72ZM115.84 36.4V33.84C115.84 32.56 115.04 31.76 113.76 31.76C113.12 31.76 112.48 32 111.84 32.48L112 32.8C112.56 32.4 113.12 32.16 113.68 32.16C114.64 32.16 115.28 32.8 115.28 33.76V34.24C114.8 34.08 114.24 34 113.6 34C112.32 34 111.36 34.64 111.36 35.6C111.36 36.56 112.08 37.2 113.12 37.28C114 37.28 114.8 36.96 115.28 36.32V36.72C115.28 36.96 115.52 37.2 115.76 37.2H115.92V36.72C115.92 36.72 115.84 36.64 115.84 36.4ZM115.36 35.6C115.36 35.68 115.28 35.84 115.2 36C114.88 36.48 114.16 36.8 113.36 36.8C112.64 36.8 112 36.24 112 35.52C112 34.8 112.72 34.32 113.76 34.32C114.32 34.32 114.88 34.4 115.36 34.56V35.6ZM118.88 36.64C118.72 36.72 118.48 36.72 118.32 36.72C117.92 36.72 117.68 36.48 117.68 36.08V29.68H117.2V36.24C117.2 36.8 117.52 37.2 118.16 37.2C118.4 37.2 118.8 37.12 119.04 37.04L118.88 36.64ZM48.08 23.52C48.72 24.16 49.44 24.64 50.32 24.96C51.2 25.28 52.16 25.44 53.28 25.44C54.32 25.44 55.36 25.36 56.4 25.2C57.36 25.04 58.16 24.88 58.88 24.64V3.60001L55.6 5.52001V11.52C55.2 11.36 54.8 11.12 54.24 10.96C53.76 10.8 53.12 10.72 52.4 10.72C51.36 10.72 50.48 10.88 49.76 11.2C48.96 11.52 48.32 12.08 47.76 12.72C47.2 13.36 46.8 14.16 46.56 15.04C46.32 15.92 46.16 16.96 46.16 18.08C46.16 19.2 46.32 20.24 46.64 21.12C46.96 22 47.44 22.88 48.08 23.52ZM50.32 14.64C50.88 13.84 51.76 13.44 52.96 13.44C53.52 13.44 54 13.52 54.48 13.68C54.96 13.84 55.36 14 55.6 14.24V22.4C55.36 22.48 55.04 22.48 54.72 22.56C54.32 22.56 53.92 22.64 53.36 22.64C52.16 22.64 51.2 22.24 50.56 21.44C49.92 20.64 49.52 19.52 49.52 18.08C49.52 16.56 49.84 15.44 50.32 14.64ZM69.2 17.84L73.92 11.04H70.48L67.44 15.36L64.48 11.04H60.88L65.68 17.92C65.2 18.48 64.72 19.04 64.32 19.68C63.84 20.32 63.36 20.96 62.96 21.52C62.56 22.16 62.08 22.72 61.68 23.36C61.28 23.92 60.96 24.56 60.72 25.04H64C64.4 24.4 64.88 23.6 65.52 22.64C66.08 21.76 66.72 20.96 67.36 20.24L68.32 21.44C68.64 21.84 68.96 22.24 69.2 22.72C69.52 23.12 69.76 23.52 70 23.92C70.24 24.32 70.48 24.64 70.64 25.04H74.24C73.68 23.92 72.88 22.72 72 21.44C71.12 20.32 70.16 19.12 69.2 17.84ZM95.04 15.12C95.44 13.76 95.84 12.4 96.16 11.04H92.8C92.64 11.76 92.48 12.64 92.24 13.52L91.52 16.16L90.8 18.8C90.56 19.68 90.32 20.48 90.08 21.2C89.84 20.4 89.52 19.52 89.28 18.64L88.56 16C88.32 15.12 88.16 14.24 87.92 13.44C87.76 12.64 87.52 11.84 87.36 11.04H84.8C84.64 11.76 84.48 12.56 84.24 13.44C84.08 14.24 83.84 15.12 83.6 16L82.88 18.64C82.64 19.52 82.4 20.4 82.08 21.2C81.84 20.48 81.6 19.68 81.36 18.8L80.64 16.16C80.4 15.28 80.16 14.4 80 13.52C79.76 12.64 79.6 11.84 79.44 11.04H76C76.4 12.4 76.8 13.76 77.12 15.12C77.52 16.48 77.92 17.76 78.32 18.96C78.72 20.16 79.12 21.28 79.52 22.4C79.92 23.44 80.32 24.4 80.64 25.2H83.36C83.84 23.84 84.32 22.48 84.8 20.96C85.28 19.44 85.68 17.92 86.16 16.32C86.56 17.92 87.04 19.44 87.52 20.96C88 22.48 88.48 23.84 88.96 25.2H91.6C92 24.4 92.32 23.44 92.72 22.4C93.12 21.36 93.52 20.24 93.92 18.96C94.24 17.76 94.64 16.48 95.04 15.12Z" fill="#1F304C"/>
<path opacity="0.75" d="M27.68 0V32L36.96 26.64V5.36L27.68 0ZM0 37.36L18.48 48V37.36L0 26.64V37.36Z" fill="#1F304C"/>
</g>
<defs>
<clipPath id="clip0">
<rect width="119.2" height="48" fill="white"/>
</clipPath>
</defs>
</svg>
