<svg fill="none" height="36" viewBox="0 0 174 36" width="174" xmlns="http://www.w3.org/2000/svg"><path d="m18 5.4c-1.71-.81-3.42-1.17-5.22-1.17-2.79 0-5.13.45-7.02 1.44-1.89 1.08-3.33 2.43-4.32 4.14-.99 1.71-1.44 3.69-1.44 5.94s.45 4.23 1.44 5.94c.99 1.8 2.43 3.15 4.32 4.14s4.32 1.53 7.02 1.53c2.52 0 4.68-.27 6.3-.72s3.06-1.08 4.23-1.62v-4.86c-3.24 1.53-6.21 2.25-8.82 2.25-1.53 0-2.88-.45-4.05-1.26-1.17-.9-1.98-1.98-2.25-3.33h15.75v-1.62c0-2.79-.54-5.13-1.62-6.93-1.26-1.8-2.61-3.06-4.32-3.87zm-10.08 8.46c0-1.44.45-2.52 1.26-3.42s1.89-1.35 3.24-1.35 2.34.45 3.06 1.26c.72.9 1.08 1.98 1.08 3.42zm41.4-1.35h-18v-12.51h-2.16v26.91h2.16v-12.69h18v12.78h2.07v-27h-2.07zm18.81 11.97v-10.98c0-1.53-.54-2.7-1.53-3.42s-2.34-1.17-3.96-1.17c-1.8 0-3.69.63-5.76 1.89v1.98c1.98-1.53 3.78-2.25 5.4-2.25 2.61 0 3.96 1.17 3.96 3.6v2.25c-3.33.18-5.85.81-7.65 1.89s-2.7 2.61-2.7 4.59c0 1.26.45 2.34 1.35 3.15.9.9 2.07 1.35 3.42 1.35 1.8 0 3.69-.72 5.58-2.16.09.9.18 1.44.36 1.8.18.27.45.45.9.45.72 0 1.98-.63 3.6-1.89v-1.62c-1.35 1.08-2.16 1.62-2.52 1.62-.27-.18-.45-.45-.45-1.08zm-1.89-1.08c-1.71 1.53-3.33 2.34-4.95 2.34-.99 0-1.8-.27-2.52-.81-.63-.54-.99-1.26-.99-2.07 0-1.44.81-2.7 2.43-3.6s3.6-1.35 6.03-1.26zm9.54-9.54-.09-4.68h-1.89v17.82h1.89v-11.16c1.98-3.42 3.96-5.13 5.67-5.13.9 0 2.07.72 3.6 2.07l1.08-1.8c-1.53-1.44-2.88-2.07-4.05-2.07-1.98 0-4.05 1.62-6.21 4.95zm31.59-4.95c-2.43 0-4.5 1.44-6.21 4.23-1.08-2.88-3.06-4.23-5.76-4.23-2.34 0-4.23 1.17-5.67 3.51v-3.15h-1.89v17.73h1.89v-12.42c1.53-2.52 3.33-3.78 5.4-3.78 1.44 0 2.52.54 3.42 1.62.81 1.08 1.26 2.61 1.26 4.59v9.99h1.89v-12.15c.9-1.44 1.71-2.52 2.52-3.15s1.8-.99 2.88-.99c1.44 0 2.61.54 3.42 1.62s1.26 2.61 1.26 4.5v10.17h1.89v-10.89c0-2.16-.54-3.96-1.71-5.22-1.26-1.35-2.7-1.98-4.59-1.98zm19.26 0c-2.61 0-4.77.9-6.48 2.61-1.71 1.8-2.61 3.96-2.61 6.57s.9 4.86 2.61 6.57c1.71 1.8 3.87 2.61 6.48 2.61s4.77-.9 6.48-2.61 2.61-3.96 2.61-6.57-.9-4.86-2.61-6.57c-1.8-1.8-3.96-2.61-6.48-2.61zm4.95 14.4c-1.35 1.44-2.97 2.07-5.04 2.07-1.98 0-3.69-.72-5.04-2.07-1.35-1.44-1.98-3.15-1.98-5.31s.63-3.87 1.98-5.31 3.06-2.07 5.04-2.07 3.69.72 5.04 2.16 1.98 3.15 1.98 5.31c.09 2.07-.63 3.87-1.98 5.22zm16.02-14.4c-2.43 0-4.41 1.17-5.85 3.42h-.09v-3.06h-1.89v17.73h1.89v-12.42c1.53-2.52 3.42-3.78 5.85-3.78 3.24 0 4.86 2.07 4.86 6.12v10.08h1.89v-10.8c0-2.25-.63-4.05-1.8-5.4-1.26-1.26-2.79-1.89-4.86-1.89zm23.31.27-6.21 12.33-6.3-12.33h-1.98l7.47 14.4-6.21 12.42h1.89l13.23-26.82z" fill="#1f304c"/></svg>