<svg fill="none" height="26" viewBox="0 0 160 26" width="160" xmlns="http://www.w3.org/2000/svg"><path d="m28.145 19.565h11.96v5.98h-18.85v-24.505h6.825v18.525zm33.475-3.51v.065c0 5.395-4.42 9.88-10.595 9.88-6.045 0-10.465-4.42-10.465-9.815v-.065c0-5.395 4.42-9.88 10.53-9.88s10.53 4.42 10.53 9.815zm-6.5.065c0-2.34-1.755-4.29-4.095-4.29-2.405 0-3.965 1.95-3.965 4.225v.065c0 2.34 1.69 4.29 4.03 4.29 2.405 0 4.03-1.95 4.03-4.225zm17.875 4.29c-2.275 0-3.835-1.885-3.835-4.29v-.065c0-2.34 1.56-4.225 3.77-4.225 1.56 0 2.6.78 3.575 2.015l4.55-3.38c-1.625-2.535-4.225-4.225-8.19-4.225-6.045 0-10.205 4.485-10.205 9.88v.065c0 5.33 4.225 9.815 10.01 9.815 4.16 0 6.695-1.755 8.45-4.355l-4.485-3.25c-1.04 1.3-2.015 2.015-3.64 2.015zm25.09-11.765c1.43 1.43 2.08 3.38 2.08 6.045v10.855h-6.63v-2.015c-1.365 1.43-3.12 2.405-5.655 2.405-3.64 0-6.37-2.08-6.37-5.85v-.065c0-3.965 2.99-5.98 7.475-5.98 1.755 0 3.51.325 4.615.715v-.325c0-2.015-1.235-3.12-3.835-3.12-2.015 0-3.575.39-5.33 1.04l-1.365-4.68c2.145-.845 4.42-1.495 7.735-1.495 3.445.13 5.785.975 7.28 2.47zm-4.42 9.165c-.715-.26-1.69-.52-2.665-.52-1.95 0-3.055.91-3.055 2.34v.065c0 1.3.975 2.08 2.34 2.08 1.95 0 3.38-1.235 3.38-3.12zm9.035 7.735h6.695v-25.545h-6.695zm10.14-.13h3.315v-3.315h-3.315zm10.465-2.47c-1.69 0-2.795-1.365-2.795-3.12v-.065c0-1.69 1.105-3.055 2.665-3.055 1.105 0 1.82.455 2.535 1.235l1.885-2.08c-1.04-1.17-2.34-1.885-4.42-1.885-3.38 0-5.785 2.665-5.785 5.85v.065c0 3.185 2.405 5.785 5.72 5.785 2.21 0 3.445-.845 4.485-2.08l-1.82-1.885c-.715.78-1.43 1.235-2.47 1.235zm16.965-3.185c0 3.25-2.535 5.915-5.98 5.915s-5.915-2.6-5.915-5.785v-.065c0-3.25 2.535-5.85 5.98-5.85 3.38 0 5.915 2.6 5.915 5.785zm-3.12.065c0-1.69-1.17-3.12-2.925-3.12-1.82 0-2.86 1.43-2.86 3.055v.065c0 1.69 1.17 3.12 2.925 3.12 1.82 0 2.86-1.43 2.86-3.12zm17.94-5.85c-1.495 0-2.665.65-3.64 1.755-.585-1.105-1.69-1.755-3.12-1.755-1.56 0-2.535.845-3.25 1.82v-1.625h-3.12v11.245h3.12v-6.305c0-1.495.715-2.275 1.885-2.275s1.82.78 1.82 2.275v6.305h3.12v-6.305c0-1.495.715-2.275 1.885-2.275s1.82.78 1.82 2.275v6.305h3.12v-7.28c.065-2.73-1.3-4.16-3.64-4.16zm-135.46 1.885c0 .455 0 .91-.065 1.43h-13c.52 2.145 2.08 3.185 4.225 3.185 1.69 0 2.925-.585 4.355-2.015l3.77 3.12c-1.885 2.405-4.55 3.965-8.45 3.965-6.11 0-10.465-4.095-10.465-10.14v-.065c0-5.655 4.095-10.205 9.815-10.205 6.76 0 9.815 4.94 9.815 10.725zm-6.37-2.145c-.26-2.145-1.56-3.51-3.445-3.51-1.82 0-3.055 1.365-3.38 3.51z" fill="#1f304c"/></svg>