<svg fill="none" height="32" viewBox="0 0 100 32" width="100" xmlns="http://www.w3.org/2000/svg" xmlns:xlink="http://www.w3.org/1999/xlink"><clipPath id="a"><path d="m0 0h99.2v32h-99.2z"/></clipPath><g clip-path="url(#a)"><path d="m23.0399 23.76c-.16.88-1.68 4.16-2.24 4.56h-10.32v-9.28h8c.72.56 1.84 2.88 2 3.52.24.64.56.48.56-.32 0-2-.08-6.8.08-9.36 0-.16-.4-.48-.64.08-.56 1.6-1.52 3.2-2.08 3.44h-7.92v-8.24h9.52c.4.24 2.24 2.88 2.48 3.92.08.4.64.48.56.08v-6.64l-22.639956-.08c-.3199996.08-.4799996.56-.16.72 2.879996 1.12 3.999996.96 3.999996 4.72v13.92c0 5.12-.48 4.16-3.999996 5.84-.3199996.16-.4.96.16.88 3.119996-.32 3.919996-.32 7.199996-.32l16.07996.24v-7.68c0-.32-.56-.32-.64 0zm45.44 7.04c-.56-.08-4.16-1.6-4.4-2.24l-2.08-20.24c.4-.48 3.84-2 4.16-2.08.32-.16.24-.88-.16-.8s-2.64.32-3.2.32h-7.12l-8.48 16.32-8.08-16.56-10.56-.24c-.48 0-.24.72-.08.8 1.36.48 4.4.8 4.24 3.2l-1.76 14.56c-.64 6.64-1.6 5.76-4.48 6.72-1.04.32-.24.88.24.8.88-.16 9.04-.32 11.2-.08.32 0 .32-.48-.08-.64s-3.44-.72-4.08-2l1.6-17.04 9.2 19.84h1.68l10.08-20.32 1.44 17.6c-.48.88-2.8 1.68-4 2-.96.32-.08.64.16.64 2.16-.16 12.4-.16 14.64 0 .24.08.32-.48-.08-.56zm30.4-23.44c-.24.32-.88 1.6-1.2 1.68h-3.52s2.24-1.76 3.36-2.8c2.24-2.24 1.6-4.32.64-5.279998-.96-.96000038-3.6-2.000002-6.72.879998-.24.56.24.96.88.56 4.08-2.3199984 4.32 1.6 3.12 3.04s-2.72 3.2-4.32 4.4v1.36c.96 0 6.96 0 8 .08v-3.76c.08-.24-.08-.32-.24-.16zm-9.28 16.32c-.24.32-1.36 4.56-2.4 5.12-2.32 1.2-7.92 1.92-10.88-4-1.92-3.92-2-9.2.8-14.08 2.88-5.04 8.32-3.6 8.96-3.2 1.2.72 2 2.32 2.56 4.4.24.8.72.64.8.08l.24-6.72c-2.96-.4-10.32-1.6-16.48 2.88-6.32 4.64-8.08 16.56.16 21.92 5.44 3.6 15.44 1.12 16.16.72.32-.16.64-.4.64-.64 0-.32.08-6.24.08-6.56 0-.24-.4-.16-.64.08z" fill="#1f304c"/></g></svg>