<svg fill="none" height="24" viewBox="0 0 193 24" width="193" xmlns="http://www.w3.org/2000/svg" xmlns:xlink="http://www.w3.org/1999/xlink"><clipPath id="a"><path d="m0 0h192.928v24h-192.928z"/></clipPath><g clip-path="url(#a)" fill="#1f304c"><path d="m55.3624.282124h-4.6152c-.0752-.002598-.1501.009863-.2204.036651s-.1345.067362-.1889.119337c-.0544.051974-.0979.114297-.1278.183308-.03.069011-.0458.143314-.0466.218541v11.795639c0 1.9135-.7849 2.919-2.5557 2.919s-2.5557-1.0184-2.5557-2.919v-11.795639c.0045-.075828-.0074-.151733-.0349-.222545s-.0699-.134866-.1244-.187804-.1197-.093514-.1913-.118965-.1478-.03518-.2235-.028523h-4.6216c-.0749-.002158-.1495.010629-.2194.037615s-.1338.06763-.1878.11956c-.0541.05193-.0972.114107-.127.182898-.0297.068791-.0455.142819-.0463.217764v12.972939c0 4.0054 2.9189 7.226 8.2767 7.226 5.426 0 8.3871-3.2206 8.3871-7.226v-12.972939c-.0043-.149983-.0671-.292346-.175-.396609-.1079-.104262-.2523-.162135-.4023-.161228z"/><path d="m88.8069 8.5427-3.3406-1.16107c-.973-.35028-1.1027-.90163-1.1027-1.21947 0-.52216.493-1.04432 1.4822-1.04432 1.4956.0177 2.943.53099 4.1156 1.45946.0487.0404.1049.07065.1654.08896s.1241.02432.187.01767.1238-.02582.1791-.05639c.0554-.03057.104-.07191.1431-.12159l2.5946-3.27243c.0809-.10351.1192-.23397.1071-.36475-.012-.13079-.0735-.25205-.1719-.33904-2.1925-1.858375-4.9071-2.5070249-7.4206-2.5070249-4.8227 0-7.6929 2.9902749-7.6929 6.2432449 0 2.55243 1.4789 4.90705 4.6475 5.97725l2.9579 1.0184c1.4529.493 1.6864.8725 1.6864 1.4822 0 .5513-.5837 1.187-1.7448 1.187-1.6216 0-3.5676-.973-4.8649-2.0594-.0463-.04-.1002-.07-.1585-.0882-.0583-.0183-.1198-.0244-.1805-.018-.0608.0063-.1196.0251-.1729.0551-.0532.03-.0998.0705-.1367.1192l-2.6627 3.4929c-.0786.1062-.1155.2376-.1035.3691.012.1316.0719.2542.1683.3444 1.9233 1.6671 4.7806 2.8995 8.3806 2.8995 4.5405 0 7.8097-2.614 7.8097-6.5611.0065-2.7178-1.6768-4.83889-4.8713-5.9416z"/><path d="m72.2308 13.0443c2.4616-1.2194 3.7362-3.13294 3.7362-5.97403 0-3.59675-2.8962-6.788104-7.7838-6.788104h-8.854c-.1451.014571-.2795.082893-.3767.191527s-.1503.249717-.1488.3955v19.242207c0 .1393.0554.2729.1539.3715.0986.0985.2322.1539.3716.1539h4.7772c.1394 0 .273-.0554.3716-.1539.0985-.0986.1539-.2322.1539-.3715v-6.2271h1.8843l3.3762 6.2919c.0825.1336.196.2453.331.3255s.2874.1265.4441.1351h5.4714c.2919 0 .4086-.2044.2627-.4541zm-4.5827-4.0897h-3.0162v-3.53514h3.0162c1.68 0 2.3481.75243 2.3481 1.76757 0 1.01513-.6681 1.76757-2.3481 1.76757z"/><path d="m14.517.282171h-13.868122c-.082529-.004365-.165094.007915-.242779.036109-.077686.028195-.148907.071728-.209425.12801-.060518.056281-.1090959.12416-.1428442.199599-.0337484.07544-.0519772.156899-.05360169.239527v19.157884c-.00217751.0774.01125329.1545.03949259.2266.0282394.0722.0707093.1379.1248803.1933.054171.0553.118934.0992.190432.1291.071498.0298.148269.0449.225737.0445h4.67027c.14502-.0169.27867-.0869.37511-.1965.09643-.1096.14883-.2511.14705-.397v-6.1849h5.9254c.1461-.0043.2868-.0565.4005-.1485.1136-.092.194-.2187.2287-.3607l.8951-4.24541c.019-.06365.0223-.13095.0096-.19615-.0126-.0652-.0409-.12638-.0823-.17831-.0414-.05192-.0948-.09307-.1555-.11991-.0608-.02685-.1271-.03861-.1934-.03427h-7.0281v-3.09082h7.7838c.1492-.00118.2938-.0518.4112-.14394.1173-.09214.2008-.22059.2374-.36525l.8368-4.005401c.024-.080871.0286-.166284.0134-.249269-.0153-.082984-.0499-.161188-.1011-.228228-.0513-.067041-.1176-.121017-.1937-.157525-.076-.036509-.1597-.054514-.244-.052546z"/><path d="m191.426 5.48435c.146-.00434.287-.05649.401-.14847.113-.09198.194-.2187.228-.36072l.85-4.00865c.071-.347027 0-.684326-.499-.684326h-13.946c-.08-.001305-.159.013383-.233.043196s-.141.074148-.198.130382c-.056.056235-.101.123229-.131.197027-.031.073798-.046.152903-.045.23264v19.157871c-.002.0771.011.154.039.2259s.071.1375.125.1928c.053.0553.118.0993.189.1293.071.0301.147.0455.225.0455h12.684c.146-.0042.286-.0559.4-.1472.113-.0913.194-.2173.229-.3588l.85-4.0119c.074-.347-.016-.6843-.5-.6843h-8.432v-2.3319h5.88c.146-.005.287-.0578.401-.1504.113-.0925.193-.2196.228-.362l.895-4.24865c.019-.0635.023-.13069.01-.19579s-.041-.12614-.082-.17786c-.042-.05172-.095-.09256-.156-.119s-.127-.03769-.193-.03276h-6.973v-2.33189z"/><path d="m149.913.749192c-.045-.131906-.129-.247103-.241-.330456-.112-.083352-.246-.13096-.385-.13657h-6.344c-.139.00561-.274.053218-.385.13657-.112.083353-.196.19855-.241.330456l-5.838 19.391308c-.022.0556-.03.1156-.023.1749s.029.116.063.165c.034.0491.079.089.132.1163.053.0272.112.041.172.0401h5.215c.141-.013.274-.0673.384-.1563.11-.0889.19-.2083.232-.3432l.827-2.9189h5.235l.898 2.9189c.045.1346.128.2532.239.3414.111.0881.246.1419.387.1548h5.189c.06.001.119-.0128.172-.0401.053-.0272.099-.0672.133-.1162.034-.0491.055-.1057.062-.165s-.001-.1194-.023-.1749zm-3.827 11.078908h-1.882l1.882-6.22377 1.887 6.22377z"/><path d="m134.851.282124h-4.615c-.075-.002598-.15.009863-.22.036651-.071.026788-.135.067362-.189.119337-.055.051974-.098.114297-.128.183308s-.046.143314-.047.218541v11.795639c0 1.9135-.785 2.919-2.555 2.919-1.771 0-2.556-1.0184-2.556-2.919v-11.795639c.004-.075828-.008-.151733-.035-.222545-.028-.070812-.07-.134866-.124-.187804-.055-.052938-.12-.093514-.192-.118965-.071-.025451-.148-.03518-.223-.028523h-4.622c-.075-.002158-.149.010629-.219.037615s-.134.06763-.188.11956-.097.114107-.127.182898-.046.142819-.046.217764v12.972939c0 4.0054 2.919 7.226 8.273 7.226 5.429 0 8.39-3.2206 8.39-7.226v-12.972939c-.004-.149983-.067-.292346-.174-.396609-.108-.104262-.253-.162135-.403-.161228z"/><path d="m171.273 13.0443c2.461-1.2194 3.739-3.13294 3.739-5.97403 0-3.59675-2.899-6.788104-7.784-6.788104h-8.857c-.145.014571-.279.082893-.377.191527-.097.108634-.15.249717-.148.3955v19.242207c0 .1393.055.2729.154.3715.098.0985.232.1539.371.1539h4.777c.14 0 .273-.0554.372-.1539.098-.0986.154-.2322.154-.3715v-6.2271h1.887l3.373 6.2919c.083.1336.196.2453.331.3255s.288.1265.445.1351h5.471c.292 0 .409-.2044.263-.4541zm-4.58-4.0897h-3.019v-3.53514h3.019c1.68 0 2.345.75243 2.345 1.76757 0 1.01513-.665 1.76757-2.345 1.76757z"/><path d="m116.352 18.1168c-1.045.3989-2.183.4845-3.276.2464.204-.1816.405-.3664.597-.5643 2.74-2.9189 3.515-7.2616 2.176-10.97187-1.398-3.84649-5.069-6.460543-9.191-6.8043266-4.123-.3437834-8.3129 1.6897266-10.3075 5.2962166-2.0854 3.76865-1.6962 8.75678 1.1449 12.04218 2.4519 2.8508 6.3046 4.0411 9.9146 3.5384l.159.1524c1.998 1.8876 5.247 2.9351 8.02 2.9351l1.142-5.5654c.009-.0491.005-.0999-.012-.1468s-.047-.0883-.086-.1196-.086-.0514-.135-.0582c-.05-.0068-.1.0001-.146.0198zm-10.593-2.4519c-2.659 0-4.459-2.3092-4.459-5.1503 0-2.84109 1.803-5.15352 4.459-5.15352s4.456 2.30595 4.456 5.15352c0 2.8476-1.8 5.1503-4.456 5.1503z"/><path d="m27.1688.0226984c-4.1287-.3243244-8.3125 1.6897316-10.3071 5.2962216-2.0854 3.76864-1.6929 8.75678 1.1449 12.04218 4.0411 4.7157 11.8832 4.9038 16.1708.4346 1.3277-1.4552 2.2322-3.2457 2.6158-5.1778.3836-1.9322.2316-3.93241-.4396-5.78439-1.3913-3.85297-5.0627-6.467028-9.1848-6.8108116zm-.8984 15.6292016c-2.6562 0-4.4562-2.3092-4.4562-5.1503 0-2.84106 1.8032-5.1535 4.4562-5.1535s4.4594 2.30595 4.4594 5.1535c0 2.8476-1.8032 5.1633-4.4594 5.1633z"/></g></svg>