<svg fill="none" height="22" viewBox="0 0 212 22" width="212" xmlns="http://www.w3.org/2000/svg" xmlns:xlink="http://www.w3.org/1999/xlink"><clipPath id="a"><path d="m0 0h211.2v22h-211.2z"/></clipPath><g clip-path="url(#a)"><path d="m11 13.4634h4.752v2.992c-1.32.88-2.816 1.32-4.4 1.232-3.696 0-6.424-2.816-6.424-6.776 0-3.60804 2.728-6.60004 6.072-6.60004 2.024 0 4.048.704 5.544 2.2l2.904-3.608c-2.2-1.848-4.488-2.90399555-8.36-2.90399555-5.984-.08799995-11 4.75199555-11.088 10.82403555v.264c0 6.248 4.576 10.912 11.176 10.912 3.344 0 6.512-1.232 9.064-3.344v-9.24004h-9.24zm23.672-13.46403555c-6.072-.17600045-11.088 4.57599555-11.264 10.56003555v.44c0 5.984 4.752 10.912 11.264 10.912 6.072.176 11.088-4.576 11.264-10.56v-.44c-.088-5.98404-4.752-10.91203555-11.264-10.91203555zm6.336 11.00003555c.176 3.52-2.552 6.512-6.072 6.688h-.352c-3.52 0-6.424-2.904-6.424-6.424v-.176c-.176-3.52003 2.552-6.51204 5.984-6.68804h.352c3.52 0 6.424 2.904 6.424 6.42404.088 0 .088.088.088.176zm18.392 8.712c-4.664 0-8.272-3.872-8.272-8.712 0-4.84004 3.52-8.80004 8.272-8.80004 2.552 0 4.928 1.056 6.688 2.904l1.672-1.76c-2.2-2.2-5.192-3.4319955-8.272-3.34399555-6.248 0-10.736 4.92799555-10.736 11.00003555 0 6.072 4.576 10.912 10.648 10.912 3.256.088 6.336-1.32 8.448-3.784l-1.584-1.496c-2.024 1.936-3.96 3.08-6.864 3.08zm20.064-19.448036-9.68 21.384036h2.464l2.552-5.632h11.528l2.552 5.632h2.552l-9.68-21.384036zm-3.696 13.552036 4.84-10.82404 4.752 10.82404zm35.816-7.04004c0-3.784-2.992-6.335996-7.656-6.335996h-9.152v21.208036h2.376v-8.272h6.072l6.16 8.272h2.992l-6.512-8.624c3.344-.704 5.72-2.728 5.72-6.24804zm-14.344 4.48804v-8.62404h6.512c3.344 0 5.456 1.584 5.456 4.224 0 2.728-2.288 4.40004-5.456 4.40004zm26.4-10.824036h-7.392v21.208036h7.392c6.688 0 11.264-4.664 11.264-10.648 0-5.98404-4.664-10.560036-11.264-10.560036zm0 18.920036h-4.928v-16.80804h4.928c5.368 0 8.8 3.696 8.8 8.44804 0 4.752-3.52 8.36-8.8 8.36zm18.128-19.008036h-2.376v21.296036h14.344v-2.288h-11.968zm17.864 11.616036h11.616v-2.11204h-11.616v-7.304h13.024v-2.199996h-15.4v21.296036h15.488v-2.2h-13.112zm24.992-2.11204c-4.752-.968-5.808-2.112-5.808-4.136 0-1.936 1.76-3.432 4.488-3.432 2.288 0 4.4.792 6.072 2.288l1.408-1.848c-2.112-1.759996-4.752-2.6399955-7.48-2.551996-4.048 0-6.952 2.375996-6.952 5.807996 0 3.52 2.288 5.10404 7.128 6.16004 4.488.968 5.544 2.112 5.544 4.048 0 2.2-1.848 3.696-4.752 3.696-2.728 0-5.368-1.056-7.216-2.992l-1.496 1.76c2.288 2.2 5.368 3.432 8.624 3.432 4.224 0 7.216-2.376 7.216-5.984.176-3.52-2.024-5.28-6.776-6.24804zm18.832 0c-4.664-.968-5.808-2.112-5.808-4.136 0-1.936 1.76-3.432 4.488-3.432 2.288 0 4.4.792 6.072 2.288l1.408-1.848c-2.112-1.759996-4.752-2.6399955-7.48-2.551996-4.048 0-7.04 2.375996-7.04 5.807996 0 3.52 2.288 5.10404 7.128 6.16004 4.488.968 5.544 2.112 5.544 4.048 0 2.2-1.848 3.696-4.752 3.696-2.728 0-5.368-1.056-7.216-2.992l-1.496 1.76c2.376 2.2 5.456 3.432 8.624 3.344 4.224 0 7.216-2.376 7.216-5.984.264-3.432-1.936-5.192-6.688-6.16004z" fill="#1f304c"/></g></svg>