<svg fill="none" height="30" viewBox="0 0 128 30" width="128" xmlns="http://www.w3.org/2000/svg" xmlns:xlink="http://www.w3.org/1999/xlink"><clipPath id="a"><path d="m0 0h127.5v30h-127.5z"/></clipPath><g clip-path="url(#a)" fill="#1f304c"><path d="m9.39307 15.0086c0-3.0943 2.51783-5.60357 5.62603-5.60357 3.1072 0 5.6261 2.50817 5.6261 5.60357 0 3.0964-2.5178 5.6046-5.625 5.6046-3.1082 0-5.62713-2.5092-5.62713-5.6035"/><path d="m15.0181.0664739c-8.28432 0-15.0000336 6.6899961-15.0000336 14.9432261 0 6.195 3.7553536 11.4836 9.2078536 13.785.38343.1611.79788.2352 1.21338.2167.4155-.0184.8217-.1288 1.1894-.3232.3676-.1945.6875-.4681.9366-.8011.2491-.3331.4212-.7173.5038-1.1249.1275-.6354.0305-1.2953-.2743-1.8672s-.7986-1.0204-1.3971-1.2689v-.0011c-3.37928-1.411-5.75463-4.7357-5.75463-8.6153 0-5.15894 4.19678-9.34073 9.37603-9.34073 5.1793 0 9.3772 4.18179 9.3772 9.34073 0 3.8786-2.3754 7.2043-5.7557 8.6143v.0021c-.5986.2487-1.0924.6975-1.3971 1.2696-.3046.5722-.4013 1.2324-.2734 1.8679.1278.6355.4722 1.2069.9744 1.6168s1.1311.6328 1.7793.6307c.3727-.0023.7415-.0761 1.0864-.2175 5.4525-2.3014 9.2089-7.5911 9.2089-13.785 0-8.25427-6.7167-14.9442689-15.001-14.9442689"/><path d="m73.5436 13.3511c0-2.7032-1.8611-4.71325-4.7625-4.71325-2.9036 0-4.7636 2.01105-4.7636 4.71425 0 2.7011 1.8611 4.7143 4.7636 4.7143 2.9014 0 4.7625-2.0121 4.7625-4.7143zm-14.1954.001c0-4.96496 3.9429-8.7996 9.4329-8.7996 5.52 0 9.4318 3.83464 9.4318 8.7996 0 4.965-3.9118 8.7986-9.4318 8.7986-5.489 0-9.4329-3.8336-9.4329-8.7986zm17.2618 12.3943h2.5232c1.3565 0 1.83-.5035 1.83-1.6971v-19.49145h4.6682v19.55355c0 4.1175-1.6714 5.8768-6.1189 5.8768h-2.9036v-4.2428zm-24.7457-11.4857c0 2.0572-2.0957 3.7007-4.7625 3.7007-3.015 0-4.8889-1.771-4.8889-4.7121 0-2.7193 2.0003-4.58573 5.0796-4.58573 2.445 0 4.5718 1.70783 4.5718 3.63643zm.1907-9.71356v1.965h-.0643c-1.2064-1.26429-3.2057-1.96072-5.5864-1.96072-5.1118 0-8.8897 3.795-8.8897 8.69678 0 5.0925 3.8733 8.8243 9.0483 8.8243 2.3164 0 4.2535-.7286 5.4289-2.025h.0643v1.695c0 2.2768-1.9693 3.9525-4.5729 3.9525-2.625 0-4.1528-.7371-5.4793-2.0004l-3.0396 2.9143c2.0368 2.1536 5.1075 3.3782 8.6143 3.3782 5.3346 0 8.9839-3.5646 8.9839-8.3078v-17.13216zm45.5068 3.77571c2.4912 0 4.2272 1.28893 4.4472 3.23785h-8.959c.2529-1.94892 1.9886-3.23785 4.5118-3.23785zm.4821 10.05645c-2.7985 0-4.9982-1.8022-5.056-3.5507h13.5641v-1.319c0-4.9971-3.47-8.9571-9.0856-8.9571-5.2992 0-9.0846 3.70928-9.0846 8.8318 0 5.2789 3.9932 8.7664 9.8625 8.7664 3.5957 0 6.1747-1.7175 7.5207-3.3621l-3.164-2.2093c-1.407 1.3082-2.6842 1.8-4.556 1.8zm11.2591-18.3578767h4.506l.025 11.5392767h.061l7.545-7.04785h6.04l-7.819 7.37255 7.788 10.2514h-5.393l-5.349-7.4089h-.061l-2.837 2.6775v4.7442h-4.506z"/></g></svg>