<svg fill="none" height="30" viewBox="0 0 264 30" width="264" xmlns="http://www.w3.org/2000/svg" xmlns:xlink="http://www.w3.org/1999/xlink"><clipPath id="a"><path d="m0 0h263.69v30h-263.69z"/></clipPath><g clip-path="url(#a)" fill="#1f304c"><path d="m0 0h4.20436v8.22215c.74481-.66138 1.58761-1.20335 2.49839-1.60663.80212-.34944 1.66707-.53165 2.542-.53553.78755-.01705 1.57015.12841 2.29895.42735.7288.29895 1.3882.74494 1.9369 1.31011.9806 1.00323 1.4717 2.47735 1.4734 4.42245v11.147h-4.1729v-7.3982c0-1.9548-.0929-3.2787-.2787-3.9717-.1341-.6099-.4706-1.1565-.95474-1.5509-.48269-.3526-1.06986-.53262-1.6672-.51132-.81959-.01402-1.61239.29192-2.21003.85292-.6505.6294-1.09636 1.44-1.27948 2.3264-.12278.5057-.18497 1.664-.18659 3.475v6.7851h-4.20436z"/><path d="m28.963 6.51617h4.2358v16.87563h-4.2358v-1.7835c-.7188.7118-1.5613 1.2867-2.4863 1.6963-.8579.3513-1.7774.5276-2.7044.5185-2.1793 0-4.0638-.8449-5.6535-2.5347-1.5896-1.6898-2.3853-3.79-2.3869-6.3005 0-2.6074.7698-4.7431 2.3094-6.4071.6994-.7959 1.5626-1.43122 2.5305-1.86244.9678-.43122 2.0174-.64818 3.0769-.63596.9792-.00563 1.9492.18984 2.8498.57431.926.40801 1.7633.99335 2.4645 1.72297zm-4.4516 3.48713c-.6112-.01569-1.2186.1-1.7813.3391-.5626.2391-1.0675.5961-1.4804 1.047-.8659.9256-1.2989 2.1122-1.2989 3.5597s.4403 2.6471 1.3207 3.5986c.41.4544.9126.8156 1.474 1.0593s1.1685.3642 1.7805.3534c.6186.0167 1.2338-.0985 1.8045-.3379s1.084-.5975 1.5056-1.0506c.8756-.9257 1.3134-2.1373 1.3134-3.6349 0-1.4685-.4378-2.6575-1.3134-3.567-.4273-.4483-.9441-.8016-1.5169-1.0371-.5728-.2354-1.1888-.34775-1.8078-.3296z"/><path d="m39.1409 6.51618v1.86108c.7097-.7273 1.552-1.31212 2.4814-1.72294.9024-.38426 1.8739-.57971 2.8546-.57431 1.0606-.01214 2.1112.20478 3.0802.63596s1.8336 1.06645 2.5345 1.86241c1.5412 1.66562 2.3118 3.80132 2.3118 6.40712 0 2.5137-.7964 4.6139-2.3893 6.3005s-3.4798 2.5299-5.6608 2.5299c-.9301.0084-1.8526-.1679-2.714-.5186-.9295-.408-1.7763-.9829-2.4984-1.6963v7.958h-4.2044v-23.0501zm4.4515 3.48712c-.618-.01746-1.2328.095-1.8046.33-.5719.235-1.0881.5873-1.5153 1.0343-.8772.9095-1.3166 2.0985-1.3182 3.567 0 1.5008.4394 2.7124 1.3182 3.6349.4239.4529.9389.8109 1.5111 1.0502.5723.2393 1.1888.3546 1.8088.3383.6138.0113 1.2228-.109 1.7863-.3526.5634-.2437 1.0681-.6052 1.4803-1.0601.8853-.9403 1.3271-2.1398 1.3255-3.5986s-.4362-2.6454-1.3037-3.5598c-.4177-.4518-.9273-.8091-1.4944-1.0477-.5672-.2387-1.1789-.3532-1.794-.3359z"/><path d="m57.572 6.51618v1.86108c.7093-.72785 1.5517-1.31275 2.4815-1.72294.9023-.38446 1.8738-.57991 2.8545-.57431 1.0606-.01214 2.1113.20478 3.0803.63596s1.8335 1.06645 2.5344 1.86241c1.5412 1.66562 2.311 3.80132 2.3094 6.40712 0 2.5137-.7956 4.6139-2.3869 6.3005s-3.479 2.5299-5.6632 2.5299c-.9301.0084-1.8526-.1679-2.714-.5186-.9287-.4081-1.7747-.983-2.496-1.6963v7.958h-4.2043v-23.0501zm4.4515 3.48712c-.618-.01762-1.2328.0947-1.8047.3298-.5718.235-1.088.5874-1.5151 1.0345-.8788.9095-1.3183 2.0985-1.3183 3.567 0 1.5008.4395 2.7124 1.3183 3.6349.4236.4532.9386.8113 1.5109 1.0506.5723.2394 1.1888.3545 1.8089.3379.6134.0111 1.2221-.1093 1.7851-.3529.563-.2437 1.0673-.6051 1.4791-1.0598.8853-.9403 1.3271-2.1398 1.3255-3.5986s-.4354-2.6454-1.3013-3.5598c-.4179-.4516-.9275-.8086-1.4946-1.0473-.5671-.2386-1.1787-.35329-1.7938-.3363z"/><path d="m70.2432 6.51636h4.3255l4.3837 10.58724 4.8465-10.58724h4.3376l-10.5678 23.05004h-4.3619l3.4701-7.4345z"/><path d="m102.378 6.51619h4.219v14.45481c0 2.8546-.574 4.9547-1.721 6.3004-1.541 1.8191-3.862 2.7295-6.964 2.7311-1.4164.0363-2.8283-.1736-4.1729-.6204-1.0775-.3829-2.0537-1.0061-2.8546-1.8223-.7918-.8293-1.3814-1.8303-1.7229-2.9249h4.6696c.4331.4881.9824.859 1.5969 1.0784.743.2572 1.5258.3803 2.3118.3635 1.1389 0 2.0541-.1753 2.7451-.5259.62-.2873 1.129-.7666 1.454-1.3667.285-.5573.427-1.5186.427-2.8837-.663.6891-1.459 1.235-2.341 1.6042-.8863.3372-1.8289.5017-2.777.4847-1.0755.019-2.1428-.1894-3.1321-.6116s-1.8782-1.0487-2.6086-1.8383c-1.5605-1.6349-2.3408-3.7036-2.3408-6.206 0-2.6785.8271-4.82958 2.4814-6.45316.7003-.70956 1.5367-1.27042 2.459-1.64893.9223-.3785 1.9116-.56686 2.9085-.55381.9439-.00512 1.8796.17689 2.7528.53553.9648.4261 1.8448 1.02292 2.5978 1.76172zm-4.3885 3.52101c-.6139-.0189-1.2249.0905-1.7941.3212-.5691.2308-1.0838.5778-1.5112 1.0189-.4311.4474-.7683.9765-.9918 1.5563-.2235.5797-.3287 1.1983-.3095 1.8193 0 1.4055.4443 2.5581 1.3328 3.458.4357.4433.9583.7921 1.5349 1.0243.5767.2323 1.195.343 1.8165.3254.6036.0189 1.2044-.0886 1.7641-.3156.5598-.2271 1.0658-.5686 1.4858-1.0026.853-.8805 1.279-2.034 1.279-3.4605s-.43-2.5686-1.289-3.4265c-.431-.4379-.949-.7813-1.52-1.0082-.5712-.227-1.1833-.3326-1.7975-.31z"/><path d="m107.663 6.51629h3.635v2.1252c.337-.76865.879-1.42941 1.568-1.90953.631-.42802 1.377-.65523 2.14-.65184.6.01287 1.189.16201 1.723.43617l-1.319 3.63491c-.376-.21406-.795-.34156-1.226-.37321-.646 0-1.197.40391-1.653 1.21161-.455.8078-.68 2.3894-.673 4.7448l.014.8239v6.8239h-4.209z"/><path d="m128.666 6.51617h4.235v16.87563h-4.235v-1.7835c-.719.7118-1.562 1.2867-2.487 1.6963-.858.3513-1.777.5276-2.704.5185-2.179 0-4.065-.8449-5.656-2.5347s-2.386-3.79-2.384-6.3005c0-2.6074.769-4.7431 2.309-6.4071.699-.7959 1.563-1.43122 2.53-1.86244.968-.43122 2.018-.64818 3.077-.63596.98-.00563 1.95.18984 2.85.57431.926.40801 1.763.99335 2.465 1.72297zm-4.452 3.48713c-.611-.01569-1.219.1-1.781.3391-.563.2391-1.068.5961-1.481 1.047-.866.9256-1.299 2.1122-1.299 3.5597s.441 2.6471 1.321 3.5986c.41.4544.913.8156 1.474 1.0593.562.2437 1.169.3642 1.781.3534.618.0167 1.233-.0985 1.804-.3379s1.084-.5975 1.506-1.0506c.874-.9257 1.312-2.1373 1.313-3.6349 0-1.4685-.438-2.6575-1.313-3.567-.428-.4483-.944-.8016-1.517-1.0371-.573-.2354-1.189-.34775-1.808-.3296z"/><path d="m145.29 8.87403-2.622 2.61957c-1.067-1.0549-2.036-1.5824-2.908-1.5824-.396-.02241-.788.08386-1.117.3029-.124.0832-.225.1954-.295.3268-.071.1313-.107.2779-.108.4268-.001.2322.086.4562.243.6277.377.3257.804.5899 1.265.7827l1.55.7754c1.634.8078 2.756 1.6301 3.366 2.4669.708 1.0168 1.024 2.2548.89 3.4861s-.708 2.3728-1.617 3.2142c-1.103 1.0033-2.58 1.5049-4.429 1.5049-2.461 0-4.425-.9612-5.894-2.8837l2.605-2.8401c.489.5729 1.081 1.0496 1.745 1.4055.541.3192 1.151.5021 1.779.5332.482.024.957-.118 1.347-.4023.153-.1036.279-.2419.369-.4036.089-.1618.139-.3423.145-.5269 0-.6462-.616-1.2828-1.847-1.9096l-1.427-.7124c-2.73-1.3732-4.095-3.0945-4.095-5.164-.006-.648.13-1.28945.396-1.88015.267-.5907.658-1.11661 1.147-1.54149 1.031-.94507 2.347-1.41841 3.948-1.42003 1.08-.00511 2.147.24531 3.112.73089.965.48557 1.802 1.19251 2.442 2.06311z"/><path d="m156.945 8.87405-2.622 2.61955c-1.065-1.0549-2.034-1.58238-2.908-1.58238-.395-.02241-.787.08386-1.117.30288-.111.0734-.204.1704-.272.2838-.069.1135-.112.2407-.126.3727-.014.1319.002.2652.045.3905.044.1253.115.2395.208.3343.169.1906.59.4515 1.262.7827l1.551.7754c1.636.8078 2.758 1.6301 3.366 2.4669.707 1.0168 1.023 2.2548.889 3.4861-.133 1.2313-.707 2.3729-1.616 3.2142-1.105.9968-2.582 1.4952-4.43 1.4952-2.462 0-4.427-.9612-5.896-2.8837l2.61-2.8303c.489.5729 1.081 1.0495 1.745 1.4054.54.3195 1.15.5025 1.776.5332.483.0236.959-.1183 1.35-.4023.153-.1037.279-.2421.367-.4038.089-.1618.139-.3423.144-.5267 0-.6462-.615-1.2827-1.846-1.9096l-1.428-.7124c-2.728-1.3732-4.093-3.0945-4.095-5.164-.005-.6479.131-1.28921.397-1.87984.267-.59063.658-1.11659 1.147-1.54178 1.03-.94507 2.346-1.41841 3.947-1.42003 1.081-.0057 2.147.24449 3.113.73012.965.48562 1.802 1.19285 2.441 2.06388z"/><path d="m157.747 0h4.197v8.22215c.745-.66073 1.588-1.20263 2.499-1.60663.803-.34943 1.668-.53164 2.544-.53553.787-.01701 1.569.12849 2.298.42744.728.29895 1.387.74491 1.935 1.31002.984 1.00323 1.475 2.47735 1.474 4.42245v11.147h-4.173v-7.3982c0-1.9548-.093-3.2787-.279-3.9717-.134-.6093-.469-1.1556-.952-1.5509-.483-.3514-1.07-.53131-1.667-.51132-.821-.01466-1.615.29132-2.213.85292-.65.6294-1.096 1.44-1.279 2.3264-.123.5057-.185 1.664-.187 3.475v6.7851h-4.197z"/><path d="m182.241 6.07994c1.577-.00369 3.126.40836 4.493 1.19465 1.357.76575 2.485 1.87932 3.269 3.22611.784 1.3468 1.194 2.8781 1.19 4.4363.007 1.5684-.403 3.1105-1.188 4.4685-.761 1.3572-1.879 2.4808-3.232 3.2495-1.375.7825-2.933 1.1863-4.515 1.1705-1.154.0178-2.3-.2022-3.366-.6461-1.066-.444-2.03-1.1025-2.83-1.9347-.843-.8562-1.504-1.8735-1.945-2.991s-.652-2.3123-.621-3.5133c.031-1.2009.303-2.3832.801-3.4765s1.211-2.07504 2.097-2.88671c1.583-1.48601 3.676-2.30822 5.847-2.29725zm.07 3.98626c-.613-.015-1.223.0996-1.789.3363-.566.2368-1.076.5904-1.497 1.0377-.874.916-1.311 2.0872-1.313 3.5137 0 1.4685.433 2.6575 1.299 3.5671.42.4469.93.7996 1.497 1.0347.566.2352 1.176.3475 1.789.3296.618.016 1.232-.0986 1.802-.3362.571-.2376 1.084-.5929 1.508-1.0427.879-.9208 1.319-2.105 1.321-3.5525.001-1.4475-.432-2.6236-1.299-3.5283-.426-.4475-.942-.8001-1.514-1.0343-.571-.2343-1.186-.3451-1.804-.3251z"/><path d="m196.505 6.51618v1.86108c.709-.7273 1.552-1.31212 2.481-1.72294.902-.38426 1.874-.57971 2.855-.57431 1.06-.01214 2.111.20478 3.08.63596s1.833 1.06645 2.534 1.86241c1.542 1.66562 2.312 3.80132 2.312 6.40712 0 2.5137-.796 4.6139-2.389 6.3005s-3.48 2.5299-5.661 2.5299c-.93.0084-1.853-.1679-2.714-.5186-.93-.4074-1.777-.9824-2.498-1.6963v7.958h-4.205v-23.0501zm4.454 3.48712c-.618-.01746-1.233.095-1.805.33s-1.088.5873-1.515 1.0343c-.877.9095-1.317 2.0985-1.319 3.567 0 1.5008.44 2.7124 1.319 3.6349.425.4494.941.8037 1.513 1.0397s1.188.3482 1.807.3294c.613.0113 1.222-.109 1.785-.3527s1.067-.6051 1.479-1.06c.883-.9402 1.326-2.1398 1.328-3.5986.001-1.4588-.433-2.6454-1.304-3.5597-.42-.4484-.93-.802-1.497-1.0373s-1.178-.34676-1.791-.327z"/><path d="m215.094 6.51618v1.86108c.709-.7273 1.552-1.31212 2.481-1.72294.902-.38426 1.874-.57971 2.855-.57431 1.06-.01214 2.111.20478 3.08.63596s1.833 1.06645 2.534 1.86241c1.541 1.66562 2.312 3.80132 2.312 6.40712 0 2.5137-.796 4.6139-2.389 6.3005s-3.48 2.5299-5.661 2.5299c-.93.0084-1.853-.1679-2.714-.5186-.93-.4074-1.777-.9824-2.498-1.6963v7.958h-4.2v-23.0501zm4.451 3.48712c-.618-.01746-1.233.095-1.805.33-.571.235-1.088.5873-1.515 1.0343-.877.9095-1.316 2.0985-1.318 3.567 0 1.5008.439 2.7124 1.318 3.6349.424.4529.939.8109 1.511 1.0502.573.2393 1.189.3546 1.809.3383.613.0112 1.222-.109 1.785-.3527s1.068-.6052 1.479-1.06c.884-.9403 1.327-2.1398 1.328-3.5986.002-1.4588-.433-2.6454-1.304-3.5598-.417-.4518-.927-.8091-1.494-1.0477-.567-.2387-1.179-.3532-1.794-.3359z"/><path d="m246.228 16.1776h-13.604c.15 1.1174.712 2.1386 1.575 2.8643.853.7076 1.941 1.0614 3.264 1.0614.757.0109 1.508-.1304 2.209-.4155.701-.2852 1.337-.7084 1.872-1.2444l3.567 1.6744c-.809 1.1923-1.91 2.1569-3.199 2.8014-1.385.6345-2.897.9444-4.42.9062-2.646 0-4.802-.8352-6.468-2.5056-1.665-1.6705-2.498-3.7617-2.498-6.2738 0-2.5735.83-4.7117 2.491-6.41443 1.661-1.70275 3.742-2.55329 6.242-2.55167 2.658 0 4.819.85054 6.485 2.55167s2.498 3.94833 2.496 6.74153zm-4.234-3.3344c-.273-.9314-.857-1.7412-1.655-2.2948-.836-.59308-1.841-.90301-2.866-.88452-1.118-.02025-2.211.32899-3.109.99352-.559.412-1.077 1.1389-1.554 2.181z"/><path d="m246.375 6.51629h3.635v2.1252c.336-.76848.878-1.42926 1.566-1.90953.632-.42808 1.379-.65527 2.142-.65184.599.01265 1.188.16181 1.72.43617l-1.318 3.63491c-.375-.21452-.795-.34205-1.226-.37321-.649 0-1.212.40471-1.65 1.21161-.439.807-.676 2.387-.676 4.7448l.017.8239v6.8239h-4.205z"/><path d="m258.313 17.6415c.349-.0508.701-.0751 1.054-.0727.521 0 .885.0775 1.134.2738.106.088.191.1994.247.3256.056.1261.082.2635.075.4014-.002.1896-.063.3739-.174.528-.11.1542-.265.271-.443.3347v.0169c.124.064.231.1568.313.2706.081.1138.134.2453.154.3837.109.395.218.853.286.9887h-.812c-.106-.264-.187-.5374-.242-.8166-.092-.4387-.242-.5574-.567-.5623h-.242v1.3789h-.785zm.785 1.5072h.31c.398 0 .63-.1987.63-.504s-.218-.4846-.581-.4846c-.12-.0033-.241.0056-.359.0266z"/><path d="m259.636 23.3892c-.803.0005-1.587-.237-2.255-.6825-.667-.4454-1.187-1.0788-1.495-1.82-.307-.7412-.388-1.5569-.232-2.3439.157-.7871.543-1.5101 1.11-2.0777.567-.5675 1.29-.9541 2.077-1.1109.787-.1567 1.603-.0765 2.344.2305.741.3069 1.375.8269 1.821 1.494.446.6672.684 1.4516.684 2.254-.002 1.075-.429 2.1057-1.189 2.8661s-1.79 1.1885-2.865 1.1904zm0-7.2916c-.64 0-1.266.1897-1.798.5452s-.946.8607-1.191 1.4519c-.245.5911-.309 1.2416-.184 1.8691s.433 1.204.885 1.6564c.453.4524 1.029.7605 1.656.8854.628.1248 1.278.0607 1.87-.1841.591-.2449 1.096-.6595 1.451-1.1915.356-.532.546-1.1575.546-1.7973-.002-.8576-.343-1.6797-.949-2.2862-.607-.6064-1.429-.9476-2.286-.9489z"/></g></svg>