<svg fill="none" height="40" viewBox="0 0 109 40" width="109" xmlns="http://www.w3.org/2000/svg" xmlns:xlink="http://www.w3.org/1999/xlink"><clipPath id="a"><path d="m0 0h108.463v40h-108.463z"/></clipPath><g clip-path="url(#a)" fill="#1f304c"><path d="m11.4026 17.7983h-7.61984v-7.7729h-3.78276v19.5145h3.78276v-8.1405h7.61984v8.1405h3.7828v-19.5145h-3.7828z"/><path d="m40.8725 14.3358c-1.6962 0-3.0033.572-4.0602 1.8292v-6.4858h-3.3108v9.8566c0 3.3151.0286 3.7184.5005 5.1486.4619 1.4235 1.3613 2.6648 2.5701 3.5472 1.2087.8823 2.6651 1.3607 4.1616 1.3668 4.1718 0 7.3982-3.3423 7.3982-7.6285 0-4.2046-3.255-7.6341-7.2594-7.6341zm-.1945 12.0018c-2.2253 0-4.0888-1.9721-4.0888-4.3719 0-2.4313 1.8363-4.372 4.0888-4.372 2.1695 0 4.033 2.0022 4.033 4.3434 0 2.3998-1.8363 4.4005-4.033 4.4005z"/><path d="m71.4862 14.4275c-1.4964.006-2.9527.4843-4.1612 1.3667s-2.1076 2.1238-2.5691 3.5473c-.4734 1.4302-.5005 1.8292-.5005 5.1486v9.8523h3.3093v-6.4858c1.0569 1.2571 2.3641 1.8278 4.0602 1.8278 4.0045 0 7.2595-3.4324 7.2595-7.6285 0-4.2861-3.2264-7.6284-7.3982-7.6284zm-.0558 12.0004c-2.2524 0-4.0888-1.9436-4.0888-4.372 0-2.3998 1.8592-4.3719 4.0888-4.3719 2.1968 0 4.0331 2.0022 4.0331 4.4005 0 2.3426-1.8635 4.3434-4.0331 4.3434z"/><path d="m56.737 17.7297-1.6861-.5721c-.8967-.3174-1.4674-1.0125-1.4674-1.8806 0-1.1584.9782-1.9693 2.4742-1.9693 1.1441 0 1.8492.3475 2.8832 1.3615l.3804.3761 2.4742-2.5743c-1.9307-2.2882-3.0992-2.86028-5.8465-2.86028-3.5625 0-6.1497 2.45988-6.1497 5.84648 0 2.6343 1.496 4.5765 4.2976 5.529l1.4402.4776c2.0938.7237 2.6644 1.2729 2.6644 2.4313 0 1.3315-1.0869 2.2282-2.6644 2.2282-1.4959 0-2.5843-.6364-3.6454-2.1452l-2.4742 2.6915c1.985 2.5185 3.2893 3.1835 6.2011 3.1835 3.6712 0 6.3642-2.5471 6.3642-6.0495.0043-3.0062-1.5731-4.8297-5.2458-6.0739z"/><path d="m107.186 26.4321c-2.226 0-2.922-.5863-2.922-2.5185v-5.5919h3.311v-3.2207h-3.311v-4.1617l-3.309 1.7276v11.2467c0 4.1575 1.586 5.9438 5.257 5.9438.443 0 .666-.0286 1.363-.0587l.888-3.5139c-.419.0965-.847.1459-1.277.1473z"/><path d="m27.3632 23.3845c.0002.4017-.0788.7996-.2324 1.1709-.1537.3712-.379.7085-.6631.9926s-.6214.5094-.9927.6631c-.3712.1537-.7691.2327-1.1709.2325h-.163c-.8113 0-1.5894-.3223-2.1631-.896s-.896-1.3518-.896-2.1631v-8.581h-3.4438v8.6668c0 1.6226.6446 3.1788 1.792 4.3262 1.1473 1.1474 2.7035 1.792 4.3262 1.792h.818c1.6227 0 3.1789-.6446 4.3263-1.792 1.1473-1.1474 1.7919-2.7036 1.7919-4.3262v-8.6668h-3.3294z"/><path d="m90.9534 13.1002v-4.24467c.7958-.22048 1.487-.71708 1.9499-1.40085s.6672-1.51002.5764-2.33073c-.0909-.82071-.4711-1.58224-1.0723-2.14817-.6013-.56593-1.3845-.89928-2.2092-.94033s-1.637.21289-2.2915.71632-1.1084 1.22346-1.2803 2.03109c-.1719.80762-.0507 1.65008.342 2.37643.3927.72636 1.0313 1.28915 1.8012 1.58755v4.35336c-1.1709.1381-2.3037.5029-3.3351 1.0741l-11.8875-8.93849c.3433-.84542.3711-1.78614.0782-2.65034-.2928-.8642-.8868-1.594229-1.6733-2.056758-.7866-.4625279-1.7133-.6266938-2.6109-.4625159s-1.7061.6457439-2.278 1.3567539c-.572.71101-.869 1.60401-.837 2.51592.032.91192.391 1.78189 1.0113 2.45105.6204.66915 1.4607 1.09283 2.3676 1.19366s1.8198-.12791 2.572-.64446l11.4198 8.58098c-1.0225.9584-1.8104 2.1395-2.3026 3.4516-.4922 1.3122-.6754 2.7202-.5354 4.1146s.5994 2.7379 1.3426 3.926c.7432 1.1882 1.7501 2.1891 2.9427 2.9251l-2.8302 4.505c-.1064-.0124-.2133-.0191-.3204-.02-.6309-.002-1.244.2094-1.7395.6-.4955.3905-.8444.9371-.99 1.551-.1455.6139-.0791 1.259.1884 1.8304s.7204 1.0355 1.285 1.3169c.5647.2815 1.208.3636 1.8253.2332.6172-.1304 1.1723-.4658 1.5748-.9516s.629-1.0935.6424-1.7243c.0135-.6308-.1868-1.2475-.5682-1.7501l2.9261-4.6566c1.2134.3948 2.4961.5313 3.7655.4006s2.4974-.5256 3.6049-1.1594c1.1076-.6337 2.0703-1.4923 2.8262-2.5204s1.2882-2.2031 1.5627-3.4493.2852-2.5361.0313-3.7866c-.2539-1.2506-.7667-2.4342-1.5055-3.4747-.7387-1.0405-1.6871-1.9148-2.7841-2.5668-1.0969-.652-2.3182-1.0671-3.5853-1.2188zm-.961 14.4446c-1.0571 0-2.0904-.3135-2.9693-.9007-.8789-.5873-1.5639-1.422-1.9684-2.3985-.4045-.9766-.5104-2.0512-.3041-3.088.2062-1.0367.7152-1.989 1.4626-2.7364.7475-.7475 1.6998-1.2565 2.7365-1.4627s2.1113-.1004 3.0879.3041c.9766.4046 1.8113 1.0896 2.3985 1.9685.5873.8789.9008 1.9122.9008 2.9692-.0008 1.417-.5642 2.7756-1.5664 3.7773-1.0022 1.0016-2.3612 1.5643-3.7781 1.5643z"/></g></svg>