<svg width="147" height="36" viewBox="0 0 147 36" fill="none" xmlns="http://www.w3.org/2000/svg">
<path d="M26.8333 3.69048L26.8809 3.47619L26.9523 3.28572L27.0238 3.09524L27.2619 3.04762L27.4047 2.95238L27.5714 2.85715H27.7619L27.9523 2.78572L28.1666 2.88095L28.3571 2.80953H28.5714L28.7619 2.7381L28.9523 2.80953L29.1666 2.83333L29.3571 2.78572L29.5714 2.85715H29.9523L30.1666 2.83333L30.3571 2.88095L30.5714 2.76191H30.7619L30.9761 2.90476L31.1666 2.85715L31.3809 2.88095L31.5714 2.7381L31.7619 2.78572L31.9761 2.88095L32.1666 2.80953L32.3809 2.7381L32.5952 2.76191L32.7857 2.85715L32.9523 2.97619L33.0238 3.16667L33.1666 3.30953L33.2619 3.47619L33.238 3.69048V4.09524L33.1666 4.28572L33.238 4.5L33.2857 4.69048V4.88096L33.2142 5.09524L33.2619 5.28572L33.238 5.5L33.2619 5.69048L33.2857 5.90477L33.3095 6.11905L33.238 6.30953L33.3095 6.52381L33.1904 6.71429L33.1666 6.92857V7.33334L33.2142 7.52381L33.2857 7.7381L33.3095 7.92858L33.1904 8.14286L33.1666 8.33334L33.1428 8.54762L33.2142 8.7381L33.238 8.95238L33.3095 9.14286V9.35715L33.1904 9.54762L33.2142 9.76191L33.1904 9.97619V10.381L33.2857 10.5714L33.1428 10.7857L33.2142 10.9762L33.238 11.1905L33.2619 11.381L33.238 11.5952L33.2142 11.7857L33.1666 12L33.2619 12.1905L33.1666 12.4048L33.238 12.6191L33.1904 12.8095L33.238 13.0238L33.2142 13.2143V13.6191L33.238 13.8333L33.2857 14.0476L33.1904 14.2381L33.3333 14.4048L33.3809 14.5952L33.5238 14.7619L33.6904 14.881H33.9047L34.0952 14.8095L34.2857 14.8571H34.4999L34.7142 14.9762L34.9047 14.8333L35.119 14.9048H35.3095L35.5238 14.9524H35.738L35.9285 14.881L36.1428 14.9762L36.3571 14.881L36.5476 14.9762H36.7619L36.9523 14.881L37.1666 14.9524L37.3809 14.8571H37.5714L37.7857 14.9524L37.9761 14.8095L38.1904 14.8333L38.4047 14.9762L38.5952 14.9524L38.8095 14.881H39.0238L39.2142 14.9524L39.4285 14.9048L39.6428 14.9762L39.8333 14.9048L40.0238 14.8095L40.238 14.881L40.3333 14.6667L40.4523 14.5476L40.6904 14.4524V14.2381L40.619 14.0476V13.8333L40.7619 13.6429L40.6666 13.4286V13.2381L40.7857 13.0238L40.6428 12.8333L40.6904 12.6191L40.7619 12.4286L40.619 12.2143L40.7619 12.0238L40.6428 11.8095L40.6904 11.6191L40.738 11.4048L40.6428 11.2143V11L40.7619 10.8095L40.6904 10.5952L40.7857 10.4048L40.6904 10.1905L40.7857 10L40.6666 9.78572L40.7619 9.59524L40.619 9.38095L40.7142 9.19048L40.619 8.97619L40.7619 8.76191L40.6428 8.57143L40.6904 8.35714L40.619 8.16667L40.6904 7.95238L40.7142 7.76191L40.6428 7.54762L40.6904 7.35714L40.7142 7.14286L40.619 6.95238L40.7619 6.7381L40.6666 6.54762L40.6428 6.33333L40.6666 6.11905L40.6904 5.92857L40.6428 5.71429L40.7142 5.52381L40.6666 5.30953L40.6428 5.11905L40.7142 4.90476L40.6666 4.71429L40.6904 4.5V4.28572L40.738 4.09524L40.6666 3.88095V3.47619L40.8095 3.33334L40.9285 3.19048L40.9999 2.97619L41.1904 2.92857L41.3571 2.85715H41.7619L41.9523 2.78572L42.1666 2.88095L42.3571 2.90476L42.5476 2.85715L42.7619 2.88095L42.9523 2.80953L43.1666 2.7381L43.3571 2.85715L43.5714 2.80953L43.7619 2.78572L43.9761 2.7381L44.1666 2.88095L44.3571 2.83333L44.5714 2.76191L44.7619 2.90476L44.9761 2.80953L45.1666 2.85715L45.3809 2.80953L45.5714 2.83333L45.7857 2.7381L45.9761 2.85715L46.1904 2.76191L46.3571 2.90476L46.5476 2.92857L46.7618 2.97619L46.9047 3.09524L46.8809 3.33334L47.0476 3.47619L47.0714 3.69048L47.0476 3.88095V4.28572L47.0952 4.47619L47.0476 4.69048L47.0238 4.88096L47.0476 5.09524L47.119 5.28572L47.0476 5.47619L46.9761 5.69048L47.0952 5.88095V6.09524L47.119 6.28572L46.9999 6.5L46.9761 6.69048L47.0714 6.88095V7.09524L47.0952 7.28572L47.0714 7.5L46.9761 7.69048L47.0714 7.90476L47.0952 8.09524L47.119 8.30953V8.5L47.0714 8.71429L47.0952 8.90476L47.119 9.09524L47.0952 9.30952L47.0714 9.5L47.0476 9.71429L46.9761 9.90476L46.9999 10.1191V10.3095L46.9761 10.5238V10.7143L47.0714 10.9048L47.0238 11.1191V11.3095L47.0952 11.5238L46.9761 11.7143L47.0476 11.9286V12.119L46.9761 12.3333L47.0238 12.5238L46.9999 12.7143L46.9761 12.9286L47.0952 13.119V13.3333L47.119 13.5238L47.0952 13.7381L47.0238 13.9286V14.3333L47.0476 14.5476L47.119 14.7381L46.9761 14.9524L47.0714 15.1429L47.0952 15.3571V15.5476L46.9999 15.7381V16.1429L47.0238 16.3571L47.0714 16.5476L47.0238 16.7619L46.9761 16.9524L47.0714 17.1667L47.0238 17.3571L46.9761 17.5714L47.119 17.7619L46.9761 17.9762L47.119 18.1667L47.0476 18.381V18.5714L46.9761 18.7619L47.0952 18.9762L47.0714 19.1667L47.0476 19.381L47.119 19.5714V19.7857L47.0714 19.9762L46.9761 20.1905L47.0476 20.381L47.0714 20.5952V21L47.0476 21.1905L47.0714 21.381L47.0238 21.5952L47.0476 21.7857L47.0952 22L47.0476 22.1905L47.0952 22.4048L46.9761 22.5952L47.0714 22.8095V23L47.0238 23.1905L46.9761 23.4048L47.119 23.5952L46.9999 23.8095V24L47.0952 24.2143V24.4048L47.119 24.619V24.8095L47.0952 25.0238L47.0476 25.2143L46.9999 25.4286L47.0238 25.619L47.119 25.8333L47.0952 26.0238L46.9999 26.2381L47.0476 26.4286L47.0952 26.6429L47.0476 26.8333V27.0476L47.0714 27.2381L46.9761 27.4524V27.6429L47.119 27.8571L47.0238 28.0476L47.119 28.2619L47.0714 28.4524V28.6667L47.119 28.8571V29.0714L46.9999 29.2619L47.119 29.4762L47.0238 29.6667L46.9999 29.881L47.0238 30.0714L47.119 30.2857L47.0238 30.4762L46.9999 30.6905L47.119 30.881L46.9999 31.0952L47.119 31.2857V31.6905L47.0238 31.9048L47.0476 32.0952L46.9761 32.2857L46.7857 32.381L46.7142 32.5714L46.5952 32.7381L46.4047 32.8095L46.1904 32.8333L45.9761 32.6905L45.7857 32.7857L45.5952 32.8095L45.3809 32.6905L45.1904 32.7381H44.9999L44.7857 32.6667L44.5952 32.8095L44.3809 32.7381L44.1904 32.8095L44 32.7381L43.7857 32.8333L43.5952 32.8095L43.4047 32.6905L43.1904 32.8333L42.9999 32.7381H42.5952L42.4047 32.8095H41.9999L41.7857 32.6905L41.5952 32.7619H41.4047L41.238 32.6429L41.0714 32.5476L40.8571 32.5L40.8095 32.2857L40.7857 32.0952V31.9048L40.7142 31.7143L40.6666 31.5L40.738 31.3095L40.8095 31.0952L40.7142 30.9048V30.7143L40.6666 30.5L40.8095 30.3095L40.7142 30.1191L40.6904 29.9048L40.738 29.7143L40.6666 29.5L40.7619 29.3095L40.8095 29.0952L40.6904 28.9048L40.6666 28.7143L40.7142 28.5L40.8095 28.3095L40.6904 28.0952L40.738 27.9048L40.6904 27.7143L40.6666 27.5L40.7857 27.3095L40.8095 27.0952L40.7857 26.9048L40.7619 26.6905V26.5L40.6904 26.3095L40.7619 26.0952L40.6666 25.9048L40.7857 25.6905L40.6904 25.5L40.8095 25.2857L40.6666 25.0952L40.738 24.9048V24.6905L40.7142 24.5L40.6666 24.2857L40.738 24.0952L40.6904 23.881L40.7142 23.6905L40.6666 23.5L40.7857 23.2857L40.7619 23.0952L40.6666 22.881L40.7857 22.6905L40.7142 22.4762L40.6666 22.2857V21.881L40.7619 21.6667L40.7142 21.4762L40.7857 21.2619L40.6904 21.0952L40.5714 20.9286L40.4999 20.7619L40.3571 20.6667L40.2857 20.4524L40.0476 20.4762L39.8809 20.3333L39.6666 20.3571L39.4761 20.4524L39.2619 20.3333L39.0714 20.3571L38.8571 20.4286L38.6666 20.4762L38.4761 20.5L38.2619 20.4286L38.0714 20.3333L37.8571 20.4762L37.6666 20.4048L37.4523 20.381L37.2618 20.3333L37.0476 20.4048L36.8571 20.4762H36.4523L36.238 20.381L36.0476 20.4048L35.8333 20.4524L35.6428 20.4762L35.4285 20.4524L35.238 20.381H35.0238L34.8333 20.5L34.619 20.3571L34.4047 20.381L34.2142 20.3571L34.0476 20.5238L33.8333 20.4762L33.7142 20.6429L33.5952 20.7857L33.4999 20.9286L33.3571 21.0714L33.2857 21.2619L33.3571 21.4762L33.2857 21.6667L33.3095 21.8571L33.2619 22.0714L33.3571 22.2619L33.3809 22.4762L33.4047 22.6667L33.3809 22.8571L33.3333 23.0714L33.3809 23.2619L33.3333 23.4762V23.6667L33.3571 23.8571L33.2857 24.0714L33.4047 24.2619L33.3809 24.4762L33.4047 24.6667L33.3095 24.8571L33.4047 25.0714L33.3095 25.2619L33.4285 25.4762L33.3095 25.6667L33.3809 25.8571L33.3571 26.0714L33.3809 26.2619L33.3571 26.4762L33.4285 26.6667L33.2857 26.881L33.4047 27.0714L33.4285 27.2619L33.3333 27.4762L33.4047 27.6667L33.3333 27.881L33.3095 28.0714L33.3333 28.2857L33.4285 28.4762L33.2857 28.6905L33.4047 28.881L33.2857 29.0714L33.4285 29.2857L33.2857 29.4762L33.4047 29.6905L33.2857 29.881L33.3333 30.0952L33.3571 30.2857L33.4047 30.5L33.3809 30.6905V30.881L33.3095 31.0952L33.3571 31.2857L33.4285 31.5L33.4047 31.6905L33.2619 31.9048L33.2857 32.0714L33.2142 32.2619L33.0952 32.381L32.9999 32.5238L32.9047 32.7381L32.7142 32.8095L32.4999 32.7381L32.2857 32.8095L32.0952 32.8333H31.8809L31.6666 32.6905H31.2619L31.0476 32.7857H30.6428L30.4285 32.7619L30.238 32.8095L30.0238 32.7381H29.8333L29.619 32.7143H29.4047L29.2142 32.7619L28.9999 32.7143L28.7857 32.8095L28.5952 32.8333L28.3809 32.7619H28.1666L27.9761 32.7381L27.7619 32.8095L27.5714 32.7143L27.3809 32.6905L27.1904 32.6191L27.0476 32.4524L26.9523 32.2857V32.0952L26.9285 31.9048L26.9047 31.6905L26.9523 31.5L26.9285 31.3095L26.9523 31.0952L26.9285 30.9048L26.8333 30.6905L26.8571 30.5L26.8333 30.3095L26.8809 30.0952L26.8095 29.9048L26.8809 29.6905L26.8095 29.5L26.9047 29.2857L26.8809 29.0952L26.8333 28.9048L26.9285 28.6905L26.8333 28.5L26.9523 28.2857V27.881L26.9047 27.6905V27.4762L26.9761 27.2857V27.0714L26.9285 26.881L26.8095 26.6905L26.9285 26.4762L26.8809 26.2857L26.9523 26.0714L26.8333 25.881L26.8571 25.6667L26.9047 25.4762L26.9523 25.2619L26.8809 25.0714L26.9523 24.8571L26.9047 24.6667L26.8809 24.4762L26.9285 24.2619L26.8095 24.0714L26.9523 23.8571V23.6667L26.9285 23.4524V23.2619L26.9047 23.0476L26.8333 22.8571L26.9285 22.6667L26.8571 22.4524L26.8333 22.2619V22.0476L26.9523 21.8571L26.9285 21.6429L26.9523 21.4524L26.9761 21.2381L26.8571 21.0476L26.9761 20.8333L26.8809 20.6429L26.9523 20.4286L26.8809 20.2381V20.0476L26.9047 19.8333L26.9285 19.6429L26.8571 19.4286L26.9047 19.2381L26.9285 19.0238L26.8095 18.8333L26.8809 18.6191L26.9761 18.4286L26.9285 18.2143L26.8333 18.0238L26.9047 17.8095L26.9523 17.6191L26.9285 17.4048L26.9047 17.2143L26.9761 17.0238L26.8809 16.8095L26.9761 16.6191L26.9285 16.4048L26.8571 16.2143V16L26.9285 15.8095L26.8571 15.5952V15.4048L26.9523 15.1905L26.8571 15L26.9047 14.7857L26.9285 14.5952L26.8333 14.381L26.9285 14.1905L26.8571 14L26.8333 13.7857L26.8809 13.5952L26.8333 13.381V13.1905L26.9761 12.9762L26.8095 12.7857L26.8809 12.5952L26.9285 12.381L26.8333 12.1905V11.9762L26.9047 11.7857L26.8333 11.5714L26.8571 11.381L26.9523 11.1667L26.9047 10.9762L26.8809 10.7619L26.9285 10.5714V10.3571L26.9761 10.1667L26.9285 9.95238L26.8095 9.76191L26.8809 9.54762V9.35715L26.9523 9.14286L26.9285 8.95238L26.8333 8.7381L26.9523 8.54762L26.9047 8.33334L26.9523 8.14286L26.8095 7.92858L26.9523 7.7381L26.8809 7.52381L26.9047 7.33334L26.8571 7.11905L26.8333 6.92857L26.9523 6.71429L26.8333 6.52381L26.8571 6.30953L26.9047 6.11905L26.8333 5.92857L26.9523 5.71429L26.8571 5.5L26.9285 5.30953L26.8809 5.09524V4.90476L26.8571 4.69048L26.9047 4.5V4.28572L26.8571 4.09524L26.9047 3.88095L26.8333 3.69048ZM81.8809 8.2381L81.6904 8.19048L81.4761 8.26191L81.2857 8.30953L81.0952 8.42857L80.9285 8.52381L80.7857 8.69048L80.7619 8.90476L80.7857 9.11905L80.6904 9.28572L80.5952 9.47619L80.6428 9.69048L80.619 9.88096V10.0952L80.5 10.2857L80.5952 10.5L80.6428 10.6905L80.5952 10.881L80.619 11.0952L80.5476 11.3095L80.6428 11.5L80.619 11.6905L80.6666 11.9048L80.7857 12.0714V12.2857L80.9761 12.4286L80.9523 12.6667L81.1666 12.7857L81.2619 12.9524L81.3571 13.119L81.4999 13.2857L81.5476 13.4762L81.6904 13.6191L81.8809 13.7381L82.0238 13.881L82.119 14.0476L82.3333 14.1191L82.4285 14.3333H82.6904L82.8333 14.4762L83 14.5714L83.1666 14.6905L83.2619 14.9048L83.5238 14.881L83.6428 15.0714L83.8095 15.1905L83.9761 15.3095L84.1428 15.4286L84.3333 15.4762L84.4999 15.5952L84.6904 15.6667L84.8571 15.8095L85 15.9524L85.1666 16.0714L85.3333 16.1905L85.4285 16.381L85.5714 16.5238L85.6904 16.6905L85.8571 16.8095L85.9523 17L86.1666 17.0714L86.2381 17.2857L86.3571 17.4524L86.5714 17.5238L86.6666 17.7143L86.8095 17.8571L86.9285 18.0238L87.0714 18.1667L87.1666 18.3571L87.2619 18.5238L87.4047 18.6905L87.3809 18.9286L87.5 19.0952L87.619 19.2619L87.6904 19.4524L87.8571 19.5952L87.8333 19.8095L88 19.9762L88.0714 20.1667L88.2142 20.3095L88.2619 20.5238L88.3095 20.7143L88.4047 20.9048V21.119L88.5 21.2857L88.5476 21.5L88.6428 21.6667L88.6666 21.881L88.8333 22.0476L88.9047 22.2381L88.8095 22.4762L88.9285 22.6429V22.8571L89.119 23L89.1428 23.2143L89.0952 23.4524L89.1904 23.619L89.3095 23.8095L89.3571 24L89.3809 24.2143V24.4048L89.3333 24.619L89.4047 24.8095L89.4761 25.0238L89.4285 25.2143L89.4523 25.4286V25.619L89.3809 25.8333L89.4523 26.0238L89.4999 26.2381V26.4286L89.4047 26.6429L89.4285 26.8333L89.3809 27.0476V27.2381L89.3571 27.4524V27.6429L89.238 27.8333L89.2619 28.0476L89.0952 28.2143L88.9999 28.4048L88.9523 28.5952L88.8809 28.7857V28.9762L88.8571 29.1905L88.7857 29.381L88.5714 29.5238L88.4761 29.6905L88.3571 29.8571L88.3095 30.0476L88.2142 30.2381L88.1666 30.4524L88.0476 30.5952L87.8095 30.6905L87.6904 30.8571L87.5476 30.9762L87.4047 31.119L87.2619 31.2857L87.1904 31.4762L86.9285 31.5L86.8095 31.6667L86.6666 31.8095L86.5238 31.9286L86.3333 32.0476L86.1428 32.119L85.9523 32.1667L85.8095 32.3333H85.5952L85.4285 32.4762L85.238 32.5238L85.0714 32.6429L84.8571 32.6905L84.6666 32.7619L84.4761 32.8095L84.2857 32.881L84.119 32.9762L83.8809 32.9048L83.7142 33.0238L83.5 33H83.2857L83.0952 33.0238L82.9047 33.119L82.7142 33.2143L82.5 33.1905H82.2857L82.0952 33.0714L81.8809 33.2143L81.6904 33.1429H81.4761L81.2857 33.0714H81.0714L80.8571 33.119L80.6666 33.0238L80.4523 33.0952L80.2619 32.9524L80.0714 32.9286L79.8571 32.9762L79.6666 32.8571L79.4523 32.9286L79.238 32.881L79.0714 32.7143L78.8571 32.7857L78.6428 32.7143L78.5 32.5238L78.3095 32.4524H78.0952L77.9047 32.381L77.7619 32.2143L77.5476 32.1667L77.4047 32L77.2142 31.9524L76.9999 31.9048L76.9047 31.6667H76.6666L76.4999 31.5476L76.4285 31.3095L76.238 31.2143L76.0238 31.1429L75.8809 31L75.8571 30.7381L75.6428 30.6667L75.5 30.5L75.4761 30.2857L75.238 30.1905L75.1666 30L75.0952 29.7857L74.8809 29.6905L74.9047 29.4524L74.7142 29.3095L74.6666 29.1191L74.6428 28.9048L74.4761 28.7381L74.4047 28.5714L74.4523 28.3333L74.3333 28.1429L74.3809 27.9524L74.2619 27.7619L74.3571 27.5476L74.238 27.3571L74.3333 27.1667L74.2142 26.9524L74.2857 26.7619L74.2142 26.5476L74.3333 26.3571L74.2142 26.1667L74.2619 25.9524L74.1904 25.7619L74.2619 25.5476L74.3095 25.3571L74.2142 25.1429L74.2619 24.9524L74.2857 24.7619L74.1904 24.5476L74.3333 24.3571L74.238 24.1429L74.2142 23.9524L74.238 23.7381L74.2619 23.5476L74.4761 23.4762L74.6666 23.5714L74.8809 23.5H75.0714L75.2619 23.5714L75.4761 23.5238L75.6666 23.5476H75.8809L76.0714 23.5952L76.2857 23.5L76.4761 23.5238L76.6666 23.5L76.8809 23.5952L77.0714 23.619L77.2857 23.5238L77.4761 23.5714H78.0714L78.2857 23.5238L78.4761 23.619H78.6904L78.8809 23.5952H79.0714L79.2857 23.5476L79.4761 23.4762L79.6904 23.5714L79.8809 23.5238L80.0952 23.5L80.2857 23.4762L80.5 23.5952L80.6904 23.5714L80.7619 23.7381L80.6428 23.9524L80.738 24.1667L80.6904 24.3571L80.7619 24.5714L80.738 24.7619L80.8571 24.9762L80.7619 25.1667L80.8571 25.381L80.7619 25.5952L80.8333 25.7857L80.9047 25.9762L80.9523 26.1905L80.8095 26.4048L80.9523 26.5952L80.9761 26.8095L81 27L81.0476 27.1905L81.1428 27.4048L81.3095 27.5238L81.4523 27.6905L81.6428 27.7619H81.8571L82.0952 27.6667L82.2857 27.7143L82.5 27.6905L82.5714 27.4762L82.6666 27.3095L82.738 27.119L82.9047 26.9762L83 26.8095L82.9523 26.5714L83 26.381L83.0238 26.1905L83.0476 26L83.1666 25.8095L83.0714 25.5952V25.4048L83.0476 25.2143L83.0238 25L83.0714 24.8095L83.0238 24.619L82.9761 24.4286V24.0238L82.9285 23.8095L82.9523 23.5952L82.8809 23.4286L82.8095 23.2381L82.7619 23.0238L82.6904 22.8333L82.5 22.7143L82.4523 22.5238L82.3333 22.3571L82.1666 22.2143L82.119 22L81.9285 21.881L81.8095 21.7381L81.7142 21.5238L81.5238 21.4286L81.4285 21.2619L81.2857 21.0952L81.0714 21.0476L80.9285 20.9048L80.7619 20.7857L80.619 20.6429L80.5476 20.4286L80.3809 20.2857L80.238 20.1429L80.0714 20.0238L79.8809 19.9286L79.8333 19.6905L79.619 19.619L79.4523 19.5L79.3095 19.3571L79.2142 19.1667L79.0714 19.0238L78.9285 18.881L78.7618 18.7619L78.5714 18.6667L78.4761 18.4762L78.3571 18.3095L78.1428 18.2381L78.0238 18.0476L77.9047 17.881L77.6666 17.8333L77.6428 17.5714L77.3809 17.5476L77.2857 17.3571L77.1428 17.1905L77.0476 17L76.8333 16.9524L76.7142 16.7619L76.5952 16.6191L76.4047 16.5L76.2618 16.3571L76.1666 16.1667L76.0952 15.9524L75.9047 15.8571L75.7619 15.7143L75.6428 15.5476L75.5 15.381L75.4047 15.2143L75.2619 15.0476L75.1904 14.8571L75.0714 14.6905L74.9285 14.5476L74.8571 14.3571L74.7142 14.1905L74.738 13.9524L74.619 13.7857L74.5476 13.5952L74.5238 13.381L74.5476 13.1905L74.3571 13L74.4523 12.7857L74.4285 12.5952L74.2857 12.4048L74.2619 12.1905L74.2142 11.9762V11.7857L74.238 11.5714L74.2619 11.381L74.3333 11.1667L74.3095 10.9524L74.1904 10.7619L74.2142 10.5476L74.3333 10.3571L74.3095 10.1429L74.238 9.92857L74.3333 9.7381V9.33334L74.4285 9.11905L74.4523 8.92857L74.3333 8.71429L74.4523 8.52381L74.3809 8.30953L74.4761 8.09524L74.4999 7.90476L74.4761 7.69048L74.5238 7.5L74.6666 7.30953L74.619 7.09524L74.7619 6.92857L74.8571 6.76191L74.9047 6.54762V6.33333L75.0952 6.21429L75.2142 6.04762V5.80953L75.4285 5.71429L75.4523 5.47619L75.5714 5.30953L75.7142 5.16667L75.9047 5.07143L76 4.88096L76.1666 4.76191L76.3809 4.69048L76.4761 4.5L76.5952 4.30953L76.7619 4.21429L76.9285 4.07143L77.1666 4.09524L77.2857 3.90476L77.4523 3.78572L77.6904 3.80953L77.8571 3.66667L78.0238 3.59524L78.238 3.57143L78.3809 3.38095H78.5952L78.7618 3.26191L78.9761 3.28572L79.1428 3.11905L79.3571 3.09524L79.5714 3.16667L79.738 3L79.9523 3.07143L80.1666 3.04762L80.3571 3L80.5476 2.90476H80.9523L81.1666 3L81.3571 2.90476H81.5714L81.7619 2.95238L81.9761 2.97619L82.1666 2.85715L82.3809 2.95238L82.5714 3L82.7619 3.04762L82.9761 2.97619H83.1666L83.3571 3.07143L83.5476 3.16667L83.7619 3.09524L83.9523 3.14286H84.1666L84.3333 3.33334L84.5476 3.28572L84.738 3.30953L84.9285 3.42857L85.1428 3.40476L85.2857 3.57143L85.4523 3.69048L85.6904 3.66667L85.8809 3.71429L86.0476 3.85715L86.1666 4.02381L86.4047 4.04762L86.5476 4.16667L86.7619 4.2381L86.9285 4.33334L86.9999 4.57143L87.1666 4.69048L87.3333 4.78572L87.5 4.90476L87.6428 5.04762L87.8333 5.11905L87.9285 5.33333L88.119 5.42858L88.1428 5.64286L88.3571 5.7381L88.3809 5.97619L88.619 6.04762L88.6666 6.26191L88.7381 6.45238L88.8809 6.59524L88.9999 6.76191V6.97619L89.119 7.16667L89.1428 7.35714L89.2142 7.54762L89.0952 7.76191L89.119 7.97619L89.2142 8.16667L89.0952 8.38095L89.1666 8.59524L89.2142 8.78572V9.21429L89.119 9.40476L89.1666 9.61905L89.0952 9.83334L89.1666 10.0238L89.238 10.2381L89.2142 10.4524V10.6429L89.0952 10.8571L89.1904 11.0714L89.0714 11.2619L89.0952 11.4762L89.1666 11.7143L88.9523 11.5952L88.7381 11.6191L88.5476 11.6905L88.3333 11.7381H88.1428L87.9523 11.6905L87.738 11.5952L87.5476 11.7381L87.3333 11.6667L87.1428 11.6191L86.9523 11.5714L86.738 11.6429L86.5476 11.7143H86.1428L85.9285 11.5952L85.738 11.6429L85.5476 11.6905H85.1428L84.9285 11.5952H84.738L84.5238 11.6905L84.3333 11.5714L84.1428 11.5952L83.9285 11.5714L83.7381 11.6905L83.5238 11.5714L83.3333 11.6667L83.119 11.6905L82.9285 11.6667L82.738 11.5714L82.8095 11.4048L82.738 11.1905L82.7857 11V10.8095L82.8095 10.5952L82.7142 10.4048L82.6666 10.1905L82.6428 10V9.78572L82.6666 9.59524L82.5714 9.40476V9.19048L82.5238 9L82.4285 8.80953L82.4047 8.59524L82.1904 8.5L82.0714 8.35714L81.8809 8.2381ZM110.548 2.95238L110.738 2.92857L110.929 3L111.095 3.09524L111.167 3.30953L111.405 3.38095L111.476 3.57143L111.429 3.78572L111.476 4L111.333 4.19048L111.452 4.40476L111.381 4.61905L111.405 4.80953L111.381 5.02381V5.64286L111.357 5.83334L111.452 6.04762V6.26191L111.405 6.45238L111.381 6.66667L111.357 6.88095L111.429 7.07143L111.357 7.28572L111.381 7.5V7.69048L111.476 7.90476L111.357 8.09524L111.381 8.30953L111.262 8.47619L111.119 8.59524L110.929 8.69048L110.738 8.71429L110.548 8.80953H110.143L109.952 8.83333H109.762L109.548 8.7381H109.357L109.167 8.80953L108.952 8.76191L108.762 8.69048L108.548 8.78572L108.357 8.69048L108.167 8.7381L107.952 8.85714L107.762 8.80953H107.548L107.357 8.83333L107.167 8.80953L106.952 8.76191L106.762 8.71429L106.548 8.85714L106.357 8.76191L106.143 8.7381L105.952 8.78572L105.809 8.95238L105.69 9.09524L105.619 9.26191L105.5 9.42857L105.452 9.61905L105.476 9.83334L105.548 10.0238L105.5 10.2381L105.429 10.4286L105.524 10.6429V11.0476L105.429 11.2381L105.548 11.4286L105.571 11.6429L105.524 11.8333V12.0476L105.429 12.2381L105.5 12.4524L105.452 12.6429V12.8571L105.524 13.0476L105.452 13.2619L105.571 13.4524L105.452 13.6667L105.571 13.8571V14.4762L105.5 14.6667V14.881L105.548 15.0714L105.524 15.2857L105.452 15.4762L105.524 15.6905L105.429 15.881L105.571 16.0952L105.524 16.2857L105.548 16.5L105.524 16.6905L105.429 16.9048L105.571 17.0952L105.476 17.3095L105.452 17.5V17.9048L105.548 18.119L105.524 18.3095L105.571 18.5238V18.7143L105.524 18.9286L105.548 19.1191L105.571 19.3333L105.476 19.5238V19.7381L105.452 19.9286L105.476 20.1429L105.429 20.3333L105.524 20.5476L105.429 20.7381V20.9524L105.548 21.1429L105.5 21.3571L105.548 21.5476V21.7381L105.571 21.9524L105.548 22.1429L105.524 22.3571L105.571 22.5476L105.452 22.7619V22.9524L105.476 23.1667L105.452 23.3571L105.548 23.5714L105.429 23.7619L105.5 23.9762V24.1667L105.571 24.381L105.524 24.5714L105.5 24.7857L105.524 24.9762L105.452 25.1905L105.476 25.381V25.7857L105.452 26L105.548 26.1905L105.571 26.4048L105.405 26.5952L105.476 26.8095L105.429 27L105.571 27.2143L105.548 27.4048L105.452 27.6191L105.5 27.8095L105.571 28.0238V28.4286L105.548 28.6429L105.452 28.8333L105.524 29.0476L105.548 29.2381L105.5 29.4524V29.8571L105.429 30.0476L105.5 30.2619L105.548 30.4524V30.6667L105.476 30.8571L105.524 31.0714L105.5 31.2619L105.524 31.4762L105.548 31.6905L105.571 31.881L105.5 32.0952L105.571 32.2857L105.429 32.4762L105.333 32.6429L105.262 32.7857L105.119 32.9048L105 33.0476L104.833 33.1905L104.643 33.2143L104.429 33.0952L104.238 33.0714H104.024L103.833 33.119L103.619 33.1667L103.429 33.2143H103.214L103.024 33.0952L102.809 33.119L102.619 33.0952H102.405L102.214 33.119L102 33.2143L101.809 33.0714L101.595 33.119L101.405 33.1667H101L100.786 33.119L100.595 33.0714L100.381 33.1667L100.19 33.0714L99.9761 33.1429L99.7619 33.119L99.5714 33.1429L99.3809 33.119L99.2142 33.0476L99.0476 32.9524L98.9047 32.8333L98.7381 32.6905L98.7857 32.4762L98.6904 32.2857L98.7619 32.0952V31.881L98.7857 31.6905L98.7142 31.4762L98.619 31.2857L98.6666 31.0714V30.881L98.7857 30.6905L98.6428 30.4762L98.7381 30.2857L98.7142 30.0714L98.7619 29.881V29.6667L98.7142 29.4762L98.7857 29.2619L98.6904 29.0714L98.7857 28.8571V28.6667L98.6904 28.4524L98.7857 28.2619L98.6666 28.0476V27.8571L98.7619 27.6429L98.6428 27.4524V27.2381L98.7857 27.0476L98.7619 26.8333L98.6904 26.6429V26.4286L98.7619 26.2381L98.7142 26.0238L98.7857 25.8333L98.7142 25.619L98.6428 25.4286L98.7857 25.2143L98.6428 25.0238V24.8333L98.7857 24.619L98.7142 24.4286L98.6428 24.2143V24.0238L98.7857 23.8095L98.6666 23.619V23.4048L98.7857 23.2143L98.6666 23L98.7142 22.8095L98.7619 22.5952L98.619 22.4048L98.7619 22.1905L98.6428 22L98.7142 21.7857L98.7619 21.5952L98.6666 21.381V21.1905L98.7857 20.9762L98.7142 20.7857L98.7857 20.5714L98.7142 20.381L98.7857 20.1667L98.6666 19.9762L98.7857 19.7619L98.6428 19.5714L98.7142 19.3571L98.6428 19.1667L98.7857 18.9524L98.6666 18.7619L98.6904 18.5476L98.6428 18.3571L98.6904 18.1429L98.7381 17.9524L98.6666 17.7381L98.7142 17.5476L98.7381 17.3333L98.6428 17.1429L98.7619 16.9286L98.6904 16.7381L98.6428 16.5238L98.6904 16.3333L98.7142 16.1191L98.6428 15.9286L98.7142 15.7143L98.6666 15.5238V15.3095L98.7381 15.1191L98.6666 14.9048L98.6904 14.7143L98.7142 14.5L98.7619 14.3095L98.6666 14.0952L98.6904 13.9048L98.6666 13.6905L98.7619 13.5L98.7857 13.2857L98.6666 13.0952L98.7381 12.881L98.7142 12.6667L98.7381 12.4762V12.2619L98.6904 12.0714L98.7857 11.8571V11.6667L98.7381 11.4524L98.7619 11.2619L98.7142 11.0476L98.6428 10.8571L98.7381 10.6429L98.6904 10.4524L98.6666 10.2381L98.619 10.0238L98.7619 9.83334L98.7381 9.61905L98.6428 9.45238L98.6904 9.21429L98.5238 9.09524L98.4047 8.92857L98.2142 8.88096L98.0476 8.78572L97.8571 8.85714L97.6666 8.7381L97.4523 8.83333L97.2619 8.71429L97.0714 8.76191L96.8571 8.80953L96.6666 8.83333L96.4761 8.69048L96.2619 8.80953L96.0714 8.78572L95.8809 8.76191H95.4761L95.2857 8.83333L95.0952 8.78572L94.8809 8.76191H94.6904L94.5 8.85714L94.2857 8.76191L94.0952 8.69048L93.9047 8.80953H93.6904L93.5 8.83333L93.3095 8.71429L93.1428 8.61905H92.9285L92.8095 8.47619L92.6904 8.30953L92.619 8.11905L92.6904 7.90476L92.619 7.71429L92.5952 7.5L92.5714 7.28572L92.5476 7.09524L92.619 6.88095L92.5714 6.66667V6.47619L92.5952 6.26191L92.619 6.04762L92.6428 5.85714L92.7142 5.64286L92.6904 5.42858V5.2381L92.7142 5.02381V4.80953L92.619 4.61905L92.6666 4.40476V4.19048L92.5952 4L92.7142 3.78572L92.6428 3.59524L92.738 3.40476L92.8809 3.28572L92.9761 3.11905L93.1428 3.04762L93.3333 3.02381L93.5 2.88095H93.6904L93.9047 2.85715H94.0952L94.3095 2.95238H94.6904L94.9047 2.92857L95.0952 2.85715L95.3095 3L95.5 2.90476L95.6904 2.88095H95.9047L96.0952 2.97619H96.4999L96.6904 2.95238L96.9047 2.88095L97.0952 2.95238L97.3095 3L97.5 2.90476L97.7142 2.95238L97.9047 3L98.0952 2.85715L98.3095 3L98.5 2.85715L98.7142 2.90476L98.9047 2.92857L99.0952 3L99.3095 2.88095L99.5 2.90476L99.7142 2.92857L99.9047 2.85715H100.119L100.309 2.90476L100.5 3L100.714 2.92857L100.905 2.90476H101.095L101.309 2.88095L101.5 2.92857L101.714 2.90476L101.905 2.95238L102.095 2.92857L102.309 2.88095L102.5 2.92857L102.714 2.85715L102.905 3L103.119 2.90476H103.309L103.5 2.92857L103.714 3L103.905 2.83333L104.119 2.97619H104.309L104.5 2.85715L104.714 2.88095L104.905 2.85715H105.119L105.309 2.88095L105.524 2.92857L105.714 2.97619L105.929 2.95238L106.119 2.85715L106.309 2.88095L106.524 2.97619L106.714 2.92857L106.929 2.88095L107.119 2.92857H107.333L107.524 2.90476L107.738 3H107.929L108.119 2.85715L108.333 2.95238L108.524 2.83333L108.738 2.90476H108.929L109.143 2.85715H109.333L109.548 2.97619L109.738 2.85715L109.952 2.92857L110.143 2.97619L110.357 2.95238H110.548ZM115.143 3.78572L115.167 3.59524L115.262 3.42857L115.333 3.2381L115.524 3.19048L115.643 3L115.833 2.95238L116.024 2.85715H116.429L116.619 2.92857L116.833 2.90476L117.024 2.97619L117.238 3L117.452 2.92857L117.643 2.95238L117.857 2.85715L118.048 2.95238L118.262 2.90476L118.452 3H118.667L118.857 2.97619L119.071 2.90476H119.476L119.69 2.95238L119.881 2.92857L120.095 2.97619L120.286 2.95238L120.5 2.92857L120.714 2.85715L120.905 2.90476L121.119 2.88095L121.262 3.04762L121.476 3.07143L121.571 3.26191L121.69 3.40476V3.61905L121.762 3.78572L121.738 3.97619L121.714 4.19048L121.786 4.38095L121.69 4.59524L121.714 4.78572L121.69 5L121.809 5.19048L121.857 5.40476L121.738 5.59524L121.809 5.78572L121.738 6L121.786 6.19048L121.762 6.40476L121.786 6.59524L121.69 6.80952L121.833 7L121.857 7.21429L121.786 7.40476L121.833 7.61905L121.69 7.80953L121.809 8L121.738 8.21429L121.762 8.40477L121.738 8.61905V9.21429L121.714 9.42857L121.809 9.61905V9.83334L121.762 10.0238L121.738 10.2381L121.714 10.4286L121.786 10.619L121.714 10.8333L121.738 11.0238V11.2381L121.833 11.4286L121.738 11.6429L121.833 11.8333L121.809 12.0476V12.2381L121.762 12.4524L121.738 12.6429L121.809 12.8571V13.2619L121.833 13.4524V13.6667L121.738 13.8571V14.0476L121.809 14.2619L121.762 14.4524L121.69 14.6667L121.786 14.8571L121.69 15.0714L121.738 15.2619L121.857 15.4762L121.809 15.6667V15.881L121.833 16.0714L121.809 16.2857L121.762 16.4762L121.714 16.6667L121.857 16.881L121.762 17.0714L121.714 17.2857V17.4762L121.762 17.6905V17.881L121.786 18.0952L121.762 18.2857L121.714 18.5L121.738 18.6905L121.809 18.9048L121.762 19.0952L121.69 19.2857L121.786 19.5V19.6905L121.809 19.9048L121.69 20.0952L121.809 20.3095L121.833 20.5L121.786 20.7143L121.809 20.9048L121.69 21.119L121.762 21.3095L121.714 21.5238V21.7143L121.786 21.9286L121.714 22.119L121.833 22.3333L121.714 22.5238L121.857 22.7381V22.9286L121.833 23.1429L121.857 23.3333L121.762 23.5476V23.7381L121.833 23.9524L121.786 24.1429L121.738 24.3571L121.809 24.5476L121.69 24.7619L121.857 24.9524L121.809 25.1667V25.5714L121.69 25.7857L121.833 25.9762L121.738 26.1905L121.762 26.381L121.809 26.5714L121.929 26.7381L122.119 26.8333L122.262 26.9286L122.452 26.9524L122.619 26.9762L122.833 27H123.024L123.214 26.9524L123.405 27.0476L123.619 27.0714L123.809 27.0952L124 27.0714L124.214 27.119L124.405 27L124.595 27.0952L124.809 27.119L125 27L125.19 27.0476L125.381 27H125.595L125.786 26.9762L125.976 27H126.19L126.381 26.9762L126.571 27.0952H126.786L126.976 27.0714L127.167 27.0952H127.381L127.476 27.2857L127.667 27.3571L127.762 27.5238L127.905 27.6905L127.857 27.9048L127.833 28.0952L127.857 28.2857L127.809 28.5V28.9048L127.833 29.0952L127.786 29.2857L127.905 29.5V29.6905L127.762 29.9048L127.809 30.0952L127.762 30.2857L127.929 30.5L127.881 30.6905L127.786 30.9048L127.833 31.0952L127.929 31.2857V31.5L127.905 31.6905L127.881 31.9048L127.786 32.0714V32.2857L127.69 32.4762L127.524 32.5714L127.357 32.6905L127.167 32.7381L126.976 32.6905L126.786 32.7381L126.571 32.8095H126.381L126.167 32.7381L125.976 32.7619H125.571L125.357 32.8095L125.167 32.8333L124.952 32.7619L124.762 32.8333L124.548 32.7143L124.357 32.6667L124.143 32.6905H123.952L123.738 32.7381L123.548 32.8095L123.333 32.8333L123.143 32.6905L122.929 32.6667H122.738L122.524 32.7381L122.333 32.7619L122.119 32.8333H121.929L121.714 32.7143L121.524 32.7381L121.309 32.6905H121.119L120.905 32.7143L120.714 32.8095L120.5 32.6667L120.286 32.7381L120.095 32.7619L119.881 32.7857L119.69 32.7619L119.476 32.7381L119.286 32.6905L119.071 32.7857L118.881 32.6667L118.667 32.7381L118.476 32.7143L118.262 32.7619L118.048 32.7381H117.643L117.452 32.7619L117.238 32.8095L117.048 32.6905L116.833 32.7857L116.643 32.7143L116.429 32.6905H116.214L116.024 32.7619L115.809 32.8095L115.619 32.7143L115.452 32.6191L115.405 32.381L115.167 32.3095L115.19 32.0952L115.167 31.9048L115.214 31.6905V31.5L115.143 31.2857L115.238 31.0952L115.143 30.881L115.238 30.6905V30.5L115.143 30.2857L115.214 30.0952L115.119 29.881V29.6905L115.214 29.4762L115.071 29.2857L115.095 29.0714L115.238 28.881L115.214 28.6667L115.143 28.4762V28.2619L115.214 28.0714L115.167 27.881L115.238 27.6667L115.167 27.4762L115.095 27.2619L115.238 27.0714L115.095 26.8571V26.6667L115.238 26.4524L115.167 26.2619L115.095 26.0476V25.8571L115.238 25.6429L115.119 25.4524V25.2381L115.238 25.0476L115.119 24.8333L115.167 24.6429L115.214 24.4286L115.071 24.2381L115.214 24.0238L115.095 23.8333L115.167 23.619L115.214 23.4286L115.119 23.2381L115.095 23.0238L115.238 22.8333L115.167 22.6191L115.238 22.4286L115.143 22.2143L115.238 22.0238L115.119 21.8095L115.238 21.6191L115.095 21.4048L115.167 21.2143L115.095 21L115.214 20.8095L115.119 20.5952L115.143 20.4048L115.095 20.1905L115.143 20L115.19 19.7857L115.119 19.5952L115.167 19.381L115.19 19.1905L115.071 18.9762L115.214 18.7857L115.143 18.5714L115.095 18.381L115.119 18.1667L115.167 17.9762L115.095 17.7619L115.167 17.5714L115.119 17.3571V17.1667L115.19 16.9524L115.119 16.7619L115.143 16.5476L115.167 16.3571L115.214 16.1429L115.119 15.9524L115.143 15.7381L115.119 15.5476L115.214 15.3333V15.1429L115.119 14.9286L115.19 14.7381L115.167 14.5238L115.19 14.3333V14.1191L115.143 13.9286L115.214 13.7143L115.238 13.5238L115.19 13.3333L115.214 13.119L115.143 12.9286L115.071 12.7143L115.19 12.5238L115.143 12.3095L115.119 12.119L115.071 11.9048L115.214 11.7143L115.19 11.5L115.095 11.3095L115.238 11.0952L115.143 10.9048L115.19 10.6905L115.143 10.5L115.167 10.2857L115.071 10.0952L115.19 9.88096L115.095 9.69048L115.214 9.47619L115.167 9.28572L115.119 9.07143L115.095 8.88096L115.238 8.66667L115.119 8.45238L115.143 8.26191L115.167 8.04762V7.64286L115.095 7.45238L115.143 7.2381L115.167 7.04762L115.143 6.83334L115.071 6.64286L115.167 6.42857L115.238 6.2381L115.119 6.02381L115.095 5.83334V5.61905L115.19 5.42858L115.214 5.21429L115.119 5V4.40476L115.214 4.19048L115.119 4L115.143 3.78572ZM130.809 3.97619L130.952 3.80953L130.976 3.61905L131.048 3.45238L131.167 3.26191L131.333 3.16667H131.548L131.738 3.04762L131.929 3.07143H132.143L132.333 3.19048L132.548 3.09524L132.738 3.07143L132.952 3.09524L133.143 3.11905L133.357 3.04762L133.548 3.11905L133.738 3.04762L133.952 3.11905L134.143 3.19048L134.357 3.09524L134.571 3.19048H134.762L134.976 3.04762L135.167 3.09524L135.381 3.11905L135.571 3.09524L135.786 3.16667L135.976 3.09524L136.19 3.14286L136.381 3.04762L136.595 3.19048L136.786 3.11905L137 3.19048L137.19 3.14286L137.405 3.19048H137.595L137.809 3.16667L138 3.09524L138.214 3.21429L138.429 3.04762L138.619 3.14286H138.833L139.024 3.04762L139.238 3.14286L139.429 3.07143L139.643 3.14286L139.833 3.16667L140.048 3.14286H140.238L140.452 3.07143L140.643 3.11905L140.857 3.04762L141.071 3.11905L141.262 3.09524L141.476 3.04762L141.667 3.11905L141.881 3.21429L142.071 3.11905L142.286 3.09524L142.5 3.11905H142.69L142.881 3.16667L143.071 3.21429L143.167 3.38095L143.381 3.42857L143.452 3.61905L143.619 3.78572V4.19048L143.548 4.38095L143.571 4.59524L143.5 4.78572L143.476 5L143.548 5.19048L143.524 5.40476L143.619 5.59524L143.524 5.80953L143.571 6L143.476 6.21429V6.40476L143.5 6.61905L143.571 6.80952V7.2381L143.524 7.42857L143.548 7.64286L143.5 7.83333L143.524 8.04762L143.548 8.2381L143.619 8.45238L143.5 8.61905L143.405 8.83333L143.19 8.88096L143.095 9.04762L142.881 9.07143L142.69 9.11905L142.5 9.04762L142.309 9.09524L142.095 9.07143L141.905 9.04762L141.714 9.11905L141.5 9.02381L141.309 9.07143L141.119 9.02381L140.905 9.14286L140.714 9.19048L140.524 9.07143L140.333 9.14286L140.119 9.07143L139.929 9.11905H139.524L139.333 9.02381L139.143 9.19048H138.929L138.738 9.11905L138.548 9.16667L138.333 9.02381L138.167 9.16667H137.952L137.786 9.28572L137.643 9.40476L137.524 9.57143L137.476 9.76191L137.452 9.95238L137.429 10.1667L137.524 10.381V10.5714L137.476 10.7857L137.452 11L137.429 11.1905L137.5 11.4048L137.429 11.6191L137.452 11.8333V12.0238L137.548 12.2381L137.452 12.4524L137.548 12.6429L137.524 12.8571V13.0714L137.476 13.2857L137.452 13.4762L137.548 13.6667L137.619 13.8333L137.69 14L137.833 14.1191L138 14.2143L138.143 14.3571H138.333L138.524 14.3095L138.738 14.3571L138.929 14.4286L139.119 14.3095L139.309 14.4286L139.5 14.381L139.714 14.2619L139.905 14.3095H140.095L140.286 14.2857L140.5 14.3095L140.69 14.3571L140.857 14.4762H141.071L141.167 14.6667L141.238 14.8571L141.262 15.0238L141.357 15.1905V15.4048L141.381 15.5952L141.333 15.8095L141.309 16L141.333 16.2143L141.405 16.4048L141.357 16.6191L141.286 16.8095L141.357 17.0238V17.2143L141.381 17.4286L141.286 17.6191L141.381 17.8333L141.429 18.0238L141.381 18.2381V18.4286L141.286 18.6429L141.357 18.8333L141.286 19.0476V19.2381L141.357 19.4524L141.309 19.6667L141.405 19.8571L141.214 20L141.238 20.2381L141.071 20.381L140.905 20.5L140.69 20.5714L140.5 20.5L140.286 20.5238L140.095 20.5714L139.905 20.5476L139.714 20.4762L139.524 20.5476L139.309 20.4524L139.119 20.5952L138.929 20.5476L138.738 20.5714L138.524 20.5476L138.333 20.4286L138.167 20.5952L137.952 20.5714L137.786 20.6667L137.643 20.8095L137.524 20.9762L137.548 21.1905L137.5 21.381L137.548 21.5714V21.7619L137.524 21.9762V22.1667L137.571 22.381L137.476 22.5714L137.452 22.7619L137.429 22.9762L137.452 23.1667L137.405 23.381L137.524 23.5714L137.405 23.7619V23.9762L137.524 24.1667L137.476 24.381L137.524 24.5714V24.7619L137.548 24.9762L137.524 25.1667V25.381L137.548 25.5714L137.429 25.7857V25.9762L137.452 26.1905V26.381L137.548 26.5714L137.5 26.7857L137.69 26.9048L137.809 27.0476L138 27.0714L138.143 27.1905L138.333 27.2381L138.548 27.2143L138.738 27.2619H139.333L139.524 27.2857L139.714 27.1905L139.929 27.1667L140.119 27.3095L140.309 27.2619L140.524 27.3095L140.714 27.1667L140.905 27.1905L141.095 27.2857L141.309 27.2381L141.5 27.1429L141.69 27.1667H141.905L142.095 27.1905L142.286 27.2857L142.5 27.2143L142.69 27.1905L142.881 27.2619L143.071 27.3095L143.238 27.4286L143.309 27.5952L143.452 27.7381L143.595 27.9048L143.619 28.0952L143.524 28.2857L143.571 28.5L143.548 28.6905L143.571 28.9048L143.595 29.0952L143.643 29.2857L143.548 29.5L143.619 29.6905L143.524 29.881L143.476 30.0952V30.5L143.548 30.6905L143.619 30.881V31.0952L143.5 31.2857L143.476 31.5V31.6905L143.524 31.9048L143.571 32.0952L143.595 32.3095L143.524 32.5L143.333 32.5952L143.214 32.7381L143.048 32.8095L142.881 32.881L142.69 32.9048L142.5 33L142.286 32.8571L142.095 32.9286L141.881 32.9762H141.69L141.476 32.9524L141.286 32.9286L141.071 32.881L140.881 32.9762L140.667 32.881L140.476 32.9524L140.262 32.9048L140.071 32.9524H139.857L139.667 32.9286L139.452 32.9524H139.262L139.048 33.0238L138.857 32.881L138.643 32.9762L138.452 32.9048L138.238 32.881H138.048L137.833 32.9524L137.643 33.0238L137.429 33H137.238L137.024 32.881L136.833 33.0238L136.619 32.9286L136.429 32.9524L136.214 32.9048H136L135.809 32.9524L135.595 32.881L135.405 32.9762L135.19 32.881H135L134.786 32.9524L134.595 32.881L134.381 33H134.19L133.976 32.9048L133.762 33.0238H133.571L133.357 32.881L133.167 32.9048L132.952 32.9762H132.762L132.548 32.9048L132.357 32.9524L132.143 32.881L131.929 32.9524L131.738 33.0238L131.548 32.8571L131.333 32.9286L131.167 32.8095L131.119 32.5714L130.976 32.4762L130.833 32.3095L130.809 32.0952L130.952 31.9048L130.833 31.6905V31.5L130.952 31.2857L130.833 31.0952L130.881 30.881L130.929 30.6905L130.786 30.4762L130.929 30.2857L130.809 30.0952L130.881 29.881L130.929 29.6905L130.833 29.4762L130.809 29.2857L130.952 29.0714L130.881 28.881L130.952 28.6667L130.857 28.4762L130.952 28.2619L130.833 28.0714L130.952 27.8571L130.809 27.6667L130.881 27.4524L130.809 27.2619L130.929 27.0476L130.833 26.8571L130.857 26.6429L130.809 26.4524L130.857 26.2381L130.905 26.0476L130.833 25.8571L130.881 25.6429L130.905 25.4524L130.786 25.2381L130.929 25.0476L130.857 24.8333L130.809 24.6429L130.833 24.4286L130.881 24.2381L130.809 24.0238L130.881 23.8333L130.833 23.619V23.4286L130.905 23.2143L130.833 23.0238L130.857 22.8095L130.881 22.6191L130.929 22.4048L130.833 22.2143L130.857 22L130.833 21.8095L130.929 21.5952V21.4048L130.833 21.1905L130.905 21L130.881 20.7857L130.905 20.5952V20.381L130.857 20.1905L130.929 20L130.952 19.7857L130.905 19.5952L130.929 19.381L130.857 19.1905L130.786 18.9762L130.905 18.7857L130.857 18.5714L130.833 18.381L130.786 18.1667L130.929 17.9762L130.905 17.7619L130.809 17.5714L130.952 17.3571L130.857 17.1667L130.905 16.9524L130.857 16.7619L130.881 16.5476L130.786 16.3571L130.905 16.1429L130.809 15.9524L130.929 15.7381L130.881 15.5476L130.833 15.3333L130.809 15.1429L130.952 14.9286L130.833 14.7381L130.857 14.5238L130.881 14.3333V13.9286L130.809 13.7143L130.857 13.5238L130.881 13.3095L130.857 13.119L130.786 12.9048L130.881 12.7143L130.952 12.5238L130.833 12.3095L130.809 12.0952V11.9048L130.905 11.6905L130.929 11.5L130.833 11.2857V10.6905L130.929 10.4762L130.833 10.2857V10.0714L130.809 9.88096L130.786 9.66667L130.857 9.47619L130.809 9.26191V9.07143L130.833 8.85714L130.857 8.66667L130.881 8.45238L130.952 8.26191L130.905 8.04762L130.929 7.85715L130.952 7.64286V7.45238L130.857 7.2381L130.881 7.04762V6.83334L130.833 6.64286L130.952 6.42857L130.857 6.2381L130.881 6.02381L130.952 5.80953L130.881 5.61905L130.929 5.40476L130.952 5.21429L130.833 5V4.80953L130.809 4.59524V4.40476L130.905 4.19048L130.809 3.97619ZM70.0714 3.78572L69.9999 3.59524L69.9047 3.45238V3.21429L69.6904 3.16667L69.5714 2.97619L69.3809 2.95238L69.1904 2.90476L68.9761 3.02381L68.7857 2.90476L68.5714 2.97619L68.3809 3H68.1666L67.9523 2.97619L67.7619 2.85715H67.1428L66.9523 2.95238L66.738 2.92857L66.5476 2.88095L66.3333 2.92857L66.119 2.95238L65.9285 2.90476L65.7142 2.88095L65.5238 2.85715L65.3095 2.92857L65.119 2.83333L64.9047 2.95238L64.6904 3.02381L64.4999 2.97619L64.2857 3L64.0952 2.92857L63.9285 3.04762L63.7619 3.11905L63.5952 3.2381L63.5476 3.42857L63.4523 3.59524L63.4285 3.78572L63.4523 3.97619L63.4047 4.19048L63.4523 4.38095L63.3571 4.59524L63.4285 4.78572L63.5238 5L63.4761 5.19048L63.3809 5.38095L63.4047 5.59524L63.4285 5.78572L63.3809 6L63.4523 6.19048L63.3809 6.40476L63.3571 6.59524L63.4523 6.80952L63.4047 7L63.4285 7.19048V7.40476L63.4047 7.59524L63.4285 7.80953L63.3571 8L63.3809 8.21429L63.3571 8.40477L63.4285 8.61905L63.4761 8.80953V9.02381L63.4047 9.21429L63.5 9.42857L63.4761 9.61905L63.4047 9.80953L63.4523 10.0238L63.4285 10.2143L63.4761 10.4286L63.3571 10.619L63.4047 10.8333L63.5 11.0238V11.2381L63.4285 11.4286L63.5 11.6429L63.3571 11.8333L63.4523 12.0476L63.3809 12.2381L63.4047 12.4286L63.5 12.6429L63.3809 12.8333L63.4047 13.0476L63.4285 13.2381L63.4761 13.4524V13.6429L63.4285 13.8571L63.5238 14.0476L63.5 14.2619V14.4524L63.3571 14.6667L63.4523 14.8571L63.5 15.0476L63.4523 15.2619V15.4524L63.5 15.6667L63.4523 15.8571L63.5 16.0714L63.4285 16.2619L63.3809 16.4524L63.4523 16.6667L63.3809 16.8571V17.0714L63.5 17.2619L63.4523 17.4762L63.4285 17.6667L63.4761 17.881L63.3809 18.0714L63.4523 18.2857L63.4047 18.4762L63.5 18.6667L63.3809 18.881L63.4285 19.0714L63.3571 19.2857L63.4047 19.4762L63.3571 19.6905V19.881L63.3809 20.0952L63.4523 20.2857L63.3571 20.5L63.5238 20.6905L63.4285 20.9048L63.4047 21.0952L63.5 21.3095L63.4285 21.5L63.5 21.7143L63.4285 21.9048L63.3809 22.119L63.4047 22.3095V22.5238L63.4761 22.7143L63.4523 22.9286L63.5 23.119L63.4523 23.3333L63.4761 23.5238L63.5 23.7381L63.4523 23.9286L63.3571 24.1429L63.4523 24.3333V24.9524L63.4047 25.1429L63.4523 25.3571L63.3571 25.5476L63.4285 25.7619L63.3809 25.9524V26.1667L63.2857 26.3333L63.1904 26.5238L63.0238 26.6429L62.9047 26.8095L62.7142 26.881L62.5238 26.9286L62.3333 27.0238L62.119 27.0476L61.9285 27.1429L61.7142 27.0714L61.5 27.1429L61.2857 27.0476H61.0714L60.8571 27.0714L60.6428 27.1429H60.238L60.0238 27.0714L59.8095 27.0952L59.619 27.0238H59.1904L58.9761 27.0714L58.7857 26.9762L58.5714 26.9524L58.4523 26.7619L58.3095 26.6191L58.2857 26.381L58.1904 26.1905L58.2142 25.9762L58.119 25.7857V25.3571L58.0476 25.1429L58.1428 24.9524L58.0952 24.7619L58.1428 24.5476L58.0238 24.3571L57.9761 24.1429L58.0714 23.9524L58.0238 23.7381L58.0952 23.5476L58.0238 23.3571L58.0476 23.1429V22.9524L58.119 22.7381L57.9761 22.5476V22.3333L58.0476 22.1429L58 21.9286L58.119 21.7381L58.0238 21.5238L58.0952 21.3333L58.0714 21.1429L58.0952 20.9286V20.1191L58.0238 19.9286V19.7143L58.0714 19.5238L58.0952 19.3095L58.119 19.1191L58.0238 18.9286L58.119 18.7143L58.0714 18.5238L58.0952 18.3095L57.9761 18.119L58.0952 17.9048L58 17.7143L58.0238 17.5V17.3095L58.0476 17.0952L58.0952 16.9048L58 16.6905V16.5L58.0238 16.3095L58 16.0952V15.9048L58.0952 15.6905L58.0714 15.5L58.0238 15.2857L58.0714 15.0952L58.1428 14.881L58.0238 14.6905L58.1428 14.4762L58.0952 14.2857L57.9761 14.0952L58.0238 13.881V13.6905L58 13.4762L58.0238 13.2857L58.0476 13.0714L58.0952 12.881L57.9761 12.6905L58.0476 12.4762L58.0952 12.2857L58.119 12.0714L58.0476 11.881V11.6667L58.0238 11.4762L58.0714 11.2619L58.0952 11.0714L58.0714 10.8571L58 10.6667L58.0714 10.4524L58.119 10.2619L58.0476 10.0714V9.85714L58.0238 9.66667L58.119 9.45238L58.0238 9.26191L57.9761 9.04762L58.0238 8.85714V8.64286L58.1428 8.45238L58.0476 8.2381L58.119 8.04762V7.83333L58.0476 7.64286L58.0952 7.42857L58 7.2381L58.0952 7.02381L57.9761 6.83334V6.21429L58.0714 6.02381L58.0476 5.80953L58 5.61905L58.0238 5.40476L58.0952 5.21429L58.0238 5L58.119 4.80953L57.9761 4.59524L58.0238 4.40476L58 4.19048L58.0238 4L58.119 3.78572L57.9761 3.61905L58 3.40476L57.9047 3.2381L57.7619 3.09524L57.5952 2.97619L57.3809 3L57.1904 2.95238L56.9999 3H56.7857L56.5952 2.97619H56.3809L56.1904 3L55.9761 2.92857L55.7857 2.90476L55.5714 2.88095L55.3571 2.90476L55.1666 2.85715L54.9523 2.97619L54.7619 2.85715H54.5476L54.3571 2.97619L54.1428 2.92857L53.9523 2.97619H53.738L53.5238 3L53.3333 2.97619L53.119 2.95238L52.9285 3L52.7142 2.88095H52.5238L52.3095 2.90476H52.119L51.9523 3.04762L51.738 3.07143L51.6428 3.26191L51.5476 3.42857V3.61905L51.4761 3.78572L51.4523 4L51.4761 4.19048L51.4047 4.40476L51.4285 4.61905V5.02381L51.4047 5.2381L51.5 5.42858L51.5238 5.64286L51.3571 5.83334L51.4285 6.02381L51.3809 6.21429L51.5238 6.40476L51.5 6.59524L51.4047 6.78572L51.4523 6.97619L51.5238 7.16667V7.54762L51.5 7.76191L51.4047 7.95238L51.4761 8.16667L51.5 8.35714L51.4523 8.57143V8.97619L51.3809 9.16667L51.4523 9.35715L51.5 9.57143V9.76191L51.4285 9.97619L51.4761 10.1667L51.4523 10.381L51.4761 10.5714L51.5 10.7857L51.5238 10.9762L51.4523 11.1905L51.5238 11.381L51.4047 11.5952L51.3809 11.7857V12.1905L51.4285 12.381L51.5 12.5952L51.5238 12.7857L51.4047 13L51.3809 13.1905L51.3571 13.381L51.4285 13.5952L51.4523 13.7857L51.5238 14V14.1905L51.4047 14.4048L51.4285 14.5952L51.4047 14.8095V15.1905L51.5 15.4048L51.3571 15.5952L51.4285 15.8095L51.4523 16L51.4761 16.2143L51.4523 16.4048L51.4285 16.6191L51.3809 16.8095L51.4761 17.0238L51.3809 17.2143L51.4523 17.4286L51.4047 17.6191L51.4523 17.8333L51.4285 18.0238V18.4286L51.4523 18.6429L51.5 18.8333L51.3809 19.0476L51.4761 19.2381L51.4047 19.4524L51.3809 19.6429V19.8571L51.4523 20.0476L51.5238 20.2619L51.5 20.4524V20.6667L51.3809 20.8571L51.5238 21.0714L51.4285 21.2619L51.4523 21.4762L51.3809 21.6667L51.4047 21.881L51.4523 22.0714L51.3809 22.2857L51.4761 22.4762L51.3809 22.6905V22.881L51.4523 23.0952L51.3809 23.2857L51.5 23.5V23.6905L51.4047 23.9048L51.5238 24.0952V24.3095L51.3809 24.5V24.7143L51.4761 24.9048V25.1191L51.4047 25.3095L51.4523 25.5238L51.3809 25.7143L51.4285 25.9048L51.5238 26.119L51.3809 26.3095L51.5238 26.5238L51.5 26.7143L51.3809 26.9286L51.4523 27.119L51.5238 27.3333V27.5476L51.3809 27.7619L51.5 27.9524L51.5238 28.1429L51.4523 28.381L51.619 28.5476L51.6428 28.7619V28.9762L51.8333 29.1191L51.7857 29.3571L51.9761 29.5L51.9999 29.7143L52.0238 29.9048L52.2142 30.0476L52.3095 30.2381V30.4762L52.4761 30.619L52.5238 30.8333L52.7142 30.9524L52.7619 31.1667L52.9761 31.2381L53.0476 31.4762L53.2857 31.5238L53.3809 31.7143L53.5714 31.7857L53.6666 32.0238L53.9047 32.0476L54.0476 32.1667L54.2618 32.2143L54.4285 32.3571L54.5952 32.4524H54.8095L54.9999 32.5476L55.2142 32.5952L55.4047 32.5238L55.619 32.6429L55.8095 32.5714L56.0238 32.5238L56.2142 32.5714L56.4285 32.5952L56.619 32.5238L56.8333 32.6191L57.0238 32.5476H57.2142L57.4285 32.6191L57.619 32.5714L57.8333 32.5952H58.0238L58.238 32.6429L58.4285 32.5476L58.619 32.5714L58.8333 32.5476L59.0238 32.6429L59.238 32.6667L59.4285 32.5714L59.6428 32.6191H60.238L60.4523 32.5714L60.6428 32.6667H60.8571L61.0476 32.6429H61.2619L61.4523 32.5952L61.6666 32.5238L61.8571 32.6191L62.0714 32.5714L62.2619 32.5476L62.4761 32.5238L62.6666 32.6429L62.8809 32.6191L63.0714 32.5476L63.2857 32.6667L63.4761 32.5952L63.6904 32.6429L63.8809 32.5714L64.0952 32.6191L64.2857 32.5238L64.4999 32.6191L64.6904 32.5476L64.9047 32.6429L65.0952 32.5952L65.3095 32.5476L65.5 32.5238L65.7142 32.6667L65.9047 32.5476L66.0952 32.5238L66.2857 32.5L66.5 32.4524L66.6904 32.4048L66.8571 32.2619L67.0476 32.2381L67.238 32.1667L67.4047 32.0476L67.5238 31.881L67.738 31.8333L67.9523 31.7619L68.0238 31.5476L68.1666 31.4048L68.2857 31.2381L68.5 31.1667L68.6666 31.0476L68.7142 30.8333L68.8333 30.6667L68.9523 30.5L69.0714 30.3333L69.238 30.2143L69.2618 30L69.3571 29.8095L69.4285 29.619L69.4999 29.4524L69.6428 29.2857L69.6904 29.0952L69.738 28.9048L69.8333 28.7143L69.9285 28.5476L69.9761 28.3571L70.119 28.1667V27.9524L70.1428 27.7619L70.1666 27.5476V27.3571L70.0714 27.1429L70.119 26.9524V26.7619L70.0476 26.5476L70.1666 26.3571L70.0952 26.1429V25.9524L70.1666 25.7381L70.119 25.5476L70.1428 25.3333L70.1666 25.1429L70.0476 24.9524V24.7381L70.0238 24.5476V24.3333L70.119 24.1429V23.7381L70.0714 23.5476L70.0238 23.3333L70.1666 23.1429L70.0714 22.9524L70.0476 22.7381V22.5476L70.119 22.3333L70.1428 22.1429L70.119 21.9286V21.7381L70.0476 21.5238L70.0952 21.3333L70.1666 21.1429L70.0476 20.9286L70.0952 20.7381L70.1428 20.5238L70.0238 20.3333L70.1666 20.1191L70.0238 19.9286L70.0714 19.7381L70.0952 19.5238L70.1428 19.3333L70.0238 19.1191L70.0714 18.9286V18.7143L69.9999 18.5238V18.3095L70.0714 18.119L70.1428 17.9286L70.0714 17.7143L70.0476 17.5238V17.119L70.0714 16.9048L70.0476 16.7143L70.0952 16.5L70.0714 16.3095L70.0238 16.0952L70.0714 15.9048L69.9999 15.6905L70.1428 15.5L70.0476 15.2857V15.0952L70.0714 14.881L70.1428 14.6905L69.9761 14.4762L70.119 14.2857V14.0714L69.9999 13.881L70.0238 13.6667L69.9761 13.4762L69.9999 13.2619L70.0238 13.0714L70.0714 12.8571L70.119 12.6667L70.0952 12.4524L69.9999 12.2619V12.0476L70.119 11.8571L70.0714 11.6429L69.9999 11.4524L70.0714 11.2381V11.0476L70.0476 10.8333L70.119 10.6429L70.1428 10.4286L69.9999 10.2381L70.0714 10.0238L69.9761 9.83334L70.0238 9.61905V9.42857L69.9999 9.21429V9.02381L70.119 8.80953L69.9999 8.61905L70.0714 8.42857L70.119 8.21429L70.0714 8.02381L69.9761 7.80953L70.0714 7.61905L70.0952 7.40476L69.9761 7.21429L70.0952 7L69.9761 6.80952V6.40476L70.0714 6.19048L70.0238 6V5.78572L70.119 5.59524L70.0476 5.40476L69.9761 5.19048V4.78572L70.119 4.59524L70.0238 4.38095L69.9999 4.19048L70.119 3.97619L70.0714 3.78572ZM4.45232 19.4286L4.30947 19.5952L4.28566 19.7619L4.4047 19.9286L4.35709 20.0952L4.42851 20.2619L4.33328 20.4286V20.5714L4.42851 20.7381L4.45232 20.9048L4.30947 21.0476L4.19042 21.119L3.99994 21.0476L3.83328 21.119L3.66661 21.1667L3.57137 21.3333L3.47613 21.4762L3.4047 21.5952L3.23804 21.7619L3.4047 21.9048L3.42851 22.0476L3.45232 22.2143L3.57137 22.3571L3.76185 22.3333L3.92851 22.3571L4.07137 22.4286L4.21423 22.4762L4.30947 22.5476V22.7143L4.33328 22.881L4.30947 23.0476L4.35709 23.2143L4.30947 23.381L4.33328 23.5476L4.30947 23.7381L4.28566 23.9048L4.35709 24.0714L4.3809 24.2381L4.30947 24.4286L4.35709 24.5952L4.42851 24.7619L4.30947 24.9286L4.42851 25.0952L4.4047 25.2857L4.33328 25.4524L4.28566 25.619L4.35709 25.7857L4.4047 25.9524L4.30947 26.1429L4.35709 26.3095L4.30947 26.4762L4.42851 26.6429L4.33328 26.8095L4.35709 27L4.45232 27.1667L4.35709 27.3333L4.28566 27.5L4.45232 27.6905L4.4047 27.8571L4.33328 28.0238L4.28566 28.1905V28.3571L4.35709 28.5476L4.3809 28.7143L4.33328 28.881L4.45232 29.0476L4.33328 29.2381V29.4048L4.42851 29.5714V29.7381L4.30947 29.9286L4.33328 30.0952L4.42851 30.2619L4.33328 30.4286V30.619L4.42851 30.7857L4.47613 30.9286L4.49994 31.0952L4.57137 31.2381L4.6428 31.4048L4.73804 31.5238L4.83328 31.6667L4.80947 31.881L4.99994 31.9524L5.11899 32.0714L5.26185 32.1667L5.33328 32.3333L5.47613 32.4286L5.6428 32.4524L5.76185 32.6191H5.95232L6.11899 32.5476L6.28566 32.6667H6.47613L6.6428 32.5H6.80947L6.95232 32.4048L7.19042 32.4524L7.23804 32.2381L7.4047 32.1429L7.45232 31.9524L7.47613 31.7857L7.30947 31.6429L7.33328 31.4286L7.16661 31.3571L6.97613 31.381L6.83328 31.2857L6.69042 31.1667L6.52375 31.1429L6.33328 31.1667L6.19042 31.0714L6.04756 30.9762L5.99994 30.8095L5.85709 30.6905L5.78566 30.5238L5.76185 30.3571L5.80947 30.1905L5.9047 30.0238L5.92851 29.8333L5.9047 29.6667L5.76185 29.5L5.78566 29.3333L5.9047 29.1667L5.83328 28.9762L5.85709 28.8095V28.6429L5.83328 28.4762L5.92851 28.2857L5.9047 28.119L5.85709 27.9524L5.78566 27.7857L5.76185 27.6191L5.83328 27.4286L5.8809 27.2619L5.80947 27.0952L5.85709 26.9286L5.78566 26.7381L5.9047 26.5714L5.85709 26.4048L5.83328 26.2381L5.85709 26.0476L5.78566 25.881L5.80947 25.7143L5.83328 25.5238L5.9047 25.3571L5.78566 25.1905L5.92851 25.0238V24.8333L5.78566 24.6667L5.83328 24.5L5.85709 24.3333L5.9047 24.1429L5.83328 23.9762L5.8809 23.8095L5.9047 23.6429L5.83328 23.4524L5.92851 23.2857L5.85709 23.119L5.80947 22.9524L5.78566 22.7619L5.83328 22.5952L5.99994 22.5238L6.1428 22.4762L6.33328 22.5L6.47613 22.4048L6.57137 22.2381L6.73804 22.1905L6.88089 22.119L6.92851 21.9524L7.09518 21.8571L7.1428 21.7143L7.11899 21.5238L6.97613 21.4048L6.88089 21.2619L6.73804 21.1429L6.57137 21.0714L6.35709 21.1667L6.19042 21.0952L6.02375 21.0714L5.8809 20.9762L5.80947 20.7857L5.9047 20.619V20.4524L5.92851 20.2857L5.97613 20.0952L5.85709 19.9286L5.9047 19.7619L5.92851 19.5952L5.83328 19.381L5.73804 19.3333L5.71423 19.1429L5.59518 19L5.42851 18.9524L5.26185 18.9286L5.07137 18.9762L4.9047 18.8571L4.73804 18.9048L4.59518 19L4.45232 19.1191V19.3095V19.4286ZM8.54756 15.5714L8.6428 15.5952L8.80947 15.5476L8.97613 15.5L9.1428 15.4762L9.30947 15.5L9.47613 15.5476L9.6428 15.4286L9.80947 15.5L9.97613 15.4286L10.0952 15.4048V15.5714L10.0476 15.7381L10.0714 15.9048L10.0476 16.0714L10.0952 16.2619L10.0476 16.4286L10.0952 16.5952V16.9286L10.119 17.0952L10.0714 17.2619L10.1904 17.4524L10.0476 17.6191L10.119 17.7857L10.1904 17.9524L10.0476 18.119L10.2142 18.2857L10.1428 18.4524L10.0714 18.6429L10.1904 18.8095L10.0952 18.9762L10.1428 19.1429L10.119 19.3095L10.1428 19.4762L10.0714 19.6429L10.2142 19.8333L10.0714 20L10.0476 20.1667L10.1666 20.3333L10.119 20.5L10.1904 20.6905L10.0952 20.8571V21.0238L10.1666 21.1667L10.2618 21.0476L10.4523 21.119L10.5714 20.9762L10.7618 21.0238L10.9047 20.9524L11.0714 20.9048L11.2142 20.7857L11.3809 20.7381H11.5476L11.7142 20.881L11.8809 20.7381L12.0476 20.7857L12.2142 20.881L12.3571 20.9762L12.5714 20.9048L12.738 20.9524L12.8809 21.0714L12.9999 21.1905L13.0714 21.3571L13.2142 21.4762L13.3571 21.5714L13.4285 21.7143L13.5714 21.8333L13.619 22L13.7142 22.1429L13.7857 22.2857L13.8333 22.4524L13.9523 22.5952L14.0476 22.7381L13.9999 22.9286L14.0952 23.0952L14.1904 23.2381L14.0714 23.4048L14.2142 23.5952L14.1666 23.7619L14.119 23.9286L14.0714 24.0952L14.1428 24.2619L14.1904 24.4286L14.0952 24.619L14.119 24.7857L14.0714 24.9524L14.1904 25.1191L14.119 25.2857L14.1428 25.4762L14.2142 25.6429L14.1428 25.8095L14.0714 25.9762L14.2142 26.1429L14.1904 26.3333L14.119 26.5L14.0714 26.6667V26.8333L14.1428 27L14.1666 27.1667L14.0952 27.3571L14.2142 27.5238L14.119 27.6905V27.8571L14.2142 28.0476V28.2143L14.0714 28.381L14.0952 28.5476L14.2142 28.7143L14.0952 28.9048L14.119 29.0714L14.1904 29.2381L14.2142 29.4048L14.1666 29.5714L14.1904 29.7619L14.1666 29.9286L14.1904 30.0952V30.2619L14.0714 30.4286L14.1904 30.619V30.7857L14.2142 30.9524L14.1428 31.119V31.3095L14.2142 31.4762L14.0714 31.6429L14.0952 31.8095L14.1904 32L14.0714 32.1667V32.3333L14.1904 32.5476H13.9761L13.8095 32.5714L13.6428 32.4286L13.4761 32.5714L13.3095 32.4762H13.1428L12.9999 32.4524L12.8333 32.5952L12.6904 32.4762V32.3333L12.5952 32.1667L12.6428 32L12.7142 31.8333L12.6904 31.6667L12.619 31.4762L12.6428 31.3095V31.1429L12.7142 30.9762L12.6428 30.8095L12.5952 30.6429L12.5714 30.4524L12.619 30.2857L12.7142 30.1191L12.738 29.9524L12.7142 29.7857L12.5714 29.5952L12.619 29.4286L12.7142 29.2619L12.6428 29.0952L12.6666 28.9286V28.7381L12.6428 28.5714L12.738 28.4048L12.7142 28.2381L12.6666 28.0476L12.5952 27.881L12.5714 27.7143L12.6428 27.5476L12.6904 27.381L12.619 27.1905L12.6666 27.0238L12.5952 26.8571L12.7142 26.6905L12.6666 26.5238L12.6428 26.3333L12.6666 26.1667L12.5952 26L12.619 25.8333L12.6428 25.6667L12.7142 25.4762L12.5952 25.3095L12.738 25.1429V24.9762L12.5952 24.7857L12.6428 24.619L12.6666 24.4524L12.7142 24.2857L12.6428 24.0952L12.6904 23.9286L12.7142 23.7619L12.619 23.5714L12.7142 23.381L12.5952 23.2381L12.4999 23.0714L12.4047 22.9524L12.3809 22.7619L12.238 22.6429L12.119 22.5238L12.0238 22.3571L11.8571 22.3095L11.6428 22.3571L11.4999 22.2857L11.3095 22.2619L11.1428 22.3571L10.9761 22.3095L10.8095 22.3333L10.6428 22.3571L10.4999 22.5L10.3333 22.5714L10.2142 22.6905L10.119 22.8571L10.2142 23.0714L10.1666 23.2143V23.381L10.119 23.5476L10.1666 23.7143L10.0714 23.881L10.0952 24.0714L10.0714 24.2381L10.0238 24.4048L10.1666 24.5714L10.119 24.7381L10.0714 24.9286L10.0238 25.0952L10.1666 25.2619L10.0714 25.4286L10.0238 25.619L10.0714 25.7857L10.0952 25.9524L10.1666 26.119L10.0238 26.2857V26.4762L10.0476 26.6429V26.8095L10.1666 26.9762L10.0952 27.1667L10.0476 27.3333V27.5L10.1428 27.6667L10.0952 27.8571L10.1666 28.0238V28.1905L10.0238 28.3571L10.1428 28.5238L10.119 28.7143L10.1904 28.881L10.0476 29.0476L10.119 29.2143L10.1666 29.4048L10.0714 29.5714L10.119 29.7381L10.1666 29.9048L10.119 30.0952L10.1666 30.2619L10.0476 30.4286L10.119 30.5952L10.1666 30.7857L10.1428 30.9524L10.0476 31.119L10.0238 31.2857V31.6429L10.0476 31.8095L10.1666 32L10.1428 32.1667L10.0714 32.3333L10.0952 32.5L9.92851 32.5714L9.73804 32.4762L9.57137 32.5238L9.3809 32.5L9.21423 32.5476L9.02375 32.4762L8.85709 32.5714L8.66661 32.5238L8.45232 32.5476L8.54756 32.3333L8.4047 32.1667L8.57137 32L8.42851 31.8333L8.54756 31.6667L8.47613 31.4762L8.4047 31.3095L8.49994 31.1429L8.45232 30.9762L8.57137 30.8095L8.47613 30.6429L8.4047 30.4524L8.54756 30.2857L8.45232 30.1191L8.54756 29.9524L8.57137 29.7857L8.52375 29.619L8.45232 29.4286L8.42851 29.2619L8.49994 29.0952L8.57137 28.9286L8.52375 28.7619L8.54756 28.5952L8.57137 28.4048L8.42851 28.2381L8.47613 28.0714L8.57137 27.9048V27.7381L8.54756 27.5476L8.47613 27.381L8.4047 27.2143L8.57137 27.0476L8.54756 26.881L8.45232 26.7143L8.57137 26.5238L8.52375 26.3571L8.54756 26.1905L8.45232 26.0238L8.42851 25.8571L8.54756 25.6905L8.4047 25.5L8.42851 25.3333L8.49994 25.1667L8.54756 25L8.49994 24.8333L8.54756 24.6667L8.42851 24.4762L8.4047 24.3095L8.57137 24.1429L8.42851 23.9762V23.8095L8.49994 23.6429L8.4047 23.4524L8.54756 23.2857L8.4047 23.119L8.49994 22.9524L8.47613 22.7857L8.57137 22.6191L8.52375 22.4286L8.54756 22.2619L8.45232 22.0952L8.54756 21.9286L8.52375 21.7619L8.57137 21.5714L8.49994 21.4048L8.45232 21.2381L8.49994 21.0714L8.42851 20.9048L8.45232 20.7381L8.54756 20.5476L8.49994 20.381L8.42851 20.2143L8.49994 20.0476L8.4047 19.881L8.49994 19.6905V19.5238L8.52375 19.3571V19.1905L8.42851 19L8.4047 18.8333L8.42851 18.6667L8.49994 18.5L8.57137 18.3333L8.42851 18.1667V17.9762L8.45232 17.8095L8.54756 17.6429V17.4762L8.49994 17.2857L8.52375 17.119L8.54756 16.9524L8.45232 16.7857L8.47613 16.6191L8.57137 16.4286L8.49994 16.2619L8.42851 16.0952V15.9286L8.54756 15.7619V15.5714ZM21.5238 29.5952L21.3809 29.6429L21.1904 29.5238L20.9999 29.5476L20.8095 29.5L20.6428 29.6429H20.4523L20.2618 29.5714L20.0952 29.6667L19.9047 29.5714V29.7619L19.8809 29.9286V30.0952L19.8333 30.2619L19.738 30.4048L19.7857 30.5952L19.6904 30.7381L19.5952 30.881L19.4761 31.0238H19.2857L19.1428 31.119L18.9523 31.0714L18.8095 31.1905L18.6428 31.1429L18.4761 31.1667L18.2857 31.1905L18.0952 31.1667L17.9285 31.0952L17.8095 30.9524L17.738 30.7857L17.5476 30.7143V30.5L17.4523 30.3571L17.4285 30.1905L17.4047 30.0238L17.4285 29.8571L17.4047 29.6905L17.4285 29.5238L17.3809 29.3571L17.4285 29.1905L17.3809 29.0238L17.4047 28.8571L17.3809 28.6905L17.3571 28.5238L17.4047 28.3571L17.2857 28.1905L17.4285 28.0238L17.3571 27.8571L17.2857 27.6905L17.4285 27.5238L17.2857 27.3095L17.4999 27.3571L17.6666 27.4048L17.8333 27.2857L17.9999 27.381L18.1666 27.3571H18.4999L18.6666 27.4048L18.8333 27.2857L18.9999 27.4286H19.1666L19.3333 27.3095L19.4999 27.3571L19.6666 27.2857L19.8333 27.381H19.9999L20.1666 27.3095L20.3333 27.2857L20.4999 27.4286L20.6666 27.3333L20.8333 27.4286L20.9999 27.4048H21.1666L21.2857 27.3333L21.238 27.1905V27.0238L21.4047 26.8571L21.2618 26.6905L21.2857 26.5238L21.3571 26.3571L21.4047 26.1905L21.2857 26.0238L21.2618 25.8571L21.2857 25.6905L21.3095 25.5238L21.4047 25.3571L21.3809 25.1905L21.3571 25.0238L21.3809 24.8571L21.3333 24.6905L21.3809 24.5238L21.3571 24.3571V24.1905L21.3809 24.0238L21.3095 23.8571L21.2618 23.6905L21.3571 23.5238L21.3095 23.3571L21.238 23.1905L21.3333 23L21.1904 22.8571L21.1666 22.6905V22.5L21.1428 22.3095L20.9999 22.1905L20.9523 21.881L20.9285 21.6905L20.7857 21.5952L20.6904 21.4286L20.4761 21.4048L20.3809 21.2381L20.2142 21.1667H20.0238L19.9047 21.0238L19.7618 20.9048L19.5476 21L19.3809 20.9524L19.2142 20.8571L19.0476 20.7857L18.8809 20.7619L18.6904 20.8333L18.5238 20.8571L18.3571 20.7857L18.1904 20.9286L18.0238 20.8333L17.8571 20.8571L17.7142 20.9762L17.5476 21.0238L17.3571 20.9524L17.2142 21.0238L17.0952 21.1905H16.8809L16.738 21.2857L16.6666 21.4524L16.5476 21.5714L16.4047 21.6667L16.3095 21.8095L16.1904 21.9286L16.119 22.0952L16.0476 22.2381L15.8571 22.3333L15.9047 22.5238L15.8571 22.6905V22.8571L15.738 23V23.1667L15.7857 23.3333L15.6666 23.5L15.6904 23.6667L15.7857 23.8333L15.6666 24V24.1667L15.7857 24.3333L15.7618 24.5L15.8095 24.6667L15.6666 24.8333L15.7857 25L15.7142 25.1667V25.3333L15.6904 25.5L15.8333 25.6667L15.7142 25.8333L15.738 26L15.8333 26.1667L15.7857 26.3333L15.7142 26.5L15.7618 26.6667L15.8333 26.8333L15.8095 27V27.1667L15.738 27.3333L15.8095 27.5L15.8571 27.6667L15.8809 27.8333L15.8333 28L15.738 28.1667V28.5L15.8809 28.6667L15.8571 28.8333L15.7618 29L15.8333 29.1667L15.8095 29.3333V29.5L15.8333 29.6667L15.738 29.8333L15.7618 30L15.8333 30.1667L15.9285 30.3095L15.9761 30.4762L15.9523 30.6429L15.9761 30.8095L16.0952 30.9524L16.119 31.119L16.2857 31.2143V31.4286L16.4285 31.5238L16.5476 31.6429L16.6666 31.7619L16.8333 31.8095L16.9761 31.9048L17.119 32L17.1428 32.381L17.3571 32.3095L17.4761 32.5L17.6428 32.5476L17.8333 32.4524L17.9999 32.5238L18.1666 32.5714L18.3333 32.6191L18.4999 32.5714L18.6666 32.6191L18.8333 32.6429L18.9999 32.5476L19.1904 32.6429L19.3571 32.5476L19.5238 32.4762L19.6904 32.4048L19.8809 32.4286L20.0238 32.3571L20.1904 32.2857H20.3809L20.5238 32.1667L20.619 32L20.7619 31.9286L20.9047 31.8333L20.9523 31.6429L21.119 31.5476L21.2142 31.4048L21.3333 31.2619L21.3571 31.0952L21.4761 30.9524L21.5476 30.7857L21.5952 30.619L21.4761 30.4286L21.5238 30.2619V30.0952L21.5952 29.9286L21.5238 29.7619V29.5952ZM17.4047 23.0476L17.4523 22.881L17.6428 22.8095L17.738 22.6667L17.8809 22.5952L17.9523 22.381L18.119 22.3095L18.3095 22.3333L18.4761 22.2143L18.6428 22.3095L18.8095 22.3333L18.9761 22.381L19.1428 22.4286L19.2619 22.5476L19.3571 22.6905L19.5476 22.7381L19.6428 22.881L19.7618 23.0238L19.8809 23.1667L19.8571 23.3571L19.9523 23.5L19.9285 23.6667L19.9999 23.8333L19.9523 24L19.9761 24.1667L20.0238 24.3333L20.0476 24.5V24.6667L19.9999 24.8333L19.9285 25L20.0476 25.1667L19.9523 25.3333L19.9999 25.5L19.9761 25.6667L19.9999 25.8095L19.8571 25.7619L19.6904 25.7857L19.5238 25.7619L19.3571 25.8095L19.1904 25.7619L19.0238 25.8095L18.8571 25.7857L18.6904 25.8095L18.5238 25.8333L18.3571 25.7857L18.1904 25.9048L18.0238 25.7619L17.8571 25.8333L17.6904 25.9048L17.5714 25.7857L17.4285 25.6667L17.4999 25.5L17.5476 25.3333L17.4285 25.1667L17.5238 25L17.4999 24.8333V24.5L17.5476 24.3333L17.4285 24.1667L17.5714 24V23.8333L17.4523 23.6667L17.4999 23.5L17.3809 23.2381L17.4047 23.0476Z" fill="#1F304C"/>
</svg>
