<svg fill="none" height="44" viewBox="0 0 102 44" width="102" xmlns="http://www.w3.org/2000/svg"><g fill="#1f304c"><path d="m74.25 15.73c.77.33 1.54.11 2.31.22.55 0 1.21-.11 1.54-.77l.44-2.42c.11-.55-.66-.77-1.1-.77-.77 0-1.65-.11-2.31.11-.33.11-.66.33-.66.77-.11.77-.33 1.43-.33 2.2-.33.33-.11.55.11.66zm-1.1 3.19c.11-.22 0-.44-.22-.55-.55-.33-1.32-.11-1.98-.22-.55 0-1.21 0-1.65.55-.77 1.65-1.65 3.3-2.42 4.95-.55 1.1-.99 2.31-1.43 3.41-.11-1.21-.11-2.31-.22-3.52-.22-1.65-.44-3.19-.66-4.73-.11-.44-.55-.55-.88-.55h-1.98c-.44 0-.88.11-1.21.44-.11.33 0 .55 0 .88.66 4.18 1.32 8.36 2.09 12.54.33.55.99.44 1.54.55.77-.11 1.65.11 2.31-.55 2.09-4.07 4.18-8.14 6.38-12.1.11-.55.22-.77.33-1.1zm-29.15-4.29c-.11-.33-.11-.66-.22-.99-.33-.44-.99-.33-1.54-.44-.77 0-1.65-.11-2.53.22-.55.11-.55.77-.77 1.21-.33.99-.77 1.76-.99 2.75-.11-.99-.22-2.09-.55-3.19-.77-2.75-1.98-5.17-3.85-7.37-.44-.55-.88-.99-1.32-1.43-3.19-3.19-7.59-5.17-12.1-5.39h-2.09c-4.73.33-9.24 2.31-12.43 5.5-3.3 3.3-5.39 7.81-5.61 12.43v2.09c.22 4.51 2.2 9.02 5.39 12.32 2.97 2.97 6.93 4.95 11.11 5.5.44 1.21 1.21 2.31 2.31 3.19 1.65 1.43 3.74 2.31 5.94 2.97h-.22.22-.22.33c-.99-1.1-1.87-2.31-2.2-3.74-.11-.44-.22-.88-.22-1.32s.11-.88.33-1.32c.22-.11.55-.11.77-.22 3.41-.77 6.6-2.53 9.02-5.06.44-.44.77-.88 1.21-1.21.11-.11.11-.22.33-.33.55-.77 1.43-1.43 1.98-2.31h6.27c.22 1.21.33 2.31.55 3.41.33.44.99.33 1.54.33.77-.11 1.43.11 2.2-.22.33-.11.33-.66.33-.99-1.1-5.39-2.09-10.89-2.97-16.39zm-39.27-1.43c1.21-3.08 3.63-5.72 6.49-7.48 1.87-1.21 4.07-1.87 6.38-2.09 3.85-.33 7.7.66 11 2.75 2.97 1.87 5.5 4.73 6.82 8.14.44 1.32.77 2.75.77 4.07s-.22 2.75-.66 4.07c-1.1 3.52-3.52 6.49-6.49 8.58-2.75 1.98-6.16 3.19-9.46 3.3-3.08.11-6.16-.77-8.8-2.42-3.3-2.2-5.83-5.72-6.71-9.46-.33-1.21-.44-2.31-.44-3.63-.11-1.98.22-4.07 1.1-5.83zm32.89 11.77c.99-2.2 2.31-4.29 3.19-6.6.11 2.2.55 4.4.77 6.6z"/><path d="m19.47 9.34998c.11 1.43002 1.43 2.53002 2.75 2.42002 1.32 0 2.53-1.21 2.64-2.53002v-.22c-.11-1.54-1.76-2.75-3.19-2.42-1.1.22-2.09 1.32-2.09 2.42-.11.22-.11.22-.11.33zm-3.63 21.89002c.99.44 2.09.33 2.97-.11.77-.33 1.43-.77 1.98-1.43.77-.88 1.54-1.87 2.2-2.97-.22-.11-.44-.33-.66-.33-.55.77-.99 1.54-1.65 2.2-.33.33-.66.55-.99.55-.33-.11-.33-.33-.33-.66 0-.11 0-.33.11-.44l4.29-13.2h-1.32c-1.98.33-3.96.55-6.05.88-.11.22-.11.44-.11.77.55 0 1.21 0 1.65.44.22.22.33.44.33.77 0 .22-.11.55-.11.77-.99 3.19-2.09 6.27-3.08 9.46-.11.55-.33.99-.33 1.54-.22.55.44 1.43 1.1 1.76zm84.48-3.3c-.11-.22-.33-.55-.66-.44-1.87.66-3.74 1.76-5.83 1.76-.77 0-1.65-.22-2.09-.88-.44-.55-.33-1.21-.33-1.87h7.04c.55-.22.99-.66 1.32-1.1.33-.33.33-.77.33-1.21.11-1.43.11-2.75-.55-4.07-.44-.99-1.43-1.76-2.53-1.98-1.65-.33-3.41-.11-4.95.55-1.87.77-3.3 2.53-3.85 4.51-.55 1.87-.99 4.07-.33 6.16h-6.49c2.53-2.75 5.06-5.61 7.59-8.36.33-.66.22-1.43 0-2.09-.11-.11-.11-.44-.33-.44h-9.46c-.55-.11-.88.33-.99.77-.11.55-.33 1.1-.33 1.65 0 .33.22.66.55.66h5.06c-2.53 2.31-4.95 4.62-7.48 7.04.55-2.97 1.1-6.05 1.65-9.13.11-.33.11-.77-.22-.99-.66-.33-1.43-.11-2.2-.22-.55 0-1.43.11-1.54.77-.77 4.07-1.43 8.14-2.09 12.21 0 .22-.11.44 0 .77.22.33.55.44.99.55h19.8c2.2.22 4.51-.33 6.38-1.21.77-.33 1.54-.77 2.2-1.32-.22-.77-.44-1.54-.66-2.09zm-6.6-6.71c.66-.33 1.65-.33 2.09.33.55.55.44 1.43.33 2.2h-4.29c.22-.99.88-2.09 1.87-2.53zm-32.67-9.02c-.44-.22-.99-.11-1.43-.11-.55 0-1.1-.11-1.65.11-.33.11-.55.33-.55.77-.33 1.98-.77 3.96-.99 5.94-1.21-.99-2.86-.99-4.29-.55-1.87.44-3.19 1.87-4.07 3.52s-1.32 3.63-1.43 5.5c-.11 1.43.22 2.97 1.21 4.07.77.99 1.98 1.32 3.19 1.21 1.43-.11 2.75-.77 3.63-1.98.11.55-.11 1.21.33 1.65.55.22 1.21.11 1.87 0 .55-.11 1.21-.11 1.65-.66.11-.33.11-.66.11-.99 0-1.43.33-2.86.55-4.29.77-4.51 1.65-9.02 2.31-13.42 0-.33-.22-.66-.44-.77zm-6.38 15.51c-.55.77-1.32 1.43-2.31 1.65-.66.11-1.32-.33-1.54-.88-.33-.99-.22-2.2 0-3.19.22-1.21.66-2.64 1.76-3.52.99-.66 2.31-.55 3.19.11-.33 1.76-.66 3.74-1.1 5.83z"/></g></svg>