<svg fill="none" height="25" viewBox="0 0 200 25" width="200" xmlns="http://www.w3.org/2000/svg"><path d="m0 24.5566v-2.4556h3.44475v-19.64534h-3.44475v-2.45566h9.85675v2.45566h-3.44474v19.64534h3.44474v2.4556zm15.2456-24.5566h10.0955c4.0586 0 6.5484 2.48977 6.5484 6.34379 0 3.64939-2.3533 4.94541-3.9905 5.21831v.2046c1.7736.1023 4.809 1.603 4.809 5.6958 0 4.0586-2.6944 7.0941-6.3437 7.0941h-11.1528v-24.5566zm2.9331 10.6412h6.7872c2.3192 0 3.7176-1.22783 3.7176-3.41064v-1.19373c0-2.18281-1.3984-3.41064-3.7176-3.41064h-6.7872zm0 11.3233h7.2988c2.5239 0 4.0928-1.3301 4.0928-3.7858v-1.1937c0-2.4557-1.5348-3.7858-4.0928-3.7858h-7.2988zm39.1201-18.11047h-.1706l-2.0805 4.12687-5.8663 10.7094-5.8321-10.7094-2.0805-4.09277h-.1706v20.66847h-2.899v-24.5566h3.854l7.0259 13.2333h.1364l7.0601-13.2333h3.854v24.5566h-2.8308zm19.6453 20.70257-5.5594-24.5566h5.2865l2.3193 11.8008 1.296 6.8213h.1023l1.5348-6.8213 2.6944-11.8008h5.8322l2.7285 11.8008 1.5007 6.8213h.1023l1.2961-6.8213 2.3533-11.8008h5.0819l-5.6276 24.5566h-6.0709l-3.1037-13.3015-1.1937-5.3888h-.1024l-1.2278 5.3888-3.1037 13.3015zm42.6669 0c-1.876 0-3.206-1.2619-3.513-3.2401h-.204c-.58 2.3875-2.593 3.6494-5.423 3.6494-3.684 0-5.73-2.1828-5.73-5.3888 0-3.8882 3.035-5.764 7.912-5.764h2.934v-1.1596c0-1.8077-.887-2.93317-3.07-2.93317-2.08 0-3.172 1.05727-3.99 2.18277l-3.104-2.72848c1.466-2.18281 3.581-3.51295 7.469-3.51295 5.219 0 7.879 2.38744 7.879 6.75303v8.0833h1.739v4.0586zm-4.058-5.5934v-2.1828h-2.524c-2.013 0-3.07.7503-3.07 2.0804v.5116c0 1.3302.887 1.9782 2.422 1.9782 1.739 0 3.172-.6821 3.172-2.3874zm16.678 5.5934c-3.582 0-5.492-1.8758-5.492-5.3888v-9.0382h-2.592v-4.05866h1.296c1.399 0 1.842-.71623 1.842-1.97817v-3.03547h4.673v4.97953h3.649v4.05867h-3.649v10.3683h3.376v4.0928zm5.491-2.899 3.069-3.1037c1.296 1.4325 2.899 2.3533 4.877 2.3533 2.047 0 2.729-.6821 2.729-1.7735 0-.9209-.58-1.3643-1.876-1.5348l-2.012-.2387c-4.195-.5116-6.242-2.3534-6.242-5.6958 0-3.54708 2.763-6.00273 7.163-6.00273 3.854 0 5.661 1.05729 7.537 2.89904l-3.001 3.06959c-1.16-1.1596-2.695-1.90997-4.263-1.90997-1.774 0-2.456.64797-2.456 1.53477 0 .9891.409 1.5007 1.944 1.7394l2.08.2729c4.025.5116 6.071 2.3533 6.071 5.5593 0 3.5471-3.171 6.1733-7.912 6.1733-3.479-.0341-5.798-1.2278-7.708-3.3424zm18.076-6.3438c0-5.93454 3.24-9.65213 8.663-9.65213s8.663 3.68348 8.663 9.65213c0 5.9686-3.24 9.6862-8.663 9.6862-5.423-.0341-8.663-3.7517-8.663-9.6862zm11.903 1.8758v-3.7517c0-2.3192-1.193-3.64936-3.24-3.64936-2.046 0-3.24 1.33016-3.24 3.64936v3.7517c0 2.3193 1.194 3.6494 3.24 3.6494 2.047.0341 3.24-1.296 3.24-3.6494zm9.107 7.367v-18.48566h5.218v3.13779h.205c.682-1.94406 2.216-3.54706 5.15-3.54706 3.751 0 5.764 2.6603 5.764 7.33283v11.5621h-5.219v-11.1528c0-2.3533-.682-3.51294-2.558-3.51294-1.705 0-3.342.88674-3.342 2.69444v11.9713zm17.326-19.98634c0-1.70532 1.262-2.93315 2.865-2.93315s2.865 1.26193 2.865 2.93315c0 1.70532-1.296 2.93315-2.865 2.93315-1.569.03411-2.865-1.22783-2.865-2.93315zm5.047.23875v-.44339c0-1.26194-.955-2.08049-2.148-2.08049-1.194 0-2.149.85266-2.149 2.08049v.44339c0 1.26193.955 2.08048 2.149 2.08048 1.159 0 2.148-.85265 2.148-2.08048zm-2.558 1.26193h-.818v-3.00136h1.432c.717 0 1.058.40927 1.058.98908 0 .47749-.205.78445-.546.92088l.648 1.0914h-.887l-.511-.95498h-.376zm.478-1.53479c.239 0 .375-.10232.375-.30696v-.17053c0-.20464-.136-.30695-.375-.30695h-.443v.81855h.443z" fill="#1f304c"/></svg>