<svg fill="none" height="40" viewBox="0 0 134 40" width="134" xmlns="http://www.w3.org/2000/svg" xmlns:xlink="http://www.w3.org/1999/xlink"><clipPath id="a"><path d="m0 0h134v40h-134z"/></clipPath><g clip-path="url(#a)" fill="#1f304c"><path d="m21.6 24.5c-1.6-3.1-4.2-4.6-6.7-5.4-.2-.1-.5-.2-.7-.2-.8-.2-1.6-.4-2.6-.5-2.6-.3-5.6 0-7.9 1.3-1.9 1.1-4.3 3.5-3.4 6 .8 2.3 4.2 2 5.9-.2 1.2-1.5 1.8-3.2 3-4.6 1-1.1 1.8-1.8 2.9-2.1 1.4-.4 2.2.8 2.5 1.4s.5 1.6.6 2.7c0 .9.1 2.2 0 4-.1 2.9 1.7 4.9 4.7 4.1 2-.5 3.2-3.7 1.7-6.5z" opacity=".8"/><path d="m22.4 8.50001c-2.2 1.2-3.2 4.79999-5.5 7.29999-.5.5-2.2 2.3-4 1.8-2.1-.5-4.20001-4-7.30001-5.2-1.6-.6-4.2-.7-5.299998 1.1-1 1.7.4 3.6 3.299998 3.4 2-.1 4.3 0 6.4.3 1.50001.2 2.20001.5 3.70001.8.5.1 1 .2 1.6.2 7 .5 12.2-2.3 13.1-5.7 1-3.99999-2.8-5.79999-6-3.99999z" opacity=".6"/><path d="m13.4 0c-3.2 0-5.1 2.4-5.1 5.5 0 4.1 4.1 9.7 5.1 11.1.9-1.4 5.1-7.1 5.1-11.1-.1-3.1-1.9-5.5-5.1-5.5zm0 7.8c-1.4 0-2.6-1.2-2.6-2.6s1.2-2.6 2.6-2.6 2.6 1.2 2.6 2.6-1.2 2.6-2.6 2.6zm13.8 16.8h1.7v15.2h-1.7zm15.1-7.1c2.3 0 3.9.4 6 1.3v1.6c-2-.8-3.6-1.3-5.8-1.3-5.2 0-8.7 2.6-8.7 9.7s3.4 9.6 8.6 9.6c2.2 0 3.8-.4 5.9-1.1v1.6c-2.1.7-3.8 1.1-6 1.1-6 0-10.1-3.2-10.1-11.2s4.1-11.3 10.1-11.3zm23.3 5.4h-4.1v1.7h4c3.8 0 5.5 1.7 5.5 5.4-.5-.2-1.7-.6-4-.6-1.5 0-7.9.2-7.9 5.4 0 4.5 4.7 5.1 6.9 5.1 2.1 0 6.7-.6 6.7-5.1v-5c-.1-4.4-2.2-6.9-7.1-6.9zm5.4 12c0 3-3 3.5-5 3.5s-5.2-.6-5.2-3.6c0-3.3 4-3.8 6-3.8 2.2 0 3.8.5 4.2.6zm12-12c1.6 0 3.3.4 4.8.9v1.6c-1.5-.5-3.1-.9-4.6-.9-3.8 0-6.2 1.8-6.2 7s2.5 7 6.2 7c1.6 0 3.2-.4 4.6-1v1.6c-1.6.6-3.2.9-4.8.9-3.5 0-7.8-1.4-7.8-8.5s4.3-8.6 7.8-8.6zm-53.7-1.3c0 .7-.6 1.3-1.3 1.3s-1.3-.6-1.3-1.3.6-1.3 1.3-1.3c.7.1 1.3.6 1.3 1.3zm29.2 1.3v1.7c-5.6-.1-6.1 2.6-6.1 6.6v8.5h-1.7v-8.2c0-3.8-.2-8.7 7.8-8.6zm58.9 5.2c0-3.3-2.6-4.7-4.8-5.1-1.3-.2-2.4-.2-3.4 0-4.7 1.1-5.4 6.4-5.4 8.8 0 4.8 2.5 8.2 7.6 8.2 2.7 0 3.9-.4 5.4-1v-1.6c-1.6.6-2.8 1.1-5.3 1.1-5.4 0-5.9-4.6-6-5.6.5.2 1.7.5 3.9.5 1.6 0 8-.2 8-5.3zm-11.8 2.8c.2-3.8 1.7-6.2 4.9-6.4h1c1.9.2 4.2 1 4.2 3.6 0 3.3-4 3.8-6 3.8-2.1 0-3.5-.3-4.1-.6zm26.4-13.3v6.1c-1.4-.5-3.1-.9-4.7-.9-3.5 0-7.5 1.5-7.5 8.5 0 7.6 4.5 8.7 7.3 8.7 6 0 6.6-3.9 6.6-5.1v-17.3zm0 17.3c0 1.7-1.3 3.5-4.9 3.5-2.4 0-5.6-.8-5.6-7.1 0-5.1 2.2-6.8 5.9-6.8 1.7 0 3.3.3 4.7.9zm-41.5-17.3h1.7v22.2h-1.7zm5 13.7 7.9 8.4h-2.3l-7.9-8.4 7.6-8.1h2.3z"/></g></svg>