<svg width="151" height="36" viewBox="0 0 151 36" fill="none" xmlns="http://www.w3.org/2000/svg">
<g clip-path="url(#clip0)">
<path d="M83.6372 26.1209V33.0698C79.6186 34.9953 75.8512 36 72 36C61.5349 36 55.2558 29.9721 55.2558 22.4372C55.2558 14.3163 62.4558 7.53488 71.6651 7.53488C73.9256 7.53488 75.6837 7.95349 77.4419 8.53954C78.7814 8.95814 79.5349 9.37675 80.3721 9.37675C81.0419 9.37675 81.293 8.20465 81.3767 7.53488H82.3814L83.3023 16.9116H82.0465C81.5442 15.0698 80.6233 13.5628 79.4512 12.4744C77.5256 10.6326 74.9302 9.71163 72 9.71163C65.6372 9.71163 61.9535 14.4837 61.9535 21.7674C61.9535 28.8837 66.4744 33.8233 72.4186 33.8233C74.1767 33.8233 75.8512 33.4047 77.7767 32.5674V25.4512C77.7767 23.107 77.3581 22.2698 74.0093 22.2698V21.1814H86.6512V22.2698C83.4698 22.2698 83.6372 23.1907 83.6372 26.1209ZM48.8093 14.7349V35.4977H47.1349L25.6186 14.0651C25.7023 14.6512 25.7023 15.1535 25.7023 15.7395V28.8C25.7023 32.8186 25.7023 34.3256 29.4698 34.3256V35.414H19.4233V34.3256C23.1907 34.3256 23.1907 32.5674 23.1907 28.8V13.814C23.1907 11.5535 23.1907 9.2093 19.1721 9.2093V8.12093H28.6326L46.2977 25.7023C46.2139 25.2 46.214 24.9488 46.214 24.2791V14.7349C46.214 10.8837 46.2977 9.2093 42.5302 9.2093V8.12093H52.5767V9.2093C48.9767 9.2093 48.8093 10.7163 48.8093 14.7349ZM0 35.2465V34.1581C2.42791 34.1581 4.10233 33.9907 4.10233 30.5581V12.8093C4.10233 9.29302 2.76279 9.2093 0 9.2093V8.12093H14.1488V9.2093C11.2186 9.2093 10.0465 9.29302 10.0465 12.8093V30.6419C10.0465 33.9907 11.5535 34.2419 14.1488 34.2419V35.3302H0V35.2465Z" fill="#1F304C"/>
<path d="M150.028 24.3628C150.112 23.7767 150.112 23.2744 150.112 22.8558C149.944 22.6884 149.609 22.6046 149.442 22.6046C149.442 22.3535 149.358 21.9349 149.442 21.6C149.609 21.6 150.028 21.6837 150.028 21.6C150.028 21.014 149.944 20.5116 149.86 20.1767C149.693 20.093 149.358 20.0093 149.107 19.9256C149.107 19.6744 149.023 19.3395 148.94 19.1721C149.191 19.0884 149.442 19.0884 149.609 19.0884C149.609 19.0884 149.442 18.2512 149.358 17.8326C149.191 17.7488 148.856 17.7488 148.688 17.7488C148.605 17.5814 148.521 17.414 148.437 17.0791C148.605 16.9953 148.856 16.9953 149.023 16.9116C148.856 16.4093 148.772 16.2419 148.521 15.9907C148.353 15.9907 148.102 15.9907 147.851 15.9907C147.767 15.8233 147.684 15.6558 147.684 15.4046C147.767 15.3209 147.935 15.2372 148.102 15.1535C148.019 14.9023 147.851 14.5674 147.6 14.4C147.433 14.4 147.181 14.4837 147.014 14.4C146.93 14.4 146.595 14.0651 146.763 14.0651C146.847 13.8977 147.014 13.814 147.181 13.7302C146.93 13.3953 146.763 13.0605 146.512 12.893C146.344 12.893 146.093 12.893 145.926 12.9767C145.926 12.9767 145.758 12.7256 145.674 12.6419C145.423 12.6419 145.842 12.1395 145.842 12.1395C145.591 11.8047 145.256 11.4698 144.921 11.1349C144.753 11.1349 144.502 11.3023 144.419 11.3023C144.419 11.3023 144 11.0512 144 10.9674C144 10.8 144.419 10.7163 144.419 10.7163C144.419 10.7163 143.749 9.96279 143.247 9.71163C143.079 9.79535 142.995 9.79535 142.744 9.79535C142.493 9.54418 142.074 9.29302 142.074 9.29302C142.074 9.29302 142.326 9.12558 142.326 9.04186C141.823 8.7907 141.656 8.53953 141.237 8.28837C140.819 8.12093 140.651 7.78605 140.484 7.53488C139.814 6.53023 138.977 5.02326 136.884 4.77209C136.884 4.77209 137.386 5.44186 137.637 5.86046C137.637 5.94419 137.637 5.94419 137.219 5.94419C136.967 5.94419 136.8 5.94419 136.549 5.94419C136.381 5.69302 136.298 5.6093 136.13 5.35814C135.963 5.02326 135.879 4.85581 135.628 4.68837C135.209 4.43721 133.367 5.44186 131.693 5.77674C132.112 6.27907 132.446 6.53023 132.53 6.69767C133.033 7.2 133.702 8.03721 134.121 8.62325C134.205 8.53953 134.288 8.45581 134.54 8.37209C135.795 8.20465 135.795 7.86977 135.795 7.86977C135.795 7.86977 134.874 7.11628 135.544 7.11628C135.544 7.11628 136.046 7.2 136.214 7.03256C136.716 6.94884 137.302 6.86512 137.553 7.03256C137.972 7.28372 138.14 7.70232 138.391 7.95349C138.223 7.95349 137.972 7.86977 137.805 7.86977C137.219 7.78605 136.633 7.86977 136.214 7.95349C136.214 7.95349 136.967 8.62326 137.135 8.87442C136.967 8.7907 136.381 8.87442 136.381 8.87442C136.13 8.95814 135.712 9.04186 135.628 9.04186C135.377 9.12558 135.042 9.04186 134.874 9.12558C135.293 9.29302 136.967 9.96279 137.805 9.96279C138.558 9.96279 139.06 9.87907 139.73 9.62791C139.814 9.54418 139.981 9.46046 140.149 9.54418C140.567 9.62791 140.735 9.71163 140.902 9.87907C143.414 11.386 146.177 14.9023 147.014 16.8279C147.851 18.586 148.353 20.5953 148.353 22.4372C148.437 24.9488 147.6 27.3767 145.842 29.5535C144.921 30.7256 143.079 31.814 141.153 31.9814C141.74 32.6512 141.991 33.6558 142.326 34.5767C142.326 34.5767 142.995 34.493 143.414 34.3256C143.414 33.5721 142.912 32.7349 142.912 32.5674C142.912 32.5674 143.498 32.2326 144 32.2326C144.084 32.4837 144.419 32.986 144.753 33.6558C145.172 33.4884 145.423 33.3209 145.674 32.986C145.674 32.4837 145.423 31.9814 145.172 31.3953C145.842 31.1442 146.26 31.0605 146.26 31.0605C146.428 31.3116 146.93 31.6465 147.014 31.8977C147.014 31.8977 147.516 31.3953 147.684 30.9767C147.516 30.6419 147.181 30.307 147.014 29.9721L147.767 29.1349C147.767 29.1349 148.27 29.4698 148.437 29.7209C148.688 29.386 149.023 28.9674 149.107 28.4651C148.605 27.9628 148.437 27.9628 148.353 27.7116C148.521 27.4605 148.605 27.0419 148.856 26.7907C149.107 26.8744 149.358 27.0419 149.526 27.1256C149.693 26.7907 149.944 26.2046 149.944 25.786C149.777 25.6186 149.442 25.5349 149.274 25.2837C149.358 24.7814 149.442 24.3628 149.442 24.3628C149.442 24.3628 149.86 24.3628 150.028 24.3628ZM135.126 6.02791L134.54 6.36279L133.786 5.86046L134.623 5.35814L135.544 6.02791H135.126ZM138.558 6.94884L138.14 6.44651L139.228 6.19535L139.73 7.78605L138.558 6.94884ZM118.298 4.52093C118.298 4.77209 118.381 5.10698 118.465 5.35814C118.967 5.6093 119.553 5.86046 119.553 5.86046C119.637 5.6093 119.47 5.27442 119.47 5.02326C119.302 4.35349 118.967 3.68372 118.884 2.93023C118.884 2.84651 118.884 2.67907 118.884 2.59535C118.465 2.42791 118.13 2.34419 117.628 2.09302C117.628 2.09302 117.628 2.67907 117.795 2.93023C118.046 3.34884 118.298 4.10233 118.298 4.52093ZM118.716 6.78139C118.8 6.94884 118.967 6.94884 119.219 7.03256C119.386 7.2 119.637 7.28372 119.888 7.53488C120.307 7.86977 120.474 8.37209 120.977 8.70698C121.144 8.7907 121.228 8.87442 121.395 8.87442C121.479 8.87442 121.898 9.12558 121.981 9.2093C121.981 8.45581 121.73 7.86977 121.479 7.53488C121.479 7.45116 121.395 7.36744 121.228 7.28372C120.977 7.03256 120.642 6.69767 120.558 6.69767C120.307 6.44651 120.056 6.11163 119.805 5.86046C119.553 5.86046 119.302 6.11163 119.135 6.19535C118.884 6.53023 118.549 6.69767 118.716 6.78139ZM120.223 9.04186C120.14 9.04186 119.805 8.95814 119.47 8.87442C119.219 8.87442 118.967 8.87442 118.967 8.87442C119.051 9.12558 119.386 9.46046 119.47 9.62791C119.47 9.71163 119.47 9.96279 119.553 10.214C119.721 10.214 120.056 10.2977 120.223 10.3814C120.307 10.3814 120.893 10.4651 121.06 10.6326C121.228 10.6326 121.898 11.386 121.981 11.4698C122.233 11.6372 122.567 11.8047 122.735 11.7209C122.902 11.7209 122.735 11.4698 122.735 11.386C122.316 10.8 122.065 9.79535 121.981 9.79535C121.73 9.71163 121.479 9.79535 121.144 9.62791C120.977 9.46046 120.391 9.12558 120.223 9.04186ZM137.637 29.0512C137.888 29.386 137.805 28.3814 137.721 28.214C137.721 28.1302 137.721 27.3767 137.553 27.3767C137.47 27.293 137.386 27.0419 137.302 26.8744C137.219 27.1256 137.302 27.3767 137.302 27.6279C137.302 27.7953 136.884 27.9628 137.051 28.1302C137.219 28.2139 137.47 28.8837 137.637 29.0512ZM103.981 2.67907C104.651 2.34419 105.823 1.67442 106.158 1.25581C106.242 1.42326 107.414 2.09302 107.916 2.34419C108.335 2.59535 108.67 2.67907 109.088 2.93023C109.256 2.67907 109.507 2.34419 109.674 1.75814C109.926 1.92558 110.344 1.92558 110.595 2.0093C110.595 2.34419 110.595 2.76279 110.679 3.09767C110.679 3.26512 110.846 3.1814 111.265 3.01395C111.851 2.84651 112.437 2.76279 112.688 2.67907C113.358 2.34419 113.777 1.5907 114.279 1.5907C114.781 1.5907 115.619 1.84186 115.786 2.09302C116.037 2.17674 116.288 2.26046 116.54 2.26046C116.958 2.26046 117.209 1.92558 117.46 1.67442C116.623 1.08837 115.619 0.586046 114.698 0.167442C114.112 0.669767 113.777 1.00465 113.442 1.00465C113.191 1.00465 113.358 0.418605 113.358 0.0837209C113.107 0.0837209 112.856 0.0837209 112.605 0C112.437 0.669767 112.353 1.50698 111.851 1.67442C111.684 1.75814 111.6 1.75814 111.433 1.75814C111.433 1.67442 111.433 1.08837 111.433 1.00465C111.433 0.92093 111.851 0.251163 111.684 0.167442C111.684 0.167442 110.847 0.334884 110.595 0.418605C110.512 0.502326 109.926 0.753488 109.842 0.753488C109.842 0.753488 109.591 0.669767 109.423 0.669767C109.172 0.502326 108.921 0.502326 108.67 0.334884C108.251 1.42326 108.167 1.75814 108.167 1.5907C108.167 1.5907 106.828 0.753488 106.326 0.167442C105.07 0.334884 105.07 0.502326 104.065 0.92093C103.646 1.25581 103.144 1.75814 102.726 2.34419C102.558 2.67907 102.307 2.93023 102.14 3.26512L103.06 3.6C103.395 3.51628 103.898 2.93023 103.981 2.67907ZM125.079 18.0837C125.246 18.2512 125.33 18.6698 125.498 19.2558C125.581 19.5907 125.749 19.7581 126 20.2605C126.251 20.093 126.753 20.1767 126.753 20.1767C126.753 19.6744 126.502 19.2558 126.502 19.1721C126.419 19.0046 126.084 18.4186 126 18.2512C126.084 18.2512 126.419 18.586 126.837 18.586C126.921 18.586 127.256 18.6698 127.423 18.586C127.423 18.586 127.674 18.7535 127.674 18.9209C127.842 19.1721 127.842 19.4233 127.926 19.6744C128.093 19.6744 128.177 19.6744 128.344 19.5907C128.763 19.5907 128.93 19.507 128.93 19.507C128.846 19.3395 128.763 19.1721 128.763 18.9209C128.679 18.7535 128.512 18.2512 128.512 18.2512L130.27 18C130.27 17.7488 130.186 17.3302 129.851 17.1628C129.014 17.414 128.009 17.4977 127.34 17.4977C126.419 17.4977 125.414 17.3302 124.074 16.7442C123.991 16.9116 124.074 17.3302 124.074 17.3302C124.66 17.9163 124.66 17.6651 125.079 18.0837ZM121.981 12.7256C122.149 13.4791 122.484 14.4 122.567 15.4884C122.567 15.7395 122.484 16.0744 122.567 16.3256L123.907 16.8279C123.907 16.8279 123.74 15.7395 123.488 14.4C123.321 13.3116 123.237 12.893 122.902 12.4744C122.735 12.5581 122.651 12.5581 122.4 12.5581C122.149 12.6419 121.981 12.7256 121.981 12.7256ZM136.381 16.5767C135.126 15.4046 133.786 14.6512 132.446 14.6512C131.274 14.6512 130.437 15.4884 130.437 16.3256C130.437 19.6744 131.777 21.8512 132.614 23.693C132.865 24.1953 133.033 24.5302 133.033 25.0326C133.116 26.2884 132.112 28.4651 131.442 29.7209C131.358 29.6372 130.856 29.5535 130.521 29.5535C129.6 29.5535 129.181 30.2233 129.014 30.7256C128.763 30.7256 128.512 30.5581 128.26 30.5581C127.088 30.4744 126.167 31.4791 126.167 32.6512C126.167 33.8233 126.419 34.493 126.921 35.3302C127.34 35.3302 127.507 35.3302 127.842 35.3302C127.758 35.0791 127.423 33.6558 127.34 33.2372C127.256 32.6512 127.423 32.3163 127.758 31.9814C128.177 31.3953 129.098 31.6465 129.098 31.6465C128.846 32.1488 128.428 32.8186 128.428 33.5721C128.512 34.0744 128.595 34.8279 128.93 35.2465H129.684C129.851 34.6605 129.684 34.2419 129.684 33.7395C129.684 33.4884 129.684 33.1535 129.767 32.9023C129.767 32.7349 130.27 33.2372 130.27 33.2372C130.27 33.2372 130.688 32.7349 130.688 32.4C130.688 32.1488 130.102 32.2326 130.019 31.8977C129.935 31.6465 130.186 30.9767 130.186 30.9767C130.772 30.6419 131.274 30.7256 131.442 30.7256C131.693 30.7256 131.86 30.8093 132.195 30.8093C132.446 30.8093 132.614 30.2233 132.614 29.9721C132.698 30.0558 133.033 30.2233 133.116 30.2233C133.367 30.307 133.535 30.307 133.786 30.3907C134.205 30.5581 134.54 30.7256 134.958 31.1442V31.0605C134.874 30.7256 135.042 30.2233 134.791 30.0558C134.791 30.0558 134.288 29.7209 133.953 29.4698C133.786 29.3023 133.451 29.3023 133.367 29.1349C133.284 29.0512 133.284 28.9674 133.284 28.8C133.284 28.6326 133.367 28.2977 133.451 28.2977C133.619 28.214 133.702 28.2977 134.121 28.4651C134.54 28.6326 134.874 28.9674 135.209 29.1349C135.209 29.1349 135.293 29.3023 135.293 29.2186C135.712 29.0512 135.712 28.9674 135.712 28.3814C135.293 27.8791 135.712 27.7953 135.126 27.4605C134.958 27.4605 133.87 27.1256 133.87 27.1256C133.87 26.9581 134.121 26.4558 134.121 26.4558C134.205 26.3721 134.372 26.3721 134.54 26.5395C135.126 26.8744 135.46 26.8744 136.046 27.1256C136.13 26.8744 136.13 26.6233 135.963 26.4558C135.795 26.2046 135.46 25.8698 135.293 25.786C134.874 25.7023 134.707 25.6186 134.456 25.5349C134.456 25.2837 134.372 24.9488 134.288 24.614C134.288 24.4465 134.456 24.5302 134.707 24.5302C135.126 24.4465 136.716 25.0326 136.716 25.0326C136.716 24.6977 136.633 24.3628 136.465 24.1953C136.298 24.0279 136.046 23.8605 135.628 23.6093C134.958 23.4419 134.372 23.5256 133.87 23.2744C133.451 22.9395 133.367 22.7721 133.284 22.4372C133.535 22.3535 134.037 22.2698 134.372 22.2698C134.874 22.2698 135.126 22.186 135.712 22.3535C135.879 22.4372 136.549 23.0233 136.884 23.0233C136.884 23.0233 136.716 22.2698 136.465 22.0186C136.214 22.0186 135.712 21.4326 135.544 21.3488C134.623 21.014 134.372 21.1814 133.786 21.2651C133.535 21.3488 133.2 21.2651 132.949 21.2651C132.865 21.0977 133.116 20.7628 133.033 20.5953C133.033 20.5116 132.614 20.4279 132.614 20.2605C132.614 20.2605 134.121 20.093 134.707 20.1767C134.874 20.2605 135.46 20.6791 135.628 20.6791C135.628 20.6791 135.795 20.0093 135.544 19.4233C135.042 19.3395 134.623 19.4233 134.205 19.3395C133.786 19.2558 133.451 19.3395 133.116 19.3395C132.865 19.3395 132.53 19.2558 132.279 19.2558C132.112 19.0047 132.028 18.6698 132.028 18.4186C132.028 18.4186 134.456 18.3349 134.623 18.2512C134.54 18.1674 134.372 18.0837 134.205 17.9163C133.786 17.2465 133.535 17.1628 133.033 17.1628C132.781 17.1628 132.112 17.414 131.693 17.3302C131.693 16.5767 132.112 15.907 132.614 15.907C133.786 15.907 134.874 16.4093 135.879 17.414C138.307 19.8419 139.479 24.4465 139.479 27.7116C139.479 29.2186 139.312 30.6419 139.06 31.7302C139.312 31.814 139.563 31.8139 139.814 31.8139C140.065 30.7256 140.4 29.2186 140.4 27.7953C140.233 22.8558 138.474 18.8372 136.381 16.5767ZM118.046 9.54418C117.963 9.62791 117.879 9.79535 117.879 9.87907C117.712 10.1302 117.377 10.3814 117.628 10.6326C117.712 10.9674 117.712 11.386 118.046 11.6372C118.298 11.8884 118.716 11.8047 119.135 12.1395C119.135 12.1395 118.884 10.8837 118.633 10.3814C118.381 9.96279 118.214 9.79535 118.046 9.54418ZM129.767 21.2651C129.684 21.014 129.349 20.9302 129.181 20.6791C129.181 20.6791 127.926 20.1767 127.758 20.1767C127.591 20.2605 128.26 20.6791 128.344 20.8465C128.763 21.1814 129.684 22.1023 129.684 22.1023L129.767 21.2651ZM120.726 15.1535C120.977 15.1535 121.228 15.3209 121.395 15.3209C121.395 15.0698 121.312 14.8186 121.228 14.5674C121.144 14.0651 120.977 13.814 120.809 13.5628C120.809 13.3116 120.809 13.0605 120.726 12.893C120.642 12.893 120.558 12.893 120.474 12.8093C120.223 12.8093 119.805 12.7256 119.805 12.7256C119.805 12.9767 119.888 13.4791 119.888 13.7302C119.888 13.814 120.307 14.6512 120.391 14.7349C120.391 14.9023 120.558 15.0698 120.726 15.1535ZM137.302 30.307C137.302 30.2233 137.051 30.0558 136.884 30.0558C136.884 29.9721 136.8 29.5535 136.716 29.4698C136.549 29.386 136.549 29.3023 136.298 29.3023C136.298 29.386 136.298 29.4698 136.214 29.6372C136.214 29.8046 136.047 29.8884 136.13 30.1395C136.214 30.307 136.298 30.307 136.549 30.3907C136.633 30.4744 136.967 31.2279 137.051 31.3116C137.135 31.3116 137.135 30.7256 137.302 30.307ZM130.019 25.2C130.437 24.9488 130.521 24.3628 130.605 24.1116C130.688 23.8605 130.521 23.2744 130.437 23.107C130.186 23.107 129.935 22.9395 129.767 22.9395C129.6 22.9395 129.516 22.4372 129.181 22.6046C129.265 22.7721 129.433 23.693 129.6 23.9442C129.6 23.8605 130.019 24.5302 130.019 25.2ZM140.233 33.2372C140.233 33.2372 140.149 33.4884 140.065 33.7395C139.898 34.2419 139.814 34.4093 139.814 34.6605C140.065 34.8279 140.233 34.7442 140.567 34.7442C140.735 34.7442 140.986 34.8279 141.07 34.8279C141.237 34.7442 141.07 34.5767 141.07 34.493C140.902 34.4093 140.484 33.5721 140.233 33.2372ZM124.074 19.4233C124.074 19.4233 122.902 18.7535 122.735 18.5023C122.484 18.5023 122.484 18.5023 122.149 18.7535C121.981 18.7535 121.898 18.8372 121.73 19.0047C121.981 19.1721 122.149 19.2558 122.4 19.507C122.484 19.5907 122.567 19.5907 122.902 19.507C123.321 19.507 123.572 19.507 123.656 19.507C123.823 19.507 124.074 19.5907 124.074 19.4233ZM121.479 17.3302C121.395 17.1628 121.228 16.7442 121.06 16.6605C120.977 16.493 120.893 16.3256 120.809 16.1581C120.726 16.0744 120.307 16.1581 120.14 16.1581C119.972 16.1581 119.888 16.1581 119.637 16.2419C119.805 16.4093 120.056 17.0791 120.14 17.0791C120.223 17.2465 120.223 17.3302 120.391 17.414C120.893 17.4977 121.228 17.414 121.73 17.5814C121.981 17.4977 121.563 17.4977 121.479 17.3302ZM128.763 24.6977C128.763 24.4465 128.679 24.1116 128.512 23.9442C128.428 23.693 128.344 23.2744 128.344 23.107C128.26 22.9395 127.842 22.3535 127.674 22.1023C127.507 21.9349 127.507 21.4326 127.423 21.1814L126.251 21.3488C126.837 22.1023 127.34 22.8558 127.591 23.6093C127.674 23.8605 128.512 26.707 128.512 26.707C128.763 26.6233 128.428 25.2 128.512 25.1163C128.512 24.9488 128.512 24.8651 128.763 24.6977ZM124.995 21.4326C124.995 20.5953 124.828 20.5953 124.409 20.1767C124.409 20.1767 124.158 20.7628 123.907 21.014C124.326 21.3488 124.409 21.8512 124.409 21.8512C124.828 21.6 124.828 21.6837 124.995 21.4326ZM138.391 34.2419C138.391 34.2419 137.972 34.2419 137.888 34.2419C137.721 34.1581 137.637 34.1581 137.47 34.2419C137.219 34.493 137.219 34.9953 136.967 35.2465C137.47 35.2465 137.721 35.2465 138.14 35.2465C138.307 35.0791 138.558 34.9953 138.558 34.5767C138.558 34.5767 138.558 34.3256 138.391 34.2419ZM126.167 23.5256C126.167 23.5256 126 23.1907 126 23.0233C125.916 22.8558 125.833 22.5209 125.498 22.4372C125.498 22.3535 125.414 22.7721 125.33 23.0233C125.246 23.1907 125.246 23.107 125.079 23.5256C125.246 23.7767 125.33 24.0279 125.581 24.2791C125.581 24.3628 125.833 24.7814 125.833 24.7814C125.833 24.7814 126.251 24.0279 126.251 23.8605C126.167 23.693 126.167 23.6093 126.167 23.5256ZM108 15.1535C108.251 15.1535 108.586 14.9023 108.837 14.8186C109.423 14.6512 109.926 14.4837 110.428 14.3163C110.595 14.2326 110.595 14.0651 110.595 13.814C110.679 13.6465 110.679 13.6465 110.679 13.3116C110.679 13.2279 110.26 13.1442 110.093 12.7256C109.926 12.4744 110.093 12.1395 110.009 12.1395C109.758 12.307 109.34 12.4744 109.256 12.1395C109.172 11.8884 109.172 11.4698 109.423 11.386C110.344 11.0512 111.433 11.0512 112.353 11.386C112.521 11.386 112.605 11.5535 112.605 11.7209C112.688 11.8884 112.605 12.0558 112.437 12.307C112.186 12.3907 111.851 12.0558 111.851 12.307C111.851 12.5581 111.684 12.9767 111.181 13.1442C111.098 13.2279 111.181 13.4791 111.265 13.814C111.265 13.8977 111.265 14.0651 111.349 14.0651C111.767 14.1488 112.27 14.2326 112.605 14.4C113.023 14.5674 113.693 15.1535 113.777 15.0698C114.028 14.9023 114.195 14.5674 114.363 14.4C115.451 14.9023 116.288 15.1535 117.628 15.9907C117.795 15.9907 117.795 15.6558 117.795 15.4046C117.293 15.1535 115.87 14.4 115.702 14.3163C115.284 14.2326 115.116 14.0651 114.781 13.9814C114.781 13.9814 114.781 13.4791 114.781 13.2279C115.451 13.3953 116.791 13.4791 118.13 14.2326C118.214 13.9814 118.381 13.7302 118.298 13.6465C116.791 12.893 115.619 12.6419 114.698 12.6419C114.698 12.5581 114.53 12.4744 114.698 12.3907C114.949 12.2233 115.116 12.1395 115.2 12.0558C115.451 11.7209 115.702 11.3023 115.786 10.9674C116.037 10.3814 116.372 10.6326 116.54 9.37674C116.288 9.37674 116.121 9.54418 115.87 9.62791C115.953 9.37674 116.037 9.04186 116.037 8.7907C116.121 8.20465 116.288 7.86977 116.288 7.2C116.54 7.11628 117.042 6.86512 117.126 6.44651C117.126 6.36279 117.126 6.11163 117.209 5.69302C117.209 5.10698 117.293 4.68837 117.126 4.26977C117.126 4.18605 116.456 3.26512 115.953 2.93023C115.284 2.67907 115.033 2.76279 114.53 2.84651C113.944 2.84651 113.191 3.43256 113.191 4.43721C112.605 4.43721 111.433 4.52093 110.763 5.10698C110.177 4.85581 109.674 4.77209 109.256 4.60465C109.005 4.60465 108.67 4.60465 108.419 4.60465C108.335 4.26977 108.167 3.85116 107.749 3.6C107.246 3.34884 106.66 2.93023 105.991 2.93023C105.74 2.93023 105.405 2.84651 105.153 3.01395C104.902 3.1814 104.4 3.34884 104.316 3.76744C104.149 4.26977 103.898 4.60465 103.898 5.10698C103.898 5.6093 104.149 5.94419 104.484 6.44651C104.567 6.61395 104.651 6.61395 104.902 6.69767C104.986 6.69767 105.405 6.86512 105.488 6.94884C105.572 7.03256 105.405 7.28372 105.405 7.86977C105.405 8.37209 105.405 8.37209 105.488 8.70698C105.488 9.04186 105.572 9.46046 105.656 9.71163C105.405 9.71163 105.153 9.46046 104.986 9.62791C104.986 9.79535 105.153 10.2977 105.405 10.6326C105.907 11.1349 106.326 11.5535 106.66 12.1395C106.66 12.2233 106.66 12.3907 106.744 12.3907C106.074 12.4744 105.405 12.4744 104.735 12.6419C104.149 12.8093 103.479 13.1442 102.893 13.3953C102.893 13.7302 102.977 14.0651 102.977 14.0651C103.06 14.0651 103.898 13.5628 104.735 13.3953C105.991 13.0605 106.66 13.1442 106.66 13.1442C106.744 13.3116 106.828 13.6465 106.744 13.7302C105.572 14.2326 104.484 14.7349 103.395 15.4046C103.479 15.5721 103.395 15.907 103.563 16.0744C104.484 15.4884 105.823 14.9023 106.828 14.4837C107.246 14.4 107.246 14.4837 107.414 14.4837C107.581 14.7349 107.833 15.1535 108 15.1535ZM114.112 13.814C113.693 13.7302 113.442 13.4791 112.94 13.4791C112.94 13.2279 112.94 13.2279 113.023 13.1442C113.609 13.0605 113.86 13.2279 114.195 13.3116L114.112 13.814ZM115.2 8.03721C115.116 8.20465 114.949 8.28837 114.698 8.37209C114.614 8.37209 114.53 8.53953 114.53 8.62325C114.363 8.87442 114.028 8.95814 113.693 8.95814C113.526 8.95814 113.107 8.95814 112.94 8.62325C112.94 8.62325 113.023 9.71163 113.023 10.0465C113.023 10.1302 113.107 10.1302 113.107 10.1302C113.526 10.214 113.609 10.6326 113.777 10.8C113.777 10.8 113.86 10.8837 113.944 10.8837C114.363 11.1349 115.2 11.5535 114.781 11.5535C114.781 11.7209 114.53 12.2233 114.363 12.2233C114.112 11.9721 113.609 11.7209 113.191 11.5535C113.107 11.386 113.023 11.2186 112.94 10.9674C112.772 10.8 112.688 10.8 112.353 10.6326C112.353 9.96279 112.27 9.96279 112.27 9.29302C112.27 9.2093 112.102 8.20465 112.102 8.20465C112.102 8.12093 112.353 7.86977 112.688 7.70232C112.688 7.70232 114.53 7.70232 115.367 7.78605C115.367 7.86977 115.284 8.03721 115.2 8.03721ZM114.614 4.10233C114.865 3.85116 115.284 3.76744 115.702 3.85116C116.205 3.93488 116.288 4.0186 116.456 4.18605C116.707 4.52093 116.623 5.27442 116.54 5.77674C116.456 6.02791 116.121 6.27907 115.87 6.27907C115.367 5.69302 114.949 5.35814 114.279 5.1907C114.112 4.77209 114.446 4.35349 114.614 4.10233ZM112.772 5.94419C112.94 5.94419 114.614 6.27907 113.526 6.78139C113.358 6.94884 112.856 6.86512 112.353 6.86512C112.353 6.69767 112.353 6.27907 112.186 6.27907C112.019 6.11163 111.684 6.11163 111.684 5.94419C111.349 5.6093 112.27 5.86046 112.772 5.94419ZM108.837 6.36279C109.088 6.19535 109.423 6.02791 109.591 6.02791C109.758 5.94419 110.177 5.86046 110.177 6.02791C110.177 6.36279 109.926 6.61395 109.591 6.94884C109.423 7.2 109.34 7.03256 108.837 7.03256C108.753 7.03256 108.335 7.03256 108.335 7.03256C108.419 6.69767 108.586 6.61395 108.837 6.36279ZM105.991 6.44651C105.823 6.27907 105.405 5.94419 105.237 5.6093C104.986 5.27442 105.07 4.85581 105.07 4.77209C105.237 4.18605 105.907 4.0186 106.326 3.93488C106.493 3.93488 106.744 3.93488 106.995 4.10233C107.414 4.26977 107.581 4.26977 107.749 4.93953C107.749 5.02326 107.749 5.10698 107.665 5.10698C107.665 5.10698 107.079 5.44186 106.912 5.69302C106.409 5.94419 106.242 6.44651 105.991 6.44651ZM107.581 11.2186C107.749 10.9674 108.167 10.7163 108.419 10.6326C108.837 10.5488 108.67 9.79535 108.67 9.71163C108.753 9.54419 108.67 9.2093 108.67 9.04186C108.502 9.12558 108.502 9.04186 108.084 9.12558C107.665 9.12558 107.498 8.95814 107.33 8.7907C107.163 8.62325 106.66 8.20465 106.493 7.86977C106.995 7.78605 107.33 7.78605 107.833 7.78605C108.251 7.78605 109.088 7.78605 109.088 7.78605C109.34 7.86977 109.591 8.03721 109.591 8.28837C109.591 8.37209 109.507 8.95814 109.507 9.04186C109.423 9.62791 109.423 9.79535 109.34 10.6326C109.34 10.7163 109.34 10.8 109.34 10.8837C109.256 11.0512 108.837 11.1349 108.67 11.386C108.586 11.6372 108.586 11.8884 108.251 11.9721C108 12.0558 107.749 12.307 107.581 12.2233C107.33 11.9721 107.414 11.4698 107.581 11.2186ZM107.581 13.2279C107.581 13.2279 108 13.1442 108.251 13.1442C108.419 13.1442 108.67 13.1442 108.837 13.2279C108.753 13.3116 108.335 13.4791 108.335 13.4791C108.167 13.5628 108.084 13.6465 107.749 13.7302C107.749 13.6465 107.581 13.2279 107.581 13.2279ZM117.628 17.7488C117.879 18.0837 118.214 18.4186 118.465 18.6698C118.549 18.8372 118.884 18.8372 119.051 18.8372C119.553 18.8372 119.888 18.8372 119.972 18.8372C120.223 18.7535 120.474 18.7535 120.642 18.586C120.223 18.4186 119.805 18.2512 119.386 18C118.967 17.8326 118.716 17.6651 118.465 17.3302C118.298 17.3302 118.214 17.414 118.046 17.414C117.963 17.5814 117.879 17.6651 117.628 17.7488ZM121.898 20.9302C121.981 20.9302 122.4 20.9302 122.4 20.9302C122.567 20.9302 122.567 20.5953 122.4 20.5953C121.73 20.4279 121.144 20.2605 120.809 19.6744C120.726 19.7581 120.14 19.9256 119.972 20.1767C119.972 20.1767 120.14 20.6791 120.642 21.0977C120.809 21.2651 121.395 21.0977 121.898 20.9302ZM134.874 34.5767C134.791 34.8279 134.707 35.0791 134.456 35.2465C134.54 35.3302 134.707 35.3302 134.874 35.3302C135.042 35.3302 135.46 35.3302 135.795 35.3302C135.879 35.2465 135.879 34.9953 135.963 34.7442C135.963 34.5767 136.046 34.4093 136.046 34.0744C136.046 34.0744 135.879 34.0744 135.46 34.0744C135.209 34.0744 134.958 34.2419 134.874 34.5767ZM127.172 26.2884C127.088 26.1209 127.005 25.786 126.921 25.6186C126.921 25.5349 126.921 25.3674 126.837 25.0326C126.837 25.0326 126.167 25.5349 126.084 25.6186C126.502 26.1209 126.251 26.3721 126.335 26.707C126.335 26.8744 126.753 26.9581 126.837 27.293C126.837 27.3767 126.67 28.214 126.67 28.214C127.172 27.5442 127.172 26.6233 127.172 26.2884ZM132.195 31.3116C131.693 31.3116 131.107 31.8977 130.772 33.6558C130.688 34.3256 130.605 34.9116 130.688 35.2465L131.526 35.3302C131.693 35.0791 131.693 34.5767 131.944 34.2419C131.944 34.0744 132.112 34.0744 132.363 34.0744C132.53 34.1581 132.949 34.6605 133.116 34.8279C133.2 34.6605 133.367 34.2419 133.367 33.9907C133.367 33.907 133.116 33.7395 132.949 33.7395C132.698 33.5721 132.446 33.4046 132.112 33.4046C132.028 33.0698 132.614 32.5674 132.614 32.5674C133.284 32.5674 133.953 33.3209 133.953 33.3209C134.121 33.2372 134.205 32.986 134.456 32.7349C133.786 31.5628 132.781 31.3116 132.195 31.3116ZM124.493 24.6977C124.409 24.9488 124.074 25.2 124.074 25.5349C124.074 25.5349 124.577 26.0372 124.66 26.2884C124.744 26.4558 124.66 27.293 124.744 27.4605C124.995 27.2093 125.247 27.1256 125.247 26.707C125.163 26.6233 125.079 25.8698 124.995 25.2837C124.995 25.2 124.744 24.9488 124.493 24.6977ZM115.953 18C115.953 18 116.037 18.5023 116.205 18.9209C116.288 19.0884 116.456 19.2558 116.623 19.2558C116.791 19.3395 117.209 19.4233 117.46 19.4233C117.46 19.4233 117.46 19.3395 117.46 19.2558C117.209 19.0047 116.791 18.3349 116.791 18.1674C116.623 18.0837 116.623 18.0837 116.288 18.0837C116.205 18 116.037 18 115.953 18ZM120.558 22.186C120.391 22.0186 120.14 21.8512 119.888 21.6C119.47 21.5163 119.302 21.3488 119.135 20.9302C119.051 20.7628 118.967 20.5953 118.716 20.3442C118.549 20.3442 118.465 20.4279 118.214 20.5116C118.046 20.6791 117.628 20.6791 117.46 21.014C117.544 21.1814 117.628 21.3488 117.879 21.6C117.963 21.6837 118.046 21.8512 118.465 22.1023C119.135 22.4372 119.302 22.6046 119.302 22.6046C119.888 22.6884 120.558 22.186 120.558 22.186ZM101.302 8.70698C101.47 8.45581 101.47 8.45581 101.721 8.20465C102.14 7.95349 102.307 7.70232 102.809 7.36744C102.893 7.2 102.977 7.28372 103.312 7.11628C103.395 7.03256 103.479 6.94884 103.479 6.86512C103.479 6.69767 103.395 6.53023 103.312 6.27907C103.228 6.11163 103.06 5.6093 103.06 5.52558C103.06 4.77209 103.144 4.60465 103.228 3.93488C102.809 3.85116 102.391 3.85116 102.14 4.18605C101.972 4.43721 101.972 4.77209 101.972 5.02326C101.972 5.52558 102.056 5.86046 102.14 6.44651C101.721 6.69767 101.553 6.94884 101.219 7.11628C101.219 7.6186 101.302 8.70698 101.302 8.70698ZM115.953 20.9302C115.535 20.3442 115.451 19.8419 115.451 19.7581C115.284 19.5907 115.619 18.9209 115.2 18.9209C115.033 18.8372 114.446 18.6698 114.446 18.6698C114.363 18.9209 114.363 19.507 114.446 19.7581C114.446 20.0093 114.949 20.8465 115.116 20.9302C115.2 21.014 115.702 21.014 115.786 21.014C115.87 20.9302 115.953 20.9302 115.953 20.9302ZM112.94 17.4977C113.107 17.3302 113.358 16.9116 113.358 16.8279C113.526 16.493 113.526 15.9907 113.526 15.6558C112.772 15.1535 111.767 15.0698 110.846 15.0698C110.009 15.0698 109.005 15.1535 108.084 15.8233C108.167 16.1581 108.251 16.493 108.502 16.8279C108.586 16.8279 108.67 16.9953 108.753 16.9953C108.921 16.8279 109.172 16.493 109.423 16.4093C109.423 16.493 109.423 16.6605 109.423 16.7442C109.423 16.9953 109.423 17.2465 109.507 17.4977C109.507 17.7488 109.758 17.7488 110.177 17.7488C110.595 17.7488 110.679 17.0791 110.679 16.9953C110.679 16.9953 110.763 17.3302 111.349 17.6651C111.349 17.6651 112.019 17.6651 112.019 17.5814C112.102 17.0791 112.186 16.9953 112.102 16.6605C112.102 16.7442 112.688 17.0791 112.94 17.4977ZM116.707 23.5256C117.126 23.7767 117.879 23.693 118.549 23.6093C118.13 23.3581 118.046 23.107 117.879 22.9395C117.628 22.7721 117.377 22.6884 117.042 22.2698C116.623 22.2698 116.288 22.2698 115.786 22.2698C115.953 22.7721 116.037 23.0233 116.707 23.5256ZM122.316 26.9581C122.233 26.8744 122.065 26.7907 121.814 26.707C121.814 26.7907 121.814 26.8744 121.814 27.0419C121.814 27.3767 121.898 27.5442 121.898 27.7116C121.898 27.8791 122.149 29.2186 122.149 29.5535C122.651 29.6372 122.651 30.0558 122.902 30.2233C122.902 30.2233 122.735 29.1349 122.735 27.7116C122.819 27.6279 122.567 27.0419 122.316 26.9581ZM101.888 10.3814C101.972 10.2977 103.06 9.54419 103.144 9.46046C103.312 9.29302 103.395 9.37674 103.563 9.2093C103.563 8.62325 103.73 8.62326 103.646 8.45581C103.563 8.28837 102.809 8.45581 102.558 8.45581C102.056 8.53953 101.219 8.7907 101.219 9.04186C101.135 9.29302 101.135 9.96279 101.135 10.0465C101.219 10.2977 101.219 10.6326 101.302 10.8837C101.637 10.5488 101.721 10.4651 101.888 10.3814ZM112.94 19.1721C112.688 19.3395 112.437 19.4233 112.437 19.6744C112.437 20.0093 112.521 20.4279 112.521 20.5953C112.521 20.8465 112.521 21.0977 112.605 21.1814C112.856 21.2651 113.023 21.2651 113.358 21.4326C113.358 21.5163 113.777 21.6837 113.777 21.6837C113.777 21.6837 113.609 20.8465 113.526 20.4279C113.526 19.9256 113.526 19.507 113.526 18.9209C113.191 19.0047 113.023 19.1721 112.94 19.1721ZM111.767 19.3395C111.349 19.4233 110.595 19.507 110.595 19.8419C110.512 20.093 110.595 20.4279 110.595 20.5953C110.679 20.7628 110.679 20.9302 110.679 21.2651C110.679 21.4326 110.595 21.6 110.679 21.9349C110.763 21.7674 111.265 21.6 111.349 21.3488C111.516 21.0977 111.767 20.8465 111.851 20.5953C111.935 20.2605 111.851 19.7581 111.767 19.3395ZM115.451 24.4465C115.2 24.2791 114.698 23.693 114.363 23.4419C114.195 23.2744 114.279 22.9395 114.112 22.7721C113.944 22.7721 113.693 22.7721 113.526 22.8558C113.274 22.8558 113.023 22.8558 112.772 22.9395C112.856 23.107 112.856 23.2744 113.023 23.4419C113.442 23.7767 113.442 23.9442 113.777 24.4465C113.86 24.614 114.363 24.6977 114.698 24.6977C114.949 24.6977 115.367 24.5302 115.451 24.4465ZM100.633 13.8977C100.8 13.6465 101.386 13.0605 101.721 12.6419C101.888 12.4744 102.307 11.9721 103.228 11.5535C103.312 11.2186 103.395 10.8837 103.395 10.5488C102.474 10.8 101.805 11.0512 101.553 11.2186C101.051 11.4698 100.884 11.7209 100.381 11.9721C100.381 12.5581 100.381 12.5581 100.465 12.8093L100.633 13.8977ZM109.842 21.8512C110.093 21.6 109.842 21.0977 109.842 20.8465C109.758 20.5953 109.842 20.2605 109.758 20.0093C109.674 19.8419 109.507 19.7581 109.256 19.7581C109.088 19.7581 108.586 19.507 108.586 19.6744C108.084 19.6744 108.502 20.1767 108.502 20.4279C108.502 20.7628 109.423 21.7674 109.423 21.7674C109.591 21.7674 109.591 21.6837 109.842 21.8512ZM107.247 20.3442C107.33 20.0093 107.665 19.7581 107.665 19.1721C107.665 19.1721 107.581 18.6698 107.498 18.5023C107.414 18.3349 107.33 18.1674 106.995 17.9163C106.912 17.9163 106.744 17.7488 106.577 17.8326C106.577 17.8326 106.493 18.586 106.409 18.6698C106.577 18.9209 106.828 19.1721 106.912 19.4233C106.912 19.6744 107.079 20.093 107.247 20.3442ZM105.237 17.4977C105.153 17.3302 104.819 17.2465 104.651 17.1628C104.484 17.1628 104.233 17.4977 104.233 17.9163C104.233 18.0837 104.316 18.7535 104.4 19.0047C104.4 19.0884 104.567 19.1721 104.819 19.2558C105.07 19.4233 105.405 19.507 105.656 19.7581C105.656 19.7581 105.405 18.9209 105.237 18.4186C105.237 18.0837 105.405 17.7488 105.237 17.4977ZM113.693 27.5442C113.777 27.5442 113.86 27.3767 113.86 27.3767C113.777 27.0419 113.693 26.5395 113.609 26.1209C113.609 26.1209 113.358 25.9535 113.023 25.9535C112.856 25.9535 112.605 25.8698 112.437 25.9535C112.521 26.2046 112.521 26.4558 112.605 26.707C112.94 27.0419 113.358 27.293 113.693 27.5442ZM100.716 14.3163C100.716 14.3163 100.716 14.5674 100.716 14.8186C100.716 14.986 100.8 16.0744 100.8 16.3256C100.884 16.5767 100.884 16.9116 100.967 17.1628C101.051 17.3302 101.135 17.4977 101.135 17.7488C101.135 17.7488 101.302 17.6651 101.386 17.4977C101.637 17.2465 101.805 16.9116 101.972 16.5767C101.888 15.907 101.721 15.3209 101.721 15.1535C101.721 14.4 101.805 14.2326 101.888 13.7302C101.637 13.814 101.135 14.0651 100.716 14.3163ZM110.093 25.0326C110.344 24.9488 110.595 24.7814 110.846 24.6977C111.014 24.614 111.265 23.107 111.265 23.107C111.265 23.107 110.679 23.1907 110.595 23.2744C110.512 23.2744 110.093 23.2744 109.926 23.4419C109.926 23.693 109.926 24.0279 109.842 24.3628C109.674 24.614 109.172 24.8651 109.172 25.2837C109.172 25.2837 109.591 25.3674 109.674 25.3674C109.842 25.2837 110.009 25.1163 110.093 25.0326ZM120.391 34.3256C120.223 34.6605 119.972 35.0791 119.972 35.2465H121.06C121.312 34.9116 121.479 34.493 121.228 33.907C120.977 34.0744 120.391 33.8233 120.391 34.3256ZM121.228 30.0558C121.06 29.9721 119.219 29.1349 118.967 29.1349C118.381 29.2186 117.46 29.2186 116.874 29.4698C116.791 29.2186 116.707 28.7163 116.874 28.4651C116.958 28.2977 117.963 28.2977 118.214 28.2977C119.302 28.3814 119.805 28.5488 120.14 28.5488C120.391 28.8 120.726 28.8 120.809 28.8C120.809 28.8 120.726 28.214 120.642 28.0465C120.223 27.8791 119.888 27.7953 119.553 27.7116C119.051 27.5442 118.884 27.4605 118.13 27.3767C117.879 27.3767 117.879 27.4605 117.293 27.4605C117.293 27.3767 117.377 27.293 117.46 27.2093C117.628 26.9581 117.879 26.707 118.046 26.5395C118.716 26.5395 119.302 26.5395 119.553 26.5395C119.972 26.6233 120.14 26.707 120.642 26.8744C120.893 26.8744 120.642 26.3721 120.642 26.1209C120.558 26.0372 120.474 25.9535 120.223 25.8698C119.805 25.786 119.553 25.7023 119.135 25.5349C118.884 25.4512 118.298 25.2837 117.795 25.3674C117.293 25.5349 117.293 25.4512 116.958 25.6186C116.456 26.2884 116.205 27.0419 115.87 27.7953C115.87 27.9628 115.367 29.1349 115.367 29.3023C115.367 29.386 115.284 29.5535 115.284 29.5535C114.865 29.4698 113.191 29.2186 112.688 29.6372C112.521 29.8046 112.27 29.9721 112.019 30.5581C111.6 30.307 111.349 30.2233 110.93 30.2233C110.428 30.2233 109.842 30.4744 109.591 30.9767C109.591 31.0605 108.837 32.4837 108.921 33.7395C109.005 34.493 109.34 34.7442 109.674 35.3302H110.763C110.679 34.9953 110.512 34.493 110.26 33.907C110.177 33.4046 110.344 32.5674 110.428 31.8139C110.428 31.8139 110.679 31.6465 111.014 31.5628C111.181 31.3953 111.265 31.4791 111.6 31.4791C111.684 31.4791 111.684 31.5628 111.684 31.5628C111.265 31.8977 111.265 32.3163 111.181 32.9023C111.181 33.1535 111.6 34.5767 111.935 35.3302C112.102 35.3302 112.437 35.3302 112.688 35.3302C112.688 35.3302 112.521 33.4884 112.605 33.2372C112.605 32.9023 112.688 32.5674 112.772 32.3163C112.94 32.4 113.191 32.4 113.358 32.4837C113.609 32.6512 113.609 32.8186 113.609 33.1535C113.609 33.6558 113.609 33.7395 113.526 33.9907C113.526 34.2419 113.526 34.2419 113.526 34.493C113.526 34.9953 113.609 35.3302 113.609 35.3302C113.86 35.3302 114.112 35.3302 114.363 35.3302C114.363 34.493 114.446 34.5767 114.53 34.0744C114.614 33.7395 114.53 33.4884 114.614 33.2372C114.614 33.0698 114.698 32.9023 114.781 32.7349C115.033 32.5674 115.284 32.5674 115.619 32.6512C115.619 32.9023 115.619 33.2372 115.535 33.4884C115.451 33.9907 115.367 34.4093 115.116 34.9116C115.116 34.9953 115.033 35.1628 114.949 35.2465H116.121C116.121 35.2465 116.288 34.9116 116.372 34.4093C116.623 34.6605 117.042 34.493 117.209 34.493C117.46 34.4093 117.712 34.1581 117.879 33.907C117.46 33.6558 116.623 33.7395 116.623 33.3209C116.456 32.6512 116.623 32.5674 116.623 32.2326C116.623 31.6465 116.037 31.4791 115.451 31.3953C115.284 31.3116 114.865 31.3116 114.698 31.3116C114.53 31.3953 114.279 31.6465 114.112 31.6465C114.112 31.6465 113.693 31.3953 113.442 31.3116C113.274 31.3116 112.688 31.1442 112.688 31.1442C112.772 30.9767 112.856 30.8093 112.94 30.6419C113.023 30.5581 113.358 30.307 113.442 30.307C113.609 30.2233 113.944 30.307 114.112 30.3907C114.614 30.4744 114.949 30.5581 115.033 30.5581C115.116 30.5581 115.451 30.7256 115.451 30.7256C115.702 30.5581 115.702 30.3907 115.953 30.3907C116.54 30.2233 116.707 30.1395 117.293 30.1395C117.795 30.1395 118.13 30.9767 118.465 31.2279C118.549 31.3953 119.219 32.2326 119.637 32.986C119.805 32.9023 119.888 32.7349 120.14 32.7349C120.14 32.5674 120.056 31.814 119.972 31.7302C119.721 30.893 119.135 30.7256 119.135 30.4744C119.302 30.4744 119.721 30.6419 119.888 30.6419C120.056 30.7256 120.391 30.8093 120.642 30.9767C120.726 31.0605 120.893 31.1442 121.06 31.2279C121.144 31.5628 121.144 31.8977 121.312 32.2326C121.312 32.3163 121.312 32.4 121.395 32.4837C121.646 31.8977 121.981 31.8139 122.149 31.3953C122.149 30.7256 121.646 30.307 121.228 30.0558ZM109.088 22.6884C109.088 22.6046 108.837 22.6046 108.586 22.6046C108.419 22.6046 108.167 22.6884 108 22.6884C107.833 22.9395 107.749 23.2744 107.581 23.6093C107.498 23.8605 107.33 24.1116 107.163 24.2791C107.163 24.2791 108 24.1116 108.251 24.1116C108.502 23.9442 108.753 23.8605 108.921 23.4419C109.088 23.1907 109.172 23.0233 109.088 22.6884ZM101.637 19.4233C101.637 19.4233 101.888 19.2558 101.888 19.0884C102.391 18.5023 102.977 18.0837 103.06 18C102.893 17.4977 102.809 17.414 102.474 17.1628C102.391 17.2465 101.888 17.4977 101.805 17.7488C101.637 17.8326 101.386 17.9163 101.302 18C101.302 18.1674 101.386 18.2512 101.47 18.5023C101.47 18.586 101.637 19.0047 101.637 19.4233ZM111.516 28.2977C111.433 28.214 111.433 28.0465 111.349 27.7953C111.181 27.2093 111.265 26.9581 111.181 26.3721C111.181 26.3721 110.595 26.3721 110.428 26.3721C110.26 26.4558 110.177 26.3721 109.926 26.4558C109.926 26.7907 110.009 27.1256 110.344 27.5442C110.595 28.214 111.516 28.2977 111.516 28.2977ZM106.409 21.4326C106.242 21.4326 106.158 21.4326 105.823 21.4326C105.823 21.4326 105.656 22.186 105.656 22.7721C105.572 23.0233 105.488 23.2744 105.488 23.3581C105.321 23.693 105.237 23.8605 104.986 24.2791C105.237 24.3628 105.572 24.1953 105.74 24.1953C105.907 24.1116 106.242 24.0279 106.326 23.9442C106.409 23.8605 106.744 23.1907 106.828 23.0233C106.828 22.7721 106.828 22.4372 106.828 22.3535C106.744 22.186 106.828 21.7674 106.828 21.5163C106.66 21.2651 106.493 21.3488 106.409 21.4326ZM102.726 21.014C102.893 20.7628 103.479 20.1767 103.646 20.0093C103.479 19.8419 103.395 19.507 103.228 19.3395C102.809 19.3395 101.386 19.9256 101.386 19.9256C101.637 20.4279 101.888 20.8465 102.056 21.4326C102.391 21.2651 102.558 21.1814 102.726 21.014ZM103.898 23.1907C103.981 22.9395 103.898 22.6884 103.981 22.4372C103.981 22.2698 103.981 21.7674 104.065 21.5163C103.898 21.4326 103.479 21.6 103.228 21.6C102.977 21.6 102.307 21.6 102.307 21.6837C102.391 21.8512 102.391 22.0186 102.474 22.2698C102.558 22.4372 102.642 22.6046 102.642 23.107C102.642 23.3581 102.726 23.693 102.642 24.0279C102.642 24.0279 103.898 23.3581 103.898 23.1907ZM106.074 25.786C105.572 25.4512 104.819 25.0326 103.646 24.6977C103.395 24.614 102.726 24.6977 102.391 24.6977C101.637 26.0372 101.302 27.2093 100.8 28.6326C100.716 28.8837 100.549 29.4698 100.549 29.4698C100.046 29.2186 99.6279 28.9674 99.1256 28.9674C98.3721 28.9674 97.786 29.2186 97.5349 29.9721C97.2837 29.8884 96.8651 29.7209 96.3628 29.8046C95.693 29.8884 95.107 30.307 94.8558 30.8093C94.6046 31.1442 94.4372 31.5628 94.6046 31.8977C94.1023 32.0651 93.8511 32.5674 93.6837 32.9023C93.5163 33.6558 94.186 34.9953 94.4372 35.2465H95.3581C95.1907 34.4093 94.7721 33.9907 95.107 33.1535C95.2744 32.6512 95.9442 32.4837 96.1953 32.4C96.1953 32.0651 95.693 31.7302 95.7767 31.3953C95.9442 30.893 96.5302 30.893 97.1163 31.0605C97.0325 31.6465 96.9488 32.4 96.8651 33.1535C96.7814 33.9907 97.2837 35.3302 97.2837 35.3302C97.7023 35.3302 97.9535 35.3302 98.2046 35.3302C98.2884 35.3302 98.2884 35.3302 98.2884 35.3302C98.2046 35.0791 98.1209 34.7442 98.1209 34.493C98.0372 34.2419 98.0372 33.9907 98.0372 33.7395C98.1209 33.4046 98.1209 32.986 98.1209 32.7349C99.0418 32.2326 98.7907 32.9023 98.9581 33.0698C98.9581 33.0698 99.3767 32.2326 98.8744 31.8977C98.7907 31.8139 98.2046 31.8977 98.2046 31.8139C98.2046 31.7302 98.2884 31.4791 98.3721 31.1442C98.5395 30.8093 98.6232 30.6419 98.8744 30.3907C98.9581 30.307 99.293 30.307 99.6279 30.3907C99.7116 30.3907 100.214 30.4744 100.465 30.5581C100.381 30.8093 99.9628 31.3953 99.8791 31.6465C99.4605 32.7349 99.4604 34.0744 99.6279 35.2465C99.6279 35.2465 100.214 35.2465 100.716 35.2465C100.716 34.5767 100.633 33.8232 100.716 33.1535C100.884 32.3163 101.219 32.2326 101.302 32.2326C101.47 32.2326 101.721 32.4 101.805 32.5674C101.972 33.4884 101.386 34.3256 101.386 35.1628C101.637 35.1628 102.14 35.1628 102.14 35.1628C102.14 35.1628 102.391 35.0791 102.558 34.8279C102.726 34.2419 103.144 33.7395 103.228 33.1535C103.312 32.6512 103.144 32.3163 102.809 31.7302C102.558 31.3953 102.223 31.0605 101.553 30.6419C101.386 30.307 101.553 29.8046 101.553 29.8046C101.553 29.8884 101.972 29.7209 102.14 29.7209C102.893 29.8884 103.06 29.8884 103.479 30.0558C103.73 30.1395 104.149 30.307 104.4 30.5581C104.651 30.7256 104.986 31.3116 105.237 31.9814C105.237 31.9814 105.405 30.8093 105.405 30.3907C104.986 30.0558 104.651 29.6372 104.065 29.386C103.563 29.0512 102.558 28.7163 102.056 28.5488C102.056 28.5488 102.223 28.2977 102.223 28.0465C102.809 27.9628 103.479 27.9628 103.73 28.0465C104.651 28.2977 105.823 28.8837 106.326 29.3023C106.326 29.3023 106.493 28.9674 106.493 28.7163C106.493 28.7163 105.153 27.8791 105.237 27.6279C104.819 27.3767 104.567 27.0419 104.149 26.9581C103.563 26.8744 102.391 26.7907 102.391 26.7907C102.391 26.7907 102.642 26.4558 102.977 26.1209C103.228 26.1209 103.479 26.1209 103.73 26.1209C104.149 26.1209 105.07 26.3721 105.656 26.707C106.493 27.0419 106.995 27.3767 107.079 27.5442C107.163 27.293 107.246 26.8744 107.33 26.707C106.409 26.2884 106.493 25.9535 106.074 25.786ZM104.4 33.4046C103.73 33.4046 103.898 34.4093 103.73 34.9116C103.646 34.9953 103.563 35.1628 103.646 35.2465C104.233 35.2465 104.484 35.2465 105.07 35.2465C105.07 35.2465 105.153 34.4093 105.153 34.2419C105.07 34.0744 104.735 33.5721 104.4 33.4046Z" fill="#1F304C"/>
</g>
<defs>
<clipPath id="clip0">
<rect width="150.112" height="36" fill="white"/>
</clipPath>
</defs>
</svg>
