<svg fill="none" height="34" viewBox="0 0 170 34" width="170" xmlns="http://www.w3.org/2000/svg"><path clip-rule="evenodd" d="m42.5287 6.08434c.3237-.00578.6454.05372.9456.17497.3003.12124.573.30173.802.5307s.4095.50172.5307.80198.1807.62187.175.94563c.0034.31823-.0586.63377-.1821.92708-.1234.29331-.3058.5582-.5358.7781-.23.22-.5027.3904-.8012.5008-.2985.1103-.6165.1582-.9342.1406-.3098.0058-.6175-.0509-.9048-.1668-.2874-.1159-.5484-.2885-.7674-.5076-.2191-.21904-.3917-.48004-.5076-.76736s-.1726-.59506-.1668-.90482c-.0085-.31555.0456-.62965.1592-.92417s.2844-.56361.5026-.79172.4794-.41072.7686-.53729.6006-.19458.9162-.2001zm-19.1996-5.866543c1.7066.426658 3.4132 1.599963 3.6266 3.413263.32 3.19993-5.3332 8.21314-6.6132 7.89314s-3.7333-7.46648-1.8133-10.13309c.96-1.493306 3.0933-1.59997 4.7999-1.173313zm4.4799 8.639823h.2133c.5731.12899 1.0979.41797 1.5133.83336.4154.41542.7043.94012.8333 1.51322l.1067.2134c.32 1.1733.2133 2.7732-.7466 3.4132-1.92 1.3867-6.9332-.32-7.2532-1.2799-.32-.96 2.9866-4.58662 5.3332-4.69328zm73.278 6.82648h-.533c-2.4531.2134-4.1598 2.24-4.1598 5.0133-.075 1.0273.1861 2.0512.7441 2.9171.5581.8659 1.3826 1.5267 2.3492 1.8828.4527.123.9175.1945 1.3865.2133h.427c.469-.0188.934-.0903 1.386-.2133.954-.3746 1.766-1.0396 2.321-1.901.556-.8614.826-1.8755.773-2.8989.07-1.1741-.293-2.3331-1.02-3.2573-.728-.9241-1.769-1.549-2.927-1.756zm35.52 0h-.534c-2.453.2134-4.16 2.24-4.16 5.0133-.075 1.0273.187 2.0512.745 2.9171s1.382 1.5267 2.349 1.8828c.452.123.918.1945 1.386.2133h.427c.469-.0188.934-.0903 1.387-.2133.954-.3746 1.766-1.0396 2.321-1.901s.825-1.8755.772-2.8989c.071-1.1741-.292-2.3331-1.02-3.2573-.727-.9241-1.769-1.549-2.927-1.756zm18.986-3.7332c.857.009 1.713.0803 2.56.2133.308.0755.575.2664.747.5333.093.1191.153.2615.172.4118.018.1504-.004.3031-.066.4416-.106.3199-.106.6399-.213 1.0666-.1.3736-.323.7027-.632.9348-.31.232-.688.3536-1.075.3452h-.32c-.385-.0838-.779-.1197-1.173-.1067-.491-.0028-.978.0918-1.432.2784s-.867.4615-1.214.8087c-.347.3473-.622.7599-.809 1.2142-.186.4542-.281.9409-.278 1.432v8.3198c-.014.3006-.125.5886-.318.8198-.192.2312-.456.3928-.749.4602h-1.493c-.301-.0134-.589-.125-.82-.3176-.231-.1927-.393-.4558-.46-.7491v-8.5331c0-1.9803.786-3.8794 2.187-5.2797 1.4-1.4002 3.299-2.1869 5.279-2.1869 0-.1066 0-.1066.107-.1066zm-100.2646 0c1.9894-.0523 3.9198.6784 5.376 2.0348s2.3218 3.2303 2.4105 5.2184v8.5331c-.0133.3007-.1249.5886-.3175.8198-.1927.2312-.4558.3928-.7491.4602h-1.4933c-.3007-.0134-.5886-.1249-.8198-.3176-.2312-.1926-.3928-.4558-.4602-.749v-7.8932c0-2.56-1.6-4.2666-3.8399-4.2666-2.24 0-3.7333 1.6-3.8399 4.0533v7.9998c-.0134.3006-.125.5886-.3176.8198-.1927.2312-.4558.3928-.7491.4602h-1.4933c-.3006-.0134-.5886-.125-.8198-.3176-.2312-.1927-.3928-.4558-.4602-.7491v-8.4265c-.0381-1.0097.1309-2.0165.4966-2.9585.3657-.9419.9204-1.7991 1.6298-2.5185.7095-.7195 1.5588-1.2861 2.4955-1.6649.9368-.3789 1.9412-.5619 2.9513-.5379zm-12.0531.2133c.3007.0134.5886.1249.8198.3176.2312.1926.3929.4558.4602.7491v14.5063c-.0134.3007-.1249.5886-.3176.8198-.1926.2312-.4557.3928-.749.4602h-1.4933c-.3007-.0134-.5886-.1249-.8198-.3176-.2312-.1926-.3929-.4558-.4602-.749v-14.6131c.0133-.3006.1249-.5886.3176-.8198.1926-.2311.4557-.3928.749-.4602h1.4933zm120.6377-5.01321c.3.01336.588.12491.82.31756.231.19265.392.45578.46.74908v3.83987h3.413c.301.0134.589.125.82.3176.231.1927.393.4558.46.7491v1.28c-.013.3006-.125.5886-.318.8198-.192.2311-.455.3928-.749.4601h-3.52v6.5066c.006.9035.367 1.7684 1.006 2.4073s1.504 1.0003 2.408 1.0059c.3.0134.588.1249.819.3176.232.1926.393.4558.461.7491v1.0666c-.009.3955-.16.7746-.427 1.0667-.124.1314-.272.2369-.437.3101-.165.0733-.343.1129-.523.1165h-.107c-1.884-.0355-3.681-.7999-5.014-2.1325-1.332-1.3326-2.097-3.1297-2.132-5.014v-13.65304c.013-.30064.125-.5886.317-.81979.193-.23118.456-.39283.749-.46018zm-79.1452 0c.3006.01336.5886.12491.8198.31756s.3928.45578.4602.74908v3.83987h3.4132c.3007.0134.5886.125.8198.3176.2312.1927.3929.4558.4602.7491v1.28c-.0134.3006-.1249.5886-.3176.8198-.1926.2311-.4557.3928-.749.4601h-3.52v6.5066c.0056.9035.367 1.7684 1.0059 2.4073s1.5039 1.0003 2.4074 1.0059c.3006.0134.5886.1249.8198.3176.2312.1926.3928.4558.4602.7491v1.0666c-.0083.3955-.1599.7746-.4267 1.0667-.1235.1314-.2721.2369-.4369.3101-.1649.0733-.3427.1129-.5231.1165h-.1066c-1.8843-.0355-3.6815-.7999-5.0141-2.1325s-2.0969-3.1297-2.1324-5.014v-13.65304c.0133-.30064.1249-.5886.3175-.81979.1927-.23118.4558-.39283.7491-.46018zm-12.0531 4.79991c1.7625.024 3.489.5015 5.0133 1.3866.1939.0854.3683.2098.5122.3654.1438.1556.2542.3391.3242.5392.07.2.0982.4123.0827.6237-.0154.2113-.0741.4173-.1725.605v.1067l-.1067.2133c-.1386.2491-.339.4584-.5818.6078-.2428.1495-.5199.234-.8048.2455-.1848.0278-.3735-.0099-.5333-.1066l-.1067-.1067-.2133-.1067c-.9993-.6035-2.1395-.9345-3.3066-.96-1.8133 0-2.9866.64-2.9866 1.7067 0 .8533.8533 1.3866 2.2399 1.7066h.2134l1.7066.2133c3.8399.5334 5.7599 2.1333 5.7599 4.9066 0 3.4133-2.7733 5.4399-7.2532 5.4399-2.1348-.0688-4.2211-.6544-6.0799-1.7066-.1906-.0908-.3575-.2249-.4871-.3915-.1296-.1667-.2185-.3614-.2595-.5685-.0615-.1928-.0838-.396-.0655-.5975.0184-.2015.0769-.3973.1721-.5758l.1067-.1067.1067-.1067c.1606-.2201.3686-.4014.6085-.5307.24-.1292.5059-.203.7781-.2159.2967.0071.5882.0799.8533.2133 1.3277.7725 2.8372 1.1774 4.3733 1.1733 2.7732 0 3.1999-1.0666 3.1999-1.8133 0-.7466-.7467-1.2799-2.4533-1.5999h-.2133l-1.7067-.2134c-3.8399-.4266-5.7598-2.1333-5.7598-4.9065 0-3.3066 2.7732-5.4399 7.0398-5.4399zm28.4793 0c1.572-.018 3.119.3873 4.48 1.1733l.32.2133c1.179.7571 2.149 1.7987 2.82 3.0289.671 1.2303 1.022 2.6096 1.02 4.011v7.3598c-.013.3007-.125.5886-.318.8198-.192.2312-.455.3928-.749.4602h-1.493c-.301-.0134-.589-.1249-.82-.3176-.231-.1926-.393-.4558-.46-.749v-.7467c-.611.7291-1.38 1.3097-2.248 1.6977-.869.3881-1.814.5735-2.765.5423-1.4691.0041-2.9099-.4023-4.1601-1.1734-1.3117-.7701-2.3907-1.8805-3.123-3.2136-.7323-1.3332-1.0906-2.8395-1.0369-4.3595-.0544-1.4165.2495-2.8237.8834-4.0916.6339-1.2678 1.5774-2.3552 2.7432-3.1616l.2133-.1067c1.3101-.8394 2.8188-1.3177 4.3731-1.3866zm35.519 0c1.572-.018 3.119.3873 4.48 1.1733l.32.2133c1.18.7571 2.149 1.7987 2.82 3.0289.671 1.2303 1.022 2.6096 1.02 4.011v7.3598c-.013.3007-.125.5886-.317.8198-.193.2312-.456.3928-.749.4602h-1.494c-.3-.0134-.588-.1249-.82-.3176-.231-.1926-.392-.4558-.46-.749v-.7467c-.611.7291-1.38 1.3097-2.248 1.6977-.869.3881-1.814.5735-2.765.5423-1.469.0041-2.91-.4023-4.16-1.1734-1.311-.7701-2.391-1.8805-3.123-3.2136-.732-1.3332-1.09-2.8395-1.037-4.3595-.054-1.4165.25-2.8237.884-4.0916.634-1.2678 1.577-2.3552 2.743-3.1616l.213-.1067c1.31-.8394 2.819-1.3177 4.373-1.3866zm-15.893 0c1.675-.0651 3.324.4221 4.694 1.3866.433.3057.738.7621.853 1.28.037.2483.018.5019-.055.7419-.074.24-.201.4604-.372.6447l-.106.1067-.107.1067c-.256.309-.624.5047-1.023.5446-.399.04-.798-.0791-1.11-.3313-.828-.5353-1.788-.8307-2.774-.8533-2.666 0-4.586 2.1333-4.586 5.0132s1.92 5.0132 4.586 5.0132c1.017-.0345 2.009-.3282 2.88-.8533.281-.2006.615-.3122.96-.32.424.0282.831.1761 1.174.4267l.106.1066.107.1067c.172.2051.298.4441.372.7013.073.2573.092.5271.055.792-.036.2643-.131.517-.279.7388-.148.2219-.344.407-.575.5412-1.431.9179-3.099 1.3997-4.8 1.3866-1.161.0482-2.32-.145-3.403-.5675s-2.067-1.0651-2.889-1.8871-1.464-1.8055-1.887-2.8885c-.422-1.083-.615-2.2419-.567-3.4034 0-4.9065 3.52-8.5331 8.746-8.5331zm-100.3709 1.7066c2.0267 2.0266 3.6266 5.3332 2.6667 7.2532-2.56 5.2266-21.33293 14.5064-22.932896 12.9064-1.599964-1.6 7.679836-20.3729 12.906396-22.9329 2.0266-.95994 5.3332.7467 7.3598 2.7733z" fill="#1f304c" fill-rule="evenodd"/></svg>