<svg fill="none" height="36" viewBox="0 0 125 36" width="125" xmlns="http://www.w3.org/2000/svg" xmlns:xlink="http://www.w3.org/1999/xlink"><clipPath id="a"><path d="m0 0h124.2v36h-124.2z"/></clipPath><g clip-path="url(#a)"><path d="m26.73 9.98961c-2.97 0-5.94 1.07999-8.28 2.96999l-.09-1.35c-.09-.72-.54-.99-1.26-.99h-3.33c-.9 0-1.26.45-1.26 1.26v22.32c0 .81.45 1.26 1.26 1.26h3.69c.9 0 1.26-.36 1.26-1.26v-16.2c1.62-1.35 4.05-2.43 6.03-2.43 3.15 0 3.87 1.98 3.87 4.77v13.86c0 .9.27 1.35 1.26 1.35h3.69c.9 0 1.26-.45 1.26-1.35v-15.03c-.09-5.67-2.43-9.17999-8.1-9.17999zm-21.51.62999h-4.32c-.63 0-.9.45-.9.99v22.5c0 .9.45 1.26 1.35 1.26h3.6c.9 0 1.26-.36 1.26-1.26v-22.5c0-.63-.36-.99-.99-.99zm42.75-3.23999c2.07 0 3.69-1.71 3.69-3.68999 0-2.07-1.71-3.69000488-3.69-3.69000488-2.07-.09000002-3.78 1.62000488-3.78 3.60000488s1.71 3.77999 3.78 3.77999zm9.09 3.23999h-18.18c-.63 0-.99.18-.99.9v3.6c0 .63.45.99.99.99h5.94v18c0 .9.45 1.26 1.35 1.26h3.51c.9 0 1.35-.36 1.35-1.26v-18h5.94c.63 0 .99-.36.99-.99v-3.6c.09-.72-.27-.9-.9-.9zm54.18-3.23999c2.07 0 3.69-1.71 3.69-3.68999 0-2.07-1.71-3.69000488-3.69-3.69000488-2.07 0-3.69 1.70999488-3.69 3.69000488 0 1.97999 1.62 3.68999 3.69 3.68999zm10.71 24.83999c-.9 0-1.62.72-1.62 1.62 0 .99.72 1.62 1.62 1.62s1.62-.72 1.62-1.62-.72-1.62-1.62-1.62zm0 3.06c-.81 0-1.35-.63-1.35-1.44s.63-1.44 1.35-1.44 1.35.63 1.35 1.44c0 .9-.63 1.44-1.35 1.44zm-.72-20.25v-3.6c0-.63-.36-.9-.99-.9h-18.09c-.63 0-.99.18-.99.9v3.6c0 .63.45.99.99.99h5.85v18c0 .9.45 1.26 1.35 1.26h3.51c.9 0 1.35-.36 1.35-1.26v-18h5.94c.72 0 1.08-.36 1.08-.99zm1.44 18.45c0-.36-.18-.54-.72-.54h-.72v1.89h.27v-.81h.36l.54.81h.36l-.54-.81c.27 0 .45-.18.45-.54zm-.81.27h-.27v-.63h.36c.18 0 .45 0 .45.27 0 .36-.27.36-.54.36zm-25.92-23.13h-4.32c-.63 0-.9.45-.9.99v22.5c0 .9.45 1.26 1.35 1.26h3.6c.9 0 1.26-.36 1.26-1.26v-22.5c0-.63-.36-.99-.99-.99zm-12.96 0h-3.6c-.81 0-1.26.27-1.26 1.17v16.29c-1.53 1.35-3.96 2.43-5.94 2.43-3.06 0-3.78-1.89-3.78-4.77v-13.95c0-.9-.45-1.17-1.26-1.17h-3.6c-.81 0-1.35.27-1.35 1.17v15.03c.09 5.58 2.43 9.18 8.19 9.18 2.97 0 5.76-.99 8.1-2.88l.09 1.26c.09.63.54.99 1.26.99h3.15c.99 0 1.35-.36 1.35-1.44v-22.14c0-.99-.45-1.17-1.35-1.17z" fill="#1f304c"/></g></svg>