<svg fill="none" height="44" viewBox="0 0 184 44" width="184" xmlns="http://www.w3.org/2000/svg" xmlns:xlink="http://www.w3.org/1999/xlink"><clipPath id="a"><path d="m0 0h183.333v44h-183.333z"/></clipPath><g clip-path="url(#a)"><path d="m91.124 19.5433h-15.4v16.8227h5.412v-12.4667h7.3333c.1442-.0265.2926-.0187.4332.0229s.2693.1158.3758.2166c.1065.1007.1877.2252.237.3633s.0653.2858.0467.4312v11.4327h5.4413v-12.7747c.0074-4.4366-3.8793-4.048-3.8793-4.048zm-85.69733 11.0074v-13.816h-5.42667v16.522s.0660001 3.102 4.01867 3.102h3.982v-4.6494h-1.40067c-.15896.0278-.32227.0172-.4763-.0309-.15402-.0482-.2943-.1325-.40913-.2459-.11483-.1133-.20087-.2526-.25095-.406s-.06275-.3165-.03695-.4758zm56.81863-11.242h-9.5333c-3.3073 0-3.102 2.4933-3.102 2.4933v10.4647c-.0428.5342.028 1.0714.2076 1.5763s.4641.9661.8346 1.3533c.3706.3872.8189.6916 1.3154.8932.4966.2016 1.0302.2958 1.5657.2765h13.9334v-19.5873h-5.2214v2.5226zm0 12.6426h-5.9326c-.3353.0119-.6617-.1095-.9077-.3376-.246-.2282-.3916-.5445-.405-.8797v-7.1133h5.8667c.3266-.0102.6454.1012.8946.3125.2493.2113.4113.5076.4547.8315v7.1866zm6.7394-12.5033h5.2066v16.9107h-5.2066zm-24.8087.0953h-15.4587v16.8667h5.4267v-12.4667h7.3773c.1442-.0265.2926-.0187.4332.0229s.2693.1158.3758.2166c.1065.1007.1877.2252.237.3633s.0653.2858.0467.4312v11.418h5.4487v-12.7966c.0073-4.444-3.8867-4.0554-3.8867-4.0554zm-21.5453 6.688h-7.4507v3.5274h8.382c4.048 0 3.8353-2.97 3.8353-2.97v-3.058c0-4.2974-4.0993-4.2094-4.0993-4.2094h-10.01c-.55-.0145-1.097.086-1.606.295-.5089.2091-.9686.5221-1.3497.919-.38099.3969-.67497.869-.86307 1.386-.18809.5171-.26617 1.0677-.22923 1.6167v8.4407c-.03494.5509.0455 1.1031.23617 1.6213.19068.5181.48739.9907.87113 1.3876.3838.3968.8462.7093 1.3576.9172.5114.208 1.0606.307 1.6124.2905h13.6987v-4.5833h-11.7333c-.1506.0316-.3063.0293-.4558-.0069-.1496-.0362-.2891-.1052-.4086-.2022-.1194-.097-.2157-.2194-.2819-.3583-.0661-.1389-.1004-.2908-.1004-.4446v-5.6613c.0019-.1541.0373-.3058.1037-.4448s.1622-.262.2807-.3603c.1186-.0983.2571-.1697.406-.2093.1488-.0395.3045-.0462.4563-.0196h6.116c.1512-.0254.306-.0178.454.0223.148.04.2856.1116.4033.2098s.2128.2208.2787.3592c.066.1384.1012.2894.1033.4427v1.0926zm99.1763 4.8327v-7.634h3.021v-4.488h-3.146v-2.288h-5.669v15.3413c0 3.916 4.166 4.3267 4.166 4.3267h4.693v-4.6127h-2.075c-.108.0257-.22.0293-.329.0104-.108-.0189-.212-.0598-.305-.1201-.093-.0604-.172-.1391-.233-.2311-.062-.0921-.103-.1957-.123-.3045zm4.128-8.8807v14.146h5.508v-11.3153c-.028-.1555-.019-.3151.025-.4668.044-.1516.122-.2912.228-.408s.238-.2077.384-.2658c.147-.0581.305-.0819.463-.0694h4.876v-4.8767h-7.392c-.965-.0635-1.918.2349-2.675.8369-.757.6021-1.262 1.4646-1.417 2.4191zm26.334 3.652h-7.663v3.6227h8.617c4.15 0 3.945-3.0507 3.945-3.0507v-3.146c0-4.4-4.209-4.3266-4.209-4.3266h-10.267c-.565-.0146-1.127.089-1.65.304s-.995.5368-1.386.9447c-.392.4079-.693.893-.887 1.4243-.193.5312-.273 1.097-.235 1.661v8.6753c0 4.4 4.187 4.3267 4.187 4.3267h14.073v-4.7374h-12.1c-1.32 0-1.261-1.034-1.261-1.034v-5.786c.001-.1575.036-.3129.103-.4554.067-.1426.164-.2688.285-.37.121-.1011.262-.1748.414-.2159s.311-.0486.466-.022h6.285c.156-.0265.315-.019.468.0221.152.041.294.1146.415.2157.121.101.219.2271.287.3696.068.1426.104.2981.106.4559v1.122zm19.778 0h-7.656v3.6227h8.617c4.158 0 3.938-3.0507 3.938-3.0507v-3.146c0-4.4-4.209-4.3266-4.209-4.3266h-10.267c-.564-.0135-1.126.0908-1.648.3063-.521.2154-.993.5374-1.383.9452-.391.4078-.692.8925-.885 1.4232-.193.5308-.273 1.0959-.235 1.6593v8.6753c-.036.5651.047 1.1314.242 1.6628.195.5315.5 1.0163.893 1.4235s.867.7278 1.392.9414c.524.2136 1.087.3154 1.653.299h14.073v-4.7374h-12.093c-.153.0304-.31.0264-.462-.0115-.151-.0379-.292-.1088-.412-.2076-.121-.0989-.218-.2232-.285-.3641s-.102-.2948-.102-.4508v-5.786c.001-.1582.036-.3144.104-.4575.067-.1432.165-.2698.286-.3711.122-.1013.264-.1748.417-.2154.153-.0405.313-.0471.469-.0193h6.277c.156-.0265.315-.019.468.0221.152.041.294.1146.415.2157.122.101.219.2271.287.3696.068.1426.104.2981.106.4559zm-61.211-6.2553h-10.67c-4.136 0-3.762 3.102-3.762 3.102v10.164s.066 3.168 3.828 3.168h9.203v2.2807c.014.168-.01.3369-.068.4951-.058.1581-.15.3018-.27.421-.119.1192-.262.2111-.421.2694-.158.0584-.327.0817-.495.0685h-6.805v-.8067h-4.9793v2.1413s-.264 3.1167 3.7913 3.1167h10.648c4.136 0 3.762-3.0947 3.762-3.0947v-18.2306s.367-3.0947-3.762-3.0947zm-8.067 12.1367c-.166.0173-.334-.0002-.493-.0514-.159-.0513-.306-.1351-.431-.2462s-.225-.247-.294-.3991c-.07-.152-.107-.3169-.109-.484v-6.71h6.769c.167-.012.336.0122.493.071.158.0588.301.1508.42.2697s.211.262.27.4196c.058.1576.083.3259.071.4937v6.6h-6.725zm38.141-20.2327v-11.484h-11.601c-5.134 0-5.31 5.28-5.31 5.28v11.4547h11.565c5.925 0 5.346-5.2507 5.346-5.2507zm39.49 8.58c-.161-.0638-.328-.1129-.499-.1467-.161-.0215-.316-.0764-.454-.1613l-.088-.198.124-.242c.118-.0742.257-.1077.396-.0953.141-.0098.281.029.396.11.046.0406.084.0901.11.1455.027.0555.042.1157.044.1771h.286l-.11-.3593-.293-.242c-.142-.0565-.294-.084-.447-.0807-.141.0002-.281.0276-.411.0807l-.286.2273-.095.3227.08.2787.242.2126c.138.0658.283.1151.433.1467l.403.11.169.1027.066.1833-.066.198-.191.1393-.3.0514-.345-.066-.227-.176-.081-.2494h-.279c.001.1438.045.284.125.4034l.323.2713c.163.0624.338.0923.513.088.149.0013.296-.0287.433-.088l.3-.2493.103-.3374-.095-.3226zm2.53-1.0707-.543 1.54c-.058.1614-.095.2787-.117.3594l-.11-.3374-.535-1.5986h-.448v2.31h.294v-1.936l.645 1.936h.271l.66-1.892v1.892h.286v-2.2734z" fill="#1f304c"/></g></svg>