<svg fill="none" height="30" viewBox="0 0 142 30" width="142" xmlns="http://www.w3.org/2000/svg" xmlns:xlink="http://www.w3.org/1999/xlink"><clipPath id="a"><path d="m0 0h141.509v30h-141.509z"/></clipPath><g clip-path="url(#a)" fill="#1f304c"><path d="m140.287 26.5019c0-.5661-.425-.6906-.895-.6906h-1.092v2.6038h.379v-1.2h.481l.651 1.2h.431l-.657-1.2c.095.006.19-.0085.278-.0424.089-.0339.169-.0864.236-.154.066-.0677.117-.1488.15-.238.032-.0891.045-.1842.038-.2788zm-1.211.3339h-.397v-.6452h.646c.311 0 .566 0 .566.3509s-.465.2943-.815.2943z"/><path d="m139.189 24.7868c-.458.0011-.905.1378-1.285.3929s-.676.617-.85 1.0402c-.175.4231-.22.8884-.13 1.3371s.311.8607.635 1.1839.737.5431 1.186.632.914.0427 1.337-.1327c.422-.1754.784-.4721 1.038-.8527s.389-.828.389-1.2856c.003-.3051-.056-.6077-.172-.89-.116-.2822-.287-.5386-.503-.7541s-.472-.3858-.755-.501-.585-.173-.89-.17zm0 4.2509c-.383-.0011-.757-.1156-1.074-.329-.318-.2134-.565-.5161-.711-.8699-.145-.3538-.183-.7429-.108-1.118.076-.3752.261-.7196.531-.9898.271-.2701.616-.4539.992-.5282.375-.0742.764-.0355 1.117.1111.354.1467.656.3948.868.7131.213.3182.326.6923.326 1.0749-.001.2542-.051.5058-.149.7404s-.242.4475-.422.6268c-.18.1792-.394.3212-.629.4178s-.487.1459-.741.1452zm-46.9135-15.2717h10.7605l-10.7605 10.4548v5.1905h19.2675v-5.1905h-10.33l10.415-10.4548.006-5.11694h-19.3472zm-81.6114-13.188642h7.2057v4.324532h-7.2057zm0 8.071702h7.2057v20.75664h-7.2057zm71.7227-8.071702h7.2056v4.324532h-7.2056zm0 8.071702h7.2056v20.75664h-7.2056zm-82.3868-8.071702h7.20566v28.828342h-7.20566zm58.0698 19.800042c-.0623-3.6566-1.2396-6.7359-3.3962-8.9378-2.1566-2.20187-5.2698-3.3962-8.9208-3.3962-6.9905 0-11.8868 4.5906-11.8868 11.1679 0 6.5774 4.6755 10.7547 11.9151 10.7547 2.7227 0 9.0566-.566 11.2415-5.7566h-7.2679c-.3933.5392-.9112.9752-1.5095 1.2709-.5982.2957-1.2592.4423-1.9263.4272-.6512.0178-1.2991-.0968-1.9048-.3366-.6056-.2398-1.1563-.6-1.6187-1.0588-.4625-.4587-.8271-1.0065-1.0718-1.6101-.2447-.6037-.3644-1.2507-.3519-1.902v-.6226zm-16.6981-3.8151c0-2.717 1.7943-4.4038 4.6924-4.4038 1.1697.0182 2.2876.4856 3.1221 1.3054.8346.8198 1.3219 1.9292 1.361 3.0984v.6056h-9.1755v-.6zm83.8693 9.3339c-.648.0147-1.293-.1022-1.895-.3436s-1.149-.6024-1.607-1.061c-.459-.4587-.82-1.0056-1.061-1.6076-.242-.6021-.359-1.2468-.344-1.8953v-.6113h16.568c-.062-3.6566-1.228-6.7359-3.396-8.9378-2.168-2.20187-5.231-3.3962-8.853-3.3962-6.94 0-11.785 4.5906-11.785 11.1679 0 6.5774 4.641 10.7547 11.824 10.7547 2.706 0 9.006-.566 11.157-5.7566h-7.194c-.39.5367-.904.9707-1.499 1.2645-.594.2939-1.251.4388-1.915.4223zm-4.907-9.3283c0-2.717 1.783-4.4037 4.653-4.4037 1.166.0199 2.279.4889 3.108 1.3093.829.8203 1.309 1.9287 1.341 3.0944v.6057h-9.102zm-48.8208-.1019c-2.7849-.566-4.9868-1.0528-4.9868-2.6943 0-.8038.4019-2.1509 3.1075-2.1509.7792-.0292 1.5447.2106 2.168.6792.4628.3709.7974.8777.9566 1.4491h6.7924c-.6566-3.81514-4.0302-5.66042-10.2905-5.66042-1.6472 0-9.8661.31698-9.8661 6.61702 0 4.6584 4.4944 5.5358 8.4906 6.3113 2.7396.5377 5.0943.9962 5.0943 2.8641 0 1.6132-1.2735 2.5698-3.3962 2.5698-.9068.0156-1.7943-.2624-2.5302-.7924-.47-.3625-.8177-.8603-.9962-1.4264h-7.1887c1.1321 4.9811 6.9057 5.7679 10.3415 5.7679 7.2906 0 11.3208-2.4962 11.3208-7.0302 0-4.5339-5.0095-5.6604-9.017-6.5038zm-37.5509-7.81694h-3.7755v-1.01887c0-1.29623.2094-2.07736.7189-2.59811.6622-.68491 1.6358-.76416 3.0566-.77548v-4.2566h-3.2095c-5.6603 0-8.1962 1.20566-8.1962 8.36038v.28302h-3.0113v4.0924h2.966v16.6982h7.7038v-16.6925h3.7472z"/></g></svg>