<svg fill="none" height="24" viewBox="0 0 128 24" width="128" xmlns="http://www.w3.org/2000/svg"><path d="m112.79 0h14.613v4.66484h-11.895v4.83411h11.14v4.66355h-11.14v5.0021h12.071v2.1676c0 1.3806-1.108 2.5011-2.48 2.4973h-14.752v-21.36003c0-1.36421 1.095-2.46947 2.446-2.46820684zm-29.1055 0h3.7948c1.1668 0 2.2115.732632 2.618 1.83916l5.5004 14.94314 5.4983-14.93051c.41-1.115369 1.46-1.85179 2.633-1.85179h3.65l-9.5535 24h-4.5878zm-6.1725 0h2.7237v23.8295h-5.1982v-21.33224c.0038-1.38063 1.1114-2.49726 2.4758-2.49726zm-22.8547 0h2.7262c.6545 0 1.2839.262737 1.7496.730105.4657.467365.73 1.101475.73 1.763365v16.57013h9.3103c1.3631 0 2.467 1.1141 2.4707 2.4909v2.275h-16.9805v-23.8295zm-16.5954 19.0989c1.9056.1175 3.7709-.5911 5.129-1.949 1.3593-1.3579 2.0831-3.2337 1.9912-5.1663v-.067c.0944-1.93639-.6268-3.82228-1.9837-5.19155-1.3467-1.36926-3.2221-2.09179-5.1353-1.99073h-4.0151v14.36458h4.0151zm-9.2134-16.59911c0-1.38063 1.1101-2.49979 2.4757-2.49727221h6.7364c7.4135 0 12.5488 5.14106221 12.5488 11.84588221v.0682c0 6.7074-5.1353 11.9141-12.5614 11.9141h-9.2134v-21.33091zm-28.8485-2.49979h4.02267c.97924 0 1.88799.517895 2.39649 1.36421l5.39214 9.61639 5.3946-9.61639c.5072-.846315 1.4147-1.36168368 2.3939-1.36168368h4.0227v23.82817368h-5.163v-15.08965l-5.1014 8.55035h-3.1504l-5.0472-8.55035v15.08965h-5.1605v-23.82817368z" fill="#1f304c"/></svg>