<svg fill="none" height="40" viewBox="0 0 140 40" width="140" xmlns="http://www.w3.org/2000/svg" xmlns:xlink="http://www.w3.org/1999/xlink"><clipPath id="a"><path d="m0 0h140v40h-140z"/></clipPath><g clip-path="url(#a)"><path d="m8.50002 0c-.1.8-.1 1.1-.9 1.9-1.1.9-7.099998 5.9-7.59999775 16.1-.50000025 10.2 7.19999775 14.9 7.19999775 14.9.3-.6 1.2-3.3 1.4-7.3.1-2.7.1-7.5.2-9.4.2-1.8.2-15.1-.3-16.2zm.6 1.2c.7 7.4.8 15.2.8 15.2s.19998 6.4.09998 9.1c-.09998 1.1-.39998 6.2-1.59998 9.6.2 1.1.1 2 .1 3.2 0 .3.4.1 1 .3 1.39998.3.49998-5 .59998-5 0 0 9-5.9 6.9-18.2-2-8.9-6.8-11.9-7.29998-13-.6-.9-.5-.8-.6-1.2zm95.29998 14.2c-.1.2-.6.9-.5 1.1.7.1 1.2.2 1.6.3.7.2 1.1.4 1.2 1.3.1 1 0 4.3 0 6v6.2c-.1.9-.2 1.2-.7 1.4-.3.1-.5.1-1.1.2-.2 0-.5.9-.4 1.1 2.5 0 5.4.1 7.1.1 3.2 0 5.5-.7 7.2-2 1.8-1.3 3.5-3.4 3.5-7.2 0-2.7-1-4.9-2.8-6.4-1.5-1.3-3.6-2-6.1-2-3 0-4.1.1-5.7.1-1-.2-2.8-.2-3.3-.2zm20.2 0c-.1.1-.6 1-.4 1.1.6.1 1.3.2 1.7.3.5.1.8.4.9 1.2v6.1c0 2.2 0 5.3-.1 6.2-.1 1-.2 1.2-.8 1.4-.5.1-.8.2-1.3.2-.2.1-.6 1-.4 1.1 1.9 0 5.3.1 6.6.1 1.7 0 3.3-.2 4.7-.8 2.2-1 3.7-2.5 3.7-4.9 0-2.5-1.8-3.8-3.9-4.3-.1 0-.1-.1 0-.1 1.5-.6 2.6-1.9 2.6-3.5 0-3.3-3-4-5.2-4-1.8 0-3.2.1-5.1.1-2-.2-2.8-.2-3-.2zm-13.5 1.2c1.9 0 3.5.3 4.7 1.1 2.2 1.3 3.3 3.6 3.3 6.5 0 3-.9 4.8-2.3 6-1.3 1.2-2.7 1.4-4 1.4-1.1 0-2.3-.2-2.8-.7-.4-.3-.5-.9-.6-1.2v-6-6.6c0-.1.2-.3.3-.4.4 0 .9-.1 1.4-.1zm19.6.1c2.5 0 4.2.9 4.2 3.4 0 1.1-.4 2-1.3 2.5-.3.2-1 .3-2 .3-.8 0-1.7 0-2-.1-.1 0-.1-.1-.1-.1 0-1.8 0-4.5.1-5.5 0-.1.1-.4.3-.4.2-.1.6-.1.8-.1zm-62.3 4.5c-1.1 0-2.6.8-3.8 1.8 0 0-.2.2-.2-.1s.1-.8.1-1.2-.2-.5-.2-.5c-.8.4-3 .9-3.9 1-.6.1-.8.7-.1.9s1.1.4 1.5.6c.2.3.2.6.2.8 0 1.9 0 4.8-.1 6.3 0 .6-.2.8-.6 1-.3.1-.6.1-1.1.2-.1.1-.1 1 0 1.1.3 0 1.8-.1 2.9-.1 1.7 0 2.5.1 2.9.1.2-.2.2-.9.1-1.1-.5 0-.8-.1-1.2-.2-.5-.1-.6-.3-.6-.8-.1-1.3-.1-4.1-.1-6 0-.5.1-.8.3-.9.6-.5 1.5-.8 2.3-.8s1.3.3 1.7.6c.5.5.8 1.1.8 1.6.1 1.1.1 3.2.1 5.1 0 1-.1 1.3-.4 1.4-.2.1-.6.2-1.2.2-.2.2-.1 1 0 1.1.7 0 1.6-.1 2.8-.1 1.6 0 2.6.1 3 .1.2-.2.2-.9.1-1.1-.6-.1-1.1-.2-1.6-.4-.1 0-.2-.3-.2-.4-.1-.9-.1-3.4-.1-5.1 0-1.3-.2-2.5-.8-3.4-.4-1.1-1.3-1.7-2.6-1.7zm-41.6.1c-.9.4-3 .9-3.8 1-.3 0-.5.2-.5.4s.1.3.4.3c.6.2 1.1.4 1.5.7.3.2.3.5.3.7v.1c0 2 0 4.8-.1 6.3 0 .6-.2.9-.7 1-.3.1-.6.1-1.1.2 0 0-.1.2-.1.4 0 .3 0 .5.1.6h5.8c.1-.2.1-.8.1-1-.1 0-.3 0-.5-.1-.2 0-.5-.1-.6-.1-.6-.1-.7-.5-.7-.8v-6.6c0-.2.1-.5.2-.6.8-.6 1.8-1 2.6-1 1.3 0 2.2.7 2.4 2.2.2.9.1 4.5 0 5.8 0 .5-.2.8-.6.9-.3.1-.5.1-.8.2-.1 0-.2 0-.4.1 0 0-.1.2-.1.4 0 .3 0 .4.1.5h2.7c1.3 0 2.2 0 3 .1 0 0 .1-.1.1-.3.1-.3.1-.6 0-.7-.3 0-.6-.1-.8-.1-.1 0-.2-.1-.4-.1-.3-.1-.6-.2-.6-.8v-4.6c0-.9 0-1.5-.1-2.1 0-.1 0-.2.1-.2 1-.7 1.9-1 2.6-1 1.7 0 2.4 1.2 2.6 2.2.1 1 .1 5.1 0 5.5 0 .6-.2.9-.6 1-.3.1-.5.1-1 .2-.1.1 0 .8 0 1 .8-.1 1.6-.1 3.1-.1.8 0 1.4 0 1.9.1h.6c.1-.1.2-.8.1-1-.6-.1-1.1-.2-1.5-.4-.3-.1-.5-.5-.5-.6v-5c0-2.9-1.4-4.7-3.7-4.7-1 0-2.4.7-3.9 1.8 0 0-.1.1-.2.1s-.1 0-.2-.1c-.7-1.2-1.7-1.8-2.9-1.8-.8 0-2.2.5-3.8 1.7l-.1.1c-.1 0-.2-.1-.2-.2v-.9-.3c.3-.2.2-.4.2-.4zm54.9 0c-1.1 0-2.9.7-3.6 1.2-1 .7-1.6 1.9-1.6 3.2 0 2 .9 3.3 2.6 3.9.1 0 .1.1.1.1 0 .1 0 .1-.1.1-.3.2-.7.5-1.1.8-.3.2-.6.3-.7.4-.2.2-.2.3-.1.5v.1c.1.4.5 1.1 1.7 1.6l.1.1c0 .1 0 .1-.1.1-1.4 1-2 1.6-2.3 1.9-.4.5-.5 1.1-.5 1.3 0 .7.4 1.8 1.3 2.5s2 1 3.6 1c1.2 0 2.3-.3 3.3-.8 2.2-1.1 3.5-2.8 3.5-4.7 0-1.3-.7-2.3-1.9-2.7-.8-.3-2.6-.4-4.1-.5h-.7c-1.1-.1-1.3-.5-1.3-.9s.5-.7.7-.7h.7c1.1-.1 2.1-.5 2.9-1.1.9-.7 1.7-1.6 1.7-3.6 0-.2-.1-.9-.2-1.1v-.2h.1s.2.1.6.1h.1c.4 0 .9-.2 1.1-.5.3-.4.3-.8.3-1.1s-.1-.5-.1-.5c-.4.3-.8.6-1.8.6-.6 0-1.1-.1-1.6-.3-.7-.5-1.3-.8-2.6-.8zm-29.7 0c-1.3 0-2.7.4-3.8 1.1-1.7 1.1-2.5 2.7-2.5 4.8 0 2.9 1.5 6.1 5.8 6.1 1.2 0 2.6-.5 3.4-1 1.7-1.1 2.6-2.9 2.6-5.2 0-3.5-2.3-5.8-5.5-5.8zm44.3 0c-1.3 0-2.7.4-3.8 1.1-1.7 1.1-2.5 2.7-2.5 4.8 0 2.9 1.5 6.1 5.8 6.1 1.2 0 2.6-.5 3.5-1 1.7-1.1 2.6-2.9 2.6-5.2-.1-3.5-2.4-5.8-5.6-5.8zm-15.3 1.1c1.7 0 2.7 1.3 2.7 3.4 0 1-.3 1.9-.8 2.3-.3.4-1 .5-1.3.5-2.1 0-2.8-1.9-2.8-3.5 0-1.7.8-2.7 2.2-2.7zm-30 .1c2.4 0 4 2.2 4 5.4 0 1.7-.4 2.9-1.1 3.5-.5.4-1 .6-1.7.6-2.4 0-4-2.3-4-5.6 0-1.8.5-2.9 1.5-3.6.3-.2.8-.3 1.3-.3zm44.3 0c2.4 0 4 2.2 4 5.4 0 1.7-.4 2.9-1.1 3.5-.5.4-1 .6-1.8.6-2.4 0-4-2.3-4-5.6 0-1.8.5-2.9 1.5-3.6.4-.2.8-.3 1.4-.3zm35 1.6h.7c3.3 0 5.2 1.4 5.2 3.9 0 2.6-1.7 3.7-3.7 3.7-.7 0-1.8-.1-2.2-.3s-.8-.9-.8-1.3c-.1-1.1-.1-4-.1-5.7 0-.1.1-.1.2-.1.1-.2.4-.2.7-.2zm-49.5 9.4c1.5 0 2.8.1 3.6.4 1 .4 1.4 1 1.4 1.9 0 1.4-1.1 2.7-3.7 2.7-1.3 0-2.3-.3-3-.9-.6-.5-.9-1.1-.9-1.8 0-.8.5-1.4 1.5-2.1.2-.1.6-.2 1.1-.2z" fill="#1f304c"/></g></svg>