<svg fill="none" height="30" viewBox="0 0 181 30" width="181" xmlns="http://www.w3.org/2000/svg" xmlns:xlink="http://www.w3.org/1999/xlink"><clipPath id="a"><path d="m0 0h181v30h-181z"/></clipPath><g clip-path="url(#a)"><path d="m23.44 29.61h-6.72l-9.95-17.46v17.46h-6.77v-28.07h6.77l9.93 17.46v-17.46h6.75v28.07zm2.77-10.61c-.0364-1.9224.378-3.8266 1.21-5.56.7601-1.5723 1.9763-2.8791 3.49-3.75 1.6322-.90279 3.4753-1.35492 5.34-1.31 1.3658-.07079 2.7309.15135 4.0038.65153 1.2728.50018 2.424 1.26677 3.3762 2.24847 1.891 2.1832 2.8591 5.0161 2.7 7.9v.22c.1494 2.836-.8242 5.6166-2.71 7.74-.9501.9651-2.0932 1.7187-3.3546 2.2116-1.2614.4928-2.6127.7138-3.9654.6484-1.3102.0598-2.619-.1458-3.8477-.6047-1.2287-.4588-2.352-1.1613-3.3023-2.0653-1.8693-1.9465-2.9122-4.5413-2.91-7.24zm6.5.4c-.1058 1.4711.2099 2.9419.91 4.24.2876.4423.6869.801 1.1574 1.0398.4706.2388.9957.3492 1.5226.3202 2.3133 0 3.4967-1.78 3.55-5.34v-.66c0-3.74-1.1967-5.61-3.59-5.61-2.1733 0-3.35 1.6133-3.53 4.84zm22.24-10.65.21 2.45c.6982-.9201 1.6084-1.65792 2.653-2.15065 1.0447-.49273 2.1929-.72579 3.347-.67935 2.6667 0 4.4467 1.04667 5.34 3.14.6601-1.0116 1.5729-1.83339 2.648-2.38409 1.0751-.55071 2.2753-.81127 3.482-.75591 4.2267 0 6.4 2.5567 6.52 7.67v13.57h-6.56v-13.16c.0618-.8136-.1266-1.6266-.54-2.33-.2499-.2738-.5622-.4832-.9105-.6104-.3482-.1271-.722-.1681-1.0895-.1196-.5933-.0204-1.1798.1312-1.6889.4363-.5092.3051-.9193.7509-1.1811 1.2837v14.5h-6.47v-13.13c.0648-.824-.1162-1.6488-.52-2.37-.2493-.2745-.5616-.4844-.91-.6116-.3484-.1271-.7224-.1678-1.09-.1184-.589-.0116-1.1692.1438-1.6735.4482-.5044.3043-.9123.7453-1.1765 1.2718v14.51h-6.5v-20.86h6.09zm26.65 10.25c-.0364-1.9224.378-3.8266 1.21-5.56.7601-1.5723 1.9763-2.8791 3.49-3.75 1.6322-.90279 3.4753-1.35492 5.34-1.31 1.3617-.06919 2.7226.1528 3.9917.65115 1.2692.49835 2.4175 1.26165 3.3683 2.23885 1.891 2.1832 2.859 5.0161 2.7 7.9v.23c.152 2.8346-.818 5.6151-2.7 7.74-.9489.9638-2.0904 1.7167-3.35 2.2095s-2.609.7145-3.96.6505c-1.3102.0598-2.619-.1458-3.8477-.6047-1.2287-.4588-2.352-1.1613-3.3023-2.0653-1.8693-1.9465-2.9122-4.5413-2.91-7.24zm6.5.4c-.1088 1.4701.2034 2.9408.9 4.24.2885.4439.6893.8035 1.1618 1.0424.4724.2388.9997.3484 1.5282.3176 2.3133 0 3.4967-1.78 3.55-5.34v-.66c0-3.74-1.1967-5.61-3.59-5.61-2.1733 0-3.35 1.6133-3.53 4.84zm28.72-4.77-2.14-.15c-2.047 0-3.357.6433-3.93 1.93v13.2h-6.5v-20.86h6.09l.21 2.68c.378-.9028 1.012-1.67491 1.824-2.22063.813-.54571 1.767-.84104 2.746-.84937.611-.011 1.221.06647 1.81.23zm.43 4.37c-.036-1.9224.378-3.8266 1.21-5.56.772-1.5831 2.006-2.8943 3.54-3.76 1.632-.90278 3.475-1.35492 5.34-1.31 1.366-.07079 2.731.15135 4.004.65153s2.424 1.26677 3.376 2.24847c1.891 2.1832 2.859 5.0161 2.7 7.9v.23c.149 2.836-.824 5.6166-2.71 7.74-.956.9716-2.107 1.729-3.378 2.222-1.27.4931-2.631.7105-3.992.638-1.31.0598-2.619-.1458-3.848-.6047-1.228-.4588-2.352-1.1613-3.302-2.0653-1.869-1.9465-2.912-4.5413-2.91-7.24zm6.5.4c-.106 1.4711.21 2.9419.91 4.24.288.4423.687.801 1.157 1.0398.471.2388.996.3492 1.523.3202 2.313 0 3.497-1.78 3.55-5.34v-.66c0-3.74-1.197-5.61-3.59-5.61-2.173 0-3.35 1.6133-3.53 4.84zm35.47-.04c0 3.42-.707 6.05-2.12 7.89-.702.9117-1.614 1.6393-2.66 2.1201-1.045.4808-2.191.7004-3.34.6399-.992.0185-1.973-.2027-2.861-.6449-.888-.4423-1.656-1.0924-2.239-1.8951l-.27 2.14h-5.83v-29.61h6.5v10.43c.581-.66823 1.303-1.19949 2.114-1.55566.811-.35616 1.691-.5284 2.576-.50434 1.152-.05502 2.301.17114 3.346.65895s1.956 1.22265 2.654 2.14105c1.413 1.8667 2.12 4.49 2.12 7.87v.33zm-6.52-.41c.11-1.472-.165-2.9473-.8-4.28-.256-.4159-.62-.7545-1.053-.9799-.433-.2255-.92-.3291-1.407-.3001-.609-.0469-1.218.0865-1.751.3835-.534.297-.968.7444-1.249 1.2865v8.28c.287.5452.729.9935 1.269 1.2888.541.2953 1.157.4244 1.771.3712.674.049 1.342-.151 1.879-.562.536-.411.903-1.0045 1.031-1.668.257-1.2596.361-2.5455.31-3.83zm8.17.05c-.036-1.9224.378-3.8266 1.21-5.56.76-1.5723 1.976-2.8791 3.49-3.75 1.632-.90279 3.475-1.35492 5.34-1.31 1.366-.07079 2.731.15135 4.004.65153s2.424 1.26677 3.376 2.24847c1.891 2.1832 2.859 5.0161 2.7 7.9v.22c.149 2.836-.824 5.6166-2.71 7.74-.945.96-2.082 1.7106-3.336 2.2033s-2.598.7164-3.944.6567c-1.31.0598-2.619-.1458-3.848-.6047-1.228-.4588-2.352-1.1613-3.302-2.0653-1.869-1.9465-2.912-4.5413-2.91-7.24zm6.5.4c-.106 1.4711.21 2.9419.91 4.24.291.4485.697.8111 1.175 1.0502s1.012.3461 1.545.3098c2.313 0 3.497-1.78 3.55-5.34v-.66c0-3.74-1.197-5.61-3.59-5.61-2.173 0-3.35 1.6133-3.53 4.84z" fill="#1f304c"/></g></svg>