<svg width="172" height="32" viewBox="0 0 172 32" fill="none" xmlns="http://www.w3.org/2000/svg">
<g clip-path="url(#clip0)">
<path d="M56.24 9.76L55.76 11.76C55.68 12.16 55.44 12.32 54.96 12.24C54.16 12 53.36 11.92 52.72 11.92C51.52 11.92 48.64 12.32 48.64 15.84V27.52C48.64 27.92 48.32 28.16 47.84 28.16H45.52C45.12 28.16 45.04 28 45.04 27.52V16C45.04 11.28 47.76 8.4 52.4 8.4C53.52 8.4 54.64 8.56 55.68 8.8C55.92 8.96 56.4 9.12 56.24 9.76ZM75.44 10.8C77.36 12.64 78.4 15.2 78.4 18.4V18.8C78.24 19.12 78 19.2 77.6 19.2H61.84C62.16 23.04 64.48 25.28 68.24 25.28C70 25.28 71.68 24.72 72.8 23.68C73.12 23.36 73.44 23.36 73.84 23.52L75.84 24.56C76 24.64 76.16 24.8 76.16 25.04C76.16 25.2 76.16 25.36 76 25.52C74.08 27.76 71.44 28.8 68.24 28.8C62.08 28.8 58.16 24.72 58.16 18.48C58.16 12.24 62.16 8.16 68.24 8.16C71.12 8.24 73.6 9.12 75.44 10.8ZM74.24 16.08C73.44 12.96 71.28 11.76 68.16 11.76C65.04 11.76 62.88 13.28 62.08 16.08V16.16H74.24V16.08ZM122.08 8.96H119.44C119.04 8.96 118.72 9.28 118.72 9.68V27.52C118.72 27.92 119.04 28.24 119.44 28.24H122.08C122.48 28.24 122.8 27.92 122.8 27.52V9.68C122.8 9.28 122.48 8.96 122.08 8.96ZM171.52 0.88V18.08C171.52 24.24 167.52 28.4 161.52 28.4C155.68 28.4 151.52 24.08 151.52 18.08C151.52 11.84 155.28 7.76 161.2 7.76H161.52C164.16 7.84 166.56 8.48 168.08 10.16V0.88C168.08 0.48 168.4 0 168.8 0H171.12C171.36 0 171.52 0.48 171.52 0.88ZM168 18.08C167.84 13.68 165.6 11.28 161.6 11.28C157.52 11.28 155.2 13.76 155.2 18.08C155.2 22.32 157.6 24.88 161.6 24.88C165.6 24.88 168 22.32 168 18.08ZM104.32 8.24C101.36 8.24 98.96 9.36 97.6 11.44C96.08 9.36 93.68 8.24 90.8 8.24C85.44 8.24 82.16 11.6 82.16 17.2V27.6C82.16 28 82.56 28.24 83.04 28.24H85.36C85.76 28.24 86.24 28.08 86.24 27.6V17.2C86.24 12.72 88.96 11.76 91.12 11.76C92.8 11.76 95.6 13.52 95.6 15.6V27.6C95.6 28 95.92 28.24 96.32 28.24H98.96C99.36 28.24 99.68 28 99.68 27.6V15.6C99.68 13.44 101.84 11.84 104.16 11.84C106.4 11.84 109.04 12.8 109.04 17.28V27.68C109.04 28.08 109.6 28.32 110 28.32H112.32C112.72 28.32 113.12 28.16 113.12 27.68V17.28C112.96 11.52 109.68 8.24 104.32 8.24ZM137.76 8.24C131.92 8.24 128.16 12 128.16 18V27.6C128.16 28 128.64 28.24 129.12 28.24H131.44C131.84 28.24 132.24 28.08 132.24 27.6V18C132.24 12.56 136.24 12.32 137.84 12.24C139.36 12.32 143.44 12.56 143.44 18V27.6C143.44 28 143.76 28.24 144.24 28.24H146.56C146.96 28.24 147.52 28.08 147.52 27.6V18C147.36 11.92 143.6 8.24 137.76 8.24ZM30.48 7.04C28.24 4.16 24 2.24 19.12 2.24C13.12 2.24 8.08 5.12 6.56 9.12C2.72 10.48 0 14.08 0 18.4C0 23.84 4.4 28.24 9.84 28.24C11.76 28.24 13.52 27.68 15.04 26.72L15.52 31.04C15.6 32 16.88 32.4 17.52 31.6L21.76 25.92C22.08 26 22.4 26 22.72 26C25.44 26 27.68 24.32 28.64 21.92C33.28 21.68 36.96 18.4 36.96 14.32C36.96 10.88 34.16 7.92 30.48 7.04Z" fill="#1F304C"/>
</g>
<defs>
<clipPath id="clip0">
<rect width="172" height="32" fill="white"/>
</clipPath>
</defs>
</svg>
