<svg fill="none" height="40" viewBox="0 0 173 40" width="173" xmlns="http://www.w3.org/2000/svg" xmlns:xlink="http://www.w3.org/1999/xlink"><clipPath id="a"><path d="m0 0h172.414v40h-172.414z"/></clipPath><g clip-path="url(#a)"><path d="m100.207 0c.69 0 1.31.0689655 1.793.137931.483.068966.897.206897 1.31.344828.069.068965.345.137931.207.827581l-1.034 2.75863c-.069.20689-.138.34482-.552.20689-.138 0-.276-.06896-.69-.13793-.275-.06896-.689-.13793-1.103-.13793-.5517 0-1.0345.06896-1.4483.2069-.4138.13793-.7586.34482-1.1034.68965s-.7586.82759-.9655 1.44828c-.4828 1.37931-.6897 2.89655-.6897 3.03448h4.2069c.345 0 .483.13793.414.41379l-.483 2.7586c-.069.4138-.4137.4138-.4137.4138h-4.3449l-2.8965 16.8276c-.3449 1.7241-.6897 3.2414-1.1724 4.4138-.4828 1.2414-.9656 2.1379-1.7242 2.9655-.7586.7586-1.5172 1.3793-2.4827 1.7241-.9656.138-2.069.4828-3.3104.4828-.5517 0-1.1724 0-1.931-.3448-.5517 0-.8276-.3448-1.2414-.3448-.1379-.069-.2759-.2069-.2069-.5518.069-.2758.8966-2.3448.9655-2.6896.1379-.3449.4828-.3449.4828-.3449.2069.3449.4138.3449.6896.3449h1.1035c.5517 0 1.1034 0 1.5862-.3449.5517-.2069.8965-.5517 1.2414-.9655.3448-.4827.6207-1.1034.8965-1.931.2759-.8276.5517-1.931.8276-3.2414l2.9655-16.6207h-2.8276c-.3448 0-.4827-.1379-.4138-.4138l.4828-2.75859c.069-.41379.4138-.41379.4138-.41379h3.0345l.2069-.89655c.4138-2.68966 1.3103-4.68966 2.6896-6 1.2414-1.172415 3.1035-1.86207 5.5173-1.86207zm-60.069.482759h3.5172c.2069 0 .4138.206896.4138.413793v28.344848c0 .2069-.1379.4138-.4138.4138h-3.5172c-.2069 0-.4138-.2069-.4138-.4138v-28.413814c.069-.206896.2069-.344827.4138-.344827zm-32.2069 8.000001h.48276c2.55174 0 4.96554.75862 6.75864 1.86204.1379.069.3448.2759.2069.5518-.069.2068-.8966 2.3448-.9655 2.5517-.138.4138-.6207.1379-.6207.1379-1.5173-.8965-3.93106-1.5172-5.93106-1.5172-1.86207 0-3.03449.9655-3.03449 2.2758v.069c0 1.5172 2 2.2069 4.34483 2.9655l.41379.1379c3.10343.9656 6.34483 2.3449 6.34483 6.069v.069c0 4-2.8965 6.5517-7.58621 6.5517-2.34482 0-4.48275-.3448-6.82758-1.5862-.4138-.2759-.896554-.4828-1.310347-.7586-.068966-.069-.20689697-.138-.068966-.5518l.896553-2.5517c.13793-.4138.48276-.2758.62069-.2069.27586.138.48276.2759.75862.4828 2.75862 1.7241 5.24138 1.7241 6.06897 1.7241 2.06897 0 3.31037-1.1034 3.31037-2.5517v-.069c0-1.5862-1.93106-2.2069-4.20693-2.8965l-.48275-.138c-3.10345-.8965-6.413799-2.2069-6.413799-6.0689v-.069c-.068965-3.8621 2.896549-6.48274 7.241379-6.48274zm68.7586 0h.4828c2.5517 0 4.9655.75862 6.7586 1.86204.1379.069.3448.2759.2069.5518-.069.2068-.8965 2.3448-.9655 2.5517-.1379.4138-.6207.1379-.6207.1379-1.5172-.8965-3.931-1.5172-5.931-1.5172-1.8621 0-3.0345.9655-3.0345 2.2758v.069c0 1.5172 2 2.2069 4.3448 2.9655l.4138.1379c3.1034.9656 6.3448 2.3449 6.3448 6.069v.069c0 4-2.8965 6.5517-7.5862 6.5517-2.3448 0-4.4827-.3448-6.8276-1.5862-.4138-.2759-.8965-.4828-1.3103-.7586-.069-.069-.2069-.138-.069-.5518l.8966-2.5517c.1379-.4138.5517-.2758.6207-.2069.2758.138.4827.2759.7586.4828 2.7586 1.7241 5.2414 1.7241 6.069 1.7241 2.0689 0 3.3103-1.1034 3.3103-2.5517v-.069c0-1.5862-2-2.2069-4.2069-2.8965l-.4828-.138c-3.1034-.8965-6.4138-2.2069-6.4138-6.0689v-.069c-.0689-3.8621 2.8966-6.48274 7.2414-6.48274zm-49.4483.06896c2.6897 0 4.6897.62069 6.069 1.86208 1.3793 1.2414 2.1379 3.2414 2.1379 5.8621v12.1379s.069.3448-.2758.4138c0 0-.4828.1379-.8966.2069-.4827.1379-2.0689.4138-3.3793.6896-1.3103.2069-2.6896.3449-4 .3449-1.3103 0-2.4827-.138-3.5172-.3449-1.0345-.2758-2-.6207-2.6897-1.1724-.7586-.5517-1.3103-1.2414-1.7241-2.0689-.4138-.8276-.6207-1.8621-.6207-3.0345s.2069-2.2069.6897-3.1035c.4827-.8965 1.1034-1.5862 1.931-2.2069s1.7241-1.0345 2.7586-1.3103c1.0345-.2759 2.1379-.4138 3.3104-.4138.8275 0 1.5172 0 2.0689.069 0 0 1.0345.0689 2.2069.2758v-.5517c0-1.7931-.3448-2.6207-1.1034-3.1724-.7587-.5517-1.8621-.8276-3.3104-.8276 0 0-3.2414-.069-5.7931 1.3103-.1379.069-.2069.138-.2069.138s-.2758.0689-.4138-.2069l-.9655-2.5517c-.2069-.3449.069-.5518.069-.5518 1.1724-.89652 4.0689-1.51721 4.0689-1.51721.9656-.13794 2.6207-.27587 3.5862-.27587zm119.5866 0c1.103 0 2.069.06897 2.965.2069.897.13793 2.138.48276 2.621.68965.069 0 .345.13794.276.48276-.345 1.03447-.621 1.72417-.966 2.68967-.138.4138-.483.2759-.483.2759-1.31-.4138-2.551-.6207-4.137-.6207-1.931 0-3.38.6896-4.345 1.931-.966 1.2414-1.518 2.9655-1.518 5.1724 0 2.4138.621 4.2069 1.656 5.3793 1.103 1.1035 2.62 1.6552 4.482 1.6552.759 0 1.518-.069 2.138-.1379.621-.069 1.242-.2759 1.793-.4828 0 0 .345-.1379.483.2069l.966 2.6897c.138.3448-.138.4827-.138.4827-1.517.6207-3.586 1.0345-5.517 1.0345-3.38 0-6-.9655-7.725-2.8966-1.724-1.931-2.62-4.5517-2.62-7.7931 0-1.5172.207-2.9655.62-4.2069.414-1.3103 1.104-2.4827 1.931-3.4482.828-.9655 1.931-1.7242 3.173-2.27589 1.241-.75862 2.689-1.03449 4.345-1.03449zm-89.2417 0c1.4483 0 2.7586.27587 3.7931.75862.8276.34483 1.6552.96556 2.5517 1.93106.5517.6207 1.3793 1.862 1.7241 3.1034.8276 3.0345.4138 5.5862.4138 5.7242-.0689.3448-.4138.3448-.4138.3448h-13.3103c.069 2 .5517 3.4483 1.5172 4.4138.9656.9655 2.4828 1.5172 4.5518 1.5862 3.1724 0 4.4827-.6207 5.4482-.9655 0 0 .3449-.138.4828.2069l.8965 2.4138c.2069.4138.0001.5517-.1379.6207-.8276.4827-2.8276 1.3103-6.6896 1.3103-1.8621 0-3.5173-.2759-4.8276-.7586-1.3793-.5517-2.4828-1.3104-3.3793-2.2069-.8966-.9655-1.5173-2.069-1.9311-3.3793-.4138-1.3104-.6207-2.6897-.6207-4.2069 0-1.5173.2069-2.9655.5518-4.2069.4138-1.3104.9655-2.4828 1.7931-3.4483s1.862-1.7931 3.0345-2.34483c1.4482-.62068 2.9655-.89655 4.5517-.89655zm53.1037 0c1.586 0 3.034.27587 4.207.82759 1.172.55172 2.207 1.31039 3.034 2.27589.828.9655 1.379 2.0689 1.793 3.3793.414 1.3103.552 2.7586.552 4.2069s-.207 2.8965-.552 4.2069c-.414 1.3103-.965 2.4827-1.793 3.3793-.827.9655-1.793 1.7241-3.034 2.2758-1.242.5518-2.621.8276-4.207.8276s-3.035-.2758-4.207-.8276c-1.173-.5517-2.207-1.3103-3.035-2.2758-.827-.9655-1.379-2.1379-1.793-3.3793-.414-1.3104-.551-2.6897-.551-4.2069 0-1.5173.206-2.8966.551-4.2069.414-1.3104.966-2.4828 1.793-3.3793.828-.9655 1.793-1.72417 3.035-2.27589 1.172-.55172 2.552-.82759 4.207-.82759zm53.172 0c1.448 0 2.759.27587 3.793.75862.828.34483 1.655.96556 2.552 1.93106.552.6207 1.379 1.862 1.724 3.1034.828 3.0345.414 5.5862.414 5.7242 0 .3448-.414.3448-.414.3448h-13.31c.069 2 .552 3.4483 1.586 4.4138.966.9655 2.483 1.5172 4.552 1.5862 3.172 0 4.482-.6207 5.448-.9655 0 0 .414-.138.483.2069l.896 2.4138c.207.4138 0 .5517-.138.6207-.827.4827-2.827 1.3103-6.689 1.3103-1.862 0-3.518-.2759-4.828-.7586-1.379-.5517-2.483-1.3104-3.379-2.2069-.897-.9655-1.517-2.069-1.931-3.3793-.414-1.3104-.621-2.6897-.621-4.2069 0-1.5173.207-2.9655.552-4.2069s.965-2.4828 1.793-3.4483 1.862-1.7931 3.034-2.34483c1.311-.62068 2.828-.89655 4.483-.89655zm-30.827.2069c.206 0 .413 0 .62.06897.897.06896 2 .27586 2.207.34482.069.06897.276.2069.207.48276-.138.34483-.759 2.20693-1.034 2.82763-.069.2069-.207.4138-.483.3448 0 0-.759-.2069-1.448-.2069-.483 0-1.173.069-1.794.2759-.62.2068-1.172.5517-1.655.9655-.483.4827-.896 1.1724-1.172 2-.345.8276-.414 2.1379-.414 3.4482v9.9311c0 .2069-.207.4138-.414.4138h-3.517c-.207 0-.414-.2069-.414-.4138v-19.86209c0-.2069.138-.41379.414-.41379h3.379c.207 0 .414.20689.414.41379v1.65519c.483-.6897 1.448-1.31036 2.276-1.65519.69-.34483 1.517-.62069 2.828-.62069zm-75.7246 3.31038c-1.7241 0-2.9655.6896-3.7931 1.931-.5517.8276-.8965 1.8621-1.1034 3.1724h9.4482c-.0689-1.2414-.3448-2.3448-.8965-3.1724-.7586-1.2414-1.931-1.931-3.6552-1.931zm106.2756 0c-1.724 0-2.965.6896-3.793 1.931-.552.8276-.896 1.8621-1.103 3.1724h9.448c-.069-1.2414-.345-2.3448-.897-3.1724-.758-1.2414-1.931-1.931-3.655-1.931zm-52.896.0689c-1.793 0-3.035.6207-3.793 1.8621-.828 1.2414-1.242 3.0345-1.242 5.3103 0 2.2759.414 4.069 1.242 5.3104.827 1.2414 2.069 1.8621 3.793 1.8621s2.965-.6207 3.793-1.8621c.827-1.3104 1.241-3.1035 1.241-5.3104s-.414-4.0689-1.241-5.3103c-.828-1.2414-2.069-1.8621-3.793-1.8621zm-83.1037 7.5862c-2.6897 0-3.8621.9656-3.8621.9656-.8276.5517-1.1724 1.3793-1.1724 2.5517 0 .7586.1379 1.3103.4138 1.7241.1379.2759.2069.3448.7586.7586 0 0 1.1724.9656 3.8621.7587 1.931-.138 3.5862-.4828 3.5862-.4828v-6.069c.0689.138-1.6552-.2069-3.5862-.2069z" fill="#1f304c"/></g></svg>