<svg fill="none" height="33" viewBox="0 0 147 33" width="147" xmlns="http://www.w3.org/2000/svg" xmlns:xlink="http://www.w3.org/1999/xlink"><mask id="a" height="22" maskUnits="userSpaceOnUse" width="19" x="128" y="5"><path d="m128.911 5.52698h17.897v20.62102h-17.897z" fill="#fff"/></mask><mask id="b" height="32" maskUnits="userSpaceOnUse" width="30" x="0" y="1"><path d="m0 1.00049h29.3626v31.90501h-29.3626z" fill="#fff"/></mask><g clip-rule="evenodd" fill="#1f304c" fill-rule="evenodd"><path d="m55.8007 20.1636c0-3.642-2.834-5.108-5.334-6.069l-2.001-.755c-1.672-.628-2.75-1.004-2.75-2.59 0-1.04696.959-1.84196 2.875-1.84196 1.876 0 3.711.544 4.835 1.42296l2.042-3.09796c-1.911-1.428-4.459-1.931-7.002-1.931-3.917 0-6.959 2.261-6.959 5.69496 0 3.809 2.876 5.148 4.793 5.735l1.999.71c1.459.503 3.252 1.256 3.252 3.057s-1.834 2.053-3.292 2.053c-1.71 0-4.084-.963-5.793-2.052l-1.543 3.643c2.292 1.296 5.001 2.008 7.336 2.008 4.541 0 7.542-1.967 7.542-5.986z"/><path d="m81.7119 5.52734c-2.546 0-5.342 1.048-6.719 2.895-1.045-1.885-2.922-2.895-5.51-2.895-1 0-4.506.251-6.467 2.641v-2.226h-4.34v19.62296h4.34v-11.395c0-2.768 1.712-4.61296 4.507-4.61296 2.585 0 4.172 1.38396 4.172 3.80996v12.2h3.965v-11.397c0-2.768 1.712-4.61296 4.508-4.61296 2.584 0 4.173 1.38396 4.173 3.80996v12.2h4.34v-13.073c0-4.61896-2.712-6.96696-6.969-6.96696z"/><path d="m104.958 20.648c-1.638 1.085-3.556 1.668-5.52 1.676-2.215 0-3.637-1.176-3.637-2.984 0-2.392 3.22-3.484 6.146-3.484.585 0 2.259 0 3.011.167zm-3.68-15.12102c-2.3 0-5.101.337-7.861 1.765l1.632 3.52602c2.174-1.30302 3.554-1.63802 5.225-1.63802 3.053 0 4.684.92302 4.684 3.44402v.379c-1.245-.191-2.504-.29-3.764-.294-5.644 0-9.784 3.023-9.784 7.18 0 3.657 2.889 6.259 6.942 6.259 1.671 0 3.678-.503 5.56-1.596.251-.127.586-.335 1.046-.629v1.636h4.348v-13.647c0-4.62002-3.387-6.38502-8.028-6.38502z"/></g><g mask="url(#a)"><path clip-rule="evenodd" d="m142.461 20.648c-1.639 1.085-3.558 1.668-5.521 1.676-2.216 0-3.636-1.176-3.636-2.984 0-2.392 3.22-3.484 6.147-3.484.583 0 2.257 0 3.01.167zm-3.681-15.12102c-2.299 0-5.101.337-7.86 1.765l1.63 3.52602c2.174-1.30302 3.556-1.63802 5.225-1.63802 3.055 0 4.686.92302 4.686 3.44402v.379c-1.246-.191-2.504-.289-3.764-.294-5.646 0-9.786 3.023-9.786 7.18 0 3.657 2.889 6.259 6.942 6.259 1.671 0 3.68-.503 5.56-1.596.253-.127.586-.335 1.048-.629v1.636h4.348v-13.647c0-4.62002-3.387-6.38502-8.029-6.38502z" fill="#1f304c" fill-rule="evenodd"/></g><path clip-rule="evenodd" d="m124.526 5.92334h4.454l-6.788 19.63696h-4.484l-6.787-19.63696h4.454l4.575 13.24196z" fill="#1f304c" fill-rule="evenodd"/><g mask="url(#b)"><path clip-rule="evenodd" d="m14.6816 15.2505 14.681-8.55901v-5.691l-14.682 8.56-14.68096621-8.56v14.51901l14.68196621 8.559 9.548-5.568v3.137l-9.548 5.566-14.68196621-8.559v5.692l14.68096621 8.559 14.682-8.559v-14.51901l-14.681 8.56101-9.51497-5.538v-3.14601z" fill="#1f304c" fill-rule="evenodd"/></g></svg>