<svg fill="none" height="48" viewBox="0 0 160 48" width="160" xmlns="http://www.w3.org/2000/svg" xmlns:xlink="http://www.w3.org/1999/xlink"><clipPath id="a"><path d="m0 0h159.714v48h-159.714z"/></clipPath><g clip-path="url(#a)"><path d="m23.9989.067749c13.2145 0 23.9265 10.711951 23.9265 23.926251 0 13.2152-10.712 23.9269-23.9265 23.9269-13.2143 0-23.9268785-10.7117-23.9268785-23.9269 0-13.2143 10.7125785-23.926251 23.9268785-23.926251zm111.6971 11.991451c1.404 0 2.341.224 3.074.4417.103.0314.176.1203.189.2246l.002.0351v3.1171c.001.043-.009.0853-.029.1236-.019.0383-.047.0714-.082.0966s-.075.0417-.118.0483c-.042.0065-.086.0028-.126-.0107-.694-.2315-1.313-.3846-2.085-.3846-1.267 0-1.846.6446-1.869 2.0868v.0875.5111h6.319c.101 0 .193.056.239.1437l.013.0306 4.321 11.2751 3.945-11.2677c.017-.0476.047-.0896.086-.1213s.086-.0518.136-.0581l.034-.0023h3.851c.041.0001.081.0094.118.0273.037.0178.069.0437.094.0757s.043.0693.052.1091c.008.0398.008.0811-.001.1208l-.012.0363-6.417 16.5828c-1.331 3.4229-2.841 4.6954-5.572 4.6954-1.46 0-2.642-.3025-3.951-1.0114-.055-.0298-.098-.0782-.122-.1366-.023-.0585-.025-.1233-.006-.1831l.012-.0303 1.254-2.7506c.015-.0339.037-.0644.064-.0896.028-.0251.06-.0444.096-.0566.035-.0112.072-.0152.109-.0117.037.0034.073.0143.106.0319.702.384 1.388.5786 2.04.5786.788 0 1.37-.2531 1.956-1.5086l.041-.0894-5.29-12.6851h-3.454v12.6885c0 .0665-.025.1305-.069.1801s-.105.0813-.171.0891l-.031.0017h-3.699c-.066-.0001-.13-.0246-.18-.0687-.049-.0442-.081-.1049-.088-.1707l-.002-.0315v-12.6885h-1.777c-.066-.0002-.13-.0246-.18-.0687s-.082-.1048-.09-.1708l-.001-.0314v-3.1954c0-.1386.105-.2534.24-.2692l.031-.0017h1.777v-.7828c0-3.638 1.806-5.562 5.223-5.562zm-52.5674 6.0225c3.8711 0 7.79 2.9809 7.79 8.6786 0 5.6966-3.9189 8.6766-7.79 8.6766-2.0377 0-3.7174-.7394-5.1092-2.2523l-.0922-.102v6.6377c-.0001.0664-.0244.1305-.0685.1801-.044.0497-.1048.0815-.1707.0893l-.0314.0018h-3.6989c-.0663-.0002-.1303-.0246-.1798-.0688-.0496-.0442-.0811-.105-.0887-.171l-.0018-.0314v-21.0291c0-.1389.1043-.2537.2389-.2695l.0314-.0017h3.6989c.1388 0 .2531.1049.2686.2397l.002.0315v1.8925c1.4091-1.6814 3.118-2.502 5.2014-2.502zm17.8354 0c4.969 0 8.859 3.812 8.859 8.6786 0 4.8829-3.917 8.7089-8.92 8.7089-4.9516 0-8.8304-3.7986-8.8304-8.6469 0-4.9017 3.9057-8.7406 8.8914-8.7406zm-37.3871-5.2262c3.0337 0 5.6291.8991 7.934 2.7485.0491.0395.0829.0948.0957.1565.0128.0616.0037.1258-.0257.1815l-.0186.03-2.0171 2.8435c-.0208.0295-.0473.0545-.078.0734-.0307.019-.0649.0315-.1006.0368-.0357.0058-.0721.0044-.1072-.0041s-.0681-.024-.0971-.0456c-1.9369-1.444-3.7837-2.1454-5.6466-2.1454-1.9217 0-3.2143.9234-3.2143 2.2963 0 1.4526.7358 2.144 4.8669 3.1291 5.0331 1.224 7.0857 3.124 7.0857 6.5595 0 4.0648-3.106 6.6914-7.9126 6.6914-3.3977 0-6.546-1.2074-9.1062-3.4929-.0484-.0428-.0798-.1016-.0883-.1656-.0086-.064.0062-.1289.0417-.1829l.02-.0266 2.2617-2.6917c.023-.0275.0512-.0501.0831-.0665.0318-.0164.0666-.0262.1023-.029.072-.0043.143.0187.1986.0646 2.2003 1.9054 4.1674 2.7177 6.5786 2.7177 2.1711 0 3.5203-.9394 3.5203-2.4505 0-1.364-.6672-2.1266-4.6203-3.0372-4.6446-1.1226-7.3323-2.5768-7.3323-6.684 0-3.83 3.1157-6.5068 7.5763-6.5068zm52.5521 1.132c.139 0 .253.1045.268.2394l.002.0314v4.1617h4.071c.139 0 .252.1049.268.2397l.001.0315v3.1791c.001.0663-.024.1303-.068.1799-.043.0496-.104.0814-.17.0893l-.031.0017h-4.071v7.6465c0 1.2078.53 1.7463 1.716 1.7463.77 0 1.459-.1654 2.172-.524.039-.0194.081-.0292.125-.0286.043.0005.085.0114.124.0318.038.0204.07.0496.095.0853.025.0356.04.0766.046.1195l.002.0349v3.0274c0 .0477-.013.0946-.037.1358s-.058.0753-.1.0988c-1.037.5883-2.138.8623-3.465.8623-3.226 0-4.88-1.6475-4.917-4.8972l-.001-.1125v-8.2263h-1.778c-.067-.0002-.131-.0246-.18-.0688-.049-.0441-.081-.1049-.088-.1707l-.002-.0314v-3.1791c0-.1389.104-.2537.238-.2695l.032-.0017h1.778v-4.1617c0-.0664.025-.1306.069-.1802s.105-.0812.171-.0889l.032-.0017zm-81.6518 18.54c-6.3066-3.8538-14.1249-4.7506-23.2392-2.6669-.191.0434-.3715.124-.5313.2373-.1597.1133-.2956.2569-.3998.4228-.1041.1658-.1746.3506-.2072.5437-.0327.1931-.0269.3908.0169.5816.0436.1909.1243.3714.2376.531.1133.1597.257.2955.4228.3996.1658.1042.3505.1746.5435.2074.1931.0327.3907.0271.5815-.0165 8.3286-1.9026 15.4006-1.1269 21.0194 2.3071.1672.1023.3529.1705.5464.2009.1936.0304.3913.0223.5817-.0237.1905-.0461.37-.1294.5282-.2449.1583-.1156.2922-.2612.394-.4286.1023-.1671.1706-.3527.201-.5463.0305-.1935.0226-.3911-.0234-.5816-.0459-.1904-.1289-.37-.2442-.5283-.1154-.1584-.2608-.2925-.4279-.3946zm91.9528-14.1075c.066.0001.131.0246.18.0688.05.0441.081.105.089.1709l.002.0315v16.1385c0 .0664-.025.1305-.069.1801s-.105.0813-.171.0891l-.031.0017h-3.699c-.067 0-.131-.0244-.18-.0686-.05-.0441-.082-.1049-.089-.1708l-.002-.0315v-16.1385c0-.0665.024-.1306.069-.1802.044-.0497.104-.0814.17-.0893l.032-.0017zm-25.527 3.4449c-2.6601 0-4.5901 2.0588-4.5901 4.8954 0 2.8249 1.9991 4.9554 4.6511 4.9554 2.677 0 4.62-2.0571 4.62-4.8934 0-2.8268-2.013-4.9574-4.681-4.9574zm-18.6307-.0297c-2.5294 0-4.4374 2.1165-4.4374 4.9251 0 2.8089 1.908 4.9252 4.4374 4.9252 2.5586 0 4.3454-2.0243 4.3454-4.9252 0-2.8543-1.828-4.9251-4.3454-4.9251zm-44.9866 3.6634c-7.3851-4.5386-18.188-5.8157-26.8783-3.1789-.47301.1442-.86958.4701-1.10272.9063-.23315.4361-.28383.9469-.14094 1.4203.29942.9846 1.34146 1.5409 2.32796 1.2429 7.6072-2.3092 17.412-1.1643 23.842 2.7883.8769.5388 2.0249.2637 2.5657-.6143.5392-.876.2632-2.0246-.6137-2.5646zm119.7333-7.11c.342-.0014.681.0649.998.1952.316.1303.604.3218.846.5637s.433.5293.564.8456c.13.3164.197.6554.195.9975 0 1.4277-1.153 2.6183-2.617 2.6183s-2.603-1.1757-2.603-2.6034c0-1.428 1.154-2.6169 2.617-2.6169zm0 .2589c-1.333 0-2.342 1.06-2.342 2.358 0 1.2971 1.002 2.3431 2.328 2.3431 1.334 0 2.344-1.0594 2.344-2.358 0-1.2974-1.003-2.3431-2.33-2.3431zm.159.9094c.635 0 1.052.3246 1.052.8714 0 .448-.259.7217-.634.83l.737 1.0309h-.621l-.663-.9455h-.57v.9455h-.52v-2.7323zm-116.7417-2.1269c-8.8789-5.2705-22.9286-5.766-31.38028-3.2005-.56796.1724-1.04416.5634-1.3239 1.087-.27973.5235-.3401 1.1367-.16781 1.7047.08533.2811.22522.5427.41165.7698.18644.2271.41579.4153.67494.5538.25916.1384.54305.2245.83547.2532.29242.0288.58763-.0003.86883-.0857 7.3625-2.2346 20.0842-1.8134 27.7968 2.7669 1.0609.6314 2.4355.2808 3.0663-.7826.1501-.2527.2489-.5325.2908-.8233.0419-.2909.0261-.5872-.0465-.872-.0727-.2847-.2007-.5524-.3768-.7877-.176-.2353-.3968-.4336-.6495-.5836zm116.7207 2.5955h-.678v.8642h.678c.338 0 .54-.1654.54-.4325 0-.2812-.202-.4317-.54-.4317zm-32.558-8.9538c1.465 0 2.653 1.1866 2.653 2.652 0 1.466-1.188 2.6538-2.653 2.6538s-2.654-1.1878-2.654-2.6538c0-1.4654 1.189-2.652 2.654-2.652z" fill="#1f304c"/></g></svg>