<svg fill="none" height="40" viewBox="0 0 117 40" width="117" xmlns="http://www.w3.org/2000/svg"><path d="m21.274 9.056-.82.117c-1.093-2.85-4.216-5.348-7.338-5.348-1.756 0-3.98 1.055-3.98 3.084 0 1.95 2.302 2.494 3.746 2.962l4.567 1.366c3.55 1.093 6.48 2.732 6.48 6.947 0 3.122-1.566 5.465-4.14 7.143-2.46 1.64-5.857 2.305-8.78 2.305-1.995 0-3.517-.235-5.47-.585-.74-.158-1.834-.392-2.575-.392-.898 0-1.522.352-2.108.937l-.856-10.887.86-.117c.74 4.528 4.45 7.925 9.094 7.925 2.42 0 5.386-.977 5.386-3.865 0-2.147-2.07-2.732-3.708-3.24l-3.942-1.286c-1.483-.468-3.318-1.13-4.528-2.108-1.405-1.132-2.302-2.93-2.302-4.722 0-2.538 1.522-5.036 3.59-6.48 2.147-1.486 4.762-2.112 7.338-2.112 1.484 0 2.576.235 4.02.51.626.116 1.445.31 2.03.31.78 0 1.874-.273 2.42-.936l1.016 8.47zm11.87-.937h2.967c1.29 0 1.995-.2 2.42-.43l-1.17 3.08c-.465-.35-1.21-.273-1.753-.273h-2.46v9.133c0 1.6.08 4.138 2.343 4.138 1.95 0 3.12-1.832 3.863-3.434l.82.312-1.99 5.582c-1.95.86-4.1 1.29-6.207 1.29-1.717 0-3.786-.47-4.918-1.836-1.21-1.366-1.21-3.318-1.21-5.035v-10.146h-2.77v-.976c2.185-.468 3.278-2.498 3.278-4.606 0-.702-.156-1.406-.312-2.07 2.573-.428 4.954-1.48 7.102-2.848v8.12zm14.052 9.794c.39 3.317 2.264 6.362 5.933 6.362 3.08 0 5.66-1.914 6.83-4.685l.82.313-2.42 7.493c-.43-.272-.746-.507-1.25-.507-.276 0-.588.08-.86.12-1.64.27-3.28.506-4.958.506-2.733 0-5.855-.625-8.12-2.303-2.575-1.874-4.02-4.762-4.02-7.963 0-6.594 5.583-9.99 11.672-9.99 5.152 0 9.525 2.42 10.422 7.806l-14.054 2.85zm6.206-3.67.04-.664c0-1.754-1.29-3.316-3.124-3.316-2.576 0-3.435 3.16-3.357 5.27l6.445-1.288zm16.21 3.67c.39 3.317 2.264 6.362 5.933 6.362 3.084 0 5.66-1.914 6.83-4.685l.82.313-2.42 7.493c-.43-.272-.74-.507-1.248-.507-.274 0-.586.08-.86.12-1.64.27-3.28.506-4.957.506-2.732 0-5.855-.625-8.118-2.303-2.577-1.874-4.02-4.762-4.02-7.963 0-6.594 5.58-9.99 11.67-9.99 5.152 0 9.525 2.42 10.422 7.806l-14.052 2.85zm6.207-3.67.035-.664c0-1.754-1.288-3.316-3.123-3.316-2.576 0-3.435 3.16-3.357 5.27l6.44-1.288zm16.933 8.665c.078 2.03.742 3.045 2.186 3.122v.978h-11.628v-.976c1.444-.078 2.107-1.092 2.146-3.122v-17.6c-.04-2.03-.702-3.046-2.147-3.123v-.977l9.443-.546v22.248zm10.148-4.995c.39 3.317 2.265 6.362 5.934 6.362 3.083 0 5.66-1.914 6.83-4.685l.82.312-2.42 7.493c-.43-.272-.742-.507-1.25-.507-.273 0-.584.08-.86.12-1.638.273-3.277.508-4.955.508-2.733 0-5.856-.625-8.12-2.303-2.575-1.874-4.02-4.762-4.02-7.963 0-6.595 5.582-9.99 11.673-9.99 5.152 0 9.525 2.42 10.42 7.805l-14.05 2.85zm6.208-3.67.04-.664c0-1.754-1.29-3.316-3.124-3.316-2.576 0-3.435 3.16-3.357 5.27l6.44-1.288zm-97.898 23.092-.764 2.518h-1.674l2.847-8.884h2.07l2.885 8.88h-1.74l-.804-2.516h-2.82zm2.544-1.225-.7-2.187c-.17-.54-.315-1.147-.447-1.66h-.027c-.132.513-.264 1.132-.422 1.66l-.685 2.188h2.28zm7.3-5.14v5.18c0 1.74.726 2.544 1.82 2.544 1.173 0 1.872-.804 1.872-2.544v-5.18h1.62v5.075c0 2.74-1.41 3.955-3.547 3.955-2.056 0-3.388-1.147-3.388-3.942v-5.088h1.622zm10.893 1.36h-2.53v-1.36h6.707v1.36h-2.554v7.524h-1.62v-7.524zm10.646 7.67c-2.518 0-4.1-1.925-4.1-4.522 0-2.714 1.728-4.653 4.232-4.653 2.584 0 4.112 1.965 4.112 4.495 0 2.98-1.806 4.68-4.23 4.68zm.08-1.305c1.568 0 2.45-1.45 2.45-3.31 0-1.673-.83-3.255-2.45-3.255-1.622 0-2.466 1.543-2.466 3.31 0 1.766.897 3.255 2.452 3.255h.012zm19.627.752c-.914.3219-1.875.4909-2.844.5-1.503 0-2.65-.382-3.494-1.186-.79-.75-1.24-1.92-1.24-3.265.015-2.82 2.006-4.614 4.945-4.614 1.094 0 1.95.224 2.36.423l-.357 1.306c-.487-.225-1.08-.383-2.016-.383-1.897 0-3.228 1.12-3.228 3.19 0 2.03 1.24 3.215 3.084 3.215.594 0 1.015-.08 1.226-.17v-2.23h-1.568v-1.28h3.132v4.498zm3.78-8.345c.62-.12 1.52-.198 2.455-.198 1.28 0 2.136.21 2.742.712.487.408.764 1.028.764 1.793 0 1.143-.78 1.92-1.62 2.21v.04c.646.237 1.03.857 1.24 1.713.29 1.107.527 2.136.698 2.478h-1.66c-.133-.262-.357-.987-.595-2.094-.26-1.162-.67-1.53-1.593-1.556h-.818v3.65h-1.61v-8.75zm1.61 3.915h.96c1.097 0 1.77-.58 1.77-1.464 0-.962-.673-1.424-1.728-1.424-.513 0-.843.04-1 .08v2.804zm11.53 4.983c-2.52 0-4.1-1.925-4.1-4.522 0-2.714 1.727-4.653 4.23-4.653 2.585 0 4.114 1.965 4.114 4.495 0 2.98-1.807 4.68-4.23 4.68h-.015zm.078-1.305c1.57 0 2.452-1.45 2.452-3.31 0-1.673-.83-3.255-2.452-3.255-1.62 0-2.465 1.543-2.465 3.31 0 1.766.896 3.255 2.452 3.255zm9.204-7.725v5.18c0 1.74.725 2.544 1.82 2.544 1.172 0 1.872-.804 1.872-2.544v-5.18h1.62v5.075c0 2.74-1.41 3.955-3.546 3.955-2.056 0-3.387-1.147-3.387-3.942v-5.088h1.625zm9.225.12c.594-.106 1.397-.185 2.478-.185 1.187 0 2.043.25 2.61.725.527.436.87 1.135.87 1.964 0 .845-.263 1.53-.75 2.004-.66.646-1.663.962-2.81.962-.303 0-.566-.014-.79-.065v3.36h-1.608zm1.61 4.125c.21.066.46.08.79.08 1.213 0 1.952-.607 1.952-1.636 0-.98-.69-1.507-1.81-1.507-.45 0-.765.04-.937.078v2.98z" fill="#1f304c"/></svg>