<svg fill="none" height="48" viewBox="0 0 131 48" width="131" xmlns="http://www.w3.org/2000/svg" xmlns:xlink="http://www.w3.org/1999/xlink"><clipPath id="a"><path d="m0 0h130.8v48h-130.8z"/></clipPath><g clip-path="url(#a)"><path d="m1.7424 40.4784c.93.99 2.2356 1.6836 3.6804 1.6836 1.74-.018 2.964-.672 2.964-1.86 0-2.772-8.016-.0984-8.016-5.1672 0-2.22 2.316-3.744 5.148-3.744 2.0592 0 3.72.6504 4.9488 1.896l-1.7016 1.524c-1.128-1.1064-2.1576-1.482-3.3648-1.482-1.9008 0-2.616.93-2.616 1.6836 0 2.7888 8.016 0 8.016 5.1648 0 2.592-2.6316 4.158-5.4804 4.158-.99559-.0029-1.98029-.2074-2.89473-.6011-.91445-.3937-1.739718-.9685-2.42607-1.6897l1.7424-1.5672zm10.4712-.4344c0 2.6928 2.1 4.296 4.3752 4.296 2.2764 0 4.3728-1.6044 4.3728-4.296v-5.544h-2.0568v5.3664c0 1.404-1.0296 2.412-2.316 2.412-1.2876 0-2.316-1.008-2.316-2.412v-5.364h-2.0592zm10.8876 4.038h2.064v-6.336c0-.87.672-1.4436 1.4232-1.4436.1992 0 .576.12.7728.276l.732-2.0376c-.3407-.2029-.7315-.306-1.128-.2976-.8328 0-1.5444.516-1.8816 1.308h-.0384v-1.05h-1.944v9.5856zm10.218.258 4.434-9.84h-2.298l-2.118 5.484h-.0408l-2.1168-5.484h-2.2968l4.4352 9.84zm12.7464-3.3084c-.7116.948-1.6632 1.488-2.7696 1.488-1.446 0-2.8128-1.0512-2.9328-2.514h7.956v-.3768c0-3.7404-2.9664-5.3856-4.968-5.3856-3.3444 0-5.2824 2.5152-5.2824 5.0496 0 2.532 1.9392 5.0484 5.2848 5.0484 1.7232-.0168 3.306-.888 4.4544-2.334l-1.7436-.972zm-5.7-2.73c.336-1.4244 1.404-2.2368 2.712-2.2368s2.3964.7704 2.832 2.2368zm9.4224 1.7424c0 2.6928 1.74 4.296 3.8784 4.296 1.3248 0 2.076-.396 2.8896-1.308h.0396v.516c0 1.68-1.188 2.514-2.5512 2.514-.8904 0-1.5456-.378-2.1984-1.0104l-1.74 1.068c.93 1.0704 1.902 1.8804 4.0596 1.8804 1.7796 0 4.374-1.2864 4.374-4.2144v-9.2856h-2.058v5.4264c0 1.482-.774 2.472-2.376 2.472-1.2672 0-2.256-.672-2.256-2.2752v-5.6208h-2.0616zm11.1036 4.038h2.2968v-7.68l3.2256 3.3432 3.228-3.3396v7.68h2.2968v-12.69l-5.5248 5.5824-5.52-5.5824v12.6876zm17.796-9.84c-3.348 0-5.2848 2.5152-5.2848 5.052 0 2.532 1.9368 5.0472 5.2848 5.0472 3.3456 0 5.2848-2.5116 5.2848-5.0436 0-2.5356-1.9392-5.0496-5.2836-5.0496zm.0012 8.1588c-1.8 0-3.108-1.38-3.108-3.1032 0-1.7208 1.308-3.108 3.108-3.108s3.108 1.3872 3.108 3.108-1.308 3.1044-3.108 3.1044zm6.732 1.6872h2.0556v-5.364c0-1.5648 1.032-2.4156 2.3568-2.4156 1.368 0 2.28.714 2.28 2.454v5.3256h2.0556v-5.784c0-2.3724-1.7016-4.056-3.72-4.056-1.308 0-2.358.576-2.9316 1.464h-.0408v-1.212h-2.0604v9.582zm11.676 0h2.0592v-3.9996h1.248l2.532 3.9984h2.436l-3.404-5.07 3.244-4.512h-2.492l-2.52 3.6408h-1.0488v-6.492h-2.0592v6.492h-1.3464v1.9392h1.3464v3.996zm16.9032-3.054c-.713.948-1.662 1.488-2.772 1.488-1.444 0-2.81-1.0512-2.928-2.514h7.956v-.3744c0-3.7404-2.969-5.3856-4.968-5.3856-3.343 0-5.286 2.514-5.286 5.0484 0 2.532 1.944 5.0484 5.286 5.0484 1.722-.0204 3.306-.8916 4.452-2.3376l-1.74-.972zm-5.7-2.73c.336-1.422 1.404-2.2344 2.712-2.2344 1.304 0 2.395.7704 2.83 2.2368h-5.544zm9.223 1.7448c0 2.6928 1.74 4.296 3.879 4.296 1.327 0 2.078-.396 2.889-1.308h.04v.516c0 1.68-1.188 2.514-2.556 2.514-.888 0-1.545-.3804-2.196-1.0128l-1.74 1.068c.929 1.0704 1.896 1.8804 4.056 1.8804 1.779 0 4.374-1.2864 4.374-4.2144v-9.288h-2.058v5.4276c0 1.482-.774 2.472-2.376 2.472-1.269 0-2.259-.672-2.259-2.2752v-5.6208h-2.058v5.5416zm11.455-4.86h.232c.101 0 .168.0084.204.0216.035.0141.066.0378.089.0684.018.0288.027.062.027.096 0 .06-.021.108-.064.144-.044.036-.126.054-.24.054h-.252v-.384zm0 1.1004v-.54h.12c.072 0 .125.018.162.048.054.036.126.1368.216.294l.112.2004h.248l-.156-.2484c-.052-.0911-.115-.1757-.187-.252-.031-.0293-.068-.0525-.108-.0684.1-.0019.195-.0434.264-.1152.033-.0317.059-.0698.076-.1119s.026-.0874.025-.1329c0-.0663-.021-.1309-.06-.1848-.039-.0579-.095-.1017-.161-.1248-.106-.0273-.215-.0386-.324-.0336h-.439v1.272h.209zm.312-1.6368c.162 0 .324.0444.483.1284.156.0831.284.2104.368.366.089.1608.132.3264.132.4968-.001.1718-.047.3403-.132.4896-.087.149-.211.2729-.361.3596-.149.0866-.318.1331-.491.1348-.171-.0005-.34-.046-.488-.132-.154-.0842-.282-.2103-.367-.3636-.065-.1131-.106-.2378-.122-.367-.017-.1292-.007-.2603.027-.3858.035-.1255.094-.2429.174-.3456s.179-.1886.293-.2528c.148-.0825.315-.1263.484-.1272zm0-.1932c-.203.0014-.404.0543-.582.1536-.187.099-.34.2509-.441.4368-.105.1799-.16.3845-.16.5928 0 .204.053.3984.156.5856.102.1847.253.3367.438.438.18.1016.382.155.588.155s.409-.0534.588-.155c.18-.1037.33-.2528.434-.4324.105-.1796.16-.3834.161-.5912 0-.2082-.055-.4127-.159-.5928-.102-.1865-.256-.3386-.444-.4368-.176-.0991-.374-.152-.576-.1536zm-51.2576-15.516c.48 0 .876-.3888.876-.876-.001-.1588-.045-.3143-.1272-.4502-.0823-.1358-.1998-.2468-.34-.3212-.1403-.0745-.2981-.1095-.4567-.1015-.1586.0079-.312.0587-.4441.1469-.0036.4644-.0396.924-.0924 1.3752.156.138.36.2244.5832.2244zm-27.8412-.0024c.2188-.0008.4294-.0834.5904-.2316-.0555-.454-.0867-.9107-.0936-1.368-.113-.0783-.2429-.1289-.3791-.1478-.1362-.0188-.275-.0053-.405.0395-.13.0447-.2477.1195-.3434.2182-.0958.0986-.167.2184-.2079.3497s-.0502.2704-.0274.406c.0229.1356.0773.2639.159.3746.0816.1106.1882.2005.311.2623s.2585.0938.396.0935zm27.9888-5.2356c1.1569 0 2.2664.4596 3.0844 1.2776s1.2776 1.9275 1.2776 3.0844-.4596 2.2664-1.2776 3.0844-1.9275 1.2776-3.0844 1.2776c-.5453-.0006-1.0857-.1044-1.5924-.306-.372.9286-.847 1.8125-1.416 2.6352l-3.576-2.436c.96-1.242 1.548-3.0804 1.6344-4.9008.096-1.9632-.3936-3.9036-1.6488-5.0568-2.592-2.2044-5.412-1.2312-7.2.864h-.4728c-1.788-2.136-4.638-3.156-7.2552-.924-1.272 1.1604-1.7556 3.1356-1.6476 5.124.096 1.8024.684 3.6144 1.6404 4.8432l.048.03-3.636 2.4528c-.5689-.8232-1.0438-1.7075-1.416-2.6364-.5069.201-1.0471.3049-1.5924.306-1.1392-.0267-2.2227-.498-3.0189-1.3131-.7962-.8152-1.242-1.9094-1.242-3.0489s.4458-2.2337 1.242-3.0489c.7962-.8151 1.8797-1.2864 3.0189-1.3131.36 0 .708.048 1.0416.1284 1.3752-5.436 6.0636-9.552 11.7924-10.074.444-1.404-.6-2.4144-.93-2.718-.0648-.0564.066-.1008.066-.1008 1.6512.792 1.92 1.908 1.884 2.6484.8508-2.3808 4.6524-3.5844 4.6524-3.5844l.0672.1344c-2.2716 1.3716-2.616 2.796-2.5368 3.7032 2.6209.39119 5.0679 1.54762 7.0341 3.32421 1.9661 1.7766 3.3639 4.09429 4.0179 6.66219.3405-.0836.6898-.1267 1.0404-.1284" fill="#1f304c"/></g></svg>