<svg fill="none" height="40" viewBox="0 0 106 40" width="106" xmlns="http://www.w3.org/2000/svg"><g fill="#1f304c"><path d="m37.1539 3.65442h4.3896v1.29112h-1.4848v7.74666h-1.4202v-7.74666h-1.4846z"/><path d="m43.5826 7.46314h1.9496v1.29112h-1.9496v2.64684h2.4532v1.2911h-3.8734v-9.03777h3.8734v1.29112h-2.4532zm2.0273-5.71961-1.3171 1.43307h-.9552l.8779-1.43307z"/><path d="m46.9134 3.65442h1.42v7.74668h2.3369v1.2911h-3.7569z"/><path d="m52.7095 7.46314h1.9496v1.29112h-1.9496v2.64684h2.4532v1.2911h-3.8731v-9.03777h3.8731v1.29112h-2.4532zm2.0273-5.71961-1.3171 1.43307h-.9552l.8779-1.43307z"/><path d="m60.159 9.3223v1.2007c0 1.446-.7231 2.2723-2.1173 2.2723-1.3944 0-2.1175-.8263-2.1175-2.2723v-4.69951c0-1.44596.7231-2.27234 2.1175-2.27234 1.3942 0 2.1173.82638 2.1173 2.27234v.87792h-1.3429v-.96834c0-.64555-.2839-.89081-.736-.89081-.4518 0-.7359.24526-.7359.89081v4.88033c0 .6456.2841.8779.7359.8779.4519 0 .736-.2323.736-.8779v-1.2911z"/><path d="m60.9069 5.82349c0-1.44596.762-2.27234 2.1562-2.27234 1.3944 0 2.1561.82638 2.1561 2.27234v4.69951c0 1.446-.7617 2.2723-2.1561 2.2723-1.3942 0-2.1562-.8263-2.1562-2.2723zm1.4204 4.78991c0 .6456.2841.8908.736.8908.4518 0 .736-.2452.736-.8908v-4.88033c0-.64555-.2839-.89081-.736-.89081-.4519 0-.736.24526-.736.89081z"/><path d="m69.1308 10.0713h.0258l.9554-6.41688h1.9754v9.03778h-1.3429v-6.48132h-.0258l-.9552 6.48132h-1.3429l-1.033-6.39091h-.0257v6.39091h-1.2394v-9.03757h1.9753z"/><path d="m75.0304 3.55115c1.3815 0 2.0915.82638 2.0915 2.27234v.2839h-1.3429v-.37432c0-.64555-.2581-.89081-.7102-.89081-.4518 0-.71.24526-.71.89081 0 .65845.2839 1.14917 1.2134 1.96245 1.1878 1.04586 1.5622 1.7945 1.5622 2.82748 0 1.446-.7229 2.2723-2.1173 2.2723s-2.1173-.8263-2.1173-2.2723v-.55514h1.3426v.64554c0 .6456.2842.8779.736.8779.4519 0 .7362-.2323.7362-.8779 0-.65843-.2841-1.14915-1.2136-1.96243-1.1878-1.04586-1.5621-1.7945-1.5621-2.82748 0-1.44596.7099-2.27234 2.0915-2.27234z"/><path d="m39.4776 15.1482c1.3816 0 2.0916.8264 2.0916 2.2723v.2839h-1.3429v-.3743c0-.6455-.2581-.8908-.7102-.8908-.4519 0-.71.2453-.71.8908 0 .6585.2839 1.1492 1.2134 1.9625 1.1878 1.0458 1.5621 1.7945 1.5621 2.8274 0 1.446-.7229 2.2724-2.1173 2.2724s-2.1173-.8264-2.1173-2.2724v-.5551h1.3427v.6456c0 .6455.2841.8779.736.8779.4518 0 .7362-.2324.7362-.8779 0-.6585-.2842-1.1492-1.2136-1.9625-1.1878-1.0458-1.5622-1.7945-1.5622-2.8275 0-1.4461.71-2.2723 2.0915-2.2723z"/><path d="m46.9914 24.2891h-1.4333l-.2453-1.6397h-1.7429l-.2455 1.6397h-1.304l1.4459-9.0378h2.0789zm-3.2405-2.8664h1.3684l-.6713-4.5704h-.0258z"/><path d="m48.9405 17.7433h-.0257v6.5458h-1.2783v-9.0378h1.7819l1.433 5.4097h.0258v-5.4097h1.2654v9.0378h-1.4589z"/><path d="m55.0722 15.1482c1.3815 0 2.0915.8264 2.0915 2.2723v.2839h-1.3429v-.3743c0-.6455-.2581-.8908-.7102-.8908-.4518 0-.71.2453-.71.8908 0 .6585.284 1.1492 1.2134 1.9625 1.1878 1.0458 1.5622 1.7945 1.5622 2.8274 0 1.446-.7229 2.2724-2.1173 2.2724s-2.1173-.8264-2.1173-2.2724v-.5551h1.3426v.6456c0 .6455.2842.8779.736.8779.4519 0 .7362-.2324.7362-.8779 0-.6585-.2841-1.1492-1.2136-1.9625-1.1878-1.0458-1.5621-1.7945-1.5621-2.8275 0-1.4461.7102-2.2723 2.0915-2.2723z"/><path d="m61.4108 19.2666h1.8334v1.2911h-1.8334v3.7314h-1.4202v-9.0378h3.7572v1.2911h-2.337z"/><path d="m67.4011 24.2891c-.0773-.2324-.1292-.3745-.1292-1.1103v-1.4202c0-.8393-.284-1.1491-.9295-1.1491h-.4907v3.6796h-1.42v-9.0378h2.1431c1.4719 0 2.1046.6844 2.1046 2.0788v.7102c0 .9295-.297 1.5235-.9297 1.8205v.0258c.7102.297.9426.9683.9426 1.9109v1.3944c0 .439.0131.7617.155 1.0974h-1.4462zm-1.5494-7.7467v2.7759h.5553c.5294 0 .8522-.2323.8522-.9554v-.8908c0-.6456-.2195-.9297-.7231-.9297z"/><path d="m69.5047 17.4205c0-1.4459.762-2.2723 2.1562-2.2723 1.3944 0 2.1561.8264 2.1561 2.2723v4.6995c0 1.446-.7617 2.2724-2.1561 2.2724-1.3942 0-2.1562-.8264-2.1562-2.2724zm1.4204 4.79c0 .6455.2841.8908.736.8908.4518 0 .7359-.2453.7359-.8908v-4.8804c0-.6455-.2839-.8908-.7359-.8908-.4519 0-.736.2453-.736.8908z"/><path d="m76.0245 17.7433h-.0258v6.5458h-1.2782v-9.0378h1.7818l1.4331 5.4097h.0257v-5.4097h1.2654v9.0378h-1.4589z"/><path d="m79.8323 15.2513h4.3899v1.2911h-1.4849v7.7467h-1.4201v-7.7467h-1.4849z"/><path d="m84.8414 15.2513h1.42v9.0378h-1.42z"/><path d="m88.7143 19.0598h1.9496v1.2912h-1.9496v2.6468h2.4532v1.2912h-3.8734v-9.0379h3.8734v1.2912h-2.4532zm.4003-5.7193.8779 1.433h-1.0198l-1.3171-1.433z"/><path d="m95.0144 24.2891c-.0775-.2324-.1293-.3745-.1293-1.1103v-1.4202c0-.8393-.2839-1.1491-.9295-1.1491h-.4907v3.6796h-1.4202v-9.0378h2.1433c1.472 0 2.1046.6844 2.1046 2.0788v.7102c0 .9295-.297 1.5235-.9297 1.8205v.0258c.7102.297.9426.9683.9426 1.9109v1.3944c0 .439.0131.7617.1551 1.0974h-1.4462zm-1.5495-7.7467v2.7759h.5554c.5294 0 .8521-.2323.8521-.9554v-.8908c0-.6456-.2194-.9297-.723-.9297z"/><path d="m98.6545 19.06h1.9495v1.2911h-1.9495v2.6469h2.4535v1.2911h-3.8734v-9.0378h3.8734v1.2911h-2.4535z"/><path d="m103.896 15.1482c1.382 0 2.091.8264 2.091 2.2723v.2839h-1.342v-.3743c0-.6455-.259-.8908-.711-.8908-.451 0-.71.2453-.71.8908 0 .6585.284 1.1492 1.214 1.9625 1.188 1.0458 1.562 1.7945 1.562 2.8274 0 1.446-.723 2.2724-2.117 2.2724-1.395 0-2.118-.8264-2.118-2.2724v-.5551h1.343v.6456c0 .6455.284.8779.736.8779s.736-.2324.736-.8779c0-.6585-.284-1.1492-1.213-1.9625-1.188-1.0458-1.563-1.7945-1.563-2.8275 0-1.4461.71-2.2723 2.092-2.2723z"/><path d="m37.2796 31.1547c0-.2674.047-.5337.1411-.7992.0941-.2652.2306-.5023.4104-.7114.1797-.2092.4012-.3793.6645-.5109.2632-.1317.562-.1974.8963-.1974.3971 0 .7367.09 1.0184.2695.282.1798.4899.4136.6237.702l-.3447.2131c-.0711-.1463-.1576-.2695-.2601-.3698-.1024-.1003-.2119-.1819-.329-.2444-.117-.0627-.2382-.1076-.3634-.1349-.1254-.027-.2486-.0406-.37-.0406-.2674 0-.5036.0544-.7082.163-.2047.1087-.3772.2507-.517.4263-.14.1755-.2456.3728-.3167.5923s-.1066.442-.1066.6675c0 .2465.0428.4825.1287.7083.0855.2257.2025.4252.3511.5987.1482.1735.3237.3114.5264.4136.2025.1025.4231.1536.6612.1536.1254 0 .2539-.0157.3855-.0471.1317-.0313.259-.0814.3823-.1505.1232-.0689.2371-.1546.3416-.2571.1044-.1024.1923-.2265.2633-.3728l.3636.1879c-.0711.1671-.1716.3144-.3008.442-.1298.1276-.2737.2351-.4326.3228-.1589.0878-.3268.1546-.5046.2005-.1779.046-.3522.069-.5234.069-.3052 0-.5852-.0668-.8399-.2006-.2552-.1338-.4744-.3082-.658-.5234-.1839-.2151-.3271-.4595-.4295-.7334-.1025-.2736-.1536-.5523-.1536-.8366z"/><path d="m43.1777 33.4738c-.2379 0-.4555-.0449-.6518-.1347-.1965-.0898-.3666-.212-.5109-.3668-.1441-.1546-.2557-.3344-.3354-.539-.0793-.2047-.119-.4199-.119-.6456 0-.2298.0406-.4471.122-.652.0816-.2047.1943-.3844.3384-.539.1444-.1547.3145-.2779.511-.3698.1962-.092.4114-.1379.6455-.1379s.4504.0459.6488.1379c.1986.0919.37.2151.5141.3698.1443.1546.2571.3343.3385.539.0816.2049.1222.4222.1222.652 0 .2257-.04.4409-.1192.6456-.0795.2048-.1914.3846-.3355.539-.1441.1546-.3157.2768-.5141.3668-.198.0898-.4164.1347-.6546.1347zm-1.1846-1.6799c0 .1839.0314.3542.0941.5107.0627.1566.1473.2947.2538.4137.1066.1189.232.2121.3763.2789.1441.067.2976.1003.4606.1003s.3168-.0343.4609-.1033c.1441-.0689.2706-.163.3793-.282.1086-.1189.1943-.2579.2568-.4168.0627-.1587.0941-.3301.0941-.5139 0-.1796-.0314-.3499-.0941-.5107-.0625-.1609-.1482-.3009-.2568-.4201-.1087-.1192-.2352-.213-.3793-.2819-.1441-.069-.2979-.1033-.4609-.1033s-.3154.0345-.4574.1033c-.1422.0689-.2676.164-.3762.2852-.1087.1211-.1942.2622-.2569.423-.0629.1609-.0943.3331-.0943.5169z"/><path d="m50.3729 33.4111h-.426v-1.8239c0-.3802-.0606-.6602-.1819-.84-.1214-.1797-.3007-.2695-.5391-.2695-.1254 0-.2435.023-.3539.069-.111.0459-.2133.1108-.3073.1943-.0939.0836-.1766.1828-.2474.2977-.0711.1149-.1254.2414-.163.3792v1.9932h-.4263v-1.8239c0-.3887-.0584-.6707-.1753-.8462-.117-.1754-.2967-.2633-.5392-.2633-.2465 0-.466.0857-.658.2571-.1922.1714-.3301.3971-.4136.6769v1.9996h-.4263v-3.2656h.3887v.7396c.1338-.2506.3092-.446.5266-.586.2173-.1401.4576-.2101.7207-.2101.2757 0 .4963.0773.6612.232.1652.1546.2663.3573.3039.6079.3049-.5598.725-.8399 1.2598-.8399.1838 0 .3395.0335.4671.1003.1275.067.2297.162.3071.2852.0773.1233.1337.2717.1692.445.0354.1735.0532.3668.0532.5798v1.9116z"/><path d="m56.1331 33.4111h-.4261v-1.8239c0-.3802-.0605-.6602-.1819-.84-.1213-.1797-.3006-.2695-.539-.2695-.1254 0-.2435.023-.3539.069-.111.0459-.2133.1108-.3073.1943-.0941.0836-.1766.1828-.2474.2977-.0711.1149-.1254.2414-.163.3792v1.9932h-.4263v-1.8239c0-.3887-.0584-.6707-.1753-.8462-.117-.1754-.2968-.2633-.5392-.2633-.2466 0-.466.0857-.658.2571-.1922.1714-.3301.3971-.4136.6769v1.9996h-.4263v-3.2656h.3887v.7396c.1338-.2506.3092-.446.5266-.586.2173-.1401.4576-.2101.7207-.2101.2757 0 .4963.0773.6612.232.1652.1546.2663.3573.3039.6079.3049-.5598.725-.8399 1.2598-.8399.1838 0 .3395.0335.467.1003.1276.067.2298.162.3071.2852.0774.1233.1338.2717.1693.445.0354.1735.0532.3668.0532.5798v1.9116z"/><path d="m58.0573 33.4738c-.3552 0-.6195-.1181-.7928-.3541s-.2601-.5882-.2601-1.0562v-1.918h.4261v1.8428c0 .7397.253 1.1095.7585 1.1095.1252 0 .2485-.0209.3698-.0627.1213-.0419.2328-.1025.3354-.1819.1025-.0793.1942-.1734.2758-.282.0814-.1085.1473-.232.1974-.3698v-2.0559h.426v2.7141c0 .117.0503.1755.1506.1755v.376c-.0501.0084-.0911.0127-.1222.0127-.0312 0-.0533 0-.0659 0-.1003-.0043-.1819-.0398-.2444-.1068-.0628-.0668-.0941-.1565-.0941-.2695v-.376c-.142.2549-.3355.4522-.5796.5923-.2446.14-.5047.21-.7805.21z"/><path d="m63.5042 33.4111h-.4263v-1.824c0-.3887-.0576-.6707-.1722-.8461-.1152-.1755-.2915-.2633-.5299-.2633-.1254 0-.2506.023-.376.0689-.1254.046-.2414.1108-.3479.1944-.1065.0835-.2014.1827-.2852.2976-.0835.1149-.1441.2393-.1817.3729v1.9996h-.4263v-3.2656h.3887v.7396c.1338-.2382.325-.4304.5736-.5768.2485-.1463.5191-.2193.8116-.2193.1798 0 .3322.0335.4577.1003.1254.067.2257.1608.3008.282.0752.1211.1295.2695.163.4449.0333.1755.0501.3698.0501.5829z"/><path d="m64.4127 29.4624v-.6266h.4262v.6266zm0 3.9487v-3.2655h.4262v3.2655z"/><path d="m65.5536 31.7691c0-.2298.0397-.4472.119-.652.0794-.2047.1913-.3834.3354-.5359.1443-.1524.3168-.2727.5172-.3603.2005-.0879.4219-.1317.6644-.1317.309 0 .5786.07.8086.2101.23.14.4033.329.5203.5671l-.4138.1317c-.0919-.1671-.2204-.2977-.3855-.3917-.1652-.0941-.3477-.1411-.5485-.1411-.1671 0-.3228.0335-.4669.1003-.1443.067-.2695.1578-.376.2727-.1067.1151-.1903.2517-.2508.4106-.0606.1589-.0909.3322-.0909.5204 0 .1838.0314.3573.0941.5201s.1482.3041.2568.4231c.1087.1192.2352.2132.3793.282.1443.0689.2978.1033.4608.1033.1044 0 .2079-.0146.3104-.0439.1024-.0292.1973-.07.285-.1221.0878-.0522.163-.1117.2257-.1787.0627-.0668.1065-.1379.1316-.2131l.4199.1252c-.046.1171-.1128.2247-.2006.3228-.0879.0984-.1914.1839-.3101.2571-.1192.0732-.2509.1297-.395.1692-.1443.0397-.2935.0595-.4482.0595-.2381 0-.4576-.0449-.658-.1347-.2008-.0897-.3741-.2132-.5203-.3698-.1465-.1565-.2601-.3373-.3417-.542-.0816-.2049-.1222-.4242-.1222-.6582z"/><path d="m70.0411 33.4738c-.1548 0-.2978-.0262-.4295-.0784-.1314-.0522-.2463-.1243-.3444-.2162-.0984-.092-.1746-.1996-.2287-.3228-.0544-.1233-.0817-.2558-.0817-.398 0-.1421.0333-.2736.1003-.3949.067-.1211.1609-.2257.282-.3133.1211-.0877.2652-.1557.4325-.2036s.3512-.0722.5515-.0722c.1671 0 .3363.0146.5077.044.1714.0295.3239.0711.4577.1252v-.2946c0-.2884-.0817-.5171-.2447-.6864-.163-.1692-.3887-.2538-.6766-.2538-.1671 0-.3385.0335-.5142.1003-.1754.067-.3532.163-.5326.2884l-.1505-.282c.4222-.2841.8315-.4263 1.2286-.4263.4095 0 .7312.1151.9653.3447.2339.2298.3509.5474.3509.9527v1.473c0 .117.0522.1755.1566.1755v.376c-.0711.0127-.1252.0187-.163.0187-.1087 0-.1931-.0271-.2538-.0814-.0606-.0541-.0932-.1295-.0971-.2257l-.0127-.2569c-.1503.1965-.3395.3469-.5674.4512-.2274.1044-.4729.1568-.7362.1568zm.1003-.3258c.2215 0 .425-.0416.6112-.1254.1858-.0835.3267-.1944.4231-.3322.0376-.0376.0659-.0784.0846-.1222.0189-.0441.0284-.0846.0284-.1222v-.5328c-.1422-.0542-.2895-.096-.442-.1252-.1527-.0292-.3084-.0441-.4671-.0441-.3006 0-.5453.0627-.7332.1882-.1881.1252-.2819.2905-.2819.4952 0 .1003.0197.1943.0594.282.0398.0878.0941.164.163.2287.069.0648.1514.1159.2474.1535s.1983.0565.3071.0565z"/><path d="m74.1781 33.2546c-.0249.0124-.0617.0292-.1098.05-.0481.0211-.1033.0419-.166.0627-.0627.0209-.1338.0398-.213.0565-.0795.0166-.163.0251-.2508.0251-.092 0-.1796-.0126-.2633-.0375-.0838-.0249-.1566-.0636-.2193-.116-.0627-.0522-.1128-.1179-.1503-.1974-.0376-.0792-.0565-.1711-.0565-.2757v-2.3379h-.4514v-.3384h.4514v-1.1032h.4261v1.1032h.7523v.3384h-.7523v2.2189c.0083.1211.0511.21.1286.2663.0771.0565.166.0846.2663.0846.1211 0 .2279-.0197.3196-.0595.0919-.0397.1505-.0678.1754-.0846z"/><path d="m74.7109 29.4624v-.6266h.4263v.6266zm0 3.9487v-3.2655h.4263v3.2655z"/><path d="m77.4686 33.4738c-.238 0-.4555-.0449-.6518-.1347-.1965-.0898-.3666-.212-.5109-.3668-.1441-.1546-.2558-.3344-.3355-.539-.0792-.2047-.119-.4199-.119-.6456 0-.2298.0406-.4471.122-.652.0816-.2047.1944-.3844.3385-.539.1443-.1547.3144-.2779.5109-.3698.1963-.092.4115-.1379.6455-.1379.2341 0 .4504.0459.6488.1379.1987.0919.37.2151.5141.3698.1444.1546.2571.3343.3385.539.0816.2049.1222.4222.1222.652 0 .2257-.0399.4409-.1192.6456-.0794.2048-.1913.3846-.3354.539-.1441.1546-.3157.2768-.5142.3668-.198.0898-.4162.1347-.6545.1347zm-1.1844-1.6799c0 .1839.0313.3542.094.5107.0627.1566.1474.2947.2539.4137.1065.1189.2319.2121.3762.2789.1441.067.2977.1003.4607.1003s.3167-.0343.4608-.1033c.1442-.0689.2706-.163.3793-.282.1087-.1189.1944-.2579.2569-.4168.0627-.1587.094-.3301.094-.5139 0-.1796-.0313-.3499-.094-.5107-.0625-.1609-.1482-.3009-.2569-.4201s-.2351-.213-.3793-.2819c-.1441-.069-.2978-.1033-.4608-.1033s-.3155.0345-.4574.1033c-.1422.0689-.2676.164-.3763.2852-.1087.1211-.1941.2622-.2569.423-.0631.1609-.0942.3331-.0942.5169z"/><path d="m82.5515 33.4111h-.4263v-1.824c0-.3887-.0575-.6707-.1722-.8461-.1151-.1755-.2914-.2633-.5298-.2633-.1254 0-.2506.023-.376.0689-.1255.046-.2414.1108-.3479.1944-.1066.0835-.2015.1827-.2852.2976-.0836.1149-.1441.2393-.1817.3729v1.9996h-.4263v-3.2656h.3887v.7396c.1338-.2382.3249-.4304.5736-.5768.2485-.1463.5191-.2193.8116-.2193.1797 0 .3322.0335.4576.1003.1254.067.2257.1608.3009.282.0752.1211.1295.2695.163.4449.0333.1755.05.3698.05.5829z"/><path d="m84.545 33.4738c-.2551 0-.5036-.0419-.746-.1255-.2423-.0835-.4512-.2046-.6267-.3635l.1941-.2882c.1839.1503.3709.2633.561.3384.19.0752.3938.1128.6112.1128.2633 0 .4731-.0535.6301-.16.1565-.1065.2349-.2579.2349-.4545 0-.0919-.021-.1681-.0627-.2287-.0417-.0605-.1033-.1138-.1847-.1597-.0816-.046-.1838-.0868-.3073-.1222-.1233-.0355-.2663-.072-.4293-.1098-.1879-.0459-.3511-.0919-.4888-.1379-.1381-.0459-.2519-.0981-.3417-.1565-.0899-.0584-.1565-.1306-.2005-.2163-.0439-.0854-.066-.1933-.066-.3228 0-.163.0322-.3071.0971-.4325.0649-.1252.1525-.2287.2633-.3103.1108-.0814.2403-.143.3887-.1849.1482-.0417.3062-.0627.4733-.0627.2506 0 .4785.0408.6832.1222.2046.0814.37.189.4952.3228l-.2068.2506c-.1211-.1252-.2685-.2193-.442-.282s-.3539-.0941-.542-.0941c-.1128 0-.2174.0116-.3134.0346-.0962.023-.1808.0595-.254.1098-.073.05-.1306.1138-.1725.1911-.0416.0773-.0625.1681-.0625.2727 0 .0879.0144.159.0439.2131.0292.0543.077.1013.144.1411.0671.0397.1515.0751.2541.1065.1024.0313.2266.0638.3728.0973.209.05.3926.1003.5515.1503.1587.05.2914.1087.3982.1755.1065.067.1868.1484.2411.2444.0544.0962.0817.213.0817.3509 0 .3008-.1149.539-.3447.7145-.23.1756-.5393.2635-.9278.2635z"/><path d="m88.2679 33.4111v-2.9271h-.4514v-.3384h.4514v-.0877c0-.4011.0855-.7155.2569-.9434s.4052-.3417.702-.3417c.1297 0 .2549.0187.3761.0565.1211.0378.2257.0878.3135.1506l-.1316.3071c-.0584-.046-.1306-.0817-.2163-.1068s-.1724-.0376-.2601-.0376c-.2008 0-.3532.0773-.4576.232-.1044.1546-.1566.3782-.1566.6707v.1003h.9027v.3384h-.9027v2.9271z"/><path d="m91.4082 33.4738c-.238 0-.4555-.0449-.6518-.1347-.1965-.0898-.3666-.212-.5109-.3668-.1441-.1546-.2558-.3344-.3355-.539-.0792-.2047-.1189-.4199-.1189-.6456 0-.2298.0406-.4471.122-.652.0816-.2047.1943-.3844.3384-.539.1443-.1547.3144-.2779.5109-.3698.1963-.092.4115-.1379.6456-.1379s.4503.0459.6488.1379c.1986.0919.37.2151.5141.3698.1443.1546.257.3343.3384.539.0816.2049.1222.4222.1222.652 0 .2257-.0399.4409-.1192.6456-.0794.2048-.1913.3846-.3354.539-.1441.1546-.3157.2768-.5141.3668-.198.0898-.4164.1347-.6546.1347zm-1.1846-1.6799c0 .1839.0313.3542.0941.5107.0627.1566.1473.2947.2538.4137.1065.1189.2319.2121.3763.2789.1441.067.2976.1003.4606.1003s.3168-.0343.4609-.1033c.1441-.0689.2706-.163.3792-.282.1087-.1189.1944-.2579.2569-.4168.0627-.1587.094-.3301.094-.5139 0-.1796-.0313-.3499-.094-.5107-.0625-.1609-.1482-.3009-.2569-.4201-.1086-.1192-.2351-.213-.3792-.2819-.1441-.069-.2979-.1033-.4609-.1033s-.3155.0345-.4574.1033c-.1422.0689-.2676.164-.3763.2852-.1086.1211-.1941.2622-.2568.423-.0629.1609-.0943.3331-.0943.5169z"/><path d="m95.3756 30.5217c-.2884.0084-.539.0878-.752.2382-.2133.1505-.3636.3573-.4515.6206v2.0308h-.4263v-3.2656h.4012v.7834c.1211-.2506.2841-.4471.4888-.5893.2047-.1419.4241-.213.658-.213.0335 0 .0606.0021.0816.0062v.3887z"/><path d="m97.4128 28.8354h.4261v3.836c0 .1212.0335.2163.1005.2852.0668.069.1606.1035.2819.1035.046 0 .1005-.0062.1633-.0189.0624-.0124.1209-.0292.1752-.05l.0754.3447c-.0795.0335-.1766.0605-.2915.0814-.1148.0208-.2141.0313-.2976.0313-.1965 0-.3511-.0554-.4639-.166-.1127-.1106-.1692-.2665-.1692-.4669v-3.9803z"/><path d="m99.0983 29.4624v-.6266h.4263v.6266zm0 3.9487v-3.2655h.4263v3.2655z"/><path d="m100.622 33.4111v-2.9271h-.452v-.3384h.452v-.0877c0-.4011.085-.7155.256-.9434.172-.2279.406-.3417.703-.3417.129 0 .254.0187.376.0565.121.0378.225.0878.313.1506l-.132.3071c-.058-.046-.13-.0817-.216-.1068-.085-.0251-.172-.0376-.26-.0376-.201 0-.353.0773-.458.232-.104.1546-.156.3782-.156.6707v.1003h.903v.3384h-.903v2.9271z"/><path d="m103.781 33.4739c-.238 0-.457-.0449-.655-.1347-.199-.0897-.371-.2132-.517-.3698-.147-.1565-.261-.3374-.342-.542-.082-.2047-.122-.4242-.122-.658 0-.2298.04-.4461.122-.6488.081-.2025.194-.3804.338-.5328.145-.1525.317-.2736.517-.3634.201-.0898.418-.1349.652-.1349.238 0 .457.0449.655.1349.199.09.369.212.511.3666s.253.3322.332.5328c.08.2006.12.4136.12.6393v.1003c0 .0335-.003.0565-.007.069h-2.795c.012.1754.053.3373.122.4857s.157.2769.266.3855c.109.1087.233.1933.373.2539.14.0605.289.0908.448.0908.105 0 .209-.0146.314-.044.104-.0292.2-.0689.288-.1192.088-.05.167-.1117.238-.1849.071-.073.125-.1536.163-.2414l.37.1003c-.05.1213-.121.2311-.213.329-.092.0984-.199.1838-.32.2571-.121.0732-.255.1297-.401.1692s-.299.0595-.457.0595zm1.203-1.868c-.013-.1754-.053-.3352-.122-.4793s-.157-.2684-.264-.373c-.106-.1044-.229-.1858-.369-.2444-.14-.0584-.29-.0879-.449-.0879-.158 0-.309.0295-.451.0879-.142.0586-.266.14-.373.2444-.106.1046-.192.2298-.257.376-.065.1463-.103.305-.116.4763z"/><path d="m22.7487 14.0772c-.7869.3276-1.1944.877-1.1944 1.6094v.1759l.1626.1306c.0909.0702.2823.1951.4259.2756.2263.1255.2635.1547.2635.2176 0 .108-.0913.2784-.2726.5052-.2409.2992-.2999.4154-.3145.6175-.0279.3387.1593.6782.5996 1.0937.2967.2765.3132.3444.1238.4939-.2577.2057-.4089.4119-.5495.7536-.1263.307-.0672.8356.1427 1.2746.1417.2917.2589.3871.6174.495.4202.1281.5403.171.6006.2234.0497.0436.051.0816.0334.5786l-.022.5333.0759.153c.113.233.33.3779.923.6138.6461.2557 2.3718 1.1854 3.2706 1.7601 1.1293.7228 1.3694.9491 1.4332 1.3536.0491.2974-.1676.7523-.5416 1.1468-.1432.1499-.399.4422-.5716.6528-.1715.2098-.4663.5441-.6529.738-.3551.3731-.5109.5779-.6583.874-.168.3316-.1762.5777-.0254.7192.0924.0849.2895.0713.4995-.0331.2769-.1392.9887-.8205 1.6828-1.6156.7003-.8034 1.4106-1.8258 1.9448-2.7984.0603-.1086.1986-.3474.3088-.5271.4826-.7961.8303-1.6985.9942-2.5721.0241-.1289.0812-.385.1261-.5703.3256-1.2976.4572-2.4028.4572-3.8142 0-2.2235-.4189-4.2328-1.3055-6.2647-.5622-1.2838-1.4056-2.6479-2.315-3.73508-.1103-.13138-.2387-.29251-.2844-.35435-.0453-.06241-.2445-.27629-.4435-.4731-.3227-.32561-.3804-.37115-.5943-.46618-.307-.13762-.4781-.14617-.6513-.02978-.1923.12483-.2357.25808-.2498.76799-.0045.26291-.036.59176-.081.85496-.0332.23286-.0996.78064-.1392 1.21574-.0418.4354-.097.9349-.1305 1.1084-.0293.1725-.0678.4039-.0867.5142-.1114.7334-.1307.7996-.2905.9598-.1694.1683-.3737.2268-.9976.2927-.6321.0634-1.8171.3441-2.3135.551z"/><path d="m16.773 10.8577c.174.0469.32.0497.486.007.166-.0413.4172-.28.5175-.492.0774-.1687.1051-.42185.0575-.56404-.0689-.21549-.4107-.43516-.747-.48429-.1235-.01907-.148-.01443-.3058.08802-.322.20004-.3927.2594-.4731.3978-.0683.11838-.0797.16702-.0797.35111 0 .1886.0091.2295.0865.3546.1019.164.2694.2905.4581.3418z"/><path d="m13.1707 9.85482c-.2531.17118-1.1727.87578-1.6058 1.22958-.3562.2909-.781.7188-.9096.9114-.1056.1571-.107.1684-.107.418.0033.3216.0806.5966.2379.831.1696.2524.4039.4218.7818.5652.1883.0687 1.2742.3654 1.7207.4681.4289.0966.5385.1586.6681.3824.0808.1371.0759.2186-.0347.4643-.0949.2248-.2821.4695-.5591.7407-.1665.1606-.2454.2577-.2454.3015 0 .1251.1159.4321.2225.5981.1754.2702.2872.3482.6142.4097.1986.0407.3066.1317.3563.3012.0622.22.098.9242.0633 1.2728-.0389.4068-.1026.5614-.3033.7517-.2417.2261-.5896.379-1.1183.4878-.7358.1489-.9255.3183-.8572.7523.0639.3956.222.6481.5365.8633.1899.128.349.2957.4287.4512.0296.0628.0931.2667.1398.4557.14.566.3909.9966.7123 1.2247.3813.2637 1.0135.466 1.6951.5366.3593.0394 1.1327.0344 1.4882-.0082 1.1112-.1364 1.7992-.4753 2.1695-1.0777.2417-.3902.3633-.7667.5847-1.8072.1267-.5928.1533-.7691.1737-1.1797.0152-.2656.0387-.681.0535-.9218.0133-.2435.0393-.7696.0554-1.1669.0939-2.2091.1233-2.7508.1679-3.0375.0165-.1013.044-.3766.0582-.6102.0566-.7735.1224-1.0377.3392-1.3962.0774-.1272.2322-.4126.3481-.6361.2525-.4931.4138-.6738.7357-.8372.2735-.1386.5858-.2008 1.1991-.2427.2695-.0173.6068-.05.7464-.0717.5435-.0904 1.0718-.3233 1.3952-.6193.5238-.4796.6518-.96557.7116-2.67663.0286-.90286-.1761-1.7398-.509-2.06447-.2549-.24509-1.2239-.8284-1.996-1.20259-1.7516-.84681-3.7429-1.32931-6.0156-1.46172-.5869-.03205-.7292-.01574-1.0098.12559-.3629.18676-.4022.26226-.5879 1.12624-.2847 1.32028-.3725 1.63206-.7145 2.49887-.3398.8615-.7347 1.61925-1.1469 2.19678-.2056.28856-.3485.42466-.6835.65305zm2.1295-.22289c.0955-.2063.8575-.62666 1.2949-.70909.8478-.16522 1.8179.22934 2.1662.88208l.0908.17111-.0491.11257c-.0315.064-.2184.2811-.4337.5006-.3767.3835-.5469.5114-.8485.633-.0797.0325-.2255.0571-.3983.0654-.2349.0082-.2941 0-.4646-.0609-.5069-.1832-1.0771-.7536-1.2951-1.29222-.0773-.19394-.0891-.24564-.0626-.30255z"/><path d="m.762793 24.0196c.564147 1.7105 1.424417 3.323 2.539847 4.7576.29877.3854.8432 1.0101.97864 1.123.06621.0543.21359.1859.33178.2927.23789.2181.34944.2755.59471.3053.40119.0461.63681.0095.77302-.1221.0922-.0879.09787-.1012.08327-.2419-.02106-.2143-.12274-.4144-.34771-.6793-.10737-.126-.32022-.3825-.47311-.5662-.14987-.187-.48012-.5562-.7326-.8212-.25077-.2662-.47651-.5093-.49701-.5419-.05765-.0815-.00587-.2431.11648-.38.11532-.1266.44824-.2828 1.17593-.5457.86198-.3156 1.16587-.4757 1.46825-.7786.15518-.1547.23237-.2627.31792-.4422.18022-.372.23541-.6341.25287-1.2222l.01461-.4995-.12311-.2953c-.10129-.2396-.12272-.3256-.12272-.4798-.00381-.1795.00304-.198.16559-.4655.26937-.4432.31699-.6374.21492-.861-.09123-.2023-.28738-.3674-.51901-.4372-.18476-.0551-.23066-.0589-.65673-.0357-.66146.0357-.73375.0313-.83713-.0424-.04969-.0349-.09504-.0923-.10147-.1251-.00721-.0344-.05312-.2485-.10377-.474-.05122-.2274-.09864-.5242-.1049-.662-.02315-.4279.07872-.5878.63168-1.002.53552-.3953.65825-.5811.63434-.9429-.01688-.2382-.09049-.4071-.25362-.5844-.12216-.1341-.12786-.1361-.39569-.1764-.3646-.0595-.59717-.1384-.69562-.24-.17547-.1839-.11004-.5679.14587-.8511.13811-.154.20678-.1883.52888-.2611.7013-.1601 1.74368-1.3137 1.78294-1.5623l.06316-.3895-.05841-.2248c-.12823-.5109-.31338-.7696-1.12642-1.5979-.80222-.8151-1.00027-1.097-1.13609-1.6192-.12557-.47776.07304-1.14379.51275-1.72029.34164-.44844.78118-.80213 2.10204-1.67795 1.14806-.76893 2.17463-1.33376 3.08963-1.70472.1705-.06668.6715-.23768 1.1118-.37749 1.2888-.40917 1.7964-.64099 2.1098-.96508.2227-.23362.2033-.33092-.0786-.37171-.3816-.05387-.7629-.03339-1.2692.07019-.2631.0554-.5289.10604-.589.11733-.2834.04581-1.5147.4103-1.9615.58151-.41315.15717-.57969.23589-1.34226.63322-1.67161.87526-2.62465 1.5279-3.88443 2.66647-1.07671.97391-1.81483 1.83911-2.71189 3.17522-.65409.9757-.92781 1.5348-1.36905 2.7983-.557134 1.5918-.78858 2.5613-.947914 3.9903-.07151469.646-.0868806 2.2407-.029584 2.8827.123619 1.3303.353722 2.4568.727821 3.5938z"/><path d="m26.9235 0c-.1666 0-.5401.428138-.6359.730146-.0525.162948-.1624 2.632234-.1709 3.785304-.0046.88835.0199 1.00464.2519 1.23807.0945.09523.1823.15565.2576.17396.2525.06914.4069.0275.5317-.14066.1131-.1547.1364-.26889.1609-.87402.0952-2.20038.1038-3.80637.0184-4.26457-.0706-.389488-.2383-.64823-.4137-.64823z"/><path d="m25.8244 31.0969c-.2564-.1123-.4714-.028-1.0875.4181-1.0682.775-1.487.9789-1.985.9759-.283 0-.5177-.0674-.7897-.2253-.2073-.1226-.7774-.6845-.7774-.7671 0-.0361.0653-.1338.1444-.223.3959-.4398.7324-1.1046.9454-1.8655.3191-1.1348.5246-3.3955.3774-4.1766-.1567-.867-.5422-1.5057-1.1295-1.887-.4122-.2644-.7527-.3085-1.09-.146-.2212.112-.5314.3912-.7155.6466-.148.2106-.3533.6415-.4155.8784-.113.4201-.1451 1.1713-.1952 4.6426l-.0341 2.4025-.1072.1163c-.2087.2211-.5733.3549-.8043.2905-.3219-.0874-.6046-.6162-.8034-1.4867-.0594-.2695-.0726-.4198-.0916-1.0652-.0252-.8398-.0391-.9213-.2056-1.0855-.148-.1483-.2954-.1867-.4612-.1253-.2265.0855-.4517.3976-.8821 1.2237-.3834.7369-.5934 1.0232-1.1509 1.5777-.4108.4071-.9056.8242-1.6033 1.3465-.6876.5124-.7889.5811-.9803.6606-.3847.1567-.5748.0065-.6264-.4955-.0131-.1387-.0311-.6377-.0408-1.1138-.0078-.476-.0412-1.5901-.0706-2.4713-.069-1.9491-.069-1.7822-.0123-1.8013.026-.0099.3589-.0435.7464-.0756 1.1953-.098 1.2088-.0998 1.3249-.1574.328-.1594.3181-.5617-.0262-.939-.081-.0892-.1755-.1632-.2384-.1842-.0736-.0227-.3379-.0291-.9569-.0216l-.8523.0125-.0182-.4707c-.0214-.5414-.0605-.8415-.1523-1.1125-.1233-.3614-.2783-.557-.4953-.6223-.4276-.1266-.58351.3501-.567 1.7273.008.4582-.00209.7269-.0186.7454-.01422.0163-.31186.1031-.65824.1988-.74248.197-.84055.2386-1.03271.4171-.30978.2892-.36822.6239-.15309.8643.1436.1539.3111.2125.6241.2096.28929-.0018.61119-.074.99211-.2237.17547-.0692.24754-.0872.26573-.0622.0328.0389.0617 1.2506.067 2.6466.0021.8044-.0053 1.0795-.0341 1.1781-.05108.1651-.28839.4078-.53821.5464-.40293.224-1.1528.4109-1.43867.3575-.07056-.011-.20373-.0652-.2906-.1151-.2119-.12-.62675-.5417-.84018-.8524-.18799-.2652-.25039-.3112-.45547-.3112-.15782 0-.24603.0517-.30806.1841-.08384.1786-.06279.3296.09276.6301.27601.524.45526.7865.72293 1.052.36573.3668.67115.523 1.14064.5819.54556.0684 1.20419-.1579 1.70556-.5819.08061-.0698.1668-.1276.1861-.1276.0461 0 .283.2859.3595.44.0301.0619.0645.1577.0776.2113.0502.2479.2348.465.5025.6001.3735.1898 1.0348.2652 1.3574.1557.7262-.2476 1.7587-1.0624 2.9623-2.3317.9036-.9546.8487-.902.8873-.8608.0178.0211.1124.1757.2113.3499.1001.1709.2923.4865.4313.6997.1379.2102.2523.4077.2523.437 0 .0292-.0222.1279-.0476.2199-.0466.1634-.0611.181-.4769.5567-.7273.658-1.0262.9997-1.2446 1.4396-.1954.3842-.2563.837-.1563 1.1335.1053.3014.39.5742.8028.7715.7066.3379 1.3875.1787 2.0081-.4665.3322-.3487.4743-.6997.5636-1.3789.0292-.2196.0245-.7655-.01-1.4089-.0048-.1154 0-.1316.0785-.1698.1155-.0551.3986-.0571.4538-.0012.0703.0709.2098 1.6288.3281 3.6487.0319.5464.0776 1.1325.1004 1.3004.1362.965.5391 1.5849 1.115 1.7213.5903.1413 1.4201-.2324 1.8818-.8451.3508-.4691.5001-1.3234.4481-2.5549-.0395-.9289-.1431-1.5724-.4519-2.7844-.0186-.0627.0522-.0822.4581-.1283 1.0363-.1181 2.052-.5515 2.9039-1.2343.6759-.5479.6776-.9606.0021-1.2591zm-8.9483 4.5265c-.1097.0534-.2558.0958-.3394.1021-.1798.0165-.196-.0063-.1732-.2435.0284-.2466.1874-.5417.4437-.8075.2086-.2187.53-.4761.5943-.4761.0543 0 .089.1003.1072.3026.0436.482-.2036.9219-.6326 1.1224zm3.4663-5.0669c-.0146-.021-.0182-.8194-.0061-1.8975.0127-1.44.027-1.9589.0628-2.296.0994-.8977.2312-1.4552.3845-1.6203.0463-.0497.1011-.0875.1216-.0875.0556 0 .173.086.2711.198.3862.4509.5983 1.3946.5207 2.3422-.1005 1.251-.5829 2.8045-1.0084 3.2446-.1127.1165-.1658.1496-.2341.1496-.0478-.0003-.0996-.0155-.1121-.0331zm1.1427 8.1148c-.0865.0882-.2464.095-.3246.0162-.2155-.2137-.4702-1.7509-.5736-3.4518-.0165-.266-.0543-.746-.0867-1.0664-.0307-.3183-.0531-.6369-.0408-.7079.0215-.1646.0833-.258.1715-.258.1415 0 .2237.1894.7402 1.6816.393 1.1363.4951 1.6078.4951 2.2643 0 .5613-.1941 1.334-.3811 1.522z"/></g></svg>