<svg fill="none" height="36" viewBox="0 0 104 36" width="104" xmlns="http://www.w3.org/2000/svg"><g fill="#1f304c"><path d="m14.0062 31.2477c4.904 0 8.6958-3.7926 8.6958-9.4049v-21.8428h5.3079v35.3937h-5.2573v-3.2868c-2.3761 2.4773-5.662 3.893-9.3535 3.893-7.58447 0-13.3991-5.511-13.3991-13.8502v-22.14389389h5.30789v21.83699389c0 5.7135 3.74123 9.4049 8.69661 9.4049"/><path d="m31.9552.00085449h5.1064v12.89314551c1.1909-1.2198 2.6144-2.1885 4.1862-2.8486 1.5718-.66015 3.2601-.99835 4.9649-.9946 7.5845 0 13.5501 6.017 13.5501 13.5003 0 7.4327-5.9656 13.4489-13.5501 13.4489-1.713.0046-3.4096-.3329-4.9905-.9927-1.5808-.6598-3.014-1.6287-4.2154-2.8498v3.2345h-5.059zm13.9042 31.49984551c4.8542 0 8.8484-3.995 8.8484-8.9496 0-5.006-3.9942-8.9496-8.8484-8.9496-4.9048 0-8.899 3.9436-8.899 8.9496 0 4.9546 3.9436 8.9496 8.899 8.9496z"/><path d="m75.0337 9.10138c7.4319 0 12.8932 5.71342 12.8932 13.39912v1.6687h-20.9803c.7083 4.1965 4.1966 7.3315 8.5424 7.3315 2.9857 0 5.5119-1.2142 7.4327-3.7927l3.6915 2.7303c-2.5793 3.4385-6.4217 5.5111-11.1242 5.5111-7.7354 0-13.7018-5.7641-13.7018-13.4489 0-7.2809 5.7134-13.39912 13.2473-13.39912zm-7.9884 11.02302h15.7246c-.8592-3.9444-4.0447-6.5735-7.8366-6.5735-3.7918 0-6.9774 2.6291-7.888 6.5735z"/><path d="m101.629 14.158c-3.3377 0-5.7644 2.5785-5.7644 6.5727v14.6631h-5.1072v-25.78646h5.0591v3.18806c1.264-2.0734 3.3374-3.38793 6.1685-3.38793h1.769v4.75303z"/></g></svg>