<svg width="102" height="42" viewBox="0 0 102 42" fill="none" xmlns="http://www.w3.org/2000/svg">
<g clip-path="url(#clip0)">
<path d="M101.239 41.9358H60.084V0.0748901H101.239V41.9358Z" stroke="#1F304C" stroke-width="0.13" stroke-miterlimit="10"/>
<path d="M60.0841 41.9358H0.0748901V0.0748901H60.0841V41.9358Z" stroke="#1F304C" stroke-width="0.13" stroke-miterlimit="10"/>
<path d="M71.8547 23.9801L72.6038 23.6377C72.8071 23.5414 72.775 23.4558 72.7215 23.2846C72.4432 22.4678 72.2987 21.6114 72.2935 20.7485C72.3709 18.5852 73.2847 16.5363 74.8426 15.0333C76.4004 13.5303 78.4806 12.6903 80.6453 12.6903C82.81 12.6903 84.8903 13.5303 86.4481 15.0333C88.0059 16.5363 88.9197 18.5852 88.9972 20.7485C89.0078 21.8699 88.7856 22.9812 88.3444 24.0122C88.3312 24.0346 88.3227 24.0593 88.3194 24.0851C88.316 24.1108 88.3179 24.1369 88.3249 24.1619C88.3319 24.1869 88.3439 24.2102 88.3601 24.2305C88.3763 24.2507 88.3965 24.2675 88.4193 24.2797L89.2005 24.6221C89.361 24.6863 89.4466 24.6221 89.5322 24.4937C90.0923 23.1788 90.3528 21.7556 90.2946 20.3275C90.2364 18.8994 89.8611 17.5021 89.1959 16.237C88.5306 14.972 87.5921 13.8709 86.4485 13.0136C85.3048 12.1563 83.9847 11.5643 82.5838 11.2805C81.183 10.9968 79.7365 11.0284 78.3494 11.3731C76.9623 11.7178 75.6693 12.367 74.5642 13.2735C73.4591 14.1799 72.5697 15.321 71.9604 16.614C71.3511 17.9069 71.0372 19.3192 71.0415 20.7485C71.0415 21.7901 71.2151 22.8244 71.5551 23.8089C71.5551 23.9694 71.6621 24.0657 71.8547 23.9801Z" fill="#1F304C"/>
<path d="M69.3936 25.1144C69.5969 25.0074 70.2818 24.7077 70.4637 24.6114C70.4935 24.6027 70.521 24.5873 70.544 24.5664C70.5669 24.5454 70.5848 24.5195 70.5962 24.4905C70.6075 24.4616 70.6121 24.4304 70.6096 24.3995C70.607 24.3685 70.5974 24.3385 70.5814 24.3118C70.1695 23.1761 69.956 21.978 69.9501 20.7699C69.9501 17.9319 71.0774 15.2102 73.0842 13.2034C75.091 11.1967 77.8127 10.0693 80.6507 10.0693C83.4887 10.0693 86.2104 11.1967 88.2172 13.2034C90.2239 15.2102 91.3513 17.9319 91.3513 20.7699C91.3573 22.2097 91.062 23.6349 90.4846 24.9538C90.4846 25.0288 90.399 25.1786 90.5809 25.2535L91.6509 25.7243C91.8115 25.7778 91.8971 25.7243 91.9827 25.5852C92.654 24.0687 93.0003 22.4284 92.9992 20.7699C92.9992 17.4977 91.6994 14.3595 89.3856 12.0457C87.0718 9.73194 83.9336 8.43207 80.6614 8.43207C77.3892 8.43207 74.251 9.73194 71.9372 12.0457C69.6234 14.3595 68.3236 17.4977 68.3236 20.7699C68.3215 22.2025 68.5789 23.6237 69.0833 24.9646C69.0833 25.0395 69.1689 25.2 69.3829 25.1144" fill="#1F304C"/>
<path d="M66.0764 26.6125L68.0132 25.7243C68.27 25.6066 68.1523 25.4247 68.1309 25.307C67.5759 23.8552 67.2929 22.3135 67.2963 20.7592C67.2963 17.2117 68.7055 13.8095 71.2139 11.3011C73.7224 8.79265 77.1246 7.38342 80.6721 7.38342C84.2195 7.38342 87.6217 8.79265 90.1302 11.3011C92.6386 13.8095 94.0479 17.2117 94.0479 20.7592C94.0489 22.5371 93.6847 24.2963 92.9778 25.9276C92.9565 25.9632 92.9438 26.0031 92.9406 26.0444C92.9374 26.0857 92.9438 26.1272 92.9594 26.1656C92.9749 26.204 92.9992 26.2382 93.0302 26.2656C93.0613 26.293 93.0983 26.3129 93.1383 26.3235C93.363 26.4199 94.7755 27.0405 94.9788 27.1047C95.1821 27.1689 95.3212 27.1796 95.4496 26.9121C96.2861 24.9684 96.7193 22.8752 96.723 20.7592C96.465 16.686 94.6651 12.8641 91.6893 10.0709C88.7136 7.27765 84.7855 5.7229 80.7042 5.7229C76.6228 5.7229 72.6948 7.27765 69.719 10.0709C66.7432 12.8641 64.9433 16.686 64.6853 20.7592C64.6858 22.6963 65.0487 24.6162 65.7554 26.4198C65.7554 26.5269 65.8303 26.7088 66.0764 26.6125Z" fill="#1F304C"/>
<path d="M80.6721 17.3457C81.0029 17.3394 81.3245 17.2355 81.5965 17.0471C81.8685 16.8587 82.0789 16.5942 82.2011 16.2867C82.3233 15.9792 82.3521 15.6425 82.2837 15.3187C82.2153 14.995 82.0528 14.6986 81.8166 14.4669C81.5804 14.2351 81.2811 14.0783 80.9561 14.016C80.6311 13.9538 80.295 13.9889 79.9899 14.1169C79.6847 14.245 79.4242 14.4602 79.241 14.7358C79.0578 15.0113 78.96 15.3348 78.96 15.6657C78.9656 16.1151 79.1488 16.544 79.4696 16.8588C79.7904 17.1735 80.2227 17.3486 80.6721 17.3457Z" fill="#1F304C"/>
<path d="M81.2927 26.1844C81.4508 26.1817 81.6016 26.1177 81.7134 26.0059C81.8252 25.8941 81.8892 25.7433 81.892 25.5852V21.8828C81.9705 21.3499 82.2094 20.8535 82.5768 20.4596L86.1187 16.9819C86.1767 16.9278 86.223 16.8624 86.2546 16.7897C86.2862 16.7169 86.3026 16.6385 86.3026 16.5592C86.3026 16.4799 86.2862 16.4015 86.2546 16.3287C86.223 16.256 86.1767 16.1906 86.1187 16.1365L85.4767 15.5052C85.3626 15.3928 85.2088 15.3298 85.0487 15.3298C84.8885 15.3298 84.7347 15.3928 84.6206 15.5052L81.4104 18.6619C81.3197 18.7713 81.2048 18.8581 81.0749 18.9157C80.9449 18.9732 80.8034 18.9999 80.6614 18.9936C80.5174 19.0033 80.3732 18.9783 80.241 18.9206C80.1088 18.8628 79.9924 18.7741 79.9017 18.6619L76.6915 15.4517C76.6365 15.3934 76.5701 15.3469 76.4965 15.3152C76.4229 15.2835 76.3436 15.2671 76.2634 15.2671C76.1833 15.2671 76.104 15.2835 76.0304 15.3152C75.9568 15.3469 75.8904 15.3934 75.8354 15.4517L75.1827 16.083C75.125 16.1361 75.0789 16.2007 75.0474 16.2725C75.0158 16.3443 74.9996 16.4219 74.9996 16.5003C74.9996 16.5788 75.0158 16.6564 75.0474 16.7282C75.0789 16.8 75.125 16.8646 75.1827 16.9177L78.7139 20.4489C79.0957 20.8328 79.337 21.3342 79.3987 21.8721V25.5638C79.3987 25.6434 79.4146 25.7222 79.4453 25.7956C79.4761 25.869 79.5212 25.9356 79.578 25.9913C79.6348 26.0471 79.7021 26.091 79.7761 26.1205C79.85 26.15 79.9291 26.1644 80.0087 26.163H81.2499" fill="#1F304C"/>
<path d="M92.4856 27.4899C91.6719 27.9733 90.9238 28.5595 90.2599 29.2341H90.1101C90.5261 28.7668 90.9121 28.2736 91.2657 27.7574C91.8864 26.7516 90.7307 25.8313 89.4573 26.5375C88.9758 26.8158 88.1733 27.6076 87.7773 27.9393H87.6489C87.8201 27.7681 88.5264 26.8693 88.719 26.5375C89.2754 25.735 88.1198 24.9645 87.1246 25.5638C86.4654 26.0029 85.8362 26.4855 85.2413 27.0084H85.1343C85.2948 26.8479 85.6907 26.3877 85.8512 26.2379C86.4398 25.5745 85.5944 24.8361 84.7062 25.2963C83.8181 25.7564 82.6303 26.9335 81.2713 27.7788C81.9027 28.0998 82.9941 28.164 84.7383 28.8489C86.4826 29.5337 87.0604 31.4063 85.9154 32.7011C84.7705 33.9959 83.2617 33.5251 81.8813 33.097C80.2869 32.6048 79.7412 32.1019 77.7722 31.4491C76.5203 31.0211 75.9852 31.0211 76.0173 30.6573C76.0494 30.2935 77.0874 30.5075 78.1575 30.8606C80.9931 31.8772 84.7491 34.1564 85.6479 31.6845C86.3756 29.7477 83.1119 28.8917 81.8706 28.667C80.1371 28.4209 78.9386 27.1261 77.4405 26.2807C75.831 25.326 73.9376 24.9663 72.0902 25.2642C70.474 25.7253 68.937 26.4289 67.5317 27.3508C66.6864 27.8323 66.7613 28.5814 67.5317 29.7156C69.0726 31.8604 71.1157 33.5947 73.4822 34.7669C75.8487 35.939 78.4664 36.5133 81.1063 36.4394C83.7461 36.3655 86.3276 35.6456 88.6248 34.3429C90.922 33.0401 92.8648 31.1942 94.2833 28.9666C94.8933 27.9928 93.9088 26.9335 92.4749 27.4471" fill="#1F304C"/>
<path d="M46.612 38.3189C46.612 38.7791 48.2492 39.2606 49.1266 39.2606C49.7066 39.2814 50.2782 39.1175 50.759 38.7925C51.2398 38.4674 51.6049 37.9981 51.8018 37.4522C52.4652 35.8685 55.1725 26.7516 55.1725 26.7516H55.4721C56.082 26.6552 56.296 26.2914 56.296 25.3819C56.296 25.0501 56.296 25.0287 55.9857 25.0287H53.7172C53.5032 25.0287 53.4925 25.0287 53.4176 25.2856L51.5664 32.3159L49.6509 25.2856C49.5974 25.0715 49.5653 25.0394 49.3513 25.0287H47.1149C46.8367 25.0287 46.7939 25.0287 46.7939 25.3819C46.7939 26.2914 47.0293 26.6552 47.6392 26.7516H47.9495C47.9495 26.7516 49.7365 32.8723 50.6675 35.4298L50.5177 35.922C50.2181 36.8851 49.7044 37.3238 48.8805 37.3238C48.6772 37.3238 47.5857 37.1633 47.5857 37.1633C46.9651 37.1633 46.7939 37.3666 46.7297 37.5913C46.6624 37.8306 46.6088 38.0735 46.5692 38.3189" fill="#1F304C"/>
<path d="M38.9824 21.6046H36.3286C36.0932 21.6046 36.0825 21.6046 36.0504 21.8614L34.5523 30.9569L32.7546 21.9042C32.7546 21.6581 32.669 21.6046 32.3908 21.6046H31.1709C30.7322 21.6046 30.7001 21.6688 30.6573 21.9149L28.774 30.9569L27.3508 21.8614C27.3508 21.626 27.3508 21.6046 27.0833 21.6046H24.3653C24.0871 21.6046 24.0443 21.6046 24.0443 21.9684C24.0443 22.9742 24.3011 23.3381 25.0074 23.4237H25.2856L27.3508 34.6379C27.4257 34.8947 27.4471 34.9589 27.6932 34.9589H29.4909C29.7799 34.9589 29.7906 34.9589 29.8334 34.6379L31.6311 25.9383L33.1292 34.6593C33.1827 34.9375 33.1827 34.9589 33.4823 34.9589H35.3121C35.5582 34.9589 35.601 34.8947 35.6545 34.6379L38.0514 23.4237H38.3083C39.0359 23.3381 39.282 22.9849 39.282 21.9684C39.282 21.6581 39.282 21.626 39.0252 21.6153" fill="#1F304C"/>
<path d="M43.5302 32.7011C43.3495 32.9321 43.1233 33.1234 42.8656 33.2633C42.6079 33.4032 42.3242 33.4887 42.0321 33.5144C41.8484 33.509 41.6677 33.4667 41.5007 33.39C41.3337 33.3134 41.1838 33.2039 41.06 33.0681C40.9362 32.9323 40.841 32.773 40.78 32.5997C40.7191 32.4263 40.6936 32.2425 40.7052 32.0591C40.7052 30.2186 42.9202 30.3363 43.5195 30.3791V32.7011H43.5302ZM45.895 33.1719C45.737 32.5935 45.6649 31.995 45.681 31.3956V27.8644C45.681 25.6387 44.6965 24.6542 42.4708 24.6542C40.9192 24.6542 39.2606 25.3177 39.2606 25.7243C39.2935 25.9545 39.3509 26.1805 39.4318 26.3984C39.4318 26.5268 39.5709 26.8265 40.2237 26.7837C40.5019 26.7837 41.6361 26.559 42.107 26.559C43.3696 26.559 43.4981 27.2866 43.4981 28.1212V28.8275C41.9251 28.8275 38.533 28.8275 38.533 32.1875C38.533 34.0922 39.603 35.2586 41.3258 35.2586C41.7737 35.2704 42.2184 35.1803 42.6262 34.9949C43.0341 34.8095 43.3944 34.5337 43.68 34.1885L43.8405 34.028V34.2848C43.9261 34.7021 43.9903 34.9804 44.3113 34.9804H46.6119C46.9009 34.9804 46.9223 34.9804 46.9223 34.6379C46.9223 33.6428 46.6975 33.2897 45.8522 33.2254" fill="#1F304C"/>
<path d="M29.8227 16.6502H29.5766V8.73171C29.5766 8.5284 29.5766 8.5177 29.3733 8.5177H26.1631C25.8741 8.5177 25.842 8.5177 25.842 8.86012C25.842 9.93018 26.131 10.2726 27.0833 10.2726H27.3508V16.693H27.1047C26.1524 16.693 25.8634 17.014 25.8634 18.1055C25.8634 18.4265 25.8634 18.4479 26.1738 18.4479H30.7536C31.0319 18.4479 31.0747 18.4479 31.0747 18.1055C31.0747 17.0354 30.775 16.693 29.8334 16.693" fill="#1F304C"/>
<path d="M28.4209 4.74036C28.2387 4.74302 28.0589 4.7823 27.8922 4.85585C27.7255 4.9294 27.5753 5.03572 27.4505 5.16849C27.3257 5.30126 27.2289 5.45777 27.1658 5.62872C27.1027 5.79966 27.0747 5.98154 27.0833 6.16354C27.0744 6.53104 27.2092 6.88752 27.459 7.15726C27.7087 7.427 28.0538 7.58874 28.4209 7.60813C28.6036 7.60124 28.7832 7.55839 28.9493 7.48203C29.1155 7.40568 29.2649 7.29732 29.3892 7.16315C29.5134 7.02898 29.61 6.87163 29.6733 6.70011C29.7367 6.52859 29.7656 6.34625 29.7585 6.16354C29.7656 5.98189 29.7365 5.80064 29.6729 5.63034C29.6093 5.46005 29.5124 5.30412 29.3879 5.17166C29.2634 5.03919 29.1138 4.93283 28.9478 4.85878C28.7817 4.78473 28.6026 4.74448 28.4209 4.74036Z" fill="#1F304C"/>
<path d="M13.3116 7.24432C14.2854 7.24432 14.5957 6.8912 14.5957 5.78903C14.5957 5.46801 14.5957 5.43591 14.2747 5.43591H9.9195C9.66268 5.43591 9.63058 5.43591 9.59848 5.61782V5.78903C9.59848 6.8591 9.89809 7.24432 10.8505 7.24432H10.9147V13.7717C10.9147 15.0237 10.9147 16.7251 8.87083 16.7251C6.82701 16.7251 6.82701 15.3768 6.82701 13.7717V7.24432H6.90192C7.84357 7.24432 8.15389 6.8912 8.15389 5.78903V5.59642C8.15389 5.47872 8.07899 5.43591 7.84357 5.43591H3.43491C3.15669 5.43591 3.11389 5.43591 3.11389 5.78903C3.11389 6.8591 3.39211 7.24432 4.39797 7.24432V13.7717C4.45147 17.2815 5.77835 18.7903 8.87083 18.7903C11.9633 18.7903 13.3116 17.2922 13.3116 13.7824V7.24432Z" fill="#1F304C"/>
<path d="M23.5093 16.6502V11.2999C23.5093 9.15973 22.7816 8.15387 21.1551 8.15387C20.5974 8.17313 20.0506 8.31437 19.5533 8.56764C19.056 8.82092 18.6202 9.18008 18.2766 9.61986L18.1803 9.20253C18.0733 8.76381 17.9877 8.49629 17.7095 8.49629H15.227C14.9487 8.49629 14.9059 8.49629 14.9059 8.83871C14.9059 9.90877 15.1628 10.2191 16.0509 10.2512C16.2202 10.8345 16.289 11.4425 16.2542 12.0489V16.6502C15.3233 16.6502 15.0344 16.9926 15.0344 18.0627C15.0344 18.3944 15.0344 18.4051 15.3554 18.4051H18.2873C18.48 18.4051 18.48 18.4051 18.48 18.1911V11.0109C18.9026 10.5161 19.5013 10.2052 20.1493 10.1442C21.2193 10.1442 21.2193 11.3962 21.2193 11.9312V18.2018C21.2193 18.3944 21.2193 18.4158 21.4119 18.4158H24.3439C24.6114 18.4158 24.6542 18.4158 24.6542 18.0734C24.6542 17.0033 24.3653 16.6823 23.4665 16.6823" fill="#1F304C"/>
<path d="M35.3228 18.7903C36.6282 18.7903 37.6983 18.4586 37.6983 18.1804C37.6667 17.9713 37.6239 17.7641 37.5699 17.5597C37.3773 16.8214 37.3131 16.4897 35.922 16.7037C35.8439 16.7194 35.7632 16.7159 35.6868 16.6935C35.6104 16.6711 35.5406 16.6306 35.4833 16.5753C35.2476 16.1756 35.1533 15.7082 35.2158 15.2484V10.2298H36.457C37.4094 10.2298 37.6983 9.89808 37.6983 8.81731C37.6983 8.48559 37.6983 8.47489 37.3773 8.47489H35.2372V5.72483C35.2372 5.44661 35.2372 5.43591 35.1088 5.43591C34.9803 5.43591 34.5523 5.48942 34.3169 5.52152C33.9185 5.58256 33.5587 5.79421 33.3118 6.1128C33.0649 6.43138 32.9497 6.83258 32.99 7.23362V8.48559H31.7059C31.4384 8.48559 31.3956 8.48559 31.3956 8.82801C31.3956 9.89808 31.6952 10.2405 32.6369 10.2405H32.99V14.8953C32.99 16.8214 32.99 18.7903 35.3442 18.7903" fill="#1F304C"/>
<path d="M40.8229 12.3699V12.1987C40.8978 11.5139 41.0369 9.95156 42.4601 9.95156C43.8833 9.95156 43.8726 11.5567 43.8726 12.3699H40.8229ZM46.1732 13.6861C46.1732 10.0479 44.9319 8.19666 42.5029 8.19666C40.0739 8.19666 38.5009 10.3368 38.5009 13.547C38.5009 17.8272 40.7373 18.7582 42.6099 18.7582C44.1187 18.7582 45.8201 18.0519 45.8201 17.6132C45.7838 17.3767 45.7265 17.144 45.6489 16.9177C45.574 16.7037 45.4456 16.4682 44.8035 16.5003C44.1615 16.5324 43.5195 16.7465 42.7918 16.7465C41.4007 16.7465 40.6517 15.8904 40.6517 14.0606H45.7238C46.0448 14.0606 46.0983 14.0606 46.0983 13.6326" fill="#1F304C"/>
<path d="M51.1597 16.8749C49.8115 16.8749 49.5332 15.655 49.5332 13.5256C49.5332 11.3962 49.8222 10.0586 51.2774 10.0586C51.8063 10.0384 52.3276 10.1884 52.7648 10.4866V16.1259C52.5812 16.3749 52.3381 16.574 52.0577 16.7048C51.7773 16.8357 51.4686 16.8941 51.1597 16.8749ZM55.1725 16.6502C55.0027 16.0743 54.9339 15.4733 54.9692 14.8739V5.0079C54.9692 4.82599 54.9692 4.79388 54.7766 4.79388H51.8767C51.6092 4.79388 51.545 4.79388 51.545 5.1363C51.545 6.20637 51.8339 6.53809 52.722 6.54879V8.82802L52.5401 8.69962C52.0215 8.32561 51.392 8.13714 50.7531 8.16458C48.4525 8.16458 47.2326 10.1442 47.2326 13.8787C47.2326 17.0354 48.3027 18.7903 50.3679 18.7903C51.3713 18.7608 52.3251 18.3471 53.0323 17.6346L53.1608 18.0627C53.2571 18.4051 53.2785 18.4372 53.546 18.4372H56.2425C56.5101 18.4372 56.5529 18.4372 56.5529 18.0948C56.5529 17.0247 56.2639 16.6823 55.2688 16.6823" fill="#1F304C"/>
<path d="M96.188 38.0515H96.4234C96.6802 38.0515 96.7872 38.0515 96.7872 37.8267C96.7872 37.602 96.7016 37.6234 96.4769 37.6234H96.188V38.0515ZM96.188 38.8433H95.974V37.4522H96.509C96.83 37.4522 97.0012 37.5806 97.0012 37.8481C97.0041 37.8954 96.9975 37.9427 96.9817 37.9874C96.9659 38.032 96.9413 38.073 96.9094 38.108C96.8775 38.1429 96.8388 38.1711 96.7958 38.1908C96.7527 38.2105 96.7061 38.2213 96.6588 38.2227L97.0441 38.854H96.7872L96.4234 38.2334H96.2094L96.188 38.8433ZM97.4186 38.1264C97.4186 37.8653 97.3149 37.6149 97.1302 37.4302C96.9456 37.2456 96.6952 37.1419 96.4341 37.1419C96.173 37.1419 95.9226 37.2456 95.738 37.4302C95.5534 37.6149 95.4497 37.8653 95.4497 38.1264C95.4378 38.2627 95.4544 38.3999 95.4985 38.5294C95.5426 38.6589 95.6133 38.7778 95.7059 38.8785C95.7985 38.9792 95.9111 39.0595 96.0365 39.1142C96.1619 39.1689 96.2973 39.1969 96.4341 39.1964C96.569 39.1937 96.702 39.1639 96.8252 39.1088C96.9483 39.0537 97.0591 38.9743 97.151 38.8755C97.2428 38.7766 97.3139 38.6603 97.3598 38.5335C97.4058 38.4066 97.4258 38.2718 97.4186 38.1371V38.1264ZM95.2784 38.1264C95.2742 37.8838 95.3424 37.6454 95.4743 37.4418C95.6062 37.2382 95.7958 37.0785 96.019 36.9832C96.2421 36.8879 96.4886 36.8613 96.7269 36.9068C96.9652 36.9523 97.1845 37.0678 97.3569 37.2386C97.5292 37.4094 97.6467 37.6277 97.6943 37.8656C97.7419 38.1035 97.7175 38.3502 97.6242 38.5742C97.5309 38.7981 97.3729 38.9892 97.1704 39.1229C96.968 39.2566 96.7302 39.3269 96.4876 39.3248C96.3293 39.3262 96.1723 39.2963 96.0257 39.2367C95.8791 39.1771 95.7457 39.089 95.6332 38.9776C95.5208 38.8662 95.4316 38.7336 95.3707 38.5875C95.3098 38.4414 95.2784 38.2846 95.2784 38.1264Z" fill="#1F304C"/>
</g>
<defs>
<clipPath id="clip0">
<rect width="101.314" height="42" fill="white"/>
</clipPath>
</defs>
</svg>
