<svg fill="none" height="42" viewBox="0 0 189 42" width="189" xmlns="http://www.w3.org/2000/svg" xmlns:xlink="http://www.w3.org/1999/xlink"><clipPath id="a"><path d="m0 0h188.488v42h-188.488z"/></clipPath><mask id="b" height="41" maskUnits="userSpaceOnUse" width="189" x="0" y="1"><path d="m0 41.3788h188.345v-40.35487h-188.345z" fill="#fff"/></mask><g clip-path="url(#a)" clip-rule="evenodd" fill="#1f304c" fill-rule="evenodd"><path d="m149.15 1.02405-.502.50297v39.34888l.502.503h38.692l.504-.503v-39.34888l-.504-.50297zm.503 39.34995h37.686v-38.344h-37.686z"/><path d="m92.7419 1.02405-.503.50297v39.34888l.503.503h56.4091l.503-.503v-39.34888l-.503-.50297zm.5029 39.34995h55.4022v-38.344h-55.4022z"/><path d="m179.608 27.304c-.564.2007-1.623 1.22-2.093 1.6359l-.134.0133c.175-.1874.898-1.0858 1.087-1.3942.576-.9393-.509-1.8111-1.703-1.1401-.457.2551-1.208 1.0326-1.582 1.3143l-.121.0266c.16-.1608.83-1.0326 1.019-1.3143.522-.7508-.564-1.4751-1.503-.9127-.67.3893-1.207.926-1.77 1.3553l-.093.0266c.146-.1475.522-.5767.67-.7242.55-.6167-.242-1.3143-1.073-.8851-.805.4026-1.958 1.5427-3.232 2.3335.59.3084 1.623.3627 3.258 1.0459 1.65.6843 2.172 2.2937 1.101 3.5547-.993 1.1801-2.495.7775-3.796.3759-1.502-.4702-2.039-.9393-3.862-1.556-1.18-.4026-1.677-.4026-1.65-.7376.013-.3759 1.045-.1475 1.998.1875 2.668.9527 6.196 3.0977 7.067.7775.684-1.8234-2.387-2.6286-3.553-2.8427-1.636-.3083-2.763-1.4884-4.172-2.2403-2.146-1.1402-3.781-1.1668-5.002-.9517-1.314.2274-3.192 1.2866-4.318 1.9576-.791.4569-.724 1.1535.04 2.227 2.736 3.8087 7.228 6.3031 12.326 6.3031 5.403 0 10.138-2.8171 12.793-7.014.578-.9117-.348-1.9053-1.702-1.4218zm-10.516-1.2344c.309 0 .564-.2541.564-.5624v-3.4747c.014-.4416.335-1.005.644-1.341l3.325-3.2719c.229-.2141.229-.59 0-.7908l-.603-.5911c-.214-.2274-.59-.2274-.804 0l-3.004 2.9646c-.201.1875-.349.3084-.712.3084-.374 0-.523-.1209-.709-.3084l-3.005-2.9779c-.227-.2274-.59-.2274-.805 0l-.616.5901c-.228.2151-.228.5767 0 .7918l3.339 3.2719c.322.3227.631.8994.643 1.342v3.4726c0 .3094.255.5635.578.5635h1.165zm-.59-8.3017c.886 0 1.61-.7099 1.61-1.5827 0-.885-.737-1.5816-1.61-1.5816-.898 0-1.609.7099-1.609 1.5816 0 .8728.711 1.5827 1.609 1.5827zm-13.719 8.7043c.227-.1076 1.582-.7243 1.824-.8318.241-.1076.134-.2807.107-.3883-.509-1.3419-.778-2.7761-.778-4.2789 0-6.8265 5.633-12.36435 12.581-12.36435 6.92 0 12.565 5.53785 12.565 12.36435 0 1.7302-.362 3.3662-1.005 4.8556-.04.0933-.094.2684.148.375.215.0942 1.541.6709 1.73.7375.174.081.321.0676.442-.1874.764-1.7835 1.194-3.7411 1.194-5.7807 0-8.1674-6.746-14.80548-15.049-14.80548-8.315 0-15.06 6.65138-15.06 14.80548 0 1.8777.362 3.6755 1.007 5.3248 0 .0943.066.2684.294.1742zm3.124-1.4086c.189-.0932.832-.3749 1.007-.4691.174-.0666.134-.2141.107-.2807-.375-1.047-.59-2.1594-.59-3.3272 0-5.458 4.519-9.8977 10.071-9.8977 5.539 0 10.06 4.4264 10.06 9.8977 0 1.3952-.296 2.7228-.832 3.9295-.026.0676-.081.2151.094.2817.147.0676.871.3893 1.005.4426.149.0543.229.0276.309-.1332.617-1.3819.952-2.9113.952-4.5206 0-6.2898-5.19-11.39946-11.588-11.39946-6.397 0-11.6 5.10966-11.6 11.39946 0 1.3819.254 2.7095.725 3.9439.025.0665.079.2141.28.1331zm2.307-1.0592c-.174.0809-.241-.0133-.281-.1608-.309-.9117-.483-1.8777-.483-2.8837 0-4.9078 4.064-8.905 9.067-8.905 4.989 0 9.052 3.9828 9.052 8.905 0 1.2477-.268 2.4411-.737 3.527-.081.1485-.161.1752-.31.1209-.134-.0533-.603-.2684-.736-.3217-.108-.0533-.108-.1875-.068-.2551.415-.9383.644-1.9842.644-3.0711 0-4.2645-3.527-7.7249-7.845-7.7249-4.333 0-7.86 3.4604-7.86 7.7249 0 .8318.121 1.636.376 2.3879.053.1608.079.2417-.107.3349-.175.08-.55.2418-.712.3217z"/><path d="m136.449 37.4832c0 .4293 1.543.8851 2.362.8851.804 0 1.943-.295 2.521-1.7035.616-1.4885 3.164-10.0585 3.164-10.0585h.282c.577-.0932.778-.4292.778-1.2877 0-.3083-.04-.335-.295-.335h-2.091c-.203 0-.216.04-.283.2418l-1.744 6.6114-1.797-6.6114c-.054-.2018-.08-.2284-.281-.2418h-2.106c-.254 0-.295.0267-.295.335 0 .8585.215 1.1945.79 1.2877h.296s1.676 5.754 2.549 8.1541l-.134.4692c-.282.8994-.765 1.3143-1.543 1.3143-.188 0-1.22-.1475-1.22-.1475-.578-.04-.738.1885-.805.4026-.081.295-.148.63-.148.6842z"/><path d="m129.315 21.7648h-2.496c-.214 0-.227.0266-.255.2417l-1.407 8.5557-1.689-8.5157c-.041-.2285-.081-.2817-.35-.2817h-1.139c-.416 0-.443.0666-.483.295l-1.771 8.5024-1.327-8.5557c-.04-.2151-.04-.2417-.255-.2417h-2.561c-.269 0-.31.0266-.31.3483 0 .9393.242 1.2876.913 1.3685l.255.0134 1.945 10.5276c.067.2418.093.295.321.295h1.69c.269 0 .281-.0133.321-.295l1.691-8.1808 1.408 8.1941c.054.2684.054.2817.335.2817h1.717c.227 0 .267-.0532.321-.295l2.213-10.541.242-.0133c.684-.0809.911-.4159.911-1.3686.015-.294-.026-.3216-.24-.3349z"/><path d="m135.819 32.655c-.106-.3627-.201-.8319-.201-1.677v-3.3118c0-2.0929-.926-3.0179-3.018-3.0179-1.461 0-3.004.6167-3.004 1.006 0 .0532.067.3483.161.63.04.1208.134.4026.751.3626.255-.0133 1.327-.2151 1.771-.2151 1.179 0 1.3.6843 1.3 1.4751v.6577c-1.475 0-4.666.0133-4.666 3.1653 0 1.7835 1.005 2.8837 2.627 2.8837 1.235 0 1.838-.6577 2.213-1.0603l.149-.1475.039.2418c.08.3893.148.6566.443.6566h2.145c.27 0 .295-.0266.295-.3216.014-.9384-.214-1.2744-1.005-1.3276zm-2.227-.4426c-.227.2551-.724.7642-1.407.7642-.698 0-1.248-.59-1.248-1.3676 0-1.7301 2.079-1.6226 2.642-1.5826v2.186z"/><path d="m120.705 17.138h-.229v-7.46989c0-.18848-.012-.2018-.187-.2018h-3.005c-.268 0-.295.02663-.295.32166 0 1.01923.268 1.32863 1.168 1.32863h.214v6.0214h-.228c-.899 0-1.167.3083-1.167 1.3276 0 .3083.04.3216.295.3216h4.305c.255 0 .295-.0266.295-.3216.014-1.006-.281-1.3276-1.166-1.3276z"/><path d="m119.403 5.91223c-.723 0-1.273.59005-1.273 1.34195 0 .73654.575 1.35425 1.273 1.35425.699 0 1.248-.61771 1.248-1.35425 0-.73858-.549-1.34195-1.248-1.34195z"/><path d="m105.188 8.27265h.053c.912 0 1.207-.33497 1.207-1.36756 0-.30834-.04-.336-.308-.336h-4.144c-.242 0-.269.04098-.295.17517l-.014.16083c0 1.03259.281 1.36756 1.179 1.36756h.055v6.12895c0 1.1801 0 2.7761-1.918 2.7761-1.7702 0-1.9177-1.26-1.9177-2.7761v-6.12895h.0666c.8861 0 1.1811-.33497 1.1811-1.36756l-.014-.18849c-.027-.10653-.067-.14751-.295-.14751h-4.1174c-.2684 0-.3083.02766-.3083.336 0 1.0459.2673 1.36756 1.2067 1.36756h.0533v6.12895c0 3.2995 1.2477 4.7081 4.1577 4.7081 2.912 0 4.172-1.4086 4.172-4.7081z"/><path d="m114.776 17.138v-5.0431c0-2.0518-.683-2.96355-2.213-2.96355-1.367 0-2.119.77751-2.709 1.38085-.052-.2141-.093-.3882-.093-.3882-.094-.41592-.174-.67099-.443-.67099h-2.333c-.255 0-.296.02663-.296.32268 0 .96501.242 1.29991 1.073 1.32661.121.4026.188.7386.188 1.6902v4.3322c-.872 0-1.139.3216-1.139 1.3276 0 .3083.039.3216.295.3216h2.762c.174 0 .174-.0266.174-.2007v-6.76c.256-.254.831-.8185 1.569-.8185 1.047 0 1.047 1.1811 1.047 1.6769v5.9016c0 .1741.012.2007.187.2007h2.75c.255 0 .295-.0266.295-.3216.013-.9793-.269-1.3143-1.114-1.3143z"/><path d="m125.881 19.1227c1.221 0 2.226-.3083 2.226-.5767 0-.04-.067-.4026-.119-.5768-.176-.6976-.243-.9649-1.543-.8051-.161.0143-.309-.0123-.416-.1199-.254-.2551-.254-.8052-.254-1.2477v-4.6937h1.166c.898 0 1.166-.3084 1.166-1.32766 0-.30834-.039-.32166-.295-.32166h-2.037v-2.61527c0-.25507-.028-.26839-.122-.26839-.093 0-.522.05327-.737.07991-.604.09424-1.247.56341-1.247 1.61034v1.17907h-1.208c-.255 0-.295.02766-.295.32268 0 1.01828.282 1.32758 1.168 1.32758h.335v4.3721c0 1.8101 0 3.6612 2.212 3.6612z"/><path d="m136.087 14.2944c0-3.4194-1.166-5.16391-3.446-5.16391-2.267 0-3.77 2.03961-3.77 5.08401 0 4.0495 2.107 4.8946 3.863 4.8946 1.421 0 3.072-.6567 3.072-1.0726 0-.0676-.068-.3759-.161-.6576-.067-.2008-.188-.4159-.791-.3883-.47.0267-1.208.2275-1.892.2275-1.313 0-1.984-.8042-1.998-2.5211h4.774c.295.0133.349-.0532.349-.4026zm-5.043-1.2333.015-.1609c.066-.6443.2-2.1194 1.541-2.1194 1.315 0 1.329 1.5151 1.329 2.2803z"/><path d="m144.576 17.1379c-.119-.3626-.187-.7508-.187-1.6636v-9.30655c0-.17517-.013-.20181-.187-.20181h-2.763c-.256 0-.309.02664-.309.32166 0 .97932.268 1.31429 1.1 1.32864h.054v2.14507l-.175-.12088c-.322-.2141-.751-.50912-1.676-.50912-2.16 0-3.313 1.86339-3.313 5.37809 0 2.9635 1.046 4.6128 2.951 4.6128 1.501 0 2.494-1.0859 2.494-1.0859l.12.4026c.095.3217.108.3483.363.3483h2.441c.255 0 .295-.0266.295-.3216 0-1.006-.268-1.3277-1.208-1.3277zm-3.808.1875c-1.275 0-1.529-1.1535-1.529-3.152 0-2.1185.269-3.2586 1.636-3.2586.55 0 .952.1075 1.395.4026v5.2971c-.254.3227-.644.7109-1.502.7109z"/><path d="m182.183 37.3088c0-.63.523-1.1125 1.139-1.1125.631 0 1.153.4825 1.153 1.1125 0 .6433-.522 1.1268-1.153 1.1268-.616 0-1.139-.4835-1.139-1.1268zm2.065 0c0-.5235-.403-.925-.926-.925-.522 0-.925.4015-.925.925 0 .5501.416.9527.925.9527.523-.0134.926-.4159.926-.9527zm-1.153.671h-.202v-1.3143h.497c.308 0 .47.1198.47.3749 0 .2284-.162.335-.323.3493l.363.5901h-.243l-.347-.5768h-.202zm0-.7376h.215c.24 0 .347-.0277.347-.2151 0-.1342-.08-.1875-.295-.1875h-.267z"/><path d="m7.29826 8.50977v6.00193c0 .9977-.31244 1.7865-.93629 2.3663-.62283.5798-1.47513.8707-2.55586.8707-1.06434 0-1.90946-.2827-2.53536-.8451-.625907-.5634-.945517-1.3378-.956785-2.3223v-6.07153h1.876685v6.01523c0 .5962.14239 1.0315.42922 1.3051.2858.2724.68122.4097 1.18624.4097 1.05512 0 1.5919-.5552 1.60727-1.6646v-6.06543z"/><path d="m9.87124 10.8506.05634.7826c.48352-.6054 1.13192-.9076 1.94632-.9076.7171 0 1.2518.21 1.6032.632.3493.4221.5286 1.0511.5378 1.89v4.3752h-1.8101v-4.3311c0-.3842-.083-.6628-.25-.8359-.1669-.1731-.4435-.2592-.8318-.2592-.5091 0-.8902.2172-1.14523.6505v4.7757h-1.80907v-6.7722z"/><g mask="url(#b)"><path d="m15.4539 17.6232h1.8142v-6.7723h-1.8142zm-.1065-8.52499c0-.27044.0902-.49478.2725-.66995.1803-.17415.4272-.26224.7406-.26224.3094 0 .5553.08809.7386.26224.1844.17517.2756.39951.2756.66995 0 .27556-.0922.50093-.2787.6761-.1854.17517-.4302.26229-.7355.26229-.3042 0-.549-.08712-.7355-.26229-.1854-.17517-.2776-.40054-.2776-.6761z"/><path d="m20.8984 9.18591v1.66459h1.1575v1.3266h-1.1575v3.3805c0 .25.0471.4292.1444.5378.0943.1086.2787.1629.5501.1629.1998 0 .378-.0143.5317-.044v1.3706c-.3545.1086-.7202.1629-1.0951.1629-1.2682 0-1.9156-.6403-1.9402-1.9218v-3.6489h-.9885v-1.3266h.9885v-1.66459z"/><path d="m25.9483 12.1842c-.3596 0-.6495.1219-.8738.3637-.2223.2438-.3657.5921-.4282 1.0448h2.5169v-.1454c-.0082-.4026-.1178-.713-.3257-.9333-.209-.2202-.5051-.3298-.8892-.3298zm.2069 5.5645c-.9936 0-1.8019-.3053-2.4257-.9148-.6229-.6085-.9353-1.4208-.9353-2.4339v-.1752c0-.6802.1311-1.2887.3944-1.8255.2622-.5357.6351-.9486 1.1166-1.2385.4825-.2899 1.0315-.4353 1.6492-.4353.9261 0 1.6554.2919 2.1881.8768.5317.5839.798 1.4117.798 2.4842v.7386h-4.3127c.0584.4425.2346.7969.5297 1.0643.294.2674.6658.4006 1.1155.4006.6976 0 1.2416-.252 1.6339-.7571l.8892.9947c-.2704.3842-.6382.6833-1.1012.8984-.4631.2141-.9763.3227-1.5397.3227z"/><path d="m31.4684 14.3214c0 .6352.1096 1.1218.3309 1.4608.2213.3381.5429.5071.965.5071.5593 0 .9527-.2356 1.1821-.7079v-2.6767c-.2253-.4722-.6156-.7078-1.1709-.7078-.8717 0-1.3071.7078-1.3071 2.1245zm-1.8101-.1352c0-1.0551.2377-1.8961.712-2.522.4732-.6259 1.1207-.9384 1.9422-.9384.6597 0 1.2047.2459 1.6339.7376v-3.45424h1.8152v9.61394h-1.6328l-.0881-.7192c-.4518.5624-1.0306.8441-1.7405.8441-.7969 0-1.4362-.3134-1.9187-.9424-.4814-.628-.7232-1.5007-.7232-2.6194z"/><path d="m47.5205 14.9943 1.2272-6.48441h1.8706l-2.0212 9.11301h-1.89l-1.4833-6.0962-1.4833 6.0962h-1.89l-2.0221-9.11301h1.8715l1.2324 6.47211 1.5028-6.47211h1.5898z"/><path d="m53.4158 16.3652c.2673 0 .5132-.0594.7386-.1782.2243-.1199.3923-.2787.5009-.4794v-1.1637h-.6761c-.9056 0-1.3881.3124-1.4454.9383l-.0072.1065c0 .2254.0789.4108.2377.5573.1598.1455.3759.2192.6515.2192zm1.4956 1.258c-.083-.1629-.1445-.3657-.1813-.6075-.4385.4876-1.008.7324-1.7087.7324-.6628 0-1.2129-.1915-1.6493-.5757-.4364-.3841-.6546-.8686-.6546-1.4525 0-.7171.2664-1.2682.7991-1.6524.5316-.3841 1.2999-.5777 2.3048-.5818h.8339v-.3883c0-.3124-.0809-.5624-.2407-.7509-.1619-.1874-.4149-.2817-.7612-.2817-.3042 0-.5439.0738-.717.2193-.1732.1464-.2592.3462-.2592.6013h-1.8091c0-.3924.1209-.756.3627-1.09.2427-.3339.5849-.5952 1.0264-.7857.4436-.1895.9394-.2837 1.4895-.2837.8348 0 1.4976.2089 1.9883.6289.4897.419.7345 1.008.7345 1.7671v2.9359c.0041.6433.0942 1.1289.2694 1.4587v.1066z"/><path d="m60.3625 15.0626 1.2518-4.2123h1.9402l-2.7228 7.8233-.1496.3575c-.4057.8841-1.0725 1.3266-2.0037 1.3266-.2622 0-.5296-.0399-.8011-.1188v-1.3707l.2756.0062c.3421 0 .5982-.0523.7673-.1567.169-.1035.3011-.2777.3964-.5184l.2141-.5572-2.3725-6.7918h1.9463z"/><path d="m1.8092 30.3115c0 .6434.12087 1.1361.36263 1.4762s.58902.5101 1.03873.5101c.43844 0 .78059-.168 1.02644-.504s.36878-.8738.36878-1.6134c0-.632-.12293-1.1207-.36878-1.4679-.24585-.3463-.5921-.5194-1.03873-.5194-.44151 0-.78468.1721-1.02644.5163-.24176.3452-.36263.8789-.36263 1.6021zm-1.80907793-.128c0-.672.12907293-1.2713.38721993-1.7968.25917-.5255.632048-.9322 1.117608-1.22.48659-.2889 1.05103-.4323 1.69332-.4323.91375 0 1.66053.2796 2.23727.839.57775.5593.90044 1.3183.96702 2.2782l.01332.463c0 1.0388-.2899 1.8726-.87073 2.5006-.57981.6279-1.35835.9414-2.33459.9414s-1.7558-.3125-2.337657-.9384c-.58083-.6259-.87278093-1.4771-.87278093-2.5538z"/><path d="m7.89546 33.6319v-5.4447h-1.00697v-1.3276h1.00697v-.5757c0-.7601.2182-1.3491.65459-1.7681.43537-.42 1.0459-.629 1.83055-.629.25 0 .5573.042.9199.125l-.0184 1.4024c-.1506-.0379-.335-.0563-.5511-.0563-.6802 0-1.02032.3186-1.02032.9567v.545h1.34602v1.3276h-1.34602v5.4447z"/><path d="m22.409 30.5961c-.0707.9804-.4333 1.7527-1.0868 2.3162-.6516.5634-1.5131.8441-2.5805.8441-1.1688 0-2.0877-.3924-2.7566-1.1791-.671-.7867-1.006-1.8665-1.006-3.2391v-.5573c0-.8759.1547-1.6482.4641-2.3151.3083-.6679.7498-1.1801 1.3235-1.5376.5736-.3565 1.2395-.5348 1.9996-.5348 1.052 0 1.8982.2817 2.5415.8452.6423.5634 1.0131 1.3542 1.1135 2.3714h-1.8777c-.0451-.588-.209-1.0141-.4917-1.2794-.2807-.2643-.7099-.3975-1.2856-.3975-.6259 0-1.0941.2243-1.4055.673-.3104.4487-.4702 1.1443-.4794 2.0877v.6874c0 .9855.1496 1.7056.4487 2.1594.2981.4559.7683.6822 1.4116.6822.5788 0 1.0121-.1321 1.2979-.3964.2868-.2653.4497-.6751.4917-1.2303z"/><path d="m26.4076 28.1927c-.3596 0-.6495.1219-.8738.3647-.2223.2428-.3647.5911-.4282 1.0439h2.5169v-.1445c-.0082-.4025-.1178-.714-.3258-.9342-.2089-.2203-.505-.3299-.8891-.3299zm.2069 5.5645c-.9937 0-1.8019-.3052-2.4258-.9137-.6228-.6095-.9352-1.4219-.9352-2.435v-.1752c0-.6802.1311-1.2887.3944-1.8254.2622-.5358.6351-.9486 1.1166-1.2385.4824-.2899 1.0315-.4354 1.6502-.4354.9251 0 1.6544.293 2.1871.8769.5317.5839.798 1.4126.798 2.4841v.7396h-4.3127c.0595.4416.2346.796.5296 1.0634.294.2673.6659.4005 1.1166.4005.6966 0 1.2406-.252 1.6339-.757l.8882.9947c-.2705.3841-.6382.6832-1.1012.8983-.4631.2152-.9763.3227-1.5397.3227z"/><path d="m32.0647 26.8598.0573.7826c.4836-.6054 1.132-.9086 1.9454-.9086.7181 0 1.2528.211 1.6031.633.3493.4211.5296 1.0511.5378 1.89v4.3752h-1.809v-4.3311c0-.3842-.083-.6628-.25-.8359s-.4436-.2602-.8318-.2602c-.5091 0-.8912.2172-1.1463.6515v4.7757h-1.808v-6.7722z"/><path d="m39.7196 25.1946v1.6646h1.1576v1.3276h-1.1576v3.3795c0 .2499.0471.4302.1434.5388.0953.1076.2797.1619.5511.1619.1998 0 .378-.0144.5317-.0441v1.3707c-.3544.1085-.7201.1628-1.0951.1628-1.2682 0-1.9156-.6402-1.9402-1.9217v-3.6479h-.9885v-1.3276h.9885v-1.6646z"/><path d="m45.6649 28.5554c-.2459-.0328-.4631-.0492-.6515-.0492-.6843 0-1.132.2315-1.3451.6945v4.4316h-1.809v-6.7723h1.7086l.0502.8072c.3627-.6218.8656-.9332 1.509-.9332.1997 0 .3872.0277.5624.082z"/><path d="m48.749 32.3739c.2673 0 .5132-.0594.7396-.1783.2243-.1198.3913-.2786.4999-.4794v-1.1637h-.6751c-.9066 0-1.3891.3125-1.4464.9394l-.0062.1055c0 .2254.0789.4118.2377.5573.1588.1454.3749.2192.6505.2192zm1.4966 1.2579c-.084-.1628-.1444-.3646-.1823-.6074-.4385.4886-1.007.7324-1.7087.7324-.6628 0-1.2129-.1915-1.6483-.5757-.4363-.3831-.6545-.8676-.6545-1.4526 0-.717.2653-1.2682.798-1.6513.5316-.3841 1.3009-.5788 2.3059-.5829h.8328v-.3882c0-.3125-.0799-.5624-.2407-.7509-.1619-.1875-.4149-.2817-.7612-.2817-.3042 0-.5429.0738-.716.2192-.1731.1465-.2602.3463-.2602.6013h-1.8081c0-.3923.1209-.756.3627-1.0889.2417-.335.5839-.5962 1.0264-.7857.4426-.1905.9384-.2848 1.4895-.2848.8349 0 1.4966.21 1.9873.629.4897.419.7355 1.009.7355 1.7681v2.9349c.0041.6433.0932 1.1289.2684 1.4587v.1065z"/><path d="m53.2621 33.6323h1.8142v-9.6139h-1.8142z"/><path d="m65.4084 28.869c0-.9558-.1701-1.6821-.5133-2.1779-.3421-.4968-.8307-.7457-1.4648-.7457-.629 0-1.1166.2458-1.4577.7355-.3422.4907-.5153 1.2088-.5194 2.1563v.4446c0 .9302.1711 1.6524.5142 2.1656.3411.5132.8339.7703 1.4762.7703.63 0 1.1145-.2479 1.4515-.7427.3381-.4937.5092-1.2149.5133-2.1614zm1.9022.4128c0 .8974-.1577 1.6831-.4753 2.3592-.3165.6761-.7703 1.1975-1.3614 1.5653-.59.3667-1.2672.5501-2.0303.5501-.755 0-1.4291-.1803-2.0222-.544-.5921-.3636-1.051-.882-1.3757-1.555-.3268-.6741-.4907-1.4495-.4958-2.3254v-.4507c0-.8974.1618-1.6872.4855-2.3694.3237-.6823.7806-1.2057 1.3707-1.5704.591-.3657 1.2651-.5481 2.0242-.5481.7601 0 1.4351.1824 2.0252.5481.591.3647 1.0469.8881 1.3706 1.5704.3237.6822.4845 1.47.4845 2.3632z"/><path d="m70.1942 27.5981c.4794-.5757 1.0828-.8636 1.8091-.8636 1.4679 0 2.2137.8533 2.2332 2.56v4.3372h-1.8081v-4.2871c0-.3882-.083-.675-.2499-.8604-.168-.1865-.4446-.2787-.8329-.2787-.5306 0-.9148.2039-1.1514.6126v4.8136h-1.8091v-9.6139h1.8091z"/><path d="m75.6707 33.6323h1.8142v-6.7722h-1.8142zm-.1076-8.5249c0-.2715.0912-.4948.2725-.67.1823-.1752.4292-.2622.7417-.2622.3093 0 .5541.087.7385.2622s.2756.3985.2756.67c0 .2755-.0932.4999-.2786.6761-.1855.1751-.4313.2622-.7355.2622-.3043 0-.5501-.0871-.7345-.2622-.1865-.1762-.2797-.4006-.2797-.6761z"/><path d="m80.4761 30.3115c0 .6434.1208 1.1361.3626 1.4762.2428.3401.589.5101 1.0398.5101.4384 0 .7805-.168 1.0254-.504.2468-.336.3698-.8738.3698-1.6134 0-.632-.123-1.1207-.3698-1.4679-.2449-.3463-.5921-.5194-1.0388-.5194-.4415 0-.7836.1721-1.0264.5163-.2418.3452-.3626.8789-.3626 1.6021zm-1.8091-.128c0-.672.1291-1.2713.3882-1.7968.2582-.5255.6311-.9322 1.1176-1.22.4856-.2889 1.05-.4323 1.6923-.4323.9148 0 1.6606.2796 2.2383.839.5778.5593.9005 1.3183.9671 2.2782l.0122.463c0 1.0388-.2899 1.8726-.8707 2.5006-.5788.6279-1.3573.9414-2.3335.9414-.9763 0-1.7569-.3125-2.3377-.9384-.5819-.6259-.8738-1.4771-.8738-2.5538z"/></g></g></svg>