<svg fill="none" height="30" viewBox="0 0 144 30" width="144" xmlns="http://www.w3.org/2000/svg"><path d="m34.5 28.425-11.25-12.825c-.075-.075-.15-.075-.225-.075s-.15.075-.225.075l-4.05 4.65c-.075.15-.075.3 0 .45l7.125 8.175c.075.075.15.075.225.075h8.175c.15 0 .225-.075.3-.225.075-.075 0-.225-.075-.3zm-11.625-16.05c.075.075.15.075.225.075s.15-.075.225-.075l9.6-10.95c.075-.075.075-.225.075-.375-.075-.15-.15-.15-.3-.15h-8.25c-.075 0-.15.075-.225.075l-5.475 6.225c-.075.15-.075.3 0 .45zm-1.2 1.35-11.1-12.75c-.075-.075-.15-.15-.225-.15h-8.175c-.15 0-.225.075-.3.15-.075.15 0 .225.075.375l10.8 12.45-12.675 14.625c-.075.075-.075.225-.075.3.075.075.15.15.3.15h8.25c.075 0 .15-.075.225-.15l8.7-9.975h.075l4.05-4.65c.15-.075.15-.3.075-.375zm111.15-13.425c-3.6 0-6.6 1.425-9.075 4.35-1.725-2.775-4.575-4.35-8.1-4.35-3.75 0-6.075 1.8-7.725 3.675v-2.55c0-.3-.225-.525-.525-.525h-6.15c-.3 0-.525.225-.525.525v27c0 .3.225.525.525.525h6.15c.3 0 .525-.225.525-.525v-15.225c0-3.75 2.1-6.225 5.25-6.225 3.225 0 4.95 2.1 4.95 6v15.45c0 .3.225.525.525.525h6.225c.3 0 .525-.225.525-.525v-15.3c0-3.825 1.95-6.15 5.25-6.15 4.125 0 4.95 3.3 4.95 6.075v15.375c0 .3.225.525.525.525h6.225c.3 0 .525-.225.525-.525v-17.25c0-6.825-3.75-10.875-10.05-10.875zm-51.3-.3c-8.625 0-15.45 6.6-15.45 15v.075c0 8.475 6.6 14.925 15.375 14.925 8.7 0 15.525-6.6 15.525-15v-.075c0-8.55-6.6-14.925-15.45-14.925zm8.625 15.075c0 5.1-3.675 8.925-8.55 8.925-4.95 0-8.7-3.825-8.7-9v-.075c0-5.1 3.675-8.925 8.55-8.925 4.95 0 8.7 3.825 8.7 9zm-41.925-15.075c-8.7 0-15.45 6.6-15.45 15v.075c0 8.475 6.6 14.925 15.375 14.925 8.7 0 15.525-6.6 15.525-15v-.075c0-8.55-6.675-14.925-15.45-14.925zm8.625 15.075c0 5.1-3.675 8.925-8.55 8.925-4.95 0-8.7-3.825-8.7-9v-.075c0-5.1 3.675-8.925 8.55-8.925 4.95 0 8.7 3.825 8.7 9z" fill="#1f304c"/></svg>