<svg fill="none" height="48" viewBox="0 0 107 48" width="107" xmlns="http://www.w3.org/2000/svg" xmlns:xlink="http://www.w3.org/1999/xlink"><clipPath id="a"><path d="m0 0h106.8v48h-106.8z"/></clipPath><g clip-path="url(#a)"><path clip-rule="evenodd" d="m75.9087 19.9053c.3208-.4979.7805-.7571 1.2984-.7366.3377.0037.6398.1119 7.3496 2.8627.0037 0 1.9607.7927 1.9607.7927.7093.2648 1.1389.9959 1.0939 1.8239-.045.8076-.5103 1.4398-1.2027 1.6151-.0113.0056-2.7864.8859-2.7864.8859-6.2444 1.9955-6.4508 2.0515-6.7829 2.0347-.5179-.0186-.9719-.3226-1.2421-.8337-.1971-.3692-.3321-.9884-.4147-1.7307-.2345-2.2492.0507-5.6378.7262-6.714zm15.0106 20.4963c-.1783.4849-.6005.8095-1.1802.9139-1.67.2835-6.8974-1.6281-7.9875-2.915-.2196-.2686-.3528-.5558-.381-.8467-.0225-.2033.0057-.4084.0751-.5987.1145-.3245.3115-.5781 5.0117-6.0668.0037 0 1.3735-1.6151 1.3735-1.6151.4691-.58 1.304-.7628 2.0789-.4662.7524.2872 1.2121.9306 1.1671 1.6374-.0019.028-.0169 2.9094-.0169 2.9094-.0188 6.5201-.0319 6.7345-.1407 7.0478zm10.6047-2.2697c-.546.2183-1.071.166-1.484-.1566-.2663-.207-.5497-.6304-4.2536-6.6096l-1.1013-1.7829c-.4222-.6378-.3434-1.4827.1857-2.1224.5085-.6229 1.2647-.8597 1.9271-.6042.0356.0168 2.7731.9157 2.7731.9157 6.241 2.0366 6.442 2.113 6.706 2.3107.403.3208.587.8225.503 1.4044-.242 1.6729-3.68 6.0202-5.256 6.6449zm-3.2251-15.3936c-1.1371.2685-1.7619.4215-2.1109.552.0075-.0093.0357-.0597.0357-.0597-.7092.1959-1.4824-.1436-1.9402-.8392-.4428-.6714-.4353-1.4547.0169-2.0011.0207-.0224 1.7357-2.3443 1.7357-2.3443 3.7976-5.1624 3.9979-5.4309 4.2719-5.6081.443-.2947.976-.3114 1.509-.0578 1.503.7311 4.554 5.2332 4.736 6.9639.004.0205 0 .041 0 .0597.037.5856-.178 1.0667-.608 1.354-.28.1827-.554.2722-7.6461 1.9806zm-7.1188-5.8207c.1163 2.3816-.9119 2.6987-1.2478 2.8013-.3396.1063-1.3734.4233-2.64-1.6189 0 0-8.5729-13.40741-8.7756-13.81958-.1238-.46624.0282-.99217.441-1.41926 1.2815-1.31482 8.2014-3.241357 10.0121-2.7956236.5892.1473346 1 .5203336 1.1426 1.0425336.0995.57628.9457 13.01583 1.0677 15.80953zm-87.816 29.4856c-.49723-.4551-.71673-1.05-.6323-1.727.12009-1.0518.87062-1.7326 2.06397-1.878.08819 0 1.24958.0261 1.24958.0261.55727.0224 1.03388-.1455 1.37725-.4663.349-.3263.54412-.815.55913-1.395 0-.0149-.06753-.4233-.06753-.4233 0-.0877-.20266-.6248-.20266-.6248-.01689-.0411-7.464039-15.1046-7.464039-15.1046-.600424-1.7326-.099445-3.0773 1.405369-3.6461 1.15395-.455 2.28726.0951 2.67378.8635.00375.0019 6.12615 11.4977 6.12615 11.4977l3.006-10.1474c.8031-2.7267 2.077-2.7546 3.0978-2.4767.6492.1715 1.1089.5054 1.3847.9977.3396.6117.3621 1.4361.0657 2.3854l-5.7284 17.889c-1.1502 3.6349-2.34549 4.4909-4.27248 4.8695-2.05646.4159-3.74888.1828-4.64202-.6397zm34.2449-18.3422c.2252 2.3107.2665 3.9668-.2589 4.5468-.2571.2761-.7037.3898-1.5856.3898h-9.558l-.1107.0746c-.4127.2686-.3546.9288-.227 1.5946-.0113-.0821.1764.6565.1764.6565.4203 1.1171 1.3491 1.9321 2.5387 2.2324 1.5611.3935 3.3229-.1362 4.8428-1.4529 1.0545-.9381 1.5311-1.05 2.0959-.9381.9869.1325 1.6586 1.0015 1.6586 2.1056 0 1.5013-1.957 3.8755-6.3082 4.4835-3.0509.4103-5.5596-.2518-7.2558-1.9172-2.2497-2.2026-3.1053-6.0967-2.4823-11.2646.5066-4.3231 2.7168-6.9378 6.3982-7.5719 2.9364-.5222 5.4169-.1007 7.1694 1.2216 1.6456 1.2365 2.6494 3.2544 2.9065 5.8393zm-4.901 1.3801c.1088 0 .2083-.207.0563-1.2608-.3171-2.4151-2.2722-3.8307-5.0754-3.1499-.8988.2088-1.6888.6788-2.2723 1.4118-.1032.1603-.2101.3207-.3133.4774-.319.5222-.4278.8952-.5291 1.3111-.1614.7907-.0564 1.0537.1594 1.2104zm13.5659-15.0505c.5929.2405 1.0301.6956 1.1633 1.2215 0 .0205.1445 1.1172.1445 1.1172v22.6951c0 1.0239-.4897 1.8501-1.321 2.2081-.6679.3115-1.4147.3171-2.062.0187-.5836-.263-1.0039-.7441-1.1652-1.3092-.0132-.0355-.1389-.8449-.1389-.8449v-22.6522c0-1.1656.3003-1.8109 1.0208-2.2343.7486-.4438 1.6024-.5259 2.3585-.22zm18.2698 6.3764c4.8541.9381 6.6741 4.6942 6.0662 12.5551-.2908 3.9333-1.548 6.2757-4.0923 7.5961-2.0208 1.0351-4.5313 1.1377-6.4076.2574 0 0-.2214-.1082-.2252-.1082 0 0-.2421-.1398-.244-.1417l-.2101-.138c-.075-.0783-.2514-.194-.2514-.194l-.6999-.4625-.2307.733-.0244.0876-.017.1828.0414.6192v3.8474l-.1408.9531c-.1595.5445-.5873.9921-1.169 1.2458-.6848.2928-1.4823.2648-2.1915-.0895-.8406-.3991-1.2252-1.1563-1.2252-2.3742v-22.2326c0-1.4192.3433-1.8948.9419-2.2324 1.2234-.6938 2.5799-.3394 3.079.4327.0169.0242.1332.179.1332.179l.0131.0355.0395.1193.1144.1921.1352.5315.4766-.2126.1557-.0783c.075-.0447.2702-.2014.2702-.2014 1.7393-1.1712 3.5481-1.5312 5.6627-1.1022zm-.2345 16.632c3.0415 0 3.6888-2.4562 3.7207-6.1508.0451-3.1555-.4465-5.0466-1.563-5.94-.743-.5949-1.7337-.7404-3.0302-.442-1.9308.3991-2.6869 1.8333-2.8915 5.4701 0 .0354-.0356.9455-.0356.9455s.0356 1.2253.0413 1.2309c.0994 2.1019.6023 4.8863 3.7583 4.8863zm11.6463 1.809c0 .7516-.606 1.313-1.3265 1.313-.7224 0-1.3266-.5614-1.3266-1.2999 0-.7516.6042-1.3148 1.3266-1.3148.7205 0 1.3265.5632 1.3265 1.3017zm-1.3265 1.1228c.6173 0 1.1145-.4831 1.1145-1.1228 0-.6285-.4972-1.1134-1.1145-1.1134-.6192 0-1.1165.4849-1.1165 1.1265 0 .6266.4973 1.1097 1.1165 1.1097zm-.4935-1.865h.5592c.3659 0 .5366.1324.5366.4345 0 .2723-.1745.3861-.4034.4103l.4409.6696h-.2308l-.4165-.6509h-.2721v.6509h-.2139zm.2139.6732h.2608c.2121 0 .4109-.0111.4109-.248 0-.2126-.1819-.235-.3452-.235h-.3265z" fill="#1f304c" fill-rule="evenodd"/></g></svg>