<svg fill="none" height="30" viewBox="0 0 136 30" width="136" xmlns="http://www.w3.org/2000/svg" xmlns:xlink="http://www.w3.org/1999/xlink"><clipPath id="a"><path d="m0 0h135.915v30h-135.915z"/></clipPath><g clip-path="url(#a)" clip-rule="evenodd" fill="#1f304c" fill-rule="evenodd"><path d="m20.6896 0c-2.069.954907-8.1963 5.64987-11.45889 8.03714 3.97879-1.35279 13.52789-3.42175 18.38199-3.50133-1.512-1.11406-5.809-3.978781-6.9231-4.53581z"/><path d="m1.59155 30c1.35279-.557 14.08485-4.7746 25.86205-5.4907.2387-.9549 1.512-4.2971 1.7507-5.1724-12.1751.8753-22.04246 4.4562-26.02124 6.2864z"/><path d="m28.5676 5.17242s-11.8567 11.85678-13.687 13.52788c3.5809-1.2732 10.9814-2.8647 15.6764-3.1035.557-1.6711 1.1141-2.8647 1.1141-2.8647l6.2864-.6366s-4.7745-3.81963-9.3899-6.92308z"/><path d="m3.66049 24.3501c3.74005-3.8196 17.18831-16.15381 17.18831-16.15381-7.0026 1.59151-14.24401 3.81961-16.87001 5.01331l-3.8992002 3.9787c3.2626002-.7162 4.2970802-.7957 6.7639302-1.1936z"/><path d="m105.358 26.1804c-1.512 1.6711-3.501 2.7055-6.5251 2.7055-5.3316 0-8.8329-3.9787-8.8329-10.1856s3.5013-10.34486 8.8329-10.34486c2.7851 0 5.0131.9549 6.6841 2.94426 1.592 1.8303 2.308 3.9788 2.308 7.1618 0 3.5014-.796 5.8091-2.467 7.7189zm-4.217-12.9709c-.478-.6366-1.2736-1.0344-2.2285-1.0344-1.1937 0-2.2282.7957-2.626 1.9894-.3183 1.0344-.5571 2.3872-.5571 4.3766 0 2.3077.2387 3.9788.6366 4.9337.4775 1.1141 1.5915 1.5915 2.626 1.5915 2.228 0 3.183-1.9894 3.183-6.6843 0-2.5465-.318-4.2971-1.034-5.1725zm29.204 15.2786h-4.695l-1.751-6.764c-.398-1.5915-.875-3.5013-1.114-4.7745-.159-.9549-.159-1.1936-.318-1.9894-.08.8753-.159 1.1141-.478 2.5464-.398 1.6711-1.193 5.0929-1.671 6.9231l-1.034 4.0584h-4.775l-5.57-19.73478h5.252l1.591 7.32098c.478 2.3077 1.115 6.1273 1.115 6.1273s.477-3.5013 1.432-6.8435l1.83-6.60478h4.854l1.592 6.52518c.875 3.6605 1.432 7.0027 1.432 7.0027.08-.8754.557-3.8992 1.114-6.4457l1.512-7.00261h5.332zm-49.4962 0h5.252v-28.4881l-5.252 1.19363zm-10.2653 0h5.252v-28.4881l-5.252 1.19363zm-10.1856 0v-17.3475l5.1724-1.1141v18.4616zm2.5464-19.57563c-1.7507 0-3.183-1.43236-3.183-3.18303 0-1.75066 1.4323-3.18302 3.2625-3.18302 1.7507 0 3.1035 1.43236 3.1035 3.18302 0 1.75067-1.4324 3.18303-3.183 3.18303zm-7.4801 19.57563h-16.7109v-3.8197l10.1061-17.26787c.7162-1.19363 1.1141-2.14854 1.1141-2.14854s-.5571-.07958-2.2282-.07958h-8.1962l1.1936-4.45623h15.9947v3.89921l-10.1857 17.74531c-.557.955-1.0345 1.7507-1.0345 1.7507h2.2281 8.9921z"/></g></svg>