<svg fill="none" height="32" viewBox="0 0 32 32" width="32" xmlns="http://www.w3.org/2000/svg"><g fill="#394762"><path d="m12.6 29.68c-.4207-.0031-.8336-.1132-1.2-.32l-8-4.65c-.39638-.2265-.72556-.5541-.95395-.9493-.22839-.3953-.3478-.8441-.34605-1.3007v-13.14996c-.00175-.45652.11766-.90533.34605-1.30062s.55757-.7229.95395-.94939l11.35-6.579995c.3959-.226258.844-.345269 1.3-.345269s.9041.119011 1.3.345269l8.13 4.699995c.3658.20906.6698.51109.8812.87549.2115.3644.3229.77821.3229 1.19951 0 .42131-.1114.83512-.3229 1.19952-.2114.3644-.5154.66643-.8812.87549l-8.48 4.89996c-.6089.3516-1.1145.8575-1.4656 1.4667s-.5354 1.3002-.5344 2.0033v9.58c.0013.4218-.109.8364-.3198 1.2017s-.5144.6683-.8802.8783c-.3664.2068-.7793.3169-1.2.32zm3.45-27.54997c-.1052.00035-.2086.02791-.3.08l-11.39 6.58001c-.09268.05106-.16963.1265-.22251.21816s-.07968.19604-.07749.30184v13.14996c-.00007.1054.02763.209.08029.3003.05267.0912.12844.167.21971.2197l8 4.64c.0587.0409.1285.0628.2.0628s.1413-.0219.2-.0628c.0628-.031.1152-.0797.1507-.1401s.0527-.1299.0493-.1999v-9.58c-.0007-1.0538.2762-2.0893.8029-3.0021.5266-.9129 1.2844-1.6709 2.1971-2.1979l8.48-4.89997c.062-.03203.1137-.08096.1491-.14112s.053-.12911.0509-.19887c.0028-.07123-.0144-.14182-.0498-.20371-.0353-.06189-.0874-.11259-.1502-.1463l-8.13-4.7c-.0803-.04416-.1688-.07139-.26-.08z"/><path d="m19.4 29.7301c-.6365 0-1.247-.2529-1.6971-.703-.45-.45-.7029-1.0605-.7029-1.697v-9.33c.0013-.4559.122-.9035.3501-1.2983s.5556-.7229.9499-.9517l8.14-4.7c.3668-.2025.7803-.3055 1.1992-.2987.419.0069.8288.1232 1.1888.3376.3601.2144.6577.5193.8633.8844s.312.7777.3087 1.1967v9.29c-.0003.4561-.1206.9041-.3488 1.299-.2281.395-.5562.7229-.9512.951l-8.14 4.7c-.3527.2047-.7522.3149-1.16.32zm8.24-17c-.0699-.0016-.139.0157-.2.05l-8.14 4.7c-.0913.0527-.167.1285-.2197.2198s-.0804.1948-.0803.3002v9.29c.0004.0706.019.14.054.2013.0351.0613.0853.1125.146.1487.0608.0351.1298.0536.2.0536s.1392-.0185.2-.0536l8.14-4.64c.0899-.0542.1647-.1303.2171-.2213.0525-.0909.081-.1937.0829-.2987v-9.31c-.0004-.0706-.019-.14-.054-.2013-.0351-.0613-.0853-.1125-.146-.1487-.0628-.0296-.1307-.0466-.2-.05z"/></g></svg>