<svg fill="none" height="32" viewBox="0 0 32 32" width="32" xmlns="http://www.w3.org/2000/svg"><g fill="#394762"><path d="m10 12c1.1046 0 2-.8954 2-2 0-1.10457-.8954-2-2-2-1.10457 0-2 .89543-2 2 0 1.1046.89543 2 2 2z"/><path d="m22 12c1.1046 0 2-.8954 2-2 0-1.10457-.8954-2-2-2s-2 .89543-2 2c0 1.1046.8954 2 2 2z"/><path d="m27.5 4h-9.5v-1c0-.26522-.1054-.51957-.2929-.70711-.1875-.18753-.4419-.29289-.7071-.29289h-2c-.2652 0-.5196.10536-.7071.29289-.1875.18754-.2929.44189-.2929.70711v1h-9.5c-.66304 0-1.29893.26339-1.76777.73223s-.73223 1.10473-.73223 1.76777v7c0 .663.26339 1.2989.73223 1.7678.46884.4688 1.10473.7322 1.76777.7322h23c.663 0 1.2989-.2634 1.7678-.7322.4688-.4689.7322-1.1048.7322-1.7678v-7c0-.66304-.2634-1.29893-.7322-1.76777-.4689-.46884-1.1048-.73223-1.7678-.73223zm.5 9.5c0 .1326-.0527.2598-.1464.3536-.0938.0937-.221.1464-.3536.1464h-23c-.13261 0-.25979-.0527-.35355-.1464-.09377-.0938-.14645-.221-.14645-.3536v-7c0-.13261.05268-.25979.14645-.35355.09376-.09377.22094-.14645.35355-.14645h23c.1326 0 .2598.05268.3536.14645.0937.09376.1464.22094.1464.35355zm2 7v9c0 .663-.2634 1.2989-.7322 1.7678-.4689.4688-1.1048.7322-1.7678.7322h-1.67c-.7954-.0007-1.5579-.3172-2.12-.88l-1.79-1.78-2.33 2.32c-.1846.1884-.4362.2962-.7.3-.1986.0012-.3931-.0569-.5586-.1667s-.2946-.2664-.3708-.4498c-.0761-.1835-.0959-.3854-.0569-.5802.0391-.1947.1353-.3734.2763-.5133l2.33-2.33-2.22-2.21c-.1883-.1883-.2941-.4437-.2941-.71s.1058-.5217.2941-.71.4437-.2941.71-.2941.5217.1058.71.2941l5.41 5.42c.0934.0927.2043.166.3261.2158.1218.0497.2523.075.3839.0742h1.67c.1326 0 .2598-.0527.3536-.1464.0937-.0938.1464-.221.1464-.3536v-9c0-.1326-.0527-.2598-.1464-.3536-.0938-.0937-.221-.1464-.3536-.1464h-23c-.13261 0-.25979.0527-.35355.1464-.09377.0938-.14645.221-.14645.3536v9c0 .1326.05268.2598.14645.3536.09376.0937.22094.1464.35355.1464h1.67c.13161.0008.26207-.0245.38391-.0742.12183-.0498.23265-.1231.32609-.2158l5.41-5.42c.0932-.0932.2039-.1672.3258-.2177.1218-.0504.2523-.0764.3842-.0764s.2624.026.3842.0764c.1219.0505.2326.1245.3258.2177s.1672.2039.2177.3258c.0504.1218.0764.2523.0764.3842s-.026.2624-.0764.3842c-.0505.1219-.1245.2326-.2177.3258l-2.22 2.21 2.3 2.3c.1376.1404.2308.3182.2679.5113.0371.193.0165.3927-.0593.5741-.0757.1814-.2033.3364-.3667.4457-.1633.1094-.3553.1681-.5519.1689-.1316.0008-.2621-.0245-.3839-.0742-.1218-.0498-.2327-.1231-.3261-.2158l-2.29-2.29-1.79 1.78c-.56207.5628-1.32462.8793-2.12.88h-1.67c-.66304 0-1.29893-.2634-1.76777-.7322-.46884-.4689-.73223-1.1048-.73223-1.7678v-9c0-.663.26339-1.2989.73223-1.7678.46884-.4688 1.10473-.7322 1.76777-.7322h23c.663 0 1.2989.2634 1.7678.7322.4688.4689.7322 1.1048.7322 1.7678z"/></g></svg>