<svg fill="none" height="32" viewBox="0 0 32 32" width="32" xmlns="http://www.w3.org/2000/svg" xmlns:xlink="http://www.w3.org/1999/xlink"><clipPath id="a"><path d="m0 0h32v32h-32z"/></clipPath><g clip-path="url(#a)" fill="#394762"><path d="m16 19c1.6569 0 3-1.3431 3-3s-1.3431-3-3-3-3 1.3431-3 3 1.3431 3 3 3z"/><path d="m21.66 21.66c.9294-.9304 1.6151-2.0757 1.9964-3.3344.3813-1.2586.4464-2.5919.1895-3.8817-.2568-1.2899-.8277-2.4965-1.6621-3.513-.8344-1.01663-1.9065-1.81183-3.1215-2.31526-1.215-.50342-2.5353-.69955-3.8442-.57101-1.3088.12853-2.5658.57777-3.6597 1.30794-1.0938.73013-1.99076 1.71873-2.61144 2.87823-.62067 1.1595-.94593 2.4541-.94696 3.7692 0 .2652-.10536.5196-.29289.7071-.18754.1876-.44189.2929-.70711.2929s-.51957-.1053-.70711-.2929c-.18753-.1875-.29289-.4419-.29289-.7071-.00049-2.3135.80124-4.5557 2.26859-6.34445 1.46735-1.78872 3.50951-3.01332 5.77861-3.46512 2.269-.45181 4.6245-.10287 6.6651.98736 2.0406 1.09022 3.64 2.85431 4.5258 4.99161s1.003 4.5156.3318 6.7297c-.6712 2.214-2.0894 4.1269-4.0128 5.4126-1.9235 1.2856-4.2332 1.8646-6.5357 1.6382s-4.4552-1.2442-6.0914-2.8799c-.16383-.1913-.24943-.4373-.23971-.689s.11405-.4904.29215-.6685c.17809-.1781.41683-.2825.66851-.2922.25167-.0097.49775.0759.68905.2397.743.7438 1.6253 1.3339 2.5965 1.7365s2.0122.6098 3.0635.6098 2.0923-.2072 3.0635-.6098 1.8535-.9927 2.5965-1.7365zm9.34-6.66c-.2652 0-.5196.1054-.7071.2929-.1875.1876-.2929.4419-.2929.7071.0002 2.7691-.8208 5.4761-2.3591 7.7785-1.5383 2.3025-3.7249 4.0971-6.2832 5.1568s-5.3734 1.337-8.0892.7967c-2.7159-.5403-5.21056-1.8738-7.1685-3.832-2.62564-2.6256-4.10071-6.1867-4.10071-9.9 0-3.7132 1.47507-7.27433 4.10071-9.89997s6.1868-4.10071 9.9-4.10071 7.2744 1.47507 9.9 4.10071c.1913.16383.4374.24943.6891.23971.2516-.00972.4904-.11405.6685-.29215.1781-.17809.2824-.41683.2921-.66851.0097-.25167-.0759-.49775-.2397-.68905-3.0003-2.99831-7.0684-4.68258371-11.31-4.68258371s-8.30972 1.68427371-11.31 4.68258371c-2.99831 3.00028-4.68258423 7.06837-4.68258423 11.30997 0 4.2417 1.68427423 8.3098 4.68258423 11.31 3.00028 2.9983 7.0684 4.6826 11.31 4.6826s8.3097-1.6843 11.31-4.6826c1.4922-1.4803 2.6753-3.2425 3.4804-5.1841.8052-1.9417 1.2163-4.0239 1.2096-6.1259 0-.2652-.1054-.5195-.2929-.7071-.1875-.1875-.4419-.2929-.7071-.2929z"/></g></svg>