<svg fill="none" height="32" viewBox="0 0 32 32" width="32" xmlns="http://www.w3.org/2000/svg" xmlns:xlink="http://www.w3.org/1999/xlink"><clipPath id="a"><path d="m0 0h32v32h-32z"/></clipPath><g clip-path="url(#a)"><path d="m29.5 6.00001h-3.5v-3.13c.0011-.36259-.0963-.71867-.2819-1.03016-.1857-.31148-.4525-.56663-.7719-.73817-.3195-.171543-.6796-.253009-1.0417-.235688-.3622.017322-.7129.13278-1.0145.334018l-1.89 1.26-5.3 3.54h-13.2c-.66304 0-1.29893.2634-1.767767.73224-.468841.46884-.732233 1.10472-.732233 1.76776v14.99999c0 .6631.263392 1.2989.732233 1.7678.468837.4688 1.104727.7322 1.767767.7322h3.5v3.13c-.00085.3635.09739.7204.28415 1.0322.18677.3119.45499.567.77585.7378.29076.1499.6129.2287.94.23.39445.0019.78064-.1129 1.11-.33l7.19-4.8h13.2c.663 0 1.2989-.2634 1.7678-.7322.4688-.4689.7322-1.1047.7322-1.7678v-14.99999c0-.66304-.2634-1.29892-.7322-1.76776-.4689-.46884-1.1048-.73224-1.7678-.73224zm-8.5-1.13 3-2v3.13h-4.7zm3 3.13v9.92999c-.0009.1647-.0424.3267-.1209.4715s-.1915.2679-.3291.3585l-2.55 1.7-5.3 3.54h-7.7v-9.93c.00085-.1647.04237-.3266.12088-.4714.0785-.1448.19156-.268.32912-.3586l7.85-5.23999zm-21.5 15.99999c-.13261 0-.25979-.0527-.35355-.1464-.09377-.0938-.14645-.221-.14645-.3536v-14.99999c0-.1326.05268-.25978.14645-.35355.09376-.09377.22094-.14645.35355-.14645h10.2l-5.36 3.56999c-.41224.2739-.75032.6454-.98413 1.0816-.2338.4362-.35605.9235-.35587 1.4184v9.93zm5.5 5.13v-3.13h4.7zm22-5.63c0 .1326-.0527.2598-.1464.3536-.0938.0937-.221.1464-.3536.1464h-10.2l1.7-1.13 3.66-2.44c.4122-.2738.7503-.6454.9841-1.0816s.3561-.9235.3559-1.4184v-9.92999h3.5c.1326 0 .2598.05268.3536.14645.0937.09377.1464.22095.1464.35355z" fill="#394762"/></g></svg>