<svg fill="none" height="32" viewBox="0 0 32 32" width="32" xmlns="http://www.w3.org/2000/svg"><g fill="#394762"><path d="m16 16.82c-.3969.0009-.7893-.0844-1.15-.25l-12.75997-6c-.39761-.1832-.73441-.4764-.97048-.84505-.236083-.36864-.361554-.79722-.361554-1.23498 0-.43775.125471-.86634.361554-1.23498.23607-.36864.57287-.66189.97048-.84502l12.75997-5.999997c.3601-.168002.7527-.255066 1.15-.255066.3974 0 .7899.087064 1.15.255066l12.76 5.999997c.3976.18313.7344.47638.9705.84502s.3616.79723.3616 1.23498c0 .43776-.1255.86634-.3616 1.23498-.2361.36865-.5729.66185-.9705.84505l-12.76 6c-.3607.1656-.7531.2509-1.15.25zm-13.05997-8.59003c-.05428.02128-.10089.05842-.13374.10659-.03286.04816-.05043.10511-.05043.16341 0 .05831.01757.11525.05043.16342.03285.04816.07946.08531.13374.10658l12.75997 6.00003c.0951.0396.197.06.3.06s.205-.0204.3-.06l12.76-6.00003c.0543-.02127.1009-.05842.1338-.10658.0328-.04817.0504-.10511.0504-.16342 0-.0583-.0176-.11525-.0504-.16341-.0329-.04817-.0795-.08531-.1338-.10659l-12.76-6c-.095-.0396-.197-.06-.3-.06s-.2049.0204-.3.06z"/><path d="m16.1201 23.8199c-.3868-.0033-.7685-.0885-1.12-.25l-13.54005-6.31c-.2222-.122-.38977-.3238-.468804-.5647s-.063634-.5028.043084-.7327c.10672-.23.29679-.4108.53176-.506.23498-.0951.49732-.0975.73396-.0066l13.52005 6.31c.095.0397.197.06.3.06.1029 0 .2049-.0203.3-.06l13.28-6.1999c.2366-.091.4989-.0886.7339.0065.235.0952.4251.276.5318.506.1067.2299.1221.4918.0431.7327-.0791.2409-.2466.4427-.4688.5648l-13.28 6.1999c-.3569.1667-.7462.2521-1.14.25z"/><path d="m16.1201 30.8199c-.3868-.0033-.7685-.0885-1.12-.25l-13.54005-6.31c-.2222-.122-.38977-.3238-.468804-.5647s-.063634-.5028.043084-.7327c.10672-.23.29679-.4108.53176-.506.23498-.0951.49732-.0975.73396-.0066l13.52005 6.31c.095.0397.197.06.3.06.1029 0 .2049-.0203.3-.06l13.28-6.2c.2366-.0909.4989-.0885.7339.0066.235.0952.4251.276.5318.506.1067.2299.1221.4918.0431.7327-.0791.2409-.2466.4427-.4688.5647l-13.28 6.2c-.3569.1667-.7462.2521-1.14.25z"/></g></svg>