<svg fill="none" height="32" viewBox="0 0 32 32" width="32" xmlns="http://www.w3.org/2000/svg"><g fill="#394762"><path d="m7.77 30.09c-.26545.0054-.52869-.0493-.77-.16-.3029-.1423-.55833-.3689-.7357-.6527-.17736-.2838-.26913-.6127-.2643-.9473v-4.33h-3.5c-.3283 0-.65339-.0647-.95671-.1903-.30331-.1256-.57891-.3098-.811057-.5419-.232146-.2322-.416295-.5078-.541932-.8111-.1256366-.3033-.190301-.6284-.190301-.9567v-15c0-.66304.263392-1.29893.732233-1.76777.468837-.46884 1.104727-.73223 1.767767-.73223h9.5c.2652 0 .5196.10536.7071.29289.1875.18754.2929.44189.2929.70711s-.1054.51957-.2929.70711c-.1875.18753-.4419.29289-.7071.29289h-9.5c-.13261 0-.25979.05268-.35355.14645-.09377.09376-.14645.22094-.14645.35355v15c0 .1326.05268.2598.14645.3536.09376.0937.22094.1464.35355.1464h5.55v5.78l6.57-5.78h14.88c.1326 0 .2598-.0527.3536-.1464.0937-.0938.1464-.221.1464-.3536v-3.5c0-.2652.1054-.5196.2929-.7071s.4419-.2929.7071-.2929.5196.1054.7071.2929.2929.4419.2929.7071v3.5c0 .3283-.0647.6534-.1903.9567s-.3098.5789-.5419.8111c-.2322.2321-.5078.4163-.8111.5419s-.6284.1903-.9567.1903h-14.12l-6.47 5.66c-.31669.2745-.72092.427-1.14.43z"/><path d="m31 10h-3v-4h3c.2652 0 .5196-.10536.7071-.29289.1875-.18754.2929-.44189.2929-.70711s-.1054-.51957-.2929-.70711c-.1875-.18753-.4419-.29289-.7071-.29289h-3v-3c0-.265216-.1054-.51957-.2929-.707107-.1875-.187536-.4419-.292893-.7071-.292893s-.5196.105357-.7071.292893c-.1875.187537-.2929.441891-.2929.707107v3h-4v-3c0-.265216-.1054-.51957-.2929-.707107-.1875-.187536-.4419-.292893-.7071-.292893s-.5196.105357-.7071.292893c-.1875.187537-.2929.441891-.2929.707107v3h-3c-.2652 0-.5196.10536-.7071.29289-.1875.18754-.2929.44189-.2929.70711s.1054.51957.2929.70711c.1875.18753.4419.29289.7071.29289h3v4h-3c-.2652 0-.5196.1054-.7071.2929s-.2929.4419-.2929.7071.1054.5196.2929.7071.4419.2929.7071.2929h3v3c0 .2652.1054.5196.2929.7071s.4419.2929.7071.2929.5196-.1054.7071-.2929.2929-.4419.2929-.7071v-3h4v3c0 .2652.1054.5196.2929.7071s.4419.2929.7071.2929.5196-.1054.7071-.2929.2929-.4419.2929-.7071v-3h3c.2652 0 .5196-.1054.7071-.2929s.2929-.4419.2929-.7071-.1054-.5196-.2929-.7071-.4419-.2929-.7071-.2929zm-9 0v-4h4v4z"/></g></svg>