<svg fill="none" height="32" viewBox="0 0 32 32" width="32" xmlns="http://www.w3.org/2000/svg"><path d="m29.3806 20.5817c-.052-.0292-.1074-.0451-.1606-.07v-9.2142c.2997-.139.5671-.3392.7848-.5877s.381-.5399.4793-.85529c.0984-.31543.1296-.64795.0917-.97616-.038-.32822-.1442-.64486-.3119-.92955-.1676-.28469-.393-.53113-.6617-.72345s-.5746-.32627-.8981-.39322c-.3236-.06696-.6576-.06543-.9805.00447s-.6276.20663-.8945.40139l-8.47-4.69952c.0234-.32456-.0204-.65046-.1285-.95736-.1082-.3069-.2785-.588211-.5002-.826371-.2218-.238159-.4902-.428056-.7886-.557839s-.6204-.19666525-.9458-.19647234-.6473.06745684-.9455.19759334c-.2983.130137-.5665.320352-.7879.558774-.2215.238422-.3914.519935-.4992.826965-.1079.30702-.1512.63298-.1274.95751l-8.47072 4.7001c-.07158-.0567-.14641-.10916-.22412-.15711-.27169-.15325-.57093-.2514-.8806-.28885-.30967-.03744-.62369-.01344-.92407.07063s-.58123.22657-.82647.41932c-.24524.19276-.45005.43199-.60272.70401-.15266.27201-.25017.57147-.28695.88122-.03677.30975-.0121.62371.07262.92391s.22782.5807.42111.8256c.19328.2448.43296.4491.7053.6012.05225.0293.10767.0452.16114.0702v9.2138c-.2988.1382-.56547.3372-.78299.5843-.21751.2471-.38107.5368-.48022.8508-.09914.3139-.1317.645-.09559.9722s.1401.6433.30533.928c.16522.2848.38803.5319.65419.7256.26617.1937.56982.3298.89156.3994.32174.0697.65447.0715.97694.0053.32246-.0663.62756-.199.89578-.3899l8.49558 4.8511c-.0272.3267.0137.6555.1201.9656s.276.5947.4981.8359c.222.2411.4917.4336.792.5652.3002.1316.6245.1995.9524.1993.3278-.0001.652-.0683.9521-.2003.3002-.1319.5697-.3246.7915-.566s.3911-.5263.4971-.8365c.1061-.3102.1467-.639.1191-.9657l8.4956-4.851c.0641.0502.1308.097.1997.1401.2717.1532.571.2514.8806.2889.3097.0374.6237.0134.9241-.0707.3004-.084.5812-.2265.8265-.4193.2452-.1928.45-.432.6027-.704s.2502-.5715.287-.8812c.0367-.3098.0121-.6237-.0727-.9239-.0847-.3002-.2278-.5808-.4211-.8256s-.4329-.4491-.7053-.6012zm-2.5073-9.4687c.1075.0726.1955.1708.2559.2856.0605.1148.0917.2428.0908.3726v6.1631c0 .043 0 .081-.0791.0996-.0811.0176-.0967-.0166-.1153-.0547l-2.9853-6.1113c.0049-.0127.0124-.0243.022-.0341.0096-.0097.021-.0174.0336-.0226l2.042-.7855c.1203-.0471.2504-.0638.3787-.0486s.2508.0619.3567.1359zm-7.042-5.37892c.0077-.01184.0178-.02183.0298-.02927.012-.00743.0255-.01212.0395-.01373.0201.00194.0395.00891.0562.02026l5.728 3.17895c.0157.00885.0285.02201.037.03793.0085.01591.0122.03392.0108.05189-.0015.01797-.008.03516-.0189.04952-.0109.01437-.0257.02532-.0426.03156l-2.6367 1.01461c-.0208.0066-.0431.0068-.064.0006-.021-.0062-.0396-.0185-.0534-.0354l-3.0933-4.18122c-.0251-.03479-.0454-.06501.0076-.12568zm-3.9219 15.88512-4.79-9.1585c-.0083-.0156-.0125-.033-.0121-.0507.0005-.0176.0054-.0348.0145-.05.009-.0151.0218-.0276.0372-.0364.0153-.0087.0326-.0133.0503-.0133h9.581c.0179-.0011.0358.003.0514.0118.0156.0089.0283.0221.0365.038.0102.0144.0159.0314.0167.0489.0007.0176-.0036.035-.0125.0502l-.159.3038-.0024.0033-4.6304 8.8528c-.0203.0374-.1604.0336-.1812.0001zm4.5977-11.472c.0124.0148.0199.033.0215.0523.0016.0192-.0029.0385-.0127.0551-.0074.0177-.0201.0326-.0364.0426s-.0354.0145-.0545.0131h-8.8496c-.0193.0015-.0386-.0032-.0551-.0134s-.0293-.0253-.0367-.0433c-.0097-.016-.0142-.0346-.0128-.0533s.0086-.0365.0207-.0509l.0117-.0162 3.6799-4.97421c.094-.12801.217-.23198.3588-.30345s.2985-.10841.4574-.1078h.001c.1589-.00061.3158.03631.4578.10777.142.07147.2651.17545.3593.30348zm-14.19045-1.25782 5.72895-3.179c.0159-.0107.0342-.01732.0533-.01928.0141.00168.0277.00639.0398.01381.0122.00742.0226.01738.0305.02919.053.06055.032.09162.0076.12549l-3.0933 4.18141c-.01373.0176-.0327.0303-.05416.0364s-.0443.0053-.06523-.0025l-.34473-.13254v-.00025l-2.03613-.7832-.00268-.00067-.2522-.09705c-.01795-.00469-.03374-.01538-.04476-.0303-.01101-.01492-.01659-.03317-.01579-.0517-.00311-.01827.00002-.03707.00887-.05335.00886-.01629.02293-.02913.03996-.03646zm-1.3418 9.08902c-.01855.038-.02929.0711-.11621.0555-.07812-.0185-.07812-.0556-.07812-.0996v-6.1631c-.00103-.1296.02972-.2575.08956-.3726.05985-.115.14696-.2136.25372-.2871.10675-.0736.22991-.1198.35869-.1348.12878-.0149.25926.0019.38003.049l2.12427.8172-.03052.108zm1.98584 4.0042c-.18474-.0199-.36197-.084-.51666-.1869-.1547-.103-.2823-.2417-.37199-.4044s-.13883-.3447-.14325-.5304c-.00443-.1858.036-.3699.11784-.5367l3.2793-6.6304c.00709-.0175.0196-.0322.03569-.042s.0349-.0141.05366-.0124h.002c.01879-.0013.03753.0032.05362.013s.02875.0244.03622.0417l4.62988 8.8525.002.0026.0205.0394c.0084.0161.0124.0342.0115.0523-.0008.0182-.0065.0358-.0165.051s-.0238.0274-.0401.0355-.0344.0116-.0526.0103zm1.88477 2.4078c-.03858-.0227-.06909-.041-.04346-.1182.01953-.0615.0459-.0732.07715-.0732l.02588.0016 6.00337.639c.0251.0028.0483.0146.0652.0333.0169.0188.0264.043.0266.0682v2.3145c-.0001.066-.0176.1307-.0506.1879-.033.0571-.0805.1046-.1375.1377-.0571.0331-.1218.0506-.1878.0509s-.1309-.0167-.1883-.0493zm14.30614.0019-.249.1422-5.3389 3.0483c-.0551.0331-.1181.0508-.1824.0513-.0643.0004-.1275-.0165-.183-.0488-.011-.0064-.0196-.0152-.0306-.0214-.0525-.0322-.0956-.0776-.125-.1317s-.0441-.115-.0424-.1766v-2.3145c0-.025.0093-.0492.026-.0679s.0396-.0306.0645-.0335l6.0047-.6392.0259-.0015c.0312 0 .0576.0117.0771.0732.0254.0781-.0059.0966-.0469.1201zm1.8882-2.4097-7.1013.7552c-.0181.0026-.0366-.0003-.0531-.0082-.0165-.008-.0302-.0207-.0395-.0365-.0112-.0142-.0179-.0315-.0192-.0497-.0012-.0181.0031-.0361.0124-.0517l4.6572-8.9027c.0077-.0162.0201-.0296.0357-.0385.0155-.0089.0334-.0128.0512-.0111h.001c.0189-.0017.0379.0027.0541.0125s.0289.0245.0363.042l3.2768 6.6261c.0825.1668.1235.3511.1196.5372-.0039.186-.0527.3684-.1422.5316s-.217.3024-.3718.4057c-.1548.1034-.3322.1679-.5172.188z" fill="#394762"/></svg>