<svg fill="none" height="32" viewBox="0 0 32 32" width="32" xmlns="http://www.w3.org/2000/svg" xmlns:xlink="http://www.w3.org/1999/xlink"><clipPath id="a"><path d="m0 0h32v32h-32z"/></clipPath><g clip-path="url(#a)" fill="#394762"><path d="m10 17c-.26522 0-.51957-.1054-.70711-.2929-.18753-.1875-.29289-.4419-.29289-.7071 0-1.8565.7375-3.637 2.0503-4.9497 1.3127-1.3128 3.0932-2.0503 4.9497-2.0503.2652 0 .5196.10536.7071.29289.1875.18754.2929.44189.2929.70711 0 .2652-.1054.5196-.2929.7071s-.4419.2929-.7071.2929c-1.3261 0-2.5979.5268-3.5355 1.4645-.9377.9376-1.4645 2.2094-1.4645 3.5355 0 .2652-.1054.5196-.2929.7071s-.4419.2929-.7071.2929z"/><path d="m16 23c-.2652 0-.5196-.1054-.7071-.2929s-.2929-.4419-.2929-.7071.1054-.5196.2929-.7071.4419-.2929.7071-.2929c1.3261 0 2.5979-.5268 3.5355-1.4645.9377-.9376 1.4645-2.2094 1.4645-3.5355 0-.2652.1054-.5196.2929-.7071s.4419-.2929.7071-.2929.5196.1054.7071.2929.2929.4419.2929.7071c0 1.8565-.7375 3.637-2.0503 4.9497-1.3127 1.3128-3.0932 2.0503-4.9497 2.0503z"/><path d="m8.89 3.90998c1.1358-.6919 2.3747-1.19826 3.67-1.5 3.5695-.88593 7.3438-.34418 10.52 1.51.191.11816.4161.16861.6393.14321.2231-.02539.4312-.12515.5907-.28321.1077-.10866.1891-.24059.2378-.38563.0487-.14505.0635-.29934.0432-.451s-.0751-.29664-.1602-.42378c-.0851-.12715-.1983-.23306-.3308-.30959-2.0033-1.1752-4.2367-1.904187-6.5476-2.1371729-2.3109-.2329861-4.6448.0355189-6.8424.7871769-.6888.232116-1.35769.519726-2 .859996-2.61994 1.35484-4.81765 3.40293-6.35354 5.92101-1.535881 2.51811-2.35099038 5.40951-2.35646 8.35901 0 .2652.105357.5196.292893.7071.187537.1875.441891.2929.707107.2929.26522 0 .51957-.1054.70711-.2929.18753-.1875.29289-.4419.29289-.7071.00076-2.4398.6364-4.8374 1.84443-6.95717 1.20802-2.11974 2.94685-3.88865 5.04557-5.13285z"/><path d="m26.75 4.17h-.01l-1.41 1.41v.01l-3.3 3.3h8.07v-8.080002z"/><path d="m31 15c-.2652 0-.5196.1054-.7071.2929s-.2929.4419-.2929.7071c.0502 1.5105-.1561 3.0185-.61 4.46-.9743 2.7777-2.7843 5.1859-5.1817 6.8939-2.3974 1.7081-5.2647 2.6324-8.2083 2.6461-2.4893.0055-4.9345-.6576-7.08-1.92-.19096-.1182-.41614-.1686-.63926-.1432-.22313.0254-.43121.1251-.59074.2832-.10772.1087-.18908.2406-.2378.3856-.04872.1451-.06351.2994-.04323.451.02029.1517.07511.2967.16024.4238.08513.1272.1983.2331.33079.3096 2.00334 1.1752 4.2367 1.9042 6.5476 2.1372s4.6448-.0355 6.8424-.7872c.6888-.2321 1.3577-.5197 2-.86 2.6199-1.3548 4.8177-3.4029 6.3535-5.921 1.5359-2.5181 2.351-5.4095 2.3565-8.359 0-.2652-.1054-.5196-.2929-.7071s-.4419-.2929-.7071-.2929z"/><path d="m9.96999 23.11h-8.07v8.07l3.35-3.35h.01l1.41-1.41v-.01z"/></g></svg>