<svg fill="none" height="32" viewBox="0 0 32 32" width="32" xmlns="http://www.w3.org/2000/svg"><path d="m8.00002 29.53c-.29385-.0001-.58406-.065-.85-.19-.34374-.1614-.63444-.4173-.83809-.7378-.20365-.3206-.31183-.6924-.31191-1.0722v-3.78c-1.72312-.4459-3.24832-1.4537-4.33425-2.8639-1.085937-1.4103-1.6705715-3.1424-1.66139105-4.9222.00918045-1.7799.61165205-3.5058 1.71207105-4.9048 1.10042-1.39894 2.63595-2.39097 4.36357-2.81909.89632-1.8706 2.30328-3.44965 4.05848-4.55495 1.7553-1.10529 3.7873-1.69177 5.8615-1.69177 2.0743 0 4.1063.58648 5.8615 1.69177 1.7552 1.1053 3.1622 2.68435 4.0585 4.55495 1.8915.47401 3.5447 1.6225 4.6489 3.22959 1.1043 1.6072 1.5835 3.5623 1.3477 5.4979s-1.1704 3.7185-2.6282 5.0135c-1.4579 1.295-3.3384 2.013-5.2884 2.019-1.185 1.5889-2.9522 2.6424-4.9134 2.9293s-3.9561-.2164-5.5466-1.3993l-4.25998 3.54c-.35982.2982-.81269.4609-1.28.46zm7.99998-25.52999c-1.7694.00031-3.4995.5222-4.974 1.50044-1.47446.97823-2.62785 2.36939-3.31598 3.99956-.06461.15492-.16718.29108-.29825.39594-.13107.10485-.28642.17505-.45175.20405-1.54882.2719-2.92899 1.141-3.84352 2.4202s-1.29031 2.8663-1.04648 4.4198c.18863 1.196.73468 2.3069 1.56638 3.1868.83171.8799 1.91015 1.4876 3.09362 1.7432l.33.05c.2483.0319.47781.1491.64927.3315s.27423.4187.29073.6685v4.61l4.90998-4.09c.1825-.1603.4171-.2487.66-.2487s.4775.0884.66.2487c.5844.5608 1.2858.9851 2.0537 1.2423.768.2572 1.5834.3411 2.3877.2454.8042-.0956 1.5773-.3683 2.2635-.7985.6862-.4301 1.2686-1.007 1.7051-1.6892.0973-.1528.2343-.2763.3963-.3573.1621-.0811.3431-.1165.5237-.1027 1.1145.078 2.2286-.1567 3.2168-.6776.9883-.521 1.8115-1.3075 2.3769-2.271s.8506-2.0657.8235-3.1826c-.0272-1.1168-.3656-2.2039-.9772-3.1388-.4525-.6857-1.041-1.2712-1.7291-1.7202-.688-.4489-1.461-.7518-2.2709-.8898-.1653-.029-.3207-.0992-.4517-.20405-.1311-.10486-.2337-.24102-.2983-.39594-.6854-1.62391-1.8327-3.0108-3.2993-3.98855-1.4666-.97774-3.188-1.5033-4.9507-1.51145z" fill="#394762"/></svg>