<svg fill="none" height="32" viewBox="0 0 32 32" width="32" xmlns="http://www.w3.org/2000/svg" xmlns:xlink="http://www.w3.org/1999/xlink"><clipPath id="a"><path d="m0 0h32v32h-32z"/></clipPath><g clip-path="url(#a)" fill="#394762"><path d="m9 27c1.1046 0 2-.8954 2-2s-.8954-2-2-2c-1.10457 0-2 .8954-2 2s.89543 2 2 2z"/><path d="m23 9c1.1046 0 2-.89543 2-2s-.8954-2-2-2-2 .89543-2 2 .8954 2 2 2z"/><path d="m10 18.08v-11.57998c0-.66304-.26339-1.29892-.73223-1.76776s-1.10473-.73224-1.76777-.73224h-6.25c-.265216 0-.51957.10536-.707107.2929-.187536.18753-.292893.44189-.292893.7071 0 .26522.105357.51957.292893.70711.187537.18754.441891.29289.707107.29289h6.25c.13261 0 .25979.05268.35355.14645.09377.09377.14645.22095.14645.35355v3.49998h-6.75c-.265216 0-.51957.1054-.707107.2929-.187536.1876-.292893.4419-.292893.7071s.105357.5196.292893.7071c.187537.1876.441891.2929.707107.2929h6.75v6.08c-1.75159.2528-3.3424 1.1597-4.4523 2.5382-1.10989 1.3784-1.65646 3.1261-1.52973 4.8913.12674 1.7652.91738 3.4169 2.21281 4.6226 1.29542 1.2058 2.99948 1.8761 4.76922 1.8761 1.7697 0 3.4738-.6703 4.7692-1.8761 1.2955-1.2057 2.0861-2.8574 2.2128-4.6226.1268-1.7652-.4198-3.5129-1.5297-4.8913-1.1099-1.3785-2.7007-2.2854-4.4523-2.5382zm-1 11.92c-.98891 0-1.95561-.2932-2.77785-.8426-.82225-.5494-1.46311-1.3303-1.84155-2.244-.37844-.9136-.47745-1.9189-.28453-2.8888.19293-.9699.66913-1.8608 1.3684-2.5601.69926-.6993 1.59017-1.1755 2.56008-1.3684.9699-.1929 1.97524-.0939 2.88885.2845.9136.3785 1.6945 1.0193 2.2439 1.8416.5495.8222.8427 1.7889.8427 2.7778 0 .6566-.1293 1.3068-.3806 1.9134-.2513.6067-.6196 1.1579-1.0839 1.6222s-1.0155.8325-1.6221 1.0838-1.25679.3806-1.9134.3806zm21.75-4h-6.25c-.1326 0-.2598-.0527-.3536-.1464-.0937-.0938-.1464-.221-.1464-.3536v-3.5h6.75c.2652 0 .5196-.1053.7071-.2929.1875-.1875.2929-.4419.2929-.7071s-.1054-.5195-.2929-.7071c-.1875-.1875-.4419-.2929-.7071-.2929h-6.75v-6.08c1.7516-.2528 3.3424-1.1597 4.4523-2.5381 1.1099-1.3785 1.6565-3.12617 1.5297-4.89137-.1267-1.76519-.9173-3.41687-2.2128-4.62262-1.2954-1.205759-2.9995-1.87608871-4.7692-1.87608871s-3.4738.67032971-4.7692 1.87608871c-1.2955 1.20575-2.0861 2.85743-2.2128 4.62262-.1268 1.7652.4198 3.51287 1.5297 4.89137 1.1099 1.3784 2.7007 2.2853 4.4523 2.5381v11.58c0 .6631.2634 1.299.7322 1.7678.4689.4688 1.1048.7322 1.7678.7322h6.25c.2652 0 .5196-.1053.7071-.2929.1875-.1875.2929-.4419.2929-.7071s-.1054-.5195-.2929-.7071c-.1875-.1875-.4419-.2929-.7071-.2929zm-12.75-18.99998c0-.9889.2932-1.9556.8427-2.77785.5494-.82224 1.3303-1.4631 2.2439-1.84154s1.9189-.47746 2.8889-.28453c.9699.19292 1.8608.66913 2.56 1.36839.6993.69926 1.1755 1.59018 1.3684 2.56008.193.96991.0939 1.97524-.2845 2.88887s-1.0193 1.69456-1.8415 2.24396c-.8223.5494-1.789.8426-2.7779.8426-1.3261 0-2.5979-.5268-3.5355-1.4644-.9377-.93772-1.4645-2.20949-1.4645-3.53558z"/></g></svg>