<svg fill="none" height="32" viewBox="0 0 32 32" width="32" xmlns="http://www.w3.org/2000/svg" xmlns:xlink="http://www.w3.org/1999/xlink"><clipPath id="a"><path d="m0 0h32v32h-32z"/></clipPath><g clip-path="url(#a)" fill="#394762"><path d="m28 18h-2c-.5523 0-1 .4477-1 1s.4477 1 1 1h2c.5523 0 1-.4477 1-1s-.4477-1-1-1z"/><path d="m23.3 12.3c-.8165-.9076-1.2781-2.0794-1.3-3.3 0-1.32608.5268-2.59785 1.4645-3.53553.9376-.93769 2.2094-1.46447 3.5355-1.46447s2.5979.52678 3.5355 1.46447c.9377.93768 1.4645 2.20945 1.4645 3.53553-.0219 1.2206-.4835 2.3924-1.3 3.3-.7302.842-1.2784 1.8259-1.61 2.89-.0447.2311-.1695.4391-.3524.5872-.1829.1482-.4122.2271-.6476.2228h-2.19c-.2382.0035-.4699-.0782-.6532-.2304s-.3063-.3648-.3468-.5996c-.2937-1.0719-.8427-2.0566-1.6-2.87zm.7-3.3c.0259.73943.3088 1.4467.8 2 .793.8707 1.4049 1.8905 1.8 3h.7c.5445-1.0536 1.1803-2.0574 1.9-3 .4912-.5533.7741-1.26057.8-2 0-.79565-.3161-1.55871-.8787-2.12132s-1.3257-.87868-2.1213-.87868-1.5587.31607-2.1213.87868-.8787 1.32567-.8787 2.12132z"/><path d="m7 24h18c.2652 0 .5196.1054.7071.2929s.2929.4419.2929.7071-.1054.5196-.2929.7071-.4419.2929-.7071.2929h-18c-.26522 0-.51957-.1054-.70711-.2929-.18753-.1875-.29289-.4419-.29289-.7071s.10536-.5196.29289-.7071c.18754-.1875.44189-.2929.70711-.2929zm-1-5c0 .2652.10536.5196.29289.7071.18754.1875.44189.2929.70711.2929h12c.2652 0 .5196-.1054.7071-.2929s.2929-.4419.2929-.7071-.1054-.5196-.2929-.7071-.4419-.2929-.7071-.2929h-12c-.26522 0-.51957.1054-.70711.2929-.18753.1875-.29289.4419-.29289.7071zm1-5h10c.2652 0 .5196-.1054.7071-.2929s.2929-.4419.2929-.7071-.1054-.5196-.2929-.7071-.4419-.2929-.7071-.2929h-10c-.26522 0-.51957.1054-.70711.2929-.18753.1875-.29289.4419-.29289.7071s.10536.5196.29289.7071c.18754.1875.44189.2929.70711.2929zm24 9c-.2652 0-.5196.1054-.7071.2929s-.2929.4419-.2929.7071v5.5c0 .1326-.0527.2598-.1464.3536-.0938.0937-.221.1464-.3536.1464h-27c-.13261 0-.25979-.0527-.35355-.1464-.09377-.0938-.14645-.221-.14645-.3536v-21c0-.13261.05268-.25979.14645-.35355.09376-.09377.22094-.14645.35355-.14645h14.5c.2652 0 .5196-.10536.7071-.29289.1875-.18754.2929-.44189.2929-.70711s-.1054-.51957-.2929-.70711c-.1875-.18753-.4419-.29289-.7071-.29289h-14.5c-.66304 0-1.29893.26339-1.767767.73223-.468841.46884-.732233 1.10473-.732233 1.76777v21c0 .663.263392 1.2989.732233 1.7678.468837.4688 1.104727.7322 1.767767.7322h27c.663 0 1.2989-.2634 1.7678-.7322.4688-.4689.7322-1.1048.7322-1.7678v-5.5c0-.2652-.1054-.5196-.2929-.7071s-.4419-.2929-.7071-.2929z"/></g></svg>