<svg fill="none" height="32" viewBox="0 0 32 32" width="32" xmlns="http://www.w3.org/2000/svg" xmlns:xlink="http://www.w3.org/1999/xlink"><clipPath id="a"><path d="m0 0h32v32h-32z"/></clipPath><g clip-path="url(#a)"><path d="m21 32h-10c-2.91738 0-5.71527-1.159-7.77817-3.2219s-3.22183-4.8607-3.22183-7.7781v-10c0-2.91741 1.15893-5.7153 3.22183-7.7782s4.86079-3.22182996 7.77817-3.22182996h10c2.091-.00499407 4.1392.59211996 5.9 1.71999996.3177.20119.5859.47146.7847.79069.1987.31922.3229.67916.3633 1.05304.0404.37387-.0041.75203-.1302 1.10632-.126.35429-.3304.67558-.5978.93995l-11.61 11.60003c-.0926.0945-.2031.1696-.3249.2211-.1219.0515-.2528.0783-.3851.0789-.1323-.0006-.2632-.0274-.3851-.0789-.1218-.0515-.2323-.1266-.3249-.2211l-2.62-2.62c-.0935-.0916-.2191-.143-.35-.143s-.2565.0514-.35.143l-1.88 1.88c-.08931.0946-.13906.2198-.13906.35 0 .1301.04975.2553.13906.35l4.5 4.5c.3747.3725.8816.5816 1.41.5816s1.0353-.2091 1.41-.5816l11.32-11.32c.3496-.35056.7955-.58939 1.281-.68622.4856-.09683.989-.04732 1.4463.14227.4574.18959.8482.51075 1.1228.92265s.4208.8962.4199 1.3913v8.88c0 2.9174-1.1589 5.7152-3.2218 7.7781s-4.8608 3.2219-7.7782 3.2219zm-10-30.00003c-2.38695 0-4.67613.94821-6.36396 2.63604s-2.63604 3.97701-2.63604 6.36399v10c0 2.3869.94821 4.6761 2.63604 6.3639 1.68783 1.6879 3.97701 2.6361 6.36396 2.6361h10c2.3869 0 4.6761-.9482 6.364-2.6361 1.6878-1.6878 2.636-3.977 2.636-6.3639v-8.88c.001-.0965-.0271-.191-.0806-.2713s-.13-.1426-.2194-.1787c-.0891-.0421-.1892-.055-.2861-.0371s-.1857.0659-.2539.1371l-11.33 11.32c-.7602.732-1.7746 1.141-2.83 1.141s-2.0698-.409-2.83-1.141l-4.5-4.5c-.23402-.2316-.4198-.5072-.54659-.8111-.12678-.3038-.19207-.6297-.19207-.9589s.06529-.6552.19207-.959c.12679-.3038.31257-.5795.54659-.811l1.88-1.88c.23223-.2328.5081-.4176.8118-.5436.3038-.126.6294-.1909.9582-.1909s.6544.0649.9582.1909c.3037.126.5796.3108.8118.5436l1.91 1.9 10.9-10.89003c.0522-.05257.0921-.11608.1167-.18595.0247-.06986.0335-.14433.0258-.21801-.0076-.07369-.0316-.14475-.0701-.20806-.0384-.0633-.0905-.11726-.1524-.15798-1.4389-.92088-3.1116-1.41019-4.82-1.41z" fill="#394762"/></g></svg>