<svg width="238" height="162" viewBox="0 0 238 162" fill="none" xmlns="http://www.w3.org/2000/svg">
<path d="M187 73.5602C174.838 108.858 119.043 174.135 102.238 153.851C81.2319 128.496 89.3395 55.9116 117.717 51.6857C146.092 47.4599 104.819 153.354 69.4396 145.897C41.1378 139.931 57.6472 108.941 69.4396 94.1925C65.2635 114.079 59.8974 141.919 2 160.562" stroke="#66B3FF" stroke-width="2.5" stroke-linecap="round"/>
<path fill-rule="evenodd" clip-rule="evenodd" d="M194.944 26.6676C192.456 18.2965 196.787 9.28527 205.074 6.08778C213.789 2.72559 223.579 7.06439 226.942 15.7789C230.236 24.3179 226.137 33.8902 217.772 37.4358C215.148 39.0822 210.389 42.2785 208.174 45.0888C205.185 48.8823 202.208 54.3492 199.977 58.8712L190.766 54.7924C192.612 50.0994 194.649 44.1996 195.466 39.2472C196.126 35.2512 195.214 28.4916 194.944 26.6676Z" fill="#FAD100"/>
<path d="M197.427 55.59C201.029 45.5849 209.364 25.5259 213.887 25.3277C219.541 25.0799 217.843 34.1297 214.577 36.6106C211.311 39.0915 196.852 32.8666 196.769 28.8283C196.687 24.79 203.277 17.2108 206.065 21.2735C208.296 24.5238 198.426 43.2315 194.311 53.8415" stroke="#1F304C" stroke-width="1.25" stroke-linecap="round"/>
<path d="M201.07 59.2277L189.709 54.1414L185.955 62.5263L197.316 67.6126L201.07 59.2277Z" fill="#1F304C"/>
</svg>
