<svg width="176" height="36" viewBox="0 0 176 36" fill="none" xmlns="http://www.w3.org/2000/svg">
<path fill-rule="evenodd" clip-rule="evenodd" d="M169.668 14.1971C169.142 14.1644 168.623 14.3317 168.215 14.6654C167.807 14.9992 167.54 15.4747 167.468 15.9968H171.767C171.717 15.4841 171.47 15.0108 171.079 14.6755C170.688 14.3402 170.182 14.1689 169.668 14.1971ZM46.4926 11.0978L44.593 16.3967H48.4922L46.4926 11.0978ZM70.1878 14.4971C69.8561 14.4989 69.5282 14.5689 69.2246 14.7028C68.9211 14.8367 68.6483 15.0316 68.4233 15.2754C68.1982 15.5192 68.0257 15.8067 67.9165 16.12C67.8073 16.4333 67.7636 16.7657 67.7883 17.0965C67.7559 17.429 67.7941 17.7646 67.9004 18.0813C68.0068 18.398 68.1789 18.6886 68.4055 18.934C68.6321 19.1795 68.908 19.3743 69.2152 19.5056C69.5224 19.6369 69.8538 19.7018 70.1878 19.696C70.517 19.6858 70.8408 19.6101 71.1404 19.4733C71.44 19.3366 71.7094 19.1415 71.9328 18.8995C72.1561 18.6575 72.3291 18.3734 72.4415 18.0639C72.5538 17.7543 72.6035 17.4255 72.5874 17.0965C72.612 16.7657 72.5684 16.4333 72.4592 16.12C72.35 15.8067 72.1775 15.5192 71.9524 15.2754C71.7274 15.0316 71.4546 14.8367 71.151 14.7028C70.8475 14.5689 70.5196 14.4989 70.1878 14.4971ZM136.874 14.4971C136.543 14.4989 136.215 14.5689 135.911 14.7028C135.608 14.8367 135.335 15.0316 135.11 15.2754C134.885 15.5192 134.712 15.8067 134.603 16.12C134.494 16.4333 134.45 16.7657 134.475 17.0965C134.442 17.429 134.481 17.7646 134.587 18.0813C134.693 18.398 134.865 18.6886 135.092 18.934C135.319 19.1795 135.594 19.3743 135.902 19.5056C136.209 19.6369 136.54 19.7018 136.874 19.696C137.204 19.6858 137.527 19.6101 137.827 19.4733C138.127 19.3366 138.396 19.1415 138.619 18.8995C138.843 18.6575 139.016 18.3734 139.128 18.0639C139.24 17.7543 139.29 17.4255 139.274 17.0965C139.29 16.7676 139.24 16.4388 139.128 16.1292C139.016 15.8196 138.843 15.5356 138.619 15.2936C138.396 15.0516 138.127 14.8565 137.827 14.7198C137.527 14.583 137.204 14.5073 136.874 14.4971ZM110.08 14.3971C109.735 14.4004 109.395 14.474 109.08 14.6134C108.765 14.7529 108.482 14.9551 108.248 15.2079C108.014 15.4607 107.834 15.7585 107.719 16.0833C107.604 16.4081 107.557 16.7529 107.58 17.0965C107.566 17.4383 107.619 17.7796 107.737 18.1007C107.855 18.4218 108.035 18.7163 108.267 18.9673C108.5 19.2183 108.78 19.4208 109.091 19.563C109.402 19.7052 109.738 19.7844 110.08 19.796C110.499 19.8148 110.917 19.7341 111.3 19.5603C111.682 19.3865 112.018 19.1247 112.279 18.7962V15.3969C112.012 15.0754 111.675 14.8186 111.294 14.6455C110.913 14.4724 110.498 14.3875 110.08 14.3971ZM14.0992 7.09856L7.10063 16.6966C7.10063 16.7231 7.09009 16.7486 7.07134 16.7673C7.05259 16.7861 7.02716 16.7966 7.00065 16.7966C7.00065 16.8231 6.99011 16.8485 6.97136 16.8673C6.95261 16.886 6.92718 16.8966 6.90067 16.8966V16.9966C6.90067 17.0965 6.90067 17.0965 6.80069 17.1965V17.3965V21.2957C6.8058 21.4603 6.84365 21.6222 6.91203 21.772C6.98041 21.9218 7.07794 22.0565 7.19894 22.1681C7.31994 22.2798 7.46197 22.3663 7.61675 22.4225C7.77153 22.4787 7.93595 22.5035 8.10042 22.4954H22.0976C22.425 22.4941 22.74 22.3702 22.9806 22.1481C23.2212 21.926 23.3698 21.6219 23.3973 21.2957V17.3965V17.1965C23.3973 17.0965 23.3973 17.0965 23.2973 16.9966V16.8966C23.2973 16.8701 23.2868 16.8446 23.2681 16.8259C23.2493 16.8071 23.2239 16.7966 23.1974 16.7966C23.1974 16.7835 23.1948 16.7705 23.1898 16.7583C23.1847 16.7462 23.1774 16.7352 23.1681 16.7259C23.1588 16.7166 23.1478 16.7093 23.1356 16.7042C23.1235 16.6992 23.1105 16.6966 23.0974 16.6966L16.0988 7.09856C15.9878 6.93566 15.8387 6.80235 15.6645 6.71021C15.4902 6.61808 15.2961 6.56992 15.099 6.56992C14.9019 6.56992 14.7078 6.61808 14.5335 6.71021C14.3593 6.80235 14.2102 6.93566 14.0992 7.09856ZM63.4892 11.3977V14.897C62.1202 14.8601 60.7916 15.3628 59.7899 16.2967V22.5954H56.1907V11.5976H59.7899V12.7974C60.2789 12.3247 60.8592 11.9568 61.4953 11.7161C62.1313 11.4755 62.8098 11.3671 63.4892 11.3977ZM48.2923 6.49868L54.691 22.4954H50.6918L49.692 19.796H43.2933L42.2935 22.4954H38.2943L44.693 6.49868H48.2923ZM121.877 6.49868V12.2975C122.686 11.6034 123.711 11.2143 124.777 11.1977C127.476 11.1977 129.276 13.0973 129.276 16.1967V22.3955H125.777V16.6966C125.777 15.0969 124.977 14.3971 123.777 14.3971C123.401 14.4389 123.039 14.5583 122.712 14.7476C122.385 14.9369 122.101 15.192 121.877 15.4969V22.3955H118.278V6.3987H121.877V6.49868ZM97.7822 11.2977C100.482 11.2977 102.281 13.1973 102.281 16.2967V22.4954H98.6821V16.7966C98.6821 15.1969 97.8822 14.4971 96.6825 14.4971C96.307 14.5389 95.9442 14.6583 95.6172 14.8476C95.2902 15.0369 95.0061 15.292 94.7829 15.5968V22.4954H91.1836V11.5976H94.7829V12.2975C95.6527 11.6573 96.7022 11.3075 97.7822 11.2977ZM157.77 11.2977C160.37 11.2977 162.169 13.1973 162.169 16.2967V22.4954H158.57V16.7966C158.57 15.1969 157.77 14.4971 156.67 14.4971C156.348 14.4908 156.029 14.5709 155.748 14.7291C155.467 14.8873 155.233 15.1179 155.071 15.3969V22.3955H151.471V16.6966C151.471 15.0969 150.672 14.3971 149.572 14.3971C149.256 14.4243 148.95 14.5187 148.675 14.6739C148.399 14.8291 148.159 15.0415 147.972 15.2969V22.2955H144.373V11.5976H147.972V12.1975C148.681 11.5472 149.61 11.1899 150.572 11.1977C151.199 11.1803 151.823 11.3064 152.395 11.5663C152.966 11.8261 153.471 12.213 153.871 12.6974C154.94 11.7422 156.338 11.2402 157.77 11.2977ZM169.668 11.3977C170.397 11.3696 171.125 11.4926 171.805 11.759C172.485 12.0254 173.102 12.4295 173.618 12.9458C174.135 13.4621 174.539 14.0796 174.805 14.7595C175.072 15.4393 175.195 16.1669 175.167 16.8966C175.183 17.3322 175.15 17.7683 175.067 18.1963H167.468C167.59 18.7318 167.898 19.2066 168.338 19.5362C168.777 19.8657 169.319 20.0286 169.868 19.9959C170.182 20.0245 170.499 19.9647 170.781 19.8235C171.064 19.6822 171.301 19.4649 171.467 19.1961H175.067C174.567 21.4956 172.467 22.8954 169.868 22.8954C169.103 22.9392 168.338 22.8226 167.621 22.5531C166.905 22.2836 166.252 21.867 165.706 21.3303C165.16 20.7936 164.732 20.1485 164.45 19.4366C164.168 18.7247 164.038 17.9616 164.069 17.1965C163.995 16.4338 164.088 15.6643 164.34 14.9408C164.593 14.2174 164.999 13.5573 165.531 13.0061C166.063 12.4548 166.709 12.0256 167.423 11.7479C168.137 11.4703 168.903 11.3508 169.668 11.3977ZM115.779 6.49868V22.4954H112.179V21.8956C111.312 22.4409 110.304 22.7191 109.28 22.6954C108.558 22.6696 107.848 22.5017 107.19 22.2013C106.533 21.9008 105.941 21.4737 105.449 20.9445C104.957 20.4152 104.574 19.7941 104.322 19.1166C104.07 18.4392 103.954 17.7188 103.981 16.9966C103.954 16.2743 104.07 15.5539 104.322 14.8765C104.574 14.1991 104.957 13.5779 105.449 13.0487C105.941 12.5194 106.533 12.0923 107.19 11.7919C107.848 11.4914 108.558 11.3235 109.28 11.2977C110.304 11.274 111.312 11.5522 112.179 12.0975V6.49868H115.779ZM136.874 11.3977C137.637 11.3615 138.399 11.4834 139.112 11.7557C139.825 12.0279 140.475 12.4447 141.019 12.9799C141.564 13.515 141.992 14.1569 142.276 14.8654C142.561 15.5738 142.696 16.3334 142.673 17.0965C142.673 18.6345 142.062 20.1094 140.975 21.1969C139.887 22.2844 138.412 22.8954 136.874 22.8954C135.336 22.8954 133.861 22.2844 132.774 21.1969C131.686 20.1094 131.076 18.6345 131.076 17.0965C131.053 16.3334 131.188 15.5738 131.472 14.8654C131.757 14.1569 132.185 13.515 132.73 12.9799C133.274 12.4447 133.923 12.0279 134.637 11.7557C135.35 11.4834 136.112 11.3615 136.874 11.3977ZM70.1878 11.3977C70.9505 11.3615 71.7123 11.4834 72.4256 11.7557C73.1388 12.0279 73.7881 12.4447 74.3327 12.9799C74.8772 13.515 75.3052 14.1569 75.5898 14.8654C75.8745 15.5738 76.0096 16.3334 75.9867 17.0965C75.9867 17.858 75.8367 18.6121 75.5453 19.3157C75.2538 20.0192 74.8267 20.6585 74.2882 21.1969C73.7498 21.7354 73.1105 22.1625 72.407 22.454C71.7034 22.7454 70.9494 22.8954 70.1878 22.8954C69.4263 22.8954 68.6723 22.7454 67.9687 22.454C67.2652 22.1625 66.6259 21.7354 66.0875 21.1969C65.549 20.6585 65.1218 20.0192 64.8304 19.3157C64.539 18.6121 64.389 17.858 64.389 17.0965C64.3661 16.3334 64.5012 15.5738 64.7858 14.8654C65.0705 14.1569 65.4985 13.515 66.043 12.9799C66.5876 12.4447 67.2368 12.0279 67.9501 11.7557C68.6634 11.4834 69.4252 11.3615 70.1878 11.3977ZM81.2856 11.5976V17.2965C81.2856 18.8962 82.0854 19.596 83.2852 19.596C83.6754 19.5569 84.0537 19.4394 84.3973 19.2504C84.7409 19.0614 85.0428 18.8049 85.2848 18.4963V11.5976H88.7841V22.4954H85.1848V21.7956C84.3765 22.4897 83.3507 22.8788 82.2854 22.8954C79.5859 22.8954 77.6863 20.9957 77.6863 17.8964V11.6976H81.2856V11.5976ZM15.099 0C19.1403 0.0474832 22.9981 1.69443 25.8277 4.58022C28.6572 7.466 30.228 11.3554 30.1959 15.3969C30.228 19.4383 28.6572 23.3278 25.8277 26.2135C22.9981 29.0993 19.1403 30.7463 15.099 30.7938C13.0929 30.7874 11.108 30.3826 9.25961 29.6029C7.41122 28.8231 5.73614 27.684 4.33161 26.2515C2.92708 24.8191 1.82109 23.1219 1.07786 21.2586C0.334624 19.3952 -0.0310507 17.4027 0.00206383 15.3969C-0.0299551 11.3554 1.54079 7.466 4.37036 4.58022C7.19993 1.69443 11.0577 0.0474832 15.099 0ZM78.7861 29.8939C78.9861 29.8939 79.086 29.8939 79.186 29.9939C79.2481 30.0405 79.2985 30.1009 79.3332 30.1703C79.3679 30.2397 79.386 30.3162 79.386 30.3938C79.386 30.4714 79.3679 30.548 79.3332 30.6174C79.2985 30.6868 79.2481 30.7472 79.186 30.7938C79.086 30.8937 78.9861 30.8937 78.7861 30.8937C78.5861 30.8937 78.4862 30.8937 78.3862 30.7938C78.3252 30.7462 78.2756 30.6856 78.241 30.6164C78.2064 30.5472 78.1877 30.4712 78.1862 30.3938C78.1862 30.1939 78.1862 30.0939 78.2862 29.9939C78.4426 29.9215 78.6139 29.8873 78.7861 29.8939ZM89.184 30.7938H88.1842V32.9933H89.184C89.3312 33.0055 89.4793 32.9849 89.6176 32.9331C89.7559 32.8812 89.8809 32.7994 89.9838 32.6934C90.1837 32.4757 90.2913 32.189 90.2838 31.8935C90.296 31.7463 90.2754 31.5983 90.2235 31.46C90.1717 31.3217 90.0898 31.1966 89.9838 31.0937C89.8838 30.8937 89.5839 30.7938 89.184 30.7938ZM110.98 32.2935C110.733 32.2995 110.492 32.3683 110.28 32.4934C110.089 32.689 109.952 32.9298 109.88 33.1933H111.779V32.8933C111.779 32.7934 111.679 32.6934 111.579 32.5934C111.479 32.4934 111.379 32.3934 111.28 32.3934C111.18 32.3934 111.18 32.2935 110.98 32.2935ZM75.4868 32.2935C75.2403 32.2995 74.9994 32.3683 74.7869 32.4934C74.5964 32.689 74.4588 32.9298 74.387 33.1933H76.2866V32.8933C76.2866 32.7934 76.1866 32.6934 76.0866 32.5934C75.9867 32.4934 75.8867 32.3934 75.7867 32.3934C75.6867 32.3934 75.6867 32.2935 75.4868 32.2935ZM163.769 32.2935C163.612 32.2856 163.457 32.3183 163.316 32.3884C163.176 32.4584 163.057 32.5635 162.969 32.6934C162.767 32.9493 162.661 33.2675 162.669 33.5932C162.643 33.7664 162.678 33.9433 162.769 34.0931C162.869 34.2931 162.869 34.393 162.969 34.493L163.269 34.793C163.392 34.8586 163.529 34.8929 163.669 34.8929C163.808 34.8929 163.946 34.8586 164.069 34.793C164.169 34.693 164.369 34.693 164.469 34.493C164.53 34.4454 164.579 34.3848 164.614 34.3157C164.648 34.2465 164.667 34.1704 164.669 34.0931C164.75 33.9396 164.784 33.766 164.769 33.5932C164.777 33.2366 164.672 32.8867 164.469 32.5934C164.369 32.3934 164.169 32.2935 163.769 32.2935ZM94.083 32.2935C93.9265 32.2856 93.7707 32.3183 93.6306 32.3884C93.4904 32.4584 93.3708 32.5635 93.2832 32.6934C93.0815 32.9493 92.9754 33.2675 92.9832 33.5932C92.9571 33.7664 92.9925 33.9433 93.0832 34.0931C93.1832 34.2931 93.1832 34.393 93.2832 34.493L93.5831 34.793C93.7062 34.8586 93.8435 34.8929 93.983 34.8929C94.1225 34.8929 94.2599 34.8586 94.3829 34.793C94.4829 34.693 94.6829 34.693 94.7829 34.493C94.8438 34.4454 94.8934 34.3848 94.928 34.3157C94.9626 34.2465 94.9813 34.1704 94.9828 34.0931C95.0636 33.9396 95.0984 33.766 95.0828 33.5932C95.0908 33.2366 94.9858 32.8867 94.7829 32.5934C94.6829 32.3934 94.4829 32.2935 94.083 32.2935ZM133.775 32.2935C133.618 32.2856 133.463 32.3183 133.323 32.3884C133.182 32.4584 133.063 32.5635 132.975 32.6934C132.773 32.9493 132.667 33.2675 132.675 33.5932C132.649 33.7664 132.684 33.9433 132.775 34.0931C132.875 34.2931 132.875 34.393 132.975 34.493L133.275 34.793C133.398 34.8586 133.535 34.8929 133.675 34.8929C133.814 34.8929 133.952 34.8586 134.075 34.793C134.175 34.693 134.375 34.693 134.475 34.493C134.536 34.4454 134.585 34.3848 134.62 34.3157C134.655 34.2465 134.673 34.1704 134.675 34.0931C134.756 33.9396 134.79 33.766 134.775 33.5932C134.787 33.4308 134.767 33.2675 134.716 33.1129C134.664 32.9584 134.582 32.8157 134.475 32.6934C134.417 32.5598 134.318 32.4485 134.192 32.3764C134.066 32.3042 133.919 32.2751 133.775 32.2935ZM106.58 31.2937C106.791 31.2809 107.001 31.3197 107.193 31.4069C107.384 31.494 107.552 31.6268 107.68 31.7936C107.833 31.971 107.947 32.178 108.016 32.4017C108.085 32.6253 108.107 32.8608 108.08 33.0933V35.2929C108.095 35.4338 108.06 35.5755 107.98 35.6928C107.88 35.7928 107.78 35.7928 107.58 35.7928C107.439 35.8077 107.298 35.7723 107.18 35.6928C107.08 35.5928 107.08 35.4928 107.08 35.2929V33.3932C107.085 33.0818 107.016 32.7737 106.88 32.4934C106.806 32.4058 106.714 32.3341 106.611 32.2826C106.508 32.231 106.396 32.2007 106.281 32.1935C106.162 32.178 106.042 32.1983 105.935 32.2518C105.828 32.3052 105.739 32.3894 105.681 32.4934C105.481 32.6934 105.481 32.9933 105.481 33.3932V35.1929C105.496 35.3338 105.46 35.4755 105.381 35.5928C105.281 35.6928 105.181 35.6928 104.981 35.6928C104.84 35.7077 104.698 35.6723 104.581 35.5928C104.481 35.4928 104.481 35.3928 104.481 35.1929V31.7936C104.474 31.7393 104.48 31.6842 104.497 31.6324C104.515 31.5805 104.543 31.5331 104.581 31.4936C104.681 31.3936 104.781 31.3936 104.981 31.3936C105.181 31.3936 105.281 31.3936 105.381 31.4936C105.419 31.5331 105.447 31.5805 105.464 31.6324C105.482 31.6842 105.487 31.7393 105.481 31.7936V32.0935C105.581 31.7936 105.781 31.6936 105.981 31.4936C106.147 31.3523 106.362 31.2807 106.58 31.2937ZM129.276 31.2937C129.486 31.2809 129.696 31.3197 129.888 31.4069C130.08 31.494 130.247 31.6268 130.376 31.7936C130.528 31.971 130.642 32.178 130.711 32.4017C130.78 32.6253 130.802 32.8608 130.776 33.0933V35.2929C130.791 35.4338 130.755 35.5755 130.676 35.6928C130.576 35.7928 130.476 35.7928 130.276 35.7928C130.135 35.8077 129.993 35.7723 129.876 35.6928C129.776 35.5928 129.776 35.4928 129.776 35.2929V33.3932C129.78 33.0818 129.712 32.7737 129.576 32.4934C129.501 32.4058 129.409 32.3341 129.306 32.2826C129.203 32.231 129.091 32.2007 128.976 32.1935C128.857 32.178 128.737 32.1983 128.63 32.2518C128.523 32.3052 128.435 32.3894 128.376 32.4934C128.176 32.6934 128.176 32.9933 128.176 33.3932V35.1929C128.191 35.3338 128.156 35.4755 128.076 35.5928C127.976 35.6928 127.876 35.6928 127.676 35.6928C127.535 35.7077 127.394 35.6723 127.276 35.5928C127.176 35.4928 127.176 35.3928 127.176 35.1929V31.7936C127.17 31.7393 127.175 31.6842 127.193 31.6324C127.21 31.5805 127.238 31.5331 127.276 31.4936C127.376 31.3936 127.476 31.3936 127.676 31.3936C127.876 31.3936 127.976 31.3936 128.076 31.4936C128.114 31.5331 128.142 31.5805 128.16 31.6324C128.177 31.6842 128.183 31.7393 128.176 31.7936V32.0935C128.276 31.7936 128.476 31.6936 128.676 31.4936C128.676 31.3936 128.976 31.2937 129.276 31.2937ZM78.7861 31.3936C78.927 31.3787 79.0687 31.4141 79.186 31.4936C79.286 31.5936 79.286 31.6936 79.286 31.8935V34.693C79.286 34.793 79.386 34.793 79.486 34.793C79.5859 34.793 79.6859 34.793 79.6859 34.8929C79.6859 34.9929 79.7859 35.0929 79.7859 35.1929C79.7859 35.2929 79.7859 35.4928 79.6859 35.5928C79.5859 35.6928 79.486 35.6928 79.286 35.6928C79.1546 35.6963 79.024 35.6713 78.9032 35.6195C78.7824 35.5678 78.6742 35.4904 78.5861 35.3928C78.3862 35.1929 78.3862 34.8929 78.3862 34.393V31.8935C78.3712 31.7526 78.4066 31.6109 78.4862 31.4936C78.5802 31.4446 78.6814 31.4108 78.7861 31.3936ZM71.8875 29.8939C72.0875 29.8939 72.1874 29.8939 72.2874 29.9939C72.3484 30.0415 72.398 30.1021 72.4326 30.1713C72.4672 30.2405 72.4859 30.3165 72.4874 30.3938V35.0929C72.4874 35.2929 72.4874 35.3928 72.3874 35.4928C72.2874 35.5928 72.1874 35.5928 71.9875 35.5928C71.8465 35.6078 71.7049 35.5723 71.5876 35.4928C71.4876 35.3928 71.4876 35.2929 71.4876 35.0929V31.8935L70.0879 34.493C69.9879 34.593 69.9879 34.693 69.8879 34.793C69.8484 34.8307 69.801 34.8593 69.7491 34.8766C69.6973 34.8939 69.6422 34.8995 69.588 34.8929C69.388 34.8929 69.288 34.793 69.0881 34.493L67.7883 31.9935V35.1929C67.7883 35.3928 67.7883 35.4928 67.6883 35.5928C67.5884 35.6928 67.4884 35.6928 67.2884 35.6928C67.1475 35.7077 67.0058 35.6723 66.8885 35.5928C66.7885 35.4928 66.7885 35.3928 66.7885 35.1929V30.4938C66.8106 30.3426 66.8809 30.2025 66.989 30.0944C67.0971 29.9863 67.2372 29.916 67.3884 29.8939C67.4884 29.8939 67.6883 29.8939 67.6883 29.9939C67.8118 30.1079 67.9135 30.2434 67.9883 30.3938L69.6879 33.4932L71.3876 30.3938C71.4624 30.2434 71.564 30.1079 71.6875 29.9939C71.6875 29.8939 71.7875 29.8939 71.8875 29.8939ZM82.7853 31.2937C82.9955 31.2809 83.2056 31.3197 83.3973 31.4069C83.589 31.494 83.7565 31.6268 83.8851 31.7936C84.0376 31.971 84.1519 32.178 84.2207 32.4017C84.2895 32.6253 84.3114 32.8608 84.285 33.0933V35.2929C84.2999 35.4338 84.2645 35.5755 84.185 35.6928C84.085 35.7928 83.985 35.7928 83.7851 35.7928C83.6442 35.8077 83.5025 35.7723 83.3852 35.6928C83.2852 35.5928 83.2852 35.4928 83.2852 35.2929V33.3932C83.2895 33.0818 83.221 32.7737 83.0852 32.4934C83.0104 32.4058 82.9188 32.3341 82.8157 32.2826C82.7127 32.231 82.6003 32.2007 82.4853 32.1935C82.3669 32.178 82.2465 32.1983 82.1396 32.2518C82.0327 32.3052 81.9442 32.3894 81.8855 32.4934C81.6855 32.6934 81.6855 32.9933 81.6855 33.3932V35.1929C81.7005 35.3338 81.6651 35.4755 81.5855 35.5928C81.4856 35.6928 81.3856 35.6928 81.1856 35.6928C81.0447 35.7077 80.903 35.6723 80.7857 35.5928C80.6857 35.4928 80.6857 35.3928 80.6857 35.1929V31.7936C80.6792 31.7393 80.6848 31.6842 80.702 31.6324C80.7193 31.5805 80.7479 31.5331 80.7857 31.4936C80.8857 31.3936 80.9857 31.3936 81.1856 31.3936C81.3856 31.3936 81.4856 31.3936 81.5855 31.4936C81.6233 31.5331 81.6519 31.5805 81.6692 31.6324C81.6865 31.6842 81.692 31.7393 81.6855 31.7936V32.0935C81.7855 31.7936 81.9855 31.6936 82.1854 31.4936C82.3522 31.3523 82.5671 31.2807 82.7853 31.2937ZM147.772 31.2937C147.974 31.275 148.177 31.3011 148.367 31.3703C148.557 31.4394 148.73 31.5498 148.872 31.6936C149.123 32.0441 149.262 32.4623 149.272 32.8933V35.0929C149.287 35.2338 149.251 35.3755 149.172 35.4928C149.072 35.5928 148.972 35.5928 148.772 35.5928C148.631 35.6078 148.489 35.5723 148.372 35.4928C148.272 35.3928 148.272 35.2929 148.272 35.0929V32.9933C148.285 32.7751 148.213 32.5602 148.072 32.3934C147.938 32.2639 147.759 32.1916 147.572 32.1916C147.386 32.1916 147.206 32.2639 147.072 32.3934C146.931 32.5602 146.859 32.7751 146.872 32.9933V35.0929C146.887 35.2338 146.852 35.3755 146.772 35.4928C146.672 35.5928 146.572 35.5928 146.372 35.5928C146.231 35.6078 146.09 35.5723 145.972 35.4928C145.872 35.3928 145.873 35.2929 145.873 35.0929V32.9933C145.885 32.7751 145.814 32.5602 145.673 32.3934C145.538 32.2639 145.359 32.1916 145.173 32.1916C144.986 32.1916 144.807 32.2639 144.673 32.3934C144.531 32.5602 144.46 32.7751 144.473 32.9933V35.0929C144.488 35.2338 144.452 35.3755 144.373 35.4928C144.273 35.5928 144.173 35.5928 143.973 35.5928C143.832 35.6078 143.69 35.5723 143.573 35.4928C143.473 35.3928 143.473 35.2929 143.473 35.0929V31.7936C143.473 31.5936 143.473 31.4936 143.573 31.3936C143.673 31.2937 143.773 31.2937 143.973 31.2937C144.173 31.2937 144.273 31.2937 144.273 31.3936C144.311 31.4331 144.339 31.4805 144.356 31.5324C144.374 31.5843 144.379 31.6393 144.373 31.6936V31.8935C144.47 31.6719 144.606 31.4689 144.773 31.2937C144.867 31.21 144.979 31.1485 145.1 31.1139C145.221 31.0793 145.348 31.0724 145.473 31.0937C145.719 31.0998 145.96 31.1686 146.172 31.2937C146.372 31.3936 146.472 31.6936 146.572 31.8935C146.595 31.7718 146.642 31.6559 146.711 31.5528C146.78 31.4497 146.869 31.3616 146.972 31.2937C147.237 31.3437 147.508 31.3437 147.772 31.2937ZM99.6819 31.2937C99.8818 31.2937 99.9818 31.2937 100.082 31.3936C100.12 31.4331 100.148 31.4805 100.165 31.5324C100.183 31.5843 100.188 31.6393 100.182 31.6936C100.197 31.8345 100.161 31.9762 100.082 32.0935C99.9818 32.1935 99.8818 32.1935 99.6819 32.1935C99.5091 32.1779 99.3355 32.2126 99.182 32.2935C99.082 32.3934 98.882 32.3934 98.782 32.4934C98.6585 32.6073 98.5569 32.7429 98.4821 32.8933C98.4007 33.0822 98.3664 33.2881 98.3821 33.4932V35.0929C98.3821 35.2929 98.3821 35.3928 98.2822 35.4928C98.1822 35.5928 98.0822 35.5928 97.8822 35.5928C97.7413 35.6078 97.5996 35.5723 97.4823 35.4928C97.3823 35.3928 97.3823 35.2929 97.3823 35.0929V31.7936C97.3758 31.7393 97.3814 31.6842 97.3987 31.6324C97.4159 31.5805 97.4445 31.5331 97.4823 31.4936C97.5823 31.3936 97.6823 31.3936 97.8822 31.3936C97.949 31.3892 98.016 31.3991 98.0786 31.4227C98.1413 31.4462 98.1982 31.4829 98.2455 31.5302C98.2928 31.5776 98.3295 31.6345 98.3531 31.6971C98.3766 31.7598 98.3865 31.8267 98.3821 31.8935V32.1935C98.5182 31.9699 98.6867 31.7678 98.882 31.5936C99.0997 31.3937 99.3865 31.2862 99.6819 31.2937ZM160.17 29.8939C160.37 29.8939 160.47 29.8939 160.57 29.9939C160.67 30.0939 160.669 30.1939 160.669 30.3938V35.1929C160.669 35.3928 160.67 35.4928 160.57 35.5928C160.47 35.6928 160.37 35.6928 160.17 35.6928C159.97 35.6928 159.87 35.6928 159.77 35.5928C159.67 35.4928 159.67 35.3928 159.67 35.1929V33.1933H157.17V35.1929C157.17 35.3928 157.17 35.4928 157.07 35.5928C156.97 35.6928 156.87 35.6928 156.67 35.6928C156.47 35.6928 156.37 35.6928 156.27 35.5928C156.17 35.4928 156.17 35.3928 156.17 35.1929V30.3938C156.17 30.1939 156.17 30.0939 156.27 29.9939C156.37 29.8939 156.47 29.8939 156.67 29.8939C156.87 29.8939 156.97 29.8939 157.07 29.9939C157.17 30.0939 157.17 30.1939 157.17 30.3938V32.1935H159.67V30.3938C159.67 30.1939 159.67 30.0939 159.77 29.9939C159.87 29.8939 159.97 29.8939 160.17 29.8939ZM115.979 31.2937C116.179 31.2937 116.278 31.2937 116.378 31.3936C116.416 31.4331 116.445 31.4805 116.462 31.5324C116.479 31.5843 116.485 31.6393 116.478 31.6936C116.493 31.8345 116.458 31.9762 116.378 32.0935C116.278 32.1935 116.179 32.1935 115.979 32.1935C115.806 32.1779 115.632 32.2126 115.479 32.2935C115.379 32.3934 115.179 32.3934 115.079 32.4934C114.955 32.6073 114.854 32.7429 114.779 32.8933C114.697 33.0822 114.663 33.2881 114.679 33.4932V35.0929C114.679 35.2929 114.679 35.3928 114.579 35.4928C114.479 35.5928 114.379 35.5928 114.179 35.5928C114.038 35.6078 113.896 35.5723 113.779 35.4928C113.679 35.3928 113.679 35.2929 113.679 35.0929V31.7936C113.672 31.7393 113.678 31.6842 113.695 31.6324C113.713 31.5805 113.741 31.5331 113.779 31.4936C113.879 31.3936 113.979 31.3936 114.179 31.3936C114.246 31.3892 114.313 31.3991 114.375 31.4227C114.438 31.4462 114.495 31.4829 114.542 31.5302C114.59 31.5776 114.626 31.6345 114.65 31.6971C114.673 31.7598 114.683 31.8267 114.679 31.8935V32.1935C114.815 31.9699 114.983 31.7678 115.179 31.5936C115.413 31.423 115.69 31.3193 115.979 31.2937ZM121.178 31.2937C121.377 31.2937 121.477 31.2937 121.577 31.3936C121.615 31.4331 121.644 31.4805 121.661 31.5324C121.678 31.5843 121.684 31.6393 121.677 31.6936C121.692 31.8345 121.657 31.9762 121.577 32.0935C121.477 32.1935 121.377 32.1935 121.178 32.1935C121.005 32.1779 120.831 32.2126 120.678 32.2935C120.578 32.3934 120.378 32.3934 120.278 32.4934C120.154 32.6073 120.053 32.7429 119.978 32.8933C119.896 33.0822 119.862 33.2881 119.878 33.4932V35.0929C119.878 35.2929 119.878 35.3928 119.778 35.4928C119.678 35.5928 119.578 35.5928 119.378 35.5928C119.237 35.6078 119.095 35.5723 118.978 35.4928C118.878 35.3928 118.878 35.2929 118.878 35.0929V31.7936C118.871 31.7393 118.877 31.6842 118.894 31.6324C118.912 31.5805 118.94 31.5331 118.978 31.4936C119.078 31.3936 119.178 31.3936 119.378 31.3936C119.445 31.3892 119.512 31.3991 119.574 31.4227C119.637 31.4462 119.694 31.4829 119.741 31.5302C119.788 31.5776 119.825 31.6345 119.849 31.6971C119.872 31.7598 119.882 31.8267 119.878 31.8935V32.1935C120.014 31.9699 120.182 31.7678 120.378 31.5936C120.595 31.3937 120.882 31.2862 121.178 31.2937ZM89.284 29.8939C89.5874 29.8777 89.8914 29.9115 90.1838 29.9939C90.4472 30.0657 90.688 30.2033 90.8836 30.3938C91.0507 30.5691 91.186 30.7721 91.2836 30.9937C91.3708 31.2508 91.4049 31.5229 91.3835 31.7936C91.365 32.1022 91.2975 32.4059 91.1836 32.6934C91.1608 32.8151 91.1136 32.931 91.0449 33.0341C90.9761 33.1372 90.8873 33.2254 90.7837 33.2933C90.5881 33.4838 90.3472 33.6214 90.0838 33.6932C89.7914 33.7756 89.4874 33.8094 89.184 33.7932H88.1842V35.0929C88.1842 35.2929 88.1842 35.3928 88.0842 35.4928C87.9842 35.5928 87.8843 35.5928 87.6843 35.5928C87.4843 35.5928 87.3844 35.5928 87.2844 35.4928C87.1844 35.3928 87.1844 35.2929 87.1844 35.0929V30.3938C87.1844 30.1939 87.1844 30.0939 87.2844 29.9939C87.3844 29.8939 87.4843 29.8939 87.6843 29.8939H89.284ZM163.569 31.2937C163.847 31.3003 164.12 31.3686 164.369 31.4936C164.564 31.6678 164.733 31.8699 164.869 32.0935V31.7936C164.862 31.7393 164.868 31.6842 164.885 31.6324C164.902 31.5805 164.931 31.5331 164.969 31.4936C165.069 31.3936 165.169 31.3936 165.369 31.3936C165.569 31.3936 165.668 31.3936 165.768 31.4936C165.806 31.5331 165.835 31.5805 165.852 31.6324C165.869 31.6842 165.875 31.7393 165.868 31.7936V34.393C165.868 34.693 165.968 34.793 166.068 34.793C166.168 34.793 166.168 34.793 166.268 34.8929C166.368 34.9929 166.368 35.0929 166.368 35.1929C166.368 35.5928 166.168 35.6928 165.768 35.6928C165.55 35.7058 165.335 35.6341 165.169 35.4928C165.043 35.3562 164.972 35.1784 164.969 34.9929V34.8929C164.858 35.1898 164.645 35.4378 164.369 35.5928C164.169 35.7928 163.869 35.7928 163.469 35.7928C163.225 35.7731 162.987 35.7051 162.769 35.5928C162.569 35.4928 162.369 35.2929 162.169 35.1929C161.979 34.9973 161.841 34.7564 161.769 34.493C161.687 34.2006 161.653 33.8966 161.669 33.5932C161.688 33.2846 161.755 32.9808 161.869 32.6934C161.941 32.43 162.079 32.1891 162.269 31.9935C162.443 31.7982 162.646 31.6297 162.869 31.4936C163.082 31.3685 163.322 31.2997 163.569 31.2937ZM110.98 31.2937C111.256 31.3126 111.527 31.3803 111.779 31.4936C112.004 31.5861 112.208 31.722 112.379 31.8936C112.551 32.0652 112.687 32.2691 112.779 32.4934C112.861 32.7171 112.895 32.9556 112.879 33.1933C112.879 33.3932 112.879 33.4932 112.779 33.5932C112.732 33.6542 112.671 33.7038 112.602 33.7384C112.533 33.773 112.457 33.7917 112.379 33.7932H109.88C109.908 34.1005 110.051 34.386 110.28 34.593C110.497 34.7929 110.784 34.9004 111.08 34.8929H111.379C111.479 34.8929 111.579 34.793 111.679 34.793C111.755 34.7824 111.825 34.7473 111.879 34.693C111.979 34.693 111.979 34.593 112.079 34.593C112.155 34.5824 112.225 34.5473 112.279 34.493C112.334 34.4845 112.389 34.4889 112.442 34.506C112.494 34.5231 112.542 34.5523 112.581 34.5913C112.62 34.6303 112.649 34.6779 112.666 34.7303C112.683 34.7828 112.688 34.8385 112.679 34.8929C112.679 34.9929 112.679 35.0929 112.579 35.0929C112.479 35.0929 112.479 35.1929 112.479 35.2929C112.279 35.3928 112.079 35.5928 111.879 35.6928C111.587 35.7752 111.283 35.809 110.98 35.7928C110.701 35.7861 110.428 35.7178 110.18 35.5928C109.909 35.4855 109.669 35.3139 109.48 35.0929C109.289 34.8973 109.152 34.6565 109.08 34.393C108.966 34.1056 108.899 33.8018 108.88 33.4932C108.899 33.1846 108.966 32.8809 109.08 32.5934C109.152 32.33 109.289 32.0891 109.48 31.8935C109.669 31.6725 109.909 31.5009 110.18 31.3936C110.48 31.3936 110.68 31.2937 110.98 31.2937ZM75.4868 31.2937C75.7631 31.3126 76.0339 31.3803 76.2866 31.4936C76.511 31.5861 76.7148 31.722 76.8864 31.8936C77.058 32.0652 77.1939 32.2691 77.2864 32.4934C77.3684 32.7171 77.4025 32.9556 77.3864 33.1933C77.3864 33.3932 77.3864 33.4932 77.2864 33.5932C77.2388 33.6542 77.1782 33.7038 77.109 33.7384C77.0399 33.773 76.9638 33.7917 76.8865 33.7932H74.387C74.4152 34.1005 74.558 34.386 74.7869 34.593C75.0046 34.7929 75.2913 34.9004 75.5867 34.8929H75.8867C75.9867 34.8929 76.0866 34.793 76.1866 34.793C76.2624 34.7824 76.3327 34.7473 76.3866 34.693C76.4866 34.693 76.4866 34.593 76.5865 34.593C76.6623 34.5824 76.7326 34.5473 76.7865 34.493C76.841 34.4845 76.8967 34.4889 76.9491 34.506C77.0015 34.5231 77.0492 34.5523 77.0882 34.5913C77.1271 34.6303 77.1564 34.6779 77.1734 34.7303C77.1905 34.7828 77.195 34.8385 77.1864 34.8929C77.1864 34.9929 77.1864 35.0929 77.0864 35.0929C76.9865 35.0929 76.9865 35.1929 76.9865 35.2929C76.7865 35.3928 76.5865 35.5928 76.3866 35.6928C76.0942 35.7752 75.7902 35.809 75.4868 35.7928C75.2086 35.7861 74.9355 35.7178 74.6869 35.5928C74.4165 35.4855 74.1762 35.3139 73.9871 35.0929C73.7966 34.8973 73.659 34.6565 73.5872 34.393C73.4733 34.1056 73.4058 33.8018 73.3872 33.4932C73.4058 33.1846 73.4733 32.8809 73.5872 32.5934C73.6985 32.3482 73.8324 32.1139 73.9871 31.8935C74.1762 31.6725 74.4165 31.5009 74.6869 31.3936C74.9869 31.3936 75.1868 31.2937 75.4868 31.2937ZM93.883 31.2937C94.1612 31.3003 94.4343 31.3686 94.6829 31.4936C94.8782 31.6678 95.0467 31.8699 95.1828 32.0935V31.7936C95.1762 31.7393 95.1818 31.6842 95.1991 31.6324C95.2164 31.5805 95.245 31.5331 95.2828 31.4936C95.3827 31.3936 95.4827 31.3936 95.6827 31.3936C95.8826 31.3936 95.9826 31.3936 96.0826 31.4936C96.1204 31.5331 96.149 31.5805 96.1662 31.6324C96.1835 31.6842 96.1891 31.7393 96.1826 31.7936V34.393C96.1826 34.693 96.2826 34.793 96.3825 34.793C96.4825 34.793 96.4825 34.793 96.5825 34.8929C96.6825 34.9929 96.6825 35.0929 96.6825 35.1929C96.6825 35.5928 96.4825 35.6928 96.0826 35.6928C95.8644 35.7058 95.6495 35.6341 95.4827 35.4928C95.3573 35.3562 95.2862 35.1784 95.2828 34.9929V34.8929C95.1719 35.1898 94.9593 35.4378 94.6829 35.5928C94.4829 35.7928 94.183 35.7928 93.7831 35.7928C93.5388 35.7731 93.3009 35.7051 93.0832 35.5928C92.8832 35.4928 92.6833 35.2929 92.4833 35.1929C92.2928 34.9973 92.1552 34.7564 92.0834 34.493C92.0009 34.2006 91.9672 33.8966 91.9834 33.5932C92.002 33.2846 92.0695 32.9808 92.1834 32.6934C92.2552 32.43 92.3928 32.1891 92.5833 31.9935C92.7575 31.7982 92.9596 31.6297 93.1832 31.4936C93.3957 31.3685 93.6365 31.2997 93.883 31.2937ZM141.773 31.3936C141.914 31.3787 142.056 31.4141 142.173 31.4936C142.273 31.5936 142.273 31.6936 142.273 31.8935V33.8931C142.289 34.1636 142.256 34.4348 142.173 34.693C142.076 34.9146 141.94 35.1176 141.773 35.2929C141.616 35.4813 141.408 35.6202 141.173 35.6928C140.916 35.78 140.644 35.8141 140.374 35.7928C140.103 35.809 139.832 35.7751 139.574 35.6928C139.349 35.6003 139.146 35.4644 138.974 35.2928C138.802 35.1212 138.666 34.9173 138.574 34.693C138.487 34.4359 138.453 34.1638 138.474 33.8931V31.8935C138.459 31.7526 138.494 31.6109 138.574 31.4936C138.674 31.3936 138.774 31.3936 138.974 31.3936C139.115 31.3787 139.257 31.4141 139.374 31.4936C139.474 31.5936 139.474 31.6936 139.474 31.8935V33.8931C139.48 34.1396 139.549 34.3805 139.674 34.593C139.744 34.6861 139.834 34.7617 139.938 34.8138C140.042 34.8658 140.157 34.8929 140.274 34.8929C140.39 34.8929 140.505 34.8658 140.609 34.8138C140.713 34.7617 140.804 34.6861 140.874 34.593C140.999 34.3805 141.067 34.1396 141.073 33.8931V31.8935C141.059 31.7526 141.094 31.6109 141.173 31.4936C141.377 31.4885 141.579 31.4548 141.773 31.3936ZM101.781 30.2939C101.922 30.2789 102.064 30.3143 102.181 30.3938C102.281 30.4938 102.281 30.5938 102.281 30.7938V31.3936H102.981C103.036 31.3851 103.091 31.3895 103.144 31.4066C103.196 31.4237 103.244 31.4529 103.283 31.4919C103.322 31.5309 103.351 31.5785 103.368 31.631C103.385 31.6834 103.39 31.7391 103.381 31.7936C103.381 31.8935 103.381 32.0935 103.281 32.0935C103.242 32.1313 103.194 32.1599 103.142 32.1771C103.091 32.1944 103.035 32.2 102.981 32.1935H102.281V34.0931C102.281 34.493 102.381 34.693 102.681 34.693C102.736 34.6995 102.791 34.6939 102.842 34.6766C102.894 34.6594 102.942 34.6308 102.981 34.593C103.081 34.593 103.081 34.493 103.181 34.493C103.236 34.4845 103.291 34.4889 103.344 34.506C103.396 34.5231 103.444 34.5523 103.483 34.5913C103.522 34.6303 103.551 34.6779 103.568 34.7303C103.585 34.7828 103.59 34.8385 103.581 34.8929C103.581 35.0929 103.481 35.2929 103.381 35.2929C103.281 35.2929 103.181 35.3928 102.981 35.4928H102.481C102.276 35.5086 102.07 35.4743 101.881 35.3928C101.731 35.318 101.595 35.2164 101.481 35.0929C101.356 34.9563 101.285 34.7784 101.282 34.593C101.258 34.4245 101.225 34.2576 101.182 34.0931V32.0935H100.982C100.927 32.102 100.871 32.0976 100.819 32.0805C100.767 32.0634 100.719 32.0342 100.68 31.9952C100.641 31.9563 100.612 31.9086 100.595 31.8562C100.578 31.8038 100.573 31.748 100.582 31.6936C100.582 31.5936 100.582 31.3936 100.682 31.3936C100.721 31.3558 100.769 31.3273 100.82 31.31C100.872 31.2927 100.927 31.2871 100.982 31.2937H101.182V30.6938C101.167 30.5528 101.202 30.4112 101.282 30.2939H101.781ZM151.771 31.2937C152.042 31.2723 152.314 31.3064 152.571 31.3936C152.75 31.4709 152.919 31.5718 153.071 31.6936C153.171 31.7936 153.171 31.7936 153.171 31.8935V32.0935C153.178 32.1478 153.172 32.2028 153.155 32.2547C153.137 32.3066 153.109 32.3539 153.071 32.3934C152.971 32.4934 152.871 32.5934 152.771 32.5934H152.571C152.471 32.5934 152.471 32.4934 152.371 32.4934C152.271 32.4934 152.171 32.3934 152.071 32.2935C151.948 32.2278 151.811 32.1935 151.671 32.1935C151.532 32.1935 151.394 32.2278 151.271 32.2935C151.171 32.3934 151.071 32.3934 151.071 32.5934C151.071 32.7934 151.171 32.7934 151.271 32.8933C151.371 32.9933 151.471 32.9933 151.671 33.0933C151.871 33.1933 151.971 33.1933 152.171 33.2933C152.35 33.3705 152.519 33.4714 152.671 33.5932C152.85 33.6718 152.992 33.8145 153.071 33.9931C153.197 34.1684 153.266 34.3775 153.271 34.593C153.287 34.7981 153.252 35.004 153.171 35.1929C153.096 35.3433 152.995 35.4789 152.871 35.5928C152.719 35.7146 152.55 35.8155 152.371 35.8927C152.149 35.9821 151.909 36.0164 151.671 35.9927C151.368 36.009 151.064 35.9752 150.772 35.8927C150.55 35.7952 150.347 35.6599 150.172 35.4928C150.072 35.3928 150.072 35.3928 150.072 35.2929V35.0929C150.065 35.0386 150.071 34.9836 150.088 34.9317C150.105 34.8798 150.134 34.8325 150.172 34.793C150.272 34.693 150.372 34.593 150.472 34.593H150.672C150.698 34.593 150.723 34.6035 150.742 34.6223C150.761 34.641 150.772 34.6665 150.772 34.693C150.819 34.754 150.88 34.8036 150.949 34.8381C151.018 34.8727 151.094 34.8915 151.171 34.8929C151.321 34.9836 151.498 35.019 151.671 34.9929C151.844 35.0085 152.018 34.9738 152.171 34.8929C152.271 34.793 152.371 34.693 152.371 34.593C152.371 34.493 152.271 34.393 152.171 34.2931C152.071 34.1931 151.971 34.1931 151.771 34.0931C151.571 33.9931 151.471 33.9931 151.271 33.8931C151.071 33.7932 150.871 33.7932 150.772 33.5932C150.593 33.5146 150.45 33.3719 150.372 33.1933C150.261 33.0109 150.192 32.8058 150.172 32.5934C150.156 32.4206 150.191 32.247 150.272 32.0935C150.346 31.943 150.448 31.8075 150.572 31.6936C150.724 31.5718 150.892 31.4709 151.071 31.3936C151.271 31.3936 151.471 31.2937 151.771 31.2937ZM135.375 29.8939C135.516 29.879 135.657 29.9144 135.775 29.9939C135.875 30.0939 135.875 30.1939 135.875 30.3938V35.1929C135.875 35.3928 135.875 35.4928 135.775 35.5928C135.675 35.6928 135.575 35.6928 135.375 35.6928C135.175 35.6928 135.075 35.6928 134.975 35.5928C134.875 35.4928 134.875 35.3928 134.875 35.1929V34.8929C134.767 35.1634 134.596 35.4036 134.375 35.5928C134.145 35.7626 133.858 35.8345 133.575 35.7928C133.337 35.8088 133.099 35.7748 132.875 35.6928C132.654 35.5952 132.451 35.4599 132.275 35.2929C132.085 35.0973 131.947 34.8564 131.875 34.593C131.793 34.3006 131.759 33.9966 131.775 33.6932C131.783 33.3831 131.851 33.0775 131.975 32.7934C132.047 32.5299 132.185 32.2891 132.375 32.0935C132.551 31.9264 132.753 31.7911 132.975 31.6936C133.193 31.5812 133.431 31.5133 133.675 31.4936C133.955 31.4868 134.231 31.5559 134.475 31.6936C134.67 31.8678 134.839 32.0699 134.975 32.2935V30.3938C134.96 30.2529 134.995 30.1112 135.075 29.9939C135.075 29.8939 135.275 29.8939 135.375 29.8939ZM170.168 31.3936C170.309 31.3787 170.45 31.4141 170.568 31.4936C170.667 31.5936 170.667 31.6936 170.667 31.8935V33.8931C170.684 34.1636 170.65 34.4348 170.568 34.693C170.47 34.9146 170.335 35.1176 170.168 35.2929C170.01 35.4813 169.802 35.6202 169.568 35.6928C169.311 35.78 169.038 35.8141 168.768 35.7928C168.497 35.809 168.226 35.7751 167.968 35.6928C167.744 35.6003 167.54 35.4644 167.368 35.2928C167.197 35.1212 167.061 34.9173 166.968 34.693C166.881 34.4359 166.847 34.1638 166.868 33.8931V31.8935C166.853 31.7526 166.889 31.6109 166.968 31.4936C167.068 31.3936 167.168 31.3936 167.368 31.3936C167.509 31.3787 167.651 31.4141 167.768 31.4936C167.868 31.5936 167.868 31.6936 167.868 31.8935V33.8931C167.874 34.1396 167.943 34.3805 168.068 34.593C168.138 34.6861 168.228 34.7617 168.333 34.8138C168.437 34.8658 168.551 34.8929 168.668 34.8929C168.784 34.8929 168.899 34.8658 169.003 34.8138C169.107 34.7617 169.198 34.6861 169.268 34.593C169.393 34.3805 169.462 34.1396 169.468 33.8931V31.8935C169.453 31.7526 169.488 31.6109 169.568 31.4936C169.868 31.4936 169.968 31.3936 170.168 31.3936ZM173.067 31.2937C173.338 31.2723 173.61 31.3064 173.867 31.3936C174.046 31.4709 174.214 31.5718 174.367 31.6936C174.467 31.7936 174.467 31.7936 174.467 31.8935V32.0935C174.473 32.1478 174.468 32.2028 174.45 32.2547C174.433 32.3066 174.405 32.3539 174.367 32.3934C174.267 32.4934 174.167 32.5934 174.067 32.5934H173.867C173.767 32.5934 173.767 32.4934 173.667 32.4934C173.567 32.4934 173.467 32.3934 173.367 32.2935C173.244 32.2278 173.107 32.1935 172.967 32.1935C172.828 32.1935 172.69 32.2278 172.567 32.2935C172.467 32.3934 172.367 32.3934 172.367 32.5934C172.367 32.7934 172.467 32.7934 172.567 32.8933C172.667 32.9933 172.767 32.9933 172.967 33.0933C173.167 33.1933 173.267 33.1933 173.467 33.2933C173.646 33.3705 173.814 33.4714 173.967 33.5932C174.145 33.6718 174.288 33.8145 174.367 33.9931C174.492 34.1684 174.562 34.3775 174.567 34.593C174.582 34.7981 174.548 35.004 174.467 35.1929C174.392 35.3433 174.29 35.4789 174.167 35.5928C174.014 35.7146 173.846 35.8155 173.667 35.8927C173.445 35.9821 173.205 36.0164 172.967 35.9927C172.664 36.009 172.36 35.9752 172.067 35.8927C171.846 35.7952 171.643 35.6599 171.467 35.4928C171.367 35.3928 171.367 35.3928 171.367 35.2929V35.0929C171.361 35.0386 171.366 34.9836 171.384 34.9317C171.401 34.8798 171.43 34.8325 171.467 34.793C171.567 34.693 171.667 34.593 171.767 34.593H171.967C171.994 34.593 172.019 34.6035 172.038 34.6223C172.057 34.641 172.067 34.6665 172.067 34.693C172.115 34.754 172.175 34.8036 172.245 34.8381C172.314 34.8727 172.39 34.8915 172.467 34.8929C172.617 34.9836 172.794 35.019 172.967 34.9929C173.14 35.0085 173.313 34.9738 173.467 34.8929C173.567 34.793 173.667 34.693 173.667 34.593C173.667 34.493 173.567 34.393 173.467 34.2931C173.367 34.1931 173.267 34.1931 173.067 34.0931C172.867 33.9931 172.767 33.9931 172.567 33.8931C172.367 33.7932 172.167 33.7932 172.067 33.5932C171.889 33.5146 171.746 33.3719 171.667 33.1933C171.556 33.0109 171.488 32.8058 171.467 32.5934C171.452 32.4206 171.486 32.247 171.567 32.0935C171.642 31.943 171.744 31.8075 171.867 31.6936C172.02 31.5718 172.188 31.4709 172.367 31.3936C172.667 31.3936 172.867 31.2937 173.067 31.2937ZM125.377 31.3936C125.518 31.3787 125.659 31.4141 125.777 31.4936C125.877 31.5936 125.877 31.6936 125.877 31.8935V33.8931C125.893 34.1636 125.859 34.4348 125.777 34.693C125.679 34.9146 125.544 35.1176 125.377 35.2929C125.22 35.4813 125.011 35.6202 124.777 35.6928C124.52 35.78 124.248 35.8141 123.977 35.7928C123.706 35.809 123.435 35.7751 123.177 35.6928C122.953 35.6003 122.749 35.4644 122.577 35.2928C122.406 35.1212 122.27 34.9173 122.177 34.693C122.09 34.4359 122.056 34.1638 122.077 33.8931V31.8935C122.062 31.7526 122.098 31.6109 122.177 31.4936C122.277 31.3936 122.377 31.3936 122.577 31.3936C122.718 31.3787 122.86 31.4141 122.977 31.4936C123.077 31.5936 123.077 31.6936 123.077 31.8935V33.8931C123.083 34.1396 123.152 34.3805 123.277 34.593C123.347 34.6861 123.437 34.7617 123.542 34.8138C123.646 34.8658 123.761 34.8929 123.877 34.8929C123.993 34.8929 124.108 34.8658 124.212 34.8138C124.316 34.7617 124.407 34.6861 124.477 34.593C124.602 34.3805 124.671 34.1396 124.677 33.8931V31.8935C124.662 31.7526 124.697 31.6109 124.777 31.4936C124.98 31.4885 125.182 31.4548 125.377 31.3936Z" fill="#1F304C"/>
</svg>
