<svg width="264" height="30" viewBox="0 0 264 30" fill="none" xmlns="http://www.w3.org/2000/svg">
<g clip-path="url(#clip0)">
<path d="M0 -3.05176e-05H4.20436V8.22212C4.94917 7.56074 5.79197 7.01877 6.70275 6.61549C7.50487 6.26605 8.36982 6.08384 9.24475 6.07996C10.0323 6.06291 10.8149 6.20837 11.5437 6.50731C12.2725 6.80626 12.9319 7.25225 13.4806 7.81742C14.4612 8.82065 14.9523 10.2948 14.954 12.2399V23.3869H10.7811V15.9887C10.7811 14.0339 10.6882 12.71 10.5024 12.017C10.3683 11.4071 10.0318 10.8605 9.54766 10.4661C9.06497 10.1135 8.4778 9.93345 7.88046 9.95475C7.06087 9.94073 6.26807 10.2467 5.67043 10.8077C5.01993 11.437 4.57407 12.2477 4.39095 13.1341C4.26817 13.6397 4.20598 14.798 4.20436 16.609V23.3942H0V-3.05176e-05Z" fill="#1F304C"/>
<path d="M28.963 6.51617H33.1989V23.3918H28.963V21.6083C28.2443 22.3201 27.4017 22.895 26.4767 23.3046C25.6188 23.6559 24.6994 23.8322 23.7724 23.8231C21.5931 23.8231 19.7086 22.9782 18.1189 21.2884C16.5292 19.5986 15.7336 17.4984 15.732 14.9879C15.732 12.3805 16.5018 10.2448 18.0414 8.5808C18.7408 7.7849 19.604 7.14958 20.5718 6.71836C21.5397 6.28714 22.5893 6.07018 23.6488 6.0824C24.628 6.07677 25.598 6.27224 26.4986 6.65671C27.4246 7.06472 28.2618 7.65006 28.963 8.37968V6.51617ZM24.5115 10.0033C23.9003 9.98761 23.2929 10.1033 22.7302 10.3424C22.1675 10.5815 21.6627 10.9385 21.2498 11.3894C20.3838 12.315 19.9509 13.5016 19.9509 14.9491C19.9509 16.3966 20.3911 17.5962 21.2716 18.5477C21.6816 19.0021 22.1842 19.3633 22.7456 19.607C23.307 19.8507 23.9141 19.9712 24.526 19.9604C25.1447 19.9771 25.7598 19.8619 26.3306 19.6225C26.9013 19.3831 27.4145 19.025 27.8362 18.5719C28.7118 17.6462 29.1496 16.4346 29.1496 14.937C29.1496 13.4685 28.7118 12.2795 27.8362 11.37C27.4089 10.9217 26.892 10.5684 26.3192 10.3329C25.7464 10.0975 25.1305 9.98515 24.5115 10.0033V10.0033Z" fill="#1F304C"/>
<path d="M39.1406 6.51618V8.37726C39.8503 7.64996 40.6926 7.06514 41.6221 6.65432C42.5244 6.27006 43.4959 6.07461 44.4767 6.08001C45.5372 6.06787 46.5879 6.28479 47.5569 6.71597C48.5259 7.14715 49.3904 7.78242 50.0914 8.57838C51.6326 10.244 52.4032 12.3797 52.4032 14.9855C52.4032 17.4992 51.6067 19.5994 50.0138 21.286C48.4209 22.9726 46.534 23.8159 44.3531 23.8159C43.423 23.8243 42.5005 23.648 41.639 23.2973C40.7096 22.8893 39.8628 22.3144 39.1406 21.601V29.559H34.9363V6.5089L39.1406 6.51618ZM43.5922 10.0033C42.9742 9.98584 42.3594 10.0983 41.7875 10.3333C41.2157 10.5683 40.6995 10.9206 40.2723 11.3676C39.3951 12.2771 38.9557 13.4661 38.954 14.9346C38.954 16.4354 39.3935 17.647 40.2723 18.5695C40.6961 19.0224 41.2111 19.3804 41.7834 19.6197C42.3556 19.859 42.9721 19.9743 43.5922 19.958C44.2059 19.9693 44.815 19.849 45.3784 19.6054C45.9419 19.3617 46.4466 19.0002 46.8587 18.5453C47.744 17.605 48.1859 16.4055 48.1843 14.9467C48.1826 13.4879 47.7481 12.3013 46.8805 11.3869C46.4628 10.9351 45.9533 10.5778 45.3861 10.3392C44.8189 10.1005 44.2073 9.986 43.5922 10.0033V10.0033Z" fill="#1F304C"/>
<path d="M57.572 6.51618V8.37726C58.2813 7.64941 59.1237 7.06451 60.0535 6.65432C60.9558 6.26986 61.9273 6.07441 62.908 6.08001C63.9686 6.06787 65.0193 6.28479 65.9883 6.71597C66.9573 7.14715 67.8218 7.78242 68.5227 8.57838C70.0639 10.244 70.8337 12.3797 70.8321 14.9855C70.8321 17.4992 70.0365 19.5994 68.4452 21.286C66.8539 22.9726 64.9662 23.8159 62.782 23.8159C61.8519 23.8243 60.9294 23.648 60.068 23.2973C59.1393 22.8892 58.2933 22.3143 57.572 21.601V29.559H53.3677V6.5089L57.572 6.51618ZM62.0235 10.0033C61.4055 9.98568 60.7907 10.098 60.2188 10.3331C59.647 10.5681 59.1308 10.9205 58.7037 11.3676C57.8249 12.2771 57.3854 13.4661 57.3854 14.9346C57.3854 16.4354 57.8249 17.647 58.7037 18.5695C59.1273 19.0227 59.6423 19.3808 60.2146 19.6201C60.7869 19.8595 61.4034 19.9746 62.0235 19.958C62.6369 19.9691 63.2456 19.8487 63.8086 19.6051C64.3716 19.3614 64.8759 19 65.2877 18.5453C66.173 17.605 66.6148 16.4055 66.6132 14.9467C66.6116 13.4879 66.1778 12.3013 65.3119 11.3869C64.894 10.9353 64.3844 10.5783 63.8173 10.3396C63.2502 10.101 62.6386 9.98631 62.0235 10.0033V10.0033Z" fill="#1F304C"/>
<path d="M70.2432 6.51633H74.5687L78.9524 17.1036L83.7989 6.51633H88.1365L77.5687 29.5664H73.2068L76.6769 22.1318L70.2432 6.51633Z" fill="#1F304C"/>
<path d="M102.378 6.51619H106.597V20.971C106.597 23.8256 106.023 25.9257 104.876 27.2714C103.335 29.0905 101.014 30.0009 97.9121 30.0025C96.4957 30.0388 95.0838 29.8289 93.7392 29.3821C92.6618 28.9992 91.6856 28.376 90.8847 27.5598C90.0928 26.7305 89.5032 25.7295 89.1617 24.6349H93.8313C94.2644 25.123 94.8137 25.4939 95.4283 25.7133C96.1712 25.9705 96.954 26.0936 97.74 26.0768C98.879 26.0768 99.7941 25.9015 100.486 25.5509C101.105 25.2636 101.615 24.7843 101.94 24.1842C102.224 23.6269 102.366 22.6656 102.366 21.3005C101.704 21.9896 100.907 22.5355 100.025 22.9047C99.1388 23.2419 98.1962 23.4064 97.2481 23.3894C96.1727 23.4084 95.1053 23.2 94.116 22.7778C93.1267 22.3556 92.2378 21.7291 91.5074 20.9395C89.9469 19.3046 89.1666 17.2359 89.1666 14.7335C89.1666 12.055 89.9937 9.90392 91.648 8.28034C92.3483 7.57078 93.1847 7.00992 94.107 6.63141C95.0294 6.25291 96.0186 6.06455 97.0155 6.0776C97.9595 6.07248 98.8951 6.25449 99.7683 6.61313C100.733 7.03923 101.613 7.63605 102.366 8.37485L102.378 6.51619ZM97.9896 10.0372C97.3758 10.0183 96.7647 10.1277 96.1955 10.3584C95.6264 10.5892 95.1117 10.9362 94.6843 11.3773C94.2532 11.8247 93.916 12.3538 93.6925 12.9336C93.4691 13.5133 93.3638 14.1319 93.383 14.7529C93.383 16.1584 93.8273 17.311 94.7158 18.2109C95.1516 18.6542 95.6741 19.003 96.2507 19.2352C96.8274 19.4675 97.4458 19.5782 98.0672 19.5606C98.6708 19.5795 99.2717 19.472 99.8313 19.245C100.391 19.0179 100.897 18.6764 101.317 18.2424C102.17 17.3619 102.596 16.2084 102.596 14.7819C102.596 13.3554 102.166 12.2133 101.307 11.3554C100.876 10.9175 100.358 10.5741 99.7871 10.3472C99.2159 10.1202 98.6038 10.0146 97.9896 10.0372V10.0372Z" fill="#1F304C"/>
<path d="M107.663 6.51632H111.298V8.64152C111.635 7.87287 112.178 7.21211 112.866 6.73199C113.497 6.30397 114.243 6.07676 115.006 6.08015C115.606 6.09302 116.195 6.24216 116.729 6.51632L115.41 10.1512C115.035 9.93717 114.616 9.80967 114.184 9.77802C113.538 9.77802 112.987 10.1819 112.532 10.9897C112.076 11.7974 111.852 13.379 111.858 15.7344L111.873 16.5583V23.3822H107.663V6.51632Z" fill="#1F304C"/>
<path d="M128.666 6.51617H132.901V23.3918H128.666V21.6083C127.947 22.3201 127.104 22.895 126.179 23.3046C125.321 23.6559 124.402 23.8322 123.475 23.8231C121.296 23.8231 119.41 22.9782 117.819 21.2884C116.228 19.5986 115.433 17.4984 115.435 14.9879C115.435 12.3805 116.204 10.2448 117.744 8.5808C118.443 7.7849 119.307 7.14958 120.274 6.71836C121.242 6.28714 122.292 6.07018 123.351 6.0824C124.331 6.07677 125.3 6.27224 126.201 6.65671C127.127 7.06472 127.964 7.65006 128.666 8.37968V6.51617ZM124.214 10.0033C123.603 9.98761 122.995 10.1033 122.433 10.3424C121.87 10.5815 121.365 10.9385 120.952 11.3894C120.086 12.315 119.653 13.5016 119.653 14.9491C119.653 16.3966 120.094 17.5962 120.974 18.5477C121.384 19.0021 121.887 19.3633 122.448 19.607C123.009 19.8507 123.617 19.9712 124.229 19.9604C124.847 19.9771 125.462 19.8619 126.033 19.6225C126.604 19.3831 127.117 19.025 127.539 18.5719C128.413 17.6462 128.85 16.4346 128.852 14.937C128.852 13.4685 128.414 12.2795 127.539 11.37C127.111 10.9217 126.595 10.5684 126.022 10.3329C125.449 10.0975 124.833 9.98515 124.214 10.0033V10.0033Z" fill="#1F304C"/>
<path d="M145.289 8.874L142.667 11.4936C141.601 10.4386 140.632 9.91117 139.759 9.91117C139.364 9.88876 138.972 9.99503 138.642 10.2141C138.519 10.2973 138.417 10.4094 138.347 10.5408C138.277 10.6722 138.24 10.8188 138.24 10.9677C138.239 11.1999 138.326 11.4239 138.482 11.5953C138.86 11.9211 139.287 12.1853 139.747 12.3781L141.298 13.1535C142.931 13.9612 144.053 14.7836 144.664 15.6204C145.371 16.6371 145.687 17.8752 145.554 19.1065C145.42 20.3378 144.846 21.4793 143.937 22.3207C142.834 23.3239 141.357 23.8256 139.507 23.8256C137.047 23.8256 135.083 22.8643 133.614 20.9419L136.219 18.1018C136.708 18.6747 137.3 19.1513 137.964 19.5073C138.505 19.8264 139.115 20.0094 139.742 20.0404C140.224 20.0645 140.7 19.9225 141.09 19.6382C141.243 19.5346 141.369 19.3963 141.458 19.2345C141.548 19.0728 141.597 18.8923 141.604 18.7076C141.604 18.0614 140.988 17.4249 139.757 16.7981L138.33 16.0856C135.599 14.7125 134.234 12.9911 134.234 10.9217C134.229 10.2737 134.364 9.63222 134.631 9.04152C134.897 8.45082 135.289 7.92491 135.778 7.50003C136.809 6.55496 138.125 6.08162 139.725 6.08C140.806 6.07489 141.872 6.32531 142.838 6.81089C143.803 7.29646 144.64 8.0034 145.28 8.874H145.289Z" fill="#1F304C"/>
<path d="M156.945 8.87402L154.323 11.4936C153.259 10.4387 152.289 9.91118 151.415 9.91118C151.02 9.88878 150.628 9.99505 150.298 10.2141C150.188 10.2875 150.095 10.3844 150.026 10.4979C149.957 10.6114 149.914 10.7386 149.901 10.8705C149.887 11.0025 149.902 11.1358 149.946 11.2611C149.989 11.3864 150.06 11.5005 150.153 11.5953C150.322 11.786 150.743 12.0469 151.415 12.3781L152.966 13.1535C154.603 13.9613 155.725 14.7836 156.332 15.6204C157.039 16.6371 157.355 17.8752 157.222 19.1065C157.088 20.3378 156.514 21.4793 155.605 22.3207C154.5 23.3175 153.024 23.8159 151.175 23.8159C148.713 23.8159 146.748 22.8546 145.28 20.9322L147.889 18.1018C148.379 18.6747 148.97 19.1514 149.634 19.5073C150.174 19.8268 150.784 20.0098 151.41 20.0404C151.893 20.0641 152.369 19.9221 152.76 19.6382C152.913 19.5345 153.039 19.3961 153.128 19.2344C153.217 19.0726 153.266 18.8921 153.271 18.7076C153.271 18.0614 152.656 17.4249 151.425 16.7981L149.998 16.0857C147.269 14.7125 145.904 12.9912 145.902 10.9217C145.898 10.2738 146.033 9.63246 146.299 9.04183C146.566 8.4512 146.957 7.92524 147.446 7.50005C148.477 6.55498 149.792 6.08164 151.393 6.08002C152.474 6.07432 153.541 6.32451 154.506 6.81014C155.471 7.29576 156.308 8.00299 156.948 8.87402H156.945Z" fill="#1F304C"/>
<path d="M157.747 -3.05176e-05H161.944V8.22212C162.69 7.56139 163.532 7.01949 164.443 6.61549C165.246 6.26605 166.111 6.08385 166.987 6.07996C167.774 6.06295 168.557 6.20845 169.285 6.5074C170.013 6.80635 170.672 7.25231 171.221 7.81742C172.204 8.82065 172.696 10.2948 172.694 12.2399V23.3869H168.521V15.9887C168.521 14.0339 168.428 12.71 168.242 12.017C168.108 11.4077 167.773 10.8614 167.29 10.4661C166.807 10.1147 166.22 9.93476 165.623 9.95475C164.802 9.94009 164.009 10.2461 163.41 10.8077C162.76 11.437 162.314 12.2477 162.131 13.1341C162.008 13.6397 161.946 14.798 161.944 16.609V23.3942H157.747V-3.05176e-05Z" fill="#1F304C"/>
<path d="M182.241 6.07991C183.818 6.07621 185.368 6.48827 186.734 7.27456C188.091 8.04031 189.22 9.15388 190.003 10.5007C190.787 11.8474 191.198 13.3787 191.193 14.9369C191.2 16.5053 190.79 18.0475 190.005 19.4054C189.244 20.7627 188.126 21.8863 186.773 22.655C185.398 23.4374 183.84 23.8413 182.258 23.8255C181.104 23.8433 179.958 23.6233 178.892 23.1793C177.826 22.7354 176.863 22.0768 176.062 21.2447C175.219 20.3884 174.558 19.3712 174.117 18.2537C173.676 17.1362 173.465 15.9413 173.496 14.7404C173.527 13.5395 173.799 12.3571 174.297 11.2639C174.795 10.1706 175.508 9.18883 176.394 8.37716C177.977 6.89115 180.07 6.06894 182.241 6.07991V6.07991ZM182.312 10.0662C181.698 10.0511 181.088 10.1657 180.522 10.4025C179.956 10.6393 179.446 10.9929 179.026 11.4402C178.152 12.3562 177.714 13.5274 177.712 14.9539C177.712 16.4224 178.145 17.6114 179.011 18.5209C179.431 18.9678 179.941 19.3205 180.508 19.5557C181.074 19.7909 181.684 19.9032 182.297 19.8852C182.915 19.9013 183.529 19.7867 184.099 19.5491C184.67 19.3115 185.184 18.9562 185.607 18.5064C186.486 17.5855 186.926 16.4014 186.928 14.9539C186.929 13.5064 186.497 12.3303 185.629 11.4256C185.203 10.978 184.687 10.6255 184.116 10.3912C183.544 10.1569 182.929 10.0462 182.312 10.0662Z" fill="#1F304C"/>
<path d="M196.505 6.51618V8.37726C197.215 7.64996 198.057 7.06514 198.986 6.65432C199.889 6.27006 200.86 6.07461 201.841 6.08001C202.901 6.06787 203.952 6.28479 204.921 6.71597C205.89 7.14715 206.755 7.78242 207.456 8.57838C208.997 10.244 209.767 12.3797 209.767 14.9855C209.767 17.4992 208.971 19.5994 207.378 21.286C205.785 22.9726 203.898 23.8159 201.717 23.8159C200.787 23.8243 199.865 23.648 199.003 23.2973C198.073 22.8899 197.227 22.3149 196.505 21.601V29.559H192.3V6.5089L196.505 6.51618ZM200.959 10.0033C200.341 9.98584 199.726 10.0983 199.154 10.3333C198.582 10.5683 198.066 10.9206 197.639 11.3676C196.762 12.2771 196.322 13.4661 196.321 14.9346C196.321 16.4354 196.76 17.647 197.639 18.5695C198.064 19.0189 198.58 19.3732 199.152 19.6092C199.725 19.8452 200.34 19.9574 200.959 19.9386C201.572 19.9499 202.181 19.8296 202.744 19.5859C203.307 19.3422 203.811 18.9808 204.223 18.5259C205.107 17.5857 205.549 16.3861 205.551 14.9273C205.552 13.4685 205.118 12.2819 204.247 11.3676C203.828 10.9192 203.317 10.5656 202.75 10.3303C202.183 10.095 201.572 9.98354 200.959 10.0033Z" fill="#1F304C"/>
<path d="M215.094 6.51618V8.37726C215.803 7.64996 216.646 7.06514 217.575 6.65432C218.477 6.27006 219.449 6.07461 220.43 6.08001C221.49 6.06787 222.541 6.28479 223.51 6.71597C224.479 7.14715 225.343 7.78242 226.044 8.57838C227.586 10.244 228.356 12.3797 228.356 14.9855C228.356 17.4992 227.56 19.5994 225.967 21.286C224.374 22.9726 222.487 23.8159 220.306 23.8159C219.376 23.8243 218.453 23.648 217.592 23.2973C216.662 22.8899 215.815 22.3149 215.094 21.601V29.559H210.894V6.5089L215.094 6.51618ZM219.545 10.0033C218.927 9.98584 218.312 10.0983 217.741 10.3333C217.169 10.5683 216.652 10.9206 216.225 11.3676C215.348 12.2771 214.909 13.4661 214.907 14.9346C214.907 16.4354 215.346 17.647 216.225 18.5695C216.649 19.0224 217.164 19.3804 217.736 19.6197C218.309 19.859 218.925 19.9743 219.545 19.958C220.159 19.9692 220.767 19.849 221.33 19.6053C221.893 19.3616 222.398 19.0001 222.809 18.5453C223.693 17.605 224.136 16.4055 224.137 14.9467C224.139 13.4879 223.704 12.3013 222.834 11.3869C222.416 10.9351 221.906 10.5778 221.339 10.3392C220.772 10.1005 220.16 9.986 219.545 10.0033V10.0033Z" fill="#1F304C"/>
<path d="M246.228 16.1776H232.624C232.774 17.295 233.336 18.3162 234.199 19.0419C235.052 19.7495 236.14 20.1033 237.463 20.1033C238.219 20.1142 238.971 19.9729 239.672 19.6878C240.373 19.4026 241.009 18.9794 241.544 18.4434L245.111 20.1178C244.302 21.3101 243.2 22.2747 241.912 22.9192C240.527 23.5537 239.015 23.8636 237.492 23.8254C234.846 23.8254 232.69 22.9902 231.024 21.3198C229.359 19.6493 228.526 17.5581 228.526 15.046C228.526 12.4725 229.356 10.3343 231.017 8.63157C232.678 6.92882 234.758 6.07828 237.259 6.0799C239.917 6.0799 242.078 6.93044 243.744 8.63157C245.409 10.3327 246.241 12.5799 246.24 15.3731L246.228 16.1776ZM241.994 12.8432C241.721 11.9118 241.137 11.102 240.339 10.5484C239.502 9.95532 238.498 9.64539 237.472 9.66388C236.355 9.64363 235.262 9.99287 234.363 10.6574C233.804 11.0694 233.287 11.7963 232.81 12.8384L241.994 12.8432Z" fill="#1F304C"/>
<path d="M246.375 6.51632H250.01V8.64152C250.346 7.87304 250.888 7.21226 251.576 6.73199C252.208 6.30392 252.954 6.07673 253.718 6.08015C254.317 6.0928 254.906 6.24196 255.438 6.51632L254.12 10.1512C253.744 9.93672 253.325 9.80918 252.894 9.77802C252.245 9.77802 251.682 10.1827 251.244 10.9897C250.805 11.7966 250.568 13.3766 250.568 15.7344L250.585 16.5583V23.3822H246.38L246.375 6.51632Z" fill="#1F304C"/>
<path d="M258.313 17.6414C258.662 17.5906 259.014 17.5663 259.367 17.5687C259.888 17.5687 260.251 17.6463 260.501 17.8426C260.607 17.9305 260.692 18.042 260.748 18.1681C260.804 18.2943 260.83 18.4317 260.823 18.5695C260.821 18.7592 260.76 18.9434 260.649 19.0976C260.539 19.2518 260.384 19.3685 260.205 19.4322V19.4492C260.33 19.5132 260.437 19.606 260.518 19.7198C260.6 19.8335 260.653 19.9651 260.673 20.1035C260.782 20.4985 260.891 20.9565 260.959 21.0922H260.147C260.041 20.8281 259.96 20.5547 259.905 20.2755C259.813 19.8369 259.663 19.7182 259.338 19.7133H259.096V21.0922H258.31L258.313 17.6414ZM259.098 19.1487H259.408C259.806 19.1487 260.038 18.95 260.038 18.6447C260.038 18.3393 259.82 18.16 259.457 18.16C259.337 18.1568 259.216 18.1657 259.098 18.1867V19.1487Z" fill="#1F304C"/>
<path d="M259.636 23.3892C258.833 23.3897 258.049 23.1522 257.381 22.7068C256.714 22.2613 256.194 21.6279 255.886 20.8868C255.579 20.1456 255.498 19.3298 255.654 18.5428C255.811 17.7557 256.197 17.0327 256.764 16.4652C257.331 15.8976 258.054 15.511 258.841 15.3543C259.628 15.1976 260.444 15.2778 261.185 15.5847C261.926 15.8917 262.56 16.4116 263.006 17.0788C263.452 17.7459 263.69 18.5303 263.69 19.3327C263.688 20.4077 263.261 21.4384 262.501 22.1988C261.741 22.9592 260.711 23.3873 259.636 23.3892V23.3892ZM259.636 16.0976C258.996 16.0976 258.37 16.2874 257.838 16.6428C257.306 16.9983 256.892 17.5036 256.647 18.0947C256.402 18.6858 256.338 19.3363 256.463 19.9638C256.588 20.5914 256.896 21.1678 257.348 21.6202C257.801 22.0726 258.377 22.3808 259.004 22.5056C259.632 22.6304 260.282 22.5663 260.874 22.3215C261.465 22.0766 261.97 21.662 262.325 21.13C262.681 20.598 262.871 19.9725 262.871 19.3327C262.869 18.4751 262.528 17.653 261.922 17.0466C261.315 16.4402 260.493 16.0989 259.636 16.0976V16.0976Z" fill="#1F304C"/>
</g>
<defs>
<clipPath id="clip0">
<rect width="263.69" height="30" fill="white"/>
</clipPath>
</defs>
</svg>
