<svg width="155" height="30" viewBox="0 0 155 30" fill="none" xmlns="http://www.w3.org/2000/svg">
<g clip-path="url(#clip0)">
<path d="M142.189 0C150.455 0 154.225 5.89223 154.225 9.9492V29.0592H148.388V26.0203C148.388 26.0203 144.333 29.9956 138.975 29.9956C134.384 29.9956 128.949 27.6237 128.949 20.8878C128.949 13.379 137.215 11.7822 140.654 11.7822C144.092 11.7822 148.383 13.083 148.383 13.083V11.1683C148.383 9.25574 145.629 6.11749 141.113 6.11749C138.351 6.13766 135.631 6.79279 133.163 8.03224L131.327 2.97924C131.327 2.97924 135.225 0 142.189 0ZM142.114 15.9938C137.292 15.9938 135.225 17.8688 135.225 20.5102C135.225 21.8883 135.685 25.1016 140.888 25.1016C146.091 25.1016 148.313 21.2765 148.313 19.6687V17.2195C148.313 17.2195 145.939 15.9938 142.114 15.9938V15.9938Z" fill="#1F304C"/>
<path d="M109.134 0.68028V29.0593H115.462V9.6688C115.462 7.32118 119.34 5.58752 121.583 5.58752C123.827 5.58752 125.769 7.32118 125.769 7.32118L128.523 2.21959C126.516 0.809044 124.129 0.0391105 121.676 0.0111084C117.701 0.0111084 113.821 3.25095 113.821 3.25095L109.134 0.68028Z" fill="#1F304C"/>
<path d="M0 0.681012V29.06H6.3273V9.66953C6.3273 7.32191 10.2032 5.58825 12.4492 5.58825C14.6952 5.58825 16.6321 7.32191 16.6321 7.32191L19.3883 2.22032C17.3815 0.809776 14.9947 0.0398429 12.542 0.0118408C8.5667 0.0118408 4.68419 3.25168 4.68419 3.25168L0 0.681012Z" fill="#1F304C"/>
<path d="M104.894 14.9999C104.894 23.3414 98.1317 29.7968 89.7902 29.7968C81.4488 29.7968 74.682 23.3414 74.682 14.9999C74.682 6.65851 81.4444 0.203125 89.7836 0.203125C98.1228 0.203125 104.894 6.65851 104.894 14.9999ZM89.7902 5.82371C84.618 5.82371 81.0358 9.82768 81.0358 14.9999C81.0358 20.1722 84.618 24.1762 89.7902 24.1762C94.9625 24.1762 98.5469 20.1722 98.5469 14.9999C98.5469 9.82768 94.9647 5.82371 89.7902 5.82371Z" fill="#1F304C"/>
<path d="M24.5893 17.1223C24.5893 20.6051 28.4652 24.4898 33.0169 24.4898C37.5685 24.4898 40.6715 21.0844 40.6715 21.0844L44.6291 24.6466C43.1904 26.279 41.4182 27.5836 39.432 28.4721C37.4458 29.3606 35.292 29.8123 33.1162 29.7968C24.777 29.7968 18.0146 23.3414 18.0146 15C18.0146 6.65856 24.1631 0.0507812 32.5001 0.0507812C41.2015 0.0507812 45.773 7.65237 45.773 15.2672C45.7736 15.8858 45.736 16.5039 45.6604 17.1179L24.5893 17.1223ZM32.0805 5.48364C25.7664 5.48364 24.6578 12.0848 24.6578 13.0035H39.141C39.141 12.0274 38.3945 5.48364 32.0805 5.48364V5.48364Z" fill="#1F304C"/>
<path d="M50.0662 0.662476H72.9482L71.9544 6.7093L56.4951 24.1762H72.9482L71.7998 29.0591L48.3811 28.9796L48.9178 24.1762L64.6068 6.40232H48.7654L50.0662 0.662476Z" fill="#1F304C"/>
</g>
<defs>
<clipPath id="clip0">
<rect width="154.225" height="30" fill="white"/>
</clipPath>
</defs>
</svg>
