<svg width="189" height="42" viewBox="0 0 189 42" fill="none" xmlns="http://www.w3.org/2000/svg">
<g clip-path="url(#clip0)">
<path fill-rule="evenodd" clip-rule="evenodd" d="M149.15 1.02405L148.648 1.52702V40.8759L149.15 41.3789H187.842L188.346 40.8759V1.52702L187.842 1.02405H149.15ZM149.653 40.374H187.339V2.03H149.653V40.374Z" fill="#1F304C"/>
<path fill-rule="evenodd" clip-rule="evenodd" d="M92.7419 1.02405L92.2389 1.52702V40.8759L92.7419 41.3789H149.151L149.654 40.8759V1.52702L149.151 1.02405H92.7419ZM93.2448 40.374H148.647V2.03H93.2448V40.374Z" fill="#1F304C"/>
<path fill-rule="evenodd" clip-rule="evenodd" d="M179.608 27.304C179.044 27.5047 177.985 28.524 177.515 28.9399L177.381 28.9532C177.556 28.7658 178.279 27.8674 178.468 27.559C179.044 26.6197 177.959 25.7479 176.765 26.4189C176.308 26.674 175.557 27.4515 175.183 27.7332L175.062 27.7598C175.222 27.599 175.892 26.7272 176.081 26.4455C176.603 25.6947 175.517 24.9704 174.578 25.5328C173.908 25.9221 173.371 26.4588 172.808 26.8881L172.715 26.9147C172.861 26.7672 173.237 26.338 173.385 26.1905C173.935 25.5738 173.143 24.8762 172.312 25.3054C171.507 25.708 170.354 26.8481 169.08 27.6389C169.67 27.9473 170.703 28.0016 172.338 28.6848C173.988 29.3691 174.51 30.9785 173.439 32.2395C172.446 33.4196 170.944 33.017 169.643 32.6154C168.141 32.1452 167.604 31.6761 165.781 31.0594C164.601 30.6568 164.104 30.6568 164.131 30.3218C164.144 29.9459 165.176 30.1743 166.129 30.5093C168.797 31.462 172.325 33.607 173.196 31.2868C173.88 29.4634 170.809 28.6582 169.643 28.4441C168.007 28.1358 166.88 26.9557 165.471 26.2038C163.325 25.0636 161.69 25.037 160.469 25.2521C159.155 25.4795 157.277 26.5387 156.151 27.2097C155.36 27.6666 155.427 28.3632 156.191 29.4367C158.927 33.2454 163.419 35.7398 168.517 35.7398C173.92 35.7398 178.655 32.9227 181.31 28.7258C181.888 27.8141 180.962 26.8205 179.608 27.304ZM169.092 26.0696C169.401 26.0696 169.656 25.8155 169.656 25.5072V22.0325C169.67 21.5909 169.991 21.0275 170.3 20.6915L173.625 17.4196C173.854 17.2055 173.854 16.8296 173.625 16.6288L173.022 16.0377C172.808 15.8103 172.432 15.8103 172.218 16.0377L169.214 19.0023C169.013 19.1898 168.865 19.3107 168.502 19.3107C168.128 19.3107 167.979 19.1898 167.793 19.0023L164.788 16.0244C164.561 15.797 164.198 15.797 163.983 16.0244L163.367 16.6145C163.139 16.8296 163.139 17.1912 163.367 17.4063L166.706 20.6782C167.028 21.0009 167.337 21.5776 167.349 22.0202V25.4928C167.349 25.8022 167.604 26.0563 167.927 26.0563H169.092V26.0696ZM168.502 17.7679C169.388 17.7679 170.112 17.058 170.112 16.1852C170.112 15.3002 169.375 14.6036 168.502 14.6036C167.604 14.6036 166.893 15.3135 166.893 16.1852C166.893 17.058 167.604 17.7679 168.502 17.7679ZM154.783 26.4722C155.01 26.3646 156.365 25.7479 156.607 25.6404C156.848 25.5328 156.741 25.3597 156.714 25.2521C156.205 23.9102 155.936 22.476 155.936 20.9732C155.936 14.1467 161.569 8.60885 168.517 8.60885C175.437 8.60885 181.082 14.1467 181.082 20.9732C181.082 22.7034 180.72 24.3394 180.077 25.8288C180.037 25.9221 179.983 26.0972 180.225 26.2038C180.44 26.298 181.766 26.8747 181.955 26.9413C182.129 27.0223 182.276 27.0089 182.397 26.7539C183.161 24.9704 183.591 23.0128 183.591 20.9732C183.591 12.8058 176.845 6.16772 168.542 6.16772C160.227 6.16772 153.482 12.8191 153.482 20.9732C153.482 22.8509 153.844 24.6487 154.489 26.298C154.489 26.3923 154.555 26.5664 154.783 26.4722ZM157.907 25.0636C158.096 24.9704 158.739 24.6887 158.914 24.5945C159.088 24.5279 159.048 24.3804 159.021 24.3138C158.646 23.2668 158.431 22.1544 158.431 20.9866C158.431 15.5286 162.95 11.0889 168.502 11.0889C174.041 11.0889 178.562 15.5153 178.562 20.9866C178.562 22.3818 178.266 23.7094 177.73 24.9161C177.704 24.9837 177.649 25.1312 177.824 25.1978C177.971 25.2654 178.695 25.5871 178.829 25.6404C178.978 25.6947 179.058 25.668 179.138 25.5072C179.755 24.1253 180.09 22.5959 180.09 20.9866C180.09 14.6968 174.9 9.58714 168.502 9.58714C162.105 9.58714 156.902 14.6968 156.902 20.9866C156.902 22.3685 157.156 23.6961 157.627 24.9305C157.652 24.997 157.706 25.1446 157.907 25.0636ZM160.214 24.0044C160.04 24.0853 159.973 23.9911 159.933 23.8436C159.624 22.9319 159.45 21.9659 159.45 20.9599C159.45 16.0521 163.514 12.0549 168.517 12.0549C173.506 12.0549 177.569 16.0377 177.569 20.9599C177.569 22.2076 177.301 23.401 176.832 24.4869C176.751 24.6354 176.671 24.6621 176.522 24.6078C176.388 24.5545 175.919 24.3394 175.786 24.2861C175.678 24.2328 175.678 24.0986 175.718 24.031C176.133 23.0927 176.362 22.0468 176.362 20.9599C176.362 16.6954 172.835 13.235 168.517 13.235C164.184 13.235 160.657 16.6954 160.657 20.9599C160.657 21.7917 160.778 22.5959 161.033 23.3478C161.086 23.5086 161.112 23.5895 160.926 23.6827C160.751 23.7627 160.376 23.9245 160.214 24.0044Z" fill="#1F304C"/>
<path fill-rule="evenodd" clip-rule="evenodd" d="M136.449 37.4832C136.449 37.9125 137.992 38.3683 138.811 38.3683C139.615 38.3683 140.754 38.0733 141.332 36.6648C141.948 35.1763 144.496 26.6063 144.496 26.6063H144.778C145.355 26.5131 145.556 26.1771 145.556 25.3186C145.556 25.0103 145.516 24.9836 145.261 24.9836H143.17C142.967 24.9836 142.954 25.0236 142.887 25.2254L141.143 31.8368L139.346 25.2254C139.292 25.0236 139.266 24.997 139.065 24.9836H136.959C136.705 24.9836 136.664 25.0103 136.664 25.3186C136.664 26.1771 136.879 26.5131 137.454 26.6063H137.75C137.75 26.6063 139.426 32.3603 140.299 34.7604L140.165 35.2296C139.883 36.129 139.4 36.5439 138.622 36.5439C138.434 36.5439 137.402 36.3964 137.402 36.3964C136.824 36.3564 136.664 36.5849 136.597 36.799C136.516 37.094 136.449 37.429 136.449 37.4832Z" fill="#1F304C"/>
<path fill-rule="evenodd" clip-rule="evenodd" d="M129.315 21.7648H126.819C126.605 21.7648 126.592 21.7914 126.564 22.0065L125.157 30.5622L123.468 22.0465C123.427 21.818 123.387 21.7648 123.118 21.7648H121.979C121.563 21.7648 121.536 21.8314 121.496 22.0598L119.725 30.5622L118.398 22.0065C118.358 21.7914 118.358 21.7648 118.143 21.7648H115.582C115.313 21.7648 115.272 21.7914 115.272 22.1131C115.272 23.0524 115.514 23.4007 116.185 23.4816L116.44 23.495L118.385 34.0226C118.452 34.2644 118.478 34.3176 118.706 34.3176H120.396C120.665 34.3176 120.677 34.3043 120.717 34.0226L122.408 25.8418L123.816 34.0359C123.87 34.3043 123.87 34.3176 124.151 34.3176H125.868C126.095 34.3176 126.135 34.2644 126.189 34.0226L128.402 23.4816L128.644 23.4683C129.328 23.3874 129.555 23.0524 129.555 22.0997C129.57 21.8057 129.529 21.7781 129.315 21.7648Z" fill="#1F304C"/>
<path fill-rule="evenodd" clip-rule="evenodd" d="M135.819 32.655C135.713 32.2923 135.618 31.8231 135.618 30.978V27.6662C135.618 25.5733 134.692 24.6483 132.6 24.6483C131.139 24.6483 129.596 25.265 129.596 25.6543C129.596 25.7075 129.663 26.0026 129.757 26.2843C129.797 26.4051 129.891 26.6869 130.508 26.6469C130.763 26.6336 131.835 26.4318 132.279 26.4318C133.458 26.4318 133.579 27.1161 133.579 27.9069V28.5646C132.104 28.5646 128.913 28.5779 128.913 31.7299C128.913 33.5134 129.918 34.6136 131.54 34.6136C132.775 34.6136 133.378 33.9559 133.753 33.5533L133.902 33.4058L133.941 33.6476C134.021 34.0369 134.089 34.3042 134.384 34.3042H136.529C136.799 34.3042 136.824 34.2776 136.824 33.9826C136.838 33.0442 136.61 32.7082 135.819 32.655ZM133.592 32.2124C133.365 32.4675 132.868 32.9766 132.185 32.9766C131.487 32.9766 130.937 32.3866 130.937 31.609C130.937 29.8789 133.016 29.9864 133.579 30.0264V32.2124H133.592Z" fill="#1F304C"/>
<path fill-rule="evenodd" clip-rule="evenodd" d="M120.705 17.138H120.476V9.66811C120.476 9.47963 120.464 9.46631 120.289 9.46631H117.284C117.016 9.46631 116.989 9.49294 116.989 9.78797C116.989 10.8072 117.257 11.1166 118.157 11.1166H118.371V17.138H118.143C117.244 17.138 116.976 17.4463 116.976 18.4656C116.976 18.7739 117.016 18.7872 117.271 18.7872H121.576C121.831 18.7872 121.871 18.7606 121.871 18.4656C121.885 17.4596 121.59 17.138 120.705 17.138Z" fill="#1F304C"/>
<path fill-rule="evenodd" clip-rule="evenodd" d="M119.403 5.91223C118.68 5.91223 118.13 6.50228 118.13 7.25418C118.13 7.99072 118.705 8.60843 119.403 8.60843C120.102 8.60843 120.651 7.99072 120.651 7.25418C120.651 6.5156 120.102 5.91223 119.403 5.91223Z" fill="#1F304C"/>
<path fill-rule="evenodd" clip-rule="evenodd" d="M105.188 8.27265H105.241C106.153 8.27265 106.448 7.93768 106.448 6.90509C106.448 6.59675 106.408 6.56909 106.14 6.56909H101.996C101.754 6.56909 101.727 6.61007 101.701 6.74426L101.687 6.90509C101.687 7.93768 101.968 8.27265 102.866 8.27265H102.921V14.4016C102.921 15.5817 102.921 17.1777 101.003 17.1777C99.2328 17.1777 99.0853 15.9177 99.0853 14.4016V8.27265H99.1519C100.038 8.27265 100.333 7.93768 100.333 6.90509L100.319 6.7166C100.292 6.61007 100.252 6.56909 100.024 6.56909H95.9066C95.6382 6.56909 95.5983 6.59675 95.5983 6.90509C95.5983 7.95099 95.8656 8.27265 96.805 8.27265H96.8583V14.4016C96.8583 17.7011 98.106 19.1097 101.016 19.1097C103.928 19.1097 105.188 17.7011 105.188 14.4016V8.27265Z" fill="#1F304C"/>
<path fill-rule="evenodd" clip-rule="evenodd" d="M114.776 17.138V12.0949C114.776 10.0431 114.093 9.13135 112.563 9.13135C111.196 9.13135 110.444 9.90886 109.854 10.5122C109.802 10.2981 109.761 10.124 109.761 10.124C109.667 9.70808 109.587 9.45301 109.318 9.45301H106.985C106.73 9.45301 106.689 9.47964 106.689 9.77569C106.689 10.7407 106.931 11.0756 107.762 11.1023C107.883 11.5049 107.95 11.8409 107.95 12.7925V17.1247C107.078 17.1247 106.811 17.4463 106.811 18.4523C106.811 18.7606 106.85 18.7739 107.106 18.7739H109.868C110.042 18.7739 110.042 18.7473 110.042 18.5732V11.8132C110.298 11.5592 110.873 10.9947 111.611 10.9947C112.658 10.9947 112.658 12.1758 112.658 12.6716V18.5732C112.658 18.7473 112.67 18.7739 112.845 18.7739H115.595C115.85 18.7739 115.89 18.7473 115.89 18.4523C115.903 17.473 115.621 17.138 114.776 17.138Z" fill="#1F304C"/>
<path fill-rule="evenodd" clip-rule="evenodd" d="M125.881 19.1227C127.102 19.1227 128.107 18.8144 128.107 18.546C128.107 18.506 128.04 18.1434 127.988 17.9692C127.812 17.2716 127.745 17.0043 126.445 17.1641C126.284 17.1784 126.136 17.1518 126.029 17.0442C125.775 16.7891 125.775 16.239 125.775 15.7965V11.1028H126.941C127.839 11.1028 128.107 10.7944 128.107 9.77514C128.107 9.4668 128.068 9.45348 127.812 9.45348H125.775V6.83821C125.775 6.58314 125.747 6.56982 125.653 6.56982C125.56 6.56982 125.131 6.62309 124.916 6.64973C124.312 6.74397 123.669 7.21314 123.669 8.26007V9.43914H122.461C122.206 9.43914 122.166 9.4668 122.166 9.76182C122.166 10.7801 122.448 11.0894 123.334 11.0894H123.669V15.4615C123.669 17.2716 123.669 19.1227 125.881 19.1227Z" fill="#1F304C"/>
<path fill-rule="evenodd" clip-rule="evenodd" d="M136.087 14.2944C136.087 10.875 134.921 9.13049 132.641 9.13049C130.374 9.13049 128.871 11.1701 128.871 14.2145C128.871 18.264 130.978 19.1091 132.734 19.1091C134.155 19.1091 135.806 18.4524 135.806 18.0365C135.806 17.9689 135.738 17.6606 135.645 17.3789C135.578 17.1781 135.457 16.963 134.854 16.9906C134.384 17.0173 133.646 17.2181 132.962 17.2181C131.649 17.2181 130.978 16.4139 130.964 14.697H135.738C136.033 14.7103 136.087 14.6438 136.087 14.2944ZM131.044 13.0611L131.059 12.9002C131.125 12.2559 131.259 10.7808 132.6 10.7808C133.915 10.7808 133.929 12.2959 133.929 13.0611H131.044Z" fill="#1F304C"/>
<path fill-rule="evenodd" clip-rule="evenodd" d="M144.576 17.1379C144.457 16.7753 144.389 16.3871 144.389 15.4743V6.16775C144.389 5.99258 144.376 5.96594 144.202 5.96594H141.439C141.183 5.96594 141.13 5.99258 141.13 6.2876C141.13 7.26692 141.398 7.60189 142.23 7.61624H142.284V9.76131L142.109 9.64043C141.787 9.42633 141.358 9.13131 140.433 9.13131C138.273 9.13131 137.12 10.9947 137.12 14.5094C137.12 17.4729 138.166 19.1222 140.071 19.1222C141.572 19.1222 142.565 18.0363 142.565 18.0363L142.685 18.4389C142.78 18.7606 142.793 18.7872 143.048 18.7872H145.489C145.744 18.7872 145.784 18.7606 145.784 18.4656C145.784 17.4596 145.516 17.1379 144.576 17.1379ZM140.768 17.3254C139.493 17.3254 139.239 16.1719 139.239 14.1734C139.239 12.0549 139.508 10.9148 140.875 10.9148C141.425 10.9148 141.827 11.0223 142.27 11.3174V16.6145C142.016 16.9372 141.626 17.3254 140.768 17.3254Z" fill="#1F304C"/>
<path fill-rule="evenodd" clip-rule="evenodd" d="M182.183 37.3088C182.183 36.6788 182.706 36.1963 183.322 36.1963C183.953 36.1963 184.475 36.6788 184.475 37.3088C184.475 37.9521 183.953 38.4356 183.322 38.4356C182.706 38.4356 182.183 37.9521 182.183 37.3088ZM184.248 37.3088C184.248 36.7853 183.845 36.3838 183.322 36.3838C182.8 36.3838 182.397 36.7853 182.397 37.3088C182.397 37.8589 182.813 38.2615 183.322 38.2615C183.845 38.2481 184.248 37.8456 184.248 37.3088ZM183.095 37.9798H182.893V36.6655H183.39C183.698 36.6655 183.86 36.7853 183.86 37.0404C183.86 37.2688 183.698 37.3754 183.537 37.3897L183.9 37.9798H183.657L183.31 37.403H183.108L183.095 37.9798ZM183.095 37.2422H183.31C183.55 37.2422 183.657 37.2145 183.657 37.0271C183.657 36.8929 183.577 36.8396 183.362 36.8396H183.095V37.2422Z" fill="#1F304C"/>
<path fill-rule="evenodd" clip-rule="evenodd" d="M7.29826 8.50977V14.5117C7.29826 15.5094 6.98582 16.2982 6.36197 16.878C5.73914 17.4578 4.88684 17.7487 3.80611 17.7487C2.74177 17.7487 1.89665 17.466 1.27075 16.9036C0.644843 16.3402 0.325233 15.5658 0.313965 14.5813V8.50977H2.19065V14.525C2.19065 15.1212 2.33304 15.5565 2.61987 15.8301C2.90567 16.1025 3.30109 16.2398 3.80611 16.2398C4.86123 16.2398 5.39801 15.6846 5.41338 14.5752V8.50977H7.29826Z" fill="#1F304C"/>
<path fill-rule="evenodd" clip-rule="evenodd" d="M9.87124 10.8506L9.92758 11.6332C10.4111 11.0278 11.0595 10.7256 11.8739 10.7256C12.591 10.7256 13.1257 10.9356 13.4771 11.3576C13.8264 11.7797 14.0057 12.4087 14.0149 13.2476V17.6228H12.2048V13.2917C12.2048 12.9075 12.1218 12.6289 11.9548 12.4558C11.7879 12.2827 11.5113 12.1966 11.123 12.1966C10.6139 12.1966 10.2328 12.4138 9.97777 12.8471V17.6228H8.1687V10.8506H9.87124Z" fill="#1F304C"/>
<mask id="mask0" mask-type="alpha" maskUnits="userSpaceOnUse" x="0" y="1" width="189" height="41">
<path d="M0 41.3788H188.345V1.02393H0V41.3788Z" fill="white"/>
</mask>
<g mask="url(#mask0)">
<path fill-rule="evenodd" clip-rule="evenodd" d="M15.4539 17.6232H17.2681V10.8509H15.4539V17.6232ZM15.3474 9.09821C15.3474 8.82777 15.4376 8.60343 15.6199 8.42826C15.8002 8.25411 16.0471 8.16602 16.3605 8.16602C16.6699 8.16602 16.9158 8.25411 17.0991 8.42826C17.2835 8.60343 17.3747 8.82777 17.3747 9.09821C17.3747 9.37377 17.2825 9.59914 17.096 9.77431C16.9106 9.94948 16.6658 10.0366 16.3605 10.0366C16.0563 10.0366 15.8115 9.94948 15.625 9.77431C15.4396 9.59914 15.3474 9.37377 15.3474 9.09821Z" fill="#1F304C"/>
<path fill-rule="evenodd" clip-rule="evenodd" d="M20.8984 9.18591V10.8505H22.0559V12.1771H20.8984V15.5576C20.8984 15.8076 20.9455 15.9868 21.0428 16.0954C21.1371 16.204 21.3215 16.2583 21.5929 16.2583C21.7927 16.2583 21.9709 16.244 22.1246 16.2143V17.5849C21.7701 17.6935 21.4044 17.7478 21.0295 17.7478C19.7613 17.7478 19.1139 17.1075 19.0893 15.826V12.1771H18.1008V10.8505H19.0893V9.18591H20.8984Z" fill="#1F304C"/>
<path fill-rule="evenodd" clip-rule="evenodd" d="M25.9483 12.1842C25.5887 12.1842 25.2988 12.3061 25.0745 12.5479C24.8522 12.7917 24.7088 13.14 24.6463 13.5927H27.1632V13.4473C27.155 13.0447 27.0454 12.7343 26.8375 12.514C26.6285 12.2938 26.3324 12.1842 25.9483 12.1842ZM26.1552 17.7487C25.1616 17.7487 24.3533 17.4434 23.7295 16.8339C23.1066 16.2254 22.7942 15.4131 22.7942 14.4V14.2248C22.7942 13.5446 22.9253 12.9361 23.1886 12.3993C23.4508 11.8636 23.8237 11.4507 24.3052 11.1608C24.7877 10.8709 25.3367 10.7255 25.9544 10.7255C26.8805 10.7255 27.6098 11.0174 28.1425 11.6023C28.6742 12.1862 28.9405 13.014 28.9405 14.0865V14.8251H24.6278C24.6862 15.2676 24.8624 15.622 25.1575 15.8894C25.4515 16.1568 25.8233 16.29 26.273 16.29C26.9706 16.29 27.5146 16.038 27.9069 15.5329L28.7961 16.5276C28.5257 16.9118 28.1579 17.2109 27.6949 17.426C27.2318 17.6401 26.7186 17.7487 26.1552 17.7487Z" fill="#1F304C"/>
<path fill-rule="evenodd" clip-rule="evenodd" d="M31.4684 14.3214C31.4684 14.9566 31.578 15.4432 31.7993 15.7822C32.0206 16.1203 32.3422 16.2893 32.7643 16.2893C33.3236 16.2893 33.717 16.0537 33.9464 15.5814V12.9047C33.7211 12.4325 33.3308 12.1969 32.7755 12.1969C31.9038 12.1969 31.4684 12.9047 31.4684 14.3214ZM29.6583 14.1862C29.6583 13.1311 29.896 12.2901 30.3703 11.6642C30.8435 11.0383 31.491 10.7258 32.3125 10.7258C32.9722 10.7258 33.5172 10.9717 33.9464 11.4634V8.00916H35.7616V17.6231H34.1288L34.0407 16.9039C33.5889 17.4663 33.0101 17.748 32.3002 17.748C31.5033 17.748 30.864 17.4346 30.3815 16.8056C29.9001 16.1776 29.6583 15.3049 29.6583 14.1862Z" fill="#1F304C"/>
<path fill-rule="evenodd" clip-rule="evenodd" d="M47.5205 14.9943L48.7477 8.50989H50.6183L48.5971 17.6229H46.7071L45.2238 11.5267L43.7405 17.6229H41.8505L39.8284 8.50989H41.6999L42.9323 14.982L44.4351 8.50989H46.0249L47.5205 14.9943Z" fill="#1F304C"/>
<path fill-rule="evenodd" clip-rule="evenodd" d="M53.4158 16.3652C53.6831 16.3652 53.929 16.3058 54.1544 16.187C54.3787 16.0671 54.5467 15.9083 54.6553 15.7076V14.5439H53.9792C53.0736 14.5439 52.5911 14.8563 52.5338 15.4822L52.5266 15.5887C52.5266 15.8141 52.6055 15.9995 52.7643 16.146C52.9241 16.2915 53.1402 16.3652 53.4158 16.3652ZM54.9114 17.6232C54.8284 17.4603 54.7669 17.2575 54.7301 17.0157C54.2916 17.5033 53.7221 17.7481 53.0214 17.7481C52.3586 17.7481 51.8085 17.5566 51.3721 17.1724C50.9357 16.7883 50.7175 16.3038 50.7175 15.7199C50.7175 15.0028 50.9839 14.4517 51.5166 14.0675C52.0482 13.6834 52.8165 13.4898 53.8214 13.4857H54.6553V13.0974C54.6553 12.785 54.5744 12.535 54.4146 12.3465C54.2527 12.1591 53.9997 12.0648 53.6534 12.0648C53.3492 12.0648 53.1095 12.1386 52.9364 12.2841C52.7632 12.4305 52.6772 12.6303 52.6772 12.8854H50.8681C50.8681 12.493 50.989 12.1294 51.2308 11.7954C51.4735 11.4615 51.8157 11.2002 52.2572 11.0097C52.7008 10.8202 53.1966 10.726 53.7467 10.726C54.5815 10.726 55.2443 10.9349 55.735 11.3549C56.2247 11.7739 56.4695 12.3629 56.4695 13.122V16.0579C56.4736 16.7012 56.5637 17.1868 56.7389 17.5166V17.6232H54.9114Z" fill="#1F304C"/>
<path fill-rule="evenodd" clip-rule="evenodd" d="M60.3625 15.0626L61.6143 10.8503H63.5545L60.8317 18.6736L60.6821 19.0311C60.2764 19.9152 59.6096 20.3577 58.6784 20.3577C58.4162 20.3577 58.1488 20.3178 57.8773 20.2389V18.8682L58.1529 18.8744C58.495 18.8744 58.7511 18.8221 58.9202 18.7177C59.0892 18.6142 59.2213 18.44 59.3166 18.1993L59.5307 17.6421L57.1582 10.8503H59.1045L60.3625 15.0626Z" fill="#1F304C"/>
<path fill-rule="evenodd" clip-rule="evenodd" d="M1.8092 30.3115C1.8092 30.9549 1.93007 31.4476 2.17183 31.7877C2.41359 32.1278 2.76085 32.2978 3.21056 32.2978C3.649 32.2978 3.99115 32.1298 4.237 31.7938C4.48285 31.4578 4.60578 30.92 4.60578 30.1804C4.60578 29.5484 4.48285 29.0597 4.237 28.7125C3.99115 28.3662 3.6449 28.1931 3.19827 28.1931C2.75676 28.1931 2.41359 28.3652 2.17183 28.7094C1.93007 29.0546 1.8092 29.5883 1.8092 30.3115ZM0.00012207 30.1835C0.00012207 29.5115 0.129195 28.9122 0.387342 28.3867C0.646512 27.8612 1.01939 27.4545 1.50495 27.1667C1.99154 26.8778 2.55598 26.7344 3.19827 26.7344C4.11202 26.7344 4.8588 27.014 5.43554 27.5734C6.01329 28.1327 6.33598 28.8917 6.40256 29.8516L6.41588 30.3146C6.41588 31.3534 6.12598 32.1872 5.54515 32.8152C4.96534 33.4431 4.1868 33.7566 3.21056 33.7566C2.23432 33.7566 1.45476 33.4441 0.872903 32.8182C0.292073 32.1923 0.00012207 31.3411 0.00012207 30.2644V30.1835Z" fill="#1F304C"/>
<path fill-rule="evenodd" clip-rule="evenodd" d="M7.89546 33.6319V28.1872H6.88849V26.8596H7.89546V26.2839C7.89546 25.5238 8.11366 24.9348 8.55005 24.5158C8.98542 24.0958 9.59595 23.8868 10.3806 23.8868C10.6306 23.8868 10.9379 23.9288 11.3005 24.0118L11.2821 25.4142C11.1315 25.3763 10.9471 25.3579 10.731 25.3579C10.0508 25.3579 9.71068 25.6765 9.71068 26.3146V26.8596H11.0567V28.1872H9.71068V33.6319H7.89546Z" fill="#1F304C"/>
<path fill-rule="evenodd" clip-rule="evenodd" d="M22.409 30.5961C22.3383 31.5765 21.9757 32.3488 21.3222 32.9123C20.6706 33.4757 19.8091 33.7564 18.7417 33.7564C17.5729 33.7564 16.654 33.364 15.9851 32.5773C15.3141 31.7906 14.9791 30.7108 14.9791 29.3382V28.7809C14.9791 27.905 15.1338 27.1327 15.4432 26.4658C15.7515 25.7979 16.193 25.2857 16.7667 24.9282C17.3403 24.5717 18.0062 24.3934 18.7663 24.3934C19.8183 24.3934 20.6645 24.6751 21.3078 25.2386C21.9501 25.802 22.3209 26.5928 22.4213 27.61H20.5436C20.4985 27.022 20.3346 26.5959 20.0519 26.3306C19.7712 26.0663 19.342 25.9331 18.7663 25.9331C18.1404 25.9331 17.6722 26.1574 17.3608 26.6061C17.0504 27.0548 16.8906 27.7504 16.8814 28.6938V29.3812C16.8814 30.3667 17.031 31.0868 17.3301 31.5406C17.6282 31.9965 18.0984 32.2228 18.7417 32.2228C19.3205 32.2228 19.7538 32.0907 20.0396 31.8264C20.3264 31.5611 20.4893 31.1513 20.5313 30.5961H22.409Z" fill="#1F304C"/>
<path fill-rule="evenodd" clip-rule="evenodd" d="M26.4076 28.1927C26.048 28.1927 25.7581 28.3146 25.5338 28.5574C25.3115 28.8002 25.1691 29.1485 25.1056 29.6013H27.6225V29.4568C27.6143 29.0543 27.5047 28.7428 27.2967 28.5226C27.0878 28.3023 26.7917 28.1927 26.4076 28.1927ZM26.6145 33.7572C25.6208 33.7572 24.8126 33.452 24.1887 32.8435C23.5659 32.234 23.2535 31.4216 23.2535 30.4085V30.2333C23.2535 29.5531 23.3846 28.9446 23.6479 28.4079C23.9101 27.8721 24.283 27.4593 24.7645 27.1694C25.2469 26.8795 25.796 26.734 26.4147 26.734C27.3398 26.734 28.0691 27.027 28.6018 27.6109C29.1335 28.1948 29.3998 29.0235 29.3998 30.095V30.8346H25.0871C25.1466 31.2762 25.3217 31.6306 25.6167 31.898C25.9107 32.1653 26.2826 32.2985 26.7333 32.2985C27.4299 32.2985 27.9739 32.0465 28.3672 31.5415L29.2554 32.5362C28.9849 32.9203 28.6172 33.2194 28.1542 33.4345C27.6911 33.6497 27.1779 33.7572 26.6145 33.7572Z" fill="#1F304C"/>
<path fill-rule="evenodd" clip-rule="evenodd" d="M32.0647 26.8598L32.122 27.6424C32.6056 27.037 33.254 26.7338 34.0674 26.7338C34.7855 26.7338 35.3202 26.9448 35.6705 27.3668C36.0198 27.7879 36.2001 28.4179 36.2083 29.2568V33.632H34.3993V29.3009C34.3993 28.9167 34.3163 28.6381 34.1493 28.465C33.9823 28.2919 33.7057 28.2048 33.3175 28.2048C32.8084 28.2048 32.4263 28.422 32.1712 28.8563V33.632H30.3632V26.8598H32.0647Z" fill="#1F304C"/>
<path fill-rule="evenodd" clip-rule="evenodd" d="M39.7196 25.1946V26.8592H40.8772V28.1868H39.7196V31.5663C39.7196 31.8162 39.7667 31.9965 39.863 32.1051C39.9583 32.2127 40.1427 32.267 40.4141 32.267C40.6139 32.267 40.7921 32.2526 40.9458 32.2229V33.5936C40.5914 33.7021 40.2257 33.7564 39.8507 33.7564C38.5825 33.7564 37.9351 33.1162 37.9105 31.8347V28.1868H36.922V26.8592H37.9105V25.1946H39.7196Z" fill="#1F304C"/>
<path fill-rule="evenodd" clip-rule="evenodd" d="M45.6649 28.5554C45.419 28.5226 45.2018 28.5062 45.0134 28.5062C44.3291 28.5062 43.8814 28.7377 43.6683 29.2007V33.6323H41.8593V26.86H43.5679L43.6181 27.6672C43.9808 27.0454 44.4837 26.734 45.1271 26.734C45.3268 26.734 45.5143 26.7617 45.6895 26.816L45.6649 28.5554Z" fill="#1F304C"/>
<path fill-rule="evenodd" clip-rule="evenodd" d="M48.749 32.3739C49.0163 32.3739 49.2622 32.3145 49.4886 32.1956C49.7129 32.0758 49.8799 31.917 49.9885 31.7162V30.5525H49.3134C48.4068 30.5525 47.9243 30.865 47.867 31.4919L47.8608 31.5974C47.8608 31.8228 47.9397 32.0092 48.0985 32.1547C48.2573 32.3001 48.4734 32.3739 48.749 32.3739ZM50.2456 33.6318C50.1616 33.469 50.1012 33.2672 50.0633 33.0244C49.6248 33.513 49.0563 33.7568 48.3546 33.7568C47.6918 33.7568 47.1417 33.5653 46.7063 33.1811C46.27 32.798 46.0518 32.3135 46.0518 31.7285C46.0518 31.0115 46.3171 30.4603 46.8498 30.0772C47.3814 29.6931 48.1507 29.4984 49.1557 29.4943H49.9885V29.1061C49.9885 28.7936 49.9086 28.5437 49.7478 28.3552C49.5859 28.1677 49.3329 28.0735 48.9866 28.0735C48.6824 28.0735 48.4437 28.1473 48.2706 28.2927C48.0975 28.4392 48.0104 28.639 48.0104 28.894H46.2023C46.2023 28.5017 46.3232 28.138 46.565 27.8051C46.8067 27.4701 47.1489 27.2089 47.5914 27.0194C48.034 26.8289 48.5298 26.7346 49.0809 26.7346C49.9158 26.7346 50.5775 26.9446 51.0682 27.3636C51.5579 27.7826 51.8037 28.3726 51.8037 29.1317V32.0666C51.8078 32.7099 51.8969 33.1955 52.0721 33.5253V33.6318H50.2456Z" fill="#1F304C"/>
<path fill-rule="evenodd" clip-rule="evenodd" d="M53.2621 33.6323H55.0763V24.0184H53.2621V33.6323Z" fill="#1F304C"/>
<path fill-rule="evenodd" clip-rule="evenodd" d="M65.4084 28.869C65.4084 27.9132 65.2383 27.1869 64.8951 26.6911C64.553 26.1943 64.0644 25.9454 63.4303 25.9454C62.8013 25.9454 62.3137 26.1912 61.9726 26.6809C61.6304 27.1716 61.4573 27.8897 61.4532 28.8372V29.2818C61.4532 30.212 61.6243 30.9342 61.9674 31.4474C62.3085 31.9606 62.8013 32.2177 63.4436 32.2177C64.0736 32.2177 64.5581 31.9698 64.8951 31.475C65.2332 30.9813 65.4043 30.2601 65.4084 29.3136V28.869ZM67.3106 29.2818C67.3106 30.1792 67.1529 30.9649 66.8353 31.641C66.5188 32.3171 66.065 32.8385 65.4739 33.2063C64.8839 33.573 64.2067 33.7564 63.4436 33.7564C62.6886 33.7564 62.0145 33.5761 61.4214 33.2124C60.8293 32.8488 60.3704 32.3304 60.0457 31.6574C59.7189 30.9833 59.555 30.2079 59.5499 29.332V28.8813C59.5499 27.9839 59.7117 27.1941 60.0354 26.5119C60.3591 25.8296 60.816 25.3062 61.4061 24.9415C61.9971 24.5758 62.6712 24.3934 63.4303 24.3934C64.1904 24.3934 64.8654 24.5758 65.4555 24.9415C66.0465 25.3062 66.5024 25.8296 66.8261 26.5119C67.1498 27.1941 67.3106 27.9819 67.3106 28.8751V29.2818Z" fill="#1F304C"/>
<path fill-rule="evenodd" clip-rule="evenodd" d="M70.1942 27.5981C70.6736 27.0224 71.277 26.7345 72.0033 26.7345C73.4712 26.7345 74.217 27.5878 74.2365 29.2945V33.6317H72.4284V29.3446C72.4284 28.9564 72.3454 28.6696 72.1785 28.4842C72.0105 28.2977 71.7339 28.2055 71.3456 28.2055C70.815 28.2055 70.4308 28.4094 70.1942 28.8181V33.6317H68.3851V24.0178H70.1942V27.5981Z" fill="#1F304C"/>
<path fill-rule="evenodd" clip-rule="evenodd" d="M75.6707 33.6323H77.4849V26.8601H75.6707V33.6323ZM75.5631 25.1074C75.5631 24.8359 75.6543 24.6126 75.8356 24.4374C76.0179 24.2622 76.2648 24.1752 76.5773 24.1752C76.8866 24.1752 77.1314 24.2622 77.3158 24.4374C77.5002 24.6126 77.5914 24.8359 77.5914 25.1074C77.5914 25.3829 77.4982 25.6073 77.3128 25.7835C77.1273 25.9586 76.8815 26.0457 76.5773 26.0457C76.273 26.0457 76.0272 25.9586 75.8428 25.7835C75.6563 25.6073 75.5631 25.3829 75.5631 25.1074Z" fill="#1F304C"/>
<path fill-rule="evenodd" clip-rule="evenodd" d="M80.4761 30.3115C80.4761 30.9549 80.5969 31.4476 80.8387 31.7877C81.0815 32.1278 81.4277 32.2978 81.8785 32.2978C82.3169 32.2978 82.659 32.1298 82.9039 31.7938C83.1507 31.4578 83.2737 30.92 83.2737 30.1804C83.2737 29.5484 83.1507 29.0597 82.9039 28.7125C82.659 28.3662 82.3118 28.1931 81.8651 28.1931C81.4236 28.1931 81.0815 28.3652 80.8387 28.7094C80.5969 29.0546 80.4761 29.5883 80.4761 30.3115ZM78.667 30.1835C78.667 29.5115 78.7961 28.9122 79.0552 28.3867C79.3134 27.8612 79.6863 27.4545 80.1728 27.1667C80.6584 26.8778 81.2228 26.7344 81.8651 26.7344C82.7799 26.7344 83.5257 27.014 84.1034 27.5734C84.6812 28.1327 85.0039 28.8917 85.0705 29.8516L85.0827 30.3146C85.0827 31.3534 84.7928 32.1872 84.212 32.8152C83.6332 33.4431 82.8547 33.7566 81.8785 33.7566C80.9022 33.7566 80.1216 33.4441 79.5408 32.8182C78.9589 32.1923 78.667 31.3411 78.667 30.2644V30.1835Z" fill="#1F304C"/>
</g>
</g>
<defs>
<clipPath id="clip0">
<rect width="188.488" height="42" fill="white"/>
</clipPath>
</defs>
</svg>
