<svg xmlns="http://www.w3.org/2000/svg" width="39" height="40" fill="none" viewBox="0 0 39 40"><path fill="#1C0732" d="M37.2956 12.9077H15.4258C15.0086 12.9077 14.6704 13.2459 14.6704 13.6631V16.2093C14.6704 16.6265 15.0086 16.9647 15.4258 16.9647H37.2956C37.7128 16.9647 38.051 16.6265 38.051 16.2093V13.6631C38.051 13.2459 37.7128 12.9077 37.2956 12.9077Z"/><path fill="#1C0732" d="M22.8298 23.0449H0.959996C0.542797 23.0449 0.20459 23.3831 0.20459 23.8003V26.3465C0.20459 26.7637 0.542797 27.1019 0.959996 27.1019H22.8298C23.247 27.1019 23.5852 26.7637 23.5852 26.3465V23.8003C23.5852 23.3831 23.247 23.0449 22.8298 23.0449Z"/><path fill="#1C0732" fill-rule="evenodd" d="M3.00944 15.6838C3.2013 15.7333 3.40493 15.7058 3.57673 15.6071C3.74853 15.5083 3.87484 15.3462 3.92861 15.1555C5.1396 11.3649 7.72307 8.16352 11.1723 6.17918C14.6216 4.19483 18.6878 3.57073 22.5734 4.42928C22.7614 4.46803 22.9572 4.43321 23.1203 4.33199C23.2834 4.23077 23.4015 4.07086 23.4503 3.88518L24.1106 1.42086C24.1365 1.32194 24.142 1.2188 24.1269 1.11768C24.1119 1.01655 24.0765 0.919513 24.023 0.832411C23.9694 0.745308 23.8988 0.669937 23.8154 0.610834C23.7319 0.55173 23.6374 0.510115 23.5375 0.488492C18.6272 -0.616764 13.4808 0.168947 9.12409 2.68901C4.76734 5.20907 1.52026 9.27838 0.0300807 14.0858C0.00202408 14.1822 -0.00652492 14.2833 0.00493364 14.383C0.0163922 14.4828 0.0476283 14.5793 0.0968151 14.6668C0.146002 14.7544 0.212152 14.8313 0.291397 14.893C0.370642 14.9546 0.461391 14.9999 0.558337 15.0261L3.00944 15.6838Z" clip-rule="evenodd"/><path fill="#1C0732" fill-rule="evenodd" d="M35.2512 24.3157C35.0579 24.2637 34.8519 24.29 34.6779 24.3889C34.5038 24.4877 34.3758 24.6512 34.3215 24.8439C33.1131 28.6369 30.5307 31.8414 27.0812 33.8284C23.6316 35.8153 19.564 36.4413 15.6767 35.5834C15.4886 35.5439 15.2926 35.5785 15.1293 35.6798C14.966 35.7811 14.848 35.9414 14.7998 36.1275L14.1527 38.5786C14.1264 38.6777 14.1206 38.7811 14.1355 38.8825C14.1503 38.9839 14.1856 39.0813 14.2392 39.1687C14.2928 39.2561 14.3635 39.3317 14.4472 39.391C14.5308 39.4503 14.6256 39.492 14.7258 39.5136C19.6363 40.6162 24.7818 39.829 29.138 37.3087C33.4942 34.7885 36.7414 30.7201 38.2332 25.9136C38.2616 25.8174 38.2704 25.7164 38.2591 25.6167C38.2478 25.517 38.2166 25.4206 38.1673 25.3331C38.1181 25.2457 38.0518 25.169 37.9723 25.1077C37.8929 25.0463 37.802 25.0016 37.705 24.976L35.2512 24.3157Z" clip-rule="evenodd"/><path fill="#1C0732" d="M30.6873 8.45451C31.9156 8.45451 32.9113 7.45881 32.9113 6.23055C32.9113 5.00229 31.9156 4.00659 30.6873 4.00659C29.4591 4.00659 28.4634 5.00229 28.4634 6.23055C28.4634 7.45881 29.4591 8.45451 30.6873 8.45451Z"/><path fill="#1C0732" d="M7.57357 36.0004C8.80183 36.0004 9.79753 35.0047 9.79753 33.7764C9.79753 32.5482 8.80183 31.5525 7.57357 31.5525C6.34531 31.5525 5.34961 32.5482 5.34961 33.7764C5.34961 35.0047 6.34531 36.0004 7.57357 36.0004Z"/></svg>