<svg width="186" height="41" viewBox="0 0 186 41" fill="none" xmlns="http://www.w3.org/2000/svg">
<g clip-path="url(#clip0)">
<path d="M35.461 13.2571H14.6755C14.279 13.2571 13.9575 13.5785 13.9575 13.975V16.395C13.9575 16.7915 14.279 17.1129 14.6755 17.1129H35.461C35.8575 17.1129 36.1789 16.7915 36.1789 16.395V13.975C36.1789 13.5785 35.8575 13.2571 35.461 13.2571Z" fill="#52BD94"/>
<path d="M21.7117 22.8916H0.926205C0.52969 22.8916 0.208252 23.213 0.208252 23.6096V26.0295C0.208252 26.426 0.52969 26.7475 0.926205 26.7475H21.7117C22.1082 26.7475 22.4296 26.426 22.4296 26.0295V23.6096C22.4296 23.213 22.1082 22.8916 21.7117 22.8916Z" fill="#52BD94"/>
<path fill-rule="evenodd" clip-rule="evenodd" d="M2.8744 15.8954C3.05674 15.9425 3.25027 15.9163 3.41355 15.8225C3.57684 15.7287 3.69688 15.5746 3.74799 15.3934C4.89894 11.7907 7.35432 8.74803 10.6326 6.86207C13.9108 4.97611 17.7754 4.38295 21.4684 5.19894C21.6471 5.23576 21.8331 5.20267 21.9881 5.10647C22.1432 5.01027 22.2554 4.85828 22.3018 4.68181L22.9294 2.33968C22.9539 2.24565 22.9592 2.14763 22.9449 2.05152C22.9306 1.9554 22.8969 1.86318 22.846 1.7804C22.7952 1.69761 22.728 1.62598 22.6487 1.56981C22.5695 1.51363 22.4796 1.47408 22.3846 1.45353C17.7179 0.403074 12.8266 1.14983 8.68587 3.54494C4.54513 5.94006 1.45904 9.80761 0.0427494 14.3767C0.0160839 14.4683 0.00795875 14.5644 0.0188492 14.6592C0.0297396 14.754 0.059427 14.8457 0.106175 14.9289C0.152923 15.0121 0.215794 15.0852 0.29111 15.1438C0.366426 15.2024 0.452675 15.2455 0.544814 15.2704L2.8744 15.8954Z" fill="#52BD94"/>
<path fill-rule="evenodd" clip-rule="evenodd" d="M33.5179 24.0993C33.3341 24.0499 33.1384 24.0749 32.9729 24.1688C32.8075 24.2628 32.6858 24.4182 32.6342 24.6013C31.4858 28.2063 29.0314 31.2519 25.7529 33.1403C22.4744 35.0288 18.6084 35.6237 14.9138 34.8083C14.7351 34.7709 14.5488 34.8037 14.3936 34.9C14.2384 34.9963 14.1262 35.1486 14.0804 35.3254L13.4654 37.655C13.4405 37.7492 13.4349 37.8475 13.449 37.9439C13.4632 38.0403 13.4967 38.1328 13.5476 38.2159C13.5985 38.299 13.6658 38.3709 13.7453 38.4272C13.8248 38.4835 13.9149 38.5232 14.0101 38.5437C18.6771 39.5916 23.5675 38.8434 27.7077 36.4482C31.8479 34.0529 34.9342 30.1862 36.352 25.618C36.379 25.5265 36.3874 25.4306 36.3766 25.3358C36.3659 25.241 36.3362 25.1494 36.2894 25.0663C36.2426 24.9832 36.1796 24.9103 36.1041 24.852C36.0286 24.7937 35.9422 24.7512 35.85 24.7269L33.5179 24.0993Z" fill="#52BD94"/>
<path d="M29.1799 9.02475C30.3472 9.02475 31.2936 8.07842 31.2936 6.91106C31.2936 5.7437 30.3472 4.79736 29.1799 4.79736C28.0125 4.79736 27.0662 5.7437 27.0662 6.91106C27.0662 8.07842 28.0125 9.02475 29.1799 9.02475Z" fill="#52BD94"/>
<path d="M7.21233 35.2049C8.37969 35.2049 9.32602 34.2586 9.32602 33.0912C9.32602 31.9239 8.37969 30.9775 7.21233 30.9775C6.04497 30.9775 5.09863 31.9239 5.09863 33.0912C5.09863 34.2586 6.04497 35.2049 7.21233 35.2049Z" fill="#52BD94"/>
<path fill-rule="evenodd" clip-rule="evenodd" d="M87.944 16.1691C88.7147 15.3227 89.6564 14.6496 90.7067 14.1944C91.757 13.7391 92.892 13.5121 94.0366 13.5282C96.2607 13.5282 97.9928 14.216 99.0873 15.5365V14.442C99.0946 14.2907 99.1576 14.1475 99.2642 14.0399C99.3708 13.9323 99.5135 13.8681 99.6647 13.8596H102.597C102.748 13.8686 102.89 13.9331 102.997 14.0405C103.103 14.1479 103.166 14.2909 103.174 14.442V30.7214C103.265 33.0186 102.555 35.276 101.166 37.1077C99.5844 39.0306 97.1845 40.0046 94.0315 40.0046C89.6485 40.0046 86.1893 37.2307 85.6195 33.2694C85.6056 33.1265 85.6422 32.9833 85.7229 32.8645C85.8036 32.7458 85.9233 32.659 86.0613 32.6192L88.9255 31.9465C88.9406 31.9453 88.9557 31.9453 88.9707 31.9465C89.0454 31.9351 89.1217 31.9386 89.195 31.9569C89.2683 31.9751 89.3373 32.0077 89.398 32.0527C89.4587 32.0978 89.5099 32.1544 89.5485 32.2193C89.5872 32.2842 89.6127 32.3562 89.6234 32.431C89.7513 33.5027 90.2745 34.4882 91.0908 35.1944C91.9071 35.9007 92.9576 36.2768 94.0366 36.2492C97.4607 36.2492 99.0572 34.4919 99.0572 30.8193V29.3935C98.4289 30.0976 97.6535 30.655 96.7859 31.0263C95.9183 31.3976 94.9797 31.5738 94.0366 31.5423C89.164 31.5423 85.6295 27.7593 85.6295 22.5528C85.5862 20.2121 86.4106 17.9382 87.944 16.1691V16.1691ZM144.8 13.3048H144.953C150.193 13.3751 153.438 17.0226 153.438 22.8591C153.438 23.1685 153.421 23.4777 153.388 23.7854C153.372 23.9232 153.305 24.0503 153.202 24.1427C153.098 24.2351 152.965 24.2866 152.826 24.2875H140.372C140.41 25.5446 140.94 26.7366 141.849 27.606C142.758 28.4754 143.972 28.9524 145.23 28.9341C146.215 28.9956 147.191 28.7216 148 28.1568C148.81 27.5919 149.404 26.7695 149.685 25.8238C149.738 25.6855 149.841 25.5726 149.974 25.5085C150.108 25.4445 150.26 25.4342 150.401 25.4799L152.879 26.3585C152.95 26.3819 153.016 26.4201 153.072 26.4707C153.128 26.5214 153.172 26.5832 153.202 26.6522C153.236 26.7189 153.256 26.7917 153.262 26.8663C153.267 26.9409 153.257 27.0158 153.233 27.0865C152.671 28.7515 151.588 30.1919 150.146 31.1952C148.703 32.1986 146.976 32.7119 145.22 32.6594C144.049 32.6708 142.888 32.4499 141.803 32.0096C140.719 31.5692 139.732 30.918 138.901 30.0939C137.994 29.1399 137.287 28.0142 136.821 26.783C136.355 25.5518 136.139 24.2399 136.187 22.9244C136.187 16.8996 140.565 13.2922 144.795 13.2922L144.8 13.3048ZM74.3406 13.3048C79.6725 13.3048 82.9861 16.9674 82.9861 22.8616C82.9857 23.171 82.9689 23.4802 82.9359 23.7879C82.921 23.9264 82.8552 24.0544 82.7514 24.1471C82.6475 24.2399 82.5129 24.2908 82.3736 24.29H69.9199C69.9547 25.5542 70.4882 26.7533 71.4039 27.6257C72.3195 28.4981 73.543 28.973 74.8075 28.9466C75.7926 29.0091 76.7697 28.7354 77.5791 28.1705C78.3885 27.6055 78.9823 26.7826 79.2633 25.8363C79.3139 25.6968 79.4171 25.5827 79.5509 25.5184C79.6846 25.4541 79.8382 25.4448 79.9788 25.4924L82.4665 26.3685C82.5383 26.3916 82.6043 26.4298 82.6601 26.4804C82.716 26.5311 82.7603 26.5931 82.7903 26.6622C82.8188 26.7311 82.8335 26.8049 82.8335 26.8794C82.8335 26.9539 82.8188 27.0277 82.7903 27.0965C82.2285 28.7607 81.1472 30.2005 79.7055 31.2037C78.2638 32.207 76.5381 32.7208 74.7824 32.6694C73.6098 32.6821 72.4464 32.4618 71.3596 32.0214C70.2729 31.581 69.2843 30.9293 68.4513 30.1039C67.5458 29.1488 66.8396 28.0229 66.3737 26.792C65.9078 25.5611 65.6916 24.2497 65.7377 22.9344C65.7377 16.9096 70.1157 13.3023 74.3481 13.3023L74.3406 13.3048ZM55.478 13.3048C57.8703 13.3048 59.8058 13.8847 61.2392 15.0319C62.2071 15.804 62.9251 16.8451 63.3027 18.0242C63.3145 18.0743 63.3163 18.1263 63.308 18.1771C63.2996 18.228 63.2812 18.2766 63.2539 18.3203C63.2266 18.364 63.1909 18.4018 63.1488 18.4315C63.1068 18.4613 63.0592 18.4824 63.009 18.4936L60.0392 19.4752C59.9075 19.5254 59.7618 19.5254 59.6301 19.4752C59.574 19.4493 59.5242 19.4117 59.4839 19.3649C59.4437 19.3182 59.4139 19.2633 59.3966 19.2041C59.1456 18.2426 58.282 16.6285 55.473 16.6285C53.5124 16.6285 52.3376 17.7531 52.3376 18.8426C52.3376 19.5656 52.7116 20.4969 54.4789 20.8333L57.7423 21.4458C61.3898 22.1813 63.4784 24.177 63.4784 26.9559V26.9083C63.4784 29.6696 60.8225 32.6192 55.8872 32.6192C50.1636 32.6192 47.9144 29.3809 47.5002 27.4706C47.4865 27.3708 47.5098 27.2694 47.5658 27.1857C47.6217 27.102 47.7065 27.0417 47.8039 27.0162L50.8665 26.0623C50.9213 26.0522 50.9774 26.0522 51.0322 26.0623C51.1196 26.0607 51.206 26.0814 51.2832 26.1225C51.3388 26.1492 51.3878 26.1878 51.4268 26.2355C51.4659 26.2832 51.494 26.3389 51.5092 26.3987C51.8958 28.2362 53.5551 29.3307 55.9424 29.3307C58.164 29.3307 59.1757 28.1684 59.1757 27.1141C59.1757 26.0598 58.2745 25.2841 56.7256 24.9728L53.2915 24.305C50.0883 23.7001 48.0926 21.7094 48.0926 19.1187C48.0926 15.9657 51.479 13.3048 55.478 13.3048ZM181.634 8.19629C181.79 8.20589 181.936 8.27463 182.043 8.38848C182.15 8.50233 182.21 8.65268 182.209 8.80881V13.8295H185.43C185.585 13.8409 185.729 13.9103 185.835 14.0239C185.941 14.1375 186 14.2868 186 14.442V17.118C186 17.2703 185.941 17.4166 185.834 17.5252C185.728 17.6338 185.582 17.6959 185.43 17.6979H182.209V26.6321C182.209 28.1132 182.797 28.7257 184.308 28.7257C184.652 28.72 184.996 28.6914 185.337 28.6404C185.42 28.6263 185.504 28.6305 185.585 28.6526C185.665 28.6747 185.74 28.7142 185.804 28.7684C185.865 28.8249 185.914 28.8932 185.947 28.9692C185.981 29.0451 185.999 29.1271 186 29.2102V31.7205C186.001 31.8455 185.961 31.9673 185.887 32.0678C185.813 32.1683 185.708 32.242 185.588 32.2778C184.853 32.4839 184.092 32.5828 183.329 32.5715C180.101 32.5715 178.1 30.4955 178.1 27.1467V17.7355H175.313C175.163 17.7264 175.02 17.6619 174.914 17.5544C174.808 17.4469 174.746 17.304 174.738 17.1531V14.4721C174.738 14.3158 174.797 14.1651 174.904 14.0511C175.011 13.9371 175.157 13.8686 175.313 13.8596H176.036C176.912 13.8596 178.389 13.5533 178.389 11.4647V8.80881C178.388 8.6525 178.447 8.50181 178.554 8.38783C178.661 8.27386 178.807 8.20529 178.963 8.19629H181.634ZM121.186 16.2971C121.815 15.3348 122.685 14.5529 123.708 14.0283C124.731 13.5037 125.873 13.2543 127.022 13.3048V13.3048C130.205 13.3048 133.421 15.5465 133.421 20.4442V31.7808C133.413 31.9319 133.35 32.0748 133.244 32.1823C133.137 32.2897 132.995 32.3541 132.844 32.3632H129.909C129.759 32.3535 129.617 32.2889 129.511 32.1815C129.405 32.0741 129.342 31.9315 129.334 31.7808V20.8082C129.334 19.42 128.9 17.0803 125.96 17.0803C123.812 17.0803 122.285 18.7698 122.285 21.2199V31.7808C122.278 31.9317 122.215 32.0746 122.109 32.1821C122.003 32.2896 121.861 32.3541 121.71 32.3632H118.738C118.587 32.3541 118.445 32.2897 118.338 32.1823C118.232 32.0748 118.169 31.9319 118.161 31.7808V20.8082C118.166 19.42 117.734 17.0703 114.792 17.0703C112.558 17.0703 111.052 18.7472 111.052 21.245V31.7808C111.044 31.9315 110.981 32.0741 110.875 32.1815C110.769 32.2889 110.627 32.3535 110.477 32.3632H107.545C107.395 32.3529 107.254 32.2879 107.149 32.1805C107.044 32.0731 106.982 31.9309 106.975 31.7808V14.4043C106.982 14.2544 107.044 14.1125 107.149 14.0052C107.254 13.898 107.395 13.8328 107.545 13.8219H110.366C110.517 13.8316 110.659 13.8963 110.765 14.0036C110.871 14.111 110.933 14.2536 110.941 14.4043V15.4511C111.57 14.7635 112.337 14.2168 113.192 13.8469C114.046 13.477 114.97 13.2922 115.902 13.3048C116.972 13.2735 118.03 13.5358 118.961 14.0633C119.893 14.5908 120.662 15.3634 121.186 16.2971V16.2971ZM165.897 13.3048C166.836 13.2647 167.771 13.4384 168.633 13.8128C169.494 14.1873 170.259 14.7526 170.87 15.4662C172.01 16.9665 172.59 18.8178 172.509 20.7002V31.7808C172.503 31.9306 172.441 32.0729 172.337 32.1803C172.232 32.2877 172.092 32.3528 171.942 32.3632H168.972C168.821 32.3536 168.679 32.289 168.573 32.1817C168.467 32.0743 168.403 31.9317 168.395 31.7808V21.2927C168.395 18.5489 167.105 17.1531 164.655 17.1531C164.121 17.1359 163.591 17.2445 163.108 17.4699C162.624 17.6954 162.2 18.0314 161.871 18.451C161.206 19.4063 160.871 20.5517 160.914 21.7144V31.7808C160.906 31.9315 160.844 32.0741 160.738 32.1815C160.632 32.2889 160.49 32.3535 160.339 32.3632H157.375C157.224 32.3535 157.082 32.2889 156.976 32.1815C156.87 32.0741 156.807 31.9315 156.8 31.7808V14.3918C156.806 14.2403 156.868 14.0964 156.974 13.9883C157.08 13.8802 157.223 13.8155 157.375 13.8069H160.271C160.421 13.8166 160.562 13.8811 160.667 13.988C160.772 14.095 160.834 14.2369 160.841 14.3868V15.6118C161.455 14.8708 162.229 14.2783 163.105 13.8788C163.98 13.4792 164.935 13.283 165.897 13.3048ZM94.5462 17.1908C91.6543 17.1908 89.8192 19.2467 89.8192 22.5528C89.8192 25.8589 91.6317 27.9124 94.5462 27.9124C97.3251 27.9124 99.1978 25.756 99.1978 22.5528C99.1978 19.3497 97.3251 17.1908 94.5462 17.1908ZM74.3707 17.0251C73.3037 17.0067 72.2681 17.3871 71.4668 18.0919C70.6654 18.7967 70.1559 19.7751 70.0379 20.8358H78.7487C78.5403 18.4836 76.8685 17.0251 74.3707 17.0251V17.0251ZM144.848 17.0251C143.782 17.0085 142.748 17.3897 141.948 18.0942C141.148 18.7988 140.639 19.7762 140.52 20.8358H149.234C149.018 18.4836 147.356 17.0251 144.846 17.0251H144.848Z" fill="#52BD94"/>
<path d="M52.4131 1.55376V7.39278H50.7588V1.55376H48.4719V0.137939H54.7251V1.55376H52.4131Z" fill="#52BD94"/>
<path d="M65.0501 7.41788H63.3306L61.7541 2.07089L60.15 7.41788H58.4656L56.3318 0.137939H58.089L59.4421 5.38201L60.9684 0.137939H62.7256L64.2318 5.38201L65.5422 0.137939H67.1588L65.0501 7.41788Z" fill="#52BD94"/>
<path d="M69.4355 7.39278V0.137939H71.0647V7.39278H69.4355Z" fill="#52BD94"/>
<path d="M73.9968 7.39278V0.137939H75.6511V5.9644H78.4828V7.39278H73.9968Z" fill="#52BD94"/>
<path d="M80.948 7.39278V0.137939H82.5898V7.39278H80.948Z" fill="#52BD94"/>
<path d="M88.7325 7.53087C86.7243 7.53087 85.1177 6.08995 85.1177 3.77794C85.1177 1.46593 86.7469 0.0124512 88.7451 0.0124512C90.7433 0.0124512 92.3575 1.45338 92.3575 3.77794C92.3575 6.1025 90.7408 7.53087 88.7325 7.53087ZM88.7325 1.34041C87.4774 1.34041 86.7469 2.37467 86.7469 3.76539C86.7469 5.15611 87.5 6.20291 88.7325 6.20291C89.9651 6.20291 90.6906 5.14355 90.6906 3.77794C90.6906 2.41232 89.9576 1.34041 88.7451 1.34041H88.7325Z" fill="#52BD94"/>
</g>
<defs>
<clipPath id="clip0">
<rect width="186" height="40.0045" fill="white"/>
</clipPath>
</defs>
</svg>
