<svg xmlns="http://www.w3.org/2000/svg" width="41" height="42" fill="none" viewBox="0 0 41 42"><path fill="#52BD94" d="M39.1605 13.5532H16.1972C15.7592 13.5532 15.4041 13.9083 15.4041 14.3464V17.0199C15.4041 17.458 15.7592 17.8131 16.1972 17.8131H39.1605C39.5986 17.8131 39.9537 17.458 39.9537 17.0199V14.3464C39.9537 13.9083 39.5986 13.5532 39.1605 13.5532Z"/><path fill="#52BD94" d="M23.9711 24.1973H1.00778C0.569717 24.1973 0.2146 24.5524 0.2146 24.9904V27.6639C0.2146 28.102 0.569717 28.4571 1.00778 28.4571H23.9711C24.4091 28.4571 24.7642 28.102 24.7642 27.6639V24.9904C24.7642 24.5524 24.4091 24.1973 23.9711 24.1973Z"/><path fill="#52BD94" fill-rule="evenodd" d="M3.15992 16.468C3.36136 16.52 3.57518 16.4911 3.75557 16.3874C3.93596 16.2837 4.06858 16.1135 4.12504 15.9133C5.39658 11.9332 8.10923 8.5717 11.731 6.48814C15.3527 4.40458 19.6222 3.74927 23.7021 4.65075C23.8995 4.69143 24.105 4.65487 24.2763 4.54859C24.4476 4.44231 24.5716 4.2744 24.6228 4.07944L25.3162 1.49191C25.3433 1.38803 25.3491 1.27974 25.3333 1.17356C25.3175 1.06738 25.2803 0.965489 25.2241 0.874031C25.1679 0.782573 25.0937 0.703434 25.0061 0.641375C24.9185 0.579316 24.8193 0.535621 24.7143 0.512917C19.5586 -0.647602 14.1549 0.177394 9.58029 2.82346C5.00571 5.46952 1.59627 9.7423 0.0315847 14.7901C0.00212528 14.8913 -0.00685116 14.9974 0.00518032 15.1022C0.0172118 15.207 0.0500097 15.3083 0.101656 15.4002C0.153302 15.4921 0.22276 15.5728 0.305967 15.6376C0.389174 15.7024 0.484461 15.7499 0.586254 15.7774L3.15992 16.468Z" clip-rule="evenodd"/><path fill="#52BD94" fill-rule="evenodd" d="M37.014 25.5313C36.811 25.4767 36.5947 25.5043 36.4119 25.6082C36.2292 25.712 36.0947 25.8837 36.0377 26.086C34.7689 30.0687 32.0574 33.4334 28.4354 35.5197C24.8134 37.6059 20.5424 38.2632 16.4607 37.3624C16.2632 37.321 16.0574 37.3573 15.8859 37.4637C15.7145 37.57 15.5906 37.7384 15.54 37.9337L14.8605 40.5074C14.8329 40.6114 14.8268 40.72 14.8424 40.8265C14.858 40.933 14.8951 41.0352 14.9513 41.127C15.0076 41.2188 15.0819 41.2982 15.1697 41.3604C15.2575 41.4227 15.3571 41.4665 15.4623 41.4891C20.6182 42.6468 26.0211 41.8203 30.5951 39.1741C35.1691 36.5278 38.5787 32.256 40.1451 27.2092C40.1749 27.1081 40.1841 27.0021 40.1722 26.8974C40.1604 26.7927 40.1276 26.6915 40.0759 26.5997C40.0241 26.5079 39.9545 26.4274 39.8711 26.363C39.7877 26.2985 39.6923 26.2515 39.5904 26.2247L37.014 25.5313Z" clip-rule="evenodd"/><path fill="#52BD94" d="M32.2216 8.87734C33.5113 8.87734 34.5568 7.83186 34.5568 6.54219C34.5568 5.25252 33.5113 4.20703 32.2216 4.20703C30.932 4.20703 29.8865 5.25252 29.8865 6.54219C29.8865 7.83186 30.932 8.87734 32.2216 8.87734Z"/><path fill="#52BD94" d="M7.95234 37.8004C9.24201 37.8004 10.2875 36.755 10.2875 35.4653C10.2875 34.1756 9.24201 33.1301 7.95234 33.1301C6.66267 33.1301 5.61719 34.1756 5.61719 35.4653C5.61719 36.755 6.66267 37.8004 7.95234 37.8004Z"/></svg>