<svg fill="none" height="40" viewBox="0 0 40 40" width="40" xmlns="http://www.w3.org/2000/svg"><g fill="#000"><path d="m20 0c-11.01538 0-20 8.98462-20 20 0 11.0154 8.98462 20 20 20 11.0154 0 20-8.9846 20-20 0-11.01538-8.9846-20-20-20zm0 34.7077c-8.1231 0-14.70769-6.5846-14.70769-14.7077s6.58459-14.70769 14.70769-14.70769 14.7077 6.58459 14.7077 14.70769-6.5846 14.7077-14.7077 14.7077z"/><path d="m24.9849 19.2c2.3111 0 4.1846-1.8735 4.1846-4.1846s-1.8735-4.1846-4.1846-4.1846-4.1846 1.8735-4.1846 4.1846 1.8735 4.1846 4.1846 4.1846z"/><path d="m24.9849 29.1693c2.3111 0 4.1846-1.8735 4.1846-4.1846s-1.8735-4.1847-4.1846-4.1847-4.1846 1.8736-4.1846 4.1847 1.8735 4.1846 4.1846 4.1846z"/><path d="m15.0152 29.1693c2.3111 0 4.1846-1.8735 4.1846-4.1846s-1.8735-4.1847-4.1846-4.1847-4.1846 1.8736-4.1846 4.1847 1.8735 4.1846 4.1846 4.1846z"/><path d="m15.0152 19.2c2.3111 0 4.1846-1.8735 4.1846-4.1846s-1.8735-4.1846-4.1846-4.1846-4.1846 1.8735-4.1846 4.1846 1.8735 4.1846 4.1846 4.1846z"/></g></svg>