<svg xmlns="http://www.w3.org/2000/svg" width="133" height="40" fill="none" viewBox="0 0 133 40"><g clip-path="url(#clip0)"><path fill="#F22F46" d="M93.7073 7.82812H86.6272C86.5328 7.8283 86.4423 7.86588 86.3755 7.93266C86.3087 7.99943 86.2712 8.08995 86.271 8.18438V12.2806C86.2716 12.3749 86.3093 12.4652 86.376 12.5319C86.4427 12.5986 86.5329 12.6363 86.6272 12.6369H93.7073C93.8017 12.6363 93.8921 12.5987 93.959 12.532C94.0259 12.4653 94.0639 12.3751 94.0648 12.2806V8.18438C94.0643 8.08982 94.0264 7.99928 93.9595 7.93253C93.8925 7.86578 93.8018 7.82825 93.7073 7.82812Z"/><path fill="#F22F46" d="M93.5752 13.9292H79.9977C79.8969 13.9338 79.7999 13.9694 79.72 14.0311C79.6402 14.0929 79.5813 14.1778 79.5515 14.2742L77.8102 20.9467L77.719 21.2905L75.6003 14.2042C75.5666 14.1077 75.5048 14.0234 75.4228 13.9624C75.3408 13.9013 75.2424 13.8663 75.1403 13.8617H69.8515C69.7497 13.8665 69.6517 13.9017 69.5701 13.9627C69.4886 14.0238 69.4272 14.1079 69.394 14.2042L67.4077 20.883L67.3065 21.2242L67.2202 20.8792L66.3777 17.5767L65.5377 14.2742C65.5088 14.1777 65.4505 14.0926 65.371 14.0308C65.2915 13.969 65.1946 13.9335 65.094 13.9292H54.4215V8.18297C54.4154 8.1293 54.3977 8.07761 54.3696 8.03144C54.3416 7.98528 54.3039 7.94574 54.2591 7.91556C54.2143 7.88538 54.1635 7.86527 54.1101 7.85663C54.0568 7.84798 54.0023 7.85099 53.9502 7.86547L47.2502 9.95797C47.049 10.023 46.894 10.118 46.894 10.313V13.9292H45.1277C45.0332 13.9297 44.9426 13.9675 44.8759 14.0345C44.8091 14.1015 44.7716 14.1922 44.7715 14.2867V19.3755C44.7716 19.47 44.8091 19.5607 44.8759 19.6277C44.9426 19.6947 45.0332 19.7325 45.1277 19.733H46.894V25.9655C46.894 30.3767 49.2815 32.4317 53.7252 32.4317C55.3854 32.4616 57.0302 32.1096 58.5327 31.403V26.063C58.5389 26.0155 58.5323 25.9672 58.5138 25.9231C58.4952 25.879 58.4653 25.8406 58.4271 25.8117C58.3889 25.7829 58.3437 25.7647 58.2962 25.759C58.2486 25.7533 58.2004 25.7603 58.1565 25.7792C57.5551 26.047 56.9021 26.1789 56.244 26.1655C55.0502 26.1655 54.4215 25.668 54.4215 24.308V19.733H58.2427C58.3375 19.7328 58.4283 19.695 58.4953 19.628C58.5623 19.561 58.6 19.4702 58.6002 19.3755V15.078L63.624 31.8255C63.6573 31.9216 63.7187 32.0056 63.8003 32.0664C63.8818 32.1273 63.9798 32.1622 64.0815 32.1667H69.6365C69.7388 32.1621 69.8376 32.1273 69.9203 32.0669C70.003 32.0064 70.066 31.9228 70.1015 31.8267L72.4815 24.408L73.6902 28.2867L74.7952 31.8267C74.8297 31.9227 74.892 32.0063 74.9741 32.0669C75.0562 32.1274 75.1545 32.1622 75.2565 32.1667H80.8452C80.9472 32.1623 81.0456 32.1275 81.1275 32.0666C81.2095 32.0058 81.2714 31.9218 81.3052 31.8255L86.4052 15.0305V31.818C86.4052 31.8648 86.4144 31.9111 86.4323 31.9543C86.4502 31.9976 86.4764 32.0368 86.5095 32.0699C86.5426 32.103 86.5819 32.1292 86.6251 32.1471C86.6683 32.165 86.7147 32.1742 86.7615 32.1742H93.5752C93.6698 32.1741 93.7605 32.1366 93.8274 32.0698C93.8944 32.0031 93.9323 31.9125 93.9327 31.818V14.2867C93.9325 14.192 93.8948 14.1011 93.8278 14.0341C93.7608 13.9671 93.67 13.9294 93.5752 13.9292"/><path fill="#F22F46" d="M102.543 7.82813H95.7296C95.6827 7.82798 95.6362 7.83708 95.5929 7.85492C95.5495 7.87276 95.5101 7.89897 95.4769 7.93207C95.4437 7.96516 95.4173 8.00448 95.3993 8.04778C95.3814 8.09108 95.3721 8.1375 95.3721 8.18438V31.8181C95.3723 31.9128 95.4101 32.0034 95.4771 32.0702C95.5441 32.137 95.6349 32.1745 95.7296 32.1744H102.543C102.638 32.174 102.728 32.1363 102.795 32.0696C102.862 32.0029 102.899 31.9125 102.9 31.8181V8.18438C102.899 8.08995 102.862 7.99944 102.795 7.93266C102.728 7.86589 102.638 7.8283 102.543 7.82813Z"/><path fill="#F22F46" d="M111.637 7.82812H104.557C104.463 7.8283 104.372 7.86588 104.305 7.93266C104.238 7.99943 104.201 8.08995 104.201 8.18438V12.2806C104.201 12.3749 104.239 12.4652 104.306 12.5319C104.372 12.5986 104.463 12.6363 104.557 12.6369H111.637C111.731 12.6363 111.822 12.5986 111.888 12.5319C111.955 12.4652 111.993 12.3749 111.993 12.2806V8.18438C111.993 8.08995 111.955 7.99943 111.889 7.93266C111.822 7.86589 111.731 7.8283 111.637 7.82812Z"/><path fill="#F22F46" d="M111.504 13.9294H104.689C104.595 13.9297 104.504 13.9675 104.437 14.0345C104.37 14.1015 104.333 14.1923 104.333 14.2869V31.8182C104.333 31.9126 104.371 32.0031 104.438 32.0699C104.504 32.1367 104.595 32.1743 104.689 32.1744H111.504C111.599 32.1741 111.689 32.1364 111.756 32.0697C111.822 32.0029 111.86 31.9126 111.861 31.8182V14.2869C111.86 14.1924 111.823 14.1017 111.756 14.0347C111.689 13.9678 111.599 13.9299 111.504 13.9294"/><path fill="#F22F46" d="M122.78 13.4985C116.812 13.4985 112.568 17.876 112.568 22.981V23.0485C112.568 28.1548 116.778 32.466 122.714 32.466C128.683 32.466 132.928 28.0885 132.928 22.981V22.916C132.928 17.8085 128.715 13.4985 122.78 13.4985H122.78ZM125.698 23.0485C125.718 23.4481 125.658 23.8477 125.522 24.2238C125.385 24.5999 125.175 24.9449 124.903 25.2384C124.631 25.5319 124.303 25.7681 123.939 25.933C123.574 26.0979 123.18 26.1882 122.78 26.1985C122.373 26.1847 121.972 26.0904 121.601 25.9209C121.229 25.7515 120.896 25.5103 120.618 25.2112C120.341 24.9121 120.125 24.5611 119.984 24.1783C119.843 23.7956 119.779 23.3887 119.795 22.981V22.916C119.775 22.5163 119.835 22.1166 119.971 21.7404C120.108 21.3642 120.319 21.0191 120.591 20.7256C120.863 20.432 121.191 20.1959 121.555 20.0311C121.92 19.8663 122.314 19.7762 122.714 19.766C123.122 19.7798 123.522 19.874 123.893 20.0433C124.264 20.2126 124.598 20.4536 124.875 20.7525C125.153 21.0513 125.368 21.4021 125.509 21.7846C125.65 22.167 125.715 22.5737 125.698 22.981V23.0485Z"/><path fill="#F22F46" d="M20 7.66995e-10C16.0443 8.49293e-09 12.1775 1.17301 8.88848 3.37069C5.59946 5.56838 3.03602 8.69203 1.5223 12.3466C0.00858271 16.0012 -0.387411 20.0226 0.384395 23.9023C1.1562 27.7819 3.06114 31.3456 5.85832 34.1426C8.65549 36.9396 12.2193 38.8443 16.099 39.6159C19.9787 40.3874 24 39.9912 27.6545 38.4772C31.309 36.9633 34.4325 34.3996 36.63 31.1105C38.8275 27.8213 40.0003 23.9544 40 19.9988C39.9997 14.6946 37.8925 9.60784 34.1418 5.85737C30.3911 2.1069 25.3041 -4.64184e-05 20 7.66995e-10ZM20 34.7287C17.087 34.7285 14.2396 33.8645 11.8176 32.246C9.39569 30.6275 7.50806 28.3271 6.39343 25.6359C5.2788 22.9446 4.98723 19.9832 5.55558 17.1263C6.12393 14.2693 7.52668 11.645 9.58646 9.5852C11.6462 7.52542 14.2705 6.12267 17.1275 5.55432C19.9845 4.98597 22.9459 5.27754 25.6371 6.39217C28.3284 7.5068 30.6287 9.39443 32.2472 11.8164C33.8658 14.2383 34.7298 17.0858 34.73 19.9988C34.7301 21.9331 34.3491 23.8486 33.6089 25.6358C32.8687 27.4229 31.7837 29.0468 30.4159 30.4146C29.048 31.7824 27.4242 32.8674 25.637 33.6077C23.8499 34.3479 21.9344 34.7288 20 34.7287Z"/><path fill="#F22F46" d="M20.8223 15.0186C20.8223 14.1961 21.0662 13.392 21.5231 12.7081C21.9801 12.0242 22.6296 11.4912 23.3895 11.1764C24.1494 10.8617 24.9856 10.7793 25.7923 10.9398C26.5991 11.1002 27.3401 11.4963 27.9217 12.0779C28.5033 12.6595 28.8994 13.4006 29.0599 14.2073C29.2203 15.014 29.138 15.8502 28.8232 16.6101C28.5084 17.37 27.9754 18.0195 27.2915 18.4765C26.6076 18.9335 25.8035 19.1774 24.981 19.1774C24.4349 19.1774 23.8941 19.0698 23.3895 18.8608C22.885 18.6518 22.4265 18.3455 22.0403 17.9593C21.6541 17.5731 21.3478 17.1147 21.1388 16.6101C20.9298 16.1055 20.8223 15.5647 20.8223 15.0186Z"/><path fill="#F22F46" d="M20.8223 24.9808C20.822 24.1582 21.0657 23.3541 21.5225 22.67C21.9794 21.9859 22.6288 21.4527 23.3887 21.1377C24.1486 20.8228 24.9848 20.7402 25.7916 20.9006C26.5984 21.0609 27.3395 21.4569 27.9213 22.0384C28.503 22.62 28.8992 23.361 29.0598 24.1678C29.2203 24.9745 29.138 25.8108 28.8233 26.5708C28.5086 27.3307 27.9756 27.9803 27.2916 28.4373C26.6077 28.8944 25.8036 29.1383 24.981 29.1383C23.8783 29.1383 22.8206 28.7004 22.0408 27.9207C21.2609 27.141 20.8226 26.0836 20.8223 24.9808Z"/><path fill="#F22F46" d="M10.8608 24.9808C10.8606 24.1582 11.1043 23.3541 11.5611 22.67C12.0179 21.9859 12.6673 21.4527 13.4272 21.1377C14.1871 20.8228 15.0234 20.7402 15.8302 20.9006C16.637 21.0609 17.3781 21.4569 17.9598 22.0384C18.5416 22.62 18.9378 23.361 19.0983 24.1678C19.2589 24.9745 19.1766 25.8108 18.8619 26.5708C18.5472 27.3307 18.0141 27.9803 17.3302 28.4373C16.6463 28.8944 15.8422 29.1383 15.0196 29.1383C13.9168 29.1383 12.8592 28.7004 12.0793 27.9207C11.2994 27.141 10.8612 26.0836 10.8608 24.9808Z"/><path fill="#F22F46" d="M10.8608 15.0186C10.8608 14.1961 11.1047 13.392 11.5617 12.7081C12.0187 12.0242 12.6682 11.4912 13.4281 11.1764C14.188 10.8617 15.0242 10.7793 15.8309 10.9398C16.6376 11.1002 17.3787 11.4963 17.9603 12.0779C18.5419 12.6595 18.938 13.4006 19.0984 14.2073C19.2589 15.014 19.1765 15.8502 18.8618 16.6101C18.547 17.37 18.014 18.0195 17.3301 18.4765C16.6462 18.9335 15.8421 19.1774 15.0196 19.1774C14.4735 19.1774 13.9327 19.0698 13.4281 18.8608C12.9235 18.6518 12.4651 18.3455 12.0789 17.9593C11.6927 17.5731 11.3864 17.1147 11.1774 16.6101C10.9684 16.1055 10.8608 15.5647 10.8608 15.0186Z"/></g><defs><clipPath id="clip0"><rect width="132.928" height="40" fill="#fff"/></clipPath></defs></svg>